<svg width="48" height="49" viewBox="0 0 48 49" fill="none" xmlns="http://www.w3.org/2000/svg">
<rect opacity="0.2" y="0.648438" width="48" height="48" rx="1.33333" fill="url(#paint0_linear_1602_5136)" fill-opacity="0.6"/>
<path fill-rule="evenodd" clip-rule="evenodd" d="M26.4978 21.3921C26.6088 21.3365 26.7198 21.4476 26.7198 21.5586V25.4996C26.7198 25.5443 26.7018 25.58 26.6731 25.6067C26.6304 25.6463 26.5641 25.6661 26.4978 25.6661H25.8872C25.8779 25.6661 25.8686 25.6645 25.8593 25.6619C25.8408 25.6568 25.8224 25.6475 25.804 25.6383C25.7762 25.6245 25.7485 25.6106 25.7207 25.6106L23.9445 23.1683V25.4996C23.9445 25.6106 23.8335 25.6661 23.778 25.6661H23.1119C23.0009 25.6661 22.9454 25.6106 22.9454 25.4996V21.5586C22.9454 21.5117 22.9553 21.4747 22.9751 21.4476C22.9801 21.4407 22.9858 21.4345 22.9921 21.4289C23.0198 21.4043 23.0597 21.3921 23.1119 21.3921H23.778C23.7966 21.3921 23.8153 21.3921 23.8319 21.3942C23.8645 21.3983 23.889 21.4107 23.889 21.4476L25.7207 23.8899V21.5586C25.7207 21.4476 25.7762 21.3921 25.8872 21.3921H26.4978ZM27.4969 21.3365C27.4522 21.3365 27.4165 21.3545 27.3898 21.3833C27.3854 21.3881 27.3811 21.3932 27.3772 21.3986C27.346 21.4409 27.3304 21.4998 27.3304 21.5586V25.4996C27.3304 25.529 27.346 25.574 27.3772 25.6098C27.38 25.613 27.383 25.6162 27.3861 25.6193C27.4132 25.6463 27.4501 25.6661 27.4969 25.6661H30.0502C30.1058 25.6661 30.2168 25.6106 30.2168 25.4996V24.8335C30.2168 24.778 30.1058 24.667 30.0502 24.667H28.3295V24.0009H30.0502C30.1058 24.0009 30.2168 23.9454 30.2168 23.8344V23.1683C30.2168 23.1128 30.1058 23.0018 30.0502 23.0018H28.3295V22.3357H30.0502C30.1058 22.3357 30.2168 22.2802 30.2168 22.1692V21.5586C30.2168 21.4476 30.1058 21.3365 30.0502 21.3365H27.4969ZM20.6141 25.6661C20.7251 25.6661 20.7806 25.5551 20.7806 25.4996V24.8335C20.7806 24.778 20.7251 24.667 20.6141 24.667H18.8934V21.5586C18.8934 21.4476 18.8379 21.3365 18.7268 21.3365H18.0608C18.0053 21.3365 17.8942 21.4476 17.8942 21.5586V25.4996C17.8942 25.5273 17.9081 25.5412 17.922 25.5551C17.9289 25.562 17.9358 25.5689 17.941 25.5775C17.9462 25.5862 17.9498 25.5966 17.9498 25.6106C17.9637 25.6106 17.9742 25.6141 17.9829 25.6193C17.9915 25.6245 17.9984 25.6314 18.0053 25.6383C18.0191 25.6522 18.033 25.6661 18.0608 25.6661H20.6141ZM22.1683 25.6661C22.2238 25.6661 22.3348 25.6106 22.3348 25.4996V21.5586C22.3348 21.4476 22.2238 21.3365 22.1683 21.3365H21.5022C21.3912 21.3365 21.3357 21.4476 21.3357 21.5586V25.4996C21.3357 25.6106 21.3912 25.6661 21.5022 25.6661H22.1683ZM24.3539 33.9882L24.3452 33.9916C24.0419 34.1096 23.7025 34.2004 23.363 34.1696C22.9576 34.1327 22.5786 33.9189 22.3723 33.5251C22.2075 33.2104 22.2183 32.8978 22.2318 32.7463C22.2439 32.6099 22.2712 32.4867 22.2883 32.4164L22.3107 32.2721C22.3628 31.9368 22.3973 31.711 22.4116 31.5345C22.4124 31.5252 22.4131 31.5163 22.4137 31.5078C22.3917 31.5021 22.367 31.4962 22.3391 31.49C17.7073 30.8794 14 27.5499 14 23.3348C14 18.5867 18.6665 15 24 15C29.3335 15 34 18.5867 34 23.3348C34 25.2217 33.2715 26.8825 31.8178 28.4626C30.7912 29.6652 29.1752 30.9367 27.7435 31.9354C26.3171 32.9304 24.939 33.7473 24.3626 33.9846L24.3539 33.9882ZM31.1049 27.8308C32.437 26.3877 33.0476 24.9445 33.0476 23.3348C33.0476 19.2828 28.9956 15.9524 24 15.9524C19.0044 15.9524 14.9524 19.2828 14.9524 23.3348C14.9524 26.9427 18.1718 29.9956 22.5013 30.5507C23.5091 30.7629 23.4525 31.1271 23.2517 32.4184L23.2229 32.6044C23.1674 32.8265 23.0009 33.4925 24 33.104C24.9436 32.7155 29.2176 30.0511 31.1049 27.8308Z" fill="#546C83"/>
<defs>
<linearGradient id="paint0_linear_1602_5136" x1="-6.48522e-07" y1="4.85196" x2="45.3155" y2="9.1173" gradientUnits="userSpaceOnUse">
<stop stop-color="#7B7B7B"/>
<stop offset="1" stop-color="#9ABECA"/>
</linearGradient>
</defs>
</svg>
