<svg width="48" height="49" viewBox="0 0 48 49" fill="none" xmlns="http://www.w3.org/2000/svg">
<rect opacity="0.2" y="0.648438" width="48" height="48" rx="1.33333" fill="url(#paint0_linear_1602_5104)" fill-opacity="0.6"/>
<path d="M30 15H18C16.8954 15 16 15.8954 16 17V33C16 34.1046 16.8954 35 18 35H30C31.1046 35 32 34.1046 32 33V17C32 15.8954 31.1046 15 30 15Z" stroke="#546C83" stroke-linecap="round" stroke-linejoin="round"/>
<path d="M21 35V31H27V35" stroke="#546C83" stroke-linecap="round" stroke-linejoin="round"/>
<path d="M20 19H20.01" stroke="#546C83" stroke-linecap="round" stroke-linejoin="round"/>
<path d="M28 19H28.01" stroke="#546C83" stroke-linecap="round" stroke-linejoin="round"/>
<path d="M24 19H24.01" stroke="#546C83" stroke-linecap="round" stroke-linejoin="round"/>
<path d="M24 23H24.01" stroke="#546C83" stroke-linecap="round" stroke-linejoin="round"/>
<path d="M24 27H24.01" stroke="#546C83" stroke-linecap="round" stroke-linejoin="round"/>
<path d="M28 23H28.01" stroke="#546C83" stroke-linecap="round" stroke-linejoin="round"/>
<path d="M28 27H28.01" stroke="#546C83" stroke-linecap="round" stroke-linejoin="round"/>
<path d="M20 23H20.01" stroke="#546C83" stroke-linecap="round" stroke-linejoin="round"/>
<path d="M20 27H20.01" stroke="#546C83" stroke-linecap="round" stroke-linejoin="round"/>
<defs>
<linearGradient id="paint0_linear_1602_5104" x1="-6.48522e-07" y1="4.85196" x2="45.3155" y2="9.1173" gradientUnits="userSpaceOnUse">
<stop stop-color="#7B7B7B"/>
<stop offset="1" stop-color="#9ABECA"/>
</linearGradient>
</defs>
</svg>
