<svg width="47" height="46" viewBox="0 0 47 46" fill="none" xmlns="http://www.w3.org/2000/svg">
<path opacity="0.4" d="M29.1279 35.8994H28.875V34.8994H29.1279V35.8994ZM32.4609 35.8994H30.6221V34.8994H32.4609V35.8994ZM35.5205 35.8271C35.3124 35.8728 35.0968 35.8994 34.875 35.8994H33.9551V34.8994H34.875C35.0239 34.8994 35.1678 34.8827 35.3057 34.8525L35.5205 35.8271ZM37.0303 34.2764L37.4014 34.5127C37.1671 34.8787 36.8561 35.1893 36.4902 35.4238L35.9512 34.585C36.1955 34.4284 36.404 34.2199 36.5605 33.9756L37.0303 34.2764ZM37.875 32.8994L37.8711 33.0537C37.8626 33.2208 37.8394 33.3842 37.8047 33.543L37.3604 33.4473L36.8291 33.3301C36.8442 33.2613 36.8555 33.1909 36.8633 33.1191L36.875 32.8994V32.1152H37.875V32.8994ZM37.875 30.8408H36.875V29.2725H37.875V30.8408ZM37.875 27.998H36.875V26.4297H37.875V27.998ZM37.875 25.1553H36.875V23.5869H37.875V25.1553ZM37.875 22.3125H36.875V20.7441H37.875V22.3125ZM37.875 19.4697H36.875V17.9014H37.875V19.4697ZM22.875 19.1904H21.875V17.9014H22.875V19.1904ZM22.875 16.627H21.875V15.0586H22.875V16.627ZM37.875 16.627H36.875V15.0586H37.875V16.627ZM22.875 13.7842H21.875V13L21.8789 12.8457C21.8874 12.6778 21.9123 12.514 21.9473 12.3545L22.9219 12.5693C22.8917 12.7072 22.875 12.8511 22.875 13V13.7842ZM37.8047 12.3545C37.8397 12.5139 37.8626 12.6779 37.8711 12.8457L37.875 13V13.7842H36.875V13C36.875 12.8511 36.8593 12.7071 36.8291 12.5693L37.8047 12.3545ZM23.5293 10.8926L23.7988 11.3145C23.5545 11.471 23.346 11.6795 23.1895 11.9238L22.7197 11.6221L22.3506 11.3848C22.5851 11.0189 22.8957 10.7079 23.2617 10.4736L23.5293 10.8926ZM36.4902 10.4736C36.856 10.708 37.167 11.019 37.4014 11.3848L36.5605 11.9238C36.404 11.6794 36.1956 11.471 35.9512 11.3145L36.4902 10.4736ZM25.7949 11H24.875L24.6553 11.0117C24.5836 11.0195 24.5131 11.0308 24.4443 11.0459L24.3379 10.5566L24.3369 10.5576L24.2314 10.0703C24.3903 10.0356 24.5536 10.0124 24.7207 10.0039L24.875 10H25.7949V11ZM34.875 10C35.0967 10 35.3125 10.0247 35.5205 10.0703L35.3057 11.0459C35.1679 11.0157 35.0239 11 34.875 11H33.9551V10H34.875ZM29.1279 11H27.2891V10H29.1279V11ZM32.4609 11H30.6221V10H32.4609V11Z" fill="white"/>
<rect x="9.65" y="20.65" width="23.4994" height="14.6996" rx="2.35" stroke="white" stroke-width="1.3"/>
<path d="M28.9609 21.2627V34.7364" stroke="white" stroke-width="1.3"/>
<path d="M13.375 26.3154L13.375 29.6839" stroke="white" stroke-width="1.3" stroke-linecap="round"/>
<path d="M14.1471 12.0326C15.2942 10.8855 16.9205 10.3453 18.4644 10.4166C18.6619 10.4265 18.8151 10.5938 18.8069 10.7913C18.7987 10.9888 18.6314 11.1418 18.4334 11.1324C17.0681 11.0691 15.6448 11.5498 14.6545 12.5401C13.8035 13.3911 13.4904 14.7999 13.6777 17.0675L14.9135 15.8317C15.0533 15.6919 15.2802 15.6923 15.4205 15.8326C15.5603 15.9724 15.5607 16.1994 15.421 16.3391L13.6559 18.1042C13.5166 18.2435 13.2902 18.2436 13.1503 18.1038L11.3712 16.3322C11.2305 16.1924 11.2296 15.966 11.3689 15.8257C11.5077 15.6859 11.7351 15.6859 11.8749 15.8257L12.9464 16.8924C12.7919 14.6862 13.1032 13.0764 14.1471 12.0326Z" fill="white" stroke="white" stroke-width="0.3"/>
</svg>
