<svg width="48" height="49" viewBox="0 0 48 49" fill="none" xmlns="http://www.w3.org/2000/svg">
<rect opacity="0.2" y="0.648438" width="48" height="48" rx="1.33333" fill="url(#paint0_linear_1602_5122)" fill-opacity="0.6"/>
<path d="M31.3057 31.2743C31.3057 31.5743 31.2391 31.8827 31.0974 32.1827C30.9557 32.4827 30.7724 32.766 30.5307 33.0327C30.1224 33.4827 29.6724 33.8077 29.1641 34.016C28.6641 34.2244 28.1224 34.3327 27.5391 34.3327C26.6891 34.3327 25.7807 34.1327 24.8224 33.7244C23.8641 33.316 22.9057 32.766 21.9557 32.0744C20.9974 31.3744 20.0891 30.5993 19.2224 29.741C18.3641 28.8743 17.5891 27.966 16.8974 27.016C16.2141 26.066 15.6641 25.116 15.2641 24.1743C14.8641 23.2243 14.6641 22.316 14.6641 21.4493C14.6641 20.8827 14.7641 20.341 14.9641 19.841C15.1641 19.3327 15.4807 18.866 15.9224 18.4493C16.4557 17.9243 17.0391 17.666 17.6557 17.666C17.8891 17.666 18.1224 17.716 18.3307 17.816C18.5474 17.916 18.7391 18.066 18.8891 18.2827L20.8224 21.0077C20.9724 21.216 21.0807 21.4077 21.1557 21.591C21.2307 21.766 21.2724 21.941 21.2724 22.0993C21.2724 22.2993 21.2141 22.4993 21.0974 22.691C20.9891 22.8827 20.8307 23.0827 20.6307 23.2827L19.9974 23.941C19.9057 24.0327 19.8641 24.141 19.8641 24.2743C19.8641 24.341 19.8724 24.3993 19.8891 24.466C19.9141 24.5327 19.9391 24.5827 19.9557 24.6327C20.1057 24.9077 20.3641 25.266 20.7307 25.6993C21.1057 26.1327 21.5057 26.5743 21.9391 27.016C22.3891 27.4577 22.8224 27.866 23.2641 28.241C23.6974 28.6077 24.0557 28.8577 24.3391 29.0077C24.3807 29.0243 24.4307 29.0493 24.4891 29.0743C24.5557 29.0993 24.6224 29.1077 24.6974 29.1077C24.8391 29.1077 24.9474 29.0577 25.0391 28.966L25.6724 28.341C25.8807 28.1327 26.0807 27.9743 26.2724 27.8743C26.4641 27.7577 26.6557 27.6993 26.8641 27.6993C27.0224 27.6993 27.1891 27.7327 27.3724 27.8077C27.5557 27.8827 27.7474 27.991 27.9557 28.1327L30.7141 30.091C30.9307 30.241 31.0807 30.416 31.1724 30.6243C31.2557 30.8327 31.3057 31.041 31.3057 31.2743Z" stroke="#546C83" stroke-width="1.2" stroke-miterlimit="10"/>
<path d="M28.4167 23.4987C28.4167 22.9987 28.025 22.232 27.4417 21.607C26.9083 21.032 26.2 20.582 25.5 20.582" stroke="#546C83" stroke-width="1.2" stroke-linecap="round" stroke-linejoin="round"/>
<path d="M31.3333 23.4993C31.3333 20.2743 28.725 17.666 25.5 17.666" stroke="#546C83" stroke-width="1.2" stroke-linecap="round" stroke-linejoin="round"/>
<defs>
<linearGradient id="paint0_linear_1602_5122" x1="-6.48522e-07" y1="4.85196" x2="45.3155" y2="9.1173" gradientUnits="userSpaceOnUse">
<stop stop-color="#7B7B7B"/>
<stop offset="1" stop-color="#9ABECA"/>
</linearGradient>
</defs>
</svg>
