<svg width="81" height="327" viewBox="0 0 81 327" fill="none" xmlns="http://www.w3.org/2000/svg">
<g opacity="0.3">
<path opacity="0.5" d="M63 323.94L20.4 323.94L20.4 308.88C20.4 305.82 21 303.12 22.2 300.84C23.4 298.56 25.08 296.82 27.24 295.56C29.4 294.3 31.98 293.64 34.86 293.64C37.74 293.64 40.32 294.3 42.48 295.56C44.64 296.82 46.32 298.56 47.52 300.84C48.72 303.12 49.32 305.82 49.32 308.88L49.32 315.72L63 315.72L63 323.94ZM41.76 315.72L41.76 309.6C41.76 307.38 41.28 305.58 40.2 304.14C39.12 302.7 37.38 301.98 34.86 301.98C32.4 301.98 30.66 302.7 29.58 304.14C28.5 305.58 27.96 307.38 27.96 309.6L27.96 315.72L41.76 315.72ZM63.6 276.397C63.6 278.197 63.3 279.997 62.58 281.797C61.92 283.597 60.9 285.217 59.58 286.657C58.26 288.097 56.52 289.297 54.48 290.137C52.44 290.977 50.1 291.397 47.4 291.397C44.7 291.397 42.36 290.977 40.32 290.137C38.28 289.297 36.6 288.097 35.28 286.657C33.96 285.217 32.94 283.597 32.22 281.797C31.56 279.997 31.2 278.197 31.2 276.397C31.2 274.537 31.5 272.917 32.04 271.537C32.64 270.157 33.3 269.017 34.02 268.117C34.74 267.277 35.4 266.677 36 266.437L36 266.257L31.8 266.257L31.8 258.217L63 258.217L63 266.257L58.8 266.257L58.8 266.437C59.4 266.677 60.06 267.277 60.78 268.117C61.56 269.017 62.22 270.157 62.76 271.537C63.36 272.917 63.6 274.537 63.6 276.397ZM47.4 283.477C49.32 283.477 51 283.117 52.32 282.277C53.64 281.437 54.66 280.357 55.38 279.037C56.1 277.717 56.4 276.277 56.4 274.777C56.4 273.277 56.1 271.837 55.38 270.517C54.72 269.197 53.7 268.177 52.38 267.337C51.06 266.497 49.38 266.077 47.4 266.077C45.48 266.077 43.8 266.497 42.48 267.337C41.16 268.177 40.14 269.197 39.42 270.517C38.76 271.837 38.4 273.277 38.4 274.777C38.4 276.277 38.76 277.717 39.48 279.037C40.2 280.357 41.16 281.437 42.48 282.277C43.8 283.117 45.48 283.477 47.4 283.477ZM63 252.104L31.8 252.104L31.8 244.064L39.9 244.064C37.5 243.524 35.46 242.444 33.78 240.884C32.1 239.324 31.2 237.104 31.2 234.284C31.2 233.564 31.32 232.844 31.44 232.184L39.12 232.184C39 232.904 38.94 233.624 38.94 234.224C38.94 237.284 39.9 239.684 41.82 241.424C43.74 243.224 46.26 244.064 49.38 244.064L63 244.064L63 252.104ZM63.36 215.552C63.36 218.192 62.7 220.412 61.26 222.092C59.88 223.832 57.6 224.672 54.36 224.672L38.22 224.672L38.22 229.112L31.8 229.112L31.8 224.672L23.82 224.672L23.82 216.572L31.8 216.572L31.8 210.152L38.22 210.152L38.22 216.572L53.04 216.572C53.88 216.572 54.6 216.332 55.26 215.792C55.92 215.312 56.22 214.352 56.22 213.032C56.22 212.672 56.22 212.252 56.1 211.712C56.04 211.232 55.92 210.692 55.74 210.092L61.92 210.092C62.46 210.692 62.82 211.532 63.06 212.552C63.3 213.572 63.36 214.592 63.36 215.552ZM63 205.229L31.8 205.229L31.8 197.189L36.06 197.189C34.68 196.349 33.54 195.089 32.58 193.529C31.68 191.969 31.2 189.989 31.2 187.649C31.2 185.489 31.68 183.569 32.58 181.769C33.54 179.969 34.98 178.529 36.96 177.449C38.94 176.369 41.52 175.829 44.64 175.829L63 175.829L63 183.869L45.96 183.869C43.68 183.869 41.88 184.469 40.5 185.609C39.12 186.809 38.4 188.429 38.4 190.529C38.4 192.629 39.12 194.249 40.5 195.449C41.88 196.649 43.68 197.189 45.96 197.189L63 197.189L63 205.229ZM63.6 154.961C63.6 157.841 63 160.481 61.74 162.941C60.48 165.461 58.62 167.441 56.22 168.941C53.82 170.501 50.88 171.221 47.4 171.221C43.92 171.221 40.92 170.501 38.52 168.941C36.12 167.441 34.32 165.461 33.06 163.061C31.86 160.661 31.2 158.081 31.2 155.441C31.2 153.461 31.56 151.481 32.28 149.501C33 147.581 34.14 145.781 35.7 144.221C37.26 142.661 39.3 141.521 41.7 140.741C44.16 140.021 47.1 139.841 50.52 140.261L50.52 163.601C52.68 163.061 54.3 161.921 55.38 160.181C56.46 158.441 57 156.401 57 154.061C57 152.561 56.82 151.121 56.34 149.741C55.92 148.421 55.2 147.161 54.18 146.021L58.08 142.361C59.7 143.681 61.02 145.421 62.04 147.581C63.12 149.741 63.6 152.201 63.6 154.961ZM44.64 163.721L44.64 147.401C42.42 147.641 40.74 148.601 39.66 150.161C38.58 151.781 37.98 153.521 37.98 155.381C37.98 157.241 38.58 158.981 39.66 160.541C40.74 162.161 42.42 163.241 44.64 163.721ZM63 135.444L31.8 135.444L31.8 127.404L39.9 127.404C37.5 126.864 35.46 125.784 33.78 124.224C32.1 122.664 31.2 120.444 31.2 117.624C31.2 116.904 31.32 116.184 31.44 115.524L39.12 115.524C39 116.244 38.94 116.964 38.94 117.564C38.94 120.624 39.9 123.024 41.82 124.764C43.74 126.564 46.26 127.404 49.38 127.404L63 127.404L63 135.444ZM63.6 101.638C63.6 104.758 62.88 107.338 61.38 109.438C59.94 111.598 57.72 112.858 54.84 113.338L53.1 106.918C54.12 106.618 55.08 106.078 55.92 105.238C56.82 104.458 57.24 103.318 57.24 101.758C57.24 100.738 57 99.8377 56.46 98.9977C55.98 98.1577 55.14 97.7377 54 97.7377C53.28 97.7377 52.62 98.0377 52.02 98.5177C51.48 99.0577 51 99.9577 50.52 101.158L49.08 104.998C48.18 107.578 46.92 109.438 45.36 110.578C43.8 111.778 42.06 112.318 40.14 112.318C38.28 112.318 36.66 111.838 35.34 110.878C34.02 109.918 33 108.598 32.28 106.918C31.56 105.298 31.2 103.498 31.2 101.518C31.2 98.6977 31.98 96.2977 33.42 94.3777C34.86 92.4577 36.78 91.2577 39.18 90.7177L40.8 97.0177C39.54 97.4377 38.7 98.0377 38.22 98.7577C37.74 99.5377 37.5 100.318 37.5 101.158C37.5 102.238 37.8 103.018 38.28 103.618C38.82 104.218 39.48 104.518 40.2 104.518C40.86 104.518 41.46 104.338 42 103.858C42.6 103.378 43.08 102.538 43.5 101.278L44.82 97.7977C45.3 96.5377 45.9 95.2777 46.62 94.0177C47.34 92.8177 48.3 91.7977 49.5 90.9577C50.7 90.1777 52.2 89.7577 54 89.7577C56.1 89.7577 57.84 90.2977 59.28 91.3777C60.72 92.4577 61.8 93.8977 62.52 95.6977C63.24 97.4977 63.6 99.4777 63.6 101.638ZM63 85.1705L20.4 85.1705L20.4 77.1305L36.06 77.1305C34.68 76.2905 33.54 75.0305 32.58 73.4705C31.68 71.9105 31.2 69.9305 31.2 67.5905C31.2 65.4305 31.68 63.5105 32.58 61.7105C33.54 59.9105 34.98 58.4705 36.96 57.3905C38.94 56.3105 41.52 55.7705 44.64 55.7705L63 55.7705L63 63.8105L45.96 63.8105C43.68 63.8105 41.88 64.4105 40.5 65.5505C39.12 66.7505 38.4 68.3705 38.4 70.4705C38.4 72.5705 39.12 74.1905 40.5 75.3905C41.88 76.5905 43.68 77.1305 45.96 77.1305L63 77.1305L63 85.1705ZM63 49.6627L31.8 49.6627L31.8 41.6227L63 41.6227L63 49.6627ZM27.48 49.6627L20.4 49.6627L20.4 41.6227L27.48 41.6227L27.48 49.6627ZM74.4 35.483L31.8 35.483L31.8 27.443L36 27.443L36 27.263C35.4 27.023 34.74 26.423 34.02 25.583C33.3 24.743 32.64 23.603 32.04 22.163C31.5 20.783 31.2 19.163 31.2 17.303C31.2 15.503 31.56 13.763 32.22 11.963C32.94 10.163 33.96 8.54297 35.28 7.10296C36.6 5.66296 38.28 4.46297 40.32 3.62297C42.36 2.78297 44.7 2.30296 47.4 2.30296C50.1 2.30296 52.44 2.78297 54.48 3.62297C56.52 4.46297 58.26 5.66296 59.58 7.10296C60.9 8.54297 61.92 10.163 62.58 11.963C63.3 13.763 63.6 15.503 63.6 17.303C63.6 19.163 63.36 20.783 62.76 22.163C62.22 23.603 61.56 24.743 60.78 25.583C60.06 26.423 59.4 27.023 58.8 27.263L58.8 27.443L74.4 27.443L74.4 35.483ZM47.4 27.623C49.38 27.623 51.06 27.263 52.38 26.423C53.7 25.583 54.72 24.503 55.38 23.183C56.1 21.863 56.4 20.423 56.4 18.923C56.4 17.423 56.1 15.983 55.38 14.663C54.66 13.343 53.64 12.323 52.32 11.483C51 10.643 49.32 10.223 47.4 10.223C45.48 10.223 43.8 10.643 42.48 11.483C41.16 12.323 40.2 13.343 39.48 14.663C38.76 15.983 38.4 17.423 38.4 18.923C38.4 20.423 38.76 21.863 39.42 23.183C40.14 24.503 41.16 25.583 42.48 26.423C43.8 27.263 45.48 27.623 47.4 27.623Z" fill="#9ABECA"/>
</g>
</svg>
