<svg width="46" height="299" viewBox="0 0 46 299" fill="none" xmlns="http://www.w3.org/2000/svg">
<path opacity="0.5" d="M1.16 282.32L1.16 273.8L44 257.72L44 267.32L34.1 270.74L34.1 285.74L44 289.16L44 298.4L1.16 282.32ZM26.72 273.08L11.36 278.3L26.72 283.46L26.72 273.08ZM1.16 252.725L1.15999 237.305C1.15999 234.145 1.45999 231.545 2.05999 229.505C2.66 227.425 3.48 225.785 4.51999 224.585C5.55999 223.385 6.78 222.565 8.18 222.125C9.58 221.645 11.1 221.405 12.74 221.405C14.42 221.405 16 221.765 17.48 222.485C18.96 223.205 20.22 224.565 21.26 226.565C21.94 225.285 22.66 224.245 23.42 223.445C24.14 222.605 24.92 221.965 25.76 221.525C26.6 221.045 27.46 220.725 28.34 220.565C29.22 220.365 30.1 220.265 30.98 220.265C32.78 220.265 34.48 220.545 36.08 221.105C37.68 221.625 39.06 222.525 40.22 223.805C41.38 225.045 42.3 226.685 42.98 228.725C43.66 230.765 44 233.285 44 236.285L44 252.725L1.16 252.725ZM18.14 236.285C18.14 233.925 17.7 232.305 16.82 231.425C15.94 230.545 14.68 230.105 13.04 230.105C11.28 230.105 10.04 230.685 9.32 231.845C8.56 232.965 8.18 234.885 8.18 237.605L8.18 244.085L18.14 244.085L18.14 236.285ZM36.98 236.585C36.98 235.105 36.84 233.885 36.56 232.925C36.28 231.925 35.88 231.125 35.36 230.525C34.8 229.925 34.16 229.505 33.44 229.265C32.72 229.025 31.9 228.905 30.98 228.905C29.14 228.905 27.74 229.405 26.78 230.405C25.82 231.405 25.34 233.165 25.34 235.685L25.34 244.085L36.98 244.085L36.98 236.585ZM45.08 194.798C45.08 197.998 44.56 200.858 43.52 203.378C42.48 205.898 40.98 208.038 39.02 209.798C37.06 211.558 34.7 212.918 31.94 213.878C29.18 214.798 26.06 215.258 22.58 215.258C19.1 215.258 15.98 214.798 13.22 213.878C10.46 212.918 8.09999 211.558 6.13999 209.798C4.17999 207.998 2.68 205.838 1.63999 203.318C0.599993 200.798 0.0799924 197.958 0.0799923 194.798C0.0799921 191.598 0.599992 188.738 1.63999 186.218C2.67999 183.698 4.17999 181.578 6.13999 179.858C8.09999 178.098 10.46 176.758 13.22 175.838C15.98 174.918 19.1 174.458 22.58 174.458C26.06 174.458 29.18 174.918 31.94 175.838C34.7 176.718 37.06 178.038 39.02 179.798C40.98 181.518 42.48 183.638 43.52 186.158C44.56 188.678 45.08 191.558 45.08 194.798ZM37.4 194.858C37.4 191.098 36.12 188.298 33.56 186.458C31 184.618 27.34 183.698 22.58 183.698C17.86 183.698 14.22 184.618 11.66 186.458C9.05999 188.298 7.75999 191.098 7.75999 194.858C7.75999 198.618 9.05999 201.418 11.66 203.258C14.22 205.098 17.86 206.018 22.58 206.018C27.34 206.018 31 205.098 33.56 203.258C36.12 201.418 37.4 198.618 37.4 194.858ZM1.15999 167.901L1.15999 158.961L26.66 158.961C30.3 158.961 33 158.321 34.76 157.041C36.52 155.761 37.4 153.621 37.4 150.621C37.4 147.621 36.52 145.501 34.76 144.261C33 142.981 30.3 142.341 26.66 142.341L1.15999 142.341L1.15999 133.401L26.66 133.401C29.9 133.401 32.68 133.801 35 134.601C37.32 135.401 39.24 136.541 40.76 138.021C42.24 139.501 43.32 141.321 44 143.481C44.72 145.601 45.08 148.001 45.08 150.681C45.08 153.401 44.72 155.841 44 158.001C43.28 160.121 42.18 161.921 40.7 163.401C39.18 164.881 37.24 166.001 34.88 166.761C32.52 167.521 29.72 167.901 26.48 167.901L1.15999 167.901ZM8.89999 115.74L8.89999 128.64L1.15999 128.64L1.15999 93.8398L8.89999 93.8398L8.89999 106.74L44 106.74L44 115.74L8.89999 115.74ZM1.15999 75.7334L1.15999 66.7934L26.66 66.7934C30.3 66.7934 33 66.1534 34.76 64.8734C36.52 63.5934 37.4 61.4534 37.4 58.4534C37.4 55.4534 36.52 53.3334 34.76 52.0934C33 50.8134 30.3 50.1734 26.66 50.1734L1.15999 50.1734L1.15999 41.2334L26.66 41.2334C29.9 41.2334 32.68 41.6334 35 42.4334C37.32 43.2334 39.24 44.3734 40.76 45.8534C42.24 47.3334 43.32 49.1534 44 51.3134C44.72 53.4334 45.08 55.8334 45.08 58.5134C45.08 61.2334 44.72 63.6734 44 65.8334C43.28 67.9534 42.18 69.7534 40.7 71.2334C39.18 72.7134 37.24 73.8334 34.88 74.5934C32.52 75.3534 29.72 75.7334 26.48 75.7334L1.15999 75.7334ZM30.02 26.3459C32.66 26.1459 34.58 25.3059 35.78 23.8259C36.98 22.3059 37.58 20.0859 37.58 17.1659C37.58 15.7659 37.44 14.5859 37.16 13.6259C36.84 12.6659 36.44 11.8859 35.96 11.2859C35.44 10.6859 34.84 10.2659 34.16 10.0259C33.48 9.74593 32.74 9.60593 31.94 9.60593C30.82 9.60593 29.78 10.0259 28.82 10.8659C27.82 11.7059 27.1 13.2459 26.66 15.4859L25.64 21.0659C25.24 23.2659 24.72 25.2059 24.08 26.8859C23.44 28.5659 22.62 29.9859 21.62 31.1459C20.58 32.2659 19.32 33.1259 17.84 33.7259C16.36 34.3259 14.6 34.6259 12.56 34.6259C10.52 34.6259 8.71999 34.2259 7.15999 33.4259C5.59999 32.5859 4.29999 31.4459 3.25999 30.0059C2.21999 28.5259 1.43999 26.7659 0.919985 24.7259C0.359985 22.6859 0.0799846 20.4459 0.0799845 18.0059C0.0799844 14.8859 0.439984 12.2859 1.15998 10.2059C1.87998 8.12594 2.83999 6.44594 4.03999 5.16594C5.19999 3.88594 6.55999 2.94593 8.11998 2.34593C9.67999 1.70593 11.3 1.28593 12.98 1.08593L14.06 9.54593C11.7 9.98594 9.99999 10.8459 8.95998 12.1259C7.91999 13.3659 7.39999 15.2659 7.39999 17.8259C7.39999 19.3459 7.53999 20.6059 7.81999 21.6059C8.05999 22.5659 8.39999 23.3459 8.83999 23.9459C9.23999 24.5459 9.71999 24.9659 10.28 25.2059C10.84 25.4459 11.42 25.5659 12.02 25.5659C13.62 25.5659 14.82 25.1259 15.62 24.2459C16.42 23.3259 17.04 21.7859 17.48 19.6259L18.62 13.7459C19.54 9.10594 21.04 5.70594 23.12 3.54593C25.16 1.38593 28.12 0.305933 32 0.305933C33.88 0.305933 35.62 0.665933 37.22 1.38593C38.78 2.06593 40.16 3.10593 41.36 4.50593C42.52 5.86593 43.42 7.58593 44.06 9.66593C44.74 11.7459 45.08 14.1859 45.08 16.9859C45.08 22.8259 43.84 27.3059 41.36 30.4259C38.84 33.5059 35.06 35.1659 30.02 35.4059L30.02 26.3459Z" fill="#9ABECA"/>
</svg>
