<svg width="375" height="331" viewBox="0 0 375 331" fill="none" xmlns="http://www.w3.org/2000/svg">
<mask id="mask0_1261_4339" style="mask-type:alpha" maskUnits="userSpaceOnUse" x="0" y="0" width="375" height="331">
<rect y="0.634766" width="375" height="330" fill="#D9D9D9"/>
</mask>
<g mask="url(#mask0_1261_4339)">
<g opacity="0.1">
<path d="M122.636 92.3711H27.8438V128.372H142.674C151.458 128.372 159.883 131.941 166.094 138.296C172.306 144.65 175.795 153.269 175.795 162.255C175.795 171.242 172.306 179.861 166.094 186.215C159.883 192.569 151.458 196.139 142.674 196.139H129.276V231.757C158.082 228.37 180.504 192.813 180.504 162.457C180.504 129.782 154.614 92.3711 122.695 92.3711" fill="white"/>
<path d="M15.6817 231.757H74.2979V195.751H-45.525C-50.0627 195.751 -54.5559 194.874 -58.7479 193.171C-62.9399 191.468 -66.7485 188.971 -69.9562 185.824C-73.1638 182.677 -75.7076 178.941 -77.4423 174.83C-79.1769 170.718 -80.0683 166.312 -80.0656 161.862C-80.0656 152.88 -76.4265 144.265 -69.9489 137.914C-63.4713 131.562 -54.6857 127.994 -45.525 127.994H-31.5443V92.3711C-61.5823 95.7378 -85 131.3 -85 161.661C-85 194.34 -57.9843 231.757 -24.6567 231.757H15.62H15.6817Z" fill="white"/>
<path d="M84.7401 197.5V258.655C84.8503 263.261 84.0557 267.842 82.4029 272.13C80.7501 276.418 78.2726 280.326 75.1162 283.623C71.9598 286.921 68.1883 289.541 64.0237 291.33C59.8591 293.119 55.3856 294.041 50.8663 294.041C46.347 294.041 41.8734 293.119 37.7088 291.33C33.5442 289.541 29.7727 286.921 26.6163 283.623C23.4599 280.326 20.9824 276.418 19.3296 272.13C17.6769 267.842 16.8822 263.261 16.9924 258.655V244.702H-18.625C-15.2588 274.724 20.3183 298.13 50.6748 298.13C83.3292 298.13 120.761 271.149 120.761 237.838V138.832H84.7401V197.5Z" fill="white"/>
<path d="M17.3058 150.249V70.4205C17.1955 66.0026 17.9909 61.6077 19.6451 57.4946C21.2993 53.3816 23.7789 49.6333 26.9381 46.4706C30.0972 43.3079 33.872 40.7945 38.0402 39.0785C42.2085 37.3625 46.6859 36.4784 51.2091 36.4784C55.7323 36.4784 60.2097 37.3625 64.378 39.0785C68.5462 40.7945 72.321 43.3079 75.4801 46.4706C78.6392 49.6333 81.1189 53.3816 82.7731 57.4946C84.4273 61.6077 85.2227 66.0026 85.1124 70.4205V83.883H120.761C117.392 55.0066 81.3801 32.6348 51.1183 32.6348C18.4154 32.6348 -18.625 58.5348 -18.625 90.4664V185.295H17.4067L17.3058 150.249Z" fill="white"/>
</g>
</g>
</svg>
