<svg width="97" height="97" viewBox="0 0 97 97" fill="none" xmlns="http://www.w3.org/2000/svg">
<rect opacity="0.2" x="0.140625" y="0.5" width="96" height="96" rx="2" fill="url(#paint0_linear_1906_3976)"/>
<path d="M55.4768 35.875C73.758 47.0312 72.9143 61.8438 72.9143 63.625C72.9143 68.875 68.3205 73 62.6955 73H35.2268C29.6018 73 25.008 68.875 25.008 63.625C25.008 61.75 24.0705 47.125 42.4455 35.875L37.1955 28.2812C36.8205 27.625 36.9143 26.7812 37.1955 26.125C37.6643 25.4688 38.3205 25 39.1643 25H58.6643C59.508 25 60.1643 25.4688 60.5393 26.125C60.9143 26.7812 61.008 27.625 60.633 28.2812L55.4768 35.875ZM40.6643 28L45.8205 35.5H52.1018L57.258 28H40.6643ZM69.9143 63.625L70.008 63.4375C70.008 57.8125 68.0393 47.125 54.0705 38.5H43.8518C29.883 47.125 27.9143 57.8125 28.008 63.3438V63.625C28.008 67.1875 31.1955 70 35.2268 70H62.6955C66.7268 70 69.9143 67.1875 69.9143 63.625ZM49.383 53.5938C52.1018 54.3438 56.133 55.5625 55.2893 59.875C54.9143 62.125 53.0393 63.625 50.4143 64V65.5C50.4143 66.3438 49.758 67 48.9143 67C48.0705 67 47.4143 66.3438 47.4143 65.5V63.9062C46.1955 63.7188 44.9768 63.25 43.8518 62.875L43.383 62.6875C42.633 62.4062 42.1643 61.5625 42.4455 60.8125C42.7268 60.0625 43.5705 59.5938 44.4143 59.875L44.883 60.0625C45.8205 60.4375 46.9455 60.8125 47.7893 60.9062C49.8518 61.2812 52.1018 60.9062 52.383 59.3125C52.5705 58 51.9143 57.4375 48.4455 56.5L47.7893 56.3125C45.8205 55.75 41.6955 54.5312 42.4455 50.2188C42.8205 47.9688 44.6955 46.4688 47.4143 46.0938V44.5C47.4143 43.75 48.0705 43 48.9143 43C49.758 43 50.4143 43.75 50.4143 44.5L50.508 46.1875C51.258 46.2812 52.1018 46.5625 53.2268 46.9375C53.9768 47.2188 54.3518 48.0625 54.1643 48.8125C53.883 49.6562 53.0393 50.0312 52.1955 49.75C51.633 49.5625 50.7893 49.2812 50.0393 49.1875C47.9768 48.8125 45.7268 49.1875 45.5393 50.7812C45.3518 51.8125 45.5393 52.4688 48.7268 53.4062L49.383 53.5938Z" fill="url(#paint1_linear_1906_3976)"/>
<path d="M28.4176 30.0649C29.209 30.0649 29.8421 30.9355 29.6047 31.6477C29.2881 32.7557 29.1299 33.8636 29.1299 35.1299C29.1299 36.3961 29.2881 37.5041 29.6047 38.5329C29.8421 39.3243 29.209 40.1948 28.3385 40.1948C27.7845 40.1948 27.3097 39.7991 27.1514 39.2451C26.7557 37.9789 26.5974 36.4752 26.5974 35.1299C26.5974 33.7054 26.7557 32.2808 27.1514 30.9355C27.3097 30.3815 27.8636 30.0649 28.4176 30.0649ZM22.1656 25C23.1153 25 23.6692 26.0288 23.2735 26.7411C22.1656 29.2735 21.5325 32.0434 21.5325 35.1299C21.5325 38.1372 22.1656 40.9862 23.2735 43.4395C23.6692 44.2309 23.1153 45.2597 22.1656 45.2597C21.6907 45.2597 21.2159 45.0223 20.9785 44.5475C19.7123 41.6985 19 38.3746 19 35.1299C19 31.806 19.7123 28.6404 20.9785 25.7914C21.2159 25.3166 21.6907 25 22.1656 25ZM68.3824 30.0649C68.9364 30.0649 69.4112 30.4606 69.5695 30.9355C69.9652 32.2017 70.2026 33.5471 70.2026 35.1299C70.2026 36.6335 69.9652 38.058 69.5695 39.2451C69.4112 39.7991 68.8572 40.1948 68.3032 40.1948C67.5118 40.1948 66.8787 39.3243 67.1161 38.5329C67.4327 37.4249 67.6701 36.2378 67.6701 35.1299C67.6701 33.9428 67.4327 32.8348 67.1161 31.6477C66.8787 30.8563 67.5118 30.0649 68.3824 30.0649ZM75.6632 25.7914C77.0086 28.6404 77.8 31.6477 77.8 35.1299C77.8 38.5329 77.0086 41.6985 75.6632 44.5475C75.505 45.0223 75.0301 45.2597 74.5553 45.2597C73.6056 45.2597 73.0516 44.3101 73.4473 43.5187C74.5553 40.9862 75.2675 37.9789 75.2675 35.1299C75.2675 32.2017 74.5553 29.3527 73.4473 26.8202C73.0516 26.0288 73.6056 25 74.5553 25C75.0301 25 75.505 25.3166 75.6632 25.7914Z" fill="url(#paint2_linear_1906_3976)"/>
<defs>
<linearGradient id="paint0_linear_1906_3976" x1="0.140624" y1="8.90705" x2="90.7716" y2="17.4377" gradientUnits="userSpaceOnUse">
<stop stop-color="#7B7B7B"/>
<stop offset="1" stop-color="#9ABECA"/>
</linearGradient>
<linearGradient id="paint1_linear_1906_3976" x1="25" y1="29.2035" x2="70.2416" y2="33.4548" gradientUnits="userSpaceOnUse">
<stop stop-color="#7B7B7B"/>
<stop offset="1" stop-color="#9ABECA"/>
</linearGradient>
<linearGradient id="paint2_linear_1906_3976" x1="19" y1="26.7742" x2="71.1141" y2="41.0108" gradientUnits="userSpaceOnUse">
<stop stop-color="#7B7B7B"/>
<stop offset="1" stop-color="#9ABECA"/>
</linearGradient>
</defs>
</svg>
