<svg width="97" height="97" viewBox="0 0 97 97" fill="none" xmlns="http://www.w3.org/2000/svg">
<rect opacity="0.2" x="0.140625" y="0.5" width="96" height="96" rx="2" fill="url(#paint0_linear_1906_4076)"/>
<g clip-path="url(#clip0_1906_4076)">
<path d="M73.0234 25C73.5932 25.188 73.9243 25.5144 74.1143 26.0801V71.9189C73.9243 72.4843 73.593 72.8101 73.0234 72.998H23.1836C22.7734 72.9664 22.0137 72.1499 22.0137 71.832V66.4346H22V63.1133H22.0137V59.792H22V56.4717H22.0137V43.9746H22.0166V27.9697H22.0137V26.166C22.0142 25.848 22.7735 25.0333 23.1836 25H73.0234ZM25.3691 69.7568H70.8379V28.2432H65.7207C64.1321 29.9419 62.7937 32.634 61.1934 34.2246C60.8556 34.5606 60.647 34.7568 60.1445 34.8467L35.6758 34.7314C33.6687 32.893 32.2446 30.3461 30.4863 28.2432H25.3691V69.7568ZM56.6113 52.9346C57.1947 51.9246 59.3959 52.7549 58.8916 54.0244C57.5098 57.5882 56.8419 61.877 55.4131 65.3643C54.7944 66.8733 53.0481 67.0849 52.0898 65.8154L48.3965 54.0244C47.909 52.7484 50.065 51.926 50.6738 52.9355L53.5605 63.2812L53.5625 63.2803L56.6113 52.9346ZM36.9414 53.5586C37.0961 52.0195 39.1944 52.3072 39.4365 53.1025L39.5068 62.8291C39.7876 64.8755 43.2589 64.9987 43.624 62.9941L43.7363 53.1426C44.2222 52.1975 45.3559 52.4583 46.1797 52.8193V63.3652C45.5774 67.5628 37.4541 68.1162 36.9531 62.6973C36.7464 60.4544 36.7179 55.7815 36.9414 53.5586ZM47.8164 46.542C50.1783 46.2044 50.3865 49.6745 48.2549 49.8242C46.083 49.9772 45.8714 46.8215 47.8164 46.542ZM39.417 46.3789C41.925 45.8966 42.1213 49.9008 39.5645 49.6562C37.6616 49.473 37.5678 46.735 39.417 46.3789ZM56.0273 46.375C58.3067 45.8762 58.9572 49.2734 56.7871 49.6279C54.5109 49.999 54.0907 46.7993 56.0273 46.375ZM47.8105 38.2373C50.3102 37.8763 50.3732 42.1209 49.0117 42.9248C46.1153 44.6385 45.2927 38.6005 47.8105 38.2373ZM54.3486 38.2412C56.7441 37.7071 57.3598 41.8492 56.2354 42.7646C53.5928 44.9175 51.962 38.7742 54.3486 38.2412ZM40.9287 38.2373C44.0219 37.5734 43.3549 43.1971 41.0586 43.1973C38.5102 43.1973 39.3739 38.5723 40.9287 38.2373ZM61.4424 28.2441H34.7646L37.3633 31.5674L58.6836 31.5752C58.902 31.5968 59.0159 31.5252 59.1738 31.3955C59.325 31.2725 61.5967 28.362 61.4424 28.2432V28.2441Z" fill="url(#paint1_linear_1906_4076)"/>
</g>
<defs>
<linearGradient id="paint0_linear_1906_4076" x1="0.140624" y1="8.90705" x2="90.7716" y2="17.4377" gradientUnits="userSpaceOnUse">
<stop stop-color="#7B7B7B"/>
<stop offset="1" stop-color="#9ABECA"/>
</linearGradient>
<linearGradient id="paint1_linear_1906_4076" x1="22" y1="29.2034" x2="71.1225" y2="34.2235" gradientUnits="userSpaceOnUse">
<stop stop-color="#7B7B7B"/>
<stop offset="1" stop-color="#9ABECA"/>
</linearGradient>
<clipPath id="clip0_1906_4076">
<rect width="52.1143" height="48" fill="white" transform="translate(22 25)"/>
</clipPath>
</defs>
</svg>
