<svg width="97" height="96" viewBox="0 0 97 96" fill="none" xmlns="http://www.w3.org/2000/svg">
<rect opacity="0.2" x="0.140625" width="96" height="96" rx="2" fill="url(#paint0_linear_1906_4067)"/>
<path d="M60.3721 32.1697C60.8104 31.9826 61.3168 32.0141 61.7324 32.2634L76.3555 41.0369C76.8072 41.3079 77.0839 41.7962 77.084 42.323V58.408C77.0839 58.9347 76.8072 59.424 76.3555 59.6951L61.7432 68.4617C61.6292 68.5312 61.5069 68.5839 61.3799 68.6208C61.3724 68.623 61.365 68.6256 61.3574 68.6277C61.2974 68.6441 61.2365 68.6568 61.1748 68.6658C61.1738 68.6659 61.1729 68.6666 61.1719 68.6667C61.1108 68.6755 61.0492 68.6793 60.9873 68.6804C60.9811 68.6805 60.9749 68.6804 60.9688 68.6804C60.9127 68.6808 60.8569 68.6776 60.8008 68.6716C60.7923 68.6707 60.7838 68.6707 60.7754 68.6697C60.6531 68.6545 60.5322 68.6234 60.4141 68.5769C60.4052 68.5734 60.3965 68.5698 60.3877 68.5662C60.3401 68.5464 60.2933 68.5239 60.2471 68.4988C60.2389 68.4944 60.2297 68.4916 60.2217 68.4871C60.2176 68.4847 60.214 68.4816 60.21 68.4792C60.2034 68.4755 60.1959 68.4724 60.1895 68.4685L45.5664 59.6941C45.1148 59.423 44.8379 58.9347 44.8379 58.408V42.323C44.8379 42.2632 44.8418 42.2042 44.8486 42.1462C44.851 42.1259 44.8552 42.1058 44.8584 42.0857C44.8648 42.0457 44.8724 42.0064 44.8818 41.9675C44.886 41.9506 44.8898 41.9335 44.8945 41.9167C44.9071 41.8722 44.922 41.8287 44.9385 41.7859C44.9436 41.7726 44.9477 41.759 44.9531 41.7458C44.975 41.6935 44.9999 41.6427 45.0273 41.5935C45.035 41.5797 45.0446 41.567 45.0527 41.5535C45.0735 41.5188 45.0947 41.4846 45.1182 41.4519C45.1302 41.4351 45.1425 41.4185 45.1553 41.4021C45.2229 41.3154 45.2991 41.2357 45.3838 41.1658L45.4053 41.1482C45.4162 41.1395 45.4282 41.1322 45.4395 41.1238C45.4707 41.1003 45.503 41.0784 45.5361 41.0574C45.5464 41.0509 45.5559 41.0431 45.5664 41.0369L60.1895 32.2634L60.3721 32.1697ZM62.4609 52.0554V64.533L74.084 57.5583V45.0125L62.4609 52.0554ZM47.8379 57.5583L59.4609 64.532V51.946L47.8379 44.9714V57.5583ZM34.7969 56.9158C35.5529 56.9928 36.1433 57.6316 36.1436 58.408C36.1436 59.1844 35.553 59.8231 34.7969 59.9001L34.6436 59.908H31.7188C30.8903 59.908 30.2188 59.2364 30.2188 58.408C30.219 57.5797 30.8905 56.908 31.7188 56.908H34.6436L34.7969 56.9158ZM34.7666 48.1423C35.5231 48.219 36.1132 48.8578 36.1133 49.6345C36.1133 50.4113 35.5231 51.05 34.7666 51.1267L34.6133 51.1345H25.8398C25.0115 51.1344 24.3398 50.4629 24.3398 49.6345C24.3399 48.8062 25.0115 48.1346 25.8398 48.1345H34.6133L34.7666 48.1423ZM49.2529 42.323L61.0518 49.4021L72.7012 42.3416L60.96 35.2976L49.2529 42.323ZM34.7764 39.3689C35.5326 39.4459 36.123 40.0846 36.123 40.8611C36.123 41.6376 35.5326 42.2763 34.7764 42.3533L34.623 42.3611H20C19.1716 42.3611 18.5 41.6895 18.5 40.8611C18.5 40.0327 19.1716 39.3611 20 39.3611H34.623L34.7764 39.3689Z" fill="url(#paint1_linear_1906_4067)"/>
<defs>
<linearGradient id="paint0_linear_1906_4067" x1="0.140624" y1="8.40705" x2="90.7716" y2="16.9377" gradientUnits="userSpaceOnUse">
<stop stop-color="#7B7B7B"/>
<stop offset="1" stop-color="#9ABECA"/>
</linearGradient>
<linearGradient id="paint1_linear_1906_4067" x1="19" y1="35.67" x2="72.6048" y2="43.824" gradientUnits="userSpaceOnUse">
<stop stop-color="#7B7B7B"/>
<stop offset="1" stop-color="#9ABECA"/>
</linearGradient>
</defs>
</svg>
