<svg width="97" height="97" viewBox="0 0 97 97" fill="none" xmlns="http://www.w3.org/2000/svg">
<rect opacity="0.2" x="0.140625" y="0.5" width="96" height="96" rx="2" fill="url(#paint0_linear_1176_3231)"/>
<path d="M48.5098 39.0645H45.2627C43.4703 39.0645 42.0156 40.4569 42.0156 42.1713V42.8506C42.0156 44.4862 43.0114 45.957 44.5301 46.5645L52.4896 49.7483C54.0082 50.3558 55.004 51.8266 55.004 53.4622V54.1415C55.004 55.8559 53.5493 57.2483 51.7569 57.2483H48.5098M48.5098 39.0645H51.7569C53.5493 39.0645 55.004 40.4569 55.004 42.1739V43.73M48.5098 39.0645V33.8691M48.5098 57.2483H45.2627C43.4703 57.2483 42.0156 55.8559 42.0156 54.1389V52.5829M48.5098 57.2483V62.4437" stroke="url(#paint1_linear_1176_3231)" stroke-width="3" stroke-linecap="round"/>
<path d="M23.6465 49.6084C22.9882 49.9884 22.1467 49.7627 21.7666 49.1045L18.3252 43.1445C17.9454 42.4863 18.1709 41.6447 18.8291 41.2646C19.4874 40.8846 20.3289 41.1103 20.709 41.7686L22.5352 44.9307C24.341 32.25 35.2412 22.5 48.4209 22.5C55.4746 22.5 61.8785 25.2945 66.5811 29.834L64.6689 31.8145C60.4589 27.7504 54.7331 25.252 48.4209 25.252C36.5623 25.252 26.7661 34.0746 25.2334 45.5137L28.2295 43.7832C28.8877 43.4032 29.7292 43.6291 30.1094 44.2871C30.4894 44.9454 30.2647 45.7879 29.6064 46.168L23.6465 49.6084ZM67.4941 32.7773C66.9379 33.2954 66.0669 33.2643 65.5488 32.708C65.2641 32.4022 64.9705 32.1046 64.6699 31.8145L66.582 29.834C66.9176 30.1579 67.2446 30.4907 67.5625 30.832C68.0804 31.3882 68.0501 32.2593 67.4941 32.7773ZM71.0186 38.3857C70.3453 38.7386 69.513 38.4789 69.1602 37.8057C68.7714 37.0638 68.3444 36.3448 67.8809 35.6523C67.458 35.0207 67.6271 34.166 68.2588 33.7432C68.8904 33.3204 69.7451 33.4895 70.168 34.1211C70.6859 34.8949 71.164 35.698 71.5986 36.5273C71.9515 37.2006 71.6918 38.0329 71.0186 38.3857ZM72.9258 44.7285C72.1832 44.889 71.4511 44.4173 71.29 43.6748C71.1121 42.853 70.8907 42.0468 70.6289 41.2598C70.389 40.5387 70.7791 39.7597 71.5 39.5195C72.2213 39.2796 73.0013 39.6693 73.2412 40.3906C73.5341 41.2712 73.7814 42.1725 73.9805 43.0918C74.1413 43.8347 73.6687 44.5677 72.9258 44.7285ZM47.8594 74.8008C40.8057 74.8007 34.4017 72.0062 29.6992 67.4668L31.6113 65.4863C35.8213 69.5503 41.5472 72.0478 47.8594 72.0479C59.7179 72.0479 69.5151 63.2261 71.0479 51.7871L68.0518 53.5166C67.3935 53.8967 66.5519 53.671 66.1719 53.0127C65.7919 52.3545 66.0168 51.5129 66.6748 51.1328L72.6348 47.6924C73.2931 47.3123 74.1356 47.538 74.5156 48.1963L77.9561 54.1553C78.3361 54.8136 78.1104 55.6561 77.4521 56.0361C76.794 56.4159 75.9524 56.1902 75.5723 55.5322L73.7461 52.3691C71.9405 65.0502 61.0393 74.8008 47.8594 74.8008ZM24.7803 57.7812C24.059 58.0211 23.2799 57.6304 23.04 56.9092C22.7472 56.0289 22.4998 55.1279 22.3008 54.209C22.1399 53.4661 22.6117 52.7332 23.3545 52.5723C24.0974 52.4114 24.8304 52.8831 24.9912 53.626C25.1692 54.4479 25.3905 55.2539 25.6523 56.041C25.8921 56.7622 25.5015 57.5414 24.7803 57.7812ZM28.0225 63.5576C27.3908 63.9804 26.5361 63.8104 26.1133 63.1787C25.5953 62.4049 25.1173 61.6019 24.6826 60.7725C24.3298 60.0992 24.5894 59.2679 25.2627 58.915C25.936 58.5622 26.7673 58.8219 27.1201 59.4951C27.5089 60.237 27.9368 60.9559 28.4004 61.6484C28.8229 62.2801 28.654 63.1349 28.0225 63.5576ZM29.6992 67.4668C29.3635 67.1427 29.0358 66.8093 28.7178 66.4678C28.2 65.9115 28.2309 65.0404 28.7871 64.5225C29.3433 64.0046 30.2144 64.0357 30.7324 64.5918C31.0172 64.8976 31.3098 65.1962 31.6104 65.4863L29.6992 67.4668Z" fill="url(#paint2_linear_1176_3231)"/>
<defs>
<linearGradient id="paint0_linear_1176_3231" x1="0.140624" y1="8.90705" x2="90.7716" y2="17.4377" gradientUnits="userSpaceOnUse">
<stop stop-color="#7B7B7B"/>
<stop offset="1" stop-color="#9ABECA"/>
</linearGradient>
<linearGradient id="paint1_linear_1176_3231" x1="42.0156" y1="36.3715" x2="54.3637" y2="36.8998" gradientUnits="userSpaceOnUse">
<stop stop-color="#7B7B7B"/>
<stop offset="1" stop-color="#9ABECA"/>
</linearGradient>
<linearGradient id="paint2_linear_1176_3231" x1="78.1406" y1="70.2206" x2="21.6531" y2="64.121" gradientUnits="userSpaceOnUse">
<stop stop-color="#7B7B7B"/>
<stop offset="1" stop-color="#9ABECA"/>
</linearGradient>
</defs>
</svg>
