<svg width="97" height="96" viewBox="0 0 97 96" fill="none" xmlns="http://www.w3.org/2000/svg">
<rect opacity="0.2" x="0.140625" width="96" height="96" rx="2" fill="url(#paint0_linear_1906_3994)"/>
<path d="M68.7598 44.7815C70.6425 44.875 72.429 45.6653 73.7682 47.0049C75.1968 48.4338 75.9999 50.3721 76 52.3929L75.991 52.7695C75.8979 54.6516 75.1075 56.4361 73.77 57.7756L73.7718 57.7774L56.1777 75.4585C55.8332 75.8047 55.3646 76 54.8763 76H46.6161C45.6025 76 44.7807 75.1778 44.7805 74.1639V65.9016C44.7806 65.4133 44.9758 64.9444 45.3219 64.5999L62.9985 47.0013C64.4268 45.5744 66.3628 44.7726 68.3816 44.7725L68.7598 44.7815ZM66.0333 20.0054C66.4642 20.0138 66.8955 20.0568 67.3222 20.1416C68.7464 20.425 70.0543 21.1245 71.0812 22.1516C72.108 23.1787 72.8074 24.487 73.0907 25.9116C73.3739 27.336 73.2285 28.8122 72.673 30.1539C72.1173 31.4958 71.1771 32.6444 69.9698 33.4513C68.7623 34.2583 67.342 34.6885 65.8899 34.6885H62.2187V36.9836C62.2186 37.9976 61.3968 38.8197 60.3831 38.8197C59.3694 38.8197 58.5476 37.9976 58.5475 36.9836V27.3443C58.5475 26.0524 58.8888 24.7862 59.5316 23.6721H35.6026C33.8987 23.6721 32.265 24.3497 31.0602 25.5548C29.8553 26.76 29.178 28.394 29.178 30.0984V58.5574H36.9793L37.1675 58.5663C38.0929 58.6606 38.8149 59.443 38.8149 60.3934C38.8149 61.3439 38.0929 62.1263 37.1675 62.2205L36.9793 62.2295H23.6712V63.1475L23.6784 63.4667C23.7572 65.0549 24.424 66.5614 25.5534 67.6911C26.7582 68.8962 28.3919 69.5738 30.0958 69.5738H35.6026L35.7908 69.5827C36.7162 69.677 37.4382 70.4593 37.4382 71.4098C37.4382 72.3603 36.7162 73.1427 35.7908 73.2369L35.6026 73.2459H30.0958C27.4182 73.2459 24.8511 72.1812 22.9577 70.2874C21.1826 68.5118 20.1362 66.1439 20.0125 63.6478L20 63.1475V60.3934L20.009 60.2052C20.1032 59.2796 20.8854 58.5574 21.8356 58.5574H25.5068V30.0984C25.5068 27.4201 26.5712 24.8523 28.4645 22.9585C30.3579 21.0647 32.925 20 35.6026 20H65.8899L66.0333 20.0054ZM65.5869 49.6048L48.4517 66.6637V72.3279H54.1127L71.169 55.1865L71.1726 55.1847L71.4343 54.8942C72.0096 54.1918 72.3287 53.3089 72.3288 52.3929L72.3091 52.002C72.2193 51.0985 71.82 50.2489 71.1726 49.6012C70.5251 48.9536 69.6756 48.5542 68.7723 48.4644L68.3816 48.4447C67.3349 48.4447 66.3307 48.8609 65.5905 49.6012L65.5887 49.6048L64.2927 48.303L65.5869 49.6048ZM49.5577 42.0418C50.4831 42.136 51.2051 42.9184 51.2051 43.8689C51.2051 44.8193 50.4831 45.6017 49.5577 45.696L49.3695 45.7049H38.356C37.3422 45.7049 36.5204 44.8829 36.5204 43.8689C36.5204 42.8548 37.3422 42.0328 38.356 42.0328H49.3695L49.5577 42.0418ZM49.5577 31.0254C50.4831 31.1196 51.2051 31.902 51.2051 32.8525C51.2051 33.8029 50.4831 34.5853 49.5577 34.6796L49.3695 34.6885H38.356C37.3422 34.6885 36.5204 33.8665 36.5204 32.8525C36.5204 31.8384 37.3422 31.0164 38.356 31.0164H49.3695L49.5577 31.0254ZM66.6069 23.7421C65.8948 23.6004 65.1553 23.6739 64.4845 23.9518C63.8139 24.2298 63.2404 24.7001 62.8371 25.3038C62.4338 25.9077 62.2187 26.618 62.2187 27.3443V31.0164H65.8899C66.616 31.0164 67.3261 30.8013 67.9298 30.3978C68.5333 29.9944 69.0036 29.4207 69.2814 28.75C69.5593 28.079 69.6328 27.3393 69.4912 26.627C69.3494 25.915 68.9988 25.2613 68.4855 24.748C67.9723 24.2346 67.3188 23.8838 66.6069 23.7421Z" fill="url(#paint1_linear_1906_3994)"/>
<defs>
<linearGradient id="paint0_linear_1906_3994" x1="0.140624" y1="8.40705" x2="90.7716" y2="16.9377" gradientUnits="userSpaceOnUse">
<stop stop-color="#7B7B7B"/>
<stop offset="1" stop-color="#9ABECA"/>
</linearGradient>
<linearGradient id="paint1_linear_1906_3994" x1="20" y1="24.9041" x2="72.8681" y2="29.8803" gradientUnits="userSpaceOnUse">
<stop stop-color="#7B7B7B"/>
<stop offset="1" stop-color="#9ABECA"/>
</linearGradient>
</defs>
</svg>
