<svg width="97" height="96" viewBox="0 0 97 96" fill="none" xmlns="http://www.w3.org/2000/svg">
<rect opacity="0.2" x="0.140625" width="96" height="96" rx="2" fill="url(#paint0_linear_1906_3967)"/>
<path d="M60.918 33.7148C64.9531 33.7148 68.8442 35.1206 71.9346 37.6611L73.1514 36.4453L73.2793 36.3311C73.9385 35.7931 74.9106 35.8311 75.5254 36.4453C76.1398 37.0598 76.1789 38.032 75.6416 38.6914L75.5254 38.8193L74.3096 40.0342C76.8562 43.1263 78.2665 47.0216 78.2666 51.0615L78.2451 51.915C78.1473 53.9015 77.708 55.8598 76.9453 57.7012C76.0736 59.8054 74.795 61.7166 73.1846 63.3271C71.5739 64.9377 69.6619 66.2162 67.5576 67.0879C65.4531 67.9596 63.1959 68.4092 60.918 68.4092C58.6403 68.409 56.3846 67.9595 54.2803 67.0879C52.1758 66.2161 50.263 64.9378 48.6523 63.3271C47.042 61.7166 45.7632 59.8053 44.8916 57.7012C44.0199 55.5966 43.5713 53.3395 43.5713 51.0615C43.5714 46.4611 45.3994 42.048 48.6523 38.7949C51.9053 35.5421 56.3178 33.7151 60.918 33.7148ZM60.918 37.0723C57.2082 37.0726 53.6496 38.5458 51.0264 41.1689C48.403 43.7924 46.9289 47.3515 46.9287 51.0615C46.9287 52.8986 47.2921 54.7188 47.9951 56.416C48.698 58.1127 49.7279 59.6544 51.0264 60.9531C52.3253 62.2521 53.8683 63.2833 55.5654 63.9863C57.2623 64.6892 59.0813 65.0516 60.918 65.0518C62.755 65.0518 64.5752 64.6893 66.2725 63.9863C67.9696 63.2833 69.5116 62.252 70.8105 60.9531C72.1093 59.6543 73.1408 58.113 73.8438 56.416C74.5468 54.7188 74.9092 52.8986 74.9092 51.0615L74.8906 50.3682C74.719 46.9106 73.2701 43.6285 70.8105 41.1689C68.1871 38.5458 64.6279 37.0723 60.918 37.0723ZM36.5928 60.4355C37.3487 60.5125 37.9391 61.1515 37.9395 61.9277C37.9395 62.7042 37.349 63.3429 36.5928 63.4199L36.4395 63.4277H32.7568C31.9284 63.4277 31.2568 62.7562 31.2568 61.9277C31.2572 61.0997 31.9287 60.4277 32.7568 60.4277H36.4395L36.5928 60.4355ZM65.4727 44.165C66.1319 43.6271 67.104 43.665 67.7188 44.2793C68.3332 44.8937 68.3723 45.866 67.835 46.5254L67.7188 46.6533L62.123 52.249C61.4674 52.9041 60.4044 52.9044 59.749 52.249C59.094 51.5936 59.0941 50.5305 59.749 49.875L65.3447 44.2793L65.4727 44.165ZM36.5596 49.3896C37.3156 49.4667 37.906 50.1055 37.9062 50.8818C37.906 51.6582 37.3156 52.297 36.5596 52.374L36.4062 52.3818H25.3594C24.5311 52.3818 23.8596 51.7101 23.8594 50.8818C23.8596 50.0536 24.5311 49.3818 25.3594 49.3818H36.4062L36.5596 49.3896ZM36.5645 38.3428C37.3207 38.4196 37.9109 39.0585 37.9111 39.835C37.911 40.6115 37.3208 41.2503 36.5645 41.3271L36.4111 41.335H18C17.1717 41.3349 16.5001 40.6632 16.5 39.835C16.5002 39.0068 17.1718 38.335 18 38.335H36.4111L36.5645 38.3428ZM65.5781 27.0078C66.4247 27.0937 67.0849 27.8095 67.085 28.6787C67.085 29.5479 66.4247 30.2637 65.5781 30.3496L65.4062 30.3574H56.4531C55.5263 30.3571 54.7744 29.6056 54.7744 28.6787C54.7744 27.7518 55.5263 27.0004 56.4531 27H65.4062L65.5781 27.0078Z" fill="url(#paint1_linear_1906_3967)"/>
<defs>
<linearGradient id="paint0_linear_1906_3967" x1="0.140624" y1="8.40705" x2="90.7716" y2="16.9377" gradientUnits="userSpaceOnUse">
<stop stop-color="#7B7B7B"/>
<stop offset="1" stop-color="#9ABECA"/>
</linearGradient>
<linearGradient id="paint1_linear_1906_3967" x1="17" y1="30.6263" x2="74.2424" y2="38.5981" gradientUnits="userSpaceOnUse">
<stop stop-color="#7B7B7B"/>
<stop offset="1" stop-color="#9ABECA"/>
</linearGradient>
</defs>
</svg>
