<svg width="97" height="96" viewBox="0 0 97 96" fill="none" xmlns="http://www.w3.org/2000/svg">
<rect opacity="0.2" x="0.140625" width="96" height="96" rx="2" fill="url(#paint0_linear_1906_4017)"/>
<path d="M65.7996 24C69.7322 24.0003 72.9197 27.1878 72.92 31.1204V65.7996C72.9197 69.7322 69.7322 72.9197 65.7996 72.92H31.1204C27.1878 72.9197 24.0003 69.7322 24 65.7996V31.1204C24.0003 27.1878 27.1878 24.0003 31.1204 24H65.7996ZM31.1204 28.3338C29.5818 28.3341 28.3341 29.5818 28.3338 31.1204V65.7996C28.3341 67.3382 29.5818 68.5859 31.1204 68.5862H65.7996C67.3382 68.5859 68.5859 67.3382 68.5862 65.7996V31.1204C68.5859 29.5818 67.3382 28.3341 65.7996 28.3338H31.1204ZM59.9462 33.9259C61.6636 34.1002 63.004 35.5501 63.0042 37.3134C63.0039 39.1942 61.4787 40.7198 59.5978 40.7198C59.4906 40.7198 59.3847 40.7136 59.28 40.7039L54.7822 45.2002C55.2863 46.177 55.5731 47.285 55.5732 48.46C55.5731 49.6342 55.2857 50.7404 54.7822 51.7169L59.2814 56.2161C59.3856 56.2065 59.4912 56.2016 59.5978 56.2016L59.9462 56.219C61.6636 56.3933 63.004 57.8432 63.0042 59.6065C63.0039 61.4873 61.4787 63.0129 59.5978 63.0129C57.8347 63.0127 56.3848 61.6721 56.2103 59.9549L56.1929 59.6065L56.2089 59.2742L51.7198 54.7851C50.7405 55.2921 49.6301 55.5819 48.4513 55.5819C47.2743 55.5818 46.1652 55.2937 45.1872 54.788L40.6952 59.28C40.7054 59.3875 40.7111 59.4964 40.7111 59.6065C40.7108 61.4873 39.1856 63.0129 37.3047 63.0129C35.5416 63.0127 34.0917 61.6721 33.9172 59.9549L33.8998 59.6065L33.9172 59.2582C34.0919 57.5412 35.5417 56.2019 37.3047 56.2016L37.6269 56.2176L42.1219 51.7212C41.6174 50.7439 41.3309 49.6356 41.3309 48.46C41.3309 47.2836 41.6167 46.1735 42.1219 45.1959L37.6284 40.7024C37.5218 40.7125 37.414 40.7198 37.3047 40.7198C35.5416 40.7196 34.0917 39.379 33.9172 37.6618L33.8998 37.3134L33.9172 36.9651C34.0919 35.2481 35.5417 33.9088 37.3047 33.9085L37.6531 33.9259C39.3705 34.1002 40.7109 35.5501 40.7111 37.3134C40.7111 37.4227 40.7038 37.5305 40.6937 37.6371L45.1872 42.1306C46.165 41.6252 47.2746 41.3396 48.4513 41.3396C49.6298 41.3396 50.7407 41.6267 51.7198 42.1335L56.2089 37.6444L56.1929 37.3134L56.2103 36.9651C56.385 35.2481 57.8348 33.9088 59.5978 33.9085L59.9462 33.9259ZM48.4513 45.6734C47.8025 45.6735 47.2065 45.8964 46.7329 46.2684C46.6677 46.3575 46.5971 46.4449 46.5166 46.5253C46.436 46.6059 46.3489 46.6764 46.2597 46.7416C45.8879 47.2151 45.6648 47.8114 45.6647 48.46C45.6648 49.1088 45.8877 49.7049 46.2597 50.1784C46.3489 50.2436 46.436 50.3141 46.5166 50.3947C46.5953 50.4734 46.6644 50.5588 46.7285 50.6458C47.203 51.0201 47.8001 51.2465 48.4513 51.2466C49.11 51.2466 49.7131 51.0148 50.19 50.6327C50.2518 50.5501 50.3196 50.4698 50.3947 50.3947C50.4689 50.3205 50.5482 50.2541 50.6298 50.1929C51.009 49.717 51.2378 49.1158 51.2379 48.46C51.2378 47.804 51.0092 47.2017 50.6298 46.7256C50.5485 46.6646 50.4687 46.5993 50.3947 46.5253C50.319 46.4497 50.2522 46.3677 50.19 46.2844C49.7132 45.9027 49.1095 45.6734 48.4513 45.6734Z" fill="url(#paint1_linear_1906_4017)"/>
<defs>
<linearGradient id="paint0_linear_1906_4017" x1="0.140624" y1="8.40705" x2="90.7716" y2="16.9377" gradientUnits="userSpaceOnUse">
<stop stop-color="#7B7B7B"/>
<stop offset="1" stop-color="#9ABECA"/>
</linearGradient>
<linearGradient id="paint1_linear_1906_4017" x1="24" y1="28.2841" x2="70.184" y2="32.6312" gradientUnits="userSpaceOnUse">
<stop stop-color="#7B7B7B"/>
<stop offset="1" stop-color="#9ABECA"/>
</linearGradient>
</defs>
</svg>
