<svg width="97" height="96" viewBox="0 0 97 96" fill="none" xmlns="http://www.w3.org/2000/svg">
<rect opacity="0.2" x="0.140625" width="96" height="96" rx="2" fill="url(#paint0_linear_1906_4044)"/>
<path d="M47.177 25.8695C47.7028 25.4848 48.4342 25.5121 48.9309 25.9515C54.1085 30.5321 60.8659 32.9169 67.7717 32.601L68.01 32.6107C68.5551 32.6788 69.0197 33.0636 69.1789 33.6049C70.2398 37.2114 70.5868 40.9501 70.2463 44.6176L68.8537 44.4877L67.4592 44.3588C67.735 41.388 67.5101 38.3657 66.7717 35.4242C59.9385 35.4745 53.3012 33.1442 48.0022 28.8324C42.7029 33.1442 36.0661 35.4748 29.2326 35.4242C28.4532 38.5311 28.24 41.7569 28.6076 44.9447C29.0161 48.4861 30.1323 51.9096 31.8899 55.0111C33.6475 58.1128 36.0117 60.8291 38.84 62.9994C41.5717 65.0955 44.6837 66.6387 48.0022 67.5482C48.6477 67.3709 49.2848 67.174 49.9074 66.9515C50.6354 66.6917 51.4363 67.0704 51.6965 67.7982C51.9567 68.5263 51.5769 69.3281 50.8488 69.5883C50.2355 69.8074 49.6134 70.005 48.9856 70.183L48.3566 70.3549C48.1257 70.4151 47.8826 70.4147 47.6516 70.3549C43.8375 69.3656 40.261 67.6198 37.135 65.2211C34.0091 62.8224 31.3969 59.8199 29.4543 56.392C27.5118 52.9641 26.2779 49.1801 25.8264 45.266C25.3749 41.3516 25.7151 37.3852 26.8264 33.6049L26.9123 33.3832C27.1541 32.8899 27.6691 32.5755 28.2326 32.601C35.1386 32.917 41.8977 30.5323 47.0754 25.9515L47.177 25.8695ZM69.9094 51.9701C70.4782 51.3679 71.4282 51.3407 72.0305 51.9096C72.6325 52.4784 72.6598 53.4285 72.091 54.0306L60.757 66.0306C60.4738 66.3302 60.0795 66.5003 59.6672 66.5004C59.2547 66.5004 58.8597 66.3304 58.5764 66.0306L52.9094 60.0306L52.8098 59.9135C52.3465 59.3109 52.4056 58.4428 52.9699 57.9096C53.5346 57.3762 54.4045 57.3674 54.9797 57.8646L55.091 57.9701L59.6662 62.8148L69.9094 51.9701ZM70.2463 44.6176C70.1748 45.3873 69.4936 45.9536 68.7238 45.8822C67.9542 45.8106 67.3879 45.1285 67.4592 44.3588L70.2463 44.6176Z" fill="url(#paint1_linear_1906_4044)"/>
<defs>
<linearGradient id="paint0_linear_1906_4044" x1="0.140624" y1="8.40705" x2="90.7716" y2="16.9377" gradientUnits="userSpaceOnUse">
<stop stop-color="#7B7B7B"/>
<stop offset="1" stop-color="#9ABECA"/>
</linearGradient>
<linearGradient id="paint1_linear_1906_4044" x1="25.6328" y1="29.5234" x2="69.8426" y2="33.8767" gradientUnits="userSpaceOnUse">
<stop stop-color="#7B7B7B"/>
<stop offset="1" stop-color="#9ABECA"/>
</linearGradient>
</defs>
</svg>
