<svg width="97" height="97" viewBox="0 0 97 97" fill="none" xmlns="http://www.w3.org/2000/svg">
<rect opacity="0.2" x="0.140625" y="0.5" width="96" height="96" rx="2" fill="url(#paint0_linear_1906_4026)"/>
<path d="M43.4844 24.1748C44.2406 24.2518 44.8311 24.8905 44.8311 25.667C44.8309 26.4434 44.2405 27.0822 43.4844 27.1592L43.3311 27.167H35.1641C34.0149 27.1671 32.9132 27.624 32.1006 28.4365C31.288 29.2491 30.8311 30.3508 30.8311 31.5V60.584C32.0804 59.6692 33.5965 59.1671 35.1641 59.167H65.1641V56C65.1641 55.1717 65.8358 54.5002 66.6641 54.5C67.4923 54.5002 68.1641 55.1717 68.1641 56V70C68.1641 71.0166 67.7608 71.9921 67.042 72.7109C66.3232 73.4297 65.3476 73.8329 64.3311 73.833H35.1641C33.2194 73.8329 31.3537 73.0606 29.9785 71.6855C28.6892 70.3962 27.9297 68.6759 27.8398 66.8633L27.8311 66.5V31.5C27.8311 29.5552 28.6033 27.6896 29.9785 26.3145C31.3537 24.9393 33.2193 24.1671 35.1641 24.167H43.3311L43.4844 24.1748ZM35.1641 62.167C34.0152 62.1671 32.9131 62.6233 32.1006 63.4355C31.2879 64.2482 30.8311 65.3507 30.8311 66.5L30.8359 66.7148C30.8891 67.7859 31.3387 68.8026 32.1006 69.5645C32.9131 70.3767 34.0152 70.8329 35.1641 70.833H64.3311C64.5519 70.8329 64.7637 70.7451 64.9199 70.5889C65.0761 70.4326 65.1641 70.2209 65.1641 70V62.167H35.1641ZM57.6436 24.1748C59.1676 24.2505 60.6141 24.8895 61.6982 25.9736C62.8545 27.1301 63.5039 28.6986 63.5039 30.334V33.5H64.334C66.451 33.5 68.1678 35.2161 68.168 37.333V44.333C68.168 46.4501 66.4511 48.167 64.334 48.167H50.334C48.217 48.1668 46.501 46.45 46.501 44.333V37.333C46.5012 35.2162 48.2172 33.5002 50.334 33.5H51.1709V30.334C51.1709 28.6986 51.8213 27.1301 52.9775 25.9736C54.1339 24.8173 55.7025 24.1671 57.3379 24.167L57.6436 24.1748ZM50.334 36.5C49.874 36.5002 49.5012 36.873 49.501 37.333V44.333C49.501 44.7931 49.8739 45.1668 50.334 45.167H64.334C64.7942 45.167 65.168 44.7932 65.168 44.333V37.333C65.1678 36.8729 64.7941 36.5 64.334 36.5H50.334ZM57.3379 27.167C56.4982 27.1671 55.6924 27.501 55.0986 28.0947C54.505 28.6886 54.1709 29.4943 54.1709 30.334V33.5H60.5039V30.334C60.5039 29.4943 60.1708 28.6886 59.5771 28.0947C59.0203 27.5379 58.277 27.2096 57.4941 27.1709L57.3379 27.167Z" fill="url(#paint1_linear_1906_4026)"/>
<defs>
<linearGradient id="paint0_linear_1906_4026" x1="0.140624" y1="8.90705" x2="90.7716" y2="17.4377" gradientUnits="userSpaceOnUse">
<stop stop-color="#7B7B7B"/>
<stop offset="1" stop-color="#9ABECA"/>
</linearGradient>
<linearGradient id="paint1_linear_1906_4026" x1="28.2891" y1="28.8942" x2="65.6178" y2="31.7353" gradientUnits="userSpaceOnUse">
<stop stop-color="#7B7B7B"/>
<stop offset="1" stop-color="#9ABECA"/>
</linearGradient>
</defs>
</svg>
