<svg width="97" height="96" viewBox="0 0 97 96" fill="none" xmlns="http://www.w3.org/2000/svg">
<rect opacity="0.2" x="0.140625" width="96" height="96" rx="2" fill="url(#paint0_linear_1176_3248)"/>
<path d="M63.8623 28C65.5192 28 66.8623 29.3431 66.8623 31V41.4922C67.5115 41.4013 68.1678 41.3555 68.8262 41.3555L69.1748 41.3594C70.9157 41.4023 72.6354 41.7664 74.2461 42.4336C75.964 43.1453 77.525 44.189 78.8398 45.5039C80.1547 46.8188 81.1985 48.3797 81.9102 50.0977C82.6218 51.8158 82.9883 53.6579 82.9883 55.5176L82.9834 55.8662C82.9405 57.6071 82.5773 59.3268 81.9102 60.9375C81.1985 62.6555 80.1548 64.2163 78.8398 65.5312C77.5249 66.8462 75.9641 67.8899 74.2461 68.6016C72.528 69.3132 70.6858 69.6796 68.8262 69.6797C66.9665 69.6797 65.1244 69.3132 63.4062 68.6016C61.6883 67.8899 60.1274 66.8461 58.8125 65.5312C57.6038 64.3225 56.624 62.9059 55.9209 61.3506C44.132 63.8147 35.9806 66.9942 31.4893 69.2598C30.3422 69.8383 29.0582 69.6966 28.0859 69.1436C27.1081 68.5871 26.3226 67.5379 26.3252 66.1992L26.3281 64.2178C26.085 64.3026 25.8496 64.3849 25.623 64.4678C24.3883 64.9192 23.1065 64.6027 22.2021 63.9141C21.2927 63.2215 20.6406 62.0509 20.8477 60.6982L21.3223 57.5938C20.0636 57.2373 19.1406 56.0828 19.1406 54.71V31C19.1406 29.3431 20.4838 28 22.1406 28H63.8623ZM54.4385 59.1094C43.0228 59.8948 34.4369 61.7181 28.8301 63.4082L28.8252 66.2051C28.8249 66.493 28.9885 66.7803 29.3232 66.9707C29.6638 67.1643 30.0578 67.1813 30.3633 67.0273C34.9452 64.7161 42.9827 61.5821 54.4385 59.1094ZM68.8262 44.3555C67.3604 44.3555 65.9089 44.6442 64.5547 45.2051C63.2004 45.766 61.9701 46.5885 60.9336 47.625C59.8971 48.6615 59.0746 49.8919 58.5137 51.2461C57.9528 52.6003 57.6641 54.0519 57.6641 55.5176L57.6777 56.0664C57.7407 57.3446 58.0229 58.6042 58.5137 59.7891C59.0746 61.1432 59.8972 62.3738 60.9336 63.4102C61.97 64.4465 63.2006 65.2692 64.5547 65.8301C65.9088 66.3909 67.3605 66.6797 68.8262 66.6797C70.2919 66.6796 71.7435 66.391 73.0977 65.8301C74.4518 65.2691 75.6823 64.4466 76.7188 63.4102C77.7552 62.3737 78.5777 61.1432 79.1387 59.7891C79.6996 58.435 79.9882 56.9833 79.9883 55.5176L79.9746 54.9688C79.9117 53.6906 79.6294 52.4309 79.1387 51.2461C78.5778 49.892 77.7551 48.6614 76.7188 47.625C75.6824 46.5886 74.4518 45.766 73.0977 45.2051C71.9128 44.7143 70.6532 44.4321 69.375 44.3691L68.8262 44.3555ZM23.3184 61.0762C23.2742 61.3655 23.3983 61.6832 23.7168 61.9258C24.0405 62.1721 24.4392 62.2381 24.7646 62.1191C28.7628 60.6568 35.1122 58.9206 43.7021 57.71H23.834L23.3184 61.0762ZM73.3672 50.8174C73.8824 50.2582 74.7477 50.1688 75.3691 50.6348C75.99 51.1008 76.147 51.9564 75.7549 52.6074L75.6689 52.7344L69.5381 60.9102L69.5371 60.9121C69.2719 61.2648 68.9335 61.5566 68.5459 61.7676C68.1582 61.9785 67.7293 62.1036 67.2891 62.1348C66.8489 62.1659 66.4066 62.1024 65.9932 61.9482C65.5797 61.794 65.2039 61.5521 64.8916 61.2402H64.8906L61.7256 58.0742L61.6221 57.9609C61.1415 57.3718 61.1764 56.5023 61.7256 55.9531C62.2748 55.4041 63.1433 55.3701 63.7324 55.8506L63.8467 55.9531L67.0127 59.1182H67.0117C67.0202 59.1265 67.0308 59.1335 67.042 59.1377C67.0533 59.1418 67.0662 59.1434 67.0781 59.1426C67.0899 59.1416 67.1019 59.1385 67.1123 59.1328C67.1228 59.1271 67.1324 59.1189 67.1396 59.1094L73.2686 50.9355L73.3672 50.8174ZM27.3945 31.0039C27.3945 33.9034 25.044 36.2539 22.1445 36.2539H21.1406V48.9941H22.1445C25.0439 48.9942 27.3943 51.3449 27.3945 54.2441V55.71H54.666L54.6641 55.5176C54.6641 53.6579 55.0305 51.8158 55.7422 50.0977C56.4539 48.3796 57.4975 46.8189 58.8125 45.5039C60.1275 44.1889 61.6881 43.1453 63.4062 42.4336C63.8828 42.2362 64.369 42.0657 64.8623 41.9219V36.2539H64.3203C61.4209 36.2539 59.0704 33.9034 59.0703 31.0039V30H27.3945V31.0039ZM21.1406 54.71C21.1406 55.2622 21.5883 55.71 22.1406 55.71H24.8945V54.2441C24.8943 52.7256 23.6632 51.4942 22.1445 51.4941H21.1406V54.71ZM42.7695 35.29C43.377 35.29 43.8701 35.7821 43.8701 36.3896V37.8086H44.3867C45.8127 37.8088 47.1023 38.9052 47.1025 40.416V41.1709C47.1024 41.7783 46.6103 42.2705 46.0029 42.2705C45.3957 42.2703 44.9035 41.7782 44.9033 41.1709V40.416C44.903 40.262 44.7445 40.0089 44.3867 40.0088H41.1533C40.795 40.0091 40.6368 40.2629 40.6367 40.415C40.6368 40.9517 40.9668 41.4339 41.4668 41.6289L44.8721 42.9551C46.2171 43.4792 47.1023 44.7752 47.1025 46.2188C47.1024 47.729 45.8121 48.825 44.3867 48.8252H43.8701V50.2451C43.8698 50.8524 43.3769 51.3447 42.7695 51.3447C42.1626 51.3442 41.6702 50.8521 41.6699 50.2451V48.8252H41.1533C39.7274 48.8249 38.4376 47.7285 38.4375 46.2178V45.4639C38.4375 44.8565 38.9298 44.3635 39.5371 44.3633C40.1446 44.3633 40.6367 44.8564 40.6367 45.4639V46.2178C40.6369 46.3717 40.7957 46.6257 41.1533 46.626H44.3867C44.7452 46.6258 44.9032 46.3709 44.9033 46.2188C44.9031 45.6821 44.5732 45.2008 44.0732 45.0059L40.668 43.6787C39.3231 43.1545 38.4376 41.8585 38.4375 40.415C38.4376 38.9049 39.728 37.8089 41.1533 37.8086H41.6699V36.3896C41.6699 35.7824 42.1624 35.2905 42.7695 35.29ZM22.1406 30C21.5883 30 21.1406 30.4477 21.1406 31V33.7539H22.1445C23.6633 33.7539 24.8945 32.5226 24.8945 31.0039V30H22.1406ZM61.5703 31.0039C61.5704 32.5226 62.8016 33.7539 64.3203 33.7539H64.8623V31C64.8623 30.4477 64.4146 30 63.8623 30H61.5703V31.0039Z" fill="url(#paint1_linear_1176_3248)"/>
<defs>
<linearGradient id="paint0_linear_1176_3248" x1="0.140624" y1="8.40705" x2="90.7716" y2="16.9377" gradientUnits="userSpaceOnUse">
<stop stop-color="#7B7B7B"/>
<stop offset="1" stop-color="#9ABECA"/>
</linearGradient>
<linearGradient id="paint1_linear_1176_3248" x1="19.1406" y1="31.65" x2="78.713" y2="40.2396" gradientUnits="userSpaceOnUse">
<stop stop-color="#7B7B7B"/>
<stop offset="1" stop-color="#9ABECA"/>
</linearGradient>
</defs>
</svg>
