<svg width="177" height="73" viewBox="0 0 177 73" fill="none" xmlns="http://www.w3.org/2000/svg">
<g clip-path="url(#clip0_1214_4655)">
<path d="M28.694 35.46C28.694 35.9811 28.5451 36.13 28.0984 36.13H24.5995V33.0033H28.0984C28.5451 33.0033 28.694 33.2266 28.694 33.6733V35.46ZM32.1184 42.0111C31.6718 41.5644 31.5229 41.1922 31.2995 40.6711L30.034 37.47C31.0762 37.3211 31.5973 36.8 31.5973 35.7578V33.5244C31.5973 32.4078 30.9273 31.5889 29.5873 31.5889H21.3984C21.4729 32.0355 21.6218 32.3333 21.6218 33.0033V40.6711C21.6218 41.3411 21.5473 41.6389 21.3984 42.0111H24.8229C24.7484 41.6389 24.5995 41.3411 24.5995 40.6711V37.47H26.8329L28.6195 42.0111H32.1184ZM33.6818 42.0111C33.7562 41.6389 33.9051 41.3411 33.9051 40.6711V33.0033C33.9051 32.3333 33.8307 32.0355 33.6818 31.6633H37.1062C37.0318 32.0355 36.9573 32.3333 36.9573 33.0033V40.6711C36.9573 41.3411 37.0318 41.6389 37.1807 42.0111H33.6818ZM47.2307 42.0111H41.2007C39.7862 42.0111 39.1907 41.2666 39.1907 40.0011V33.6733C39.1907 32.4078 39.8607 31.6633 41.2007 31.6633H47.2307L47.454 33.2266C47.0818 33.0778 46.6351 33.0033 45.9651 33.0033H42.6895C42.3173 33.0033 42.1684 33.1522 42.1684 33.5244V40.15C42.1684 40.5966 42.3918 40.6711 42.6895 40.6711H45.9651C46.6351 40.6711 47.0073 40.5966 47.454 40.4478L47.2307 42.0111ZM56.4618 42.0111C56.5362 41.6389 56.6851 41.3411 56.6851 40.6711V37.47H52.5907V40.6711C52.5907 41.3411 52.6651 41.6389 52.814 42.0111H49.3895C49.464 41.6389 49.6129 41.3411 49.6129 40.6711V33.0033C49.6129 32.3333 49.5384 32.0355 49.3895 31.6633H52.814C52.6651 32.0355 52.5907 32.3333 52.5907 33.0033V36.13H56.6851V33.0033C56.6851 32.3333 56.6107 32.0355 56.4618 31.6633H59.8862C59.8118 32.0355 59.6629 32.3333 59.6629 33.0033V40.6711C59.6629 41.3411 59.7373 41.6389 59.8862 42.0111H56.4618ZM68.3729 37.7678H64.874L66.6607 33.8222L68.3729 37.7678ZM73.7329 42.0111C73.4351 41.7133 73.1373 41.1922 72.914 40.6711L68.894 31.6633H65.544L65.9162 32.3333L62.194 40.6711C62.0451 41.0433 61.6729 41.5644 61.3751 42.0111H63.3851C63.3851 41.49 63.534 40.9689 63.6084 40.6711L64.2784 39.0333H68.9684L69.7129 40.6711C69.8618 41.0433 70.0107 41.49 70.0107 41.7133C70.0107 41.7878 70.0107 41.8622 70.0107 42.0111H73.7329ZM82.5918 35.46C82.5918 35.9811 82.4429 36.13 81.9962 36.13H78.4973V33.0033H81.9962C82.4429 33.0033 82.5918 33.2266 82.5918 33.6733V35.46ZM85.9418 42.0111C85.4951 41.5644 85.3462 41.1922 85.1229 40.6711L83.9318 37.47C85.0484 37.3211 85.4951 36.8 85.4951 35.7578V33.5244C85.4951 32.4078 84.8251 31.5889 83.4851 31.5889H75.2962C75.3707 31.9611 75.5195 32.2589 75.5195 32.9289V40.5966C75.5195 41.2666 75.4451 41.5644 75.2962 41.9366H78.7207C78.6462 41.5644 78.4973 41.2666 78.4973 40.5966V37.47H80.7307L82.5173 42.0111H85.9418ZM94.9495 40.15C94.9495 40.5966 94.7262 40.6711 94.4284 40.6711H90.7806V33.0033H94.4284C94.8007 33.0033 94.9495 33.1522 94.9495 33.5244V40.15ZM98.0018 40.0011V33.6733C98.0018 32.4078 97.3318 31.6633 95.9918 31.6633H87.5795C87.654 32.0355 87.7284 32.3333 87.7284 33.0033V40.7455C87.7284 41.4155 87.654 41.7133 87.5051 42.0855H95.9173C97.3318 42.0111 98.0018 41.2666 98.0018 40.0011ZM114.528 41.9366C114.603 41.5644 114.752 41.2666 114.752 40.5966V33.0778L111.178 41.9366H109.094L105.595 33.0778V40.5966C105.595 41.2666 105.67 41.5644 105.818 41.9366H104.032C104.106 41.5644 104.255 41.2666 104.255 40.5966V32.9289C104.255 32.2589 104.181 31.9611 104.032 31.5889H108.126L111.104 39.1078L114.082 31.5889H117.953C117.878 31.9611 117.73 32.2589 117.73 32.9289V40.5966C117.73 41.2666 117.804 41.5644 117.953 41.9366H114.528ZM120.335 41.9366C120.41 41.5644 120.558 41.2666 120.558 40.5966V32.9289C120.558 32.2589 120.484 31.9611 120.335 31.5889H123.76C123.685 31.9611 123.536 32.2589 123.536 32.9289V40.5966C123.536 41.2666 123.611 41.5644 123.76 41.9366H120.335ZM134.628 41.9366H126.142C126.216 41.5644 126.365 41.2666 126.365 40.5966V32.9289C126.365 32.2589 126.291 31.9611 126.142 31.5889H129.566C129.492 31.9611 129.343 32.2589 129.343 32.9289V40.5966H133.363C134.033 40.5966 134.48 40.5222 134.852 40.3733L134.628 41.9366ZM144.902 41.9366H136.415C136.49 41.5644 136.638 41.2666 136.638 40.5966V32.9289C136.638 32.2589 136.564 31.9611 136.415 31.5889H139.84C139.765 31.9611 139.616 32.2589 139.616 32.9289V40.5966H143.636C144.306 40.5966 144.753 40.5222 145.125 40.3733L144.902 41.9366ZM155.101 41.9366H146.614C146.688 41.5644 146.837 41.2666 146.837 40.5966V32.9289C146.837 32.2589 146.763 31.9611 146.614 31.5889H155.101L155.324 33.1522C154.952 33.0033 154.505 32.9289 153.835 32.9289H149.815V36.0555H153.388C153.984 36.0555 154.505 35.9811 154.803 35.8322V37.6189C154.431 37.47 153.91 37.3955 153.388 37.3955H149.815V40.6711H153.835C154.505 40.6711 154.952 40.5966 155.324 40.4478L155.101 41.9366Z" fill="#212322"/>
</g>
<defs>
<clipPath id="clip0_1214_4655">
<rect width="134" height="10.4222" fill="white" transform="translate(21.3984 31.5889)"/>
</clipPath>
</defs>
</svg>
