<svg width="177" height="73" viewBox="0 0 177 73" fill="none" xmlns="http://www.w3.org/2000/svg">
<g clip-path="url(#clip0_1214_4024)">
<path fill-rule="evenodd" clip-rule="evenodd" d="M47.7893 28.537L40.5916 42.3007C40.5916 42.3007 40.3575 41.0602 38.9876 39.335L32.8826 31.3517C28.5623 25.4418 37.899 18.6395 42.9987 26.9103L43.5666 24.799C38.1722 20.2292 30.6963 22.7185 29.7423 28.2946C29.6437 28.9529 29.4927 31.0796 31.0742 33.1303L31.4983 33.6366L31.601 33.7516L31.7704 33.9508C31.8238 34.0166 31.871 34.0772 31.9142 34.1357L37.4903 40.7346C42.6742 47.2946 32.9052 54.7089 27.0712 45.2818L26.375 47.5C30.764 51.4875 37.286 51.8356 40.0412 46.2132L44.1119 37.5728H47.9936L49.8996 44.6482H51.9585C51.7686 44.4654 51.5118 43.9807 51.3835 43.5125L47.8026 28.5524L47.7893 28.537ZM44.5052 36.588L46.5703 32.1466L47.7205 36.588H44.5052Z" fill="#212322"/>
<path d="M31.0781 33.1304C31.2065 33.2968 31.3503 33.4703 31.5022 33.6367L31.0781 33.1304ZM54.6633 29.0443L54.5041 43.7384C54.4815 43.9346 54.7537 44.5856 54.8748 44.639H52.9699L52.7183 30.4122C52.7183 29.9059 52.4236 29.338 52.1289 29.0433L54.6633 29.0443ZM120.38 43.7004V37.5338H126.047V36.5952H120.379L120.531 29.8165C124.329 29.8391 126.047 30.6874 126.047 30.6874V29.0967H117.943C117.943 29.0967 118.419 29.566 118.457 30.6863L118.616 44.6082C118.397 44.3063 112.722 37.3449 112.722 37.3449C117.413 36.4514 120.773 27.1599 107.243 29.1429C107.494 29.453 107.713 29.9069 107.721 30.7921L107.35 43.3605C107.289 43.8822 107.16 44.3813 107.001 44.6082H109.112L109.854 29.6194C115.098 28.2495 117.443 36.3991 110.498 37.6704C110.842 38.076 114.185 41.6158 116.333 43.8894L116.345 43.9017C117.31 44.9225 118.031 45.6855 118.125 45.7892C118.981 46.7206 121.171 47.5647 122.015 47.8892L122.218 47.9683C120.977 47.2043 119.086 45.1833 118.859 44.8054C119.351 44.8126 126.463 44.8054 126.463 44.8054L127.12 43.3369C127.12 43.3369 124.814 44.1625 121.113 44.1625H121.052C120.758 44.1646 120.395 44.1677 120.395 43.7076L120.38 43.7004ZM78.8081 48.1418C78.6643 48.7169 78.7023 49.217 79.6635 49.2314C82.621 49.2766 88.7127 48.7395 91.1496 47.9067L90.0148 49.8825H76.3497C76.5684 49.6021 76.7656 49.0804 76.9617 48.3616L80.8281 30.4214C79.3678 29.8771 77.5748 29.8463 75.9256 29.8463L75.4491 43.4283C75.4409 43.9356 75.524 44.3135 75.6154 44.639H73.5267C73.6705 44.2457 73.7239 43.9202 73.7382 43.3605L73.6325 29.8463H71.0446C70.3309 29.8648 70.3422 30.4111 70.3494 30.7767C70.3515 30.8455 70.3525 30.9071 70.3494 30.9585L69.6758 45.9021L58.3859 31.435V44.6308H56.8958C57.0314 44.4193 57.2439 43.7374 57.2737 43.2014L57.6978 30.4964L56.5703 29.0361H59.2793L69.1531 42.6561V29.0361H81.1464L82.1456 24.4817C82.2514 23.8687 82.2514 23.4979 81.971 23.1416H84.7786L78.8071 48.1418H78.8081ZM103.839 39.9173C103.824 45.7892 97.4076 45.6146 97.3922 40.2202L97.3696 29.1049H94.9091C95.2346 29.2795 95.4082 29.9059 95.4534 30.6709C95.479 30.8496 95.5314 33.7209 95.5797 36.3806V36.3837C95.6187 38.5751 95.6567 40.6197 95.6731 40.8929C96.0438 46.4628 104.073 47.5062 104.556 40.2726C104.573 39.9707 104.648 38.4221 104.727 36.776V36.7739C104.824 34.7868 104.926 32.659 104.943 32.4116C105.033 31.0797 105.193 29.4602 105.638 29.1049H103.854L103.846 39.9173H103.839Z" fill="#212322"/>
<path fill-rule="evenodd" clip-rule="evenodd" d="M82.5455 43.6187L90.385 28.2119H90.3922L93.971 43.3682C93.971 43.3682 94.4023 44.4731 94.6077 44.6169H92.7387C92.6021 44.1774 90.7105 37.4665 90.7105 37.4665H86.7076C86.7076 37.4665 83.5447 44.4197 83.4533 44.6169H81.8359C82.0023 44.4505 82.3648 43.9206 82.5466 43.6177L82.5455 43.6187ZM89.2041 31.9653L87.0855 36.6645H90.4682L89.2051 31.9653H89.2041Z" fill="#212322"/>
<path d="M139.756 29.1879V42.8069L129.881 29.1869H127.172C127.316 29.3615 128.186 30.4726 128.308 30.6389C128.308 31.0333 127.884 43.3439 127.884 43.3439V43.3665C127.86 43.9231 127.842 44.3554 127.649 44.7816H128.996V31.5868C128.996 31.5868 140.088 45.7664 140.286 46.0457C140.308 45.5015 140.845 31.0795 140.845 31.0795C140.845 30.7539 140.845 29.8462 141.723 29.8462H144.538L144.628 43.7229C144.603 44.185 144.548 44.3565 144.462 44.6307L144.417 44.7744H146.414C146.316 44.4119 146.263 44.2148 146.286 43.7229L146.785 29.839C148.465 29.839 149.517 29.839 151.022 30.2929V29.1797H139.763L139.756 29.1879Z" fill="#212322"/>
</g>
<defs>
<clipPath id="clip0_1214_4024">
<rect width="128" height="28.7536" fill="white" transform="translate(24.8047 22.4229)"/>
</clipPath>
</defs>
</svg>
