<svg width="177" height="73" viewBox="0 0 177 73" fill="none" xmlns="http://www.w3.org/2000/svg">
<g clip-path="url(#clip0_1214_4585)">
<path d="M129.678 43.8323C127.465 46.3963 124.686 48.1328 123.51 47.3403C120.889 45.5732 129.709 35.8831 131.995 37.9808C133.227 39.1116 131.627 41.5735 129.678 43.8323ZM104.692 43.2831C102.837 45.3671 98.7142 48.3795 97.4683 47.5143C94.8933 45.7264 103.943 36.3562 106.468 37.9194C107.801 38.7452 106.742 40.9785 104.692 43.2831ZM78.6072 40.8723C76.8234 39.9337 74.6081 42.53 76.3747 43.6561C74.2609 46.1222 70.846 48.0329 69.8536 47.4629C66.9549 45.7962 74.9305 37.6463 78.0142 37.7243C79.9719 37.7728 79.1207 40.0081 78.6072 40.8723ZM62.7924 35.2582C64.8853 32.4639 72.6879 22.2929 74.2116 22.9187C74.7907 23.1552 71.9288 29.0815 62.7924 35.2582ZM42.8036 33.5913C51.9991 22.9398 62.5493 18.9836 63.7601 19.7771C66.0861 21.3012 53.5778 31.786 42.8036 33.5913ZM145.987 21.7667C145.987 21.7667 133.352 39.2364 133.239 39.3573C133.31 38.6607 133.185 37.8085 132.467 37.3009C128.807 34.712 123.371 41.0737 122.097 42.7691C120.601 44.4598 116.275 47.7755 115.111 47.3329C113.933 46.8855 118.168 41.421 119.049 40.1895C120.962 37.5126 120.211 37.0762 117.383 37.0762C117.831 36.0189 117.893 34.3563 116.786 34.3563C114.735 34.3563 113.793 37.4539 115.154 37.9077C113.843 41.5172 106.51 48.1521 105.2 47.484C104.555 47.155 105.457 45.4954 106.546 44.0394C108.891 40.9034 111.782 37.0762 111.782 37.0762H109.46C109.46 37.0762 108.075 39.0073 107.88 39.2895C107.924 38.91 107.872 38.5256 107.729 38.171C107.587 37.8165 107.358 37.503 107.063 37.2588C104.45 35.2396 98.951 38.7469 95.6016 43.46C94.8207 44.5203 90.1005 47.6829 89.3563 47.2541C88.908 46.9957 89.4832 45.9966 90.1611 45.0289C91.0081 43.8193 92.1198 42.4593 92.9942 41.1956C93.7597 40.0886 94.7601 38.6948 94.7601 37.8626C94.7601 37.2659 94.3761 36.6961 93.2406 36.6961C91.6916 36.6961 88.3381 39.0614 87.8631 39.4848C88.3445 38.9082 94.2934 31.0674 94.2934 31.0674H92.013C86.7913 38.2403 80.2653 42.0488 78.8874 42.6134C79.5616 41.7556 80.7565 39.4802 79.9154 37.9671C79.4799 37.1834 78.6062 36.6868 77.5183 36.6868C75.4718 36.6868 72.4387 37.8259 68.3014 42.7197C67.6184 43.6039 63.2797 47.5774 62.3002 47.2377C61.746 47.0461 62.0357 46.2918 62.8356 45.2149C63.7999 43.9165 64.9486 42.5207 65.7554 41.4514C67.4648 39.1887 67.5131 38.0826 67.1298 37.4253C66.8543 36.9517 66.2458 36.6959 65.3086 36.6959C63.57 36.6959 60.8776 38.0295 60.0591 38.7378C60.0591 38.7378 61.069 37.5271 61.1176 37.4603C61.6321 37.167 67.5526 33.3778 70.5285 30.5671C74.3981 26.916 76.0285 22.8282 74.5929 22.2616C72.1901 21.3132 65.5304 28.4207 57.727 38.5746C56.0932 39.5837 54.4299 40.6072 52.6751 41.4724C53.4021 40.512 55.5212 36.0618 52.3291 34.6094C49.3385 33.2476 43.1815 37.1433 40.7809 41.9857H41.3855C43.7912 37.6022 50.4028 33.814 52.2099 35.6971C53.4065 36.9436 51.6529 41.0828 48.4866 43.8531C44.8946 46.9974 40.7075 47.8168 38.7741 46.935C35.3818 45.3872 38.8369 38.7305 42.1797 34.6241C58.202 32.3624 67.8922 21.8538 64.5995 19.0414C62.5826 17.3176 49.4543 20.4069 39.4498 34.0201C35.6689 34.394 29.3038 32.8105 29.5972 27.1754C29.9942 19.5556 43.5495 17.498 50.5145 18.3081L50.9031 17.851C40.5569 16.5643 28.2031 20.274 28.2031 27.9021C28.2031 32.5778 32.9248 34.8622 38.87 34.8622C34.6035 41.3559 35.16 46.1819 38.1006 47.8002C41.6009 49.7256 47.4168 47.7955 51.8026 42.6298C53.2416 42.0368 54.6841 41.1599 56.4197 40.1738C52.9926 44.3186 49.9472 48.0219 49.9472 48.0219H53.079C53.079 48.0219 56.06 43.4226 59.5539 40.2489C61.2381 38.7175 63.0633 37.7251 64.5062 37.5731C65.367 37.4833 65.3481 38.3732 64.5212 39.4608C63.1607 41.2534 61.7781 43.0643 60.7486 44.4552C59.4997 46.1452 59.366 47.6883 60.5118 48.2189C62.209 49.007 65.1817 46.8058 67.4989 44.7724C67.3148 45.8444 67.638 47.7598 69.5815 48.2282C71.9192 48.7909 74.8194 47.2806 77.8974 43.8937C80.322 43.3391 84.7762 39.9594 84.9195 39.8321C84.881 39.9283 81.1368 44.6928 72.8506 55.5979C72.8496 55.6028 75.207 55.5979 75.207 55.5979C75.207 55.5979 83.5212 44.9513 83.5271 44.9586C86.6027 40.9996 91.2397 37.9671 92.0518 37.9468C92.6738 37.9304 91.9323 39.1502 90.8922 40.5461C89.7403 42.0919 88.5506 43.648 87.8604 44.6615C86.8782 46.1021 86.3588 47.7331 87.9006 48.296C89.8303 49.0009 94.6774 45.3745 95.1394 44.9931C95.1063 45.2763 94.7287 47.505 96.693 48.1998C99.3829 49.1509 102.898 46.0617 102.898 46.0617C102.898 46.0617 102.655 47.8616 104.112 48.2777C107.153 49.1456 113.154 43.5406 116.965 37.8954C118.263 37.9037 117.759 38.5978 117.523 39.0137C117.288 39.4315 115.809 41.3633 114.228 43.5406C112.647 45.7171 111.943 47.7123 113.921 48.296C116.228 48.9759 121.199 45.0345 121.199 45.0345C120.9 46.7262 121.537 47.6827 122.574 48.1558C124.713 49.1299 128.14 46.6327 128.616 46.2431C128.507 46.6053 128.423 48.0256 129.457 48.2977C133.16 49.2711 139.701 40.9959 139.701 40.9959L138.971 40.9372C138.133 41.9705 137.229 42.9494 136.266 43.8678C134.29 45.7768 131.758 47.7414 130.988 47.3036C130.387 46.9617 132.088 44.2905 133.069 42.9128C133.893 41.7583 148.203 21.7667 148.203 21.7667H145.987Z" fill="#212322"/>
</g>
<defs>
<clipPath id="clip0_1214_4585">
<rect width="120" height="38" fill="white" transform="translate(28.2031 17.6001)"/>
</clipPath>
</defs>
</svg>
