<svg width="177" height="73" viewBox="0 0 177 73" fill="none" xmlns="http://www.w3.org/2000/svg">
<g clip-path="url(#clip0_1214_4589)">
<path d="M45.5089 28.6333H43.0755C43.0755 31.0128 42.1357 32.4659 39.5676 33.6164V28.6333H37.119V34.4936C36.5159 34.6717 35.8602 34.8458 35.1459 35.0188H35.1442C34.608 35.1458 34.0913 35.2787 33.5923 35.4178V28.6333H31.1438V36.2225C27.3733 37.6937 25.2031 39.8832 25.2031 43.7801H27.6365C27.6365 41.4008 28.5759 39.9477 31.1438 38.797V43.7801H33.5923V37.9199C34.1957 37.7419 34.8515 37.5674 35.5661 37.3942H35.5679C36.1037 37.2674 36.6203 37.1349 37.119 36.9958V43.7801H39.5676V36.1912C43.3387 34.7199 45.5089 32.5304 45.5089 28.6333Z" fill="#212322"/>
<path d="M54.6328 28.6296V43.7804H57.6569V37.372H65.4331V43.7804H68.4352V28.6322H65.4331V34.2728H57.6569V28.6296H54.6328Z" fill="#212322"/>
<path d="M84.043 28.6333V36.5382C84.043 38.8351 83.802 41.2713 79.9638 41.2713C76.1249 41.2713 75.8523 38.8875 75.8523 36.5382V28.6333H72.8438V36.7261C72.8438 40.3399 73.8733 44.1996 79.9638 44.1996C86.0539 44.1996 87.078 40.2839 87.078 36.7261V28.6333H84.043Z" fill="#212322"/>
<path d="M109.188 28.6323V43.775H119.607V40.711H112.209V28.6323H109.188Z" fill="#212322"/>
<path d="M128.821 41.202C125.882 41.202 123.58 38.9871 123.58 36.1596C123.58 33.3324 125.882 31.1174 128.821 31.1174C131.759 31.1174 134.062 33.3324 134.062 36.1596C134.062 38.9871 131.759 41.202 128.821 41.202ZM128.821 28.2C124.183 28.2 120.547 31.6973 120.547 36.1608C120.547 40.6232 124.183 44.1185 128.821 44.1185C133.461 44.1185 137.095 40.6232 137.095 36.1608C137.095 31.6973 133.461 28.2 128.821 28.2Z" fill="#212322"/>
<path d="M138.32 28.6323V31.7138H143.173V43.7781H146.2V31.7138H150.934V28.6323H138.32Z" fill="#212322"/>
<path d="M99.361 41.0139H94.1132L94.1121 37.2098H99.3788C100.939 37.2098 101.615 37.8067 101.615 39.1657C101.615 40.1837 101.191 41.0139 99.361 41.0139ZM98.894 31.4075C100.578 31.4075 101.096 32.007 101.096 33.0037C101.096 34.0012 100.646 34.7112 98.957 34.7112L94.1121 34.7128V31.4075H98.894ZM102.893 35.8359C103.827 35.1202 104.36 34.0783 104.36 32.8161C104.36 31.5577 103.842 28.6321 99.0436 28.6321H91.1094V43.778H99.5469C102.944 43.778 104.894 42.096 104.894 39.1695C104.894 37.7441 104.201 36.6027 102.893 35.8359Z" fill="#212322"/>
</g>
<defs>
<clipPath id="clip0_1214_4589">
<rect width="126" height="16" fill="white" transform="translate(25.2031 28.2)"/>
</clipPath>
</defs>
</svg>
