<svg width="177" height="72" viewBox="0 0 177 72" fill="none" xmlns="http://www.w3.org/2000/svg">
<path d="M54.6642 37.6552H56.2611V40.6929H50.6178V37.6552H52.1907V35.8782H47.1719V37.6552H48.7688V46.5883H47.1719V48.3533H52.1907V46.5883H50.6058V42.4459H56.2491V46.5883H54.6642V48.3533H59.7071V46.5883H58.0981V37.6552H59.695V35.8782H54.6642M115.215 46.5883H110.268V42.4219H114.518V40.6689H110.256V37.6552H115.251V39.3601H117.004V35.8782H106.75V37.6552H108.419V46.5883H106.738V48.3533H117.028V44.1989H115.215M72.3263 44.1989H70.5132V46.5883H65.5664V42.4219H69.8168V40.6689H65.5664V37.6552H70.5493V39.3601H72.3023V35.8782H62.0604V37.6552H63.7414V46.5883H62.0604V48.3533H72.3383M110.76 35.2658H114.35L113.426 34.1612H109.728M127.018 41.2212C125.769 40.861 124.88 40.9451 123.608 40.5248C122.455 40.1286 122.227 39.4202 122.227 38.9639C122.227 38.4836 122.731 37.2589 124.544 37.2589C126.357 37.2589 127.546 38.4596 127.618 39.5162H129.359V35.8661H127.678V36.6586L127.726 36.8987C127.669 36.7786 127.587 36.6722 127.486 36.5866C126.958 36.1063 125.937 35.578 124.412 35.578C122.551 35.578 120.366 36.7306 120.366 38.9399C120.366 41.1131 121.927 41.8696 123.259 42.2298C124.58 42.578 125.265 42.578 126.381 42.8782C127.486 43.1783 128.206 43.8387 128.206 44.8353C128.206 45.7718 127.63 46.9965 125.277 46.9965C122.935 46.9965 122.011 45.7358 121.735 43.9228H120.066V48.3533H121.795V47.5128L121.723 47.2967C121.723 47.2967 121.783 47.4408 121.987 47.5849L121.999 47.6089C122.875 48.2813 124.028 48.7255 125.505 48.7255C127.15 48.7255 130.031 47.885 130.031 44.8833C130.031 42.7461 128.891 41.7375 127.03 41.2092L127.018 41.2212ZM99.3177 46.5883V48.3533H104.409V46.5883H102.74V37.6552H104.409V35.8782H99.858L96.8443 43.1663L96.7843 43.5265L96.7242 43.1663L93.7105 35.8782H89.1599V37.6552H90.8289V46.5883H89.1599V48.3533H94.2508V46.5883H92.6539V38.3756L92.6659 37.8353L92.81 38.2675L96.292 46.5643H97.2766L100.759 38.2555L100.879 37.8233L100.903 38.3155V46.5883M64.5458 30.6191V31.0274H66.2628C66.0921 30.8995 65.9278 30.7632 65.7705 30.6191H64.5458ZM110.784 30.6311H109.896C109.656 30.6792 109.464 30.8953 109.44 31.0274H110.784V30.6311ZM64.5458 32.2281H110.772V31.3636H81.0553C80.2988 31.7238 79.3263 31.6998 78.5819 31.3636H69.5527C68.7002 31.7238 67.7156 31.7238 66.8631 31.3636H64.5578V32.2161L64.5458 32.2281ZM77.5613 30.6191H70.5853C70.5613 30.6672 70.2371 30.9433 70.105 31.0274H78.0055C77.8417 30.9095 77.6926 30.7724 77.5613 30.6191Z" fill="#212322"/>
<path d="M65.3325 27.4133C65.2444 27.6851 65.1959 27.9682 65.1884 28.2538C65.1884 29.0467 65.5034 29.8072 66.0641 30.3679C66.6248 30.9286 67.3852 31.2435 68.1781 31.2435C68.9711 31.2435 69.7315 30.9286 70.2922 30.3679C70.8529 29.8072 71.1679 29.0467 71.1679 28.2538C71.1679 27.9056 71.0958 27.5694 70.9757 27.2573C71.3239 27.1972 71.6601 27.1372 71.9843 27.0291C72.1404 26.9931 72.1404 26.9211 72.0203 26.885C71.5761 26.753 71.1078 26.6449 70.6275 26.5489C70.3523 26.1548 69.9858 25.8332 69.5592 25.6115C69.1327 25.3899 68.6588 25.2748 68.1781 25.2761C67.7939 25.2761 67.4337 25.3602 67.0975 25.4922V25.4802C67.0266 25.3573 66.9853 25.2194 66.9769 25.0777C66.9686 24.9359 66.9934 24.7942 67.0495 24.6638C67.3497 24.1835 68.0221 23.9794 68.5864 23.9434C68.7665 23.9193 69.2107 23.9434 69.2588 24.0034C69.3788 24.0874 69.5589 24.1235 69.751 24.0514C69.9432 24.1235 69.9912 24.1715 70.2073 24.2435C72.1044 24.8919 74.2176 25.2281 76.3428 24.8439C76.679 25.1561 76.8591 25.7084 77.0872 26.0926C77.1593 26.1886 77.2313 26.0205 78.2879 25.9725H79.4886C79.0973 26.0204 78.7217 26.1552 78.3892 26.3671C78.0568 26.579 77.7761 26.8627 77.5675 27.1972C76.9071 27.4013 76.4029 27.6055 76.2107 27.7255C75.9706 27.8576 75.9346 27.9416 76.2107 28.0137C76.5469 28.0977 76.8711 28.1578 77.1953 28.1938C77.1682 28.3283 77.1521 28.4649 77.1473 28.602C77.1473 29.3042 77.4262 29.9776 77.9227 30.4741C78.4192 30.9706 79.0926 31.2495 79.7948 31.2495C80.497 31.2495 81.1704 30.9706 81.6669 30.4741C82.1634 29.9776 82.4423 29.3042 82.4423 28.602C82.4423 28.1458 82.3222 27.7135 82.1181 27.3413C82.4543 27.2212 82.8025 27.1012 83.1747 26.9451C83.4629 27.0531 83.655 27.2212 83.8711 27.4614C84.0392 27.6535 84.4114 27.5814 84.6396 27.5214C84.9998 27.4254 85.0598 27.1372 85.0598 26.801C85.0598 26.6569 85.0598 26.5008 85.1439 26.3808C85.5641 25.4082 87.2811 25.2761 88.1576 25.06C88.1576 25.06 87.7013 25.6123 87.3771 25.7444C87.3051 27.1612 86.7648 28.3979 86.6927 29.7667C87.113 29.7787 87.089 30.247 87.197 30.5111C87.077 30.7513 86.8728 30.5111 86.6927 30.5952C86.0684 30.235 86.8488 29.6826 86.3325 29.2504C86.5967 28.1097 87.0289 26.9931 86.9929 25.7924C86.8248 25.8044 86.7648 25.9845 86.6927 26.1166C86.5727 27.2693 86.2485 28.3139 85.9483 29.3585C86.0804 29.4305 86.3085 29.5025 86.3085 29.6947C85.9003 29.9468 86.3085 30.343 86.1524 30.6312H82.0701L81.6018 31.0394H87.8814L87.9415 30.7993C87.0169 29.8387 87.3651 28.3979 87.7854 27.3173L88.866 25.8525C89.7545 25.5043 90.3068 24.4116 91.2554 24.0634C91.2554 24.5437 90.667 24.7358 90.3548 25C90.0307 25.7684 88.9861 25.8525 88.83 26.7169C89.2262 27.1852 89.8265 27.4854 90.3188 27.9176C90.8351 28.2298 90.655 28.8782 91.0632 29.2264C91.1353 29.3224 91.0632 29.4665 90.9432 29.5506C90.5109 29.6586 90.5229 29.9468 90.7871 30.1989C90.9552 30.355 91.1473 30.5591 91.1233 30.6312H88.2416C88.2416 30.7633 88.3617 30.8113 88.4818 31.0394H104.451C104.571 30.8113 104.331 30.5591 104.211 30.319C103.082 29.8988 103.082 28.8302 103.01 27.6535C103.034 27.6055 102.95 27.4974 102.962 27.2573C102.403 26.1707 102.205 24.934 102.398 23.7272L102.638 23.247C102.878 22.9108 102.626 22.7307 102.794 22.3825L106.156 21.7341C106.216 21.6981 106.204 21.566 106.144 21.494L105.111 21.6981C104.025 21.2242 103.07 20.4952 102.326 19.5729C102.566 17.9039 102.446 16.5591 102.278 15.6586C102.77 15.2504 103.178 14.8542 103.178 14.8542C103.514 15.0583 103.586 14.9742 103.634 14.8542C103.586 14.7941 103.082 14.578 103.154 14.3619C103.478 14.4459 103.55 14.3499 103.598 14.1698L103.37 14.0857L103.406 13.9656C103.466 13.8456 103.767 13.9656 103.887 13.9296C104.091 13.8096 103.863 13.6174 103.923 13.4494C103.454 13.0771 102.614 13.0531 102.098 12.6929C101.941 12.3927 101.881 12.2727 101.713 12.1526C101.38 12.0278 101.023 11.9786 100.669 12.0085C100.525 12.0566 100.273 12.2967 100.273 12.2967C99.7322 12.4168 99.42 12.2367 99.0478 12.0205C99.0478 12.0205 99.1319 12.4408 99.5401 12.6209C99.1799 12.765 99.0118 13.0771 98.9518 13.4614C98.4475 13.5814 98.4235 14.0857 98.4955 14.3018C98.0753 14.554 98.1113 14.8902 98.2554 15.2264C97.8952 15.4665 97.9432 15.8267 98.0513 16.1029C97.7391 16.295 98.0512 16.8233 98.0993 17.1475C98.9998 16.9554 100.116 18.9485 101.725 19.1886C102.026 17.7718 101.653 17.0754 101.305 16.379C101.569 16.2229 101.845 16.0188 102.122 15.8027C102.29 16.6912 102.398 17.9879 102.218 19.4648L102.194 19.4408C102.086 19.4408 101.99 19.3687 101.905 19.3327C101.917 19.3807 102.11 19.6809 102.074 19.7289C102.074 19.7289 101.545 20.0771 100.513 19.6449C100.236 20.2933 96.6945 21.8782 96.6945 21.8782C96.8145 22.8507 97.2948 23.4991 97.7751 24.0394C98.5315 24.6037 99.336 24.8799 100.297 25.096C100.513 25.6123 101.161 27.3413 101.221 27.6175C101.281 27.9056 101.437 27.9056 101.437 27.9056C101.533 28.0257 101.833 28.578 101.869 28.8422L101.941 29.7787C101.977 29.9948 102.254 29.8387 102.302 30.0188L102.182 30.6432H91.5435C91.6996 29.8988 91.3154 29.2504 91.5195 28.59C91.0873 27.8456 89.9226 27.3293 90.1267 26.3567C90.691 25.5763 92.444 24.8199 92.0478 23.8713C93.6327 23.0669 94.4732 24.4116 95.9861 24.3156C96.5144 24.2916 97.1027 24.2315 97.583 24.0874C96.9659 23.5422 96.4673 22.8761 96.1181 22.1303C92.9976 23.4377 89.7617 24.4507 86.4526 25.1561L86.1885 25.06C84.4888 25.4065 82.8061 25.8312 81.1456 26.3327C80.8823 26.1761 80.5939 26.0664 80.2931 26.0085H80.3771C80.7013 26.0085 81.1936 25.8404 81.5418 25.7204C83.0066 25.1801 83.5469 23.0909 84.2073 21.7581C84.7837 23.8233 86.1164 23.9914 86.8969 23.7392L86.9689 24.3876C86.9689 24.3876 87.6413 24.3636 88.1456 24.1595C88.0975 24.0394 88.0255 23.7032 87.9775 23.283L88.6018 22.9228C88.6379 23.4031 88.6739 23.8833 88.5298 24.1235L90.2708 23.6552C90.607 22.1423 91.5195 20.0531 93.1284 18.5163C92.4477 18.2099 91.696 18.096 90.9551 18.187C90.2141 18.278 89.5123 18.5705 88.926 19.0325C86.8849 19.6809 86.8128 22.4905 86.8849 23.4631C86.5246 23.5351 85.0358 24.0514 84.3394 21.482C84.8282 20.385 85.5208 19.3908 86.3806 18.5523C86.4646 18.4802 86.3806 18.3842 86.2005 18.4802C84.4595 19.6809 83.8111 21.7941 82.8746 23.5832C82.5462 24.1313 82.0704 24.5761 81.5015 24.867C80.9325 25.1578 80.2933 25.2829 79.6567 25.2281C77.7836 25.2041 76.8951 23.259 76.0306 21.9862C74.7219 19.1286 71.348 20.1612 68.8265 19.5488C68.6824 19.4768 68.4063 18.6483 67.998 18.6723C67.7099 18.6964 67.986 18.9845 67.8179 19.0926C67.5058 18.9605 67.2416 18.7324 66.8454 18.7924C66.5932 18.8404 66.5212 19.1046 66.5452 19.3327C66.7373 20.2452 67.7219 20.6535 68.4423 20.9777C68.7305 21.3979 68.6224 22.8387 68.3943 23.331C68.0941 23.8833 66.9054 23.6912 66.6773 24.9519C66.6381 25.191 66.6804 25.4362 66.7974 25.6483C66.3383 25.8893 65.9494 26.245 65.6687 26.6809C65.1644 26.801 64.6721 26.9331 64.2279 27.1012C64.1078 27.1372 64.1078 27.2212 64.2519 27.2453L65.3325 27.4254V27.4133ZM102.614 20.3293C103.046 20.8096 104.079 21.518 104.739 21.7581L102.818 22.1063C103.046 21.2898 102.314 20.9897 102.614 20.3293ZM102.818 13.7735C102.89 13.7375 103.094 13.8216 103.178 13.8336C103.226 13.8456 103.214 13.9536 103.178 14.0497C103.058 14.0857 102.866 14.0137 102.842 13.9416C102.806 13.8696 102.758 13.7976 102.83 13.7735H102.818ZM102.842 14.2538C102.866 14.3979 102.914 14.566 102.998 14.6861C102.998 14.7461 102.638 15.0703 102.242 15.4185C102.134 14.9142 102.038 14.578 102.002 14.4339C102.17 14.3138 102.602 14.1938 102.842 14.2658V14.2538ZM101.005 12.5128C101.077 12.4888 101.221 12.5368 101.269 12.5729C101.305 12.5969 101.269 12.7169 101.269 12.765C101.269 12.801 101.089 12.885 101.089 12.885C101.089 12.885 100.921 12.765 100.921 12.7169H100.909C100.936 12.6467 100.968 12.5785 101.005 12.5128ZM101.233 16.2229C100.958 15.7205 100.833 15.1495 100.873 14.578C101.089 14.578 101.413 14.7101 101.833 14.518C101.833 14.518 101.953 14.9142 102.074 15.5626C101.773 15.8147 101.449 16.0669 101.233 16.2229ZM98.3634 24.1475C97.679 23.8113 98.1113 24.0994 98.3034 23.9554C99.384 24.4476 99.9363 24.3396 100.753 24.2315C100.873 24.3876 101.029 24.5317 101.029 24.7238C100.032 25 99.2639 24.6398 98.3634 24.1595V24.1475ZM102.278 29.5025C102.206 28.9742 102.182 28.602 101.941 28.3499C101.749 27.8216 101.185 26.3687 100.789 25.06C101.029 24.8199 101.221 24.9399 101.389 25.6003C101.533 26.1286 101.713 26.5609 101.857 26.9931C102.038 27.4374 102.182 28.0257 102.314 28.3379C102.314 28.3379 102.434 28.3619 102.518 28.53C102.866 29.4905 102.95 29.6586 102.89 30.1149C102.974 30.4751 103.49 30.1869 103.442 30.6312H102.362H102.842C102.506 30.283 102.734 29.7667 102.278 29.5025ZM81.0975 30.367C80.7974 30.5952 80.4372 30.7272 80.0529 30.7873C80.0169 30.7753 79.9809 30.6912 79.9809 30.6432L79.9089 29.2864L79.9449 29.2504C79.9809 29.2504 80.0649 29.2024 80.113 29.1904H80.173L81.0615 30.2109C81.0975 30.259 81.1216 30.331 81.0975 30.367ZM79.7288 30.7993C79.3686 30.7993 79.0324 30.6792 78.7322 30.5231C78.7082 30.4871 78.7322 30.4031 78.7442 30.355L79.4886 29.2264H79.5487L79.6927 29.2624L79.7408 29.2984L79.8008 30.6552C79.8008 30.7032 79.7648 30.7873 79.7288 30.7993ZM77.8557 27.9777C77.8077 27.9777 77.7356 27.9056 77.7356 27.8576C77.8077 27.6775 77.8917 27.4974 78.0118 27.3413L78.5641 27.1972L79.1644 27.9416H79.1404C78.774 27.9899 78.4053 28.0179 78.0358 28.0257L77.8557 27.9777ZM79.5366 26.4288C79.5847 26.4528 79.6207 26.5248 79.6207 26.5729V26.6809C79.2605 26.753 78.9003 26.825 78.5761 26.9211C78.5521 26.873 78.5401 26.813 78.5521 26.801C78.8402 26.5969 79.1764 26.4768 79.5366 26.4408V26.4288ZM79.3565 27.9176L78.7562 27.1492C79.0444 27.0772 79.3445 27.0051 79.6327 26.9571L79.6807 27.8456L79.3565 27.9176ZM79.2965 28.1578V28.1698C79.2655 28.2118 79.2374 28.2559 79.2125 28.3019L79.1644 28.3379L78.7202 28.2178L79.2965 28.1458V28.1578ZM80.101 27.9897H80.0529H80.113H80.101ZM79.8608 27.7976L79.8128 26.9211C80.173 26.849 80.5332 26.801 80.8934 26.753C80.8831 26.7875 80.8668 26.82 80.8454 26.849L80.3051 27.6895L79.8488 27.8096L79.8608 27.7976ZM81.0015 26.9571C81.0255 26.9091 81.0975 26.861 81.1336 26.873C81.2896 26.9931 81.4337 27.1372 81.5538 27.2933C81.2296 27.4133 80.8934 27.5094 80.5692 27.6055L81.0015 26.9451V26.9571ZM79.8008 26.6449V26.5609C79.8008 26.5128 79.8248 26.4288 79.8728 26.4168C80.101 26.4168 80.3171 26.4648 80.5212 26.5368L79.8008 26.6449ZM76.619 27.9056C76.4989 27.8696 76.5349 27.8336 76.607 27.8096C76.8471 27.7135 77.0993 27.6175 77.3874 27.5334C77.3154 27.6775 77.2673 27.8456 77.2193 28.0137C77.0163 27.9959 76.8154 27.9598 76.619 27.9056ZM77.6396 28.2538H78.1799L79.1164 28.506L79.1284 28.554C79.1284 28.59 79.1284 28.6861 79.1524 28.7341L79.1284 28.7701L77.8797 29.3104C77.8317 29.3344 77.7476 29.3344 77.7236 29.3104C77.6463 29.0863 77.6057 28.8511 77.6035 28.614C77.6035 28.494 77.6035 28.3739 77.6276 28.2538H77.6396ZM77.8437 29.5866C77.8437 29.5506 77.9037 29.4905 77.9517 29.4665L79.2005 28.9502L79.2485 28.9742L79.3325 29.0703C79.3325 29.0823 79.3565 29.1183 79.3445 29.1303L78.6001 30.271C78.5761 30.307 78.492 30.355 78.456 30.343C78.1988 30.1438 77.9895 29.8895 77.8437 29.5986V29.5866ZM81.3497 30.1629C81.3257 30.1869 81.2296 30.1389 81.1936 30.1029L80.3171 29.0703V29.0223C80.34 28.9838 80.3601 28.9436 80.3771 28.9022C80.3891 28.9022 80.4131 28.8662 80.4372 28.8782L81.7459 29.2384C81.7819 29.2384 81.854 29.2864 81.866 29.3344C81.7459 29.6466 81.5898 29.9348 81.3617 30.1629H81.3497ZM81.95 29.0343C81.938 29.0703 81.83 29.0823 81.7819 29.0703L80.4852 28.7101L80.4612 28.6621C80.4608 28.6098 80.4568 28.5577 80.4492 28.506C80.4492 28.494 80.4492 28.4579 80.4732 28.4459L81.7339 27.9657C81.7819 27.9537 81.866 27.9657 81.902 27.9897C82.0009 28.3291 82.0174 28.6872 81.95 29.0343ZM81.7819 27.6775C81.7819 27.7255 81.7219 27.7976 81.6739 27.7976L81.7579 27.7736L80.4131 28.2898L80.3651 28.2658C80.3355 28.224 80.3034 28.1839 80.2691 28.1458L80.2451 28.0857L80.3651 27.9056C80.7734 27.7976 81.2176 27.6655 81.6859 27.4974L81.7819 27.6775ZM85.2999 25.7564C84.7236 26.1646 84.9998 26.6689 84.6276 26.765C84.5075 26.753 83.7631 26.885 83.643 26.9331C83.4029 26.7049 83.1507 26.5128 82.7665 26.4048C83.4869 26.1166 84.6396 25.8044 85.2999 25.7444V25.7564ZM82.9226 26.801C82.8025 26.861 82.4543 26.9931 82.0101 27.1492C81.8969 26.9781 81.7639 26.8209 81.6138 26.6809C82.1782 26.6569 82.6464 26.6809 82.9226 26.801ZM89.2502 19.3807C88.3617 20.2693 88.4698 21.602 88.5778 22.6466C88.3737 22.8027 88.1216 22.9228 87.9535 23.0068C87.8574 21.7341 88.0015 19.813 89.2502 19.3807ZM67.0735 19.837C66.9174 19.6329 66.7013 19.3327 66.8694 19.1166C66.9895 18.9605 67.2536 19.0806 67.3977 19.1526C67.5178 19.2247 68.5143 19.753 68.7905 19.825C70.7956 20.3293 73.3291 19.5849 74.914 21.0257C74.998 21.1097 75.0461 21.1698 75.0341 21.2658C72.7047 19.6809 69.1867 22.0343 67.0735 19.825V19.837ZM68.9586 22.3945C69.1267 22.5025 69.1987 22.7547 69.3668 22.9108C69.667 23.4031 70.2313 23.5711 70.5315 24.0034C70.4308 24.0105 70.3296 24.0024 70.2313 23.9794C70.0392 23.9434 69.9552 23.8833 69.7991 23.8113C69.703 23.6792 69.4869 23.6312 69.3188 23.7152C69.1867 23.7392 68.8145 23.7152 68.5624 23.6552C68.6104 23.259 68.9946 22.8747 68.9586 22.3945ZM66.6172 26.6809L67.2296 27.3653C66.7853 27.3653 66.3651 27.3413 65.9569 27.3173C65.9329 27.2693 65.9088 27.2332 65.9209 27.1972C65.9929 27.0411 66.0889 26.885 66.197 26.753L66.6172 26.6929V26.6809ZM70.2433 26.849L70.4354 27.1972C70.1353 27.2453 69.8111 27.2693 69.4749 27.3053L69.9552 26.8971C70.0752 26.801 70.2073 26.813 70.2433 26.849ZM69.8231 26.753L69.1387 27.3293L68.6224 27.3533L68.8986 26.5609C69.2347 26.5729 69.5709 26.5969 69.8831 26.6329C69.8711 26.6689 69.8591 26.7169 69.8231 26.753ZM69.655 30.283C69.4148 30.4631 69.1387 30.5952 68.8505 30.6672C68.7905 30.6672 68.6944 30.5832 68.6704 30.4631L68.4063 29.0223L68.4183 28.9862C68.4691 28.9683 68.5175 28.9441 68.5624 28.9142H68.6104L69.595 29.9948C69.691 30.1149 69.691 30.235 69.655 30.283ZM67.5778 27.7615C67.5898 27.7615 67.6018 27.7856 67.5778 27.8096L67.5178 27.8936C67.5178 27.9176 67.4937 27.9176 67.4697 27.9056L66.3891 27.5214L67.3977 27.5454L67.5778 27.7495V27.7615ZM68.6584 27.7015C68.6259 27.6692 68.5897 27.641 68.5504 27.6175C68.5383 27.6175 68.5263 27.5934 68.5383 27.5694L68.5624 27.5214L68.9346 27.4974L68.7064 27.6895C68.7064 27.7015 68.6824 27.7135 68.6584 27.6895V27.7015ZM68.4063 27.3533H68.1181L67.962 26.5609L68.1061 26.5489H68.6944L68.4063 27.3533ZM67.7699 26.5729L67.914 27.3653H67.4938L66.8454 26.6449L67.7699 26.5729ZM67.926 27.5334V27.5574C67.8755 27.5762 67.8272 27.6004 67.7819 27.6295H67.7339L67.6618 27.5454H67.938L67.926 27.5334ZM65.8608 27.2933L65.8848 27.2693C65.8781 27.282 65.87 27.2941 65.8608 27.3053V27.2933ZM65.7528 27.6655C65.7768 27.6175 65.9088 27.5694 66.0289 27.6055L67.4097 28.0857L67.4337 28.1338C67.4253 28.1813 67.4213 28.2295 67.4217 28.2778L67.3857 28.3139L65.9449 28.578C65.8128 28.602 65.7047 28.53 65.6927 28.482L65.6687 28.2658C65.6712 28.063 65.6995 27.8613 65.7528 27.6655ZM65.7768 28.9622C65.7768 28.9022 65.8608 28.7941 65.9929 28.7701L67.4217 28.506C67.4295 28.5055 67.4372 28.5076 67.4437 28.512C67.4502 28.5163 67.4551 28.5226 67.4577 28.53L67.5058 28.638V28.6861L66.3531 29.5986C66.233 29.6826 66.113 29.6706 66.0769 29.6346C65.9457 29.4258 65.8446 29.1994 65.7768 28.9622ZM66.3891 30.0188C66.3651 29.9828 66.3891 29.8267 66.4852 29.7427L67.6138 28.8422C67.6258 28.8182 67.6498 28.8182 67.6618 28.8422L67.7819 28.9262C67.8059 28.9262 67.8179 28.9502 67.8059 28.9742L67.3257 30.343C67.2656 30.4871 67.1576 30.5351 67.0975 30.5231C66.8343 30.3967 66.5947 30.2261 66.3891 30.0188ZM67.2296 30.5832C67.2133 30.5805 67.1972 30.5765 67.1816 30.5712L67.2176 30.5832H67.2296ZM67.5658 30.7032C67.5178 30.6672 67.4457 30.5471 67.4938 30.4151L67.986 29.0463C67.986 29.0223 68.01 29.0103 68.0341 29.0223H68.1661C68.1901 29.0223 68.2022 29.0463 68.2022 29.0703L68.4663 30.4991C68.4903 30.6432 68.4303 30.7272 68.3823 30.7513L68.1781 30.7753C67.962 30.7753 67.7579 30.7393 67.5658 30.6912V30.7032ZM69.9311 30.0549C69.9404 30.0437 69.9485 30.0317 69.9552 30.0188L69.9311 30.0549ZM70.0152 29.9588C69.9672 29.9828 69.8351 29.9708 69.739 29.8748L68.7785 28.7941C68.7545 28.7821 68.7545 28.7581 68.7665 28.7461C68.7904 28.7167 68.8106 28.6844 68.8265 28.6501C68.8265 28.626 68.8625 28.626 68.8745 28.638L70.2673 29.1303C70.4114 29.1904 70.4474 29.2984 70.4354 29.3465C70.328 29.5646 70.1906 29.7667 70.0272 29.9468L70.0152 29.9588ZM70.4354 29.3224L70.5075 29.1784C70.4851 29.2272 70.4611 29.2752 70.4354 29.3224ZM70.5915 28.8782C70.5795 28.9262 70.4474 28.9983 70.3274 28.9502L68.9346 28.4459L68.9106 28.4099L68.9226 28.2898L68.9586 28.2538L70.4234 28.0257C70.5675 28.0137 70.6636 28.0737 70.6636 28.1218L70.6756 28.2658C70.6756 28.482 70.6516 28.6741 70.6035 28.8662L70.5915 28.8782ZM70.5915 27.6535C70.5915 27.7015 70.5075 27.8096 70.3874 27.8336L68.9346 28.0617C68.9299 28.0636 68.9248 28.0644 68.9197 28.0642C68.9147 28.064 68.9097 28.0627 68.9052 28.0604C68.9007 28.0582 68.8967 28.055 68.8934 28.0511C68.8902 28.0471 68.8879 28.0426 68.8865 28.0377C68.8715 27.9878 68.8514 27.9395 68.8265 27.8936V27.8456L69.2588 27.4854C69.679 27.4494 70.0872 27.4013 70.4955 27.3413L70.5915 27.6535ZM71.3359 26.8971C71.432 26.9211 71.456 26.9931 71.3359 27.0171L70.9277 27.1132L70.7356 26.753C70.9517 26.789 71.1679 26.837 71.3359 26.8971ZM68.9706 26.3687L69.0306 26.1886C69.0787 26.0566 69.1987 26.0085 69.2468 26.0205C69.4869 26.1286 69.691 26.2727 69.8831 26.4528C69.5761 26.4131 69.2677 26.3851 68.9586 26.3687H68.9706ZM68.7785 25.8525C68.8145 25.8765 68.8745 26.0085 68.8385 26.1286L68.7545 26.3687C68.5383 26.3447 68.3222 26.3327 68.0941 26.3447H67.926L67.866 26.0446C67.8419 25.9005 67.914 25.8044 67.962 25.7924L68.1781 25.7684C68.3823 25.7684 68.5864 25.8044 68.7785 25.8525ZM67.4938 25.8765C67.5418 25.8765 67.6498 25.9605 67.6739 26.0806L67.7099 26.2847C67.5875 26.1704 67.475 26.0459 67.3737 25.9125L67.4938 25.8765ZM67.4097 26.3928L66.7133 26.4768C66.6653 26.3808 66.6653 26.2967 66.6893 26.2607L67.0495 26.0446C67.1696 26.1646 67.2776 26.2847 67.4097 26.3928ZM64.8883 27.0651L65.5486 26.873C65.4841 26.9972 65.4279 27.1256 65.3805 27.2573L64.8883 27.1972C64.7682 27.1732 64.7922 27.1012 64.8883 27.0772V27.0651ZM108.953 19.9571C108.905 19.9931 108.881 20.0531 108.929 20.0651C109.002 20.0771 109.05 20.1012 109.134 20.1852C109.182 20.2092 109.17 20.1372 109.158 20.0892C109.11 19.9691 109.014 19.9091 108.953 19.9571Z" fill="#212322"/>
<path d="M107.157 30.6316H104.792C104.768 30.7877 104.948 30.9078 105.056 31.0279H107.638L108.358 30.6797C108.478 30.3675 108.238 30.0913 108.238 29.8392C108.286 29.0827 107.866 28.3383 107.638 27.6539C107.782 27.4978 107.962 27.1496 108.202 27.2457C108.754 28.0982 108.862 29.2028 108.766 30.2954C108.706 30.5596 108.25 30.8117 108.262 31.0639C108.262 31.1479 108.874 31.1119 109.127 30.8958C109.163 30.7277 109.487 30.5116 109.607 30.4875C109.715 30.1514 109.535 30.1634 109.559 29.9592C109.597 29.3642 109.557 28.7667 109.439 28.1822L109.391 28.1582C109.271 27.858 109.547 27.4138 109.667 27.1256L110.483 27.0536C110.387 26.3332 110.123 25.5647 109.967 24.8083C110.063 24.6402 110.243 24.4961 110.411 24.4001C111.276 23.8237 110.519 22.8992 110.483 22.1908C110.339 21.8186 109.823 21.5304 109.787 21.1222C109.883 21.2062 109.967 21.1702 109.991 21.1822C110.231 21.0021 110.231 20.762 110.111 20.4618C110.471 20.0055 110.711 19.8014 110.784 19.6573C110.759 19.2731 110.147 18.7208 109.799 18.7208C109.595 18.8409 109.451 19.069 109.067 19.3572C109.055 19.3812 108.61 19.2011 108.466 19.3572C108.346 19.4532 108.382 19.8014 108.622 19.9935C108.598 20.0896 108.574 20.1136 108.514 20.2337C108.49 20.2937 108.478 20.3537 108.514 20.3778C108.598 20.4498 108.622 20.5699 108.562 20.738C108.502 20.9181 108.706 21.0501 108.778 21.0862L108.838 21.1462C108.862 21.3383 108.178 21.7105 108.178 21.8666C108.13 22.3349 107.83 22.2868 107.554 23.8357C107.59 24.2079 107.578 24.5441 107.554 24.8443C107.193 25.7688 106.917 26.2971 106.677 26.9695C106.485 27.5218 107.59 29.1308 107.602 30.2114C107.362 30.5716 107.169 30.5236 107.157 30.6316ZM108.958 28.9747C108.888 28.8123 108.859 28.6348 108.874 28.4584C108.97 28.3623 109.151 28.4344 109.235 28.4224C109.355 28.9387 109.379 29.0107 108.946 28.9747H108.958ZM108.958 21.3383C108.994 21.3143 109.019 21.2423 109.043 21.2182C109.403 20.9781 109.151 21.1462 108.79 20.9541C108.67 20.8941 108.67 20.786 108.682 20.6179C108.706 20.4258 108.622 20.3778 108.586 20.3177L108.682 20.1256C108.766 20.0055 108.838 19.7414 108.886 19.6694C109.487 19.6934 109.355 19.9575 109.367 20.0055C109.415 20.1376 109.667 20.4138 109.787 20.5098C109.751 20.87 109.463 20.6539 109.595 20.9901C109.559 21.6265 108.814 21.5424 108.49 22.0707C108.454 21.5424 108.91 21.5424 108.958 21.3383ZM108.274 24.0519C108.442 24.2079 108.61 24.3881 108.73 24.4121C108.826 24.6402 108.55 24.6642 108.454 24.7723C108.238 24.8083 108.154 24.5682 108.022 24.6762C107.986 24.7002 107.854 24.6762 107.854 24.6402C107.926 24.4481 108.13 24.1719 108.274 24.0519ZM106.845 27.2697C106.761 26.8375 107.35 26.1531 107.734 24.8203C107.89 24.7723 107.974 25.1325 108.214 24.9884C108.55 25.0004 108.406 25.9129 108.73 25.3366C108.73 25.0724 108.706 24.7963 108.91 24.6522C109.127 24.6042 109.271 24.7242 109.283 24.9164L108.946 25.4447C109.583 25.4687 108.742 26.4893 109.583 26.3092C109.559 26.6934 109.355 27.762 109.211 27.714C109.091 27.1136 108.994 27.3537 108.994 27.5339C109.019 27.774 109.019 27.9541 109.151 28.1342C109.115 28.1942 108.934 28.1942 108.886 28.1942C108.406 27.5218 108.43 26.5853 108.13 25.8529C108.07 25.8529 108.01 25.9129 108.01 25.973C107.974 26.4172 107.806 27.0536 107.446 27.2697C107.205 27.3898 107.938 27.3177 107.338 27.5939C107.578 27.75 107.362 27.9541 107.109 27.9541C106.989 27.6899 106.893 27.4738 106.857 27.2697H106.845ZM107.482 28.7465C107.372 28.5844 107.28 28.4114 107.205 28.2303L107.566 28.0862C107.662 28.2062 107.77 28.4224 107.782 28.6265C107.71 28.6625 107.602 28.7465 107.482 28.7465ZM96.2672 21.5905C96.2192 20.882 96.5073 20.2817 96.1832 19.5253C96.1832 19.2131 96.3993 18.973 96.3512 18.6848L95.8109 18.8049C95.7269 19.4052 95.6308 19.6093 95.7149 20.1616C95.847 20.81 95.919 21.3983 96.2672 21.6025V21.5905ZM90.732 23.5716C92.7732 22.9953 94.202 22.503 95.895 21.7826C95.1866 20.2697 95.3427 19.8374 95.4147 18.8649C95.4147 18.8649 94.5382 18.8769 93.5416 18.6248C92.341 19.3812 90.9602 22.1308 90.732 23.5716ZM97.7681 24.0038C97.66 23.8958 97.8281 24.0759 97.7681 24.0038V24.0038ZM100.241 19.4172C99.377 18.8169 98.7046 17.4361 97.7681 17.5321C97.672 16.5115 97.2278 14.7826 98.6326 12.9575C98.8247 12.8735 99.1128 12.8374 99.2329 12.7054C98.6566 12.6453 97.9001 13.0055 97.3478 12.6934C97.3478 12.6934 97.6 13.1376 97.9001 13.1976C97.708 13.4618 97.3238 13.6539 97.5519 14.1102C97.0837 14.3983 97.2638 14.8066 97.4079 15.0347C97.1677 15.2748 97.0236 15.7191 97.3358 15.9832C96.9516 16.3915 97.4319 16.7397 97.5399 16.8838C97.3478 17.292 97.5399 17.6042 97.5399 17.6042C97.5399 17.9043 96.9996 18.3246 96.8195 18.4687C96.5794 19.1651 96.6754 20.5699 96.6994 21.4944C97.9962 20.882 99.2569 20.2937 100.241 19.4172ZM85.473 44.0313C85.473 43.3109 84.9927 42.4464 84.3084 42.0382C84.1447 41.9369 83.9597 41.8752 83.768 41.858C83.9361 41.8701 84.1523 41.858 84.3684 41.774C84.3724 41.7737 84.3764 41.7737 84.3804 41.774C85.0648 41.4618 85.8933 40.5853 85.8933 39.0965C85.8933 38.0159 85.413 37.1153 84.6205 36.539C83.8723 36.0549 82.9886 35.8234 82.0991 35.8786H75.0991V37.6556H76.672V46.6008H75.1111V48.3778H80.0699V46.6008H78.509V42.6625H81.943C83.1317 42.6625 83.5879 43.455 83.612 44.1153L83.696 48.3658H87.118V46.6008H85.521L85.473 44.0433V44.0313ZM82.3152 40.9455H78.509V37.6556H82.1111C82.4833 37.6556 82.9516 37.6436 83.3118 37.8237C83.744 38.0519 84.1643 38.5321 84.1643 39.3246C84.1643 40.2371 83.3238 40.9455 82.3152 40.9455ZM74.4867 52.7723H72.1094V59.9044H73.166V56.8186H74.3427C76.0476 56.8186 76.8161 55.9421 76.8161 54.8135C76.8161 53.6848 76.0957 52.7723 74.4867 52.7723ZM74.4387 55.8941H73.178V53.6848H74.4867C75.4473 53.6848 75.7355 54.2491 75.7355 54.7654C75.7355 55.4859 75.2312 55.8941 74.4387 55.8941ZM80.9224 52.7243L77.7646 59.9044H78.9053L79.7698 57.8032H82.8915L83.7921 59.9044H84.9567L81.6668 52.7243H80.9224ZM80.19 56.8787L81.2826 54.057L82.4713 56.8787H80.19ZM95.7869 52.7723H96.8435V59.9044H95.7869V52.7723ZM101.238 54.4413C101.238 53.937 101.742 53.6008 102.463 53.6008C102.991 53.6008 103.627 53.7569 104.288 54.3332V53.1685C103.768 52.8488 103.169 52.6785 102.559 52.6762C101.13 52.6762 100.193 53.4087 100.193 54.5733C100.193 56.5304 103.555 56.6985 103.555 58.1754C103.555 58.5716 103.159 59.0759 102.295 59.0759C101.526 59.0759 100.818 58.7157 100.241 58.0433V59.3401C100.89 59.7843 101.562 60.0004 102.415 60.0004C103.675 60.0004 104.6 59.184 104.6 58.0673C104.6 55.786 101.238 55.81 101.238 54.4413ZM92.0528 58.4876C91.4765 57.5991 91.0562 56.9387 90.3718 56.5184C90.7432 56.4017 91.0667 56.1679 91.294 55.8518C91.5213 55.5358 91.6401 55.1546 91.6325 54.7654C91.6325 53.5287 90.684 52.7723 89.1711 52.7723H87.2741V59.9044H88.3547V56.8066H88.8109C89.3512 56.8066 89.8075 56.9747 90.7921 58.4395L91.7406 59.9044H93.0013L92.449 59.0759C92.3111 58.8838 92.1789 58.6876 92.0528 58.4876ZM89.0511 55.8821H88.3547V53.6488H89.0511C90.0957 53.6488 90.5159 54.057 90.5279 54.7294C90.5279 55.3298 90.2037 55.8821 89.0511 55.8821Z" fill="#212322"/>
</svg>
