<svg width="177" height="72" viewBox="0 0 177 72" fill="none" xmlns="http://www.w3.org/2000/svg">
<g clip-path="url(#clip0_1214_4031)">
<path fill-rule="evenodd" clip-rule="evenodd" d="M80.4032 28.1603L84.2849 37.5238L88.1666 28.1603H90.9385L84.5829 43.5173L84.2849 43.8164L83.9858 43.5173L77.6302 28.1603H80.4032ZM66.4551 28.1603C67.9484 28.1603 69.3643 28.9406 70.1445 30.0798L68.6523 31.5731H68.1823C67.8731 30.9119 67.1926 30.5071 66.4551 30.5071C65.5772 30.5071 64.7543 31.2293 64.7055 32.1489C64.6699 32.8406 64.9872 33.2729 65.5599 33.6421C66.1764 34.0399 66.4286 34.2057 67.2658 34.6655C68.1782 35.167 70.4863 36.1506 70.4863 38.7394C70.4863 41.2916 68.3532 43.6658 65.6016 43.6658C65.2487 43.6658 64.6088 43.6261 64.1307 43.5163C62.7829 43.1898 61.9651 42.6801 61.0811 41.6395L63.0006 39.6773L63.6618 40.2317C63.9598 40.4656 64.6149 40.9366 65.2385 41.021C66.5059 41.193 67.3563 40.3548 67.5211 39.5278C67.6523 38.8747 67.4865 37.9002 66.4337 37.3957C66.4337 37.3957 64.5356 36.3408 63.7035 35.8597C62.8562 35.3694 61.9549 34.0307 61.9549 32.4266C61.9549 31.2324 62.5022 30.0758 63.3841 29.2701C64.0656 28.6456 65.0005 28.1603 66.4551 28.1603ZM152.659 27.8623L162.598 37.8005V28.4594L162.897 28.1603H164.859L165.158 28.4594V43.5163H164.688L154.921 33.7489V43.2182L154.621 43.5163H152.659L152.361 43.2182V28.1603L152.659 27.8623ZM123.356 28.1603V30.4216L123.057 30.7197H120.797V43.5163H118.238V30.7197H115.678V28.4594L115.977 28.1603H123.356ZM132.74 28.1603V30.4216L132.441 30.7197H130.181V43.5163H127.621V30.7197H125.062V28.4594L125.361 28.1603H132.74ZM14.1609 28.1603V40.957H19.2795V43.5163H11.6016V28.4594L11.8996 28.1603H14.1609ZM28.6634 28.1603C30.6997 28.1603 32.6526 28.9693 34.0925 30.4092C35.5324 31.8491 36.3413 33.802 36.3413 35.8383C36.3413 37.8746 35.5324 39.8276 34.0925 41.2675C32.6526 42.7074 30.6997 43.5163 28.6634 43.5163C26.627 43.5163 24.6741 42.7074 23.2342 41.2675C21.7943 39.8276 20.9854 37.8746 20.9854 35.8383C20.9854 33.802 21.7943 31.8491 23.2342 30.4092C24.6741 28.9693 26.627 28.1603 28.6634 28.1603ZM142.124 28.1603C144.16 28.1603 146.113 28.9693 147.553 30.4092C148.993 31.8491 149.802 33.802 149.802 35.8383C149.802 37.8746 148.993 39.8276 147.553 41.2675C146.113 42.7074 144.16 43.5163 142.124 43.5163C140.088 43.5163 138.135 42.7074 136.695 41.2675C135.255 39.8276 134.446 37.8746 134.446 35.8383C134.446 33.802 135.255 31.8491 136.695 30.4092C138.135 28.9693 140.088 28.1603 142.124 28.1603ZM42.0144 28.1603L42.3124 28.4594V38.3976C42.3124 39.0764 42.5821 39.7274 43.062 40.2074C43.542 40.6873 44.193 40.957 44.8717 40.957C45.5505 40.957 46.2015 40.6873 46.6814 40.2074C47.1614 39.7274 47.4311 39.0764 47.4311 38.3976V28.4594L47.7301 28.1603H49.6923L49.9904 28.4594V38.3976C49.9904 39.7552 49.4511 41.0571 48.4912 42.0171C47.5312 42.977 46.2293 43.5163 44.8717 43.5163C43.5142 43.5163 42.2122 42.977 41.2523 42.0171C40.2924 41.0571 39.7531 39.7552 39.7531 38.3976V28.4594L40.0522 28.1603H42.0144ZM57.6683 28.1603V43.2182L57.3693 43.5163H55.109V28.4594L55.4071 28.1603H57.6683ZM95.7591 28.1603L96.0572 28.4594V38.3976C96.0572 39.0764 96.3268 39.7274 96.8068 40.2074C97.2867 40.6873 97.9377 40.957 98.6165 40.957C99.2953 40.957 99.9462 40.6873 100.426 40.2074C100.906 39.7274 101.176 39.0764 101.176 38.3976V28.4594L101.475 28.1603H103.436L103.735 28.4594V38.3976C103.735 39.7552 103.196 41.0571 102.236 42.0171C101.276 42.977 99.974 43.5163 98.6165 43.5163C97.2589 43.5163 95.957 42.977 94.9971 42.0171C94.0371 41.0571 93.4978 39.7552 93.4978 38.3976V28.4594L93.7969 28.1603H95.7591ZM111.413 28.1603V43.2182L111.114 43.5163H108.854V28.4594L109.152 28.1603H111.413ZM28.6624 30.7207C27.9901 30.7208 27.3244 30.8532 26.7034 31.1106C26.0823 31.3679 25.518 31.745 25.0427 32.2204C24.0828 33.1805 23.5436 34.4827 23.5437 35.8404C23.5438 37.198 24.0833 38.5001 25.0434 39.46C26.0036 40.4199 27.3057 40.9591 28.6634 40.959C30.0211 40.959 31.3231 40.4197 32.2832 39.4596C33.2432 38.4996 33.7825 37.1975 33.7825 35.8398C33.7825 34.4822 33.2432 33.1801 32.2832 32.2201C31.3231 31.26 30.0211 30.7207 28.6634 30.7207H28.6624ZM142.124 30.7207C140.766 30.7207 139.464 31.26 138.504 32.2201C137.544 33.1801 137.005 34.4822 137.005 35.8398C137.005 37.1975 137.544 38.4996 138.504 39.4596C139.464 40.4197 140.766 40.959 142.124 40.959C143.482 40.959 144.784 40.4197 145.744 39.4596C146.704 38.4996 147.243 37.1975 147.243 35.8398C147.243 34.4822 146.704 33.1801 145.744 32.2201C144.784 31.26 143.482 30.7207 142.124 30.7207Z" fill="#212322"/>
</g>
<defs>
<clipPath id="clip0_1214_4031">
<rect width="153.6" height="16.2755" fill="white" transform="translate(11.6016 27.8623)"/>
</clipPath>
</defs>
</svg>
