<svg width="177" height="72" viewBox="0 0 177 72" fill="none" xmlns="http://www.w3.org/2000/svg">
<g clip-path="url(#clip0_1214_4513)">
<path d="M71.1302 49.2947C70.7902 50.3599 70.7322 50.5634 71.9168 50.5634C73.0327 50.5634 73.45 50.515 74.0425 49.5564C74.1396 49.5272 74.2366 49.5465 74.2564 49.6146C74.1494 49.944 73.8094 50.631 73.6351 50.8927C73.2565 50.8811 72.8778 50.8747 72.499 50.8735C72.1109 50.8636 71.7317 50.8636 71.3921 50.8636H70.2659C69.8679 50.8636 69.5476 50.8735 69.2368 50.8927C69.159 50.8443 69.159 50.7086 69.2273 50.6507L69.46 50.6216C69.9263 50.5539 70.0233 50.4567 70.3342 49.469L71.4698 45.8663C71.7609 44.9557 71.7807 44.8007 71.2466 44.7236L71.0134 44.6846C70.9555 44.607 70.9653 44.4815 71.0718 44.4426C71.4505 44.452 71.7807 44.4717 72.1783 44.4717C72.596 44.4717 72.897 44.452 73.4015 44.4426C73.4698 44.4815 73.4895 44.6366 73.4015 44.6846L73.1005 44.7236C72.5475 44.7912 72.499 44.9073 72.198 45.8663L71.1302 49.2947ZM78.2305 47.4935C78.2305 48.2294 77.2696 48.7134 75.8716 49.1011C75.8038 49.266 75.7355 49.5756 75.7355 49.9633C75.7355 50.2927 75.9394 50.5154 76.2013 50.5154C76.5513 50.5154 76.7938 50.3214 77.2211 49.9534C77.3082 49.9534 77.3666 50.031 77.3473 50.1183C76.7552 50.8443 76.2013 50.9994 75.7939 50.9994C75.2112 50.9994 75.0073 50.4571 75.0073 49.9825C75.0073 49.3722 75.3959 48.1909 76.4542 47.377C76.9587 46.9898 77.3374 46.9123 77.6191 46.9123C78.0076 46.9123 78.2305 47.2417 78.2305 47.4935ZM76.6869 47.6773C76.3082 48.0842 76.0854 48.5297 75.9691 48.8106C76.6097 48.617 76.9106 48.4333 77.2696 48.0941C77.5706 47.8131 77.6483 47.5222 77.6483 47.4353C77.6483 47.3385 77.5993 47.2126 77.425 47.2126C77.2889 47.2126 77.0364 47.2995 76.6869 47.6773ZM83.5545 45.6633C83.7876 44.9176 83.7005 44.8302 83.263 44.8011L82.9427 44.7912C82.8753 44.7433 82.8941 44.6075 82.9427 44.5591C83.4831 44.4822 84.0283 44.4434 84.5742 44.443C85.0886 44.443 85.6807 44.4815 86.1465 44.6752C86.6227 44.8786 86.9717 45.247 86.9717 45.8959C86.9717 46.8738 85.9915 47.3291 85.4574 47.3676C85.302 47.3775 85.3698 47.4451 85.4574 47.4743C85.7539 47.5762 86.0109 47.7685 86.1921 48.0239C86.3733 48.2794 86.4695 48.5851 86.4672 48.898C86.4672 49.2561 86.3603 49.7504 85.943 50.1569C85.5351 50.5638 84.8168 50.8932 83.6129 50.8932C83.0882 50.8932 82.7297 50.864 82.3218 50.864C81.9883 50.8623 81.6547 50.872 81.3218 50.8932C81.2441 50.8443 81.2441 50.709 81.3124 50.6507L81.5065 50.6216C81.9723 50.5539 82.0693 50.4571 82.3802 49.4694L83.5545 45.6633ZM83.0208 49.7504C82.8168 50.389 83.0981 50.5929 83.7975 50.5929C84.6129 50.5929 85.6326 50.0888 85.6326 48.7815C85.6326 47.9587 84.9233 47.5612 84.1955 47.5612C83.7292 47.5612 83.6906 47.5711 83.5936 47.8906L83.0208 49.7504ZM83.8748 46.9898C83.8069 47.2224 83.8168 47.2708 84.2346 47.2708C84.9331 47.2708 86.1757 46.932 86.1757 45.7117C86.1757 45.1497 85.7485 44.7433 84.9525 44.7433C84.5841 44.7433 84.5643 44.7334 84.4772 45.0529L83.8748 46.9898ZM88.9481 47.8323L88.5307 49.0531H88.5788C88.8708 48.5104 89.3461 47.7355 89.599 47.4164C89.8218 47.1252 90.0644 46.9123 90.307 46.9123C90.647 46.9123 90.6955 47.2417 90.6955 47.3869C90.6955 47.5325 90.6079 47.8131 90.4916 47.9681C90.3752 48.1133 90.2194 48.1232 90.1812 47.9197C90.1326 47.6679 90.0743 47.5419 89.9768 47.5419C89.8896 47.5419 89.7831 47.6387 89.6376 47.8323C89.0451 48.5883 88.5015 49.7692 87.9872 50.8833C87.9485 50.9604 87.8996 50.9994 87.8219 50.9994C87.715 50.9994 87.4333 50.9604 87.5016 50.7475C87.6278 50.3603 88.2396 48.6462 88.5015 47.697C88.5307 47.5903 88.511 47.4935 88.4238 47.4935C88.1713 47.4935 87.9094 47.7647 87.7347 47.9973C87.6377 48.0165 87.5694 47.9583 87.5793 47.8422C87.8897 47.3192 88.2589 46.9123 88.7248 46.9123C89.2104 46.9123 89.0356 47.5711 88.9481 47.8323ZM94.0406 46.69C94.2059 46.6125 94.458 46.7093 94.5168 46.8348C94.3708 47.1937 93.5263 49.3336 93.2159 50.2156C93.157 50.3796 93.2055 50.4379 93.2837 50.4379C93.4486 50.4379 93.7298 50.2734 94.2832 49.7894C94.3519 49.7894 94.4193 49.8373 94.4193 49.9149C94.0115 50.4571 93.3228 50.9994 92.7886 50.9994C92.7528 51.0013 92.7169 50.996 92.6832 50.9838C92.6495 50.9716 92.6186 50.9527 92.5923 50.9283C92.566 50.904 92.5449 50.8746 92.5302 50.8419C92.5156 50.8092 92.5077 50.7739 92.507 50.7381C92.507 50.6704 92.5263 50.5831 92.604 50.3603L92.9243 49.4887L92.8951 49.4788C92.2056 50.3316 91.2159 50.9994 90.7591 50.9994C90.4877 50.9994 90.3323 50.7283 90.3323 50.4571C90.3323 50.2344 90.5457 49.4596 91.1863 48.5785C91.6521 47.9394 92.0699 47.5518 92.4679 47.3291C92.847 47.1158 93.0892 47.0477 93.3417 47.0477C93.4486 47.0477 93.516 47.0772 93.5748 47.1063C93.6134 47.1252 93.7203 47.2126 93.7689 47.3098L94.0406 46.69ZM92.3516 47.7938C91.7303 48.3459 91.1382 49.6146 91.1382 50.3021C91.1382 50.4186 91.1962 50.4863 91.2837 50.4863C91.3804 50.4863 91.6719 50.3603 92.2253 49.8566C92.963 49.1692 93.3708 48.3361 93.5263 47.7647C93.458 47.5809 93.2936 47.4164 93.0402 47.4164C92.808 47.4164 92.6525 47.5222 92.3516 47.7938ZM97.4424 47.4644C97.4424 47.6195 97.345 47.7257 97.2677 47.7647C97.1998 47.7839 97.1415 47.7647 97.0835 47.6871C96.9182 47.5222 96.7915 47.377 96.4906 47.377C96.2093 47.377 96.093 47.6195 96.093 47.7647C96.093 47.9681 96.1415 48.1712 96.4231 48.6457C96.6653 49.0527 96.8113 49.2947 96.7915 49.7208C96.7821 49.9825 96.6464 50.3406 96.287 50.6507C96.0346 50.8735 95.6756 50.9994 95.3064 50.9994C94.9371 50.9994 94.7143 50.7086 94.7143 50.4858C94.7143 50.389 94.7529 50.2828 94.8599 50.1663C94.8957 50.1336 94.9425 50.1155 94.991 50.1155C95.0396 50.1155 95.0863 50.1336 95.1222 50.1663C95.248 50.3115 95.5395 50.5539 95.792 50.5539C96.0251 50.5539 96.2578 50.3115 96.2578 50.0018C96.2578 49.8369 96.1415 49.5371 95.8989 49.1495C95.646 48.743 95.5584 48.4136 95.5584 48.2491C95.5584 47.8709 95.7237 47.5903 96.1415 47.2318C96.4231 46.9894 96.7336 46.9123 96.8594 46.9123C97.2192 46.9123 97.4424 47.222 97.4424 47.4644ZM100.212 47.4644C100.212 47.6195 100.115 47.7257 100.037 47.7647C99.9696 47.7839 99.9112 47.7647 99.8533 47.6871C99.688 47.5222 99.5617 47.377 99.2608 47.377C98.9791 47.377 98.8627 47.6195 98.8627 47.7647C98.8627 47.9681 98.9117 48.1712 99.1929 48.6457C99.4355 49.0527 99.5815 49.2947 99.5617 49.7208C99.5519 49.9825 99.4166 50.3406 99.0572 50.6507C98.8048 50.8735 98.4454 50.9994 98.0766 50.9994C97.7073 50.9994 97.4841 50.7086 97.4841 50.4858C97.4841 50.389 97.5232 50.2828 97.6296 50.1663C97.6655 50.1336 97.7123 50.1155 97.7608 50.1155C97.8093 50.1155 97.8561 50.1336 97.892 50.1663C98.0182 50.3115 98.3093 50.5539 98.5618 50.5539C98.7953 50.5539 99.028 50.3115 99.028 50.0018C99.028 49.8369 98.9117 49.5371 98.6687 49.1495C98.4162 48.743 98.3291 48.4136 98.3291 48.2491C98.3291 47.8709 98.4944 47.5903 98.9117 47.2318C99.1929 46.9894 99.5033 46.9123 99.6296 46.9123C99.9889 46.9123 100.212 47.222 100.212 47.4644ZM101.663 50.031C101.575 50.2635 101.623 50.3603 101.73 50.3603C101.876 50.3603 102.265 50.0502 102.769 49.5564C103.652 48.6847 104.157 47.5612 104.478 46.9706C104.681 46.932 104.915 47.0288 104.953 47.1445C104.856 47.4062 104.225 48.9948 103.818 50.147C103.769 50.273 103.759 50.3895 103.856 50.3895C104.041 50.3895 104.556 49.9341 104.808 49.6339C104.895 49.6146 104.973 49.6532 104.982 49.7692C104.73 50.2344 103.798 50.9998 103.283 50.9998C103.128 50.9998 102.982 50.8156 103.041 50.6606L103.701 48.8882L103.682 48.8788C102.982 49.7598 101.779 50.9998 101.254 50.9998C100.856 50.9998 100.808 50.6023 100.973 50.1766L101.867 47.8229C101.934 47.6387 101.944 47.5419 101.867 47.5419C101.681 47.5419 101.177 47.9681 100.944 48.2101C100.923 48.215 100.901 48.2149 100.88 48.2096C100.859 48.2044 100.84 48.1942 100.824 48.18C100.808 48.1658 100.795 48.1479 100.787 48.1279C100.78 48.1079 100.777 48.0863 100.779 48.0649C101.031 47.6773 102.002 46.9123 102.458 46.9123C102.585 46.9123 102.808 47.0387 102.75 47.2027L101.663 50.031ZM108.025 47.4644C108.025 47.6195 107.928 47.7257 107.85 47.7647C107.783 47.7839 107.724 47.7647 107.666 47.6871C107.501 47.5222 107.374 47.377 107.074 47.377C106.792 47.377 106.676 47.6195 106.676 47.7647C106.676 47.9681 106.724 48.1712 107.006 48.6457C107.248 49.0527 107.394 49.2947 107.374 49.7208C107.365 49.9825 107.229 50.3406 106.87 50.6507C106.617 50.8735 106.258 50.9994 105.889 50.9994C105.52 50.9994 105.297 50.7086 105.297 50.4858C105.297 50.389 105.336 50.2828 105.443 50.1663C105.478 50.1336 105.525 50.1155 105.574 50.1155C105.622 50.1155 105.669 50.1336 105.705 50.1663C105.831 50.3115 106.122 50.5539 106.375 50.5539C106.608 50.5539 106.841 50.3115 106.841 50.0018C106.841 49.8369 106.724 49.5371 106.482 49.1495C106.229 48.743 106.141 48.4136 106.141 48.2491C106.141 47.8709 106.306 47.5903 106.724 47.2318C107.006 46.9894 107.316 46.9123 107.442 46.9123C107.802 46.9123 108.025 47.222 108.025 47.4644ZM36.3417 24.6877C37.0497 24.6877 37.6628 25.4099 37.6628 26.5475V35.4503C37.6628 38.721 36.3159 38.4503 34.8982 38.4503C33.4809 38.4503 33.3143 37.0492 33.3143 35.4301V26.5475C33.3143 25.4099 33.9278 24.6877 34.635 24.6877V24.2268H29.8056V24.6877C30.5132 24.6877 31.1533 25.4099 31.1533 26.5475V36.172C31.1533 38.0288 32.1593 39.4067 34.516 39.4067C36.8736 39.4067 38.3206 39.2821 38.3206 35.3843V26.5475C38.3206 25.4099 38.9337 24.6877 39.6387 24.6877V24.2268H36.3417V24.6877ZM138.491 24.6877C139.199 24.6877 139.761 25.4099 139.761 26.5475V35.4503C139.761 38.721 138.414 38.4503 136.996 38.4503C135.579 38.4503 135.412 37.0492 135.412 35.4301V26.5475C135.412 25.4099 136 24.6877 136.707 24.6877V24.2268H131.955V24.6877C132.662 24.6877 133.251 25.4099 133.251 26.5475V36.172C133.251 38.0288 134.257 39.4067 136.613 39.4067C138.971 39.4067 140.418 39.2821 140.418 35.3843V26.5475C140.418 25.4099 140.98 24.6877 141.685 24.6877V24.2268H138.491V24.6877ZM46.0618 38.3526C45.8691 38.4057 45.0378 38.4978 44.359 38.4353C43.8026 38.3843 43.7747 38.3038 43.7747 37.0758V26.4143C43.7747 25.1863 44.0838 24.8877 45.0812 24.8877C46.3139 24.8877 46.854 25.2428 47.2675 26.3351C48.0906 28.4446 47.9575 32.3693 47.7277 35.3522C47.7277 35.3522 47.4182 37.9825 46.0618 38.3526ZM45.7317 24.2268H40.3179V24.6877C41.0272 24.6877 41.6141 25.4099 41.6141 26.5475V36.8154C41.6141 37.9547 41.0272 38.6709 40.3179 38.6709V39.1283H46.3873C47.3667 39.1283 48.4903 38.5689 49.1833 36.5789C49.8612 34.5122 49.9419 32.8268 49.8475 30.2333C49.7182 27.6637 49.2996 26.0969 48.6951 25.3186C48.091 24.5404 47.1211 24.2268 45.7317 24.2268ZM54.6958 38.4263C54.0019 38.3398 53.9203 38.0327 53.9203 36.9156V31.998C55.4819 32.129 55.6288 32.1252 56.0268 34.1786H56.4471V29.0528H56.0268C55.6893 30.9965 55.4819 31.1011 53.9203 31.2317V26.2203C53.9203 25.1023 54.0135 24.9053 54.5021 24.9263L55.4055 24.9708C57.5385 25.0578 57.6484 26.3376 57.7845 27.0825H58.3204V24.2264H50.4378V24.6877C51.145 24.6877 51.759 25.4099 51.759 26.5475V36.8149C51.759 37.9543 51.145 38.6709 50.4378 38.6709V39.1279H58.4183L59.0155 36.4264H58.411C57.7081 38.8358 55.7644 38.4618 54.6958 38.4263ZM146.595 38.4263C145.903 38.3398 145.821 38.0327 145.821 36.9156V31.998C147.382 32.1303 147.529 32.1252 147.928 34.1786H148.347V29.0528H147.928C147.589 30.997 147.382 31.1011 145.821 31.2317V26.2203C145.821 25.1023 145.915 24.9053 146.403 24.9263L147.306 24.9708C149.44 25.0578 149.549 26.3368 149.685 27.0825H150.221V24.2264H142.363V24.6877C143.072 24.6877 143.658 25.4099 143.658 26.5475V36.8149C143.658 37.9543 143.072 38.6709 142.363 38.6709V39.1279H150.319L150.916 36.4264H150.312C149.609 38.8362 147.665 38.4623 146.595 38.4263ZM26.0242 32.724H22.2863L26.0242 23.5214V32.724ZM28.4368 20.9998H24.3313V21.4723C25.4146 21.4723 25.5146 22.2694 25.1681 23.1427C23.7894 26.6233 20.3099 35.4156 19.9025 36.3138C19.395 37.4369 18.6805 38.6704 17.6016 38.6704V39.1283H21.489V38.6704C20.604 38.6704 20.3383 37.3786 20.7779 36.3181C21.2167 35.2571 21.987 33.387 21.987 33.387H26.0242V36.6153C26.0242 38.5775 25.3248 38.6704 24.3343 38.6704V39.1283H30.1315V38.6704C29.3071 38.6704 28.4437 38.6109 28.4437 36.6149C28.4437 35.5784 28.4368 20.9998 28.4368 20.9998ZM113.527 29.6722C113.527 30.1596 113.352 30.4183 112.993 30.4183H111.045L111.047 26.4576V25.5444L111.045 21.6607H112.993C113.352 21.6607 113.527 21.9447 113.527 22.5152V29.6722ZM113.989 20.9968H106.908V21.474C107.921 21.474 108.603 22.1533 108.603 23.4987V36.4406C108.603 38.5051 107.829 38.6709 106.912 38.6709V39.1283H112.709V38.6709C111.663 38.6709 111.045 38.4421 111.045 36.4517V31.1088H114.138C115.134 31.1088 115.907 30.3883 115.907 28.7495V23.2533C115.907 21.9464 115.259 20.9968 113.989 20.9968ZM66.3184 34.6446L63.4327 24.2268H59.6235V24.6877C60.5814 24.6877 60.9691 25.0141 60.9691 26.5895V36.8149C60.9691 37.9543 60.4212 38.6709 59.6437 38.6709V39.1283H63.0051V38.6709C62.2275 38.6709 61.6784 37.9543 61.6784 36.8149V26.0875L65.3421 39.1283H65.701L69.4974 26.1337V36.8149C69.4974 37.9543 68.9487 38.6709 68.1711 38.6709V39.1283H73.0494V38.6709C72.2727 38.6709 71.6965 37.9543 71.6965 36.8149V26.5475C71.6965 25.4099 72.2727 24.6877 73.0494 24.6877V24.2268H69.3784L66.373 34.406M89.5775 29.936C89.5775 31.7196 87.6819 31.4733 87.0172 31.4955V25.8703C87.0172 25.2771 87.0391 24.9713 87.5733 24.9713C88.5878 24.9713 89.5775 24.8038 89.5775 26.2001V29.936ZM92.3198 37.8887L89.8325 32.0262C90.6208 31.8416 91.6204 31.5388 91.6204 30.1626C91.6204 28.6802 91.586 27.1159 91.586 26.0785C91.586 24.2268 89.8823 24.2268 88.137 24.2268H83.5626V24.6881C84.2681 24.6881 84.8537 25.4099 84.8537 26.5475V36.8149C84.8537 37.9517 84.092 38.6709 83.5416 38.6709V39.1283H88.3354V38.6709C87.6321 38.6709 87.0172 37.9543 87.0172 36.8149V32.1959H87.73L90.1966 38.3132C90.1966 38.3132 90.3216 38.6764 90.5714 38.9202C90.8072 39.1506 91.2876 39.1283 91.2876 39.1283H93.0699V38.6709C92.9071 38.6709 92.7006 38.7839 92.3198 37.8887ZM117.331 24.6877C118.215 24.6877 118.625 25.4099 118.625 26.5475V36.8149C118.625 37.9543 118.215 38.6709 117.331 38.6709V39.1283H122.075V38.6709C121.191 38.6709 120.785 37.9543 120.785 36.8149V26.5475C120.785 25.4099 121.191 24.6877 122.075 24.6877V24.2268H117.331V24.6877ZM98.0079 29.9394C96.3622 29.0862 95.7332 27.9691 95.7332 27.0062C95.7332 26.4794 95.9551 24.5404 97.2703 24.5404C99.2745 24.5626 99.8992 27.396 100.119 28.6335H100.511V23.9977H100.072C100.051 24.5052 99.8631 24.6282 99.6248 24.6282C98.8799 24.6063 98.6579 23.7368 96.7181 23.8178C95.4622 23.8705 93.8947 24.9661 93.8947 27.943C93.8947 29.3012 94.418 31.2068 96.093 32.3423C98.5287 33.9875 99.305 34.6425 99.305 35.9107C99.305 36.4376 99.153 38.64 97.2084 38.64C95.8336 38.64 94.9286 36.384 94.7495 35.5308L94.4365 33.9995H93.9973V39.2166H94.4511C94.4975 38.8011 94.6065 38.5741 94.7877 38.5741C95.5052 38.5741 96.2407 39.3352 97.5116 39.3194C100.739 39.2782 101.311 36.5502 101.311 35.0194C101.311 32.9167 100.308 31.1212 98.0079 29.9394ZM128.289 31.6005V31.9868C128.289 31.9868 128.944 32.0459 128.944 33.0859V36.5716C128.944 38.4331 128.302 38.5831 127.162 38.5831C126.022 38.5831 125.57 38.1646 125.57 36.7421V26.4743C125.57 25.5024 126.073 24.671 127.277 24.671C128.61 24.671 130.036 26.0048 130.036 28.5829H130.763V23.9947H130.216C130.216 25.7495 129.172 23.9433 127.337 23.9433C126.006 23.9433 124.909 24.2838 124.284 24.9923C123.646 25.7076 123.354 26.5745 123.354 27.5896V35.6477C123.354 36.6642 123.646 37.523 124.284 38.225C124.92 38.9548 126.312 39.3198 127.217 39.3198C127.745 39.3198 128.499 39.1258 128.879 38.9411C129.257 38.7574 129.605 38.4884 129.919 38.1333C130.569 37.4035 130.892 36.5442 130.892 35.5565V33.0606C130.892 32.0682 131.548 31.9868 131.548 31.9868V31.6005H128.289ZM82.1501 37.6459L79.1201 24.1754H76.4456V24.6479C77.3765 24.6479 77.246 25.3992 77.0746 26.3286L74.8901 37.2206C74.5891 38.458 74.1962 38.6709 73.8253 38.6709V39.1283H76.3606V38.6709C75.4139 38.6709 75.4002 37.9033 75.6737 36.7537L76.1223 34.5838H79.3198L79.9045 37.2634C80.2042 38.458 79.7272 38.6709 79.1536 38.6709V39.1283H83.0011V38.6709H83.0045C82.7743 38.6657 82.3828 38.5702 82.1501 37.6459ZM76.273 33.88L77.6109 27.1802L79.1175 33.88H76.273ZM151.202 24.2268V27.0825H151.696C151.763 26.5137 151.889 25.6724 152.409 25.3409C152.927 25.0098 153.458 25.03 154.32 25.03V36.8154C154.32 37.9547 153.761 38.6709 153.053 38.6709V39.1283H157.777V38.6709C157.07 38.6709 156.483 37.9547 156.483 36.8154V25.03C157.344 25.03 157.876 25.0098 158.395 25.3409C158.914 25.6724 159.04 26.5137 159.107 27.0825H159.602V24.2268H151.202Z" fill="#212322"/>
</g>
<defs>
<clipPath id="clip0_1214_4513">
<rect width="142" height="30" fill="white" transform="translate(17.6016 21)"/>
</clipPath>
</defs>
</svg>
