<svg width="177" height="72" viewBox="0 0 177 72" fill="none" xmlns="http://www.w3.org/2000/svg">
<g clip-path="url(#clip0_1214_3999)">
<path fill-rule="evenodd" clip-rule="evenodd" d="M42.9759 38.5281L46.1062 40.3026C44.5414 43.1505 41.4866 44.9996 38.0278 44.9996C32.9782 44.9996 28.8125 41.1766 28.8125 35.805C28.8125 30.4334 32.9782 26.6104 38.0278 26.6104C41.4866 26.6104 44.5421 28.4595 46.1062 31.3081L42.9759 33.0819C42.0667 31.2328 40.2242 30.1091 38.0278 30.1091C34.8715 30.1091 32.4735 32.4318 32.4735 35.805C32.4735 39.1782 34.8715 41.5016 38.0278 41.5016C40.2242 41.5016 42.0667 40.3772 42.9759 38.5281ZM62.8959 44.5497V37.0542H54.0591V44.5497H50.525V27.0602H54.0591V33.5569H62.8959V27.0602H66.4308V44.5497H62.8959ZM83.3974 37.304L80.1903 29.934L76.9839 37.304H83.3974ZM90.4157 44.5497H86.5524L84.8107 40.5516H75.57L73.8283 44.5497H69.965L77.7917 27.0602H82.589L90.4157 44.5497ZM106.7 44.5497L97.2317 30.7836V44.5497H93.9499V27.0602H98.621L106.574 38.653V27.0602H109.856V44.5497H106.7ZM116.672 44.5497V27.0602H129.296V30.3086H119.954V34.0563H128.033V37.304H119.954V41.3021H129.801V44.5497H116.672ZM135.482 44.5497V27.0602H139.016V41.0524H148.357V44.5497H135.482Z" fill="#212322"/>
</g>
<defs>
<clipPath id="clip0_1214_3999">
<rect width="120" height="19" fill="white" transform="translate(28.8047 26.5)"/>
</clipPath>
</defs>
</svg>
