<svg width="177" height="72" viewBox="0 0 177 72" fill="none" xmlns="http://www.w3.org/2000/svg">
<path d="M106.602 18.9112H109.1V26.4834C109.1 31.1063 107.725 33.3556 104.898 33.3556C102.07 33.3556 100.788 31.2135 100.788 27.1636V18.9056L102.795 18.9112V17.9996H96.0781V18.9112H98.1045V27.6857C98.1045 30.6575 98.7564 32.5851 100.159 33.7535C101.158 34.5889 102.541 35.0292 104.164 35.0292C105.899 35.0292 107.488 34.366 108.521 33.2145C109.769 31.8203 110.302 29.8419 110.302 26.6019V18.9084H112.506V17.9968H106.605V18.9084L106.602 18.9112Z" fill="#212322"/>
<path d="M44.6294 25.9076C46.272 25.4109 47.8411 23.9998 47.8411 21.8323C47.8411 20.5989 47.3218 19.4954 46.4526 18.8802C45.6003 18.2734 44.4375 18.0024 42.6878 18.0024H36.1487V18.914H38.0847V33.7479H35.9766V34.6792H41.6435C43.6501 34.6792 45.3293 34.3095 46.4949 33.6124C47.9568 32.7375 48.764 31.3602 48.764 29.7346C48.764 27.5982 47.4488 26.3761 44.6294 25.9104V25.9076ZM45.7498 29.9858C45.7498 32.5484 44.1412 33.7197 42.5466 33.7451H40.7489V26.7232H41.477C44.4742 26.7232 45.7498 27.6998 45.7498 29.9886V29.9858ZM40.7461 25.4673V18.9112H42.1487C43.89 18.9112 44.9709 20.1756 44.9709 22.2104C44.9709 24.4005 43.8392 25.4645 41.5137 25.4645H40.7461V25.4673Z" fill="#212322"/>
<path d="M64.2283 33.762C63.757 33.6181 63.3506 33.4939 62.8482 32.9182C62.3374 32.3311 61.8492 31.6256 60.9884 30.2201C60.2857 29.0686 59.3797 27.4458 58.9818 26.6273C60.9517 25.7214 61.9508 24.2792 61.9508 22.3375C61.9508 20.3958 61.0787 19.4475 60.3449 18.9141C59.439 18.2565 58.3073 17.9968 56.3063 17.9968H50.0157V18.9084L51.9714 18.9L51.9997 31.332V33.7423L49.9141 33.762V34.6736H56.6902V33.762L54.6356 33.7423V27.4966H55.1718C56.1963 27.4966 56.5716 27.8409 56.9413 28.5211C57.1445 28.8936 57.3506 29.2859 57.5594 29.681C58.0674 30.6378 58.5895 31.6284 59.1031 32.4468C60.1361 34.0838 61.0759 34.5579 63.486 34.6454C63.7711 34.6567 64.1605 34.6708 64.375 34.6708H64.4371V33.8269L64.3948 33.8128C64.3355 33.7931 64.2791 33.7761 64.2198 33.7592L64.2283 33.762ZM59.0749 22.7298C59.0749 24.0957 58.6968 25.0666 57.8811 25.7835C57.3477 26.252 56.6027 26.4608 55.4625 26.4608H54.6356V18.9112H55.9903C58.2678 18.9112 59.0749 20.9659 59.0749 22.7269V22.7298Z" fill="#212322"/>
<path d="M88.4436 27.5897L90.9835 27.5728V31.9727C90.9835 32.8787 90.7465 33.2089 90.3598 33.4459C89.9817 33.6802 89.3721 33.8156 88.6863 33.8156C84.5066 33.8156 82.6044 29.7854 82.6044 26.0431C82.6044 21.7222 84.9722 18.7052 88.3589 18.7052C90.8932 18.7052 92.3777 19.9865 92.8998 22.6225L92.9111 22.6846L93.7944 22.4899L93.7888 22.4363C93.6449 21.0646 93.5207 19.7466 93.4106 18.4061V18.3637L93.2187 18.3129C92.3721 18.0871 90.6138 17.6187 88.7681 17.6187C86.2648 17.6187 83.9732 18.4032 82.3166 19.8228C80.4737 21.4061 79.5 23.6865 79.5 26.4213C79.5 31.4901 83.0814 34.8966 88.4125 34.8966C90.0466 34.8966 91.6722 34.4789 92.976 34.143C93.199 34.0866 93.4135 34.0301 93.6195 33.9793L93.6674 33.9681V27.5643L95.0955 27.5869V26.6866H88.4436V27.5869V27.5897Z" fill="#212322"/>
<path d="M125.177 30.3358C124.723 31.603 124.305 32.4751 123.938 32.921C123.425 33.5447 122.756 33.7451 121.178 33.7451H118.351V26.7176H120.239C122.279 26.7176 122.468 26.8587 122.767 28.6142L122.776 28.665H123.648V23.5398H122.779L122.77 23.5906C122.465 25.3291 122.276 25.4674 120.219 25.4674H118.353V18.9112H120.662C122.163 18.9112 122.79 19.0806 123.145 19.5801C123.459 20.0147 123.738 20.8106 123.981 21.9452L123.992 22.0016L124.881 21.8549V21.7984C124.85 21.3497 124.819 20.8755 124.791 20.4155C124.726 19.3938 124.664 18.4315 124.653 18.0561V17.9968H113.683V18.9084L115.667 18.9197V33.7423L113.375 33.762V34.6736H125.22L125.231 34.6284C125.446 33.858 125.917 31.507 126.061 30.5023L126.069 30.443L125.197 30.2822L125.18 30.3301L125.177 30.3358Z" fill="#212322"/>
<path d="M77.2399 30.3358C76.7856 31.603 76.3679 32.4751 76.001 32.921C75.4874 33.5447 74.8185 33.7451 73.2409 33.7451H70.413V26.7176H72.3011C74.3415 26.7176 74.5306 26.8587 74.8298 28.6142L74.8383 28.665H75.7103V23.5398H74.8411L74.8326 23.5906C74.5278 25.3291 74.3387 25.4674 72.2813 25.4674H70.4159V18.9112H72.7244C74.2258 18.9112 74.8524 19.0806 75.208 19.5801C75.5212 20.0147 75.8006 20.8106 76.0433 21.9452L76.0546 22.0016L76.9436 21.8549V21.7984C76.9126 21.3497 76.8815 20.8755 76.8533 20.4155C76.7884 19.3938 76.7263 18.4315 76.715 18.0561V17.9968H65.7451V18.9084L67.7291 18.9197V33.7423L65.4375 33.762V34.6736H77.2823L77.2936 34.6284C77.5052 33.8608 77.9794 31.507 78.1233 30.5023L78.1318 30.443L77.2597 30.2822L77.2428 30.3301L77.2399 30.3358Z" fill="#212322"/>
<path d="M140.42 21.8012C140.293 20.1445 140.219 18.9564 140.194 18.0617V18.0024H126.932V18.0617C126.896 18.7278 126.851 19.4136 126.803 20.1417C126.766 20.6638 126.729 21.2142 126.695 21.804V21.8605L127.624 22.0044L127.638 21.9508C127.934 20.7231 128.126 20.0655 128.428 19.6422C128.739 19.2047 129.094 18.9169 131.126 18.9169H132.216V33.7394L129.924 33.7705V34.682H137.287V33.7705L134.899 33.7394V18.9169H136.22C137.854 18.9169 138.278 19.0918 138.659 19.5857C138.986 20.0119 139.195 20.6074 139.486 21.948L139.497 22.0044L140.428 21.8605L140.423 21.804L140.42 21.8012Z" fill="#212322"/>
<path d="M87.4896 47.6562H87.5234C87.721 47.6816 87.8903 47.7182 88.0286 47.769C88.1584 47.817 88.2516 47.8876 88.3024 47.9807C88.3532 48.0738 88.3616 48.198 88.3249 48.3504C88.2882 48.5085 88.1895 48.7117 88.0314 48.9572L86.9364 50.659L85.5112 48.3561C85.4265 48.2178 85.3701 48.1049 85.3447 48.0202C85.3193 47.944 85.3221 47.8791 85.3503 47.8368C85.3786 47.7916 85.4322 47.7549 85.5168 47.7295C85.61 47.7013 85.7313 47.6787 85.8781 47.6618H85.912V47.4868H83.3438V47.6562L83.3776 47.6618C83.5187 47.6844 83.6429 47.7126 83.7445 47.7493C83.8433 47.7832 83.9308 47.8311 84.0098 47.8904C84.0888 47.9497 84.165 48.0259 84.2384 48.1162C84.3118 48.2093 84.3964 48.325 84.4867 48.4661L86.1039 50.961V52.9592C86.1039 53.1285 86.0954 53.2668 86.0756 53.3656C86.0587 53.4587 86.022 53.5321 85.9684 53.5857C85.9119 53.6394 85.8301 53.6789 85.7257 53.7043C85.6128 53.7325 85.4576 53.7579 85.2685 53.7805H85.2346V53.9555H87.9016V53.7833L87.8677 53.7777C87.6787 53.7551 87.5263 53.7297 87.4134 53.7015C87.3061 53.6761 87.2215 53.6365 87.1678 53.5829C87.1142 53.5293 87.0775 53.4559 87.0606 53.3628C87.0437 53.264 87.0324 53.1285 87.0324 52.9564V50.9751L88.2995 49.0108C88.4604 48.7597 88.5902 48.5621 88.7003 48.4012C88.8075 48.2432 88.9148 48.1162 89.022 48.0174C89.1264 47.9186 89.2393 47.8452 89.3607 47.7916C89.4849 47.738 89.6401 47.6957 89.8235 47.6646L89.8574 47.659V47.4896H87.5009V47.6618L87.4896 47.6562Z" fill="#212322"/>
<path d="M95.4151 52.1491L95.2317 52.1181L95.2176 52.1435C95.1188 52.341 95.0228 52.5216 94.9325 52.6769C94.8422 52.8321 94.7491 52.9704 94.6559 53.0861C94.5628 53.2018 94.4584 53.3006 94.3483 53.3824C94.2383 53.4615 94.1113 53.5292 93.9701 53.5772C93.829 53.628 93.6653 53.6647 93.4819 53.6872C93.2956 53.7098 93.0812 53.7211 92.8413 53.7211H92.5986C92.4462 53.7211 92.3192 53.7098 92.2204 53.6901C92.1244 53.6703 92.0454 53.6336 91.989 53.5856C91.9325 53.5377 91.8902 53.4699 91.8648 53.3824C91.8394 53.2921 91.8253 53.1736 91.8253 53.0325V50.7182L92.5139 50.7323C92.7397 50.738 92.9259 50.7549 93.0642 50.7859C93.2025 50.8142 93.3154 50.865 93.4029 50.9384C93.4904 51.0117 93.5637 51.1133 93.6174 51.2432C93.6738 51.3758 93.7274 51.5536 93.7811 51.7681L93.7895 51.7991H93.973V49.4059H93.7895L93.7811 49.4369C93.7303 49.6542 93.6738 49.832 93.6174 49.9647C93.5637 50.0945 93.4904 50.1989 93.4029 50.2723C93.3154 50.3457 93.2025 50.3965 93.0642 50.4247C92.9231 50.4529 92.7397 50.4699 92.5139 50.4755L91.8253 50.4868V47.9355C91.8253 47.8875 91.8337 47.848 91.8479 47.8197C91.862 47.7943 91.8845 47.7746 91.9156 47.7605C91.9523 47.7435 92.0031 47.7323 92.0652 47.7266C92.1301 47.721 92.2091 47.7181 92.3107 47.7181H92.5703C92.8046 47.7181 93.0106 47.7294 93.1884 47.752C93.3634 47.7746 93.5214 47.8113 93.6569 47.8621C93.7895 47.9129 93.9081 47.975 94.0068 48.0512C94.1056 48.1274 94.1931 48.2177 94.2693 48.3221C94.3455 48.4265 94.4161 48.5451 94.4753 48.6805C94.5346 48.8132 94.5939 48.9656 94.6475 49.1321L94.6559 49.1603L94.8507 49.149L94.6249 47.4585L92.5929 47.4895H90.1094V47.6617L90.1432 47.6673C90.3126 47.6899 90.4509 47.7153 90.5525 47.7435C90.6484 47.7689 90.7218 47.8085 90.7726 47.8621C90.8234 47.9157 90.8544 47.9891 90.8714 48.085C90.8883 48.1866 90.8968 48.3221 90.8968 48.4914V52.9619C90.8968 53.1313 90.8883 53.2667 90.8714 53.3683C90.8544 53.4615 90.8234 53.5377 90.7726 53.5913C90.7218 53.6449 90.6484 53.6844 90.5525 53.7098C90.4509 53.738 90.3126 53.7634 90.1432 53.786L90.1094 53.7917V53.9638H94.9805L95.4095 52.2055L95.4179 52.166L95.4151 52.1491Z" fill="#212322"/>
<path d="M101.57 53.6929C101.477 53.6647 101.398 53.6224 101.328 53.5631C101.26 53.5038 101.198 53.4248 101.144 53.326C101.088 53.2244 101.029 53.0861 100.964 52.914L98.8131 47.2497L98.799 47.2158L98.6043 47.2751L96.8319 52.0052C96.7444 52.2395 96.6626 52.4455 96.592 52.6233C96.5215 52.7954 96.4537 52.945 96.3888 53.0692C96.3267 53.1934 96.2618 53.295 96.1997 53.3768C96.1376 53.4559 96.0671 53.5236 95.9909 53.5716C95.9147 53.6224 95.83 53.6619 95.7341 53.6929C95.6381 53.724 95.5252 53.7494 95.4011 53.7691L95.3672 53.7748V53.9441H97.6814V53.7719L97.6475 53.7663C97.5036 53.7494 97.3738 53.724 97.2637 53.6957C97.1565 53.6675 97.069 53.628 97.0012 53.5772C96.9363 53.5264 96.8855 53.4615 96.8573 53.3881C96.8263 53.3119 96.815 53.2103 96.8206 53.0918C96.8263 52.9676 96.8545 52.818 96.8968 52.6487C96.942 52.4737 97.0097 52.2677 97.0972 52.0391L97.3625 51.3222H99.3521L99.9787 52.9986C100.041 53.1652 100.077 53.2978 100.092 53.3966C100.103 53.4869 100.092 53.5575 100.055 53.6054C100.018 53.6534 99.9561 53.6901 99.8714 53.7099C99.7755 53.7324 99.6513 53.7522 99.4989 53.7691H99.465V53.9441H101.96V53.7748L101.926 53.7691C101.782 53.7465 101.658 53.7183 101.565 53.6901L101.57 53.6929ZM99.2646 51.0767H97.4584L98.3615 48.6411L99.2646 51.0767Z" fill="#212322"/>
<path d="M107.937 53.7042C107.866 53.6759 107.79 53.6308 107.711 53.5659C107.629 53.501 107.531 53.405 107.421 53.2865C107.308 53.1651 107.161 53.0014 106.986 52.801C106.85 52.6458 106.726 52.4962 106.613 52.3551C106.5 52.214 106.382 52.0616 106.266 51.9064C106.148 51.7483 106.026 51.5762 105.905 51.4012C105.792 51.2347 105.665 51.0484 105.518 50.8283C105.688 50.7747 105.857 50.7041 106.018 50.6166C106.196 50.5206 106.357 50.4021 106.492 50.261C106.63 50.1199 106.74 49.9534 106.825 49.7643C106.907 49.5752 106.949 49.355 106.949 49.1152C106.949 48.847 106.89 48.61 106.771 48.4039C106.653 48.2007 106.481 48.0286 106.261 47.8903C106.04 47.7548 105.772 47.6532 105.459 47.5855C105.149 47.5178 104.793 47.4839 104.401 47.4839H102.18V47.656L102.214 47.6617C102.383 47.6843 102.521 47.7097 102.623 47.7379C102.719 47.7633 102.792 47.8028 102.843 47.8564C102.894 47.9101 102.925 47.9834 102.942 48.0794C102.959 48.1782 102.967 48.3165 102.967 48.4858V52.9563C102.967 53.1256 102.959 53.2639 102.942 53.3627C102.925 53.4558 102.894 53.532 102.843 53.5856C102.792 53.6393 102.719 53.6788 102.623 53.7042C102.521 53.7324 102.383 53.7578 102.214 53.7804L102.18 53.786V53.9582H104.683V53.786L104.649 53.7804C104.48 53.7578 104.341 53.7324 104.24 53.7042C104.144 53.6788 104.071 53.6393 104.02 53.5856C103.969 53.532 103.938 53.4586 103.921 53.3627C103.904 53.2639 103.896 53.1284 103.896 52.9563V50.9694C103.935 50.975 103.977 50.9807 104.02 50.9863C104.079 50.992 104.138 50.9976 104.2 51.0033C104.262 51.0089 104.325 51.0117 104.387 51.0145C104.44 51.0145 104.488 51.0145 104.536 51.0145C104.717 51.3024 104.889 51.5677 105.047 51.8048C105.205 52.0447 105.369 52.2817 105.532 52.5075C105.699 52.739 105.874 52.9676 106.052 53.1905C106.23 53.4163 106.43 53.6618 106.664 53.9412L106.675 53.9553H108.228V53.786L108.197 53.7804C108.095 53.7634 108.008 53.7409 107.934 53.7126L107.937 53.7042ZM105.939 49.2309C105.939 49.4679 105.908 49.6824 105.851 49.8772C105.792 50.0663 105.699 50.23 105.572 50.3626C105.445 50.4952 105.281 50.5997 105.081 50.6702C104.881 50.7436 104.632 50.7803 104.347 50.7803C104.299 50.7803 104.257 50.7803 104.22 50.7803C104.183 50.7803 104.144 50.7775 104.107 50.7747C104.071 50.7747 104.031 50.769 103.994 50.7634C103.963 50.7605 103.932 50.7549 103.898 50.7493V47.9016C103.898 47.8621 103.904 47.831 103.915 47.8056C103.927 47.783 103.944 47.7633 103.969 47.7492C103.997 47.7322 104.031 47.7238 104.076 47.7181C104.127 47.7125 104.186 47.7097 104.251 47.7097H104.299C104.638 47.7097 104.914 47.7492 105.126 47.8282C105.338 47.9044 105.504 48.0116 105.623 48.1443C105.741 48.2769 105.823 48.4378 105.868 48.6213C105.913 48.8075 105.939 49.0136 105.939 49.2337V49.2309Z" fill="#212322"/>
<path d="M112.356 51.4605C112.274 51.2714 112.161 51.1021 112.014 50.9582C111.87 50.8142 111.698 50.6816 111.504 50.5687C111.309 50.4558 111.091 50.3429 110.863 50.2328L110.293 49.9647C110.146 49.8942 110.011 49.8208 109.892 49.7418C109.776 49.6656 109.675 49.5781 109.593 49.4793C109.511 49.3833 109.449 49.2676 109.407 49.1406C109.361 49.0136 109.339 48.8584 109.339 48.6834C109.339 48.5084 109.373 48.3447 109.438 48.2121C109.503 48.0766 109.59 47.9637 109.694 47.8763C109.802 47.7859 109.923 47.7182 110.061 47.6759C110.335 47.5884 110.64 47.5912 110.902 47.6589C111.029 47.69 111.151 47.7577 111.269 47.8593C111.388 47.9609 111.504 48.1105 111.614 48.3024C111.724 48.4943 111.834 48.7512 111.941 49.0672L111.952 49.0955L112.127 49.0757L112 47.5432L111.972 47.5376C111.865 47.515 111.758 47.4924 111.65 47.4727C111.543 47.4529 111.436 47.436 111.329 47.4219C111.221 47.4078 111.111 47.3965 111.007 47.388C110.9 47.3795 110.789 47.3767 110.677 47.3767C110.358 47.3767 110.064 47.4247 109.805 47.515C109.545 47.6081 109.322 47.7351 109.139 47.8932C108.955 48.0512 108.811 48.2403 108.712 48.452C108.614 48.6637 108.563 48.8894 108.563 49.1237C108.563 49.31 108.588 49.4906 108.639 49.6571C108.69 49.8236 108.772 49.9845 108.885 50.1341C108.997 50.2808 109.141 50.4219 109.316 50.5518C109.491 50.6816 109.703 50.8058 109.951 50.9215L110.524 51.1924C110.688 51.2714 110.84 51.3533 110.979 51.438C111.114 51.5226 111.235 51.6186 111.331 51.7286C111.427 51.8359 111.506 51.9601 111.56 52.0984C111.614 52.2367 111.642 52.4003 111.642 52.5894C111.642 52.8011 111.605 52.9817 111.529 53.1313C111.456 53.2809 111.357 53.4023 111.235 53.4982C111.114 53.5942 110.973 53.6647 110.818 53.7071C110.66 53.7522 110.496 53.7748 110.329 53.7748C110.135 53.7748 109.957 53.7437 109.802 53.6788C109.647 53.6139 109.5 53.5151 109.367 53.3825C109.232 53.247 109.099 53.072 108.975 52.8604C108.851 52.6459 108.718 52.3862 108.583 52.0871L108.571 52.0589L108.391 52.0899L108.656 53.755V53.7776L108.681 53.7861C108.791 53.8228 108.904 53.8566 109.017 53.8849C109.127 53.9131 109.246 53.9357 109.367 53.9554C109.483 53.9724 109.604 53.9865 109.726 53.9978C109.844 54.0062 109.968 54.0119 110.087 54.0119C110.298 54.0119 110.504 53.9921 110.705 53.9554C110.905 53.9187 111.094 53.8651 111.269 53.7917C111.444 53.7212 111.608 53.6309 111.755 53.5264C111.904 53.422 112.031 53.2978 112.136 53.1595C112.24 53.0212 112.325 52.8632 112.384 52.6939C112.443 52.5217 112.472 52.3354 112.472 52.1351C112.472 51.8782 112.429 51.6524 112.347 51.4662L112.356 51.4605Z" fill="#212322"/>
<path d="M66.2599 53.6899C66.6776 53.5996 67.0868 53.4049 67.5045 53.4049C68.2327 53.4049 68.8056 53.7323 69.5619 53.7266C69.6155 53.7266 69.7425 53.6815 69.6663 53.8282C69.4942 54.1556 68.1819 54.3842 67.7359 54.3814C67.2675 54.3814 66.7341 54.0935 66.2882 54.0879C65.8168 54.0822 65.4443 54.4209 65.1875 54.102C66.5704 52.9562 68.5939 51.7736 69.5026 49.9081C70.0276 48.8356 70.4199 47.0604 68.831 47.4668C67.8065 47.7293 66.8357 49.1743 66.8526 50.4613C66.8582 50.9044 67.0558 51.1951 67.2562 51.3418C67.482 51.5055 66.7651 51.4942 66.4067 51.0539C66.116 50.6983 66.0991 49.9702 66.2374 49.4481C66.9598 46.6907 71.0012 46.1263 70.6795 49.0276C70.4424 51.1725 67.5892 52.7275 66.2599 53.6871V53.6899Z" fill="#212322"/>
<path d="M71.6833 51.1415C72.276 50.0324 72.9364 49.276 73.9326 49.3353C74.5761 49.3748 74.7285 50.0183 74.243 51.4125C73.6786 53.0353 72.7021 54.0485 71.8216 54.0541C70.9411 54.0598 70.8536 53.6421 71.0286 53.5997C71.2035 53.5574 71.3842 53.055 70.9157 52.9901C70.244 52.897 70.0408 54.3561 71.8244 54.342C73.8649 54.3279 75.1574 52.6627 75.5074 51.5367C75.9392 50.1425 75.4848 49.0418 74.1471 49.0531C72.8094 49.0615 72.1179 49.9421 72.1179 49.9421L72.7981 48.0004C74.0765 48.1415 75.3719 47.6843 75.8291 47.3992C75.9081 47.3512 75.8545 47.2355 75.7642 47.2553C74.181 47.6194 72.7614 47.1311 72.7614 47.1311C72.7614 47.1311 71.5168 50.6618 71.4039 51.0174C71.4039 51.0174 71.3588 51.1359 71.4716 51.1952C71.5845 51.2544 71.6833 51.1415 71.6833 51.1415Z" fill="#212322"/>
<path d="M79.8456 47.2524C78.553 47.3004 77.108 48.926 76.6226 50.8875C76.1344 52.849 76.7891 54.3984 78.0845 54.3532C79.3799 54.3081 80.8221 52.6796 81.3075 50.7182C81.7957 48.7567 81.141 47.2073 79.8456 47.2524ZM78.2285 54.0061C77.4975 54.0541 77.2322 52.6571 77.6386 50.8875C78.045 49.1179 78.9651 47.6475 79.6988 47.5996C80.4298 47.5516 80.6951 48.9486 80.2887 50.7182C79.8823 52.4877 78.9622 53.9581 78.2285 54.0061Z" fill="#212322"/>
</svg>
