<svg width="177" height="73" viewBox="0 0 177 73" fill="none" xmlns="http://www.w3.org/2000/svg">
<g clip-path="url(#clip0_1350_5634)">
<path fill-rule="evenodd" clip-rule="evenodd" d="M138.248 45.2623C140.739 45.2623 143.199 44.162 144.202 43.353L144.558 39.761H144.17C143.328 44.0649 140.189 44.7122 138.377 44.7122C134.947 44.7122 132.811 41.9292 132.811 37.1722C132.811 31.5092 135.076 29.1145 138.312 29.1145C141.16 29.1145 143.264 31.315 144.008 33.8391H144.396L144.008 28.3379H143.619C143.522 29.3087 143.166 29.5999 142.649 29.5999C141.678 29.5999 140.481 28.5644 138.118 28.5644C133.814 28.5644 130.125 32.2211 130.125 37.1722C130.093 41.4438 133.491 45.2623 138.248 45.2623Z" fill="#212322"/>
<path fill-rule="evenodd" clip-rule="evenodd" d="M68.3166 31.7357L71.0028 38.5961H65.7281L68.3166 31.7357ZM65.8897 44.971V44.5504C64.8219 44.5504 64.1422 44.3562 64.1422 43.353C64.1422 42.9323 64.2394 42.4146 64.4983 41.7674L65.5014 39.1462H71.2292L72.7825 42.997C72.9442 43.3854 72.9767 43.5795 72.9767 43.7414C72.9767 44.2267 72.4589 44.5504 71.65 44.5504H71.3911V44.971H77.5717V44.5504C76.5364 44.5504 76.0186 44.0326 75.3389 42.5117L69.32 28.3379H69.0286L63.8833 41.6379C62.848 44.2591 61.9094 44.5504 60.6797 44.5504V44.971H65.8897Z" fill="#212322"/>
<path fill-rule="evenodd" clip-rule="evenodd" d="M117.509 44.324C115.179 44.324 113.95 42.706 113.95 40.7644C113.95 39.1464 114.5 37.6578 116.215 36.7517L120.777 42.6736C119.677 43.8386 118.577 44.324 117.509 44.324ZM117.185 34.713C116.409 33.7099 115.697 32.642 115.697 31.3799C115.697 30.1502 116.506 29.05 117.865 29.05C119.321 29.05 120.163 30.312 120.163 31.8977C120.163 33.1921 119.807 34.5836 117.8 35.522L117.185 34.713ZM116.409 45.2625C117.995 45.2625 119.612 44.7123 121.166 43.1267L121.392 43.3856C121.878 43.968 122.266 44.6152 122.46 44.9712H127.767V44.5505C125.89 44.5505 124.79 44.2593 122.493 41.4116C125.373 37.1077 125.729 36.7841 127.314 36.7841V36.3634H121.748V36.7841C122.946 36.7841 123.431 37.2371 123.431 38.0138C123.431 38.7581 122.978 39.7936 122.169 40.9909L118.124 35.9427C121.036 34.6159 121.683 32.9656 121.683 31.833C121.683 29.9237 120.13 28.5322 117.962 28.5322C115.632 28.5322 114.014 30.4415 114.014 32.4155C114.014 33.6128 114.564 34.6483 115.729 36.1045L115.923 36.331C112.461 38.0461 111.781 40.0525 111.781 41.444C111.781 44.0328 114.338 45.2625 116.409 45.2625Z" fill="#212322"/>
<path fill-rule="evenodd" clip-rule="evenodd" d="M154.369 44.7448C151.618 44.7448 149.062 42.2855 149.062 36.9137C149.062 31.5418 151.618 29.0825 154.369 29.0825C157.12 29.0825 159.676 31.5742 159.676 36.9137C159.644 42.2855 157.12 44.7448 154.369 44.7448ZM154.369 45.2626C158.835 45.2626 162.395 41.5088 162.395 36.8813C162.395 32.2862 158.835 28.5 154.369 28.5C149.903 28.5 146.344 32.2862 146.344 36.8813C146.344 41.5088 149.903 45.2626 154.369 45.2626Z" fill="#212322"/>
<path fill-rule="evenodd" clip-rule="evenodd" d="M22.3073 44.971V44.5503H21.8542C20.4304 44.5503 20.2362 44.2267 20.2362 42.5763V29.341H20.9805C23.8929 29.341 25.1873 30.2147 25.964 32.124H26.3523L25.5756 28.8232H12.5345L11.7578 32.124H12.1461C12.9228 30.2147 14.2172 29.341 17.1296 29.341H17.8739V42.5763C17.8739 44.2267 17.6797 44.5503 16.2559 44.5503H15.8029V44.971H22.3073Z" fill="#212322"/>
<path fill-rule="evenodd" clip-rule="evenodd" d="M34.375 44.971V44.5503H34.1161C32.6923 44.5503 32.4981 44.2267 32.4981 42.5763V31.2179C32.4981 29.5999 32.6923 29.2439 34.1161 29.2439H34.375V28.8232H28.2266V29.2439H28.4855C29.9093 29.2439 30.1035 29.5675 30.1035 31.2179V42.5763C30.1035 44.2267 29.9093 44.5503 28.4855 44.5503H28.2266V44.971H34.375Z" fill="#212322"/>
<path fill-rule="evenodd" clip-rule="evenodd" d="M43.8559 44.971V44.5503H43.1117C41.7849 44.5503 41.5907 44.2267 41.5907 42.5763V36.6868H42.7556C45.215 36.6868 46.2184 37.2693 46.2831 39.3403H46.6715V33.6449H46.2831C46.2184 35.8778 44.762 36.2337 42.7556 36.2337H41.5907V29.3086H43.0792C46.4448 29.3086 47.9656 29.7293 48.807 32.1563H49.1953L48.5159 28.8232H37.3516V29.2439H37.7399C39.0666 29.2439 39.2932 29.5675 39.2932 31.2179V42.5763C39.2932 44.2267 39.099 44.5503 37.7399 44.5503H37.3516V44.971H43.8559Z" fill="#212322"/>
<path fill-rule="evenodd" clip-rule="evenodd" d="M57.0592 44.971V44.5503H56.3147C54.988 44.5503 54.7939 44.2267 54.7939 42.5763V36.6868H55.9589C58.4183 36.6868 59.4214 37.2693 59.4861 39.3403H59.8744V33.6449H59.4861C59.4214 35.8778 57.9653 36.2337 55.9589 36.2337H54.7939V29.3086H56.2825C59.6477 29.3086 61.1689 29.7293 62.0103 32.1563H62.3986L61.7189 28.8232H50.5547V29.2439H50.943C52.2697 29.2439 52.4964 29.5675 52.4964 31.2179V42.5763C52.4964 44.2267 52.3022 44.5503 50.943 44.5503H50.5547V44.971H57.0592Z" fill="#212322"/>
<path fill-rule="evenodd" clip-rule="evenodd" d="M91.3914 45.1653V31.0562C91.3914 29.8589 91.9417 29.2117 92.9448 29.2117V28.791H88.8028V29.2117H89.2234C90.2267 29.2117 90.7767 29.8589 90.7767 31.0562V40.8937L81.6833 28.791H77.25V29.2117C78.2208 29.2117 79.1917 29.4706 80.0978 30.6679V42.7059C80.0978 43.9032 79.5478 44.5504 78.5444 44.5504V44.9711H82.7836V44.5504H82.2336C81.2306 44.5504 80.6803 43.9032 80.6803 42.7059V31.3475L91.0678 45.1329H91.3914V45.1653Z" fill="#212322"/>
<path fill-rule="evenodd" clip-rule="evenodd" d="M105.433 44.9711V44.5504H104.754C103.556 44.5504 103.362 44.3563 103.362 43.159V37.3018L106.825 31.93C108.411 29.4706 108.961 29.2117 110.449 29.2117V28.791H104.786V29.2117C106.113 29.2117 106.631 29.5677 106.631 30.3767C106.631 30.9915 106.275 31.6387 105.789 32.383L102.974 36.8487L99.3497 30.765C99.0908 30.3443 98.9613 30.0531 98.9613 29.7942C98.9613 29.4706 99.1555 29.2441 99.8675 29.2441H100.547V28.8234H94.1719V29.2441C95.4341 29.2441 95.9194 29.3411 96.7286 30.7003L101 37.7871V43.1913C101 44.3886 100.806 44.5828 99.6086 44.5828H98.9288V45.0035H105.433V44.9711Z" fill="#212322"/>
<path fill-rule="evenodd" clip-rule="evenodd" d="M163.658 45.0359C164.435 45.0359 165.05 44.4211 165.05 43.6444C165.05 42.8678 164.435 42.2529 163.658 42.2529C162.882 42.2529 162.267 42.8678 162.267 43.6444C162.234 44.4211 162.882 45.0359 163.658 45.0359Z" fill="#212322"/>
</g>
<defs>
<clipPath id="clip0_1350_5634">
<rect width="153.6" height="19.2" fill="white" transform="translate(11.6016 27.2002)"/>
</clipPath>
</defs>
</svg>
