<svg width="177" height="73" viewBox="0 0 177 73" fill="none" xmlns="http://www.w3.org/2000/svg">
<g clip-path="url(#clip0_1214_3972)">
<path fill-rule="evenodd" clip-rule="evenodd" d="M130.066 43.1764V37.1242H136.633V34.0325H130.066V29.2351H138.209V26.1422H126.704V46.2671H139.049V43.1764H130.066ZM120.822 47.0406L120.848 26.1161H117.485L117.538 39.3633L102.776 25.5566L102.75 46.266H106.112L106.059 33.5262L120.822 47.0406ZM96.863 46.266L96.8651 26.1161H93.5036L93.5006 46.266H96.863ZM77.6119 46.2671H89.3008V43.1764H80.9744V26.1161H77.6119V46.2671ZM60.2225 46.2671H72.5687V43.1764H63.5849V37.1242H70.1515V34.0325H63.5849V29.2351H71.7284V26.1422H60.2225V46.2671ZM40.5723 36.0857C40.5723 32.2465 43.1993 28.7549 47.6645 28.7549C49.7134 28.7549 51.7356 29.5012 53.1283 30.8874L54.914 28.5148C54.2577 27.7153 51.7356 25.6631 47.6645 25.6631C41.3602 25.6631 37 30.5137 37 36.165C37 41.9499 41.5968 46.7472 48.0317 46.7472C50.8685 46.7472 53.2332 45.8151 55.0456 44.0552L53.4955 41.8424C52.7077 42.643 50.6855 43.6825 48.19 43.6825C43.6982 43.6825 40.5723 40.2975 40.5723 36.0857Z" fill="#212322"/>
</g>
<defs>
<clipPath id="clip0_1214_3972">
<rect width="102.4" height="22.0863" fill="white" transform="translate(37 25.5566)"/>
</clipPath>
</defs>
</svg>
