<svg width="177" height="73" viewBox="0 0 177 73" fill="none" xmlns="http://www.w3.org/2000/svg">
<g clip-path="url(#clip0_1214_4046)">
<g clip-path="url(#clip1_1214_4046)">
<mask id="mask0_1214_4046" style="mask-type:luminance" maskUnits="userSpaceOnUse" x="24" y="26" width="128" height="13">
<path d="M151.498 26.7432H24.4062V38.6974H151.498V26.7432Z" fill="white"/>
</mask>
<g mask="url(#mask0_1214_4046)">
<path d="M45.7812 26.7432L47.0483 28.184V37.2575L45.7812 38.6974H57.0329V36.4961H49.5513V33.4318H53.9112V31.4172H49.5513V28.8348H56.9426V26.7432H45.7812Z" fill="#212322"/>
<path d="M65.25 26.7432L66.515 28.184V37.2575L65.25 38.6974H75.7153V36.4961H69.0201V26.7432H65.25Z" fill="#212322"/>
<path d="M104.29 26.7432L105.074 27.6359L99.125 38.6974H101.746L103.261 35.711H109.969L111.526 38.6974H114.394L107.879 26.7432H104.29ZM106.644 29.1696L108.908 33.6649H104.305L106.644 29.1696Z" fill="#212322"/>
<path d="M36.6528 28.2541C35.5497 27.2182 34.1397 26.7432 32.0755 26.7432H24.4062L25.6722 28.183V37.2575L24.4062 38.6974H30.9058C32.6633 38.6974 34.2271 38.4426 35.1327 38.0585C36.1683 37.619 36.9616 36.8902 37.5494 35.8839C38.1054 34.9309 38.3179 33.6658 38.3179 32.6526C38.3179 30.8889 37.7103 29.2486 36.6518 28.2541M34.3562 35.6696C33.5857 36.2117 32.4299 36.4783 30.7013 36.4783H28.1733V28.8506H31.9275C34.3621 28.8506 35.6917 30.1867 35.6917 32.6082C35.6917 34.0461 35.2031 35.0721 34.3552 35.6696" fill="#212322"/>
<path d="M91.2807 26.7432L92.1345 27.6912L88.1212 35.4691L83.4724 26.7432H80.5781L87.1422 38.6974H88.8778L95.1331 26.7432H91.2807Z" fill="#212322"/>
<path d="M127.555 26.7432L128.821 28.184V36.3767H122.895V26.7432H120.391V36.1791C120.391 37.1558 120.628 37.7464 121 38.1078C121.365 38.4653 121.947 38.6984 122.894 38.6984H128.709C129.656 38.6984 130.237 38.4663 130.603 38.1078C130.975 37.7464 131.211 37.1558 131.211 36.1791V26.7432H127.555Z" fill="#212322"/>
<path d="M146.409 26.7432L147.034 27.473L144.411 30.8504L140.871 26.7432H137.506L142.662 32.4275L137.484 38.6974H141.746L141.109 37.9548L144.116 34.049L148.135 38.6974H151.5L145.779 32.388L150.48 26.7432H146.409Z" fill="#212322"/>
</g>
</g>
</g>
<defs>
<clipPath id="clip0_1214_4046">
<rect width="128" height="20.8794" fill="white" transform="translate(24.3984 26.3604)"/>
</clipPath>
<clipPath id="clip1_1214_4046">
<rect width="127.092" height="12.7092" fill="white" transform="translate(24.3984 26.7432)"/>
</clipPath>
</defs>
</svg>
