<svg width="177" height="73" viewBox="0 0 177 73" fill="none" xmlns="http://www.w3.org/2000/svg">
<g clip-path="url(#clip0_1214_4039)">
<path fill-rule="evenodd" clip-rule="evenodd" d="M126.157 48.152C125.613 48.152 125.172 47.7086 125.172 47.1618V25.1906C125.172 24.6435 125.613 24.2002 126.157 24.2002H128.324C128.868 24.2002 129.309 24.6435 129.309 25.1906V47.1618C129.309 47.7086 128.868 48.152 128.324 48.152H126.157Z" fill="#212322"/>
<path fill-rule="evenodd" clip-rule="evenodd" d="M112.088 44.5618H109.262V27.822H111.141C115.798 27.822 118.579 30.9926 118.579 36.3042C118.579 42 114.783 44.5618 112.088 44.5618ZM111.209 24.2002H106.11C105.566 24.2002 105.125 24.6435 105.125 25.1904V47.1616C105.125 47.7085 105.566 48.1518 106.11 48.1518H111.209C120.573 48.1518 122.539 41.6993 122.539 36.2865C122.539 28.9444 118.092 24.2002 111.209 24.2002Z" fill="#212322"/>
<path fill-rule="evenodd" clip-rule="evenodd" d="M89.0842 32.0515L89.0844 47.1618C89.0844 47.7086 88.6434 48.152 88.0995 48.152H85.9299C85.3862 48.152 84.9453 47.7086 84.9453 47.1618V25.1906C84.9453 24.6435 85.3862 24.2002 85.9299 24.2002H88.0829C88.7893 24.2002 89.1637 24.3122 89.4495 24.8402L97.8285 40.0693L97.8281 25.1906C97.8281 24.6435 98.269 24.2002 98.8132 24.2002H100.95C101.494 24.2002 101.935 24.6435 101.935 25.1906V47.1618C101.935 47.7086 101.494 48.152 100.95 48.152H98.8784C98.172 48.152 97.7974 48.0402 97.5116 47.5122L89.0842 32.0515Z" fill="#212322"/>
<path fill-rule="evenodd" clip-rule="evenodd" d="M82.1568 26.8089C82.1568 27.3558 81.7158 27.7991 81.1719 27.7991H70.1278V34.0233H79.598C80.1419 34.0233 80.5829 34.4671 80.5829 35.0135V36.6144C80.5829 37.1613 80.1419 37.6046 79.598 37.6046L70.128 37.6044V44.4586H81.1328C81.6769 44.4586 82.1177 44.902 82.1177 45.4489V47.1618C82.1177 47.7086 81.6769 48.152 81.1328 48.152H66.7974C66.2534 48.152 65.8125 47.7086 65.8125 47.1618V25.1906C65.8125 24.6435 66.2534 24.2002 66.7974 24.2002H81.1719C81.7158 24.2002 82.1568 24.6435 82.1568 25.1906V26.8089Z" fill="#212322"/>
<path fill-rule="evenodd" clip-rule="evenodd" d="M47.3984 25.1914C47.3984 24.6445 47.8394 24.2012 48.3833 24.2012H62.6782C63.2222 24.2012 63.6631 24.6445 63.6631 25.1914V26.7854C63.6631 27.3323 63.2222 27.7758 62.6782 27.7758L51.4724 27.7754V33.9721L59.0347 33.9723C59.5784 33.9723 60.0195 34.4156 60.0195 34.9623V36.6859C60.0195 37.2327 59.5784 37.6765 59.0347 37.6765H51.4724V47.1625C51.4724 47.7094 51.0316 48.1527 50.4875 48.1527H48.3833C47.8394 48.1527 47.3984 47.7094 47.3984 47.1625V25.1914Z" fill="#212322"/>
</g>
<defs>
<clipPath id="clip0_1214_4039">
<rect width="82" height="24" fill="white" transform="translate(47.3984 24.2002)"/>
</clipPath>
</defs>
</svg>
