<svg width="177" height="73" viewBox="0 0 177 73" fill="none" xmlns="http://www.w3.org/2000/svg">
<g clip-path="url(#clip0_1214_4046)">
<g clip-path="url(#clip1_1214_4046)">
<path d="M55.4958 37.0208V40.405C55.4958 40.5325 52.6668 41.9617 50.4642 41.9617C49.5459 41.9692 48.6356 41.7849 47.7878 41.4198C46.94 41.0546 46.1721 40.5161 45.5302 39.8366C44.7626 39.0774 44.1523 38.1644 43.7366 37.1533C43.3208 36.1423 43.1083 35.0542 43.112 33.9554C43.112 29.7052 46.2285 25.9332 50.4078 25.8057H50.6234C52.1753 25.8068 53.6697 26.4139 54.8078 27.5057C54.9883 27.6327 55.1207 27.8204 55.1826 28.037V29.583H55.0388C55.042 29.5672 55.042 29.551 55.0388 29.5352C54.8991 28.9375 54.637 28.3778 54.2703 27.8939C53.9036 27.4099 53.4409 27.0131 52.9133 26.7301C52.2872 26.4203 51.6088 26.2398 50.916 26.1988C46.593 25.9172 45.5302 31.1503 45.5302 33.9501C45.5302 37.1696 47.6507 41.4888 50.839 41.4888C53.4061 41.4888 54.5973 39.4328 55.085 38.0409C55.1774 37.6955 55.275 37.3555 55.3571 37.0208H55.4906H55.4958ZM60.9688 41.3082V26.1669H57.9243V26.2944C58.0526 26.2944 59.1565 26.5123 59.1565 27.256V41.3082C59.1571 41.3717 59.1457 41.4347 59.1229 41.4936C59.1 41.5525 59.0662 41.6062 59.0233 41.6516C58.9804 41.697 58.9292 41.7332 58.8728 41.7581C58.8164 41.7831 58.7557 41.7963 58.6944 41.797V41.9351H61.4309V41.797C61.3725 41.7984 61.3144 41.7878 61.26 41.7658C61.2056 41.7438 61.1559 41.7108 61.1139 41.6688C61.0718 41.6268 61.0383 41.5766 61.0152 41.5211C60.992 41.4656 60.9798 41.4058 60.9791 41.3454C60.9791 41.3454 60.9791 41.3454 60.9791 41.3135M166.282 41.3135V26.1669H163.248V26.2944C163.371 26.2944 164.49 26.5123 164.49 27.256V41.3082C164.49 41.3728 164.478 41.4368 164.454 41.4965C164.43 41.5561 164.394 41.6102 164.35 41.6557C164.306 41.7012 164.253 41.7371 164.195 41.7613C164.137 41.7855 164.075 41.7977 164.013 41.797V41.9351H166.734V41.797C166.675 41.7991 166.617 41.7892 166.563 41.7679C166.508 41.7465 166.458 41.7141 166.415 41.6726C166.373 41.6311 166.339 41.5813 166.315 41.526C166.291 41.4708 166.278 41.4112 166.277 41.3507C166.277 41.3507 166.277 41.3507 166.277 41.3135M13.0563 26.3316V26.491C13.6621 26.491 13.9445 26.8948 13.7699 27.3517L9.48286 39.0822L5.25226 27.6545C4.9288 26.7779 5.48843 26.491 6.16615 26.491V26.3316H0.898438V26.491C1.37112 26.4693 1.83853 26.601 2.23529 26.8678C2.63206 27.1345 2.93834 27.5229 3.11129 27.9786L8.27118 41.9564H8.7846L14.0729 27.4898C14.193 27.2023 14.3893 26.9559 14.6392 26.7791C14.8891 26.6023 15.1823 26.5024 15.4848 26.491V26.3316H13.0563ZM172.561 41.9351C174.676 41.9351 175.898 40.4316 175.898 38.8484C175.898 37.5362 174.954 36.7233 173.655 36.3089L172.115 35.7777C170.893 35.3845 170.251 34.9914 170.251 34.0616C170.251 32.9991 171.026 32.3456 172.366 32.3456C173.793 32.3456 174.322 33.4985 174.723 34.7895H174.841V32.9778C174.149 32.3833 173.28 32.0548 172.381 32.0481C170.646 32.0481 169.363 33.2807 169.363 34.9064C169.363 36.8243 170.574 37.2493 171.442 37.5627L173.075 38.1365C173.783 38.3968 174.44 38.7262 174.44 39.8366C174.46 40.0765 174.43 40.318 174.351 40.5444C174.272 40.7709 174.146 40.9768 173.982 41.1481C173.819 41.3194 173.621 41.4518 173.403 41.5363C173.185 41.6209 172.952 41.6554 172.72 41.6376C170.6 41.6376 169.778 39.9588 169.404 38.604H169.301V40.6494C170.232 41.4371 171.385 41.8902 172.587 41.9404M129.598 40.8779C129.72 41.1443 129.908 41.3721 130.144 41.5375C130.38 41.7029 130.654 41.7999 130.938 41.8182V41.9564H126.672V41.8182C126.851 41.8182 127.601 41.627 127.344 40.8991L125.578 36.0752H120.495L118.662 41.0957C118.441 41.696 119.129 41.8129 119.283 41.8129V41.951H117.23V41.8129C117.45 41.8247 117.669 41.7703 117.861 41.6563C118.052 41.5422 118.207 41.3734 118.308 41.1701L123.709 26.2679H124.222L129.583 40.8407M123.021 29.1527L120.772 35.3048H125.275L123.021 29.1527ZM137.982 32.0853C136.206 32.0853 135.456 33.6791 135.22 34.5185H135.189V32.3403H132.961V32.4466C133.07 32.4577 133.172 32.5044 133.253 32.5799C133.334 32.6554 133.39 32.7557 133.413 32.8663V41.4198C133.396 41.5291 133.341 41.6281 133.257 41.6969C133.173 41.7658 133.068 41.7996 132.961 41.7917V41.9298H135.662V41.7917C135.563 41.8036 135.464 41.7778 135.382 41.719C135.301 41.6603 135.243 41.5727 135.22 41.4729V36.3567C135.22 33.9501 136.534 32.5209 137.407 32.5209C137.885 32.5209 138.141 32.8663 138.141 33.4454V34.4601C138.141 34.8373 138.383 35.087 139.004 35.087C139.517 35.087 139.846 34.8426 139.846 34.4601C139.846 32.7706 139.286 32.0853 137.982 32.0853ZM24.5159 41.3985C24.0617 41.7511 23.5074 41.9379 22.9397 41.9298C21.5945 41.9298 21.0862 41.3082 20.8603 40.2457V40.1819V40.3041C20.4675 40.7968 19.9755 41.1947 19.4185 41.47C18.8616 41.7454 18.2532 41.8914 17.636 41.8979C16.3114 41.8979 15.341 41.1382 15.341 39.6878C15.341 36.9836 18.8785 36.4152 20.8654 36.5002H20.927C20.927 35.7351 20.927 35.002 20.927 34.5398C20.927 33.1425 20.5625 32.3031 19.1814 32.3031C18.2521 32.3031 17.2458 32.5847 17.2458 33.6366V34.6301C17.2418 34.7285 17.2192 34.8251 17.1791 34.9145C17.139 35.0038 17.0823 35.084 17.0122 35.1507C16.9421 35.2173 16.86 35.2689 16.7705 35.3027C16.6811 35.3364 16.5862 35.3516 16.4911 35.3473H16.4295C15.5002 35.3473 15.5156 34.9489 15.5156 34.407C15.5156 33.1266 17.0302 32.0056 19.1763 32.0056C21.7434 32.0056 22.6675 33.4613 22.6675 34.9914V40.2563C22.6675 41.0744 22.9499 41.3188 23.3966 41.3932C23.7551 41.4729 24.1294 41.4143 24.4491 41.2285L24.5159 41.3985ZM20.7679 39.725C20.8443 39.488 20.8892 39.2414 20.9014 38.9918C20.9014 38.7262 20.9014 38.4128 20.9014 38.0727C20.9014 38.0356 20.9014 37.9824 20.9014 37.9452V36.8508C19.5305 36.8508 17.1226 37.1324 17.1226 38.9759C17.1029 39.2264 17.1311 39.4784 17.2057 39.7176C17.2802 39.9568 17.3995 40.1785 17.5569 40.3699C17.7142 40.5614 17.9065 40.7188 18.1227 40.8333C18.3389 40.9478 18.5748 41.0171 18.8169 41.0372H19.0531C19.4328 41.0115 19.7968 40.8702 20.0991 40.631C20.4015 40.3919 20.6288 40.0656 20.7525 39.6931M35.231 41.2869V34.9914C35.231 32.9778 33.9526 32.0853 32.0991 32.0853C31.9708 32.0853 31.8373 32.0853 31.714 32.0853H31.596C31.5074 32.0891 31.4195 32.1033 31.3341 32.1278H31.2212C31.1386 32.1393 31.0576 32.1607 30.9799 32.1916C30.9475 32.1964 30.9147 32.1964 30.8823 32.1916C30.7909 32.2222 30.7017 32.2595 30.6153 32.3031H30.5588C30.181 32.4756 29.8338 32.7127 29.532 33.0044C29.4612 33.0599 29.3989 33.1262 29.3472 33.201C29.344 33.2095 29.344 33.219 29.3472 33.2275C29.178 33.406 29.0314 33.6059 28.9108 33.8226L28.88 33.8544C28.8535 33.9074 28.8244 33.9588 28.7927 34.0085V32.3403H26.2564V32.4466C26.3673 32.445 26.4746 32.4877 26.5559 32.5659C26.6371 32.6441 26.6862 32.7517 26.6928 32.8663V41.3666C26.6789 41.4794 26.628 41.5837 26.5485 41.6621C26.469 41.7405 26.3658 41.7881 26.2564 41.797V41.9351H28.9262V41.797C28.8098 41.7776 28.7034 41.7174 28.6249 41.6264C28.5464 41.5355 28.5005 41.4194 28.4949 41.2976V36.4258C28.4949 36.2558 28.4949 36.107 28.4949 35.9477C28.5071 35.8934 28.5157 35.8384 28.5206 35.783C28.5206 35.6926 28.5514 35.5864 28.5616 35.4801C28.5719 35.3739 28.5616 35.4004 28.5976 35.3473C28.7308 34.6191 29.096 33.9581 29.6348 33.4699C30.1737 32.9816 30.8551 32.6943 31.5703 32.6538H31.6216C32.9309 32.6538 33.28 33.0682 33.3673 34.4548C33.3673 34.6992 33.4032 34.9861 33.4032 35.2358V41.2923C33.3949 41.4196 33.3427 41.5396 33.2559 41.6303C33.1692 41.721 33.0538 41.7764 32.9309 41.7863V41.9245H35.6366V41.7863C35.5786 41.7843 35.5216 41.7704 35.4687 41.7455C35.4159 41.7207 35.3684 41.6852 35.3288 41.6413C35.2892 41.5974 35.2584 41.5459 35.2381 41.4896C35.2178 41.4334 35.2084 41.3735 35.2105 41.3135M90.3828 25.8535C89.7763 25.903 89.1872 26.0871 88.6556 26.3933C88.1241 26.6995 87.6625 27.1206 87.3023 27.6279C86.7889 28.3451 86.3627 29.2217 86.3627 31.23V31.7612C86.2703 32.2128 85.8134 32.8769 85.3359 32.8769C85.6974 32.8887 86.0543 32.7908 86.3627 32.5953V41.4835C86.3389 41.5857 86.2843 41.6773 86.2067 41.7452C86.1292 41.813 86.0327 41.8535 85.9314 41.8607V41.9829H88.5807V41.8607C88.4806 41.8629 88.3832 41.8266 88.3074 41.7589C88.2316 41.6912 88.1826 41.5969 88.17 41.4941V32.9619H90.2236V32.3828H88.17V29.3705C88.17 27.1551 89.1301 26.1829 90.2853 26.1829C90.7987 26.1829 91.4456 26.406 91.4456 27.1817V28.2867C91.4456 28.6533 91.6869 28.887 92.303 28.887C92.9191 28.887 93.145 28.6533 93.145 28.2867C93.145 26.9745 92.7086 25.8535 90.4136 25.8535M111.68 35.3633C110.796 35.3633 109.698 36.4683 109.046 37.3821C108.738 37.8018 108.111 38.9759 107.716 39.5975C108.81 40.8779 109.975 41.8076 111.13 40.931L111.207 41.0691C110.599 41.6658 109.789 41.9921 108.951 41.9782C108.114 41.9643 107.314 41.6112 106.725 40.9947C106.725 40.9947 106.648 40.9097 106.612 40.8726C105.777 41.6764 104.672 42.1111 103.532 42.0839C100.194 42.2326 99.3164 40.0385 99.3164 38.6306C99.3164 36.7074 100.857 35.8308 101.765 35.5014L102.084 35.4217L102.299 35.3686L102.017 35.0126C101.48 34.442 101.168 33.6839 101.144 32.8875C101.132 32.1332 101.409 31.4046 101.916 30.8617C102.422 30.3188 103.116 30.0061 103.845 29.9921H104.024C105.739 29.9921 106.766 31.0068 106.766 32.5475C106.771 32.6324 106.771 32.7176 106.766 32.8025C106.766 32.8503 106.766 32.8982 106.766 32.9407C106.769 32.9511 106.769 32.9621 106.766 32.9725C106.718 33.1659 106.649 33.353 106.561 33.5304C106.541 33.5787 106.517 33.6249 106.489 33.6685C106.427 33.7535 106.361 33.8226 106.294 33.9023C105.754 34.4841 105.059 34.8856 104.297 35.0551L105.026 36.0327C105.965 37.2865 106.669 38.2374 107.593 39.3637C107.675 39.2517 107.75 39.1346 107.819 39.0131C108.414 37.8238 108.764 36.5193 108.845 35.1826H111.741V35.3633M103.465 33.9926C103.691 34.2741 103.881 34.5238 104.081 34.7842C104.995 34.3804 105.359 33.8226 105.483 32.505C105.483 31.4425 104.866 30.2152 103.793 30.2152H103.639C102.731 30.364 101.781 31.809 103.465 33.9873M106.325 40.8194C106.381 40.7663 106.443 40.7185 106.509 40.6441L106.463 40.575C104.245 37.738 103.146 36.3249 102.602 35.6555C102.384 35.774 102.176 35.9127 101.981 36.0699C101.695 36.3307 101.473 36.6586 101.334 37.0261C101.235 37.3709 101.187 37.7291 101.19 38.0887C101.312 39.0217 101.708 39.8935 102.325 40.5857C102.756 41.065 103.329 41.3826 103.954 41.4883C104.578 41.5941 105.219 41.4822 105.775 41.1701C105.798 41.1639 105.819 41.1531 105.837 41.1382L105.986 41.0479C106.104 40.9751 106.218 40.8934 106.325 40.8035M72.4387 39.8472C71.8893 40.8088 70.7855 41.9723 68.4545 41.9723C66.2725 41.9723 64.1777 40.0225 64.1777 37.0793C64.1777 34.8692 65.5537 32.7653 67.4893 32.2234C67.7997 32.1314 68.1214 32.0867 68.4443 32.0906H68.7831H68.8139C69.0875 32.1043 69.3592 32.1453 69.6251 32.2128C70.5347 32.3866 71.3523 32.896 71.9264 33.6463C72.5005 34.3967 72.792 35.3371 72.7468 36.293V36.378H66.1904C66.1904 36.6861 66.2366 37.2758 66.2828 37.6796C66.5446 39.6772 67.8846 41.4835 69.5635 41.4835C70.084 41.4785 70.5908 41.3099 71.0165 41.0001C71.363 40.6827 71.6411 40.2936 71.8329 39.8578H72.372L72.4387 39.8472ZM67.0375 33.5676C66.7472 34.3191 66.5739 35.1134 66.5241 35.9211H70.8728C70.8728 34.4229 70.2926 32.4413 68.6753 32.4413H68.4237C68.1194 32.4971 67.8325 32.6282 67.5876 32.8234C67.3427 33.0186 67.1469 33.272 67.017 33.5622M82.8612 39.8791C82.3067 40.8407 81.2131 42.0042 78.877 42.0042C76.695 42.0042 74.6002 40.0544 74.6002 37.1111C74.6002 34.9011 75.9711 32.7972 77.9067 32.2553C78.2173 32.1643 78.5388 32.1196 78.8616 32.1225H79.2005H79.2313C79.5031 32.1367 79.773 32.1776 80.0374 32.2447C80.9454 32.4207 81.7612 32.9308 82.3341 33.6808C82.907 34.4308 83.1981 35.37 83.1538 36.3249V36.4046H76.6744C76.6744 36.7127 76.7155 37.3024 76.7669 37.7062C77.0287 39.7038 78.3739 41.5101 80.0579 41.5101C80.5772 41.5074 81.0829 41.3385 81.5057 41.0266C81.855 40.712 82.1336 40.3221 82.3221 39.8844H82.8612V39.8791ZM77.5267 33.5676C77.2349 34.3186 77.0616 35.1132 77.0133 35.9211H81.362C81.362 34.4229 80.7818 32.4413 79.1594 32.4413H78.9386C78.6341 32.4967 78.3471 32.6276 78.1021 32.8229C77.8571 33.0181 77.6615 33.2718 77.5318 33.5622M161.415 39.8206C160.871 40.7716 159.777 41.9457 157.431 41.9457C155.249 41.9457 153.164 40.0013 153.164 37.058C153.164 34.832 154.54 32.7069 156.465 32.1756C156.774 32.0893 157.091 32.0429 157.41 32.0375C157.523 32.0375 157.641 32.0375 157.749 32.0375H157.775C158.048 32.0508 158.319 32.09 158.586 32.1544C159.493 32.3291 160.308 32.8374 160.88 33.5854C161.453 34.3334 161.745 35.2706 161.702 36.2239V36.3142H155.243C155.249 36.7532 155.279 37.1914 155.336 37.6265C155.593 39.6294 156.938 41.4251 158.617 41.4251C159.138 41.4242 159.646 41.2552 160.07 40.9416C160.407 40.6214 160.683 40.2373 160.881 39.81H161.394L161.415 39.8206ZM156.085 33.5038C155.798 34.2581 155.625 35.0537 155.572 35.8627H159.926C159.926 34.3592 159.346 32.3775 157.718 32.3775H157.492C157.188 32.4316 156.901 32.5621 156.657 32.7575C156.412 32.9529 156.218 33.2073 156.091 33.4985M149.791 33.6419C150.479 34.5987 150.84 35.7648 150.818 36.9571C150.818 39.8578 148.908 41.9457 146.49 41.9245C146.406 41.9319 146.322 41.9319 146.238 41.9245C145.908 41.8965 145.583 41.8214 145.273 41.7013C144.844 41.5297 144.49 41.2032 144.277 40.7822V47.8004H141.227V47.6675C141.355 47.6675 142.459 47.4391 142.459 46.7059V32.8928C142.457 32.8008 142.419 32.7135 142.355 32.6499C142.29 32.5862 142.204 32.5514 142.115 32.5528H142.09V32.42H144.266V33.5622C144.636 33.1466 145.088 32.8178 145.591 32.5979C146.094 32.3779 146.637 32.272 147.183 32.2872C147.686 32.3049 148.18 32.4352 148.63 32.669C149.08 32.9029 149.476 33.2348 149.791 33.6419ZM145.976 41.4251C147.968 41.4251 148.964 39.0556 148.964 36.8827C149 35.7788 148.679 34.6942 148.05 33.8013C147.828 33.5075 147.538 33.2754 147.208 33.1261C146.877 32.9768 146.515 32.9149 146.156 32.946C145.488 32.946 144.272 33.7004 144.272 34.7895C144.265 34.8885 144.265 34.9879 144.272 35.087V39.5603C144.301 39.7562 144.344 39.9497 144.4 40.1394C144.467 40.4068 144.595 40.6536 144.774 40.8589C144.953 41.0642 145.177 41.2219 145.427 41.3188C145.589 41.3919 145.764 41.4281 145.94 41.4251" fill="black"/>
</g>
</g>
<defs>
<clipPath id="clip0_1214_4046">
<rect width="176" height="72" fill="white" transform="translate(0.398438 0.800049)"/>
</clipPath>
<clipPath id="clip1_1214_4046">
<rect width="175" height="22" fill="white" transform="translate(0.898438 25.8)"/>
</clipPath>
</defs>
</svg>
