<svg width="177" height="73" viewBox="0 0 177 73" fill="none" xmlns="http://www.w3.org/2000/svg">
<g clip-path="url(#clip0_1214_4021)">
<path d="M42.9386 38.3945H36.5645V42.9196C36.5645 45.1136 38.643 45.1136 38.9202 45.1136V45.3878H28.8047V45.1136C29.0818 45.1136 31.1603 44.9764 31.1603 42.9196V29.3442C31.1603 27.1502 29.0818 27.1502 28.8047 27.1502V26.876H42.9386C47.3728 26.876 49.5899 29.7556 49.5899 32.6352C49.5899 35.5148 47.5114 38.3945 42.9386 38.3945ZM40.4444 28.1101H36.5645V37.1603H40.4444C43.3543 37.1603 44.74 35.1035 44.74 32.6352C44.74 30.3041 43.3543 28.1101 40.4444 28.1101ZM68.4352 45.5249L59.7054 38.3945V42.9196C59.7054 45.1136 61.7839 45.1136 62.061 45.1136V45.3878H51.9456V45.1136C52.2227 45.1136 54.3012 44.9764 54.3012 42.9196V29.3442C54.3012 27.1502 52.2227 27.1502 51.9456 27.1502V26.876H66.0795C70.5137 26.876 72.7308 29.7556 72.7308 32.6352C72.7308 35.5148 70.6523 38.3945 66.0795 38.3945H61.7839C62.7539 39.3543 64.8324 39.7657 66.6338 39.7657C67.4652 39.7657 68.2966 39.6286 68.9894 39.4915L76.195 45.2507V45.5249H68.4352ZM63.5853 28.1101H59.5668V37.1603H63.5853C66.4952 37.1603 67.8809 35.1035 67.8809 32.6352C67.8809 30.3041 66.4952 28.1101 63.5853 28.1101ZM91.7146 45.5249V45.2507C92.6846 45.2507 93.1003 44.9764 93.1003 44.2908C93.1003 44.0166 92.9617 43.6052 92.8232 43.1938L90.8832 40.04H82.9848L81.5991 42.7824C81.4606 43.1938 81.322 43.6052 81.322 44.0166C81.322 44.7022 81.5991 45.1136 82.4306 45.1136V45.3878H77.5807V45.1136C78.6892 45.1136 79.5206 44.2908 80.2135 42.9196L86.0333 31.4011L84.3705 28.7957C83.5391 27.4245 82.7077 27.1502 81.7377 27.1502V26.876H89.4975L98.9202 43.1938C99.4744 44.1537 100.167 45.2507 101.414 45.2507V45.5249H91.7146ZM86.7262 32.7723L83.6777 38.6687H90.1904L86.7262 32.7723ZM114.44 45.5249H103.354V45.2507C103.631 45.2507 105.71 45.1136 105.71 43.0567V29.4813C105.71 27.2874 103.631 27.2874 103.354 27.2874V27.0131H114.44C119.428 27.0131 124.555 30.167 124.555 36.3376C124.694 42.3711 119.428 45.5249 114.44 45.5249ZM118.32 32.7723C118.32 29.3442 116.103 28.1101 113.747 28.1101H111.114V44.2908H113.747C116.103 44.2908 118.32 43.0567 118.32 39.6286V32.7723ZM139.105 45.5249V45.2507C140.075 45.2507 140.491 44.9764 140.491 44.2908C140.491 44.0166 140.352 43.6052 140.213 43.1938L138.412 40.04H130.514L129.128 42.7824C128.989 43.1938 128.851 43.6052 128.851 44.0166C128.851 44.7022 129.128 45.1136 129.959 45.1136V45.3878H125.11V45.1136C126.218 45.1136 127.049 44.2908 127.742 42.9196L133.562 31.4011L131.899 28.7957C131.068 27.4245 130.237 27.1502 129.267 27.1502V26.876H136.888L146.31 43.1938C146.865 44.1537 147.558 45.2507 148.805 45.2507V45.5249H139.105ZM134.116 32.7723L131.068 38.8058H137.581L134.116 32.7723Z" fill="#212322"/>
</g>
<defs>
<clipPath id="clip0_1214_4021">
<rect width="120" height="19" fill="white" transform="translate(28.8047 26.7002)"/>
</clipPath>
</defs>
</svg>
