<svg width="177" height="73" viewBox="0 0 177 73" fill="none" xmlns="http://www.w3.org/2000/svg">
<g clip-path="url(#clip0_1214_3975)">
<path d="M101.174 27.0488C105.351 27.0488 108.729 30.2433 108.729 34.3875V44.0572H103.574V34.3011C103.574 33.0924 102.596 32.0564 101.262 32.0564C99.9291 32.0564 98.9513 33.0061 98.9513 34.3011V43.9708H93.7958V34.3011C93.618 30.2433 96.9958 27.0488 101.174 27.0488Z" fill="#212322"/>
<path d="M111.04 27.0488C115.218 27.0488 118.595 30.3296 118.595 34.3875V44.0572H113.44V34.3011C113.44 33.0924 112.373 32.0564 111.129 32.0564C111.04 32.0564 110.951 32.0564 110.773 32.0564C110.329 30.3296 109.44 28.7756 108.195 27.5668C109.084 27.2215 110.062 27.0488 111.04 27.0488Z" fill="#212322"/>
<path d="M128.46 28.4307H123.305V44.0576H128.46V28.4307Z" fill="#212322"/>
<path d="M139.661 40.1725V45.439C136.016 44.921 133.172 41.8992 133.172 38.1867V28.4307H138.327V38.1867C138.416 39.0501 138.95 39.7408 139.661 40.1725Z" fill="#212322"/>
<path d="M141.711 45.3527V40.1725C142.511 39.8271 142.955 39.0501 142.955 38.1867V28.4307H148.2V38.1867C148.2 41.8129 145.444 44.921 141.711 45.3527Z" fill="#212322"/>
<path d="M35.7509 27.0488C39.9286 27.0488 43.2175 30.2433 43.2175 34.3875V44.0572H37.9731V34.3011C37.9731 33.0924 36.9064 32.0564 35.662 32.0564C34.4175 32.1427 33.4398 33.0924 33.4398 34.3011V43.9708H28.1953V34.3011C28.1953 30.2433 31.5731 27.0488 35.7509 27.0488Z" fill="#212322"/>
<path d="M45.6179 27.0488C49.7957 27.0488 53.1734 30.3296 53.1734 34.3875V44.0572H47.929V34.3011C47.929 33.0924 46.8623 32.0564 45.6179 32.0564C45.529 32.0564 45.4401 32.0564 45.3512 32.0564C44.9068 30.3296 44.0179 28.7756 42.7734 27.5668C43.6623 27.2215 44.6401 27.0488 45.6179 27.0488Z" fill="#212322"/>
<path d="M62.9524 28.4307H57.7969V44.0576H62.9524V28.4307Z" fill="#212322"/>
<path d="M74.2389 40.1725V45.439C70.5944 44.921 67.75 41.8992 67.75 38.1867V28.4307H72.9056V38.1867C72.9056 39.0501 73.4389 39.7408 74.2389 40.1725Z" fill="#212322"/>
<path d="M76.2812 45.3527V40.1725C76.9924 39.8271 77.5257 39.0501 77.5257 38.1867V28.4307H82.6813V38.1867C82.6813 41.8129 79.9257 44.921 76.2812 45.3527Z" fill="#212322"/>
</g>
<defs>
<clipPath id="clip0_1214_3975">
<rect width="120" height="19" fill="white" transform="translate(28.2031 26.7002)"/>
</clipPath>
</defs>
</svg>
