<svg width="177" height="73" viewBox="0 0 177 73" fill="none" xmlns="http://www.w3.org/2000/svg">
<g clip-path="url(#clip0_1214_3963)">
<path d="M99.5843 47.4186L99.1341 47.3923L99.046 47.1041C98.9726 46.8635 98.4437 44.9797 97.3834 41.1816C97.2827 40.8213 96.7927 39.076 96.294 37.3032C95.7956 35.5303 95.3057 33.7732 95.2057 33.3985C95.1056 33.0237 94.9161 32.3398 94.7845 31.8786C94.3744 30.439 94.0903 29.438 93.9146 28.8125C93.8212 28.481 93.698 28.118 93.6407 28.0059C93.5583 27.8452 92.959 27.1494 92.4474 26.6206C92.4106 26.5825 92.3805 26.4702 92.3805 26.3712V26.2031L98.6515 26.2046L98.6743 26.3652C98.6887 26.489 98.609 26.5993 98.1712 27.0626C97.4942 27.7788 97.4527 27.8424 97.4924 28.1049C97.5194 28.285 97.8961 29.6951 98.6052 32.2717C99.8001 36.6123 100.463 39.0372 100.849 40.4741C101.205 41.7968 101.257 41.9591 101.298 41.863C101.334 41.7803 101.486 41.3385 102.63 37.9845C106.099 27.8223 106.631 26.2363 106.685 26.2031C106.876 26.0862 108.843 26.0831 108.943 26.2031C108.981 26.2484 109.581 28.3437 110.208 30.5945C110.244 30.7242 110.512 31.6558 110.803 32.6647C111.095 33.6737 111.446 34.9001 111.583 35.3901C111.72 35.8802 112.187 37.5175 112.621 39.0285C113.054 40.5396 113.409 41.8073 113.409 41.8456C113.409 41.9795 113.507 41.914 113.56 41.7451C113.669 41.394 114.052 40.2105 114.599 38.5348C114.91 37.5836 115.232 36.593 115.316 36.3335C115.399 36.0741 115.634 35.3548 115.837 34.735C116.04 34.1152 116.485 32.7473 116.825 31.6951C117.165 30.643 117.561 29.4249 117.704 28.9883C117.847 28.5517 117.965 28.1285 117.965 28.0477C117.965 27.8356 117.773 27.5926 117.172 27.0399C116.698 26.6042 116.64 26.5321 116.64 26.3717V26.1919H121.714L121.747 26.324C121.784 26.4668 121.716 26.6341 121.596 26.7008C121.383 26.8187 120.168 28.0709 120.06 28.2842C119.993 28.4162 119.695 29.2554 119.398 30.149C119.101 31.0426 118.445 33.012 117.94 34.5253C117.434 36.0387 116.419 39.0812 115.684 41.2864C114.949 43.4917 114.189 45.7676 113.994 46.3442L113.641 47.3923L112.574 47.4067C111.598 47.4196 111.503 47.4127 111.458 47.3279C111.403 47.2236 110.861 45.4074 109.835 41.8892C109.641 41.2262 109.343 40.212 109.173 39.6355C108.633 37.8145 108.502 37.3672 108.04 35.7832C107.457 33.7791 107.349 33.4135 107.187 32.8753C107.113 32.6298 106.992 32.226 106.917 31.978C106.842 31.73 106.77 31.5381 106.757 31.5516C106.731 31.5766 105.358 35.5878 103.791 40.212C103.312 41.6245 102.567 43.8179 102.135 45.0863L101.35 47.3923L101.01 47.4053C100.823 47.4123 100.527 47.4242 100.352 47.4315C100.177 47.4388 99.832 47.4331 99.5843 47.4186ZM77.3477 47.3033C77.1964 47.1536 77.283 47.0097 77.8203 46.5192C78.1251 46.2409 78.422 45.9166 78.5085 45.7676L78.6604 45.5056L78.6587 36.8577C78.6571 28.7778 78.651 28.1986 78.5658 28.0406C78.5156 27.9476 78.2171 27.5531 77.9023 27.1641C77.4368 26.5888 77.3331 26.4294 77.3467 26.3112L77.3638 26.1657H83.7818C87.3117 26.1657 90.2172 26.1871 90.2335 26.2031C90.2719 26.241 90.7384 28.2717 90.7384 28.3999C90.7384 28.5648 90.3801 28.5223 88.9153 28.1835L87.5557 27.8691H82.2103V35.7832H85.8005L86.4023 35.5173C86.7531 35.3622 87.0925 35.2474 87.2159 35.2421L87.4278 35.2329L87.4556 38.8231H87.261C87.1156 38.8231 86.9214 38.737 86.493 38.4824L85.9197 38.1418H82.1839V45.6366L83.6405 45.6363C85.6165 45.636 87.3936 45.4762 89.2023 45.1361C89.2751 45.1224 89.4182 45.0981 89.5201 45.0821C89.6222 45.0661 89.9475 44.9721 90.2434 44.8731C90.8037 44.6858 91.1101 44.6452 91.1079 44.7587C91.1054 44.8913 90.5135 47.0375 90.4214 47.2482L90.3699 47.3661H83.8906C78.9219 47.3661 77.3965 47.3516 77.3477 47.3033ZM123.138 47.3314C123.118 47.312 123.103 47.2212 123.103 47.1295C123.103 46.9842 123.168 46.9063 123.607 46.5269C123.884 46.2873 124.182 45.9762 124.269 45.8357L124.428 45.5801L124.428 36.8799C124.427 28.8865 124.42 28.1659 124.34 28.0112C124.291 27.9186 124.005 27.5395 123.704 27.1687C123.303 26.6758 123.156 26.4554 123.156 26.3488C123.156 26.2674 123.191 26.1898 123.235 26.1728C123.354 26.1279 135.938 26.1346 136.004 26.1796C136.048 26.2102 136.558 28.3086 136.557 28.4587C136.556 28.5839 135.97 28.4837 134.05 28.0296L133.372 27.8691H127.975L128.002 35.757L131.565 35.7846L132.194 35.5178C132.548 35.3672 132.915 35.247 133.034 35.2419L133.246 35.2329L133.274 38.8231H133.065C132.902 38.8231 132.73 38.7484 132.283 38.4825L131.71 38.1419L127.976 38.1417V45.6486L129.79 45.6216C132.052 45.5879 133.388 45.4508 135.524 45.0331C135.611 45.0161 135.888 44.9326 136.139 44.8476C136.576 44.7 136.927 44.6487 136.928 44.7325C136.929 44.8582 136.211 47.2942 136.164 47.3257C136.092 47.3738 123.186 47.3792 123.138 47.3314Z" fill="#212322"/>
<path d="M63.4854 47.6486C62.7302 47.5699 61.699 47.366 61.0489 47.1668C60.0945 46.8745 58.6905 46.1017 57.7838 45.3695C55.412 43.4545 54.0352 40.836 53.8126 37.8168C53.6929 36.1941 54.0323 34.4207 54.7728 32.7985C56.2282 29.6104 59.1172 27.0868 62.2165 26.296C63.2095 26.0427 63.9021 25.9605 65.0216 25.9629C66.1301 25.9654 66.6775 26.0346 67.6869 26.2997C71.5352 27.3106 74.4812 30.5292 75.2641 34.5777C75.5006 35.8007 75.5098 36.8942 75.2946 38.2465C74.7881 41.4293 73.0189 44.1637 70.3338 45.9133C69.39 46.5284 68.0324 47.1619 67.3787 47.2925C67.3059 47.3073 67.1151 47.3519 66.9549 47.3918C66.1866 47.584 64.2438 47.7277 63.4854 47.6486ZM67.511 45.5817C67.8846 45.5394 68.0335 45.4969 68.1992 45.3856C68.4892 45.1907 69.4771 44.2122 69.7713 43.8283C71.2082 41.9547 71.936 39.7875 71.933 37.3921C71.9301 35.2527 71.3209 33.2515 70.1994 31.6975C68.8764 29.8646 67.0399 28.715 64.7839 28.308C64.0648 28.1782 62.7086 28.1543 61.8936 28.257C61.5135 28.305 61.1402 28.3611 61.0641 28.3818C60.8677 28.4351 60.1232 29.0785 59.6865 29.5724C58.1564 31.3026 57.4041 33.4856 57.4018 36.2025C57.4007 37.3316 57.4748 37.9384 57.7432 38.9998C58.4636 41.848 60.359 44.0371 62.9821 45.0505C63.5658 45.2759 64.5392 45.4893 65.4982 45.6021C65.8572 45.6444 67.0661 45.6321 67.511 45.5817Z" fill="#212322"/>
<path d="M40.1926 47.332C40.1238 47.2638 40.1581 47.0103 40.2498 46.9094C40.3007 46.8533 40.5498 46.6248 40.8032 46.4018C41.1187 46.1238 41.3066 45.9114 41.3991 45.7276L41.5343 45.4593V36.9194C41.5343 30.5461 41.5185 28.3277 41.4722 28.1748C41.4349 28.0515 41.1712 27.676 40.8101 27.2317C40.3697 26.69 40.21 26.455 40.21 26.3486C40.21 26.2647 40.2454 26.1902 40.2938 26.1718C40.4033 26.1302 46.1612 26.1302 46.2707 26.1718C46.318 26.1898 46.3545 26.2643 46.3545 26.3431C46.3545 26.4687 46.272 26.5901 45.8339 27.1099C45.4562 27.558 45.1883 27.9269 45.1158 28.0987C45.0382 28.2828 45.0302 29.1074 45.0302 36.9694V45.6371L46.5796 45.637C48.3163 45.637 48.9696 45.5804 50.5411 45.2943C51.662 45.0902 52.3934 44.8881 53.0958 44.5882C53.5404 44.3984 53.9815 44.314 53.9824 44.4185C53.9827 44.4499 53.4785 46.5029 53.3034 47.1833L53.263 47.3405L46.7455 47.3538C43.161 47.3611 40.2121 47.3512 40.1926 47.332Z" fill="#212322"/>
</g>
<defs>
<clipPath id="clip0_1214_3963">
<rect width="97" height="22" fill="white" transform="translate(40.1016 25.7998)"/>
</clipPath>
</defs>
</svg>
