<svg width="177" height="73" viewBox="0 0 177 73" fill="none" xmlns="http://www.w3.org/2000/svg">
<g clip-path="url(#clip0_1214_3946)">
<path d="M29.4935 42.1082C26.7717 42.1082 25.1326 39.4627 25.1326 36.2009C25.1326 32.9391 26.769 30.2964 29.4935 30.2964C32.2181 30.2964 33.8544 32.9391 33.8544 36.2036C33.8544 39.4682 32.2153 42.1082 29.4935 42.1082ZM29.4935 29.5C25.719 29.5 22.6562 32.5 22.6562 36.2009C22.6562 39.9018 25.7162 42.9018 29.4935 42.9018C33.2708 42.9018 36.3308 39.9018 36.3308 36.2009C36.3308 32.5 33.2681 29.5 29.4935 29.5Z" fill="#212322"/>
<path d="M15.437 41.8248H14.4061V35.6938H14.8507C16.3643 35.6938 18.9061 36.1084 18.9061 38.8929C18.9061 40.7584 17.6434 41.8193 15.4398 41.8193M14.4061 30.5938H15.5434C17.0052 30.5938 17.8098 31.3384 17.8098 32.6884C17.8098 34.1557 16.997 34.8975 15.3907 34.8975H14.4061V30.5938ZM17.1989 35.2411C19.0807 34.6793 19.997 33.8175 19.997 32.6229C19.9807 31.6793 19.4407 30.8229 18.5952 30.4029C17.8507 30.0048 16.6261 29.8057 14.9625 29.8057H11.8125V30.0511C12.328 30.2993 12.3116 31.1284 12.3116 31.7148V40.7066C12.3116 41.2929 12.328 42.122 11.8125 42.3702V42.6157H15.7016C16.4898 42.6157 18.0116 42.5229 19.288 41.8984C20.5616 41.2738 21.2243 40.3111 21.2243 39.0402C21.2243 36.6729 19.1925 35.5411 17.1961 35.2493" fill="#212322"/>
<path d="M36.7969 31.2014H37.0369C37.4596 30.5769 38.1878 30.5769 38.7714 30.5769H39.8214V40.6978C39.8214 41.2841 39.8378 42.1132 39.3223 42.3614V42.6069H42.4041V42.3614C41.8887 42.1132 41.9051 41.2841 41.9051 40.6978V30.5769H42.9551C43.536 30.5769 44.2669 30.5769 44.6869 31.2041H44.9269V29.7969H36.7969V31.2014Z" fill="#212322"/>
<path d="M47.0234 31.2014H47.2634C47.6834 30.5769 48.4143 30.5769 48.9953 30.5769H50.0453V40.6978C50.0453 41.2841 50.0616 42.1132 49.5434 42.3614V42.6069H52.6334V42.3614C52.118 42.1132 52.1343 41.2841 52.1343 40.6978V30.5769H53.1843C53.768 30.5769 54.4962 30.5769 54.9162 31.2041H55.1589V29.7969H47.0234V31.2014Z" fill="#212322"/>
<path d="M145.414 31.2014H145.654C146.074 30.5769 146.805 30.5769 147.386 30.5769H148.436V40.6978C148.436 41.2841 148.45 42.1132 147.934 42.3614V42.6069H151.016V42.3614C150.5 42.1132 150.517 41.2841 150.517 40.6978V30.5769H151.567C152.148 30.5769 152.879 30.5769 153.299 31.2041H153.541V29.7969H145.414V31.2014Z" fill="#212322"/>
<path d="M63.9926 41.8242H59.9589V36.4105H62.8853C63.4771 36.4105 64.3198 36.4023 64.5517 36.9096H64.7944V35.1341H64.5517C64.3226 35.6387 63.4744 35.6305 62.8853 35.6305H59.9589V30.5769H63.4553C64.0389 30.5769 64.7726 30.5769 65.1898 31.2041H65.4298V29.7969H57.2344V30.0369C57.8862 30.4596 57.8807 31.2232 57.8807 31.8232V40.5805C57.8807 41.1805 57.8807 41.9441 57.2344 42.3642V42.6069H65.9589V41.2078H65.7189C65.3207 41.8323 64.5707 41.8351 63.9871 41.8351" fill="#212322"/>
<path d="M118.807 41.8242H114.774V36.4105H117.7C118.289 36.4105 119.135 36.4023 119.364 36.9096H119.609V35.1341H119.364C119.135 35.6387 118.287 35.6305 117.7 35.6305H114.774V30.5769H118.27C118.851 30.5769 119.587 30.5769 120.002 31.2041H120.25V29.7969H112.055V30.0369C112.707 30.4596 112.701 31.2232 112.701 31.8232V40.5805C112.701 41.1805 112.701 41.9441 112.055 42.3642V42.6069H120.779V41.2078H120.539C120.141 41.8242 119.388 41.8242 118.807 41.8242Z" fill="#212322"/>
<path d="M141.677 41.8242H137.644V36.4105H140.57C141.159 36.4105 142.005 36.4023 142.234 36.9096H142.479V35.1341H142.234C142.005 35.6387 141.156 35.6305 140.57 35.6305H137.644V30.5769H141.14C141.721 30.5769 142.455 30.5769 142.872 31.2041H143.112V29.7969H134.922V30.0369C135.576 30.4596 135.571 31.2232 135.571 31.8232V40.5805C135.571 41.1805 135.571 41.9441 134.922 42.3642V42.6069H143.649V41.2078H143.409C143.011 41.8242 142.258 41.8242 141.677 41.8242Z" fill="#212322"/>
<path d="M84.2038 37.6655L86.2056 32.4482L88.1938 37.6655H84.2038ZM91.6902 41.0091L87.3784 29.8382L87.3647 29.8027H86.3938L82.1011 40.9873C81.9484 41.4346 81.5174 42.22 81.0156 42.3536V42.61H83.2165V42.3591C82.7638 42.1409 82.6574 41.77 82.8429 41.2682L83.9202 38.44H88.5074L89.5711 41.2682C89.7565 41.77 89.6447 42.1518 89.1974 42.3618V42.6127H92.642V42.3591C92.1811 42.1873 91.8265 41.3227 91.6983 41.0091" fill="#212322"/>
<path d="M77.4807 36.8607C77.4807 36.8607 78.3261 36.9834 78.3261 38.1752C78.3261 40.5152 76.218 42.0861 74.2516 42.0861C72.7516 42.0861 71.5325 41.4479 70.7307 40.237C70.0407 39.2061 69.738 37.7716 69.738 36.1952C69.738 34.5207 70.0461 33.0943 70.758 32.0716C71.5871 30.8907 72.8198 30.2907 74.4234 30.2907C76.3107 30.2907 77.6852 30.997 78.6589 32.3852C78.7489 32.5134 78.8334 32.647 78.9098 32.7861L79.1471 32.7452V29.8079H78.9098C78.6425 30.0616 78.0207 30.0698 77.5925 30.0234C77.238 29.9798 76.8861 29.9061 76.5398 29.8079C75.7734 29.6007 74.9825 29.497 74.1916 29.4998C72.708 29.4779 71.2598 29.9443 70.0707 30.8279C68.388 32.1016 67.2971 34.2561 67.2971 36.3152C67.2834 38.1207 68.0334 39.8443 69.3671 41.0607C70.7061 42.2661 72.4516 42.9234 74.2543 42.9016C76.6843 42.9016 78.6671 41.8134 79.8425 39.8361C80.4589 38.8052 80.6116 38.0252 80.7152 36.6207H77.4807V36.8607Z" fill="#212322"/>
<path d="M156.86 37.6655L158.854 32.4509L160.856 37.6655H156.86ZM164.349 41.0091L160.035 29.8382L160.021 29.8027H159.05L154.757 40.9873C154.605 41.4346 154.174 42.22 153.672 42.3536V42.61H155.873V42.3591C155.42 42.1409 155.314 41.77 155.499 41.2682L156.576 38.44H161.164L162.227 41.2682C162.413 41.77 162.301 42.1518 161.854 42.3618V42.6127H165.298V42.3591C164.837 42.1873 164.483 41.3227 164.355 41.0091" fill="#212322"/>
<path d="M108.033 30.0478C108.551 30.296 108.538 30.7351 108.439 31.0487L105.399 39.7732L102.535 31.3023C102.437 31.0323 102.259 30.3505 102.898 30.0505V29.7996H99.4531V30.0505C99.8731 30.2196 100.203 30.8851 100.378 31.3978L104.196 42.6069H105.265L109.159 31.4196C109.323 30.9423 109.757 30.1869 110.237 30.0532V29.7969H108.033V30.0478Z" fill="#212322"/>
<path d="M130.859 30.0369C131.268 30.2987 131.266 31.0951 131.266 31.3487V38.3441L125.282 29.8214L125.266 29.7996H122.727V30.0396C123.359 30.446 123.354 31.1905 123.354 31.7714V41.0551C123.354 41.3087 123.354 42.1051 122.947 42.3669V42.6069H124.592V42.3669C124.183 42.1051 124.186 41.3087 124.186 41.0551V32.0987L131.555 42.6069H132.095V31.3487C132.095 31.0951 132.095 30.2987 132.501 30.0369V29.7969H130.857V30.0369H130.859Z" fill="#212322"/>
</g>
<defs>
<clipPath id="clip0_1214_3946">
<rect width="153.6" height="13.9636" fill="white" transform="translate(11.8047 29.2188)"/>
</clipPath>
</defs>
</svg>
