<svg width="177" height="73" viewBox="0 0 177 73" fill="none" xmlns="http://www.w3.org/2000/svg">
<path d="M32.272 46.3762C32.5529 45.7633 32.4241 44.9638 32.941 44.4817C32.9449 44.647 32.9815 44.8098 33.0485 44.9604C33.1155 45.1111 33.2116 45.2464 33.331 45.3586C33.6236 45.4062 33.7796 45.1404 33.9161 44.9479C33.9864 44.8187 34.0213 44.6727 34.0172 44.5251C34.013 44.3775 33.9701 44.2337 33.8927 44.1088L33.6743 43.8688C33.8459 43.7993 34.0643 43.8985 34.2594 43.9243C34.6065 43.9779 34.9732 44.2873 35.3184 44.0156C35.5017 43.845 35.6577 43.6426 35.5622 43.3788C35.4932 43.2352 35.3803 43.1182 35.2404 43.0455C35.0538 42.9922 34.8549 43.0055 34.6767 43.0832C34.78 42.9353 34.9199 42.8179 35.0823 42.743C35.2447 42.6681 35.4238 42.6383 35.6012 42.6567C35.8284 42.6822 36.0439 42.7722 36.2233 42.9163C36.4026 43.0605 36.5385 43.2531 36.6153 43.472C37.1556 42.8055 37.1322 41.6708 36.709 40.9407L36.5841 40.7939C36.8806 40.8177 37.1556 41.0102 37.4325 41.1669C37.6276 40.7701 37.9728 40.3119 38.4272 40.175C38.3648 40.4309 38.279 40.7701 38.4818 40.9824C38.7002 41.278 39.1332 41.2443 39.4413 41.1689C39.5313 41.1288 39.6098 41.0664 39.6698 40.9874C39.7298 40.9083 39.7693 40.8152 39.7846 40.7166C39.7902 40.6329 39.7716 40.5494 39.7311 40.4764C39.6905 40.4035 39.6298 40.3442 39.5564 40.3059C39.4004 40.2821 39.1976 40.2603 39.0864 40.3992C38.9928 40.4765 38.9694 40.6253 38.8582 40.663C38.6866 40.2663 38.8836 39.8398 39.0864 39.5065C39.1488 39.437 39.2678 39.3597 39.219 39.2664C38.898 38.8846 38.6242 38.4642 38.4038 38.0147C38.7646 38.1793 39.1254 38.3956 39.533 38.3896C39.613 38.0068 39.7768 37.5505 40.1922 37.4176L40.4419 37.4414C40.3658 37.6596 40.1844 37.8758 40.3112 38.1238C40.3338 38.1983 40.3775 38.2644 40.4368 38.3138C40.4961 38.3632 40.5684 38.3937 40.6447 38.4015C40.7463 38.4008 40.8459 38.3731 40.9338 38.3213C41.0217 38.2694 41.0948 38.1952 41.1459 38.1059C41.5555 37.2529 40.8943 36.4614 40.3385 35.8167C39.8221 35.3378 39.1531 35.0645 38.4545 35.047C38.6315 34.7625 38.8973 34.5466 39.2093 34.434C39.3887 34.3646 39.5993 34.5967 39.6793 34.3804C39.7807 33.9599 39.7963 33.3886 40.3385 33.2775H40.3931C40.3307 33.6207 40.3307 34.0293 40.5511 34.3011C40.8787 34.2713 41.3039 34.186 41.6003 34.3963C41.7206 34.4676 41.8238 34.565 41.9027 34.6816C41.9816 34.7982 42.0342 34.9311 42.0567 35.0708C41.8617 35.041 41.7427 34.8149 41.5223 34.924C41.3643 34.9934 41.3819 35.1878 41.4131 35.3208C41.4551 35.4209 41.5222 35.5082 41.6078 35.5736C41.6934 35.6391 41.7944 35.6805 41.9007 35.6937C42.0097 35.7005 42.1182 35.6746 42.2128 35.6192C42.3075 35.5639 42.3841 35.4815 42.4331 35.3822C42.79 34.5034 42.2888 33.6961 41.6042 33.1009C41.142 32.5256 39.7846 31.8512 39.7612 31.7956C40.1739 31.5536 40.6559 31.4632 41.1264 31.5397C41.2064 31.5 41.2766 31.4008 41.22 31.3155C41.0718 30.9724 40.6349 30.8097 40.5238 30.4605C40.1673 29.6696 39.9685 28.8147 39.9387 27.9451C40.0011 27.9451 40.0245 28.0384 40.0947 28.0384C40.1649 27.9689 40.0947 27.84 40.1513 27.7587C40.2371 27.5603 40.3209 27.2766 40.5823 27.231C40.5179 27.4472 40.3872 27.7428 40.4692 28.0384C40.5511 28.334 40.6837 28.6752 40.9977 28.814C41.1413 28.7075 41.2536 28.563 41.3224 28.3962C41.3911 28.2294 41.4137 28.0467 41.3877 27.8678C41.7094 28.1926 41.8929 28.6328 41.8987 29.0937C42.0938 29.0779 42.2595 28.9231 42.4468 28.8537C42.6929 28.7464 42.9662 28.7221 43.2269 28.7843C43.0011 28.9647 42.8329 29.209 42.7433 29.4864C42.6538 29.7639 42.647 30.0621 42.7237 30.3435C42.7632 30.5259 42.854 30.6927 42.9851 30.8236C43.0865 30.6688 43.0319 30.4506 43.0631 30.2642C43.0319 30.0479 43.2444 29.9448 43.3849 29.8297C43.4551 29.9388 43.3849 30.1015 43.4414 30.2265C43.717 30.7052 43.8295 31.2631 43.7613 31.8135C43.7613 31.8452 43.8081 31.875 43.8315 31.9067C44.0675 31.7996 44.1143 31.5099 44.1923 31.2937L44.2879 30.8811C45.068 31.8055 44.516 33.1942 44.2469 34.1979C44.2095 34.3807 44.2293 34.5707 44.3035 34.7415C44.3651 34.8186 44.4479 34.8752 44.5414 34.9042C44.6348 34.9332 44.7346 34.9332 44.8281 34.9042C45.2923 34.6701 45.0797 34.0492 45.4561 33.7318C45.7233 34.2217 45.6765 34.9597 45.4873 35.4874C45.6878 35.4785 45.8863 35.5303 46.0578 35.6363C46.2293 35.7422 46.366 35.8975 46.4507 36.0825L46.6185 36.5328C46.4937 36.5804 46.3825 36.4555 46.2655 36.4237C45.8636 36.2745 45.4299 36.2368 45.009 36.3145C44.5881 36.3923 44.1951 36.5827 43.8705 36.8661C43.7282 36.9978 43.6234 37.166 43.5671 37.3531C43.5108 37.5402 43.5051 37.7393 43.5506 37.9294C43.5693 38.0213 43.6058 38.1085 43.6581 38.1858C43.7103 38.2631 43.7772 38.329 43.8549 38.3797C43.9506 38.4252 44.0566 38.4435 44.1616 38.4327C44.2667 38.4218 44.3669 38.3823 44.4517 38.3182C44.6467 38.1317 44.6643 37.8679 44.8417 37.6675C44.9607 37.8838 44.8515 38.1397 44.8573 38.3797C44.7922 38.7576 44.6323 39.1121 44.3931 39.4089C44.154 39.7056 43.8437 39.9346 43.4921 40.0738C43.1684 40.3139 42.8466 40.6491 42.9246 41.0657C42.9519 41.1255 43.0006 41.1725 43.0607 41.1972C43.1208 41.2219 43.1879 41.2224 43.2483 41.1986C43.5155 41.1034 43.576 40.8177 43.6638 40.6233C43.8588 40.9883 44.0324 41.5378 43.773 41.9425C43.907 42.2326 43.9971 42.5416 44.0402 42.859C44.0402 43.1784 44.0558 43.5514 43.8919 43.8212H43.851C43.7655 43.4771 43.5888 43.1634 43.3401 42.9144C43.0915 42.6653 42.7805 42.4904 42.4409 42.4087C41.8785 42.2866 41.2914 42.3866 40.7988 42.6884C40.7145 42.7544 40.6512 42.8441 40.6165 42.9464C40.5819 43.0486 40.5774 43.1589 40.6037 43.2637C40.7519 43.6902 41.2707 43.6129 41.6393 43.6188C41.7095 43.6025 41.7805 43.5899 41.8519 43.5811C41.7945 43.8453 41.6534 44.083 41.4502 44.2576C41.4268 44.3647 41.5535 44.456 41.5984 44.567C41.726 44.8728 41.7672 45.2088 41.7174 45.5371C41.1128 44.942 40.3833 44.5214 39.4979 44.6285C39.4002 44.659 39.3128 44.7168 39.2459 44.7954C39.179 44.874 39.1352 44.9702 39.1195 45.0729C39.0571 45.6383 39.8821 45.5926 39.7787 46.1739C39.144 45.9375 38.4781 45.799 37.8031 45.7633C37.218 45.7315 36.3657 45.7256 36.0673 46.3385C36.081 46.4801 36.1274 46.6164 36.2026 46.7364C36.2778 46.8564 36.3798 46.9566 36.5003 47.0289C36.6095 47.1142 36.8591 47.1221 36.8357 47.2709C36.5315 47.6419 35.9269 47.5962 35.5173 47.4554C35.4705 47.4713 35.3925 47.4256 35.3691 47.4951C35.3379 47.743 35.4783 47.9236 35.5407 48.1319C35.1253 48.233 34.7489 47.9989 34.4817 47.6815C34.0542 48.1282 33.4769 48.3945 32.8649 48.4274C32.8259 48.2707 32.9839 48.1001 32.9039 47.9454C32.5138 48.0684 32.2291 48.4116 31.8995 48.6675C31.3663 49.1479 30.9321 49.7311 30.622 50.3834C30.7434 50.3785 30.864 50.405 30.9725 50.4605C31.081 50.516 31.1738 50.5987 31.2422 50.7008C31.3013 50.7953 31.3287 50.9066 31.3203 51.0182C31.1545 51.0182 30.9595 50.802 30.7937 50.9032C30.4883 51.0996 30.2499 51.3871 30.1111 51.7264C30.2612 51.8038 30.4485 51.7879 30.5674 51.9248C30.4407 52.1033 30.2281 52.2283 30.1345 52.4307C30.048 52.6145 29.9757 52.8048 29.918 53H27.8955C27.8545 52.9116 27.8275 52.8172 27.8156 52.7203C27.7079 52.4122 27.5019 52.1496 27.2305 51.9744C27.2461 51.6947 27.8351 51.8891 27.6069 51.54C27.3943 51.284 27.1525 50.8496 26.776 50.8873C26.6746 50.9349 26.5947 51.0341 26.4776 51.042C26.4074 50.8952 26.5088 50.7623 26.5713 50.6453C26.7297 50.4853 26.9351 50.3822 27.1564 50.3517C26.7409 49.4193 25.8691 48.5663 24.9896 47.9831C24.9428 47.9831 24.9135 47.9513 24.8569 47.9692C24.8101 48.1319 24.9584 48.3104 24.8803 48.4651C24.2764 48.4269 23.7083 48.161 23.2869 47.7192C23.1699 47.8841 23.0132 48.0157 22.8319 48.1015C22.6506 48.1873 22.4507 48.2244 22.2513 48.2092C22.2513 47.9692 22.4776 47.7113 22.3449 47.4633C21.9549 47.6419 21.3503 47.7034 20.9797 47.4098C20.9296 47.3728 20.896 47.3172 20.8861 47.255C21.0519 47.1439 21.2469 47.1142 21.3951 46.9595C21.5434 46.8047 21.7033 46.5627 21.6389 46.3227C21.1767 45.6303 20.1723 45.8089 19.4195 45.8565C18.9207 45.9395 18.4295 46.0643 17.9509 46.2294C17.9395 46.1505 17.9449 46.0699 17.9668 45.9932C17.9887 45.9166 18.0265 45.8456 18.0777 45.7851C18.2415 45.5867 18.6023 45.5371 18.5867 45.2276C18.5987 45.1196 18.5761 45.0105 18.5224 44.9165C18.4686 44.8226 18.3866 44.7487 18.2883 44.7059C17.6506 44.6097 17.001 44.769 16.4765 45.1503L15.9889 45.5768C15.94 45.3642 15.9395 45.143 15.9875 44.9302C16.0355 44.7173 16.1307 44.5185 16.2658 44.3488C16.059 44.1585 15.9073 43.9143 15.827 43.6426C16.2346 43.6882 16.8392 43.7597 17.0733 43.3629C17.1116 43.2689 17.121 43.1652 17.1001 43.0657C17.0792 42.9661 17.029 42.8753 16.9562 42.8055C16.657 42.5875 16.3067 42.4534 15.9405 42.4165C15.5742 42.3796 15.2049 42.4412 14.8694 42.5952C14.3097 42.7936 13.9742 43.3887 13.8494 43.8985C13.7636 43.8985 13.746 43.7835 13.6992 43.714C13.6192 43.4353 13.5952 43.1431 13.6287 42.8547C13.6622 42.5663 13.7525 42.2878 13.8943 42.0358C13.7909 41.8182 13.7452 41.5769 13.7616 41.3358C13.778 41.0946 13.856 40.8621 13.9879 40.661C13.9879 40.661 14.1829 41.159 14.4442 41.2363C14.4982 41.2581 14.5582 41.259 14.6128 41.2389C14.6674 41.2188 14.7129 41.1791 14.7407 41.1272C14.8285 40.7086 14.5067 40.3813 14.1771 40.1353C13.4145 39.8874 12.8898 39.0879 12.7865 38.3499C12.7577 38.153 12.7446 37.9539 12.7475 37.7548C12.7475 37.7548 13.0927 38.5166 13.5569 38.5007C13.6471 38.4974 13.7352 38.4726 13.8142 38.4281C13.8932 38.3836 13.9607 38.3208 14.0113 38.2448C14.1003 38.0813 14.145 37.8968 14.1409 37.7099C14.1368 37.5231 14.084 37.3408 13.9879 37.1815C13.4164 36.4138 12.3808 36.2273 11.4876 36.4733C11.3062 36.4733 11.195 36.6717 11 36.6717C11.1014 36.2293 11.3296 35.6798 11.8484 35.5767C11.942 35.5628 12.059 35.6084 12.1292 35.539C11.9342 34.9795 11.903 34.2971 12.1702 33.7695C12.6012 34.1007 12.3418 35.3842 13.2448 34.8645C13.5276 34.4896 13.276 34.0095 13.1648 33.6365C12.8762 32.8133 12.7182 31.6409 13.2994 30.895C13.4106 31.2521 13.432 31.6647 13.7148 31.9444C13.7714 31.9662 13.8084 31.9047 13.826 31.865C13.761 31.2891 13.8792 30.7071 14.1634 30.2046C14.1872 30.0915 14.2185 29.9802 14.257 29.8714C14.6568 30.0697 14.4989 30.53 14.6178 30.8632C14.7655 30.6745 14.8613 30.4493 14.8956 30.2106C14.9299 29.9719 14.9013 29.7282 14.8129 29.5044C14.7047 29.2391 14.5386 29.0024 14.3272 28.812C14.8304 28.6811 15.2458 28.9529 15.6632 29.1314C15.7627 28.9608 15.6924 28.7347 15.7958 28.5561C15.8879 28.3114 16.0294 28.0891 16.2112 27.9035C16.1847 28.0921 16.2128 28.2845 16.2921 28.4572C16.3714 28.6298 16.4985 28.7752 16.6578 28.8755C16.8775 28.6924 17.0356 28.4442 17.1101 28.1655C17.1845 27.8867 17.1717 27.5912 17.0733 27.3203C17.3873 27.4234 17.475 27.7487 17.4906 28.0364L17.6642 27.9729C17.6727 28.9356 17.4398 29.8846 16.9874 30.7303C16.808 31.0021 16.4024 31.1648 16.4238 31.506C16.4238 31.506 17.4828 31.5695 17.8748 31.8234C17.8748 31.9484 16.3146 32.7498 15.747 33.4481C15.5091 33.6532 15.3251 33.9152 15.2114 34.2105C15.0977 34.5059 15.0579 34.8254 15.0956 35.1402C15.1756 35.3822 15.2907 35.7076 15.591 35.7611C15.7004 35.7845 15.8143 35.7717 15.916 35.7246C16.0178 35.6775 16.1021 35.5985 16.1566 35.4993C16.219 35.3505 16.2814 35.2037 16.1722 35.047C16.0786 34.924 15.9362 34.9696 15.8114 35.0153C15.7415 35.0858 15.65 35.1299 15.552 35.1402C15.552 34.8466 15.8036 34.6066 16.0396 34.434C16.3516 34.2555 16.7768 34.3011 17.1142 34.3963C17.1984 34.2733 17.2541 34.1324 17.2771 33.9843C17.3 33.8362 17.2897 33.6848 17.2468 33.5413L17.1532 33.3548C17.2106 33.3309 17.273 33.3219 17.3347 33.3289C17.3964 33.3358 17.4554 33.3584 17.5062 33.3945C17.8826 33.6722 17.9138 34.1226 18.0153 34.5272C18.1591 34.4729 18.3153 34.4615 18.4653 34.4946C18.6153 34.5276 18.7528 34.6037 18.8617 34.7137C18.9959 34.8561 19.1215 35.0064 19.2381 35.164C18.4794 35.0787 17.7188 35.4517 17.1532 36.0567C16.7827 36.4703 16.5151 36.9683 16.3731 37.5088C16.3555 37.8818 16.4589 38.2547 16.8119 38.4253C16.8646 38.451 16.9222 38.4644 16.9806 38.4644C17.039 38.4644 17.0967 38.451 17.1493 38.4253C17.2406 38.3511 17.308 38.2508 17.3428 38.1373C17.3775 38.0238 17.3781 37.9024 17.3444 37.7885C17.3444 37.6735 17.1181 37.5624 17.2507 37.4692C17.5647 37.4077 17.7832 37.6417 17.9489 37.8659C18.1615 38.0187 17.9489 38.6098 18.3956 38.4233C18.7024 38.3417 18.9974 38.2197 19.2732 38.0603C19.2732 38.0603 18.7447 38.9689 18.456 39.3656C18.6247 39.5292 18.7525 39.7313 18.8289 39.9553C18.9052 40.1792 18.9278 40.4185 18.8948 40.6531C18.8636 40.6769 18.8636 40.7067 18.8324 40.7225C18.7603 40.7225 18.7447 40.6154 18.7057 40.5599C18.6632 40.4965 18.6074 40.4435 18.5423 40.4047C18.4772 40.3659 18.4044 40.3424 18.3293 40.3357C18.2298 40.344 18.1336 40.3759 18.0484 40.4289C17.9882 40.4844 17.9449 40.5564 17.9238 40.6363C17.9027 40.7161 17.9047 40.8005 17.9294 40.8792C17.9696 40.9818 18.037 41.0711 18.1241 41.1369C18.2113 41.2028 18.3147 41.2427 18.4229 41.2522C18.6433 41.274 18.9104 41.2978 19.0821 41.159C19.19 41.0793 19.2713 40.9681 19.3153 40.84C19.3592 40.712 19.3636 40.5734 19.3278 40.4428C19.3181 40.3654 19.2459 40.3119 19.2459 40.2266C19.7179 40.3119 20.0728 40.7939 20.2679 41.1907C20.4629 41.1589 21.0207 40.7939 21.1319 40.8177C21.0912 40.8985 21.0407 40.9738 20.9817 41.0419C20.6287 41.7799 20.5585 42.859 21.1162 43.5176C21.1942 43.3029 21.3281 43.1137 21.5037 42.9704C21.6792 42.8271 21.8898 42.7351 22.1129 42.7043C22.286 42.6801 22.4623 42.6992 22.6264 42.76C22.7906 42.8209 22.9377 42.9216 23.0549 43.0534V43.1308C22.9477 43.0813 22.8304 43.0588 22.7129 43.0654C22.5954 43.0719 22.4812 43.1073 22.38 43.1685C22.2942 43.2331 22.2296 43.3227 22.1948 43.4254C22.16 43.5281 22.1566 43.6391 22.185 43.7438C22.2327 43.8509 22.3054 43.9445 22.3969 44.0164C22.4883 44.0884 22.5957 44.1364 22.7096 44.1564C23.1972 44.1247 23.6048 43.845 24.0983 43.8906C23.9571 43.9897 23.8496 44.1308 23.7902 44.2945C23.7309 44.4582 23.7227 44.6365 23.7667 44.8051C23.8623 45.0372 24.0515 45.3705 24.3518 45.4002C24.6951 45.2752 24.7672 44.8725 24.7984 44.5313C24.8374 44.4698 24.853 44.5532 24.892 44.5472C25.2997 45.0967 25.2548 45.8347 25.5122 46.4476C26.3119 47.38 27.2305 48.3739 28.2271 49.0563C28.3441 48.9095 28.2505 48.7151 28.1881 48.5683C28.1154 48.4481 28.0135 48.3491 27.8922 48.2806C27.7709 48.2122 27.6344 48.1767 27.4957 48.1775C27.5425 48.0386 27.7161 47.9791 27.8565 47.9613H28.1939C28.2329 47.8125 28.0613 47.6954 27.9521 47.6042C27.8097 47.5169 27.6205 47.5328 27.4801 47.4554C27.5816 47.3466 27.7113 47.2693 27.8542 47.2325C27.9971 47.1956 28.1473 47.2007 28.2875 47.2471C28.3173 47.2711 28.3513 47.2888 28.3878 47.2994C28.4243 47.3099 28.4624 47.3131 28.5001 47.3086C28.4126 47.1028 28.2992 46.9094 28.1627 46.7333C27.9579 46.4285 27.7124 46.1541 27.4333 45.918C27.3825 45.9303 27.3354 45.9547 27.2957 45.9892C27.256 46.0237 27.225 46.0673 27.2051 46.1164C27.1505 46.2413 27.3085 46.3247 27.2207 46.4119C27.1713 46.413 27.1229 46.3975 27.083 46.3677C27.0431 46.3379 27.0141 46.2956 27.0003 46.2473L26.9223 45.9696C26.0895 45.8902 25.6137 45.067 25.1163 44.4778C24.9213 44.1604 24.7087 43.8013 24.8511 43.3986C24.9081 43.2712 24.9917 43.158 25.0961 43.0669C25.2005 42.9757 25.3232 42.9089 25.4557 42.8709C26.3021 42.7301 26.8521 43.6843 27.3143 44.2377C27.5094 44.5551 27.7473 44.8666 27.6751 45.2931C27.759 45.2982 27.8404 45.3233 27.913 45.3663C27.9855 45.4094 28.047 45.4693 28.0925 45.5411C28.0769 45.5887 28.1296 45.6026 28.1081 45.6502C27.9891 45.6502 27.8234 45.5728 27.718 45.7057C27.9905 46.0498 28.292 46.3691 28.6191 46.6599C28.6735 46.1261 28.7002 45.5897 28.699 45.0531C28.582 44.9975 28.4787 45.1364 28.4163 45.2237C28.3753 45.2455 28.4163 45.3149 28.3538 45.3149C28.2271 45.3149 28.2349 45.184 28.1881 45.1165C28.1647 44.9459 28.2583 44.823 28.2973 44.6742C28.0471 44.3484 27.8888 43.9596 27.8393 43.5493C27.7898 43.139 27.851 42.7228 28.0164 42.3452C28.1017 42.184 28.2284 42.0493 28.3829 41.9553C28.5374 41.8614 28.7141 41.8118 28.8941 41.8118C29.0741 41.8118 29.2507 41.8614 29.4053 41.9553C29.5598 42.0493 29.6864 42.184 29.7717 42.3452C29.9362 42.7231 29.9968 43.1393 29.947 43.5495C29.8972 43.9596 29.7389 44.3483 29.4889 44.6742C29.5279 44.823 29.6235 44.9459 29.6001 45.1165C29.5513 45.1939 29.5591 45.3348 29.4343 45.3149C29.3641 45.3149 29.4109 45.2455 29.3719 45.2237C29.3075 45.1364 29.2061 44.9975 29.0891 45.0531C29.0863 45.5897 29.1124 46.1261 29.1671 46.6599C29.4948 46.3691 29.7969 46.0499 30.0701 45.7057C29.9609 45.5728 29.7951 45.6422 29.68 45.6502C29.6566 45.6026 29.7113 45.5887 29.6937 45.5411C29.7392 45.4693 29.8007 45.4094 29.8732 45.3663C29.9458 45.3233 30.0272 45.2982 30.1111 45.2931C30.0409 44.8666 30.2749 44.5551 30.4719 44.2377C30.9341 43.6843 31.4841 42.7301 32.3325 42.8709C32.4648 42.9085 32.5875 42.9753 32.6916 43.0665C32.7958 43.1577 32.8789 43.2711 32.9351 43.3986C33.0775 43.7954 32.8747 44.1604 32.6699 44.4778C32.1745 45.0729 31.6947 45.8902 30.8639 45.9696L30.7859 46.2473C30.7724 46.2958 30.7434 46.3383 30.7035 46.3682C30.6636 46.398 30.615 46.4134 30.5655 46.4119C30.4797 46.3247 30.6357 46.2413 30.583 46.1164C30.5629 46.0675 30.5318 46.024 30.4921 45.9896C30.4525 45.9551 30.4055 45.9306 30.3549 45.918C30.0758 46.1541 29.8303 46.4285 29.6254 46.7333C29.485 46.911 29.3689 47.1071 29.2802 47.3165C29.3557 47.3252 29.4314 47.3031 29.4909 47.255C29.6311 47.2086 29.7813 47.2035 29.9242 47.2404C30.0671 47.2773 30.1968 47.3546 30.2983 47.4633C30.1579 47.5407 29.9687 47.5248 29.8283 47.6121C29.7191 47.7034 29.5474 47.8105 29.5845 47.9692H29.918C30.0604 47.991 30.2339 48.0466 30.2788 48.1854C30.1408 48.1817 30.0041 48.214 29.8819 48.2793C29.7596 48.3446 29.6559 48.4407 29.5806 48.5584C29.5182 48.7052 29.4246 48.8996 29.5435 49.0464C30.5382 48.364 31.4763 47.3106 32.274 46.3762M126.142 47.5129C126.142 47.4098 126.142 47.3384 126.154 47.2491C126.117 47.1896 126.045 47.2372 126.01 47.2491C124.498 48.3005 122.952 49.342 120.984 49.2328C120.673 49.1543 120.404 48.9568 120.233 48.6814C119.862 47.9593 120.307 46.7809 120.293 46.7571C118.795 47.6776 117.309 48.6218 115.679 49.1952C115.509 49.1594 115.074 49.4213 115.16 49.088C118.632 47.2897 121.805 44.9466 124.561 42.1449C125.284 42.1449 126.901 42.1568 126.87 42.1449C125.395 43.591 123.024 45.9537 121.604 47.4475C121.393 47.6736 121.062 47.9494 121.194 48.3104C121.701 48.8222 122.571 48.5088 123.08 48.2846C124.783 47.3641 126.573 46.0747 127.812 44.5512C129.245 43.124 131.082 42.1889 133.064 41.8771C133.706 41.8295 134.31 42.008 134.661 42.5476C134.685 42.5952 134.685 42.6547 134.745 42.6904C134.985 42.6666 135.318 42.3234 135.494 42.1409C136.225 42.1409 136.933 42.1409 137.618 42.1409C137.195 42.736 133.801 46.5052 132.569 47.8938C132.519 47.943 132.489 48.0092 132.484 48.0796C132.48 48.1501 132.502 48.2196 132.545 48.2747C132.76 48.4102 133.019 48.4537 133.265 48.3957C134.63 48.2449 135.59 47.1717 136.623 46.2671C138.133 44.6801 139.744 42.859 141.637 41.9267C142.24 41.7005 143.124 41.6033 143.666 42.01C144.126 42.3928 144.101 42.98 144.251 43.4819C144.758 43.3728 145.164 42.857 145.556 42.5853C145.838 42.3899 146.143 42.2294 146.463 42.1072C147.114 41.8552 148.023 41.6866 148.661 42.131C149.168 42.6686 149.191 43.47 148.951 44.1386C148.869 44.3498 148.751 44.5441 148.6 44.7119C147.561 45.8009 146.509 46.894 145.48 47.989C145.343 48.1259 145.201 48.2747 145.249 48.5008C145.6 48.8123 146.059 48.5266 146.408 48.4195C147.557 47.9533 148.584 47.1162 149.528 46.2374C150.942 43.845 153.48 42.2699 156.115 41.8731C156.754 41.8255 157.357 42.004 157.71 42.5436C157.731 42.5912 157.731 42.6507 157.792 42.6864C158.034 42.6626 158.367 42.3194 158.543 42.1369C159.274 42.1369 159.984 42.1369 160.667 42.1369C160.243 42.7321 156.85 46.5012 155.619 47.8898C155.569 47.9387 155.539 48.0049 155.534 48.0753C155.529 48.1457 155.551 48.2154 155.594 48.2707C155.847 48.4155 156.234 48.3441 156.512 48.2965C159.643 47.255 162.143 44.4222 164.522 41.8989C164.578 41.8322 164.65 41.7809 164.73 41.7497C164.811 41.7185 164.897 41.7084 164.983 41.7204C165.055 41.9187 164.885 42.1032 164.776 42.2718C162.455 45.1404 159.582 48.0664 156.222 49.2388C155.557 49.3955 154.724 49.3836 154.289 48.8083C154.078 48.6318 154.182 48.2965 153.938 48.2707C152.955 48.9897 151.746 49.3133 150.543 49.1793C149.977 49.0603 149.359 48.5465 149.263 47.9494C149.28 47.7811 149.25 47.6114 149.177 47.4594C147.754 48.4393 146.314 49.4669 144.43 49.2447C144.187 49.2348 143.869 48.7865 143.816 48.4691C143.679 47.6558 144.401 47.1182 144.865 46.521C145.939 45.4432 146.979 44.3548 147.986 43.2558C148.12 43.0931 148.048 42.8848 148.011 42.7301C147.902 42.492 147.648 42.4662 147.426 42.4186C146.591 42.4186 145.987 42.9701 145.372 43.4839C143.521 45.4082 141.667 47.1658 139.863 49.1019C139.127 49.1019 137.446 49.1237 137.421 49.1019C138.968 47.4891 140.852 45.795 142.326 44.1187C142.663 43.7378 143.161 43.2895 143.075 42.5654C142.88 42.2421 142.49 42.3492 142.182 42.3671C140.38 43.0257 138.884 44.7952 137.542 46.158C136.639 47.1618 135.631 48.116 134.509 48.6794C134.081 48.9179 133.629 49.11 133.161 49.2527C132.496 49.4094 131.664 49.3975 131.229 48.8222C131.018 48.6457 131.119 48.3104 130.878 48.2846C129.895 49.0031 128.687 49.3267 127.484 49.1932C126.915 49.0741 126.3 48.5604 126.203 47.9632C126.167 47.8142 126.145 47.6622 126.136 47.509M129.138 45.2713C128.375 46.1362 127.137 47.3602 127.277 48.2846C127.309 48.3603 127.357 48.4277 127.417 48.4816C127.478 48.5356 127.55 48.5747 127.628 48.5961C129.875 48.8837 131.18 46.6242 132.641 45.2376C133.161 44.6861 133.741 44.1723 134.006 43.5157C134.101 43.2518 133.959 43.0257 133.836 42.8332C133.534 42.4861 132.966 42.5357 132.58 42.6547C131.299 43.1923 130.154 44.1247 129.136 45.2713M152.183 45.2713C151.42 46.1362 150.182 47.3602 150.322 48.2846C150.353 48.3604 150.401 48.428 150.462 48.482C150.523 48.536 150.595 48.575 150.673 48.5961C152.92 48.8837 154.225 46.6242 155.688 45.2376C156.206 44.6861 156.787 44.1723 157.053 43.5157C157.152 43.2518 157.006 43.0257 156.885 42.8332C156.583 42.4861 156.015 42.5357 155.629 42.6547C154.348 43.1923 153.203 44.1247 152.185 45.2713M127.416 38.7249C127.777 38.5582 128.196 38.338 128.635 38.4987C128.75 38.5391 128.856 38.6035 128.945 38.6879C129.034 38.7723 129.105 38.8747 129.154 38.9887C129.218 39.3041 129.187 39.6321 129.064 39.9291C128.941 40.226 128.732 40.4779 128.465 40.6511C128.251 40.8039 128 40.8955 127.739 40.9164C127.478 40.9373 127.216 40.8868 126.981 40.7701C126.885 40.7112 126.804 40.6313 126.743 40.5362C126.682 40.4411 126.643 40.3332 126.628 40.2206C126.619 39.9239 126.686 39.6299 126.823 39.3676C126.96 39.1054 127.162 38.8839 127.408 38.7249M106 43.4958C106.117 43.4614 106.241 43.4564 106.361 43.4813C106.481 43.5061 106.593 43.5601 106.688 43.6386C107.123 44.1663 106.99 44.9916 106.688 45.5272C106.469 45.9196 106.136 46.233 105.734 46.4238C106.193 47.6141 107.49 48.1457 108.718 48.1457C115.81 48.0505 119.761 40.4091 123.712 35.6302C125.826 32.569 128.152 29.6647 130.671 26.9394C127.18 24.8227 122.224 25.767 118.903 27.5722C115.547 29.2782 112.611 31.7297 110.312 34.7455C109.649 35.7235 109.067 37.0288 109.649 38.2488C110.384 39.5144 111.87 39.7168 113.272 39.6215C118.649 38.7725 123.609 34.0273 125.801 29.1076C126.055 28.4153 126.273 27.719 126.466 26.9909C126.489 29.3596 125.296 31.3195 124.087 33.2438C121.657 36.7887 118.093 39.9786 113.853 40.4408C111.993 40.6233 110.241 40.1195 109.153 38.6138C108.428 37.0486 108.935 35.1343 109.738 33.7615C113.025 28.8477 118.245 26.134 123.718 25.2314C126.353 24.8485 129.009 25.158 131.172 26.4216C131.196 26.4216 135.785 21.8848 139.061 21.2817C139.112 21.2936 139.196 21.2579 139.231 21.3174C136.599 22.45 134.222 24.1181 132.247 26.2193C132.102 26.4454 131.728 26.616 131.837 26.9116C133.635 28.4986 134.7 30.8097 133.865 33.1664C133.298 34.8506 131.691 36.4872 129.867 36.751C129.019 36.8344 128.151 36.6082 127.753 35.8068C127.209 34.5153 127.983 33.2596 128.877 32.3035C129.735 31.5099 130.714 30.9902 131.898 30.9763C132.019 31.014 132.188 31.0239 132.212 31.1568C131.761 31.1682 131.323 31.3055 130.944 31.5536C129.59 32.3074 128.2 33.7357 128.272 35.3446C128.33 35.5317 128.436 35.7 128.578 35.8324C128.721 35.9647 128.895 36.0565 129.083 36.0984C129.795 36.1698 130.287 35.7691 130.798 35.3208C132.719 33.6286 133.614 31.3989 132.682 29.0679C132.387 28.3824 131.9 27.8006 131.281 27.3956C128.982 29.8495 126.164 35.295 126.115 35.2831C124.931 37.2926 123.736 39.3002 122.091 41.1173C119.254 44.5849 115.64 46.9039 111.798 48.3163C109.974 48.8539 107.472 49.1098 105.902 47.8264C104.983 46.9753 104.5 45.7335 104.983 44.5254C105.072 44.291 105.209 44.0784 105.384 43.9013C105.559 43.7243 105.769 43.5868 106 43.4978M89.4433 46.0549C89.0533 46.521 88.6106 46.9892 88.3921 47.5387C88.3509 47.6827 88.3542 47.8361 88.4016 47.978C88.4491 48.12 88.5384 48.2437 88.6574 48.3322C89.2015 48.7032 90.0479 48.6337 90.6272 48.3937C91.9503 47.8095 93.1517 46.9739 94.167 45.9319C94.1589 45.5391 94.251 45.1509 94.4342 44.8051C94.577 44.5608 94.7693 44.3503 94.9983 44.1875C95.2273 44.0246 95.4877 43.9133 95.7623 43.8608C95.9086 43.7418 95.8716 43.5137 95.8833 43.3113C95.8774 43.1666 95.8368 43.0255 95.7651 42.9003C95.6934 42.7752 95.5927 42.6697 95.4717 42.5932C95.1272 42.4657 94.7532 42.4449 94.3971 42.5337C92.4995 43.0713 90.7968 44.4698 89.4433 46.0469M71.0305 47.2669C70.9386 47.3835 70.8708 47.5177 70.8312 47.6616C70.7917 47.8054 70.7812 47.956 70.8003 48.1041C71.1143 48.5822 71.756 48.6179 72.2982 48.5584C73.9423 48.1755 75.2587 47.0388 76.5655 45.8684C76.5523 45.6765 76.5641 45.4838 76.6006 45.2951C76.7585 44.6008 77.4587 43.9441 78.1355 43.7418C78.2447 43.5434 78.1959 43.2974 78.2447 43.0832C78.2401 42.9536 78.2031 42.8273 78.1373 42.7162C78.0714 42.6052 77.9788 42.513 77.8683 42.4484C76.6844 42.0794 75.5006 42.7122 74.5937 43.5137C73.3079 44.6645 72.1163 45.9197 71.0305 47.2669ZM76.1286 28.08C73.8553 30.6862 71.8175 33.4953 70.0397 36.4733C70.3846 36.4123 70.7244 36.3241 71.0558 36.2095C75.4148 34.3924 79.6801 32.2043 83.1477 28.3796C83.8459 27.4472 84.7782 26.5268 84.4759 25.2472C84.3179 24.6858 83.6958 24.4537 83.2063 24.3268C80.271 24.1284 78.1218 26.0249 76.1266 28.0959M47.8901 47.8343C47.7594 47.9057 47.5 48.0228 47.5995 48.231C47.6989 48.4393 47.9505 48.5068 48.1436 48.602C49.3548 48.8778 50.7668 48.8004 51.974 48.6615C52.7234 48.6665 53.465 48.5075 54.1486 48.1953C52.2666 47.5149 49.8852 47.0467 47.8901 47.8264M47.0202 47.5962C49.0642 46.3425 51.9389 46.8226 54.2949 47.0844C54.88 47.1797 55.4904 47.2273 56.0599 47.3701C56.7601 47.1717 57.3647 46.7373 58.0102 46.4139C59.1343 45.6911 60.2117 44.896 61.236 44.0334C61.2848 44.0572 62.7963 42.4464 62.8314 42.3968C63.8533 41.1391 64.8285 39.8457 65.7744 38.5582V38.4749C64.5789 38.5225 63.434 38.5979 62.0688 38.4174C60.3896 38.1972 58.9893 37.491 57.6007 36.1797C55.7791 34.4618 56.0775 31.5893 56.9844 30.1788C58.6987 27.5603 60.885 26.0606 64.1381 24.7751C65.5033 24.2375 67.0636 23.9498 67.7715 23.805C69.8876 23.5194 72.3274 23.2317 74.4416 23.7217C74.4903 23.7475 74.4669 23.7931 74.4669 23.8427C74.4669 23.8923 74.3694 23.8784 74.3226 23.926C68.2318 23.5075 62.5291 25.0489 58.7845 29.9507C57.7801 31.3731 57.0078 33.4659 58.0044 35.1382C59.9137 37.8163 63.5628 38.1635 66.5857 37.4096C67.1708 36.8145 67.5999 36.1083 68.1206 35.4616C71.1631 31.6131 74.7029 27.3679 78.9078 24.7493C80.468 23.9122 82.5685 23.075 84.3569 24.0312C84.715 24.2765 84.9883 24.6301 85.1381 25.0419C85.2878 25.4538 85.3066 25.9031 85.1917 26.3264C84.0546 29.6293 80.5109 31.9345 77.7122 33.7635C74.9993 35.3844 72.1171 36.6925 69.1192 37.6636C66.1937 41.8592 61.8328 45.0154 57.6416 47.4792C57.6416 47.5625 57.7372 47.5625 57.7859 47.5962C59.9835 47.7939 62.1916 47.8423 64.3955 47.7411C66.7027 47.4435 68.8656 46.7968 70.6658 45.303C72.2007 43.2221 74.3714 41.5597 77.0082 41.5736C77.7454 41.6331 78.5801 41.8731 78.8337 42.6607C79.0287 43.2816 78.7361 43.9283 78.7498 44.5849C78.7361 44.6702 78.6659 44.7416 78.6874 44.8368C78.7849 44.9678 78.9292 44.8487 79.0384 44.8368C80.2481 44.0468 81.3846 43.1464 82.4339 42.1469C82.471 41.3534 82.59 40.5202 83.3642 40.1016C83.5222 40.0798 83.6782 39.9588 83.8577 40.054C83.9444 40.0738 84.0232 40.1198 84.0838 40.186C84.1444 40.2522 84.1838 40.3355 84.197 40.425C84.2341 41.1411 83.6548 41.6152 83.2433 42.1469C83.9552 42.5297 85.1936 42.0993 85.4179 43.1744C85.5505 44.4917 84.4154 45.3149 83.5944 46.2473C82.9059 46.9277 82.0965 47.6101 81.4802 48.3382C81.4586 48.3752 81.4458 48.4168 81.4428 48.4597C81.4398 48.5026 81.4467 48.5457 81.463 48.5854C81.4793 48.6251 81.5045 48.6604 81.5367 48.6884C81.5688 48.7165 81.6069 48.7365 81.6479 48.7468C82.8688 49.0146 84.3335 48.2668 85.4784 47.622C86.7831 46.7135 87.8577 45.4399 88.9889 44.2615C90.6993 42.4762 92.9285 41.3573 95.4659 41.881C95.707 41.9667 95.9258 42.1069 96.1059 42.2911C96.2859 42.4753 96.4226 42.6986 96.5054 42.9443C96.7609 43.6982 96.2753 44.3211 96.3591 45.0372C96.5171 45.1701 96.6751 45.0729 96.8194 45.0134C98.7288 43.3391 100.422 41.3553 102.015 39.4787C102.161 39.4311 102.21 39.5521 102.243 39.6453C101.918 40.3754 101.362 41.0082 100.878 41.6787C99.345 43.3649 97.8706 45.5867 95.7194 46.3643C95.3294 46.5468 95.0914 46.3762 94.7891 46.4476C93.2289 47.872 91.5867 49.1019 89.5233 49.342C89.1428 49.3991 88.7542 49.3398 88.4069 49.1717C88.0596 49.0035 87.7693 48.7341 87.573 48.3977C87.2902 47.9394 87.3429 47.0448 87.3058 47.0448C85.8918 48.235 84.3218 49.0543 82.5217 49.342C81.7611 49.4491 80.9283 49.3181 80.5285 48.6595C80.0331 46.5329 82.4242 45.2872 83.7426 43.9501C83.9376 43.6267 84.5227 43.4839 84.3823 43.0653C83.8526 42.9011 83.3049 42.8045 82.7518 42.7777C82.0751 43.1368 81.5426 43.8668 80.9029 44.3211C79.9278 45.0967 78.9526 45.7791 77.8214 46.1858C77.0238 46.0172 76.7117 46.9991 76.1188 47.3106C74.5001 48.5008 72.5556 49.9748 70.4629 48.9948C69.6828 48.5524 69.714 47.6062 69.8232 46.8127L69.7608 46.7512C68.577 47.2907 67.4419 47.9414 66.1723 48.2687C62.9114 49.1773 58.9347 49.3935 55.5899 48.5326C53.4036 49.3697 50.7921 49.6197 48.3035 49.2725C47.7184 49.1198 46.9149 49.0345 46.7433 48.3283C46.7356 48.1907 46.7575 48.0531 46.8073 47.925C46.8572 47.7969 46.9338 47.6813 47.0319 47.5863M31.5992 28.0523C31.7844 27.3718 32.0165 26.7628 32.1413 26.0804C31.6401 25.6837 30.6025 24.8901 30.6025 24.8901H32.5529C32.8181 24.2851 33.0092 23.5908 33.292 22.9937C33.5729 23.5888 33.7737 24.2851 34.039 24.8901H35.9893C35.9893 24.8901 34.9537 25.6837 34.4525 26.0804C34.5773 26.7628 34.8172 27.3917 34.9946 28.0523L33.2979 26.8779L31.5992 28.0523ZM22.8111 37.5624C22.9963 36.884 23.2265 36.2749 23.3533 35.5905C22.8481 35.1938 21.8145 34.4003 21.8145 34.4003H23.7648C24.0359 33.7933 24.2231 33.1009 24.5059 32.5058C24.7887 33.1009 24.9876 33.7992 25.2548 34.4062H27.2051C27.2051 34.4062 26.1695 35.1997 25.6663 35.5965C25.797 36.2749 26.0369 36.9038 26.2124 37.5624L24.5195 36.39L22.8111 37.5624ZM26.2124 24.914C26.267 24.8842 26.306 24.7592 26.386 24.8207C26.4659 24.8822 26.464 24.9695 26.5498 24.9834C26.7448 25.0151 26.8775 24.7513 27.0413 24.9457C27.1056 24.9616 27.1856 24.9457 27.209 25.0072C26.895 24.8584 26.6376 25.3028 26.3626 24.9834C26.2222 25.0369 26.072 25.1818 25.914 25.0786C25.953 24.9695 26.1266 24.9993 26.2124 24.914ZM25.7814 23.3071C25.8126 23.1821 25.68 23.081 25.7658 22.9738C25.8613 22.958 25.8828 23.0671 25.914 23.1206C25.9217 23.1737 25.9187 23.2277 25.9053 23.2795C25.8919 23.3313 25.8683 23.3799 25.836 23.4222C25.7268 23.438 25.6176 23.6205 25.5142 23.5174C25.602 23.4321 25.7268 23.438 25.7814 23.3071ZM25.327 23.4936C25.3874 23.4777 25.4284 23.5253 25.4693 23.5313C25.3562 23.6027 25.4284 23.7654 25.3075 23.7971C25.2868 23.7771 25.2708 23.7527 25.2604 23.7257C25.2501 23.6986 25.2457 23.6696 25.2476 23.6407C25.2494 23.6118 25.2575 23.5836 25.2712 23.5582C25.2849 23.5328 25.304 23.5107 25.327 23.4936ZM24.7887 25.3028C24.8199 25.0072 25.1963 25.1322 25.3738 24.9695C25.5688 24.7434 25.3016 24.4021 25.522 24.176C25.5236 24.0693 25.5131 23.9628 25.4908 23.8586C25.5766 23.8189 25.6858 23.8427 25.6858 23.9518C25.6858 24.176 25.5278 24.3625 25.5903 24.5886C25.5903 24.6819 25.6215 24.8445 25.5122 24.9219C25.3543 25.2552 24.8452 25.0151 24.8374 25.4416C24.7828 25.5428 24.6424 25.4972 24.5702 25.4813C24.6951 25.5051 24.736 25.3643 24.7828 25.2948M22.2221 23.8884C22.3878 23.8665 22.3001 24.0768 22.38 24.1443C22.4375 24.2296 22.5234 24.2909 22.6219 24.3168C22.8969 24.4557 23.0451 23.9598 23.2577 24.2772C23.3195 24.294 23.3852 24.2866 23.4419 24.2564C23.4986 24.2263 23.5421 24.1757 23.5639 24.1145C23.5951 23.805 24.0515 24.1542 24.1295 23.7733C24.2309 23.6404 24.0573 23.3607 24.2796 23.3071C24.3191 23.2706 24.3446 23.2211 24.3513 23.1673C24.3581 23.1134 24.3459 23.0589 24.3167 23.0135C24.2952 23.0036 24.2952 22.9738 24.2952 22.958C24.4045 22.9024 24.4903 23.0353 24.5059 23.1206C24.5293 23.3924 24.2231 23.4936 24.3343 23.7733C24.3 23.855 24.2465 23.9268 24.1784 23.9825C24.1104 24.0382 24.03 24.0761 23.9442 24.0927C23.6146 23.9836 23.7492 24.4398 23.4508 24.4101C23.2694 24.4636 23.168 24.1443 23.0022 24.3168C22.8852 24.4954 22.6492 24.4498 22.4756 24.426C22.4 24.3987 22.3324 24.3524 22.2792 24.2913C22.226 24.2302 22.1889 24.1564 22.1714 24.0768C22.1653 24.0432 22.1672 24.0087 22.1766 23.976C22.1861 23.9432 22.203 23.9132 22.226 23.8884M32.902 32.2519C32.9359 32.2476 32.9703 32.2533 33.0011 32.2685C33.0319 32.2836 33.0578 32.3075 33.0755 32.3372C33.0689 32.3636 33.057 32.3883 33.0405 32.4098C33.0241 32.4313 33.0035 32.4491 32.98 32.4622C32.9195 32.4423 32.8161 32.5038 32.7849 32.4106C32.7849 32.3759 32.7954 32.3421 32.8149 32.3137C32.8344 32.2853 32.8621 32.2637 32.8942 32.2519M37.5534 22.7517C37.5534 22.224 37.6022 21.7261 37.963 21.3353H28.8999V30.5756H37.5534V22.7517ZM21.9744 40.0104H27.1427C27.8214 39.933 28.5469 40.2226 28.898 40.7285V30.7204H20.1899V37.8937L20.2445 38.4253C20.3593 38.8273 20.582 39.1887 20.8876 39.469C21.1932 39.7494 21.5695 39.9375 21.9744 40.0123M23.4157 26.3859C24.0437 26.864 23.677 27.7448 23.872 28.4173C23.8233 29.062 24.0359 29.8912 23.482 30.3733C23.5288 30.4506 23.638 30.3733 23.7102 30.4268C23.9364 30.4506 24.0846 30.2403 24.2952 30.2642C24.4009 30.3458 24.5254 30.3987 24.6568 30.4178C24.7882 30.4369 24.9222 30.4215 25.0461 30.3733C24.6561 29.8376 24.7165 29.1156 24.6307 28.455C24.6697 27.834 24.4357 27.0505 24.9135 26.5922C24.9376 26.5014 24.9438 26.4066 24.9317 26.3133C24.9197 26.22 24.8896 26.1301 24.8433 26.0487C24.5527 26.1102 24.4123 26.3601 24.2172 26.5684C24.1295 26.6378 24.0729 26.5307 24.0105 26.4752C23.7297 26.0784 23.4254 25.6678 23.3533 25.1659C23.363 25.1163 23.4176 25.1103 23.4625 25.1163C23.6731 25.513 23.7921 25.9475 24.0885 26.3066L24.1841 26.3224C24.3791 26.0883 24.6385 25.7273 24.9915 25.8166C25.3816 25.9971 24.9915 26.5625 25.4069 26.7192C25.514 26.747 25.6264 26.7465 25.7332 26.7177C25.8401 26.6889 25.9379 26.6327 26.0174 26.5545L26.2612 26.8342C26.433 26.8809 26.6139 26.8809 26.7858 26.8342C26.8907 26.7906 26.9795 26.7148 27.04 26.6174C27.1005 26.5199 27.1296 26.4057 27.1232 26.2907C27.1856 26.2133 27.2558 26.3383 27.3514 26.2907C27.4145 26.2687 27.4688 26.2265 27.5061 26.1702C27.5434 26.114 27.5617 26.047 27.5581 25.9792C27.2207 25.6757 27.8487 25.7372 27.8019 25.4337C27.8219 25.3674 27.8273 25.2975 27.8175 25.2289C27.8077 25.1602 27.7831 25.0947 27.7453 25.0369C27.6517 24.9973 27.5815 24.904 27.4645 24.9437C27.3709 24.8743 27.4801 24.787 27.4411 24.6957C27.2461 24.4974 27.5425 24.3129 27.4411 24.0669C27.4411 23.926 27.2753 23.9181 27.1973 23.8407C27.207 23.8252 27.2133 23.8077 27.2158 23.7894C27.2183 23.7711 27.2169 23.7525 27.2118 23.7349C27.2066 23.7172 27.1977 23.7008 27.1858 23.6869C27.1739 23.673 27.1592 23.6619 27.1427 23.6543C26.8911 23.6225 27.1427 23.4281 27.0647 23.321C26.9633 23.1802 26.8131 23.2655 26.6863 23.2436C26.6863 23.0095 26.6473 22.7695 26.4055 22.6683C26.2397 22.591 26.1227 22.7239 25.9901 22.7774C25.9257 22.7457 25.9413 22.6763 25.9179 22.6287C25.8711 22.4422 25.6683 22.3886 25.5278 22.3331C25.396 22.2989 25.2573 22.3047 25.1287 22.3498C25.0001 22.395 24.8873 22.4774 24.8043 22.587C24.6619 22.4382 24.6619 22.1526 24.4142 22.0811C24.0242 22.1903 23.5346 21.849 23.2596 22.2279C23.244 22.5949 22.9768 22.2994 22.774 22.3628C22.7242 22.3629 22.6753 22.3766 22.6324 22.4024C22.5896 22.4282 22.5543 22.4653 22.5302 22.5096C22.5458 22.8052 22.2318 22.8052 22.0602 22.9203C22.01 22.9776 21.975 23.0471 21.9586 23.1221C21.9422 23.1971 21.945 23.2752 21.9666 23.3488C21.9178 23.4182 21.8242 23.3706 21.754 23.3865C21.518 23.5333 21.5804 23.8447 21.6272 24.053C21.5336 24.1462 21.399 24.1165 21.282 24.1462C21.1494 24.2415 21.0226 24.3724 21.0772 24.5589C20.9617 24.6349 20.8778 24.7517 20.8418 24.8868C20.8058 25.022 20.8202 25.1659 20.8822 25.2909C21.1006 25.3345 21.046 25.5765 21.0304 25.7313C21.0276 25.8344 21.0553 25.9361 21.1099 26.0231C21.1645 26.1101 21.2435 26.1784 21.3366 26.2193C21.6818 26.1498 21.4537 26.5525 21.6506 26.6616C21.7755 26.7628 21.9393 26.7152 22.066 26.7251C22.0875 26.7846 22.066 26.864 22.1051 26.9235C22.1675 27.0485 22.3547 27.0167 22.4815 27.0009L22.6531 27.2191C22.6952 27.2576 22.7453 27.2858 22.7997 27.3016C22.8541 27.3174 22.9114 27.3204 22.9671 27.3103C23.1621 27.3203 23.1621 26.9473 23.3669 27.1635C23.4781 27.1635 23.4937 27.0405 23.4781 26.9394C23.2243 26.5837 23.0153 26.1972 22.8559 25.7888L22.3878 25.8047C22.2767 25.8047 22.1265 25.6202 22.0504 25.8205C22.0007 25.846 21.9465 25.8612 21.8909 25.8653C21.8353 25.8693 21.7795 25.8622 21.7267 25.8443C21.663 25.8072 21.6108 25.7524 21.5763 25.6865C21.5418 25.6205 21.5263 25.5459 21.5317 25.4714C21.5629 25.4476 21.5707 25.394 21.6253 25.4178C21.6799 25.4416 21.6584 25.4793 21.6799 25.5111C21.7043 25.5582 21.7416 25.5972 21.7872 25.6232C21.8329 25.6493 21.8851 25.6613 21.9373 25.6579C22.1597 25.3861 22.3274 25.8562 22.5829 25.6956C22.7545 25.6202 22.7096 25.4178 22.8267 25.2988C22.8852 25.2988 22.9359 25.2988 22.969 25.3424C23.077 25.7044 23.227 26.052 23.4157 26.378M29.6059 34.4896C29.5279 35.0093 29.3329 35.4814 29.2685 36.017C29.3153 36.0329 29.2529 36.1262 29.3231 36.0964C29.5513 35.7393 29.5747 35.3029 29.7405 34.924C29.7015 34.7256 29.9355 34.4558 29.6605 34.3646C29.6296 34.2641 29.638 34.1554 29.684 34.0611C29.9121 33.5731 29.9121 32.7498 30.6591 32.7181C30.8093 32.8569 31.0609 32.7657 31.2247 32.8728C31.3125 33.0712 31.564 33.0374 31.6967 33.0712C31.5387 32.6209 31.8917 32.2876 31.8215 31.8194C31.8226 31.6855 31.7844 31.5543 31.7118 31.4427C31.6392 31.331 31.5354 31.2439 31.4139 31.1925C31.1233 31.0993 30.7391 31.0993 30.5265 31.3393C30.2593 31.992 29.9414 32.6288 29.6391 33.2735C29.4831 33.6227 29.2783 34.1503 29.6001 34.4836M29.918 37.9353C29.8166 37.981 29.6664 37.9195 29.5728 37.9988C29.7308 37.9988 29.7932 38.1853 29.84 38.2924C29.9139 38.2028 30.0121 38.1373 30.1224 38.1041C30.2327 38.0709 30.3502 38.0716 30.4602 38.1059C30.3822 37.975 30.1228 38.0524 30.1793 37.8262L31.2364 36.2968C31.5192 35.9714 31.8488 35.6302 32.2876 35.7016C32.3561 35.7519 32.404 35.826 32.4222 35.9099C32.3988 35.9099 32.391 35.9575 32.3676 35.9496C32.2506 35.7949 32.0614 35.9099 31.9268 35.9496C31.7318 36.0746 31.5192 36.2293 31.5192 36.4713C31.5522 36.4831 31.5877 36.4857 31.6221 36.4787C31.6564 36.4717 31.6882 36.4555 31.7142 36.4317C31.8312 36.3702 31.9561 36.4634 32.0516 36.4475C32.0793 36.4346 32.1091 36.4274 32.1395 36.4263C32.1699 36.4252 32.2003 36.4302 32.2287 36.4411C32.2572 36.452 32.2833 36.4685 32.3054 36.4897C32.3276 36.5109 32.3454 36.5363 32.3578 36.5646C32.3658 36.6762 32.3579 36.7885 32.3344 36.8978C32.506 36.5011 32.7966 36.0904 32.6016 35.6084C32.567 35.5461 32.5205 35.4914 32.4649 35.4475C32.4094 35.4035 32.3458 35.3713 32.2779 35.3525C32.1503 35.3217 32.017 35.3263 31.8918 35.3657C31.7667 35.4052 31.6541 35.478 31.566 35.5767C31.0063 36.3702 30.4894 37.1637 29.9082 37.9373M30.1033 34.4578C29.9823 34.8863 29.7873 35.2831 29.7795 35.7611C29.79 35.7756 29.8046 35.7864 29.8214 35.7921C29.8381 35.7977 29.8562 35.798 29.8731 35.7929C30.1013 35.4894 30.1247 35.1025 30.2105 34.7375C30.2281 34.6284 30.3197 34.5114 30.2281 34.4181C30.1891 34.4181 30.1247 34.3963 30.1013 34.4558M30.3197 33.0672L30.1247 33.6425C30.1247 33.7913 30.0389 33.944 30.1247 34.0769C30.1871 34.1464 30.2905 34.0908 30.3529 34.0531L30.5967 33.2596C30.6181 33.1743 30.6416 33.0493 30.5811 32.9799C30.4699 32.9482 30.4075 33.0196 30.3276 33.0732M30.5401 34.4717L30.3276 35.2652C30.3119 35.3505 30.2905 35.4755 30.3529 35.5449C30.4075 35.5608 30.4387 35.529 30.4855 35.5052C30.5811 35.1402 30.7527 34.7832 30.7683 34.4102C30.7302 34.3896 30.6859 34.3839 30.6439 34.3942C30.6019 34.4044 30.565 34.4298 30.5401 34.4657M30.9165 33.0513C30.7978 33.3869 30.7243 33.7372 30.6981 34.0928C30.6981 34.1781 30.8385 34.1781 30.9087 34.1464C31.0298 33.8298 31.0958 33.4941 31.1038 33.1545C31.0804 33.0612 30.9848 33.0474 30.9087 33.0612M31.2832 36.6558C31.037 36.8436 30.8537 37.1041 30.7586 37.4017H30.8288C30.9503 37.3153 31.0533 37.2046 31.1315 37.0763C31.2096 36.9481 31.2612 36.805 31.2832 36.6558ZM31.135 34.3646L31.055 34.434C31.0336 34.7455 30.7898 35.041 30.9224 35.3505C30.9561 35.3549 30.9901 35.3464 31.018 35.3267C31.1621 35.0493 31.2521 34.7462 31.2832 34.434C31.2722 34.4051 31.2506 34.3816 31.223 34.3687C31.1953 34.3557 31.1637 34.3542 31.135 34.3646ZM31.33 33.3013L31.252 33.5572C31.2224 33.7421 31.2172 33.9303 31.2364 34.1166C31.2768 34.1425 31.3242 34.1547 31.3719 34.1515C31.4195 34.1483 31.4649 34.1298 31.5016 34.0988C31.5732 33.8569 31.6157 33.6071 31.6284 33.3548C31.5903 33.3196 31.5434 33.2957 31.4928 33.2859C31.4422 33.2761 31.3899 33.2807 31.3417 33.2993M31.6733 36.632C31.5892 36.6997 31.5194 36.7839 31.4681 36.8797C31.4168 36.9755 31.3851 37.0809 31.3749 37.1894H31.447C31.515 37.1541 31.5703 37.0979 31.605 37.0288C31.6362 36.9038 31.7844 36.7332 31.6733 36.632ZM31.6733 34.3646C31.4626 34.4876 31.5348 34.799 31.5094 35.0311L31.605 35.047C31.7201 34.9557 31.6908 34.7851 31.7532 34.6502C31.7298 34.5511 31.8546 34.3487 31.6733 34.3566M32.1686 33.4025C31.9268 33.2616 31.9268 33.5493 31.8858 33.6802C31.761 33.7595 31.9014 33.9698 31.8234 34.1087C31.8624 34.186 31.9658 34.194 32.0516 34.186C32.1608 34.0908 32.153 33.952 32.1998 33.829C32.2154 33.6961 32.2623 33.5096 32.1686 33.4025ZM32.1296 36.6062C31.9561 36.638 31.9717 36.8482 31.9171 36.9812C31.9658 37.0268 32.0126 36.9812 32.0516 36.9653C32.1062 36.8582 32.1842 36.7411 32.1296 36.6062ZM32.2935 37.3997C32.1998 37.6259 31.997 37.8104 31.9424 38.0524C32.0828 38.0683 32.1686 37.9591 32.2779 37.9036C32.4729 37.7885 32.4982 37.5465 32.6952 37.4771C32.7732 37.493 32.7732 37.5783 32.7654 37.6417C32.6172 38.0385 32.3422 38.3619 32.1296 38.7288C32.664 38.6178 32.8278 37.9889 33.0326 37.5703C33.0794 37.5703 33.1418 37.5465 33.1653 37.61C33.1559 37.9416 33.1742 38.2734 33.2199 38.6019C33.2433 38.6872 33.3154 38.8181 33.4149 38.7487C33.5138 38.3975 33.5272 38.0271 33.4539 37.6695L33.5085 37.616C33.7757 37.6695 33.7523 37.981 33.8986 38.1516C34.0448 38.3222 34.2769 38.586 34.5032 38.5781C34.2672 38.2289 33.9064 37.9254 33.7659 37.5386C33.7893 37.483 33.8596 37.4136 33.9161 37.4592C34.1502 37.6576 34.2769 38.0266 34.6143 38.0028V37.9254L33.8986 36.7768C33.7269 36.4436 33.4675 36.1242 33.5943 35.6897C33.7657 35.3825 33.882 35.0466 33.9376 34.6979C33.9629 34.1543 34.0175 33.5413 33.6723 33.1525C33.6314 33.1525 33.5865 33.1366 33.5612 33.1842C33.4597 33.208 33.4441 33.091 33.3895 33.0374C33.3517 33.0267 33.3113 33.0299 33.2755 33.0466C33.2398 33.0633 33.2111 33.0924 33.1945 33.1287C33.1087 33.2319 33.0385 33.091 32.9663 33.0374C32.6855 32.9819 32.6289 33.3072 32.5197 33.464C32.2993 34.1087 32.3247 34.9776 32.7791 35.4993C33.1789 36.2055 32.5451 36.8185 32.2681 37.4156M32.0887 34.3963C31.8936 34.4955 31.9619 34.7514 31.9171 34.9399L32.0243 34.9557C32.0789 34.7851 32.1979 34.5808 32.0887 34.3963ZM32.7245 32.0654C32.6756 32.1514 32.6099 32.2262 32.5314 32.2853C32.4529 32.3443 32.3633 32.3863 32.2681 32.4086C32.4495 32.4086 32.6289 32.3927 32.7401 32.5554C32.8025 32.6566 32.7167 32.7657 32.7401 32.851C32.7869 32.8668 32.8025 32.8272 32.8356 32.8113C32.9449 32.7399 33.0151 32.8728 33.1009 32.9045C33.1555 32.8807 33.1399 32.8272 33.1945 32.7954C33.2491 32.7637 33.3037 32.8113 33.3681 32.8113V32.3669C33.4071 32.1904 33.6431 32.2598 33.6821 32.0892C33.5201 32.1007 33.358 32.0685 33.2121 31.996C33.0853 32.1051 32.8727 32.0198 32.7245 32.0654ZM32.6289 31.2263C32.5119 31.3195 32.6133 31.4842 32.6699 31.5853C32.9644 31.5575 33.2608 31.5575 33.5553 31.5853C33.6422 31.5014 33.6951 31.3875 33.7035 31.2659C33.6431 31.0953 33.5085 31.3136 33.3837 31.3056C33.2023 31.2739 33.2745 31.0715 33.1887 30.9704C32.9215 30.9168 33.0794 31.2263 32.9059 31.3056C32.8122 31.3512 32.7342 31.2501 32.6387 31.2263M33.92 35.5132C33.7698 35.7314 33.8791 36.027 33.9025 36.2591C33.9746 36.4574 34.1716 36.2829 34.3198 36.3364C34.3747 36.2979 34.4392 36.276 34.5058 36.2732C34.5724 36.2703 34.6384 36.2868 34.6962 36.3206C34.6879 36.2278 34.6567 36.1386 34.6056 36.0613C34.5544 35.984 34.485 35.9211 34.4037 35.8782C34.3003 35.8088 34.1911 35.9417 34.0975 35.8405C34.0944 35.8146 34.0986 35.7883 34.1096 35.7648C34.1207 35.7412 34.1381 35.7214 34.1599 35.7076C34.4193 35.5449 34.6319 35.8246 34.8347 35.9714L35.845 37.4652C35.8684 37.5246 35.8719 37.5902 35.8549 37.6519C35.838 37.7136 35.8016 37.7679 35.7514 37.8064C35.8469 37.8096 35.9401 37.8371 36.0225 37.8863C36.1049 37.9355 36.174 38.0049 36.2233 38.0881C36.2452 38.0147 36.2813 37.9465 36.3296 37.8875C36.3778 37.8286 36.4372 37.7801 36.5042 37.7449C36.3716 37.6437 36.198 37.6536 36.0888 37.5287L35.0297 35.7433C34.9264 35.6104 34.8347 35.4318 34.6533 35.3703C34.5309 35.3431 34.4041 35.342 34.2812 35.3673C34.1583 35.3926 34.042 35.4436 33.9395 35.5171M34.2087 36.5229C34.1855 36.5551 34.169 36.5917 34.1603 36.6306C34.1515 36.6695 34.1507 36.7098 34.158 36.7491C34.2087 36.8026 34.2282 36.9335 34.3744 36.8959V36.7491C34.3452 36.6618 34.3354 36.5229 34.2087 36.5229ZM34.2379 33.4481C34.2103 33.4547 34.1863 33.4722 34.1713 33.4967C34.1563 33.5213 34.1515 33.5509 34.158 33.579C34.2594 33.7992 34.1014 34.2396 34.4798 34.2337C34.7704 34.0988 34.4798 33.8052 34.4954 33.5949C34.4564 33.4937 34.3627 33.3687 34.2379 33.4481ZM34.2379 34.3646C34.158 34.5193 34.2828 34.6522 34.2672 34.807C34.3315 34.8685 34.2984 35.0708 34.4408 34.9934C34.511 34.8923 34.4408 34.7455 34.4408 34.6205C34.3861 34.5272 34.3939 34.3249 34.2457 34.3646M34.6923 31.1172L34.4973 31.264C34.2457 31.754 34.4817 32.3193 34.5129 32.8331C34.459 32.9579 34.4454 33.0967 34.4739 33.2299C34.6865 32.9879 35.0785 33.1902 35.2657 32.9105C35.5817 32.9958 35.7143 32.609 36.0205 32.7458C36.3735 33.0117 36.4652 33.4382 36.6056 33.827C36.7226 34.067 36.3774 34.1523 36.473 34.4023C36.6494 34.9134 36.8706 35.4074 37.1341 35.8782C37.0772 35.5044 36.9831 35.1376 36.8533 34.7832C36.7811 34.5729 36.5783 34.3725 36.7031 34.1305C36.8201 33.7337 36.6563 33.2993 36.5081 32.9402C36.2272 32.3788 36.0068 31.7976 35.6772 31.262C35.5443 31.1475 35.3826 31.073 35.2103 31.0471C35.0379 31.0212 34.8619 31.0447 34.7021 31.1152M34.5695 36.5031C34.5448 36.6045 34.5461 36.7107 34.5735 36.8115C34.6008 36.9122 34.6531 37.0041 34.7255 37.0784C34.8737 36.9375 34.6787 36.761 34.6865 36.5963C34.6709 36.5586 34.6241 36.4951 34.5695 36.5031ZM34.5909 34.4142C34.6214 34.6073 34.6772 34.7955 34.7567 34.9736H34.7957C34.8737 34.8486 34.8113 34.7018 34.7801 34.5768C34.7411 34.4995 34.7099 34.3606 34.5851 34.4142M34.825 33.2993C34.777 33.3107 34.735 33.3402 34.7075 33.3818C34.68 33.4233 34.669 33.474 34.6767 33.5235C34.8328 33.7099 34.6923 34.1999 35.1078 34.0968C35.2248 34.0968 35.2404 33.95 35.217 33.8726C35.0922 33.6742 35.1546 33.2914 34.8269 33.2993M34.9751 36.5368C34.7801 36.6538 35.0063 36.8859 35.0551 37.0427C35.1253 37.1498 35.2131 37.3997 35.3925 37.3045L35.4081 37.1577C35.2423 36.9593 35.1877 36.6995 34.9751 36.5368ZM34.9381 34.3785L34.9069 34.4162C34.937 34.6003 34.9867 34.7805 35.0551 34.9538C35.0863 34.9835 35.1253 35.045 35.1643 34.9914C35.1519 34.7685 35.073 34.5547 34.9381 34.3785ZM35.2423 34.3229C35.1565 34.5729 35.3827 34.7832 35.4081 35.0291C35.4783 35.1065 35.4939 35.285 35.6187 35.2712C35.5821 35.0697 35.5326 34.8709 35.4705 34.676C35.4243 34.5421 35.3458 34.4221 35.2423 34.3269M35.3535 33.1366C35.3235 33.1489 35.2973 33.1693 35.2778 33.1955C35.2582 33.2216 35.246 33.2527 35.2423 33.2854C35.3535 33.5254 35.3925 33.7893 35.5251 34.0154C35.5739 34.0154 35.6343 34.0313 35.6753 33.9996C35.7923 33.946 35.7455 33.7655 35.728 33.6584C35.5953 33.4858 35.6285 33.1525 35.3535 33.1366ZM35.6343 34.2158C35.5563 34.2416 35.5563 34.3328 35.5641 34.4142C35.7592 34.7931 35.8391 35.2077 36.0673 35.5707C36.0755 35.5786 36.0854 35.5845 36.0962 35.588C36.1069 35.5916 36.1183 35.5926 36.1295 35.5911C36.1407 35.5896 36.1515 35.5855 36.161 35.5793C36.1704 35.573 36.1784 35.5646 36.1843 35.5548C36.1667 35.2573 36.0918 34.9661 35.9639 34.6979C35.8859 34.5272 35.8391 34.2872 35.6421 34.2079M35.8547 32.9442L35.7611 33.0216C35.7611 33.3251 35.9815 33.579 36.0439 33.8746C36.0829 33.9143 36.1219 33.9777 36.1921 33.952C36.2375 33.9327 36.2753 33.8987 36.2996 33.8553C36.324 33.8118 36.3335 33.7614 36.3267 33.7119C36.1863 33.4481 36.1921 33.0454 35.8547 32.9442ZM36.0498 34.2337C35.9698 34.2555 36.0342 34.3249 35.9873 34.3646C36.2389 34.7613 36.2467 35.2652 36.5529 35.6441C36.5841 35.6441 36.6153 35.662 36.6309 35.6302C36.5841 35.1799 36.3618 34.799 36.2409 34.3804C36.2155 34.311 36.1453 34.2019 36.0459 34.2337M28.8999 41.3296C28.769 41.0741 28.5813 40.8533 28.3517 40.6845C28.1222 40.5158 27.8571 40.4038 27.5776 40.3575H22.4639C21.8997 40.3959 21.3385 40.2469 20.8647 39.933C20.0436 39.3736 19.7666 38.5444 19.8056 37.6259V22.2081C19.7684 21.9565 19.667 21.7193 19.5117 21.5198C19.3564 21.3204 19.1525 21.1658 18.9202 21.0714C18.8273 21.0422 18.7329 21.0183 18.6374 21H39.141C39.0453 21.0173 38.9508 21.0412 38.8582 21.0714C38.6249 21.1654 38.4198 21.3197 38.2631 21.5191C38.1065 21.7184 38.0037 21.9559 37.965 22.2081V37.6259C38.004 38.5344 37.729 39.3756 36.9059 39.933C36.4317 40.246 35.8708 40.3948 35.3067 40.3575H30.2105C29.9321 40.4027 29.6682 40.5144 29.4404 40.6833C29.2126 40.8523 29.0274 41.0737 28.8999 41.3296Z" fill="black"/>
</svg>
