<svg width="177" height="73" viewBox="0 0 177 73" fill="none" xmlns="http://www.w3.org/2000/svg">
<g clip-path="url(#clip0_1214_4525)">
<path d="M54.6933 46.6485H49.9679L49.0148 49.1604H47.625L51.7945 38.5942H53.0652L57.1553 49.1604H55.6861L54.6933 46.6485ZM50.4047 45.4922H54.2565L52.3107 40.4284L50.4047 45.4922Z" fill="#212322"/>
<path d="M43.4517 39.7107V43.5384H45.2783C45.2783 43.5384 45.596 43.5384 45.7946 43.5384C46.3505 43.5384 46.7476 43.4188 47.0653 43.0998C47.4227 42.7808 47.5815 42.2226 47.5815 41.6644C47.5815 41.1062 47.4227 40.5879 47.0653 40.1891C46.7079 39.7904 46.0328 39.7505 45.9137 39.7505C45.7946 39.7505 45.7151 39.7505 45.7151 39.7505H43.4517V39.7107ZM42.1016 38.5942H45.7151C46.2711 38.5942 47.2241 38.7139 47.8992 39.2721C48.8125 39.9898 48.9713 40.9866 48.9713 41.6245C48.9713 42.2625 48.8125 43.1397 48.1771 43.7378C47.3432 44.5352 46.5093 44.6548 45.2783 44.6548H43.4517V49.1604H42.1016V38.5942Z" fill="#212322"/>
<path d="M90.2656 38.5942H91.6158V43.1397H96.3412V38.5942H97.6516V49.1604H96.3412V44.296H91.6158V49.1604H90.2656V38.5942Z" fill="#212322"/>
<path d="M101.03 38.5942H99.6797V49.1604H101.03V38.5942Z" fill="#212322"/>
<path d="M102.977 38.5942H104.327V48.0041H108.893V49.1604H102.977V38.5942Z" fill="#212322"/>
<path d="M62.9465 38.5942V39.7505H59.73V49.1604H58.4196V39.7505H55.2031V38.5942H62.9465Z" fill="#212322"/>
<path d="M69.7774 38.5942L69.1023 39.7505H65.1314V43.0599H68.8641V44.2561H65.1314V48.0041H69.0229L69.698 49.1604H63.7812V38.5942H69.7774Z" fill="#212322"/>
<path d="M72.162 43.5384L76.6889 38.5942H78.3567L74.9019 42.3821L78.4361 49.1604H76.9271L73.9886 43.3391L72.162 45.2928V49.1604H70.8516V38.5942H72.162V43.5384Z" fill="#212322"/>
<path d="M91.0618 61.0025H93.6032L94.04 61.7999H90.1484V54.8223H94.6356L96.6608 60.6038L98.7257 54.8223H99.639L97.0182 61.7999H96.1843L93.9606 55.6197H91.0618V57.7728H93.484V58.5703H91.0618V61.0025Z" fill="#212322"/>
<path d="M83.7173 39.7107V43.5384H85.5837C85.5837 43.5384 85.9013 43.5384 86.0999 43.5384C86.6558 43.5384 87.0529 43.4188 87.3706 43.0998C87.728 42.7808 87.8868 42.2226 87.8868 41.6644C87.8868 41.1062 87.728 40.5879 87.3706 40.1891C87.0132 39.7904 86.3382 39.7505 86.219 39.7505C86.0999 39.7505 86.0205 39.7505 86.0205 39.7505H83.7173V39.7107ZM82.4069 38.5942H86.0205C86.5764 38.5942 87.5294 38.7139 88.2045 39.2721C89.1178 39.9898 89.2767 40.9866 89.2767 41.6245C89.2767 42.2625 89.1178 43.1397 88.4825 43.7378C87.6486 44.5352 86.8147 44.6548 85.5837 44.6548H83.7173V49.1604H82.3672V38.5942H82.4069Z" fill="#212322"/>
<path d="M111.116 38.5942H109.766V49.1604H111.116V38.5942Z" fill="#212322"/>
<path d="M114.413 39.7107V43.5384H116.28C116.28 43.5384 116.597 43.5384 116.796 43.5384C117.352 43.5384 117.749 43.4188 118.067 43.0998C118.424 42.7808 118.583 42.2226 118.583 41.6644C118.583 41.1062 118.424 40.5879 118.067 40.1891C117.709 39.7904 117.034 39.7505 116.915 39.7505C116.796 39.7505 116.716 39.7505 116.716 39.7505H114.413V39.7107ZM113.063 38.5942H116.677C117.233 38.5942 118.186 38.7139 118.861 39.2721C119.774 39.9898 119.933 40.9866 119.933 41.6245C119.933 42.2625 119.774 43.1397 119.139 43.7378C118.305 44.5352 117.471 44.6548 116.24 44.6548H114.374V49.1604H113.023L113.063 38.5942Z" fill="#212322"/>
<path d="M122.437 39.7107V43.5384H124.303C124.303 43.5384 124.621 43.5384 124.819 43.5384C125.375 43.5384 125.772 43.4188 126.09 43.0998C126.447 42.7808 126.606 42.2226 126.606 41.6644C126.606 41.1062 126.447 40.5879 126.09 40.1891C125.733 39.7904 125.058 39.7505 124.938 39.7505C124.819 39.7505 124.74 39.7505 124.74 39.7505H122.437V39.7107ZM121.087 38.5942H124.7C125.256 38.5942 126.209 38.7139 126.884 39.2721C127.798 39.9898 127.956 40.9866 127.956 41.6245C127.956 42.2625 127.798 43.1397 127.162 43.7378C126.328 44.5352 125.494 44.6548 124.263 44.6548H122.397V49.1604H121.047L121.087 38.5942Z" fill="#212322"/>
<path d="M135.098 38.5942L134.423 39.7505H130.452V43.0599H134.145V44.2561H130.452V48.0041H134.343L134.979 49.1604H129.102V38.5942H135.098Z" fill="#212322"/>
<path d="M78.2735 58.2514V60.7634C77.7176 61.3216 77.0028 61.9197 75.5733 61.9197C73.9849 61.9197 72.5156 60.564 72.5156 58.4109C72.5156 56.3774 73.8658 54.7427 75.7718 54.7427C77.2808 54.7427 78.0353 55.6996 78.3132 56.0983L77.6779 56.6964C77.6779 56.6964 77.0425 55.5003 75.7718 55.5003C74.5011 55.5003 73.5084 56.6566 73.5084 58.4508C73.5084 60.1653 74.5805 61.202 75.7321 61.202C76.7248 61.202 77.3999 60.5242 77.4396 60.4843V59.0489H75.335V58.2913H78.2735V58.2514Z" fill="#212322"/>
<path d="M83.4 54.8223L82.9632 55.6197H80.3424V57.7728H82.8044V58.5703H80.3424V61.0025H82.8838L83.3206 61.7999H79.4688V54.8223H83.4Z" fill="#212322"/>
<path d="M88.1279 54.8223H88.9618V61.7999H88.0882L84.9511 56.0982V61.7999H84.1172V54.8223H85.2291L88.1279 60.0854V54.8223Z" fill="#212322"/>
<path d="M104.126 54.8223L103.729 55.6197H101.108V57.7728H103.53V58.5703H101.108V61.0025H103.649L104.086 61.7999H100.234V54.8223H104.126Z" fill="#212322"/>
<path d="M92.5741 22.5257C93.2889 22.5257 94.0036 22.0871 94.0036 21.5289C94.0036 21.3295 93.8448 20.9308 93.2492 20.9308C92.4947 20.9308 91.8593 21.7283 91.1842 21.7283C90.5886 21.7283 90.5092 21.2498 90.5092 21.2498C90.8666 21.2498 90.9857 21.2498 91.4225 21.0106C91.8196 20.8112 92.3755 20.2131 92.7726 19.8144C93.13 19.4157 93.7257 18.8973 94.4404 18.8973C95.1552 18.8973 95.87 19.3359 95.87 20.1732C95.87 21.2897 94.9964 21.6086 94.9964 22.0074C94.9964 22.127 95.0361 22.2865 95.2743 22.2865C95.6317 22.2865 96.3068 21.7681 96.9819 21.7681C97.8952 21.7681 98.6894 22.8048 98.6894 22.8048C98.6894 22.8048 97.8952 23.8415 96.9819 23.8415C96.3068 23.8415 95.6317 23.3232 95.2743 23.3232C95.0361 23.3232 94.9964 23.4826 94.9964 23.6023C94.9964 24.001 95.87 24.3598 95.87 25.4364C95.87 26.2737 95.1552 26.7123 94.4404 26.7123C93.7257 26.7123 93.13 26.194 92.7726 25.7952C92.4152 25.3965 91.8593 24.7984 91.4225 24.5991C90.9857 24.3997 90.8666 24.3598 90.5092 24.3598C90.5092 24.3598 90.5886 23.8814 91.1842 23.8814C91.8593 23.8814 92.4947 24.6788 93.2492 24.6788C93.8448 24.6788 94.0036 24.2801 94.0036 24.0807C94.0036 23.4826 93.2889 23.0839 92.5741 23.0839H88.6031V27.0712C88.6031 27.7889 89.0399 28.5066 89.5959 28.5066C89.7944 28.5066 90.1915 28.3471 90.1915 27.749C90.1915 26.9914 89.3973 26.3535 89.3973 25.6756C89.3973 25.0775 89.8738 24.9978 89.8738 24.9978C89.8738 25.3566 89.8738 25.4763 90.1121 25.9149C90.3106 26.3136 90.9063 26.8718 91.3034 27.2705C91.7005 27.6294 92.2167 28.2275 92.2167 28.9452C92.2167 29.6629 91.7799 30.3806 90.946 30.3806C89.8341 30.3806 89.5164 29.5034 89.1193 29.5034C89.0002 29.5034 88.8414 29.5433 88.8414 29.7825C88.8414 30.1413 89.3576 30.8192 89.3576 31.497C89.3576 32.4141 88.3252 33.2115 88.3252 33.2115C88.3252 33.2115 87.2927 32.4141 87.2927 31.497C87.2927 30.8192 87.8089 30.1413 87.8089 29.7825C87.8089 29.5433 87.6501 29.5034 87.531 29.5034C87.1339 29.5034 86.7765 30.3806 85.7043 30.3806C84.8704 30.3806 84.4336 29.6629 84.4336 28.9452C84.4336 28.2275 84.9498 27.6294 85.3469 27.2705C85.744 26.9117 86.3397 26.3535 86.5382 25.9149C86.7368 25.4763 86.7765 25.3566 86.7765 24.9978C86.7765 24.9978 87.253 25.0775 87.253 25.6756C87.253 26.3535 86.4588 26.9914 86.4588 27.749C86.4588 28.3471 86.8559 28.5066 87.0544 28.5066C87.6501 28.5066 88.0472 27.7889 88.0472 27.0712V23.0839H84.0762C83.3614 23.0839 82.6467 23.5225 82.6467 24.0807C82.6467 24.2801 82.8055 24.6788 83.4012 24.6788C84.1556 24.6788 84.791 23.8814 85.4661 23.8814C86.0617 23.8814 86.1411 24.3598 86.1411 24.3598C85.7837 24.3598 85.6646 24.3598 85.2278 24.5991C84.8307 24.7984 84.2748 25.3965 83.8777 25.7952C83.5203 26.194 82.9246 26.7123 82.2099 26.7123C81.4951 26.7123 80.7803 26.2737 80.7803 25.4364C80.7803 24.32 81.6539 24.001 81.6539 23.6023C81.6539 23.4826 81.6142 23.3232 81.376 23.3232C81.0186 23.3232 80.3435 23.8415 79.6685 23.8415C78.7551 23.8415 77.9609 22.8048 77.9609 22.8048C77.9609 22.8048 78.7551 21.7681 79.6685 21.7681C80.3435 21.7681 81.0186 22.2865 81.376 22.2865C81.6142 22.2865 81.6539 22.127 81.6539 22.0074C81.6539 21.6086 80.7803 21.2498 80.7803 20.1732C80.7803 19.3359 81.4951 18.8973 82.2099 18.8973C82.9246 18.8973 83.5203 19.4157 83.8777 19.8144C84.2351 20.2131 84.791 20.8112 85.2278 21.0106C85.6646 21.2099 85.7837 21.2498 86.1411 21.2498C86.1411 21.2498 86.0617 21.7283 85.4661 21.7283C84.791 21.7283 84.1556 20.9308 83.4012 20.9308C82.8055 20.9308 82.6467 21.3295 82.6467 21.5289C82.6467 22.127 83.3614 22.5257 84.0762 22.5257H88.0472V18.5783C88.0472 17.8606 87.6104 17.1429 87.0544 17.1429C86.8559 17.1429 86.4588 17.3024 86.4588 17.9005C86.4588 18.6581 87.253 19.296 87.253 19.9739C87.253 20.572 86.7765 20.6517 86.7765 20.6517C86.7765 20.2929 86.7765 20.1732 86.5382 19.7346C86.3397 19.3359 85.744 18.7777 85.3469 18.379C84.9498 18.0201 84.4336 17.422 84.4336 16.7043C84.4336 15.9866 84.8704 15.2689 85.7043 15.2689C86.8162 15.2689 87.1339 16.1461 87.531 16.1461C87.6501 16.1461 87.8089 16.1062 87.8089 15.867C87.8089 15.5082 87.2927 14.8303 87.2927 14.1525C87.2927 13.2354 88.3252 12.438 88.3252 12.438C88.3252 12.438 89.3576 13.2354 89.3576 14.1525C89.3576 14.8303 88.8414 15.5082 88.8414 15.867C88.8414 16.1062 89.0002 16.1461 89.1193 16.1461C89.5164 16.1461 89.8738 15.2689 90.946 15.2689C91.7799 15.2689 92.2167 15.9866 92.2167 16.7043C92.2167 17.422 91.7005 18.0201 91.3034 18.379C90.9063 18.7378 90.3106 19.296 90.1121 19.7346C89.9135 20.1732 89.8738 20.2929 89.8738 20.6517C89.8738 20.6517 89.3973 20.572 89.3973 19.9739C89.3973 19.296 90.1915 18.6581 90.1915 17.9005C90.1915 17.3024 89.7944 17.1429 89.5959 17.1429C89.0002 17.1429 88.6031 17.8606 88.6031 18.5783V22.5656H92.5741V22.5257Z" fill="#212322"/>
</g>
<defs>
<clipPath id="clip0_1214_4525">
<rect width="93" height="50" fill="white" transform="translate(42.1016 11.8)"/>
</clipPath>
</defs>
</svg>
