<svg width="177" height="73" viewBox="0 0 177 73" fill="none" xmlns="http://www.w3.org/2000/svg">
<g clip-path="url(#clip0_1214_4063)">
<path d="M55.1966 20.7734C54.1801 20.7734 53.0959 20.909 51.9439 21.18C51.9439 21.18 45.8451 22.6708 39.0686 28.973C39.0686 28.973 35.8837 32.2257 33.5797 36.4271C33.5797 36.4271 31.2079 40.8318 30.8691 44.4233C30.8691 44.4233 30.5302 48.557 32.8342 50.6577C32.8342 50.6577 35.4771 53.0972 41.3726 52.6229C41.3726 52.6229 45.0319 52.1485 49.03 49.709C49.03 49.709 50.9274 48.4892 52.2149 47.2694C52.2149 47.2694 51.6051 49.3701 52.486 50.861C52.486 50.861 53.2992 52.284 55.1288 52.6229C55.1288 52.6229 56.4841 52.8939 58.3815 52.1485C58.3815 52.1485 59.6013 51.6064 60.4145 51.1998C60.4145 51.1998 62.0408 50.3189 63.6672 49.0313C63.6672 49.0313 63.3284 50.2511 64.0738 51.3353C64.0738 51.3353 64.9547 52.5551 66.5133 52.6906C66.5133 52.6906 70.7147 53.0294 76.5425 45.8464L72.4088 52.4196L76.1359 52.3518L79.3886 46.7273C79.3886 46.7273 82.7768 40.8996 83.5222 40.2219C83.5222 40.2219 85.2841 37.9179 87.9269 37.3758L89.6888 37.5113C89.6888 37.5113 90.4342 37.8501 90.4342 38.6633L89.1467 38.46C89.1467 38.46 88.4013 38.5278 87.9947 39.341C87.9947 39.341 87.6559 40.0864 87.7914 40.8318C87.7914 40.8318 87.9947 41.4417 88.6046 41.7127L89.0112 41.8483L90.2987 41.645C90.2987 41.645 92.6027 40.764 95.7199 36.9014L94.9745 38.189L92.3317 42.6614L89.2822 48.0826C89.2822 48.0826 88.4013 49.8445 88.8079 50.9287C88.8079 50.9287 89.2145 51.9452 90.5698 52.2163L93.4837 52.013C93.4837 52.013 95.11 51.5386 96.4653 50.3866L98.3627 48.828C98.3627 48.828 100.667 46.8629 102.767 44.5589L102.632 44.7621C102.632 44.7621 100.802 48.0826 100.463 49.2346C100.463 49.2346 99.718 51.6064 101.412 52.5551L103.31 52.7584C103.31 52.7584 104.868 52.5551 106.427 51.4031L109.002 49.2346C109.002 49.2346 111.17 47.2017 112.322 45.7109C112.322 45.7109 111.712 47.0661 111.577 48.0149C111.577 48.0149 111.102 51.132 114.016 52.4196L116.727 52.6229C116.727 52.6229 117.811 52.5551 119.438 51.9452C119.438 51.9452 123.3 50.7254 128.654 45.7109C128.654 45.7109 131.364 43.2036 133.262 40.9673L126.485 52.3518H129.806L132.313 48.1504L135.498 42.9325C135.498 42.9325 137.327 40.0186 140.648 38.189C140.648 38.189 142.003 37.3758 143.02 37.2403C143.02 37.2403 144.104 37.037 144.307 37.5791C144.307 37.5791 142.816 37.2403 142.41 38.7989C142.41 38.7989 142.071 40.3574 143.291 40.8318C143.291 40.8318 144.239 41.1706 144.985 40.6285C144.985 40.6285 145.662 40.1541 145.866 39.2054C145.866 39.2054 146.069 38.2567 145.595 37.5791C145.595 37.5791 145.053 36.7659 143.833 36.6981C143.833 36.6981 142.478 36.6304 139.699 38.46C139.699 38.46 137.666 39.8153 136.785 40.6285L139.089 36.7659H135.701C135.701 36.7659 132.516 42.1871 126.824 46.8629C126.824 46.8629 121.267 51.3353 118.15 51.4709C118.15 51.4709 115.101 51.6741 114.83 49.3701C114.83 49.3701 114.626 48.0149 115.439 46.0497C115.439 46.0497 117.337 46.253 119.844 45.4398C119.844 45.4398 122.216 44.6944 124.181 43.3391C124.181 43.3391 126.282 41.916 127.027 40.4252C127.027 40.4252 127.908 38.7311 126.892 37.308C126.892 37.308 124.994 35.4784 120.928 37.1725C120.928 37.1725 116.727 38.9344 113.61 43.068L112.797 44.2878L112.729 44.4233L110.493 46.9984L108.189 49.3024C108.189 49.3024 105.41 52.013 104.055 51.1998C104.055 51.1998 103.513 50.861 103.513 49.98C103.513 49.98 103.513 49.0991 104.123 48.0826L110.56 36.8337H107.646C107.646 36.8337 106.02 39.4765 104.19 41.9838C104.19 41.9838 100.531 46.8629 96.5331 49.6412C96.5331 49.6412 93.8225 51.7419 92.2639 50.9965C92.2639 50.9965 91.5862 50.6577 91.654 49.8445C91.654 49.8445 91.7218 48.8958 92.6027 47.6083L98.9048 36.8337L102.429 36.7659L102.903 36.2916H99.3114L103.106 29.5829L99.9213 29.6506C99.9213 29.6506 97.6851 33.4454 95.9909 35.7494C95.9909 35.7494 92.8738 39.8831 90.2987 40.9673C90.2987 40.9673 90.7731 40.3574 90.7731 39.4765L90.7053 38.7311C90.7053 38.7311 90.502 37.7824 89.6211 37.3758L88.8079 37.1725L87.3171 37.308C87.3171 37.308 85.5552 37.7146 83.8611 39.1377L85.2164 36.8337H82.0314C82.0314 36.8337 79.1175 41.9838 75.3227 46.4563C75.3227 46.4563 70.3759 52.1485 67.6653 51.4709C67.6653 51.4709 66.8521 51.0643 66.7844 50.1156C66.7844 50.1156 66.7844 49.1669 67.6653 47.7438L74.1029 36.8337L70.918 36.9014L69.9015 38.6633L69.2239 39.9509C69.2239 39.9509 69.3594 39.5443 69.2239 38.7311C69.2239 38.7311 68.9528 36.6981 67.0554 36.2916L65.5646 36.156C65.5646 36.156 61.702 36.0883 57.3651 39.9509C57.3651 39.9509 54.3834 42.5937 52.0794 46.6596C52.0794 46.6596 47.5392 50.9287 42.7279 51.8097C42.7279 51.8097 38.4587 52.6906 36.6291 50.7932C36.6291 50.7932 34.5961 48.7603 34.5961 45.1687C34.5961 45.1687 34.6639 40.8996 37.6455 35.2073C37.6455 35.2073 40.8305 30.4638 42.7957 28.3631C42.7957 28.3631 47.8102 22.8741 52.9604 21.5188C52.9604 21.5188 57.2295 20.4346 59.5335 22.332C59.5335 22.332 61.5665 23.9584 61.702 27.3466L62.854 25.3814C62.854 25.3814 64.3448 23.0774 65.6324 21.7221C65.6324 21.7221 64.4126 22.2643 62.9895 22.4676C62.9895 22.4676 61.1599 22.6708 60.2789 22.1287C60.4145 22.061 58.4493 20.8412 55.1966 20.7734ZM66.1067 36.5626C67.3942 36.5626 68.0719 37.1725 68.0719 37.1725C69.6305 38.5956 68.4107 41.3061 68.4107 41.3061C65.9712 46.3207 62.4474 49.3024 62.4474 49.3024L60.2789 50.7932C56.9585 52.4196 55.5354 51.2676 55.5354 51.2676C54.3834 50.3189 54.8578 48.0826 54.8578 48.0826C55.1966 46.5918 56.4164 44.3556 56.4164 44.3556L58.8559 40.8318C61.0244 38.3923 63.5317 37.1725 63.5317 37.1725C64.5481 36.6981 65.4291 36.5626 66.1067 36.5626ZM123.503 36.9692H123.639C123.639 36.9692 124.384 37.037 124.655 37.4436C124.655 37.4436 124.994 37.9179 124.859 38.7989C124.859 38.7989 124.655 41.1706 122.013 43.4069C122.013 43.4069 119.031 45.9819 115.575 45.8464L116.253 44.4911C116.253 44.4911 117.743 41.5772 119.98 39.2732C119.98 39.2054 122.08 36.9692 123.503 36.9692Z" fill="#212322"/>
<path d="M109.953 31.9543C109.953 31.9543 109.953 32.5642 110.427 32.9708C110.427 32.9708 110.834 33.3774 111.444 33.3774C111.444 33.3774 112.054 33.3774 112.393 32.9708C112.393 32.9708 112.799 32.4964 112.799 31.9543L112.393 30.9378C112.393 30.9378 111.918 30.5312 111.444 30.5312C111.444 30.5312 110.834 30.5313 110.427 30.9378C110.36 30.9378 109.953 31.3444 109.953 31.9543Z" fill="#212322"/>
</g>
<defs>
<clipPath id="clip0_1214_4063">
<rect width="115.2" height="33.408" fill="white" transform="translate(30.7969 20.0957)"/>
</clipPath>
</defs>
</svg>
