<svg width="177" height="72" viewBox="0 0 177 72" fill="none" xmlns="http://www.w3.org/2000/svg">
<path fill-rule="evenodd" clip-rule="evenodd" d="M90.8395 28.5309C87.9028 28.5113 85.5253 29.2728 83.6075 30.7565C81.6697 32.2409 80.7111 34.0452 80.7111 36.2908C80.7111 38.1355 81.6697 39.8203 83.2277 41.1438C85.1059 42.7478 87.7027 43.4695 90.899 43.4695C92.2371 43.4695 93.6164 43.2488 94.6552 42.9683C96.1934 42.5674 98.2309 41.6447 98.8498 40.2812L98.8101 38.2564C98.7703 36.8527 98.8703 36.7923 100.309 36.7725V36.2908H94.8947V36.7725C95.4543 36.7725 95.8336 36.7525 96.1731 36.9729C96.4931 37.2136 96.4127 38.2962 96.4127 38.7175L96.3932 39.9405C95.9336 40.823 94.8743 41.304 94.1158 41.6049C93.4165 41.8857 92.1374 42.1863 90.9393 42.2063C88.9413 42.2264 87.3831 41.6648 86.0846 40.8429C84.766 39.9802 83.4875 38.1963 83.4875 35.9704C83.4875 33.8248 84.8463 32.0598 86.4446 30.9568C87.4834 30.2353 89.241 29.6135 90.979 29.6339C92.4776 29.6543 93.8763 30.0146 94.8947 30.5967C96.0537 31.2382 97.2923 32.5418 97.7512 33.5039L98.2106 33.3235L97.4716 30.1753C96.5531 29.6137 95.4138 29.2123 94.3351 28.9523C93.1567 28.671 91.958 28.5513 90.8395 28.5309ZM20.6106 28.8636C18.5682 28.871 16.5336 28.9011 12.8479 28.8858L12.8281 29.3474C13.3275 29.3474 13.5076 29.3271 13.8071 29.5676C14.0869 29.8089 14.1267 30.0688 14.1267 30.9516V40.3957C14.1267 41.1978 14.1866 42.02 14.0067 42.2405C13.7471 42.5414 13.5672 42.6016 12.9279 42.5816V43.0625H20.5196C22.5972 43.0625 26.0132 43.0025 27.4114 41.8998C27.951 41.5992 28.9295 40.6768 28.9095 39.1126C28.9095 37.2077 28.0908 36.6259 27.3516 36.2049C26.6923 35.8442 25.6535 35.5636 24.435 35.363C25.4137 35.0224 25.6334 34.9216 26.2527 34.4404C26.8919 33.979 27.312 33.057 27.312 32.1346C27.312 29.7281 24.7145 28.9666 22.717 28.8664C22.0149 28.8617 21.3128 28.8608 20.6106 28.8636ZM164.735 28.8858L159.781 28.9057V29.3271C160.599 29.367 160.84 29.3874 160.999 29.9686C161.079 30.1895 161.059 30.6901 161.059 31.3921V40.5559C161.059 42.2201 161.2 42.6014 159.881 42.6014V43.0625H164.775L164.755 42.6013C163.417 42.6013 163.476 42.0797 163.476 40.5559V31.3921C163.476 29.7478 163.437 29.3271 164.735 29.3271V28.8858ZM35.0426 28.9061V29.4273C35.5223 29.4273 35.7223 29.4475 36.0017 29.6081C36.3215 29.8087 36.7211 30.7307 37.2005 31.6731L43.1938 43.0625H45.2115C46.4501 40.5963 48.4476 36.586 49.9859 33.558C51.0246 31.5531 51.7841 29.9491 52.0836 29.5684C52.2635 29.3475 52.7629 29.4272 53.0823 29.4272V28.9061L48.8874 28.926V29.4273C48.9273 29.4273 50.1058 29.2672 49.9859 30.0287C49.886 30.6303 45.2115 39.4133 44.6322 40.817L39.977 32.0145C39.6375 31.3721 39.3579 30.8911 39.2182 30.5104C38.8385 29.608 39.4182 29.4273 40.2174 29.4273V28.9061H35.0426ZM141.672 28.9196C141.373 28.9173 141.055 28.9184 140.718 28.9201C140.268 28.9223 139.783 28.926 139.264 28.926H132.872V29.3672C133.751 29.3672 134.111 29.6281 134.111 30.6504V41.8191C134.111 42.5809 133.551 42.5606 132.872 42.5406V43.0626H137.866V42.5406C137.046 42.5406 136.567 42.4612 136.547 41.4785V37.3076C137.086 37.3474 137.566 37.3076 138.405 37.3076C138.705 37.3076 140.302 37.3277 140.782 37.3076C142.6 37.3076 143.439 39.4731 144.418 40.9971C145.237 42.2804 144.877 43.0625 150.112 43.0625C150.112 42.9422 150.072 42.6812 150.072 42.5609C147.835 42.5809 147.415 41.2372 146.456 39.5129C145.557 37.9491 145.317 36.9265 142.999 36.6656C146.515 36.0042 147.435 34.4001 147.435 32.575C147.415 30.731 146.057 29.5871 143.839 29.0858C143.288 28.962 142.567 28.9268 141.672 28.9196ZM61.2529 28.9256V29.3668C61.952 29.3668 62.1519 29.427 62.3518 29.7083C62.5513 29.9683 62.5514 30.4095 62.5514 31.1921V41.4984C62.5514 42.4209 62.192 42.5809 61.3328 42.601V43.0625H73.8984L75.3565 40.1349L74.8976 39.9541C74.4178 40.7362 73.3192 41.4983 71.5809 41.4983H64.9687V30.5701C64.9687 29.9082 65.0886 29.7083 65.2482 29.5477C65.4881 29.3472 65.6079 29.3873 66.2272 29.3669V28.9257H61.2529L61.2529 28.9256ZM114.492 28.926L108.679 40.0348C108.16 41.0376 107.96 41.3784 107.72 41.8394C107.44 42.3205 107.28 42.6418 106.321 42.6618V43.0625H110.657L110.677 42.6018C109.897 42.6219 109.559 42.5612 109.538 41.8593C109.538 41.6386 109.738 41.2784 110.038 40.7372L110.856 39.2931H119.246L120.246 40.9971C120.906 42.1002 120.725 42.5014 119.546 42.5617V43.0625H124.74V42.5211C123.502 42.5211 123.562 42.1809 122.463 40.1556L116.331 28.926H114.492ZM139.161 29.946C140.697 29.9367 142.253 30.0139 143.239 30.4898C144.078 30.8908 144.778 31.3521 144.778 32.7558C144.778 34.741 143.559 35.2624 142.64 35.6031C141.022 36.0241 138.365 35.8836 136.547 35.9036V29.9882C137.326 29.9882 138.24 29.9515 139.161 29.946ZM20.794 30.0621C22.018 30.0604 23.2165 30.1093 23.8758 30.5299C24.7346 31.0916 24.9343 31.4928 24.9343 32.3349C24.9343 32.8558 24.5152 33.7591 24.0758 34.0998C23.0368 34.9421 21.1789 34.9818 19.8004 34.9818H16.504V30.0688H19.5802C19.9748 30.0688 20.386 30.0626 20.794 30.0621ZM114.972 31.0519L118.508 37.7086H111.616L114.972 31.0519ZM20.6871 36.2394C22.718 36.2339 24.1599 36.3125 25.1739 37.067C25.7133 37.4679 26.2329 38.1698 26.2329 39.0124C26.2329 41.3382 23.3364 41.4987 20.4795 41.4987H16.504V36.2451C17.5826 36.2451 18.7016 36.2652 19.7806 36.2451C20.0952 36.2425 20.3969 36.2402 20.6871 36.2394Z" fill="black"/>
</svg>
