<svg width="177" height="73" viewBox="0 0 177 73" fill="none" xmlns="http://www.w3.org/2000/svg">
<g clip-path="url(#clip0_1214_3943)">
<path d="M53.3009 46.5388C53.3009 47.0292 53.5246 47.1804 53.8574 47.1804H56.8043C64.0606 47.1804 66.686 41.6884 66.686 36.186C66.686 30.6836 63.893 25.346 57.7666 25.346H53.7572C53.3506 25.346 53.3137 25.6908 53.3137 25.842L53.3009 46.5388ZM46.3686 24.9148H57.4683C67.026 24.9148 70.7484 30.4644 70.7484 36.3284C70.7484 42.1924 65.9515 47.6124 56.8428 47.6124H46.3766C46.1906 47.6124 46.1096 47.494 46.1096 47.3884C46.1096 47.2684 46.2226 47.1692 46.4087 47.1692H48.3677C48.9675 47.1692 49.3741 46.8156 49.3741 46.1412V26.4052C49.3741 25.9172 49.1271 25.3708 48.3276 25.3708H46.3381C46.1922 25.3708 46.1016 25.2636 46.1016 25.1516C46.1016 25.0404 46.1393 24.9156 46.3686 24.9156M71.7138 24.9148C71.5334 24.9148 71.3802 24.9748 71.3802 25.1292C71.3802 25.2652 71.4636 25.3452 71.6312 25.3452H73.5942C74.0489 25.3452 74.4884 25.6492 74.4884 26.5052V46.1612C74.4884 46.5636 74.1732 47.1844 73.6159 47.1844H71.6585C71.438 47.1844 71.4099 47.358 71.4099 47.4276C71.4099 47.498 71.3971 47.6116 71.6529 47.6116H81.1552C81.294 47.6116 81.492 47.5924 81.492 47.4548C81.492 47.3172 81.4559 47.1836 81.2066 47.1836H79.3734C79.1088 47.1836 78.3927 47.0212 78.3927 46.242V26.2876C78.3927 25.7204 78.7504 25.3452 79.4176 25.3452H81.2098C81.3701 25.3452 81.4479 25.2652 81.4479 25.1348C81.4479 25.0212 81.3573 24.9148 81.1592 24.9148H71.7138ZM94.4473 48.2428C102.003 48.2428 106.771 42.95 106.771 36.4212C106.771 29.8924 102.046 24.5996 94.4473 24.5996C86.8478 24.5996 82.1239 29.8924 82.1239 36.4212C82.1239 42.95 87.0451 48.2428 94.4473 48.2428ZM86.305 36.4212C86.305 30.15 89.1356 25.066 94.4473 25.066C99.759 25.066 102.59 30.15 102.59 36.4212C102.59 42.6924 99.9122 47.7764 94.4473 47.7764C88.9825 47.7764 86.305 42.6924 86.305 36.4212ZM115.486 25.3484H116.904C119.334 25.3484 123.289 26.3052 123.289 30.9244C123.289 35.1572 119.781 36.5924 116.547 36.5924H114.477V26.2988C114.477 25.7276 114.83 25.3492 115.487 25.3492M130.759 47.642C127.811 47.9548 126.187 43.09 124.689 40.782C123.58 39.0748 121.21 37.33 118.863 36.9972C122.702 36.7772 127.022 35.5356 127.022 31.1572C127.022 27.602 124.85 24.9148 116.854 24.9148H107.638C107.518 24.9148 107.403 24.9756 107.403 25.1308C107.403 25.2684 107.515 25.3492 107.638 25.3492H109.755C110.203 25.3492 110.636 25.6564 110.636 26.5188V46.3212C110.636 46.7268 110.325 47.3532 109.778 47.3532H107.677C107.508 47.3532 107.433 47.4956 107.433 47.5684C107.433 47.6404 107.494 47.7844 107.671 47.7844H117.451C117.587 47.7844 117.701 47.7124 117.701 47.5748C117.701 47.4372 117.613 47.3524 117.421 47.3524H115.442C115.183 47.3524 114.477 47.1884 114.477 46.4028V37.0436H115.487C120.323 37.0436 120.679 42.3108 123.087 45.3292C125.149 47.9148 127.837 48.2428 129.359 48.2428C130.009 48.2428 130.464 48.2212 130.866 48.1204C131.17 48.0436 131.226 47.5924 130.758 47.6428" fill="#212322"/>
</g>
<defs>
<clipPath id="clip0_1214_3943">
<rect width="85" height="24" fill="white" transform="translate(46.1016 24.5996)"/>
</clipPath>
</defs>
</svg>
