<svg width="177" height="73" viewBox="0 0 177 73" fill="none" xmlns="http://www.w3.org/2000/svg">
<g clip-path="url(#clip0_1214_4003)">
<path d="M109.434 29.2754H106.305V43.7821H109.434V29.2754Z" fill="#212322"/>
<path d="M97.9139 41.7909C96.2072 41.7909 95.6383 40.6532 95.6383 37.6665V35.5332C95.6383 32.5465 96.2072 31.4087 97.9139 31.4087C99.4783 31.4087 99.7627 32.4043 99.7627 33.5421H102.892C102.892 30.9821 101.469 29.2754 97.7716 29.2754C93.7894 29.2754 92.3672 31.6932 92.3672 35.6754V37.6665C92.3672 41.6487 93.7894 44.0665 97.7716 44.0665C101.185 44.0665 102.892 42.5021 102.892 39.5154H99.7627C99.7627 40.9376 99.3361 41.7909 97.9139 41.7909Z" fill="#212322"/>
<path d="M148.69 29.2754H144.281L140.156 43.7821H143.285L144.138 40.5109H148.547L149.543 43.7821H152.814L148.69 29.2754ZM144.707 38.3776L145.845 33.6843C145.987 32.9732 146.13 32.5465 146.414 31.5509H146.556C146.698 32.2621 146.841 32.9732 146.983 33.6843L148.121 38.3776H144.707Z" fill="#212322"/>
<path d="M132.901 31.2661C134.181 31.2661 134.75 32.1195 134.75 33.115H137.879C137.737 30.6973 135.888 29.1328 132.901 29.1328C128.635 29.1328 127.07 31.5506 127.07 35.5328V37.6661C127.07 41.9328 128.493 44.0661 133.186 44.0661C135.035 44.0661 136.741 43.6395 137.879 43.2128V35.9595H132.901V38.235H134.893V41.5061C134.466 41.7906 133.897 41.9328 133.186 41.9328C131.053 41.9328 130.341 40.9373 130.341 37.8084V35.8173C130.341 32.8306 130.91 31.2661 132.901 31.2661Z" fill="#212322"/>
<path d="M116.546 29.2754L112.422 43.7821H115.551L116.404 40.5109H120.813L121.809 43.7821H125.08L120.955 29.2754H116.546ZM116.973 38.3776L118.111 33.6843C118.253 32.9732 118.395 32.5465 118.68 31.5509H118.822C118.964 32.2621 119.106 32.9732 119.249 33.6843L120.386 38.3776H116.973Z" fill="#212322"/>
<path d="M41.4526 29.2754L37.3281 43.7821H40.457L41.3103 40.5109H45.7192L46.7148 43.7821H49.9859L45.8615 29.2754H41.4526ZM41.8792 38.3776L43.017 33.6843C43.1592 32.9732 43.3015 32.5465 43.5859 31.5509H43.7281C43.8703 32.2621 44.0126 32.9732 44.1548 33.6843L45.2926 38.3776H41.8792Z" fill="#212322"/>
<path d="M31.9236 36.2437C33.7725 35.817 34.9103 34.8214 34.9103 32.9725C34.9103 30.5548 33.4881 29.417 30.3592 29.417H24.8125V43.9237H30.2169C33.3458 43.9237 35.1947 42.7859 35.1947 39.7992C35.1947 37.8081 34.0569 36.5281 31.9236 36.2437ZM27.9414 31.5503H29.9325C31.3547 31.5503 31.9236 32.1192 31.9236 33.3992C31.9236 34.537 31.2125 35.2481 29.9325 35.2481H27.9414V31.5503ZM29.6481 41.6481H27.7992V37.3814H29.6481C31.2125 37.3814 31.9236 38.0925 31.9236 39.5148C32.0658 41.0792 31.0703 41.6481 29.6481 41.6481Z" fill="#212322"/>
<path d="M67.4805 37.5243H72.316V35.1065H67.4805V31.6932H72.6005V29.2754H64.3516V43.7821H72.7427V41.5065H67.4805V37.5243Z" fill="#212322"/>
<path d="M56.2383 29.2754H53.1094V43.7821H61.216V41.5065H56.2383V29.2754Z" fill="#212322"/>
<path d="M85.6834 37.3821C85.6834 38.3776 85.6834 39.7998 85.6834 41.2221H85.5411C85.2567 40.2265 85.1145 39.2309 84.5456 37.5243L81.7011 29.2754H77.0078V43.7821H79.71V35.3909C79.71 34.2532 79.71 32.8309 79.5678 31.6932H79.71C80.1367 33.2576 80.4211 33.9687 80.8478 35.1065L83.9767 43.9243H88.5278V29.2754H85.8256V37.3821H85.6834Z" fill="#212322"/>
</g>
<defs>
<clipPath id="clip0_1214_4003">
<rect width="128" height="14.9333" fill="white" transform="translate(24.8047 29.1328)"/>
</clipPath>
</defs>
</svg>
