<svg width="177" height="72" viewBox="0 0 177 72" fill="none" xmlns="http://www.w3.org/2000/svg">
<g clip-path="url(#clip0_1214_3969)">
<path fill-rule="evenodd" clip-rule="evenodd" d="M24.2031 35.9578C24.2031 30.1346 28.8587 25.7559 35.0517 25.7559C37.5737 25.7559 39.7704 26.4534 41.7799 27.8462C42.8907 28.618 43.4032 29.203 43.4032 29.9118V33.3095H43.3784C41.6693 29.2525 38.5716 26.7279 35.0517 26.7279C30.8568 26.7279 27.7727 30.6228 27.7727 35.9714C27.7727 41.3581 30.9065 45.154 35.2256 45.154C37.8965 45.154 40.2695 43.3246 40.2695 41.4346V39.1215C40.2695 38.1269 39.8699 37.3304 39.1451 36.9074V36.8826H44.5389V36.9074C43.8141 37.3304 43.4145 38.1269 43.4145 39.1215V41.8599C43.4145 42.6317 42.8907 43.4777 41.1545 44.4969C39.3189 45.5793 37.1469 46.1643 34.9615 46.1643C28.8225 46.1598 24.2031 41.7811 24.2031 35.9578ZM59.3589 44.2315C57.9975 43.0997 57.2366 41.5448 57.2366 39.603V28.618C57.2366 27.6234 56.837 26.8269 56.1123 26.4039V26.3791H61.5061V26.4039C60.7814 26.8269 60.3817 27.6234 60.3817 28.618V39.1305C60.3817 40.8226 60.9055 42.1546 61.8673 43.1244C62.9668 44.2315 64.6263 44.8795 66.6854 44.9042C70.5191 44.9425 73.0026 42.7014 73.0026 39.4297V28.618C73.0026 27.6234 72.603 26.8269 71.8782 26.4039V26.3791H75.0753V26.4039C74.3505 26.8269 73.9509 27.6234 73.9509 28.618V39.4433C73.9509 43.4484 70.693 46.162 65.7733 46.162C62.9781 46.1598 60.831 45.4398 59.3589 44.2315ZM85.9126 35.9714C85.9126 30.1368 90.5681 25.7559 96.7612 25.7559C99.2696 25.7559 101.48 26.4534 103.489 27.8462C104.6 28.618 105.113 29.203 105.113 29.9118V33.3095H105.088C103.379 29.2525 100.281 26.7279 96.6981 26.7279C92.5662 26.7279 89.4821 30.6228 89.4821 35.9714C89.4821 41.2973 92.5662 45.1788 96.8221 45.1788C100.256 45.1788 103.501 42.6654 105.612 38.4982H105.636L105.174 42.0309C105.086 42.7037 104.6 43.3134 103.489 44.083C101.48 45.4758 99.2696 46.1598 96.7612 46.1598C90.4937 46.1351 85.9126 41.7811 85.9126 35.9714ZM116.386 35.9714C116.386 30.1368 121.041 25.7559 127.234 25.7559C129.743 25.7559 131.953 26.4534 133.962 27.8462C135.073 28.618 135.586 29.203 135.586 29.9118V33.3095H135.561C133.852 29.2525 130.754 26.7279 127.171 26.7279C123.039 26.7279 119.955 30.6228 119.955 35.9714C119.955 41.2973 123.039 45.1788 127.296 45.1788C130.729 45.1788 133.974 42.6654 136.085 38.4982H136.109L135.647 42.0309C135.559 42.7037 135.073 43.3134 133.96 44.083C131.95 45.4758 129.741 46.1598 127.232 46.1598C120.969 46.1351 116.386 41.7811 116.386 35.9714ZM147.934 43.3V28.618C147.934 27.6234 147.534 26.8269 146.809 26.4039V26.3791H152.203V26.4039C151.478 26.8269 151.079 27.6234 151.079 28.618V43.3C151.079 44.2945 151.478 45.091 152.203 45.514V45.5388H146.809V45.514C147.534 45.091 147.934 44.2945 147.934 43.3Z" fill="#212322"/>
</g>
<defs>
<clipPath id="clip0_1214_3969">
<rect width="128" height="20.4878" fill="white" transform="translate(24.2031 25.7559)"/>
</clipPath>
</defs>
</svg>
