<svg width="177" height="73" viewBox="0 0 177 73" fill="none" xmlns="http://www.w3.org/2000/svg">
<g clip-path="url(#clip0_1214_4034)">
<path d="M69.687 44.2079V46.2807H72.3709C73.2578 46.2807 73.6352 45.862 73.6352 45.2303C73.6352 44.6605 73.2371 44.2079 72.3717 44.2079H69.6853H69.687ZM69.2196 43.7678H72.3717C73.5113 43.7678 74.1158 44.4135 74.1158 45.2303C74.1158 46.0751 73.546 46.7208 72.3717 46.7208H69.6853V48.9175H69.2188L69.2196 43.7678ZM82.2277 47.0569L80.766 44.1047L79.3027 47.0569H82.2277ZM80.4291 43.7678H81.1153L83.6836 48.9183H83.1484L82.4473 47.4963H79.083L78.3827 48.9183H77.86L80.4291 43.7678ZM88.3766 44.2079V46.2121H91.0341C91.9202 46.2121 92.2976 45.8075 92.2976 45.1964C92.2976 44.6472 91.8995 44.2079 91.0341 44.2079H88.3766ZM87.9092 43.7678H91.0341C92.1737 43.7678 92.7782 44.3995 92.7782 45.1964C92.7782 46.0206 92.2084 46.6523 91.0481 46.6523L93.0738 48.9183H92.4553L90.4436 46.6523H88.3766V48.9183H87.9092V43.7678ZM97.4019 43.7678H97.8685V48.9183H97.4019V43.7678ZM106.42 47.5244C106.42 45.848 102.388 47.2973 102.388 45.1345C102.388 44.2624 103.123 43.6992 104.408 43.6992C105.226 43.6992 106.111 43.9734 106.784 44.4755L106.509 44.8463C105.884 44.4069 105.183 44.1385 104.408 44.1385C103.425 44.1385 102.855 44.5019 102.855 45.113C102.855 46.7687 106.886 45.3467 106.886 47.5037C106.886 48.4171 106.124 48.9869 104.71 48.9869C103.851 48.9869 102.903 48.7259 102.196 48.2106L102.471 47.8398C103.13 48.294 103.886 48.5475 104.71 48.5475C105.823 48.5475 106.42 48.1569 106.42 47.5244Z" fill="#212322"/>
<path fill-rule="evenodd" clip-rule="evenodd" d="M56.9327 24.2129C62.4343 24.2129 66.2924 27.1156 66.2924 30.7508C66.2924 34.3877 62.5367 37.2895 56.9327 37.2895C51.3552 37.2895 47.6011 34.3877 47.6011 30.7508C47.6011 27.1148 51.4238 24.2129 56.9327 24.2129ZM41.2944 36.9856C39.0177 36.9906 36.8656 37.2895 33.9613 37.2895C28.4292 37.2895 24.3984 34.5454 24.3984 30.8466C24.3984 26.905 28.729 24.2129 34.2875 24.2129C37.0407 24.2129 39.5858 24.9883 41.1103 26.4839L39.7105 27.275C38.632 26.0652 37.3809 25.0453 35.0266 25.0453C30.6729 25.0453 28.8371 27.2106 28.8371 30.8466C28.8371 33.9384 30.5053 36.4571 34.726 36.4571C35.8755 36.4571 37.1233 35.9327 37.485 35.1433L37.4899 31.0184H34.4824V29.939H41.2936L41.2944 36.9856ZM117.94 30.6517C121.811 30.6517 123.157 29.8424 123.157 27.9175C123.157 26.4773 122.148 25.3831 118.036 25.3831H114.766V30.6517H117.94ZM110.694 36.9419V24.5597L121.709 24.5622C125.935 24.5622 127.424 26.3294 127.424 28.1875C127.424 30.2793 125.263 31.2141 121.778 31.4461L121.654 31.4544L127.449 36.9419H122.35L116.858 31.5527H114.766V36.9419H110.694ZM94.3426 27.7523L90.5348 33.6221H97.9398L94.3426 27.7523ZM104.738 36.9419H99.9647L98.5749 34.6792L89.8626 34.6833L88.4199 36.9419H86.8195L95.1304 24.3665H96.6549L104.738 36.9419ZM84.1827 24.5597H85.9169L79.6664 31.2793V36.9419H75.3945V31.5221L68.8648 24.5606H73.9518L78.9917 30.1298L84.1835 24.5597H84.1827ZM138.664 36.0855H140.497C145.553 36.0855 147.323 34.1449 147.323 30.8573C147.323 27.6821 145.641 25.3938 140.712 25.3938H138.664V36.0855ZM134.398 24.5597H141.342C148.948 24.5597 151.708 26.9703 151.708 30.8193C151.708 34.7617 148.935 36.9419 142.167 36.9419H134.398V24.5597ZM56.9327 36.4571C60.8652 36.4571 61.9322 33.1894 61.9322 30.7508C61.9322 28.3114 60.6373 25.0445 56.9327 25.0445C53.371 25.0445 51.9622 28.3105 51.9622 30.7508C51.9622 33.1886 52.9912 36.4571 56.9327 36.4571Z" fill="#212322"/>
</g>
<defs>
<clipPath id="clip0_1214_4034">
<rect width="128" height="24.7742" fill="white" transform="translate(24.3984 24.2129)"/>
</clipPath>
</defs>
</svg>
