<svg width="177" height="73" viewBox="0 0 177 73" fill="none" xmlns="http://www.w3.org/2000/svg">
<g clip-path="url(#clip0_1214_4598)">
<path d="M65.6016 47.3V30.9C65.6016 28.6 65.9016 27.7 67.1016 27.5V27.4H61.1016V27.5C62.3016 27.8 62.6016 28.6 62.6016 30.9V47.3C62.6016 49.6 62.3016 50.5 61.1016 50.7V50.8H67.1016V50.7C65.9016 50.5 65.6016 49.6 65.6016 47.3ZM132.802 18.8L133.102 20.1L134.302 24.8H134.202C133.602 23.7 132.802 21.9 131.602 20.9C129.902 19.5 127.302 19.9 126.302 19.9V48.8C126.302 52.9 126.502 54.4001 129.102 54.7001V54.8H120.202V54.7001C122.802 54.5 123.002 52.9 123.002 48.8V19.9C122.402 20 120.102 19.6 118.402 20.5C116.702 21.4 116.002 23.4 115.202 24.8H115.102L116.702 18.8H132.802ZM116.302 27.4L117.602 31.6H117.502C116.202 28.6 115.002 28.3 111.602 28.4H109.502V38.3H111.202C112.902 38.3 114.202 38 113.902 35.3H114.002L115.502 41.1H115.402V41C114.702 39.4 113.502 39.4 112.202 39.4H109.602V49.8H110.802C115.102 49.8 117.002 48.6 118.302 45.4H118.402L116.702 50.8H105.202C106.402 50.5 106.502 49.6 106.502 47.3V30.9C106.502 28.6 106.402 27.8 105.202 27.5V27.4H116.302ZM95.4016 38.7C97.7016 39.1 98.0016 40.4 98.0016 43.8V46.9C98.0016 47.5 97.8016 49.8 96.2016 50.5C95.5016 50.8 95.1016 50.8 94.6016 50.8C94.2016 50.8 93.3016 50.5 92.8016 50C91.9016 49.3 91.5016 48.3 91.0016 45.8C90.7016 44.2 90.4016 41.5 90.4016 38.7C90.4016 35.9 90.7016 33.2 91.2016 31.6C92.0016 28.9 93.5016 27.5 95.3016 27.5C96.8016 27.5 99.4016 28.2 101.102 32.2H101.202L99.9016 28.1L99.7016 27.4H99.6016C99.6016 27.6 99.6016 27.9 99.3016 27.9C99.0016 27.9 98.7016 27.6 98.5016 27.5C97.6016 26.9 96.5016 26.6 95.2016 26.6C93.2016 26.6 86.9016 27.3 86.9016 38.8C86.9016 50.5 92.8016 51.8 94.6016 51.8C95.3016 51.8 96.3016 51.5 97.0016 51.2001C97.5016 51 98.1016 50.7 99.5016 50.7C100.002 50.7 100.502 50.9 101.202 50.9V38.7H95.4016ZM50.3016 18.8H42.1016V18.9C44.7016 19.2 45.0016 20.4 45.0016 24.7V48.8C45.0016 53.1 44.7016 54.4001 42.2016 54.7001V54.8H51.1016V54.7001C48.6016 54.4001 48.3016 53.1 48.3016 48.8V37.6H49.8016C54.8016 37.6 59.1016 35.3 59.1016 28.2C59.0016 21.4 56.1016 18.8 50.3016 18.8ZM49.9016 19.9C54.2016 19.9 55.5016 22.5 55.5016 28.1C55.5016 34.6 52.3016 36.4 49.3016 36.4H48.2016V19.9H49.9016ZM86.5016 50.8C85.2016 50.4 84.5016 49.8 83.9016 47.7L77.7016 24.9L71.1016 47.5C70.3016 50.1 69.7016 50.7 69.0016 50.7V50.8H72.9016V50.7C71.2016 50.4 71.7016 49.1 72.4016 46.7L74.4016 39.4H78.3016L80.5016 47.4C81.2016 49.6 79.8016 50.5 78.6016 50.7V50.8H86.5016ZM74.8016 38.3L76.4016 32.5L78.0016 38.3H74.8016Z" fill="#212322"/>
</g>
<defs>
<clipPath id="clip0_1214_4598">
<rect width="93" height="36" fill="white" transform="translate(41.7031 18.8)"/>
</clipPath>
</defs>
</svg>
