<svg width="177" height="73" viewBox="0 0 177 73" fill="none" xmlns="http://www.w3.org/2000/svg">
<g clip-path="url(#clip0_1214_4605)">
<path d="M60.0331 41.1801L60.03 44.318L59.715 44.5633C58.6733 42.9884 56.1208 40.7057 52.9367 40.7057C51.5468 40.7057 48.7935 41.391 48.7935 45.1515C48.7935 46.8508 50.5916 51.3659 55.6594 51.3659C58.529 51.3659 60.7554 48.9267 61.2833 48.2629L61.7799 48.4735C61.1253 50.5167 58.431 53.4732 54.4174 53.4732C50.352 53.4732 46.9375 50.1597 46.9375 46.1489C46.9375 42.4782 50.0231 38.9221 54.4027 38.9221C55.2679 38.9247 57.6477 39.0644 60.0331 41.1801Z" fill="#212322"/>
<path d="M71.683 38.9563C67.5132 38.9563 64.1328 42.21 64.1328 46.2238C64.1328 50.237 67.5132 53.491 71.683 53.491C75.8536 53.491 79.2346 50.237 79.2346 46.2238C79.2346 42.21 75.8537 38.9563 71.683 38.9563ZM76.0022 50.7926C74.0531 52.6112 70.5509 52.086 68.1777 49.5691C65.8048 47.0524 65.461 43.5375 67.4091 41.7182C69.3578 39.8993 72.8613 40.4653 75.2343 42.9818C77.6075 45.4991 77.9506 48.973 76.0022 50.7926Z" fill="#212322"/>
<path d="M82.875 39.2246L82.8753 53.3456L85.4957 53.3341C85.4957 52.4562 85.4894 46.941 85.4928 46.7666C85.4928 46.7666 86.6201 46.6175 87.4126 47.0917C87.8543 47.3567 88.6886 48.0004 89.1909 48.6047C90.188 49.657 90.941 51.0698 92.0049 52.0352C92.7373 52.6598 93.8466 53.1684 94.627 53.3034C95.4074 53.438 96.7399 53.4617 97.2692 53.3821C97.3247 53.3761 97.3811 53.3618 97.3883 53.2908C97.3811 53.2121 97.3393 53.1817 97.2483 53.1585C96.0153 52.8047 95.4538 52.4782 94.8379 51.9255C92.8751 50.1621 92.8406 48.5302 89.6243 46.8318H91.6906C95.6301 46.8318 96.3633 44.4967 96.3633 42.9403C96.3633 39.7158 93.9167 39.2247 91.1441 39.2247L82.875 39.2246ZM85.496 45.8048L85.4997 40.2862L90.3354 40.2835C91.5996 40.2835 93.6748 40.5095 93.6748 43.0269C93.6748 45.211 92.3276 45.8049 91.2235 45.8049L85.496 45.8048Z" fill="#212322"/>
<path d="M111.808 39.219V47.1251C111.808 50.0492 110.314 53.5736 105.711 53.5736C103.603 53.5736 100.79 52.6112 99.7307 49.3456C99.5259 48.6364 99.4434 47.86 99.4297 47.079C99.4297 47.079 99.4422 39.2746 99.4422 39.2124H102.063V47.4138C102.05 51.3391 105.554 51.5272 105.997 51.5272C108.914 51.5272 110.363 49.8499 110.363 46.6254L110.362 39.2188L111.808 39.219Z" fill="#212322"/>
<path d="M131.175 53.3253L131.175 39.2446H128.6C128.6 39.2446 124.63 47.4386 123.768 49.0268L118.134 39.2446H115.767L115.766 53.3249L117.428 53.3253V43.0826L123.119 53.3632L128.583 42.338L128.576 53.3249L131.175 53.3253Z" fill="#212322"/>
<path d="M92.6944 28.7545C92.3409 28.4898 92.2269 28.3202 91.8697 28.3202C91.3718 28.3202 90.9673 28.7224 90.9673 29.2196C90.9673 29.7152 91.1018 29.8113 91.6855 30.1642C91.7064 30.2737 91.7658 30.4744 91.7658 30.5911C91.7658 31.6254 90.9227 32.4658 89.8814 32.4658C88.8412 32.4658 87.9974 31.6252 87.9974 30.5911C87.9974 30.4226 88.0162 30.3893 88.0563 30.2342C88.6057 29.8641 88.8656 29.7152 88.8656 29.2195C88.8656 28.7223 88.4611 28.32 87.9618 28.32C87.5897 28.32 87.3138 28.5956 87.0307 28.7899C85.9902 28.7899 85.2545 27.9805 85.2545 26.9448C85.2545 25.9103 86.0973 25.0701 87.1386 25.0701C87.7475 25.0701 88.2893 25.4035 88.6345 25.8499C88.9296 26.1648 89.1921 26.6902 89.9139 26.6902C90.6405 26.6902 90.8636 26.16 91.1598 25.8277C91.5038 25.3677 92.0536 25.0701 92.6731 25.0701C93.7143 25.0701 94.559 25.9104 94.559 26.9448C94.5588 27.9805 93.7352 28.7545 92.6944 28.7545ZM96.5962 26.6852C96.5962 24.98 95.2064 23.5975 93.4924 23.5975C92.4211 23.5975 91.4764 24.0033 90.9188 24.8253L90.9163 24.344C91.0489 24.344 91.333 24.0736 91.333 23.7401C91.333 23.4066 91.2151 23.2614 90.9475 23.1361L90.9544 20.4321H92.0304V19.4H92.8427V20.4321H94.8404V19.0422H93.7918V18.3222H94.8404V17.0281H92.8427V17.8624H92.0304V17.0281H91.2275V16.1828H92.0304V15.376H92.8427V16.1828H94.8404V14.9282H93.7918V14.2085H94.8404V12.7791H92.8427V13.7941H92.0304V12.7791H90.9485V12.6621V12.6757C90.9485 12.1086 90.4859 11.6487 89.9161 11.6487C89.3462 11.6487 88.8841 12.1086 88.8841 12.6757V12.6621V12.7791H87.7882V13.7941H86.9766V12.7791H84.9894V14.2086H86.0268V14.9283H84.9894V16.183H86.9766V15.3762H87.7882V16.183H88.5804V17.0282H87.7882V17.8625H86.9766V17.0282H84.9894V18.3223H86.0268V19.0422H84.9894V20.4322H86.9766V19.4001H87.7882V20.4322H88.8731L88.8684 23.1362C88.6478 23.2418 88.4828 23.4068 88.4828 23.7403C88.4828 24.0736 88.7701 24.3441 88.879 24.3441L88.8714 24.8254C88.314 24.0034 87.3704 23.5976 86.2987 23.5976C84.5849 23.5976 83.1953 24.9801 83.1953 26.6854C83.1953 28.1345 84.2488 29.3755 85.6018 29.7092C85.3063 29.8602 85.1044 30.1667 85.1044 30.5198C85.1044 31.0228 85.515 31.4299 86.0209 31.4299C86.2801 31.4299 86.5015 31.3219 86.6685 31.1485C86.6616 31.2272 86.6594 31.307 86.6594 31.3884C86.6594 33.1376 88.1157 34.5561 89.9135 34.5561C91.7112 34.5561 93.1674 33.1376 93.1674 31.3884C93.1674 31.3258 93.1659 31.263 93.1625 31.2013C93.323 31.344 93.537 31.4299 93.7692 31.4299C94.2751 31.4299 94.6857 31.0228 94.6857 30.5198C94.6857 30.1533 94.4679 29.8381 94.1547 29.6931C95.508 29.3596 96.5962 28.1343 96.5962 26.6852Z" fill="#212322"/>
<path d="M48.16 59.3767H48.5042L49.4677 61.6014H49.0128L48.8043 61.0923H47.8351L47.6329 61.6014H47.1875L48.16 59.3767ZM48.6655 60.7531L48.3212 59.848L47.9708 60.7531H48.6655Z" fill="#212322"/>
<path d="M51.3125 59.3767H51.7706L52.3801 61.0576L53.0084 59.3767H53.4377L52.5349 61.6014H52.1905L51.3125 59.3767Z" fill="#212322"/>
<path d="M56.2854 59.3767H56.6292L57.5927 61.6014H57.1379L56.9293 61.0923H55.9601L55.7579 61.6014H55.3125L56.2854 59.3767ZM56.7905 60.7531L56.4462 59.848L56.0958 60.7531H56.7905Z" fill="#212322"/>
<path d="M59.8906 59.3767H60.4181L61.5013 61.0298H61.5073V59.3767H61.9055V61.6014H61.4L60.2949 59.8954H60.2885V61.6014H59.8906V59.3767Z" fill="#212322"/>
<path d="M64.9193 59.7351H64.2344V59.3767H66.0025V59.7351H65.3174V61.6014H64.9193V59.7351Z" fill="#212322"/>
<path d="M68.5533 60.6677H67.7734V60.9887H68.5533V60.6677Z" fill="#212322"/>
<path d="M72.9503 61.4383C72.6746 61.5847 72.3659 61.6578 72.0251 61.6578C71.8523 61.6578 71.6937 61.6303 71.5496 61.5748C71.4053 61.5192 71.2813 61.4408 71.1767 61.3389C71.0727 61.2375 70.9911 61.1158 70.932 60.9731C70.8733 60.8305 70.8438 60.6717 70.8438 60.4983C70.8438 60.3205 70.8733 60.1587 70.932 60.0131C70.9911 59.8674 71.0726 59.7434 71.1767 59.6402C71.2813 59.5384 71.4053 59.4594 71.5496 59.4037C71.6937 59.3478 71.8523 59.3203 72.0251 59.3203C72.1955 59.3203 72.3553 59.3407 72.5052 59.3817C72.6546 59.4221 72.7879 59.4951 72.9062 59.6003L72.6125 59.8955C72.5408 59.8259 72.454 59.7727 72.352 59.7353C72.25 59.6972 72.1419 59.6787 72.0281 59.6787C71.9124 59.6787 71.8076 59.6992 71.714 59.7396C71.6202 59.7806 71.5396 59.8369 71.4722 59.9097C71.4049 59.982 71.3526 60.0663 71.3161 60.1622C71.279 60.259 71.2608 60.3625 71.2608 60.4736C71.2608 60.5934 71.279 60.7028 71.3161 60.8032C71.3527 60.9041 71.4049 60.9911 71.4722 61.064C71.5396 61.1379 71.6202 61.195 71.714 61.2373C71.8076 61.2787 71.9124 61.2999 72.0281 61.2999C72.1293 61.2999 72.2245 61.2901 72.3141 61.2713C72.4034 61.2527 72.4831 61.2234 72.5523 61.1837V60.6589H72.0943V60.3007H72.9503V61.4383Z" fill="#212322"/>
<path d="M76.1989 59.3767H76.5433L77.5067 61.6014H77.0517L76.8432 61.0923H75.874L75.6717 61.6014H75.2266L76.1989 59.3767ZM76.7044 60.7531L76.3603 59.848L76.0096 60.7531H76.7044Z" fill="#212322"/>
<path d="M79.8047 59.3767H80.5818C80.6892 59.3767 80.7927 59.3866 80.8928 59.4067C80.9929 59.4264 81.0817 59.4606 81.1599 59.5086C81.2379 59.5571 81.2996 59.6219 81.3464 59.7034C81.3925 59.7854 81.4155 59.8888 81.4155 60.0148C81.4155 60.1758 81.3705 60.311 81.2815 60.4198C81.1915 60.5289 81.0639 60.5951 80.8977 60.6181L81.4912 61.6013H81.0112L80.4935 60.6587H80.2026V61.6013H79.8047V59.3767ZM80.5123 60.3195C80.5693 60.3195 80.6261 60.3169 80.6828 60.3114C80.7397 60.3062 80.7919 60.2936 80.8391 60.2738C80.8868 60.2544 80.9251 60.2237 80.9547 60.183C80.9838 60.1417 80.9987 60.0849 80.9987 60.0114C80.9987 59.9467 80.9847 59.8944 80.9576 59.8546C80.9304 59.8144 80.8943 59.785 80.8504 59.7649C80.806 59.7452 80.7573 59.732 80.7036 59.7255C80.6496 59.7193 80.5978 59.716 80.547 59.716H80.2027V60.3195H80.5123Z" fill="#212322"/>
<path d="M83.8517 59.3767H84.7326C84.8801 59.3767 85.0221 59.3995 85.1588 59.4442C85.296 59.4893 85.4169 59.558 85.5221 59.6499C85.6277 59.7423 85.7117 59.8577 85.7748 59.9973C85.8378 60.1367 85.8696 60.3006 85.8696 60.4885C85.8696 60.6796 85.8334 60.8446 85.7606 60.9837C85.6878 61.1234 85.5943 61.2385 85.4797 61.3296C85.3651 61.4204 85.2375 61.4885 85.0976 61.534C84.9574 61.5789 84.8199 61.6011 84.6854 61.6011H83.8516V59.3767H83.8517ZM84.5464 61.2432C84.6709 61.2432 84.7878 61.2289 84.8983 61.2009C85.0093 61.1723 85.1052 61.1286 85.1875 61.0692C85.2695 61.0095 85.3344 60.932 85.3818 60.8361C85.4293 60.7411 85.4528 60.6253 85.4528 60.4887C85.4528 60.3553 85.4315 60.2398 85.3894 60.1437C85.3475 60.0473 85.289 59.9691 85.2142 59.9096C85.1396 59.8498 85.051 59.8059 84.949 59.7777C84.8469 59.749 84.7348 59.7354 84.6125 59.7354H84.2496V61.2433H84.5464V61.2432Z" fill="#212322"/>
<path d="M88.2969 59.3767H89.7781V59.7351H88.6949V60.2818H89.721V60.64H88.6949V61.2432H89.8348V61.6014H88.2969V59.3767Z" fill="#212322"/>
<path d="M96.3644 59.8545C96.3224 59.7935 96.2661 59.749 96.1956 59.7207C96.125 59.6925 96.0508 59.6785 95.9729 59.6785C95.9266 59.6785 95.8818 59.6836 95.8388 59.694C95.7956 59.7044 95.7564 59.7216 95.7219 59.7444C95.687 59.7674 95.6592 59.7973 95.6384 59.8338C95.6173 59.8705 95.6067 59.9139 95.6067 59.9644C95.6067 60.0396 95.6329 60.0973 95.6856 60.1372C95.7383 60.1767 95.8036 60.2118 95.8814 60.2404C95.9593 60.2703 96.0448 60.2987 96.1371 60.3256C96.2298 60.3531 96.3151 60.3909 96.3931 60.4382C96.471 60.4871 96.5362 60.5508 96.5887 60.6303C96.6414 60.7099 96.6678 60.8155 96.6678 60.9478C96.6678 61.0672 96.6458 61.1719 96.6015 61.2607C96.5572 61.3492 96.4976 61.4237 96.4228 61.4816C96.348 61.541 96.2612 61.5852 96.1622 61.6142C96.0632 61.6434 95.9591 61.6579 95.8499 61.6579C95.7108 61.6579 95.5772 61.6349 95.4487 61.5889C95.3203 61.543 95.2098 61.4654 95.1172 61.3563L95.4172 61.0672C95.4656 61.1409 95.5293 61.1973 95.6082 61.2387C95.687 61.2793 95.771 61.2999 95.8593 61.2999C95.9057 61.2999 95.9518 61.2937 95.9983 61.2811C96.0446 61.2683 96.0866 61.2502 96.1246 61.2247C96.1623 61.199 96.1929 61.1675 96.2159 61.1288C96.239 61.0895 96.251 61.0453 96.251 60.9953C96.251 60.9138 96.2244 60.8506 96.172 60.8063C96.1194 60.7623 96.0539 60.7257 95.9763 60.6952C95.898 60.6647 95.8129 60.6361 95.7203 60.6086C95.6276 60.5816 95.5425 60.5442 95.4646 60.4971C95.387 60.4502 95.3215 60.3875 95.2687 60.3079C95.2159 60.2298 95.1899 60.125 95.1899 59.9931C95.1899 59.8779 95.2134 59.7781 95.2608 59.6944C95.3083 59.6105 95.3702 59.5411 95.4472 59.4856C95.5239 59.4299 95.6117 59.3885 95.7109 59.361C95.8098 59.3341 95.9108 59.3206 96.014 59.3206C96.1321 59.3206 96.2462 59.3387 96.3565 59.3739C96.4671 59.4095 96.5667 59.4681 96.6551 59.5498L96.3644 59.8545Z" fill="#212322"/>
<path d="M99.5232 59.3765H99.125V61.6014H99.5232V59.3765Z" fill="#212322"/>
<path d="M102.062 59.3767H102.59L103.673 61.0298H103.679V59.3767H104.077V61.6014H103.572L102.467 59.8954H102.46V61.6014H102.062V59.3767Z" fill="#212322"/>
<path d="M108.17 59.8982C108.088 59.8105 108.009 59.7516 107.932 59.7227C107.855 59.693 107.778 59.6785 107.7 59.6785C107.584 59.6785 107.479 59.6984 107.386 59.7395C107.292 59.7804 107.211 59.8372 107.144 59.9094C107.077 59.9814 107.024 60.0661 106.988 60.1622C106.951 60.2587 106.933 60.3618 106.933 60.4733C106.933 60.5931 106.951 60.7026 106.988 60.8035C107.024 60.9033 107.077 60.9905 107.144 61.0642C107.211 61.1376 107.292 61.1953 107.386 61.2371C107.479 61.2785 107.584 61.2997 107.7 61.2997C107.79 61.2997 107.878 61.2782 107.964 61.2353C108.049 61.1926 108.128 61.124 108.202 61.0295L108.531 61.2619C108.43 61.4005 108.307 61.5008 108.161 61.5634C108.016 61.6262 107.861 61.6577 107.697 61.6577C107.524 61.6577 107.366 61.6302 107.222 61.5747C107.077 61.519 106.953 61.4406 106.849 61.3387C106.744 61.2373 106.663 61.1156 106.604 60.973C106.545 60.8303 106.516 60.6724 106.516 60.4981C106.516 60.3204 106.545 60.1586 106.604 60.0125C106.663 59.8673 106.744 59.7433 106.849 59.6404C106.953 59.5382 107.077 59.4587 107.222 59.4035C107.366 59.3478 107.524 59.3201 107.697 59.3201C107.849 59.3201 107.989 59.3467 108.119 59.4003C108.248 59.4535 108.368 59.5444 108.48 59.6719L108.17 59.8982Z" fill="#212322"/>
<path d="M110.852 59.3767H112.333V59.7351H111.249V60.2818H112.276V60.64H111.249V61.2432H112.39V61.6014H110.852V59.3767Z" fill="#212322"/>
<path d="M118.414 59.8106L117.994 60.1966L117.773 59.9359L118.449 59.3767H118.794V61.6014H118.414V59.8106Z" fill="#212322"/>
<path d="M121.983 61.6014L122.52 60.7787L122.514 60.7715C122.491 60.7847 122.46 60.7941 122.421 60.8005C122.382 60.8067 122.344 60.8097 122.305 60.8097C122.206 60.8097 122.116 60.7909 122.034 60.7532C121.952 60.7156 121.881 60.6642 121.821 60.5988C121.761 60.5343 121.714 60.4586 121.682 60.3726C121.649 60.2873 121.633 60.1959 121.633 60.0992C121.633 59.9846 121.652 59.8796 121.693 59.7856C121.733 59.6912 121.788 59.6113 121.858 59.545C121.929 59.4788 122.013 59.4283 122.111 59.3927C122.209 59.357 122.315 59.3394 122.428 59.3394C122.544 59.3394 122.651 59.3566 122.749 59.3908C122.847 59.4256 122.931 59.4753 123.002 59.5403C123.072 59.6054 123.127 59.6845 123.166 59.779C123.205 59.8735 123.224 59.9786 123.224 60.0964C123.224 60.2139 123.205 60.32 123.166 60.4153C123.127 60.5106 123.077 60.6073 123.016 60.7057L122.444 61.6014H121.983ZM122.827 60.1028C122.827 60.046 122.816 59.9934 122.795 59.9441C122.774 59.8949 122.745 59.852 122.708 59.8151C122.671 59.7785 122.628 59.7493 122.578 59.7286C122.529 59.7078 122.476 59.6971 122.419 59.6971C122.362 59.6971 122.309 59.7078 122.26 59.7286C122.211 59.7493 122.167 59.7785 122.13 59.8151C122.094 59.852 122.064 59.8949 122.043 59.9441C122.022 59.9935 122.012 60.046 122.012 60.1028C122.012 60.1593 122.022 60.2125 122.043 60.2613C122.064 60.3105 122.094 60.3537 122.13 60.3903C122.167 60.4266 122.211 60.4557 122.26 60.4766C122.309 60.4974 122.362 60.5079 122.419 60.5079C122.476 60.5079 122.529 60.4974 122.578 60.4766C122.628 60.4557 122.671 60.4266 122.708 60.3903C122.745 60.3537 122.774 60.3105 122.795 60.2613C122.816 60.2123 122.827 60.1593 122.827 60.1028Z" fill="#212322"/>
<path d="M127.011 59.716H126.111L126.101 60.1592C126.131 60.1487 126.168 60.1415 126.213 60.1372C126.259 60.133 126.301 60.1309 126.341 60.1309C126.451 60.1309 126.551 60.1482 126.643 60.1829C126.734 60.2173 126.813 60.2672 126.878 60.3319C126.943 60.3967 126.994 60.4743 127.031 60.5645C127.068 60.6546 127.087 60.756 127.087 60.8691C127.087 60.9889 127.066 61.0961 127.025 61.191C126.984 61.2865 126.927 61.3674 126.855 61.4338C126.782 61.4995 126.696 61.5498 126.597 61.5861C126.498 61.6212 126.392 61.639 126.278 61.639C126.099 61.639 125.947 61.5974 125.822 61.5137C125.696 61.4292 125.607 61.3022 125.555 61.1303L125.953 61.0232C125.978 61.1025 126.021 61.1657 126.082 61.2116C126.143 61.258 126.222 61.281 126.319 61.281C126.376 61.281 126.428 61.2716 126.476 61.2527C126.523 61.2334 126.564 61.207 126.599 61.1728C126.633 61.1381 126.66 61.0975 126.679 61.0516C126.698 61.0053 126.708 60.9553 126.708 60.9009C126.708 60.8232 126.693 60.7573 126.665 60.7027C126.637 60.6488 126.598 60.6037 126.55 60.5692C126.501 60.5345 126.446 60.5095 126.383 60.4933C126.319 60.4781 126.253 60.4702 126.184 60.4702C126.101 60.4702 126.02 60.4795 125.939 60.4984C125.858 60.5176 125.784 60.5436 125.716 60.5773L125.738 59.3767H127.011V59.716H127.011Z" fill="#212322"/>
<path d="M130.933 59.716H130.033L130.023 60.1592C130.052 60.1487 130.09 60.1415 130.135 60.1372C130.18 60.133 130.223 60.1309 130.263 60.1309C130.372 60.1309 130.473 60.1482 130.565 60.1829C130.656 60.2173 130.735 60.2672 130.8 60.3319C130.865 60.3967 130.916 60.4743 130.953 60.5645C130.99 60.6546 131.009 60.756 131.009 60.8691C131.009 60.9889 130.988 61.0961 130.947 61.191C130.905 61.2865 130.849 61.3674 130.776 61.4338C130.704 61.4995 130.618 61.5498 130.519 61.5861C130.42 61.6212 130.313 61.639 130.2 61.639C130.02 61.639 129.869 61.5974 129.743 61.5137C129.618 61.4292 129.529 61.3022 129.477 61.1303L129.874 61.0232C129.9 61.1025 129.943 61.1657 130.004 61.2116C130.065 61.258 130.144 61.281 130.241 61.281C130.298 61.281 130.35 61.2716 130.397 61.2527C130.445 61.2334 130.486 61.207 130.52 61.1728C130.555 61.1381 130.582 61.0975 130.6 61.0516C130.62 61.0053 130.629 60.9553 130.629 60.9009C130.629 60.8232 130.616 60.7573 130.587 60.7027C130.558 60.6488 130.52 60.6037 130.471 60.5692C130.423 60.5345 130.367 60.5095 130.304 60.4933C130.241 60.4781 130.174 60.4702 130.105 60.4702C130.023 60.4702 129.941 60.4795 129.86 60.4984C129.779 60.5176 129.705 60.5436 129.638 60.5773L129.66 59.3767H130.932V59.716H130.933Z" fill="#212322"/>
</g>
<defs>
<clipPath id="clip0_1214_4605">
<rect width="86" height="51" fill="white" transform="translate(45.8047 11.1001)"/>
</clipPath>
</defs>
</svg>
