<svg width="177" height="73" viewBox="0 0 177 73" fill="none" xmlns="http://www.w3.org/2000/svg">
<path d="M59.8523 39.5C55.8523 39.5 52.6523 42.8 52.7523 46.8C52.7523 50.8 55.8523 54 59.8523 54.1C63.8523 53.9 66.9523 50.5 66.7523 46.4C66.5523 42.7 63.6523 39.7 59.8523 39.5ZM64.8523 46.8C64.9523 49.6 62.7523 52 59.9523 52C59.9523 52 59.9523 52 59.8523 52C56.9523 52 54.6523 49.6 54.6523 46.8C54.6523 44 57.0523 41.6 59.8523 41.6C62.6523 41.6 64.9523 43.9 64.8523 46.8C64.8523 46.7 64.8523 46.7 64.8523 46.8Z" fill="#212322"/>
<path d="M75.7516 48.9999L71.7516 39.3999L67.3516 53.6999H69.5516V53.7999L72.0516 45.2999L75.7516 54.1999L79.4516 45.2999L82.0516 53.7999H84.1516L79.7516 39.3999L75.7516 48.9999Z" fill="#212322"/>
<path d="M117.448 39L110.148 53.7H112.448L113.948 50.8H121.148L122.548 53.7H124.848L117.448 39ZM114.848 48.9L117.348 43.6L119.948 48.9H114.848Z" fill="#212322"/>
<path d="M110.352 46.3H103.452V48.3H108.252C107.652 50.5 105.652 52 103.352 52C100.452 52 98.1524 49.7 98.1524 46.8C98.1524 43.9 100.452 41.6 103.352 41.6C105.052 41.6 106.552 42.5 107.552 43.8L109.152 42.6C107.852 40.7 105.652 39.5 103.352 39.5C99.5524 39.5 96.3524 42.6 96.2524 46.4C96.1524 50.3 99.2524 53.6 103.152 53.7C107.052 53.8 110.352 50.7 110.452 46.8C110.352 46.6 110.352 46.5 110.352 46.3Z" fill="#212322"/>
<path d="M81.0484 26.4C81.0484 22.7 83.6484 19 87.7484 19C91.9484 19 94.4484 22.5 94.4484 26.4C94.4484 30.2 92.4484 33.2 89.5484 35.4L89.6484 35.7H96.2484L97.6484 32.9H96.9484L96.0484 34.3H92.6484C95.2484 32.6 96.8484 29.7 96.9484 26.6C96.9484 21.3 92.3484 18.2 87.6484 18.2C82.9484 18.2 78.3484 21.3 78.3484 26.6C78.4484 29.7 80.0484 32.6 82.6484 34.3H79.2484L78.3484 32.9H77.6484L79.0484 35.7H85.6484L85.8484 35.4C83.0484 33.2 81.0484 30.1 81.0484 26.4Z" fill="#212322"/>
<path d="M85.8516 53.7H94.1516V51.7H87.9516V47.8H93.9516V45.8H87.9516V41.8H94.1516V39.8H85.8516V53.7Z" fill="#212322"/>
</svg>
