<svg width="505" height="505" viewBox="0 0 505 505" fill="none" xmlns="http://www.w3.org/2000/svg">
<path opacity="0.1" d="M504.687 454.892L479.135 240.827C477.531 227.387 471.024 214.998 460.848 206.009C450.672 197.02 437.534 192.054 423.922 192.052H354.566C353.241 192.052 351.971 192.576 351.035 193.507C350.098 194.438 349.572 195.701 349.572 197.018V285.562C349.572 337.09 309.768 381.026 258.028 383.951C211.068 386.606 169.495 355.107 158.363 311.148H174.991C175.283 311.147 175.57 311.071 175.823 310.925C176.075 310.78 176.285 310.571 176.431 310.319C176.577 310.068 176.653 309.782 176.653 309.492C176.653 309.202 176.576 308.916 176.43 308.665L146.075 256.511C145.931 256.256 145.721 256.044 145.467 255.897C145.213 255.749 144.924 255.672 144.63 255.672C144.336 255.672 144.048 255.749 143.794 255.897C143.54 256.044 143.33 256.256 143.186 256.511L112.923 308.723C112.778 308.974 112.703 309.259 112.703 309.549C112.704 309.839 112.782 310.124 112.928 310.375C113.074 310.626 113.284 310.834 113.537 310.979C113.79 311.123 114.076 311.199 114.368 311.199H131.083C142.59 369.951 196.318 413.036 257.617 410.496C324.275 407.738 376.153 351.612 376.153 285.28V218.523H423.905C430.999 218.525 437.846 221.113 443.149 225.797C448.453 230.482 451.844 236.938 452.682 243.942L478.112 457.156C478.69 462.058 476.668 469.259 473.246 472.84C471.53 474.649 469.459 476.088 467.16 477.067C464.861 478.046 462.384 478.543 459.883 478.529H45.9423C40.9776 478.529 34.0304 475.656 30.8573 471.88C29.2543 469.976 28.0623 467.764 27.3554 465.383C26.6485 463.001 26.4417 460.5 26.748 458.035L52.2884 243.942C53.1271 236.937 56.52 230.481 61.8244 225.797C67.1289 221.112 73.9767 218.524 81.0712 218.523H150.427C151.083 218.523 151.732 218.395 152.338 218.145C152.943 217.896 153.493 217.53 153.956 217.069C154.42 216.607 154.787 216.06 155.037 215.458C155.288 214.855 155.416 214.21 155.415 213.558V125.002C155.415 73.6009 195.029 29.734 246.636 26.6421C293.452 23.8376 334.967 55.0036 346.405 98.6579H329.979C329.687 98.6583 329.4 98.7351 329.148 98.8805C328.895 99.026 328.685 99.2349 328.539 99.4865C328.394 99.738 328.317 100.023 328.317 100.314C328.317 100.604 328.394 100.889 328.54 101.141L358.918 153.306C359.062 153.561 359.272 153.773 359.526 153.92C359.78 154.068 360.069 154.145 360.363 154.145C360.657 154.145 360.946 154.068 361.2 153.92C361.454 153.773 361.663 153.561 361.808 153.306L392.064 101.095C392.211 100.844 392.288 100.559 392.288 100.268C392.289 99.9783 392.212 99.6932 392.066 99.4419C391.92 99.1907 391.71 98.9822 391.457 98.8374C391.204 98.6927 390.917 98.6169 390.625 98.6177H373.743C361.883 40.1821 308.207 -2.56416 247.052 0.119692C180.522 3.03917 128.823 59.1012 128.823 125.318V192.052H81.0712C67.4587 192.051 54.3188 197.016 44.1423 206.006C33.9658 214.996 27.4599 227.386 25.8579 240.827L0.311718 454.892C-0.769451 463.996 0.97689 473.21 5.31619 481.299C9.65549 489.387 16.3799 495.961 24.5864 500.138C31.1579 503.512 38.5559 505 45.9712 505H459.028C466.426 505 473.824 503.512 480.413 500.138C488.62 495.962 495.346 489.388 499.685 481.3C504.025 473.211 505.77 463.996 504.687 454.892Z" fill="url(#paint0_linear_1242_4244)"/>
<defs>
<linearGradient id="paint0_linear_1242_4244" x1="378.399" y1="0" x2="89.4271" y2="0" gradientUnits="userSpaceOnUse">
<stop stop-color="#4E5365"/>
<stop offset="1" stop-color="#4E5365" stop-opacity="0.53"/>
</linearGradient>
</defs>
</svg>
