<svg width="295" height="545" viewBox="0 0 295 545" fill="none" xmlns="http://www.w3.org/2000/svg">
<g opacity="0.1">
<path d="M295.005 272.495C295.005 191.192 228.834 125.045 147.503 125.045C118.719 125.015 90.5634 133.452 66.5424 149.304L79.1053 49.6251L79.198 48.9007V48.1647C79.2134 41.5542 81.8495 35.2194 86.5287 30.5484C91.208 25.8774 97.5487 23.251 104.162 23.2449H170.072C176.69 23.2511 183.035 25.8814 187.715 30.5587C192.395 35.236 195.028 41.5782 195.035 48.1936V58.9265H175.081L206.677 113.634L238.272 58.9265H218.26V48.1647C218.246 35.3938 213.164 23.1501 204.13 14.1203C195.096 5.09051 182.847 0.0122722 170.072 0L104.162 0C91.5214 0.0133206 79.3916 4.9861 70.3819 13.8484C61.3722 22.7108 56.2026 34.7544 55.9853 47.3881L40.3672 171.251C14.4241 198.577 -0.0268687 234.821 3.75048e-05 272.495C3.75048e-05 353.797 66.1713 419.927 147.503 419.927C176.286 419.958 204.441 411.524 228.463 395.674L215.894 495.353L215.802 496.071V496.801C215.796 503.412 213.168 509.75 208.496 514.428C203.823 519.105 197.486 521.741 190.873 521.756H124.928C118.31 521.748 111.965 519.116 107.286 514.438C102.607 509.76 99.9762 503.417 99.97 496.801V486.08H119.954L88.3579 431.367L56.7622 486.08H76.7457V496.807C76.7611 509.577 81.8423 521.818 90.8749 530.848C99.9074 539.877 112.154 544.956 124.928 544.972H190.85C203.487 544.956 215.614 539.982 224.622 531.122C233.63 522.261 238.8 510.221 239.02 497.59L254.638 373.727C280.582 346.406 295.034 310.165 295.005 272.495ZM21.5257 272.495C21.5257 203.055 78.0386 146.563 147.503 146.563C216.967 146.563 273.48 203.055 273.48 272.495C273.48 341.934 216.967 398.421 147.503 398.421C78.0386 398.421 21.5257 341.922 21.5257 272.495Z" fill="url(#paint0_linear_1242_4407)"/>
<path d="M212.142 199.874C210.948 198.795 209.554 197.962 208.038 197.422C206.522 196.882 204.914 196.647 203.307 196.728C201.699 196.81 200.124 197.208 198.671 197.899C197.217 198.59 195.915 199.56 194.837 200.755L147.101 253.602L120.253 227.79C117.91 225.538 114.768 224.308 111.518 224.372C108.267 224.435 105.175 225.787 102.922 228.129C100.669 230.472 99.4387 233.613 99.5023 236.862C99.566 240.111 100.918 243.202 103.261 245.454L139.205 280.029C141.49 282.223 144.536 283.448 147.704 283.448H148.133C149.776 283.388 151.39 282.997 152.879 282.3C154.368 281.604 155.702 280.614 156.8 279.391L213.006 217.162C215.183 214.754 216.315 211.581 216.153 208.339C215.991 205.098 214.548 202.053 212.142 199.874Z" fill="url(#paint1_linear_1242_4407)"/>
</g>
<defs>
<linearGradient id="paint0_linear_1242_4407" x1="221.049" y1="0" x2="52.2406" y2="0" gradientUnits="userSpaceOnUse">
<stop stop-color="#4E5365"/>
<stop offset="1" stop-color="#4E5365" stop-opacity="0.53"/>
</linearGradient>
<linearGradient id="paint1_linear_1242_4407" x1="186.92" y1="196.713" x2="120.16" y2="196.713" gradientUnits="userSpaceOnUse">
<stop stop-color="#4E5365"/>
<stop offset="1" stop-color="#4E5365" stop-opacity="0.53"/>
</linearGradient>
</defs>
</svg>
