<svg width="240" height="240" viewBox="0 0 240 240" fill="none" xmlns="http://www.w3.org/2000/svg">
<path d="M187.697 53.999H102.008V86.5423H205.811C213.752 86.5423 221.367 89.7694 226.982 95.5136C232.597 101.258 235.751 109.049 235.751 117.172C235.751 125.296 232.597 133.087 226.982 138.831C221.367 144.575 213.752 147.802 205.811 147.802H193.699V180C219.739 176.938 240.008 144.796 240.008 117.355C240.008 87.8178 216.605 53.999 187.751 53.999" fill="#546C83"/>
<path d="M91.0132 180H144.001V147.452H35.6842C31.5823 147.452 27.5206 146.66 23.7311 145.12C19.9417 143.58 16.4988 141.324 13.5992 138.479C10.6995 135.634 8.40001 132.257 6.83197 128.54C5.26392 124.823 4.45813 120.84 4.46057 116.818C4.46057 108.698 7.75017 100.911 13.6057 95.169C19.4613 89.4274 27.4032 86.2017 35.6842 86.2017H48.3223V54C21.1689 57.0434 0 89.1905 0 116.636C0 146.177 24.4214 180 54.5485 180H90.9575H91.0132Z" fill="#546C83"/>
<path d="M153.439 149.033V204.315C153.539 208.479 152.82 212.62 151.326 216.497C149.832 220.373 147.593 223.905 144.739 226.886C141.886 229.867 138.477 232.235 134.712 233.853C130.947 235.47 126.903 236.303 122.818 236.303C118.733 236.303 114.689 235.47 110.924 233.853C107.159 232.235 103.75 229.867 100.897 226.886C98.0435 223.905 95.8039 220.373 94.3098 216.497C92.8158 212.62 92.0974 208.479 92.1971 204.315V191.702H60C63.043 218.842 95.2036 240 122.645 240C152.163 240 186 215.609 186 185.498V95.999H153.439V149.033Z" fill="#546C83"/>
<path d="M92.4804 106.32V34.1571C92.3806 30.1635 93.0996 26.1907 94.595 22.4726C96.0904 18.7545 98.3319 15.3662 101.188 12.5072C104.043 9.64817 107.456 7.37618 111.224 5.82494C114.992 4.2737 119.039 3.47457 123.128 3.47457C127.217 3.47457 131.264 4.2737 135.032 5.82494C138.8 7.37618 142.212 9.64817 145.068 12.5072C147.924 15.3662 150.165 18.7545 151.661 22.4726C153.156 26.1907 153.875 30.1635 153.775 34.1571V46.3268H186C182.955 20.2234 150.402 0 123.046 0C93.4834 0 60 23.4129 60 52.2781V138.001H92.5716L92.4804 106.32Z" fill="#546C83"/>
</svg>
