<svg width="522" height="522" viewBox="0 0 522 522" fill="none" xmlns="http://www.w3.org/2000/svg">
<path d="M408.233 117.449H221.859V188.231H447.63C464.901 188.231 481.465 195.25 493.677 207.743C505.89 220.237 512.751 237.182 512.751 254.851C512.751 272.52 505.89 289.465 493.677 301.958C481.465 314.452 464.901 321.471 447.63 321.471H421.288V391.499C477.924 384.841 522.009 314.932 522.009 255.247C522.009 191.005 471.106 117.449 408.349 117.449" fill="#97999B"/>
<path d="M197.953 391.499H313.2V320.708H77.6129C68.6912 320.708 59.857 318.984 51.615 315.635C43.373 312.286 35.8847 307.378 29.5781 301.19C23.2714 295.002 18.27 287.657 14.8595 279.573C11.449 271.489 9.69639 262.826 9.7017 254.078C9.7017 236.417 16.8566 219.48 29.5924 206.992C42.3282 194.503 59.6017 187.488 77.6129 187.488H105.101V117.449C46.0422 124.069 0 193.988 0 253.682C0 317.933 53.1163 391.499 118.643 391.499H197.832H197.953Z" fill="#97999B"/>
<path d="M333.729 324.147V444.385C333.946 453.44 332.383 462.449 329.134 470.879C325.884 479.31 321.013 486.993 314.807 493.476C308.601 499.959 301.186 505.111 292.998 508.628C284.81 512.146 276.014 513.958 267.129 513.958C258.243 513.958 249.448 512.146 241.259 508.628C233.071 505.111 225.656 499.959 219.45 493.476C213.244 486.993 208.373 479.31 205.124 470.879C201.874 462.449 200.312 453.44 200.528 444.385V416.951H130.5C137.118 475.979 207.068 521.998 266.752 521.998C330.955 521.998 404.55 468.949 404.55 403.457V208.798H333.729V324.147Z" fill="#97999B"/>
<path d="M201.145 231.245V74.2915C200.928 65.6053 202.491 56.9645 205.744 48.8777C208.996 40.7909 213.872 33.4214 220.083 27.203C226.294 20.9847 233.716 16.0431 241.911 12.6692C250.106 9.29527 258.91 7.55716 267.803 7.55716C276.696 7.55716 285.499 9.29527 293.694 12.6692C301.89 16.0431 309.311 20.9847 315.523 27.203C321.734 33.4214 326.609 40.7909 329.862 48.8777C333.114 56.9645 334.678 65.6053 334.461 74.2915V100.761H404.55C397.926 43.9858 327.123 0 267.624 0C203.326 0 130.5 50.9228 130.5 113.704V300.15H201.343L201.145 231.245Z" fill="#97999B"/>
</svg>
