<svg width="64" height="64" viewBox="0 0 64 64" fill="none" xmlns="http://www.w3.org/2000/svg">
<rect opacity="0.2" width="64" height="64" rx="1.33333" fill="url(#paint0_linear_1219_5604)" fill-opacity="0.6"/>
<path d="M15.4014 15.4014C15.9358 14.8673 16.8016 14.8673 17.3359 15.4014L21.417 19.4824C21.46 19.4696 21.5026 19.4549 21.5459 19.4424C24.4536 18.6027 28.0044 18.6027 30.9121 19.4424C32.3696 19.8633 33.6218 20.4822 34.5312 21.2695C35.4399 22.0564 36.0829 23.0874 36.083 24.2871C36.083 25.4869 35.44 26.5178 34.5312 27.3047C33.6464 28.0707 32.4365 28.6748 31.0293 29.0947L32.585 30.6504C33.3605 30.5466 34.1698 30.4912 34.999 30.4912C37.5508 30.4912 39.9158 31.0064 41.6826 31.8896C43.3837 32.7403 44.8532 34.1178 44.8535 35.9648V41.8037C44.8535 42.1436 44.8028 42.4676 44.7109 42.7754L49.2695 47.334L49.3633 47.4385C49.8016 47.9759 49.7702 48.7684 49.2695 49.2695C48.7684 49.7707 47.975 49.802 47.4375 49.3633L47.334 49.2695L43.0713 45.0068C42.6474 45.3405 42.1755 45.6334 41.6826 45.8799C39.9158 46.7634 37.5509 47.2783 34.999 47.2783C32.4474 47.2782 30.083 46.7633 28.3164 45.8799C26.6154 45.0291 25.1455 43.6504 25.1455 41.8037V35.9648C25.1458 34.1178 26.6153 32.7403 28.3164 31.8896C28.6752 31.7103 29.0592 31.5472 29.4639 31.3994L27.7598 29.6953C25.6545 29.8707 23.4608 29.6848 21.5459 29.1318C20.4041 28.8021 19.389 28.3495 18.5654 27.791V31.5859L18.5703 31.6885C18.594 31.9255 18.707 32.1539 19.001 32.4258C19.2789 32.6826 19.6835 32.9436 20.2354 33.2217L20.8369 33.5059L20.9375 33.5576C21.4181 33.8345 21.6202 34.436 21.3887 34.9531C21.1569 35.4702 20.5735 35.7193 20.0469 35.5449L19.9424 35.5049L19.5986 35.3477C19.2379 35.1774 18.8906 34.9954 18.5654 34.8008V38.8848L18.5703 38.9873C18.5939 39.2245 18.7069 39.4536 19.001 39.7256C19.2788 39.9823 19.6838 40.2425 20.2354 40.5205L20.8369 40.8047L20.9375 40.8564C21.4182 41.1333 21.6203 41.7357 21.3887 42.2529C21.1567 42.7696 20.5733 43.0189 20.0469 42.8447L19.9424 42.8047L19.5986 42.6455C18.8073 42.272 18.0762 41.8519 17.5156 41.334C16.883 40.7492 16.4344 40.0059 16.3809 39.0742L16.375 38.8848V24.2871C16.3751 23.0874 17.0181 22.0564 17.9268 21.2695C18.172 21.0572 18.4429 20.8581 18.7354 20.6709L15.4014 17.3369C14.8669 16.8025 14.8669 15.9358 15.4014 15.4014ZM27.3359 41.8037C27.3359 42.3741 27.827 43.1865 29.2949 43.9209C30.6979 44.6226 32.7136 45.0888 34.999 45.0889C37.2845 45.0889 39.3 44.6225 40.7031 43.9209C41.0145 43.7652 41.2806 43.604 41.5088 43.4443L39.043 40.9785C37.8021 41.2766 36.43 41.4395 34.999 41.4395C32.4475 41.4394 30.0831 40.9243 28.3164 40.041C27.977 39.8713 27.6471 39.679 27.3359 39.4678V41.8037ZM42.6631 39.4678C42.4114 39.6387 42.1473 39.7963 41.876 39.9404L42.6631 40.7275V39.4678ZM31.21 33.1455C30.4911 33.3344 29.8457 33.5732 29.2949 33.8486C27.8277 34.5825 27.3363 35.3936 27.3359 35.9648C27.3359 36.5361 27.8273 37.3479 29.2949 38.082C30.6979 38.7835 32.7135 39.2499 34.999 39.25C35.7558 39.25 36.4829 39.1974 37.168 39.1035L31.21 33.1455ZM34.6201 32.6855L40.2324 38.2969C40.3958 38.2276 40.5533 38.1569 40.7031 38.082C42.1713 37.3478 42.6631 36.5362 42.6631 35.9648C42.6627 35.3935 42.1708 34.5826 40.7031 33.8486C39.3001 33.1472 37.2846 32.6807 34.999 32.6807C34.8719 32.6807 34.7455 32.6827 34.6201 32.6855ZM20.335 22.2705C19.9483 22.4782 19.6222 22.6981 19.3604 22.9248C18.7571 23.4471 18.5655 23.9222 18.5654 24.2871C18.5655 24.652 18.7572 25.1271 19.3604 25.6494C19.9632 26.1713 20.9019 26.6659 22.1533 27.0273C23.2287 27.3379 24.4179 27.5141 25.623 27.5586L20.335 22.2705ZM30.3047 21.5469C28.1401 20.9218 25.516 20.8373 23.2246 21.29L29.2217 27.2861C29.5923 27.2132 29.9547 27.1284 30.3047 27.0273C31.5562 26.6659 32.4948 26.1714 33.0977 25.6494C33.701 25.127 33.8925 24.652 33.8926 24.2871C33.8925 23.9222 33.7009 23.4471 33.0977 22.9248C32.4948 22.4029 31.5561 21.9083 30.3047 21.5469Z" fill="url(#paint1_linear_1219_5604)"/>
<defs>
<linearGradient id="paint0_linear_1219_5604" x1="-8.64697e-07" y1="5.6047" x2="60.4207" y2="11.2918" gradientUnits="userSpaceOnUse">
<stop stop-color="#7B7B7B"/>
<stop offset="1" stop-color="#9ABECA"/>
</linearGradient>
<linearGradient id="paint1_linear_1219_5604" x1="15" y1="18.0371" x2="47.7308" y2="21.1179" gradientUnits="userSpaceOnUse">
<stop stop-color="#7B7B7B"/>
<stop offset="1" stop-color="#9ABECA"/>
</linearGradient>
</defs>
</svg>
