<svg width="65" height="65" viewBox="0 0 65 65" fill="none" xmlns="http://www.w3.org/2000/svg">
<rect opacity="0.2" x="0.335938" y="0.648438" width="64" height="64" rx="1.33333" fill="url(#paint0_linear_1220_3373)" fill-opacity="0.6"/>
<path d="M19.9971 40.5581C20.7936 40.5581 21.4404 41.204 21.4404 42.0005V46.5005C21.4404 47.2971 20.7936 47.9429 19.9971 47.9429C19.2007 47.9427 18.5547 47.2969 18.5547 46.5005V42.0005C18.5547 41.2041 19.2007 40.5583 19.9971 40.5581ZM25.9971 34.5581C26.7936 34.5581 27.4404 35.204 27.4404 36.0005V46.5005C27.4402 47.2969 26.7935 47.9429 25.9971 47.9429C25.2008 47.9427 24.5549 47.2968 24.5547 46.5005V36.0005C24.5547 35.2041 25.2007 34.5583 25.9971 34.5581ZM31.9971 37.5581C32.7936 37.5581 33.4404 38.204 33.4404 39.0005V46.5015C33.4399 47.2976 32.7933 47.9429 31.9971 47.9429C31.201 47.9427 30.5552 47.2975 30.5547 46.5015V39.0005C30.5547 38.2041 31.2007 37.5583 31.9971 37.5581ZM37.9971 34.5581C38.7936 34.5581 39.4404 35.204 39.4404 36.0005V46.5005C39.4402 47.2969 38.7935 47.9429 37.9971 47.9429C37.2008 47.9427 36.5549 47.2968 36.5547 46.5005V36.0005C36.5547 35.2041 37.2007 34.5583 37.9971 34.5581ZM43.9971 28.5581C44.7936 28.5581 45.4404 29.204 45.4404 30.0005V46.5015C45.4399 47.2976 44.7933 47.9429 43.9971 47.9429C43.201 47.9427 42.5552 47.2975 42.5547 46.5015V30.0005C42.5547 29.2041 43.2007 28.5583 43.9971 28.5581ZM46.0859 18.3823C46.6524 17.92 47.4884 17.953 48.0166 18.481C48.5795 19.0441 48.5794 19.9568 48.0166 20.52L35.0479 33.4878L35.0498 33.4888C34.8462 33.6929 34.6032 33.8548 34.3369 33.9653C34.0707 34.0758 33.7853 34.1323 33.4971 34.1323C33.2088 34.1323 32.9225 34.0758 32.6562 33.9653C32.3909 33.8552 32.1494 33.6938 31.9463 33.4907L27.4961 29.0405L18.0166 38.52C17.4533 39.0832 16.5408 39.0832 15.9775 38.52C15.4144 37.9567 15.4143 37.0442 15.9775 36.481L25.9482 26.5122L26.1084 26.3657C26.4983 26.0466 26.9888 25.8697 27.4971 25.8696L27.7139 25.8804C28.1437 25.923 28.5515 26.0922 28.8857 26.3657L29.0469 26.5122L33.4961 30.9604L45.9766 18.481L46.0859 18.3823Z" fill="url(#paint1_linear_1220_3373)"/>
<defs>
<linearGradient id="paint0_linear_1220_3373" x1="0.335937" y1="6.25314" x2="60.7566" y2="11.9403" gradientUnits="userSpaceOnUse">
<stop stop-color="#7B7B7B"/>
<stop offset="1" stop-color="#9ABECA"/>
</linearGradient>
<linearGradient id="paint1_linear_1220_3373" x1="15.5547" y1="20.6762" x2="46.5425" y2="23.8857" gradientUnits="userSpaceOnUse">
<stop stop-color="#7B7B7B"/>
<stop offset="1" stop-color="#9ABECA"/>
</linearGradient>
</defs>
</svg>
