<svg width="29" height="29" viewBox="0 0 29 29" fill="none" xmlns="http://www.w3.org/2000/svg">
<path d="M13.1693 18.1485H15.5026C16.1214 18.1485 16.7149 17.9026 17.1525 17.4651C17.5901 17.0275 17.8359 16.434 17.8359 15.8151C17.8359 15.1963 17.5901 14.6028 17.1525 14.1652C16.7149 13.7276 16.1214 13.4818 15.5026 13.4818H12.0026C11.3026 13.4818 10.7193 13.7151 10.3693 14.1818L3.83594 20.4818" stroke="#9ABECA" stroke-width="1.45833" stroke-linecap="round" stroke-linejoin="round"/>
<path d="M8.5 25.1484L10.3667 23.5151C10.7167 23.0484 11.3 22.8151 12 22.8151H16.6667C17.95 22.8151 19.1167 22.3484 19.9333 21.4151L25.3 16.2817C25.7502 15.8563 26.013 15.2694 26.0305 14.6502C26.048 14.031 25.8188 13.4303 25.3933 12.9801C24.9679 12.5298 24.381 12.2671 23.7618 12.2496C23.1426 12.2321 22.5419 12.4613 22.0917 12.8867L17.1917 17.4367" stroke="#9ABECA" stroke-width="1.45833" stroke-linecap="round" stroke-linejoin="round"/>
<path d="M2.67188 19.3151L9.67187 26.3151" stroke="#9ABECA" stroke-width="1.45833" stroke-linecap="round" stroke-linejoin="round"/>
<path d="M19.0005 14.5318C20.8691 14.5318 22.3839 13.017 22.3839 11.1485C22.3839 9.27991 20.8691 7.76514 19.0005 7.76514C17.132 7.76514 15.6172 9.27991 15.6172 11.1485C15.6172 13.017 17.132 14.5318 19.0005 14.5318Z" stroke="#9ABECA" stroke-width="1.45833" stroke-linecap="round" stroke-linejoin="round"/>
<path d="M7.33594 9.98181C9.26893 9.98181 10.8359 8.41481 10.8359 6.48181C10.8359 4.54881 9.26893 2.98181 7.33594 2.98181C5.40294 2.98181 3.83594 4.54881 3.83594 6.48181C3.83594 8.41481 5.40294 9.98181 7.33594 9.98181Z" stroke="#9ABECA" stroke-width="1.45833" stroke-linecap="round" stroke-linejoin="round"/>
</svg>
