<svg width="64" height="65" viewBox="0 0 64 65" fill="none" xmlns="http://www.w3.org/2000/svg">
<rect opacity="0.2" y="0.648438" width="64" height="64" rx="1.33333" fill="url(#paint0_linear_1220_3414)" fill-opacity="0.6"/>
<path d="M38.0021 14.6484C40.6493 14.6485 43.244 15.277 45.2111 16.457C47.1665 17.6301 48.504 19.3703 48.504 21.3984V43.8984C48.5037 46.0019 47.0879 47.714 45.2111 48.8398C43.3116 49.9792 40.7597 50.6484 38.0021 50.6484C35.2445 50.6484 32.6926 49.9792 30.7931 48.8398C28.9162 47.714 27.5004 46.0019 27.5001 43.8984V21.3984C27.5001 19.3704 28.8378 17.6301 30.7931 16.457C32.7601 15.2771 35.3549 14.6485 38.0021 14.6484ZM46.254 40.6094C45.9285 40.8739 45.5792 41.119 45.2111 41.3398C43.3116 42.4792 40.7596 43.1484 38.0021 43.1484C35.2445 43.1484 32.6926 42.4792 30.7931 41.3398C30.4253 41.1192 30.0763 40.8745 29.7511 40.6104V43.8984C29.7514 44.901 30.4345 46.0007 31.9503 46.9102C33.4445 47.8064 35.5822 48.3984 38.0021 48.3984C40.4219 48.3984 42.5586 47.8064 44.0529 46.9102C45.5692 46.0006 46.2537 44.9012 46.254 43.8984V40.6094ZM18.92 24.0234C19.5134 24.0234 19.9827 24.5177 20.0392 25.043L20.1154 26.4141C20.6779 26.4844 21.3115 26.6953 22.1554 26.9766C22.7177 27.1876 22.9991 27.8205 22.8585 28.3828C22.6475 29.0156 22.0139 29.2969 21.381 29.0859C20.959 28.9453 20.3262 28.7344 19.7638 28.6641C18.2167 28.3829 16.5294 28.6641 16.3888 29.8594C16.2482 30.6327 16.3885 31.1251 18.7794 31.8281L19.2716 31.9688C21.311 32.5312 24.3352 33.4454 23.7023 36.6797C23.4208 38.367 22.014 39.4922 20.045 39.7734V40.8984C20.0448 41.531 19.5528 42.0225 18.92 42.0225C18.2873 42.0225 17.7953 41.531 17.795 40.8984V39.7031C16.8808 39.5625 15.9661 39.2109 15.1222 38.9297L14.7706 38.7891C14.2082 38.5781 13.8568 37.9452 14.0675 37.3828C14.2784 36.8204 14.9112 36.4689 15.5441 36.6797L15.8956 36.8203C16.5989 37.1016 17.4434 37.3828 18.0763 37.4531C19.6232 37.7343 21.3103 37.4527 21.5216 36.2578C21.6622 35.2735 21.1704 34.8515 18.5685 34.1484L18.0763 34.0078C16.5995 33.586 13.5051 32.6716 14.0675 29.4375C14.3488 27.75 15.7556 26.625 17.795 26.3438V25.1484C17.795 24.586 18.2871 24.0234 18.92 24.0234ZM46.254 33.1104C45.9286 33.3747 45.5791 33.6191 45.2111 33.8398C43.3115 34.9792 40.7597 35.6484 38.0021 35.6484C35.2445 35.6484 32.6926 34.9792 30.7931 33.8398C30.4254 33.6193 30.0762 33.3754 29.7511 33.1113V36.3984C29.7514 37.401 30.4345 38.5007 31.9503 39.4102C33.4445 40.3064 35.5822 40.8984 38.0021 40.8984C40.4219 40.8984 42.5586 40.3064 44.0529 39.4102C45.5692 38.5006 46.2537 37.4012 46.254 36.3984V33.1104ZM29.7511 28.8984C29.7513 29.9012 30.4341 31.0015 31.9503 31.9111C33.4445 32.8074 35.5822 33.3984 38.0021 33.3984C40.4217 33.3984 42.5587 32.8073 44.0529 31.9111C45.5694 31.0015 46.2539 29.9013 46.254 28.8984V25.6104C45.9318 25.8725 45.5829 26.1168 45.2111 26.3398C43.244 27.5198 40.6493 28.1484 38.0021 28.1484C35.3549 28.1484 32.7601 27.5198 30.7931 26.3398C30.4213 26.1168 30.0733 25.8715 29.7511 25.6094V28.8984ZM38.0021 16.8984C35.6759 16.8985 33.5 17.4561 31.9503 18.3857C30.3893 19.3223 29.7511 20.4431 29.7511 21.3984L29.7589 21.5791C29.8349 22.4927 30.4872 23.5323 31.9503 24.4102C33.5 25.3398 35.6759 25.8984 38.0021 25.8984C40.3282 25.8984 42.5032 25.3397 44.0529 24.4102C45.614 23.4736 46.2539 22.3538 46.254 21.3984C46.254 20.443 45.6142 19.3224 44.0529 18.3857C42.5032 17.4562 40.3281 16.8985 38.0021 16.8984Z" fill="url(#paint1_linear_1220_3414)"/>
<defs>
<linearGradient id="paint0_linear_1220_3414" x1="-8.64697e-07" y1="6.25314" x2="60.4207" y2="11.9403" gradientUnits="userSpaceOnUse">
<stop stop-color="#7B7B7B"/>
<stop offset="1" stop-color="#9ABECA"/>
</linearGradient>
<linearGradient id="paint1_linear_1220_3414" x1="14" y1="17.8011" x2="46.5976" y2="20.7418" gradientUnits="userSpaceOnUse">
<stop stop-color="#7B7B7B"/>
<stop offset="1" stop-color="#9ABECA"/>
</linearGradient>
</defs>
</svg>
