<svg width="64" height="65" viewBox="0 0 64 65" fill="none" xmlns="http://www.w3.org/2000/svg">
<rect opacity="0.2" y="0.648438" width="64" height="64" rx="1.33333" fill="url(#paint0_linear_1220_3512)" fill-opacity="0.6"/>
<path d="M21.3379 17.4902C22.7206 17.0528 24.179 16.9058 25.6211 17.0596C27.0633 17.2134 28.4583 17.6645 29.7178 18.3838C30.494 18.8272 31.2081 19.368 31.8447 19.9893C32.4819 19.3741 33.1969 18.8395 33.9717 18.4014C35.2302 17.6898 36.6225 17.2457 38.0605 17.0967C39.4987 16.9477 40.9523 17.0967 42.3301 17.5352C43.708 17.9737 44.9808 18.6935 46.0684 19.6465C47.1556 20.5993 48.0348 21.7662 48.6504 23.0742C49.2661 24.3826 49.6063 25.8046 49.6475 27.25C49.6885 28.6954 49.43 30.1343 48.8896 31.4756C48.3493 32.8167 47.5374 34.0317 46.5059 35.0449C46.4709 35.0792 46.4349 35.1118 46.3975 35.1416L32.8047 48.6035C32.2706 49.1325 31.4101 49.1323 30.876 48.6035L17.1699 35.0303V35.0293C16.1349 34.0196 15.3194 32.8072 14.7744 31.4678C14.2279 30.1242 13.9648 28.6814 14.0029 27.2314C14.0411 25.7816 14.3787 24.3549 14.9951 23.042C15.6116 21.7292 16.4938 20.5579 17.585 19.6025C18.6764 18.647 19.9549 17.9278 21.3379 17.4902ZM25.3301 19.7852C24.2643 19.6716 23.186 19.7793 22.1641 20.1025C21.142 20.426 20.1972 20.9589 19.3906 21.665C18.5843 22.3711 17.9322 23.236 17.4766 24.2061C17.0208 25.1766 16.7714 26.2319 16.7432 27.3037C16.715 28.3754 16.9095 29.4415 17.3135 30.4346C17.667 31.3034 18.1735 32.1007 18.8096 32.7871L19.0908 33.0732L19.0986 33.083L31.8389 45.7002L34.4893 43.0752L31.79 40.376L31.6963 40.2715C31.2572 39.7332 31.2883 38.9393 31.79 38.4375C32.2918 37.936 33.0848 37.9049 33.623 38.3438L33.7275 38.4375L36.4365 41.1465L39.0781 38.5303L36.3555 35.8076L36.2617 35.7031C35.8227 35.1648 35.8537 34.3709 36.3555 33.8691C36.8573 33.3674 37.6512 33.3364 38.1895 33.7754L38.293 33.8691L41.0254 36.6016L43.6699 33.9844L40.4678 30.7822C39.6863 30.0007 38.6426 29.5397 37.5439 29.4854L37.3242 29.4795C36.2194 29.4796 35.1569 29.8919 34.3418 30.6299L34.1816 30.7822L32.3555 32.6094C30.5594 34.4055 27.6438 34.4053 25.8477 32.6094L24.8555 31.6172C24.2561 31.0175 23.919 30.2033 23.9189 29.3555C23.9191 28.5077 24.2562 27.6943 24.8555 27.0947L29.9658 21.9834C29.4867 21.51 28.9471 21.0994 28.3594 20.7637C27.4284 20.2319 26.3962 19.8989 25.3301 19.7852ZM41.499 20.1484C40.4806 19.8243 39.4059 19.7131 38.3428 19.8232C37.2798 19.9334 36.2506 20.2621 35.3203 20.7881C34.3902 21.3141 33.5778 22.0268 32.9355 22.8809C32.872 22.9653 32.7991 23.041 32.7197 23.1074L26.7939 29.0332C26.7085 29.1188 26.6603 29.2346 26.6602 29.3555C26.6602 29.4766 26.7083 29.594 26.7939 29.6797L27.7861 30.6709C28.5117 31.3963 29.6904 31.3962 30.416 30.6709L32.2441 28.8438L32.502 28.5977C33.8199 27.4044 35.538 26.7384 37.3242 26.7383L37.6807 26.748C39.4565 26.8361 41.142 27.5806 42.4053 28.8438L45.5254 31.9648C45.853 31.4926 46.1307 30.9862 46.3467 30.4502C46.746 29.4589 46.9366 28.3954 46.9062 27.3271C46.8758 26.259 46.6249 25.2081 46.1699 24.2412C45.7149 23.2745 45.0652 22.4122 44.2617 21.708C43.458 21.0038 42.5173 20.4726 41.499 20.1484Z" fill="url(#paint1_linear_1220_3512)"/>
<defs>
<linearGradient id="paint0_linear_1220_3512" x1="-8.64697e-07" y1="6.25314" x2="60.4207" y2="11.9403" gradientUnits="userSpaceOnUse">
<stop stop-color="#7B7B7B"/>
<stop offset="1" stop-color="#9ABECA"/>
</linearGradient>
<linearGradient id="paint1_linear_1220_3512" x1="14" y1="19.8024" x2="47.5864" y2="23.3244" gradientUnits="userSpaceOnUse">
<stop stop-color="#7B7B7B"/>
<stop offset="1" stop-color="#9ABECA"/>
</linearGradient>
</defs>
</svg>
