<svg width="56" height="56" viewBox="0 0 56 56" fill="none" xmlns="http://www.w3.org/2000/svg">
<rect opacity="0.2" width="56" height="56" rx="1.75" fill="url(#paint0_linear_1258_16329)" fill-opacity="0.6"/>
<path d="M21.3125 28.3281C21.3125 23.498 23.5391 19.5585 26.2454 19.5585L30.0821 19.5585C32.5143 19.5585 34.4669 23.498 34.4669 28.3281C34.4669 33.1925 32.5143 37.0977 30.0821 37.0977L26.2454 37.0977C23.5391 37.0977 21.3125 33.1925 21.3125 28.3281ZM31.5893 34.0831L29.9793 34.0831C29.7395 34.597 29.4655 35.0423 29.1229 35.4534L30.0821 35.4534C30.5617 35.4534 31.1098 34.9738 31.5893 34.0831ZM32.6513 30.7945L31.007 30.7945C30.87 31.5482 30.6987 32.3018 30.4246 32.9869L32.0689 32.9869C32.343 32.3018 32.5143 31.5482 32.6513 30.7945ZM32.7883 26.9578L31.144 26.9578C31.1783 27.4374 31.1783 27.8828 31.1783 28.3281C31.1783 28.8077 31.1783 29.253 31.144 29.6983L32.7883 29.6983C32.8226 29.2873 32.8226 28.8077 32.8226 28.3281C32.8226 27.8828 32.8226 27.4032 32.7883 26.9578ZM32.0689 23.6692L30.4246 23.6692C30.6987 24.3886 30.87 25.1423 31.007 25.8616L32.6513 25.8616C32.5143 25.1423 32.343 24.3886 32.0689 23.6692ZM30.0821 21.2028L29.1229 21.2028C29.4655 21.6481 29.7395 22.0935 29.9793 22.573L31.5893 22.573C31.1098 21.7166 30.5617 21.2028 30.0821 21.2028ZM29.534 28.3281C29.534 24.2516 27.8212 21.2028 26.2454 21.2028C24.7039 21.2028 22.9568 24.2516 22.9568 28.3281C22.9568 32.4046 24.7039 35.4534 26.2454 35.4534C27.8212 35.4534 29.534 32.4046 29.534 28.3281Z" fill="url(#paint1_linear_1258_16329)"/>
<path d="M19.3346 29.4792L15.3335 33.7544C15.1622 33.9257 14.9566 33.9942 14.7511 33.9942C14.5113 33.9942 14.3058 33.9257 14.1345 33.7544L10.1334 29.4792C9.82506 29.1367 9.82506 28.6228 10.1676 28.3145C10.4759 28.0062 11.024 28.0062 11.3323 28.3488L13.9289 31.1509L13.9289 12.4882C13.9289 12.0086 14.2715 11.666 14.7168 11.666C15.1279 11.666 15.5732 12.0086 15.5732 12.4882L15.5732 31.1509L18.1356 28.3488C18.4439 28.0062 18.992 28.0062 19.3003 28.3145C19.6429 28.6228 19.6429 29.1367 19.3346 29.4792Z" fill="url(#paint2_linear_1258_16329)"/>
<path d="M45.6158 39.8171L41.6147 44.0923C41.4434 44.2636 41.2379 44.3321 41.0323 44.3321C40.7926 44.3321 40.587 44.2636 40.4157 44.0923L36.4146 39.8171C36.1063 39.4745 36.1063 38.9607 36.4489 38.6524C36.7572 38.3441 37.3053 38.3441 37.6136 38.6867L40.2102 41.4888V22.8261C40.2102 22.3465 40.5528 22.0039 40.9981 22.0039C41.4092 22.0039 41.8545 22.3465 41.8545 22.8261V41.4888L44.4169 38.6867C44.7252 38.3441 45.2733 38.3441 45.5816 38.6524C45.9241 38.9607 45.9241 39.4745 45.6158 39.8171Z" fill="url(#paint3_linear_1258_16329)"/>
<defs>
<linearGradient id="paint0_linear_1258_16329" x1="-7.56609e-07" y1="4.90412" x2="52.8681" y2="9.88034" gradientUnits="userSpaceOnUse">
<stop stop-color="#7B7B7B"/>
<stop offset="1" stop-color="#9ABECA"/>
</linearGradient>
<linearGradient id="paint1_linear_1258_16329" x1="22.4645" y1="37.0977" x2="24.5284" y2="20.6518" gradientUnits="userSpaceOnUse">
<stop stop-color="#7B7B7B"/>
<stop offset="1" stop-color="#9ABECA"/>
</linearGradient>
<linearGradient id="paint2_linear_1258_16329" x1="9.90625" y1="13.6214" x2="19.0872" y2="13.9951" gradientUnits="userSpaceOnUse">
<stop stop-color="#7B7B7B"/>
<stop offset="1" stop-color="#9ABECA"/>
</linearGradient>
<linearGradient id="paint3_linear_1258_16329" x1="36.1875" y1="23.9593" x2="45.3685" y2="24.333" gradientUnits="userSpaceOnUse">
<stop stop-color="#7B7B7B"/>
<stop offset="1" stop-color="#9ABECA"/>
</linearGradient>
</defs>
</svg>
