<svg width="65" height="65" viewBox="0 0 65 65" fill="none" xmlns="http://www.w3.org/2000/svg">
<rect opacity="0.2" x="0.664062" y="0.648438" width="64" height="64" rx="1.33333" fill="url(#paint0_linear_1220_3425)" fill-opacity="0.6"/>
<path d="M29.9395 18.3569C32.5079 17.5828 35.3559 18.0851 37.4248 19.7212H37.4258C39.094 21.0372 40.0625 22.948 40.0918 24.9585C41.4118 25.0114 42.6674 25.5569 43.6074 26.4927C44.6 27.4808 45.1604 28.8226 45.1641 30.2231V30.229C45.1606 31.6298 44.6002 32.9731 43.6074 33.9614C42.6153 34.9489 41.2718 35.5016 39.8721 35.4995V35.5005H33.5V38.1733C34.2474 38.3845 34.9363 38.7844 35.4951 39.3433C36.0525 39.9009 36.4498 40.5881 36.6611 41.3335H47.2461L47.375 41.3394C48.0051 41.4035 48.496 41.9365 48.4961 42.5835C48.4961 43.2306 48.0051 43.7634 47.375 43.8276L47.2461 43.8335H36.6621C36.4509 44.5797 36.0532 45.2676 35.4951 45.8257C34.6357 46.6851 33.4692 47.1663 32.2539 47.1665C31.0386 47.1665 29.8722 46.6849 29.0127 45.8257C28.4547 45.2676 28.0563 44.5797 27.8447 43.8335H17.25C16.5596 43.8335 16 43.2739 16 42.5835C16.0001 41.8932 16.5597 41.3335 17.25 41.3335H27.8457C28.0574 40.5881 28.455 39.9009 29.0127 39.3433C29.5697 38.7863 30.2556 38.3881 31 38.1763V35.5005H26.0137C22.3822 35.5005 19.3303 32.6811 19.3301 29.0786C19.3302 25.7918 21.8688 23.1574 25.0703 22.7192C25.8682 20.6359 27.6843 19.0364 29.9395 18.3579V18.3569ZM32.2539 40.5005C31.7014 40.5005 31.171 40.7202 30.7803 41.1108C30.3896 41.5015 30.1699 42.0319 30.1699 42.5845C30.1701 43.1366 30.3899 43.6656 30.7803 44.0562C31.171 44.4469 31.7014 44.6665 32.2539 44.6665C32.8062 44.6663 33.335 44.4467 33.7256 44.0562C34.1027 43.679 34.3184 43.1728 34.333 42.6411C34.3321 42.6221 34.3301 42.6028 34.3301 42.5835C34.3301 42.5638 34.3321 42.5443 34.333 42.5249C34.3178 41.9939 34.1022 41.4875 33.7256 41.1108C33.3837 40.7691 32.9358 40.5575 32.459 40.5103L32.2539 40.5005ZM35.876 21.6831C34.5627 20.6439 32.7278 20.2507 31.0039 20.6577L30.6611 20.7505H30.6592C28.8445 21.2964 27.5813 22.6372 27.2334 24.1792C27.1049 24.7493 26.598 25.1547 26.0137 25.1548C23.6456 25.1548 21.8302 26.9695 21.8301 29.0786C21.8303 31.1857 23.6454 33.0005 26.0137 33.0005H39.875L40.1494 32.9868C40.7864 32.9249 41.3862 32.6453 41.8438 32.1899C42.3654 31.6706 42.6608 30.9649 42.6641 30.229L42.6494 29.9546C42.5846 29.3179 42.3012 28.7196 41.8438 28.2642C41.3209 27.7438 40.6126 27.4523 39.875 27.4536H38.7178C38.3383 27.4536 37.9784 27.281 37.7412 26.9849C37.5041 26.6883 37.4147 26.2996 37.498 25.9292C37.8426 24.4005 37.2658 22.7789 35.8779 21.6841L35.876 21.6831Z" fill="url(#paint1_linear_1220_3425)"/>
<defs>
<linearGradient id="paint0_linear_1220_3425" x1="0.664062" y1="6.25314" x2="61.0847" y2="11.9403" gradientUnits="userSpaceOnUse">
<stop stop-color="#7B7B7B"/>
<stop offset="1" stop-color="#9ABECA"/>
</linearGradient>
<linearGradient id="paint1_linear_1220_3425" x1="16" y1="20.5546" x2="46.6138" y2="23.7652" gradientUnits="userSpaceOnUse">
<stop stop-color="#7B7B7B"/>
<stop offset="1" stop-color="#9ABECA"/>
</linearGradient>
</defs>
</svg>
