<svg width="64" height="64" viewBox="0 0 64 64" fill="none" xmlns="http://www.w3.org/2000/svg">
<rect opacity="0.2" width="64" height="64" rx="1.33333" fill="url(#paint0_linear_1219_5634)" fill-opacity="0.6"/>
<path d="M38.374 20.834C41.6186 20.834 44.2488 23.4645 44.249 26.709C44.249 26.9168 44.2379 27.122 44.2168 27.3242C44.5382 27.2598 44.8683 27.2318 45.2012 27.2412C46.3619 27.274 47.4622 27.7664 48.2598 28.6104C49.0572 29.4542 49.4868 30.5807 49.4541 31.7412C49.4212 32.9016 48.9286 34.0024 48.085 34.7998L40.4385 42.1133C39.0502 43.6672 37.1032 44.4179 35.0361 44.418H28.3691C27.5896 44.418 27.1157 44.6723 26.8691 45.001C26.8257 45.0588 26.7761 45.1126 26.7217 45.1602L24.8945 46.7568L25.7773 47.6396L25.8486 47.7188C26.1823 48.1279 26.1587 48.7309 25.7773 49.1123C25.3959 49.4934 24.7928 49.5173 24.3838 49.1836L24.3047 49.1123L22.6895 47.4971C22.6532 47.4657 22.6175 47.4326 22.585 47.3955C22.5812 47.3912 22.5779 47.3862 22.5742 47.3818L15.9844 40.792C15.9749 40.7829 15.9643 40.7742 15.9551 40.7646C15.9506 40.76 15.9468 40.7547 15.9424 40.75L14.3047 39.1123L14.2334 39.0332C13.8997 38.6242 13.9236 38.0211 14.3047 37.6396C14.6861 37.2582 15.2891 37.2346 15.6982 37.5684L15.7773 37.6396L16.7188 38.5811L25.2725 30.333C26.0284 29.3904 27.187 29.0001 28.3721 29H32.9629C32.6644 28.296 32.4991 27.5218 32.499 26.709C32.4992 23.4647 35.1297 20.8343 38.374 20.834ZM45.1426 29.3242C44.5343 29.3071 43.9433 29.5322 43.501 29.9502L43.4951 29.9561L43.3613 29.8115V29.8125L43.4941 29.9561L42.6152 30.7725C42.4521 30.9427 42.2791 31.1033 42.0967 31.2529L36.4941 36.4561C36.4625 36.4854 36.4287 36.5114 36.3945 36.5361C35.5814 37.3136 34.4996 37.7499 33.3721 37.75H30.0381C29.4632 37.7497 28.9972 37.2839 28.9971 36.709C28.9973 36.134 29.4632 35.6673 30.0381 35.667H33.3721C33.9797 35.6669 34.5625 35.4257 34.9922 34.9961C35.4219 34.5663 35.6631 33.9828 35.6631 33.375C35.6629 32.7675 35.4218 32.1845 34.9922 31.7549C34.5625 31.3254 33.9796 31.0841 33.3721 31.084H28.3721C27.5927 31.084 27.1187 31.3384 26.8721 31.667C26.8387 31.7114 26.8017 31.7534 26.7617 31.792L18.1924 40.0547L23.4189 45.2812L25.2842 43.6484C26.0404 42.719 27.1917 42.334 28.3691 42.334H35.0361C36.6119 42.3339 37.9769 41.7668 38.9189 40.6904L38.9824 40.623L46.6494 33.29L46.6533 33.2861L46.8105 33.1221C47.1566 32.7234 47.3559 32.2149 47.3711 31.6826C47.3883 31.0743 47.163 30.4843 46.7451 30.042C46.3271 29.5997 45.7509 29.3415 45.1426 29.3242ZM38.374 22.918C36.2803 22.9183 34.5832 24.6152 34.583 26.709C34.5832 28.8027 36.2803 30.5007 38.374 30.501C39.2684 30.501 40.0899 30.1899 40.7383 29.6719L41.1504 29.2881C41.7796 28.6113 42.1659 27.7058 42.166 26.709C42.1658 24.6151 40.468 22.918 38.374 22.918ZM21.7051 14C25.0417 14 27.7469 16.7054 27.7471 20.042C27.7471 23.3787 25.0418 26.084 21.7051 26.084C18.3685 26.0839 15.6631 23.3786 15.6631 20.042C15.6633 16.7055 18.3686 14.0001 21.7051 14ZM21.7051 16.084C19.5192 16.0841 17.7473 17.8561 17.7471 20.042C17.7471 22.228 19.5191 23.9999 21.7051 24C23.8912 24 25.6631 22.2281 25.6631 20.042C25.6629 17.856 23.8911 16.084 21.7051 16.084Z" fill="url(#paint1_linear_1219_5634)"/>
<defs>
<linearGradient id="paint0_linear_1219_5634" x1="-8.64697e-07" y1="5.6047" x2="60.4207" y2="11.2918" gradientUnits="userSpaceOnUse">
<stop stop-color="#7B7B7B"/>
<stop offset="1" stop-color="#9ABECA"/>
</linearGradient>
<linearGradient id="paint1_linear_1219_5634" x1="14" y1="17.1016" x2="47.4725" y2="20.2557" gradientUnits="userSpaceOnUse">
<stop stop-color="#7B7B7B"/>
<stop offset="1" stop-color="#9ABECA"/>
</linearGradient>
</defs>
</svg>
