<svg width="64" height="65" viewBox="0 0 64 65" fill="none" xmlns="http://www.w3.org/2000/svg">
<rect opacity="0.2" y="0.648438" width="64" height="64" rx="1.33333" fill="url(#paint0_linear_1220_3462)" fill-opacity="0.6"/>
<path d="M31.8652 17.0612C32.1568 16.9669 32.475 16.9824 32.7578 17.1081L47.7578 23.7751L47.9189 23.861C48.2771 24.0878 48.4999 24.4845 48.5 24.9167V46.5837C48.4998 47.2738 47.9402 47.8337 47.25 47.8337C46.5598 47.8337 46.0002 47.2738 46 46.5837V25.7282L32.25 19.6179L18.5 25.7282V46.5837C18.4998 47.2738 17.9402 47.8337 17.25 47.8337C16.5598 47.8337 16.0002 47.2738 16 46.5837V24.9167L16.0137 24.735C16.0754 24.3156 16.3472 23.9507 16.7422 23.7751L31.7422 17.1081L31.8652 17.0612ZM32.25 27.5007C33.0235 27.5007 33.7665 27.8082 34.3135 28.3552C34.8599 28.902 35.1659 29.6437 35.166 30.4167V30.5007H40.5879L40.7168 30.5065C41.3469 30.5707 41.8379 31.1036 41.8379 31.7507V45.0847C41.8374 45.7746 41.278 46.3347 40.5879 46.3347H34.7627C34.5399 46.5402 34.243 46.6667 33.916 46.6667C33.5891 46.6665 33.2921 46.5402 33.0693 46.3347H23.9219C23.2318 46.3347 22.6723 45.7746 22.6719 45.0847V35.0847L22.6777 34.9558C22.7418 34.3255 23.2747 33.8347 23.9219 33.8347H26V30.4167C26.0001 29.6433 26.3077 28.902 26.8545 28.3552C27.4013 27.8083 28.1427 27.5008 28.916 27.5007H32.25ZM35.166 34.9645C35.1698 35.0039 35.1719 35.0443 35.1719 35.0847C35.1718 35.1248 35.1698 35.1646 35.166 35.2038V43.8347H39.3379V33.0007H35.166V34.9645ZM28.0967 36.3347C27.8739 36.5402 27.577 36.6667 27.25 36.6667C26.923 36.6667 26.6261 36.5402 26.4033 36.3347H25.1719V43.8347H32.666V36.3347H28.0967ZM28.916 30.0007C28.8057 30.0008 28.7001 30.0448 28.6221 30.1227C28.5441 30.2008 28.5001 30.3064 28.5 30.4167V33.8347H32.666V30.4167C32.6659 30.3063 32.622 30.2008 32.5439 30.1227C32.4658 30.0447 32.3604 30.0007 32.25 30.0007H28.916Z" fill="url(#paint1_linear_1220_3462)"/>
<defs>
<linearGradient id="paint0_linear_1220_3462" x1="-8.64697e-07" y1="6.25314" x2="60.4207" y2="11.9403" gradientUnits="userSpaceOnUse">
<stop stop-color="#7B7B7B"/>
<stop offset="1" stop-color="#9ABECA"/>
</linearGradient>
<linearGradient id="paint1_linear_1220_3462" x1="16" y1="19.7007" x2="46.6525" y2="22.7418" gradientUnits="userSpaceOnUse">
<stop stop-color="#7B7B7B"/>
<stop offset="1" stop-color="#9ABECA"/>
</linearGradient>
</defs>
</svg>
