<svg width="64" height="65" viewBox="0 0 64 65" fill="none" xmlns="http://www.w3.org/2000/svg">
<rect opacity="0.2" y="0.648438" width="64" height="64" rx="1.33333" fill="url(#paint0_linear_1350_5509)" fill-opacity="0.6"/>
<g clip-path="url(#clip0_1350_5509)">
<path d="M45.875 34.5V27C45.875 26.5027 45.6773 26.0259 45.3257 25.6743C44.9741 25.3227 44.4973 25.125 44 25.125H20C19.5027 25.125 19.0259 25.3227 18.6743 25.6743C18.3227 26.0259 18.125 26.5027 18.125 27V39C18.125 39.4973 18.3227 39.9741 18.6743 40.3257C19.0259 40.6773 19.5027 40.875 20 40.875H33.5C34.1213 40.875 34.625 41.3787 34.625 42C34.625 42.6213 34.1213 43.125 33.5 43.125H20C18.906 43.125 17.8571 42.6901 17.0835 41.9165C16.3099 41.1429 15.875 40.094 15.875 39V27C15.875 25.906 16.3099 24.8571 17.0835 24.0835C17.8571 23.3099 18.906 22.875 20 22.875H44C45.094 22.875 46.1429 23.3099 46.9165 24.0835C47.6901 24.8571 48.125 25.906 48.125 27V34.5C48.125 35.1213 47.6213 35.625 47 35.625C46.3787 35.625 45.875 35.1213 45.875 34.5Z" fill="url(#paint1_linear_1350_5509)"/>
<path d="M41.0146 31.875L41.1304 31.8809C41.6975 31.9386 42.1396 32.4176 42.1396 33C42.1396 33.5824 41.6975 34.0614 41.1304 34.1191L41.0146 34.125H41C40.3787 34.125 39.875 33.6213 39.875 33C39.875 32.3787 40.3787 31.875 41 31.875H41.0146Z" fill="url(#paint2_linear_1350_5509)"/>
<path d="M42.1264 36.5824C42.1839 36.0151 42.6632 35.5722 43.2457 35.5722C43.8281 35.5722 44.3081 36.0146 44.3658 36.5817L44.3706 36.6971L44.3699 40.8755L48.549 40.8755L48.6643 40.8803C49.2316 40.9379 49.6739 41.4179 49.6739 42.0004C49.6738 42.5828 49.2316 43.0628 48.6643 43.1204L48.549 43.1252L44.3699 43.1252L44.3706 47.3037C44.3706 47.925 43.867 48.4285 43.2457 48.4285C42.6244 48.4285 42.1208 47.925 42.1208 47.3037L42.1201 43.1252L37.9424 43.1252L37.8278 43.1197C37.2605 43.0622 36.8176 42.5828 36.8175 42.0004C36.8175 41.4178 37.2605 40.9386 37.8278 40.881L37.9424 40.8755L42.1201 40.8755L42.1208 36.6971L42.1264 36.5824Z" fill="url(#paint3_linear_1350_5509)"/>
<path d="M23.0146 31.875L23.1304 31.8809C23.6975 31.9386 24.1396 32.4176 24.1396 33C24.1396 33.5824 23.6975 34.0614 23.1304 34.1191L23.0146 34.125H23C22.3787 34.125 21.875 33.6213 21.875 33C21.875 32.3787 22.3787 31.875 23 31.875H23.0146Z" fill="url(#paint4_linear_1350_5509)"/>
<path d="M33.875 33C33.875 31.9645 33.0355 31.125 32 31.125C30.9645 31.125 30.125 31.9645 30.125 33C30.125 34.0355 30.9645 34.875 32 34.875C33.0355 34.875 33.875 34.0355 33.875 33ZM36.125 33C36.125 35.2782 34.2782 37.125 32 37.125C29.7218 37.125 27.875 35.2782 27.875 33C27.875 30.7218 29.7218 28.875 32 28.875C34.2782 28.875 36.125 30.7218 36.125 33Z" fill="url(#paint5_linear_1350_5509)"/>
</g>
<defs>
<linearGradient id="paint0_linear_1350_5509" x1="-8.64697e-07" y1="6.25314" x2="60.4207" y2="11.9403" gradientUnits="userSpaceOnUse">
<stop stop-color="#7B7B7B"/>
<stop offset="1" stop-color="#9ABECA"/>
</linearGradient>
<linearGradient id="paint1_linear_1350_5509" x1="15.875" y1="24.6484" x2="45.916" y2="29.1516" gradientUnits="userSpaceOnUse">
<stop stop-color="#7B7B7B"/>
<stop offset="1" stop-color="#9ABECA"/>
</linearGradient>
<linearGradient id="paint2_linear_1350_5509" x1="39.875" y1="32.072" x2="42.0127" y2="32.2746" gradientUnits="userSpaceOnUse">
<stop stop-color="#7B7B7B"/>
<stop offset="1" stop-color="#9ABECA"/>
</linearGradient>
<linearGradient id="paint3_linear_1350_5509" x1="36.9553" y1="42.6041" x2="44.0769" y2="36.7079" gradientUnits="userSpaceOnUse">
<stop stop-color="#7B7B7B"/>
<stop offset="1" stop-color="#9ABECA"/>
</linearGradient>
<linearGradient id="paint4_linear_1350_5509" x1="21.875" y1="32.072" x2="24.0127" y2="32.2746" gradientUnits="userSpaceOnUse">
<stop stop-color="#7B7B7B"/>
<stop offset="1" stop-color="#9ABECA"/>
</linearGradient>
<linearGradient id="paint5_linear_1350_5509" x1="27.875" y1="29.5975" x2="35.6636" y2="30.3306" gradientUnits="userSpaceOnUse">
<stop stop-color="#7B7B7B"/>
<stop offset="1" stop-color="#9ABECA"/>
</linearGradient>
<clipPath id="clip0_1350_5509">
<rect width="36" height="36" fill="white" transform="translate(14 15)"/>
</clipPath>
</defs>
</svg>
