<svg width="64" height="65" viewBox="0 0 64 65" fill="none" xmlns="http://www.w3.org/2000/svg">
<rect opacity="0.2" y="0.648438" width="64" height="64" rx="1.33333" fill="url(#paint0_linear_1350_5519)" fill-opacity="0.6"/>
<path d="M31.294 14.0311C31.7447 13.7013 32.3721 13.7247 32.7979 14.1014C37.2359 18.0276 43.028 20.0725 48.9473 19.8016L49.1514 19.8094C49.6184 19.8679 50.0168 20.1973 50.1533 20.661C51.0626 23.7522 51.3602 26.957 51.0684 30.1004L49.874 29.9891L48.6787 29.8797C48.9152 27.3334 48.7218 24.7428 48.0889 22.2215C42.232 22.2645 36.5439 20.2659 32.002 16.5702C27.4597 20.2662 21.7706 22.2649 15.9131 22.2215C15.2451 24.8844 15.0629 27.6484 15.378 30.3807C15.728 33.4164 16.6849 36.351 18.1914 39.0096C19.6979 41.6679 21.7235 43.9961 24.1475 45.8563C26.489 47.6531 29.1573 48.9761 32.002 49.7557C32.5551 49.6037 33.1003 49.4356 33.6338 49.245C34.2577 49.022 34.9448 49.3458 35.168 49.9696C35.391 50.5937 35.0655 51.2807 34.4414 51.5038C33.9158 51.6916 33.3829 51.861 32.8447 52.0135L32.3057 52.161C32.1076 52.2127 31.8984 52.2124 31.7002 52.161C28.4312 51.313 25.3659 49.8166 22.6865 47.7606C20.0072 45.7046 17.7676 43.1315 16.1026 40.1932C14.4375 37.2549 13.3811 34.0111 12.9942 30.6561C12.6072 27.301 12.8981 23.9013 13.8506 20.661L13.9248 20.4715C14.1321 20.0487 14.5736 19.7796 15.0567 19.8016C20.976 20.0724 26.7691 18.0277 31.2071 14.1014L31.294 14.0311ZM44.4473 32.9999C45.1221 33.0001 45.6465 33.6002 45.6465 34.2L45.7217 35.5497C46.3217 35.6247 46.9966 35.8503 47.8965 36.1502C48.4965 36.3752 48.7965 37.0502 48.6465 37.6502C48.4215 38.3248 47.747 38.6249 47.0723 38.4002C46.6223 38.2502 45.9467 38.025 45.3467 37.95C43.6967 37.6501 41.8971 37.9505 41.7471 39.2254C41.5972 40.0502 41.7473 40.5752 44.2969 41.325L44.8223 41.4754C46.9973 42.0754 50.2217 43.0503 49.5469 46.4999C49.2469 48.2999 47.7465 49.4997 45.6465 49.7997V50.9999C45.6465 51.6747 45.1221 52.1998 44.4473 52.2C43.7723 52.2 43.2471 51.6749 43.2471 50.9999V49.7254C42.2721 49.5754 41.2965 49.2002 40.3965 48.9002L40.0215 48.7499C39.4217 48.5247 39.0465 47.8498 39.2715 47.2499C39.4965 46.6499 40.1717 46.2749 40.8467 46.4999L41.2217 46.6502C41.9717 46.9502 42.8719 47.25 43.5469 47.325C45.1969 47.625 46.9967 47.3246 47.2217 46.0497C47.3716 44.9999 46.8467 44.5495 44.0723 43.7997L43.5469 43.6502C41.9719 43.2003 38.6718 42.225 39.2715 38.7752C39.5715 36.9752 41.0721 35.7754 43.2471 35.4754V34.2C43.2471 33.6 43.7723 32.9999 44.4473 32.9999ZM51.0684 30.1004C51.0071 30.7603 50.4226 31.2457 49.7627 31.1844C49.1031 31.1231 48.6178 30.5393 48.6787 29.8797L51.0684 30.1004Z" fill="url(#paint1_linear_1350_5519)"/>
<defs>
<linearGradient id="paint0_linear_1350_5519" x1="-8.64697e-07" y1="6.25314" x2="60.4207" y2="11.9403" gradientUnits="userSpaceOnUse">
<stop stop-color="#7B7B7B"/>
<stop offset="1" stop-color="#9ABECA"/>
</linearGradient>
<linearGradient id="paint1_linear_1350_5519" x1="12.8281" y1="17.163" x2="49.0325" y2="20.5662" gradientUnits="userSpaceOnUse">
<stop stop-color="#7B7B7B"/>
<stop offset="1" stop-color="#9ABECA"/>
</linearGradient>
</defs>
</svg>
