<svg width="56" height="56" viewBox="0 0 56 56" fill="none" xmlns="http://www.w3.org/2000/svg">
<rect opacity="0.2" width="56" height="56" rx="1.16667" fill="url(#paint0_linear_1258_16342)" fill-opacity="0.6"/>
<path d="M35.2891 20.2295C37.4559 20.2295 39.5448 20.985 41.2041 22.3496L41.8584 21.6963L41.9277 21.6348C42.2816 21.3461 42.8028 21.3666 43.1328 21.6963C43.4627 22.0262 43.4838 22.5484 43.1953 22.9023L43.1328 22.9707L42.4795 23.623C43.846 25.2828 44.6025 27.3737 44.6025 29.542L44.5908 30C44.5383 31.0664 44.303 32.1179 43.8936 33.1064C43.4255 34.2362 42.7387 35.2623 41.874 36.127C41.0094 36.9916 39.9832 37.6775 38.8535 38.1455C37.7236 38.6135 36.512 38.8555 35.2891 38.8555C34.0662 38.8554 32.8554 38.6135 31.7256 38.1455C30.5958 37.6775 29.5688 36.9917 28.7041 36.127C27.8395 35.2623 27.1525 34.2362 26.6846 33.1064C26.2166 31.9766 25.9766 30.7649 25.9766 29.542C25.9766 27.0722 26.9578 24.7034 28.7041 22.957C30.4505 21.2106 32.8193 20.2296 35.2891 20.2295ZM35.2891 22.0312C33.2973 22.0313 31.3869 22.8231 29.9785 24.2314C28.5702 25.6398 27.7794 27.5503 27.7793 29.542C27.7793 30.5282 27.9742 31.5049 28.3516 32.416C28.7289 33.327 29.2813 34.1553 29.9785 34.8525C30.6758 35.5498 31.5041 36.1031 32.415 36.4805C33.3261 36.8578 34.303 37.0527 35.2891 37.0527C36.2752 37.0527 37.252 36.8578 38.1631 36.4805C39.0742 36.1031 39.9023 35.5499 40.5996 34.8525C41.297 34.1552 41.8501 33.3272 42.2275 32.416C42.6049 31.5049 42.7998 30.5282 42.7998 29.542L42.79 29.1699C42.6979 27.3138 41.9199 25.5518 40.5996 24.2314C39.1912 22.8232 37.2808 22.0312 35.2891 22.0312ZM22.2393 34.5059C22.6804 34.5507 23.0244 34.923 23.0244 35.376C23.0244 35.829 22.6804 36.2012 22.2393 36.2461L22.1494 36.251H20.1729C19.6896 36.251 19.2979 35.8592 19.2979 35.376C19.2979 34.8927 19.6896 34.501 20.1729 34.501H22.1494L22.2393 34.5059ZM37.7275 25.8408C38.0815 25.552 38.6036 25.5725 38.9336 25.9023C39.2633 26.2322 39.2844 26.7535 38.9961 27.1074L38.9336 27.1768L35.9297 30.1807C35.5777 30.5323 35.0071 30.5324 34.6553 30.1807C34.3036 29.8288 34.3037 29.2582 34.6553 28.9062L37.6592 25.9023L37.7275 25.8408ZM22.2207 28.5762C22.6621 28.6209 23.0068 28.9931 23.0068 29.4463C23.0066 29.8992 22.6619 30.2718 22.2207 30.3164L22.1318 30.3213H16.2012C15.7181 30.3213 15.3264 29.9293 15.3262 29.4463C15.3262 28.963 15.7179 28.5713 16.2012 28.5713H22.1318L22.2207 28.5762ZM22.2236 22.6455C22.6648 22.6904 23.0088 23.0626 23.0088 23.5156C23.0088 23.9686 22.6648 24.3409 22.2236 24.3857L22.1338 24.3906H12.25C11.7668 24.3906 11.375 23.9989 11.375 23.5156C11.375 23.0324 11.7668 22.6406 12.25 22.6406H22.1338L22.2236 22.6455ZM37.792 16.6299C38.2465 16.676 38.6006 17.0597 38.6006 17.5264C38.6005 17.993 38.2464 18.3767 37.792 18.4229L37.7002 18.4277H32.8936C32.3959 18.4277 31.9923 18.0241 31.9922 17.5264C31.9922 17.0286 32.3958 16.625 32.8936 16.625H37.7002L37.792 16.6299Z" fill="url(#paint1_linear_1258_16342)"/>
<defs>
<linearGradient id="paint0_linear_1258_16342" x1="-7.56609e-07" y1="4.90412" x2="52.8681" y2="9.88034" gradientUnits="userSpaceOnUse">
<stop stop-color="#7B7B7B"/>
<stop offset="1" stop-color="#9ABECA"/>
</linearGradient>
<linearGradient id="paint1_linear_1258_16342" x1="11.375" y1="18.5718" x2="42.4079" y2="22.9377" gradientUnits="userSpaceOnUse">
<stop stop-color="#7B7B7B"/>
<stop offset="1" stop-color="#9ABECA"/>
</linearGradient>
</defs>
</svg>
