<svg width="64" height="64" viewBox="0 0 64 64" fill="none" xmlns="http://www.w3.org/2000/svg">
<rect opacity="0.2" width="64" height="64" rx="1.33333" fill="url(#paint0_linear_1242_4228)" fill-opacity="0.6"/>
<path d="M28.7734 14.2969C29.2986 14.3502 29.7088 14.7938 29.709 15.333C29.709 15.8724 29.2987 16.3158 28.7734 16.3691L28.667 16.375H22.834C22.0053 16.375 21.2101 16.7041 20.624 17.29C20.0381 17.876 19.7091 18.6713 19.709 19.5V40.333C20.6053 39.6612 21.7009 39.292 22.834 39.292H44.292V37C44.292 36.4247 44.7587 35.958 45.334 35.958C45.9091 35.9582 46.375 36.4248 46.375 37V47C46.375 47.7183 46.0899 48.4071 45.582 48.915C45.0741 49.423 44.3853 49.708 43.667 49.708H22.834C21.4526 49.708 20.1271 49.1594 19.1504 48.1826C18.1738 47.2059 17.625 45.8812 17.625 44.5V19.5C17.6251 18.1188 18.1737 16.7931 19.1504 15.8164C20.1271 14.8398 21.4527 14.291 22.834 14.291H28.667L28.7734 14.2969ZM22.834 41.375C22.0053 41.375 21.2101 41.7041 20.624 42.29C20.038 42.8761 19.709 43.6712 19.709 44.5C19.709 45.3288 20.038 46.1239 20.624 46.71C21.2101 47.2959 22.0053 47.625 22.834 47.625H43.667C43.8328 47.625 43.9922 47.5596 44.1094 47.4424C44.2266 47.3252 44.292 47.1658 44.292 47V41.375H22.834ZM38.6719 14.291C39.832 14.291 40.9452 14.7521 41.7656 15.5723C42.5859 16.3926 43.0467 17.5059 43.0469 18.666V20.958H43.6699C45.1655 20.9582 46.3779 22.1713 46.3779 23.667V28.667C46.3778 30.1625 45.1654 31.3748 43.6699 31.375H33.6699C32.1743 31.375 30.9611 30.1626 30.9609 28.667V23.667C30.9609 22.1712 32.1742 20.958 33.6699 20.958H34.2969V18.666C34.2971 17.5059 34.7578 16.3926 35.5781 15.5723C36.3985 14.752 37.5118 14.2911 38.6719 14.291ZM33.6699 23.042C33.3247 23.042 33.0449 23.3218 33.0449 23.667V28.667C33.0451 29.012 33.3249 29.292 33.6699 29.292H43.6699C44.0148 29.2918 44.2947 29.0119 44.2949 28.667V23.667C44.2949 23.3219 44.0149 23.0422 43.6699 23.042H33.6699ZM38.6719 16.375C38.0643 16.3751 37.4814 16.6163 37.0518 17.0459C36.6222 17.4755 36.381 18.0585 36.3809 18.666V20.958H40.9639V18.666C40.9637 18.0586 40.7225 17.4755 40.293 17.0459C39.8632 16.6162 39.2796 16.375 38.6719 16.375Z" fill="url(#paint1_linear_1242_4228)"/>
<defs>
<linearGradient id="paint0_linear_1242_4228" x1="-8.64697e-07" y1="5.6047" x2="60.4207" y2="11.2918" gradientUnits="userSpaceOnUse">
<stop stop-color="#7B7B7B"/>
<stop offset="1" stop-color="#9ABECA"/>
</linearGradient>
<linearGradient id="paint1_linear_1242_4228" x1="17.625" y1="17.3926" x2="44.8514" y2="19.4731" gradientUnits="userSpaceOnUse">
<stop stop-color="#7B7B7B"/>
<stop offset="1" stop-color="#9ABECA"/>
</linearGradient>
</defs>
</svg>
