<svg width="65" height="65" viewBox="0 0 65 65" fill="none" xmlns="http://www.w3.org/2000/svg">
<rect opacity="0.2" x="0.335938" y="0.648438" width="64" height="64" rx="1.33333" fill="url(#paint0_linear_1220_3445)" fill-opacity="0.6"/>
<path d="M31.9971 22.8335C34.1306 22.8336 36.2105 23.505 37.9414 24.7524C39.6724 26 40.9668 27.7615 41.6416 29.7856C42.3162 31.8098 42.3374 33.9951 41.7012 36.0317C41.0743 38.0386 39.839 39.7987 38.1699 41.0747C37.7577 41.4893 37.4176 41.9676 37.1592 42.4888C37.1342 42.5621 37.1029 42.6322 37.0625 42.6968C36.9922 42.8551 36.9271 43.0161 36.8721 43.1812C36.6033 43.9876 36.5279 44.8462 36.6523 45.687C36.6595 45.7355 36.6631 45.7845 36.6631 45.8335C36.6631 47.0711 36.1719 48.2581 35.2969 49.1333C34.4218 50.0083 33.2346 50.5004 31.9971 50.5005C30.7596 50.5004 29.5723 50.0083 28.6973 49.1333C27.8223 48.2582 27.3301 47.071 27.3301 45.8335C27.3301 45.7845 27.3336 45.7355 27.3408 45.687C27.4653 44.8461 27.3899 43.9876 27.1211 43.1812C27.0645 43.0113 26.9976 42.8457 26.9248 42.6831C26.8893 42.6242 26.8599 42.5616 26.8369 42.4956C26.5779 41.9719 26.2365 41.4912 25.8223 41.0747C24.1538 39.7988 22.9198 38.038 22.293 36.0317C21.6569 33.9952 21.677 31.8097 22.3516 29.7856C23.0263 27.7615 24.3209 26.0001 26.0518 24.7524C27.7827 23.5049 29.8634 22.8336 31.9971 22.8335ZM29.1924 43.1675C29.4032 44.0515 29.4514 44.9675 29.3311 45.8716C29.3409 46.5649 29.6204 47.2282 30.1113 47.7192C30.6113 48.2191 31.29 48.5004 31.9971 48.5005C32.7041 48.5004 33.3828 48.2192 33.8828 47.7192C34.3738 47.2281 34.6512 46.565 34.6611 45.8716C34.5409 44.9675 34.5907 44.0514 34.8018 43.1675H29.1924ZM31.9971 24.8335C30.2832 24.8336 28.6121 25.3733 27.2217 26.3755C25.8314 27.3777 24.791 28.7916 24.249 30.4175C23.707 32.0434 23.6903 33.7991 24.2012 35.4351C24.6803 36.9688 25.6008 38.3255 26.8438 39.3364L27.0967 39.5337L27.2002 39.6226C27.666 40.0836 28.0644 40.6047 28.3916 41.1675H35.6025C35.9297 40.6048 36.3273 40.0836 36.793 39.6226L36.8965 39.5337C38.2677 38.5053 39.2809 37.0711 39.792 35.4351C40.303 33.799 40.2861 32.0435 39.7441 30.4175C39.2021 28.7916 38.1619 27.3776 36.7715 26.3755C35.3811 25.3735 33.7108 24.8336 31.9971 24.8335ZM17.4355 32.0054C17.9398 32.0566 18.333 32.4827 18.333 33.0005C18.333 33.5183 17.9398 33.9444 17.4355 33.9956L17.333 34.0005H15.5C14.9477 34.0005 14.5 33.5528 14.5 33.0005C14.5 32.4482 14.9477 32.0005 15.5 32.0005H17.333L17.4355 32.0054ZM48.5 32.0005C49.0523 32.0005 49.5 32.4482 49.5 33.0005C49.5 33.5528 49.0523 34.0005 48.5 34.0005H46.667C46.1147 34.0005 45.667 33.5528 45.667 33.0005C45.667 32.4482 46.1147 32.0005 46.667 32.0005H48.5ZM43.0264 20.5601C43.4169 20.1696 44.0499 20.1696 44.4404 20.5601C44.8309 20.9506 44.8309 21.5836 44.4404 21.9741L43.1572 23.2573C42.7667 23.6478 42.1337 23.6478 41.7432 23.2573C41.3526 22.8668 41.3526 22.2338 41.7432 21.8433L43.0264 20.5601ZM19.5596 20.5601C19.9257 20.194 20.5047 20.1714 20.8975 20.4917L20.9736 20.5601L22.2568 21.8433L22.3262 21.9194C22.6463 22.3122 22.6229 22.8913 22.2568 23.2573C21.8908 23.6234 21.3117 23.6468 20.9189 23.3267L20.8428 23.2573L19.5596 21.9741L19.4912 21.8979C19.1709 21.5052 19.1935 20.9262 19.5596 20.5601ZM32 15.5005C32.5523 15.5005 33 15.9482 33 16.5005V18.3335C33 18.8858 32.5523 19.3335 32 19.3335C31.4477 19.3335 31 18.8858 31 18.3335V16.5005C31 15.9482 31.4477 15.5005 32 15.5005Z" fill="url(#paint1_linear_1220_3445)"/>
<defs>
<linearGradient id="paint0_linear_1220_3445" x1="0.335937" y1="6.25314" x2="60.7566" y2="11.9403" gradientUnits="userSpaceOnUse">
<stop stop-color="#7B7B7B"/>
<stop offset="1" stop-color="#9ABECA"/>
</linearGradient>
<linearGradient id="paint1_linear_1220_3445" x1="14.5" y1="18.5656" x2="47.5425" y2="21.6757" gradientUnits="userSpaceOnUse">
<stop stop-color="#7B7B7B"/>
<stop offset="1" stop-color="#9ABECA"/>
</linearGradient>
</defs>
</svg>
