<svg width="36" height="37" viewBox="0 0 36 37" fill="none" xmlns="http://www.w3.org/2000/svg">
  <g opacity="0.2">
    <rect y="0.5" width="36" height="36" rx="1.33333" fill="url(#paint0_radial_1245_3546)" />
    <rect y="0.5" width="36" height="36" rx="1.33333" fill="url(#paint1_radial_1245_3546)" />
  </g>
  <path d="M16.9258 7.99902C22.138 7.99928 26.3631 12.2252 26.3633 17.4385L26.3613 17.6289C26.325 19.4595 25.7675 21.1636 24.8311 22.5967L29.0381 26.8047L29.1045 26.875C29.7465 27.586 29.7467 28.6709 29.1045 29.3818L29.0381 29.4521C28.3301 30.1599 27.1954 30.1823 26.4609 29.5186L26.3916 29.4521L22.2041 25.2637C20.6974 26.2824 18.8809 26.8788 16.9258 26.8789C15.0104 26.8789 13.2293 26.306 11.7412 25.3252L10.7812 26.3877L9.6416 22.8545L13.2705 23.6338L12.335 24.668C13.6618 25.5126 15.2366 26.0029 16.9258 26.0029C18.8231 26.0028 20.575 25.3852 21.9941 24.3408L22.2969 24.1182L22.5635 24.3838L27.0107 28.832L27.0479 28.8682C27.4387 29.2212 28.0423 29.2086 28.4189 28.832L28.4541 28.7949C28.7957 28.4167 28.7957 27.8392 28.4541 27.4609L28.4189 27.4238L23.6934 22.6982L23.9082 22.3965C24.9029 20.9975 25.4873 19.2866 25.4873 17.4385C25.4871 12.709 21.6544 8.87526 16.9258 8.875C12.2744 8.87507 8.491 12.5845 8.36816 17.207L9.77832 17.1445L8.06836 20.4395L6.07031 17.3115L7.49121 17.2471C7.59333 12.1221 11.7774 7.99909 16.9258 7.99902ZM10.9531 14.6992C12.5008 11.4913 16.242 10.0171 19.4717 11.3672C19.4865 11.3721 19.5021 11.3763 19.5166 11.3828C19.538 11.3925 19.5588 11.4032 19.5801 11.4131C19.602 11.4227 19.6246 11.4315 19.6465 11.4414C21.2698 12.1758 22.4398 13.4991 23.0352 15.0537C23.046 15.081 23.0569 15.1083 23.0674 15.1357C23.0728 15.1503 23.0777 15.1651 23.083 15.1797C23.67 16.7454 23.6681 18.5206 22.9307 20.1514C22.9214 20.1719 22.9099 20.1915 22.9004 20.2119C22.8904 20.2347 22.8824 20.2585 22.8721 20.2812C22.8647 20.2976 22.8538 20.3122 22.8447 20.3271C21.2841 23.5212 17.4059 24.8762 14.0918 23.377C13.8717 23.2772 13.7744 23.0172 13.874 22.7969C13.9739 22.5769 14.233 22.4795 14.4531 22.5791C17.3797 23.903 20.7784 22.6732 22.0977 19.8613C22.7521 18.3732 22.7522 16.7687 22.2227 15.3789C21.6892 14.0355 20.6495 12.8781 19.2188 12.2109C16.4151 10.9856 13.1078 12.247 11.7412 15.0801L11.6777 15.2168L11.6572 15.2568C11.5458 15.4488 11.3042 15.5289 11.0977 15.4355C10.8913 15.342 10.7927 15.1078 10.8633 14.8975L10.8799 14.8564L10.9531 14.6992Z" fill="url(#paint2_linear_1245_3546)" />
  <path d="M16.9258 7.99902L16.9258 7.84902H16.9258L16.9258 7.99902ZM26.3633 17.4385L26.5133 17.44V17.4385L26.3633 17.4385ZM26.3613 17.6289L26.5113 17.6319L26.5113 17.6304L26.3613 17.6289ZM24.8311 22.5967L24.7055 22.5146L24.6389 22.6166L24.725 22.7027L24.8311 22.5967ZM29.0381 26.8047L29.1472 26.7017L29.1442 26.6986L29.0381 26.8047ZM29.1045 26.875L29.2158 26.7744L29.2135 26.772L29.1045 26.875ZM29.1045 29.3818L29.2136 29.4849L29.2158 29.4824L29.1045 29.3818ZM29.0381 29.4521L29.1442 29.5583L29.1471 29.5551L29.0381 29.4521ZM26.4609 29.5186L26.3571 29.6269L26.3604 29.6298L26.4609 29.5186ZM26.3916 29.4521L26.2855 29.5582L26.2878 29.5605L26.3916 29.4521ZM22.2041 25.2637L22.3102 25.1576L22.2226 25.0701L22.1201 25.1394L22.2041 25.2637ZM16.9258 26.8789L16.9258 27.0289H16.9258L16.9258 26.8789ZM11.7412 25.3252L11.8238 25.2L11.7162 25.1291L11.6299 25.2246L11.7412 25.3252ZM10.7812 26.3877L10.6385 26.4337L10.7183 26.6811L10.8926 26.4883L10.7812 26.3877ZM9.6416 22.8545L9.6731 22.7078L9.41909 22.6533L9.49884 22.9005L9.6416 22.8545ZM13.2705 23.6338L13.3817 23.7344L13.5561 23.5417L13.302 23.4871L13.2705 23.6338ZM12.335 24.668L12.2237 24.5673L12.1045 24.6991L12.2544 24.7945L12.335 24.668ZM16.9258 26.0029L16.9258 26.1529H16.9258L16.9258 26.0029ZM21.9941 24.3408L21.9053 24.22L21.9052 24.22L21.9941 24.3408ZM22.2969 24.1182L22.4027 24.0119L22.3116 23.9211L22.208 23.9973L22.2969 24.1182ZM22.5635 24.3838L22.6696 24.2777L22.6693 24.2775L22.5635 24.3838ZM27.0107 28.832L26.9047 28.9381L26.9061 28.9395L27.0107 28.832ZM27.0479 28.8682L26.9431 28.9757L26.9473 28.9795L27.0479 28.8682ZM28.4189 28.832L28.525 28.9381L28.5278 28.9352L28.4189 28.832ZM28.4541 28.7949L28.563 28.8981L28.5654 28.8954L28.4541 28.7949ZM28.4541 27.4609L28.5655 27.3604L28.563 27.3578L28.4541 27.4609ZM28.4189 27.4238L28.5279 27.3206L28.525 27.3178L28.4189 27.4238ZM23.6934 22.6982L23.5712 22.6112L23.4976 22.7146L23.5873 22.8043L23.6934 22.6982ZM23.9082 22.3965L24.0304 22.4835L24.0305 22.4834L23.9082 22.3965ZM25.4873 17.4385L25.6373 17.4385V17.4385L25.4873 17.4385ZM16.9258 8.875L16.9258 8.725L16.9258 8.725L16.9258 8.875ZM8.36816 17.207L8.21822 17.203L8.21394 17.364L8.37481 17.3569L8.36816 17.207ZM9.77832 17.1445L9.91146 17.2136L10.0311 16.9832L9.77168 16.9947L9.77832 17.1445ZM8.06836 20.4395L7.94195 20.5202L8.08182 20.7392L8.2015 20.5085L8.06836 20.4395ZM6.07031 17.3115L6.06352 17.1617L5.80412 17.1734L5.9439 17.3923L6.07031 17.3115ZM7.49121 17.2471L7.49801 17.3969L7.63838 17.3905L7.64118 17.2501L7.49121 17.2471ZM10.9531 14.6992L10.818 14.634L10.8172 14.6359L10.9531 14.6992ZM19.4717 11.3672L19.4137 11.506L19.4248 11.5097L19.4717 11.3672ZM19.5166 11.3828L19.5784 11.2462L19.5784 11.2461L19.5166 11.3828ZM19.5801 11.4131L19.5169 11.5491L19.5198 11.5504L19.5801 11.4131ZM19.6465 11.4414L19.7083 11.3047L19.7083 11.3047L19.6465 11.4414ZM23.0352 15.0537L22.8951 15.1074L22.8958 15.1092L23.0352 15.0537ZM23.0674 15.1357L23.2082 15.0839L23.2075 15.0821L23.0674 15.1357ZM23.083 15.1797L22.9419 15.2305L22.9426 15.2323L23.083 15.1797ZM22.9307 20.1514L23.0673 20.2132L23.0673 20.2132L22.9307 20.1514ZM22.9004 20.2119L22.7643 20.1487L22.7631 20.1516L22.9004 20.2119ZM22.8721 20.2812L23.0087 20.3431L23.0087 20.3431L22.8721 20.2812ZM22.8447 20.3271L22.7159 20.2491L22.71 20.2613L22.8447 20.3271ZM14.0918 23.377L14.0299 23.5136L14.03 23.5136L14.0918 23.377ZM13.874 22.7969L13.7374 22.7349L13.7373 22.7351L13.874 22.7969ZM14.4531 22.5791L14.3913 22.7158H14.3913L14.4531 22.5791ZM22.0977 19.8613L22.2335 19.9251L22.235 19.9217L22.0977 19.8613ZM22.2227 15.3789L22.3628 15.3255L22.3621 15.3235L22.2227 15.3789ZM19.2188 12.2109L19.2822 12.0749L19.2788 12.0735L19.2188 12.2109ZM11.7412 15.0801L11.6061 15.0149L11.6052 15.0169L11.7412 15.0801ZM11.6777 15.2168L11.8113 15.2852L11.8138 15.28L11.6777 15.2168ZM11.6572 15.2568L11.7871 15.3322L11.7907 15.3252L11.6572 15.2568ZM11.0977 15.4355L11.0357 15.5722L11.0359 15.5722L11.0977 15.4355ZM10.8633 14.8975L10.724 14.8411L10.7211 14.8498L10.8633 14.8975ZM10.8799 14.8564L10.7437 14.793L10.7408 14.8002L10.8799 14.8564ZM16.9258 7.99902L16.9258 8.14902C22.0551 8.14928 26.2131 12.3081 26.2133 17.4385L26.3633 17.4385L26.5133 17.4385C26.5131 12.1424 22.2209 7.84929 16.9258 7.84902L16.9258 7.99902ZM26.3633 17.4385L26.2133 17.4369L26.2113 17.6274L26.3613 17.6289L26.5113 17.6304L26.5133 17.44L26.3633 17.4385ZM26.3613 17.6289L26.2114 17.6259C26.1756 19.4275 25.627 21.1044 24.7055 22.5146L24.8311 22.5967L24.9566 22.6787C25.9081 21.2228 26.4744 19.4914 26.5113 17.6319L26.3613 17.6289ZM24.8311 22.5967L24.725 22.7027L28.932 26.9107L29.0381 26.8047L29.1442 26.6986L24.9371 22.4906L24.8311 22.5967ZM29.0381 26.8047L28.929 26.9077L28.9954 26.978L29.1045 26.875L29.2135 26.772L29.1471 26.7017L29.0381 26.8047ZM29.1045 26.875L28.9932 26.9755C29.5837 27.6295 29.5838 28.6274 28.9932 29.2813L29.1045 29.3818L29.2158 29.4824C29.9096 28.7143 29.9094 27.5426 29.2158 26.7745L29.1045 26.875ZM29.1045 29.3818L28.9954 29.2788L28.929 29.3492L29.0381 29.4521L29.1471 29.5551L29.2135 29.4848L29.1045 29.3818ZM29.0381 29.4521L28.932 29.3461C28.2808 29.9971 27.237 30.0177 26.5615 29.4073L26.4609 29.5186L26.3604 29.6298C27.1539 30.3469 28.3794 30.3228 29.1441 29.5582L29.0381 29.4521ZM26.4609 29.5186L26.5647 29.4102L26.4954 29.3438L26.3916 29.4521L26.2878 29.5605L26.3572 29.6269L26.4609 29.5186ZM26.3916 29.4521L26.4977 29.3461L22.3102 25.1576L22.2041 25.2637L22.098 25.3697L26.2855 29.5582L26.3916 29.4521ZM22.2041 25.2637L22.1201 25.1394C20.6374 26.142 18.8499 26.7288 16.9258 26.7289L16.9258 26.8789L16.9258 27.0289C18.9118 27.0288 20.7575 26.4229 22.2881 25.3879L22.2041 25.2637ZM16.9258 26.8789L16.9258 26.7289C15.0408 26.7289 13.2882 26.1652 11.8238 25.2L11.7412 25.3252L11.6587 25.4504C13.1703 26.4468 14.9801 27.0289 16.9258 27.0289L16.9258 26.8789ZM11.7412 25.3252L11.6299 25.2246L10.6699 26.2871L10.7812 26.3877L10.8926 26.4883L11.8525 25.4258L11.7412 25.3252ZM10.7812 26.3877L10.924 26.3416L9.78436 22.8084L9.6416 22.8545L9.49884 22.9005L10.6385 26.4337L10.7812 26.3877ZM9.6416 22.8545L9.61011 23.0011L13.239 23.7804L13.2705 23.6338L13.302 23.4871L9.6731 22.7078L9.6416 22.8545ZM13.2705 23.6338L13.1593 23.5332L12.2237 24.5673L12.335 24.668L12.4462 24.7686L13.3817 23.7344L13.2705 23.6338ZM12.335 24.668L12.2544 24.7945C13.6045 25.6539 15.2071 26.1529 16.9258 26.1529L16.9258 26.0029L16.9258 25.8529C15.266 25.8529 13.719 25.3712 12.4155 24.5414L12.335 24.668ZM16.9258 26.0029L16.9258 26.1529C18.8562 26.1528 20.6391 25.5243 22.083 24.4616L21.9941 24.3408L21.9052 24.22C20.511 25.2461 18.79 25.8528 16.9258 25.8529L16.9258 26.0029ZM21.9941 24.3408L22.083 24.4617L22.3857 24.239L22.2969 24.1182L22.208 23.9973L21.9053 24.22L21.9941 24.3408ZM22.2969 24.1182L22.191 24.2244L22.4576 24.49L22.5635 24.3838L22.6693 24.2775L22.4027 24.0119L22.2969 24.1182ZM22.5635 24.3838L22.4574 24.4898L26.9047 28.9381L27.0107 28.832L27.1168 28.726L22.6696 24.2777L22.5635 24.3838ZM27.0107 28.832L26.9061 28.9395L26.9432 28.9756L27.0479 28.8682L27.1525 28.7607L27.1154 28.7246L27.0107 28.832ZM27.0479 28.8682L26.9473 28.9795C27.3973 29.3859 28.0918 29.3713 28.525 28.9381L28.4189 28.832L28.3129 28.726C27.9929 29.0459 27.4801 29.0564 27.1484 28.7568L27.0479 28.8682ZM28.4189 28.832L28.5278 28.9352L28.563 28.8981L28.4541 28.7949L28.3452 28.6918L28.3101 28.7289L28.4189 28.832ZM28.4541 28.7949L28.5654 28.8954C28.9585 28.4601 28.9586 27.7958 28.5654 27.3604L28.4541 27.4609L28.3428 27.5615C28.6328 27.8826 28.6328 28.3732 28.3428 28.6944L28.4541 28.7949ZM28.4541 27.4609L28.563 27.3578L28.5278 27.3207L28.4189 27.4238L28.3101 27.527L28.3452 27.5641L28.4541 27.4609ZM28.4189 27.4238L28.525 27.3178L23.7994 22.5922L23.6934 22.6982L23.5873 22.8043L28.3129 27.5299L28.4189 27.4238ZM23.6934 22.6982L23.8156 22.7852L24.0304 22.4835L23.9082 22.3965L23.786 22.3095L23.5712 22.6112L23.6934 22.6982ZM23.9082 22.3965L24.0305 22.4834C25.0427 21.0598 25.6373 19.3187 25.6373 17.4385L25.4873 17.4385L25.3373 17.4385C25.3373 19.2544 24.7632 20.9352 23.786 22.3096L23.9082 22.3965ZM25.4873 17.4385L25.6373 17.4385C25.6371 12.6262 21.7372 8.72527 16.9258 8.725L16.9258 8.875L16.9258 9.025C21.5715 9.02526 25.3371 12.7918 25.3373 17.4385L25.4873 17.4385ZM16.9258 8.875L16.9258 8.725C12.1929 8.72507 8.34321 12.4995 8.21822 17.203L8.36816 17.207L8.51811 17.211C8.6388 12.6694 12.356 9.02507 16.9258 9.025L16.9258 8.875ZM8.36816 17.207L8.37481 17.3569L9.78496 17.2944L9.77832 17.1445L9.77168 16.9947L8.36152 17.0572L8.36816 17.207ZM9.77832 17.1445L9.64518 17.0754L7.93522 20.3704L8.06836 20.4395L8.2015 20.5085L9.91146 17.2136L9.77832 17.1445ZM8.06836 20.4395L8.19477 20.3587L6.19672 17.2308L6.07031 17.3115L5.9439 17.3923L7.94195 20.5202L8.06836 20.4395ZM6.07031 17.3115L6.07711 17.4614L7.49801 17.3969L7.49121 17.2471L7.48441 17.0972L6.06352 17.1617L6.07031 17.3115ZM7.49121 17.2471L7.64118 17.2501C7.74167 12.2065 11.8593 8.14909 16.9258 8.14902L16.9258 7.99902L16.9258 7.84902C11.6955 7.8491 7.44498 12.0377 7.34124 17.2441L7.49121 17.2471ZM10.9531 14.6992L11.0882 14.7644C12.6026 11.6255 16.2605 10.1874 19.4138 11.5056L19.4717 11.3672L19.5295 11.2288C16.2235 9.84676 12.399 11.357 10.818 14.634L10.9531 14.6992ZM19.4717 11.3672L19.4248 11.5097C19.4297 11.5113 19.4344 11.5128 19.4381 11.5139C19.4421 11.5152 19.4449 11.516 19.4476 11.5169C19.4502 11.5178 19.4519 11.5184 19.4532 11.5189C19.4544 11.5193 19.4549 11.5195 19.4548 11.5195L19.5166 11.3828L19.5784 11.2461C19.5542 11.2352 19.5225 11.226 19.5186 11.2247L19.4717 11.3672ZM19.5166 11.3828L19.4548 11.5195C19.4809 11.5313 19.4827 11.5333 19.5169 11.5491L19.5801 11.4131L19.6433 11.2771C19.6349 11.2732 19.5951 11.2537 19.5784 11.2462L19.5166 11.3828ZM19.5801 11.4131L19.5198 11.5504C19.5556 11.5662 19.5578 11.5659 19.5847 11.5781L19.6465 11.4414L19.7083 11.3047C19.6913 11.2971 19.6485 11.2793 19.6404 11.2758L19.5801 11.4131ZM19.6465 11.4414L19.5847 11.5781C21.17 12.2953 22.3131 13.5876 22.8951 15.1074L23.0352 15.0537L23.1752 15.0001C22.5666 13.4106 21.3696 12.0563 19.7083 11.3047L19.6465 11.4414ZM23.0352 15.0537L22.8958 15.1092C22.9067 15.1366 22.9172 15.163 22.9273 15.1894L23.0674 15.1357L23.2075 15.0821C23.1966 15.0536 23.1853 15.0254 23.1745 14.9982L23.0352 15.0537ZM23.0674 15.1357L22.9266 15.1875C22.9323 15.2031 22.9348 15.2107 22.9419 15.2305L23.083 15.1797L23.2241 15.1289C23.2207 15.1194 23.2132 15.0976 23.2082 15.0839L23.0674 15.1357ZM23.083 15.1797L22.9426 15.2323C23.5164 16.763 23.5142 18.4969 22.794 20.0896L22.9307 20.1514L23.0673 20.2132C23.8221 18.5443 23.8236 16.7278 23.2235 15.127L23.083 15.1797ZM22.9307 20.1514L22.794 20.0896C22.7913 20.0955 22.788 20.1021 22.7826 20.1124C22.7778 20.1215 22.7708 20.1348 22.7644 20.1487L22.9004 20.2119L23.0364 20.2751C23.0394 20.2686 23.0429 20.2619 23.0486 20.251C23.0537 20.2413 23.0607 20.2278 23.0673 20.2132L22.9307 20.1514ZM22.9004 20.2119L22.7631 20.1516C22.7565 20.1665 22.7508 20.1813 22.7466 20.1921C22.742 20.204 22.7387 20.2121 22.7354 20.2194L22.8721 20.2812L23.0087 20.3431C23.0157 20.3276 23.0216 20.3125 23.0261 20.3011C23.031 20.2886 23.0342 20.2802 23.0377 20.2723L22.9004 20.2119ZM22.8721 20.2812L22.7354 20.2194C22.736 20.2182 22.7357 20.2191 22.7322 20.2246C22.7304 20.2275 22.7288 20.23 22.7258 20.2345C22.7233 20.2384 22.7199 20.2437 22.7165 20.2494L22.8447 20.3271L22.973 20.4049C22.9772 20.398 22.9771 20.3986 22.9858 20.3849C22.9919 20.3752 23.0008 20.3607 23.0087 20.3431L22.8721 20.2812ZM22.8447 20.3271L22.71 20.2613C21.1862 23.38 17.3964 24.7073 14.1536 23.2403L14.0918 23.377L14.03 23.5136C17.4154 25.0451 21.3821 23.6625 22.9795 20.393L22.8447 20.3271ZM14.0918 23.377L14.1537 23.2403C14.0094 23.1749 13.945 23.0039 14.0107 22.8587L13.874 22.7969L13.7373 22.7351C13.6038 23.0304 13.7339 23.3795 14.0299 23.5136L14.0918 23.377ZM13.874 22.7969L14.0106 22.8589C14.0762 22.7144 14.2465 22.6503 14.3913 22.7158L14.4531 22.5791L14.5149 22.4424C14.2195 22.3088 13.8715 22.4395 13.7374 22.7349L13.874 22.7969ZM14.4531 22.5791L14.3913 22.7158C17.39 24.0722 20.8782 22.8138 22.2335 19.925L22.0977 19.8613L21.9619 19.7976C20.6787 22.5326 17.3695 23.7337 14.5149 22.4424L14.4531 22.5791ZM22.0977 19.8613L22.235 19.9217C22.9057 18.3966 22.906 16.7511 22.3628 15.3255L22.2227 15.3789L22.0825 15.4323C22.5983 16.7862 22.5985 18.3498 21.9603 19.8009L22.0977 19.8613ZM22.2227 15.3789L22.3621 15.3235C21.8148 13.9455 20.7484 12.7587 19.2821 12.075L19.2188 12.2109L19.1554 12.3469C20.5505 12.9974 21.5635 14.1255 22.0832 15.4343L22.2227 15.3789ZM19.2188 12.2109L19.2788 12.0735C16.3985 10.8147 13.0063 12.1119 11.6061 15.0149L11.7412 15.0801L11.8763 15.1452C13.2092 12.382 16.4318 11.1566 19.1587 12.3484L19.2188 12.2109ZM11.7412 15.0801L11.6052 15.0169L11.5417 15.1536L11.6777 15.2168L11.8138 15.28L11.8773 15.1432L11.7412 15.0801ZM11.6777 15.2168L11.5442 15.1484L11.5237 15.1885L11.6572 15.2568L11.7907 15.3252L11.8112 15.2852L11.6777 15.2168ZM11.6572 15.2568L11.5275 15.1816C11.4544 15.3075 11.2953 15.3603 11.1595 15.2989L11.0977 15.4355L11.0359 15.5722C11.3131 15.6976 11.6373 15.5902 11.787 15.3321L11.6572 15.2568ZM11.0977 15.4355L11.1596 15.2989C11.0242 15.2375 10.9591 15.0835 11.0055 14.9452L10.8633 14.8975L10.7211 14.8498C10.6263 15.1321 10.7584 15.4464 11.0357 15.5722L11.0977 15.4355ZM10.8633 14.8975L11.0023 14.9537L11.0189 14.9127L10.8799 14.8564L10.7408 14.8002L10.7242 14.8412L10.8633 14.8975ZM10.8799 14.8564L11.0159 14.9198L11.0891 14.7626L10.9531 14.6992L10.8172 14.6359L10.7439 14.7931L10.8799 14.8564Z" fill="url(#paint3_linear_1245_3546)" />
  <defs>
    <radialGradient id="paint0_radial_1245_3546" cx="0" cy="0" r="1" gradientUnits="userSpaceOnUse" gradientTransform="translate(18 0.5) rotate(90) scale(36)">
      <stop stop-color="#879FAC" />
      <stop offset="1" stop-color="#879FAC" stop-opacity="0" />
    </radialGradient>
    <radialGradient id="paint1_radial_1245_3546" cx="0" cy="0" r="1" gradientUnits="userSpaceOnUse" gradientTransform="translate(18 36.5) rotate(-90) scale(36)">
      <stop stop-color="#9BBECA" />
      <stop offset="1" stop-color="#9BBECA" stop-opacity="0" />
    </radialGradient>
    <linearGradient id="paint2_linear_1245_3546" x1="6.07031" y1="9.92574" x2="28.2432" y2="12.1564" gradientUnits="userSpaceOnUse">
      <stop stop-color="#7B7B7B" />
      <stop offset="1" stop-color="#9ABECA" />
    </linearGradient>
    <linearGradient id="paint3_linear_1245_3546" x1="6.07031" y1="9.92574" x2="28.2432" y2="12.1564" gradientUnits="userSpaceOnUse">
      <stop stop-color="#7B7B7B" />
      <stop offset="1" stop-color="#9ABECA" />
    </linearGradient>
  </defs>
</svg>
