<svg width="65" height="65" viewBox="0 0 65 65" fill="none" xmlns="http://www.w3.org/2000/svg">
<rect opacity="0.2" x="0.664062" y="0.648438" width="64" height="64" rx="1.33333" fill="url(#paint0_linear_1220_3359)" fill-opacity="0.6"/>
<path d="M32.8945 16.0151C33.07 15.9881 33.2482 15.9981 33.417 16.0444C35.1444 16.1687 36.8504 16.567 38.4678 17.2368C41.4371 18.4667 43.9761 20.5499 45.7617 23.2222C47.5472 25.8944 48.5 29.0366 48.5 32.2505C48.5 32.9407 47.9402 33.5002 47.25 33.5005C46.5596 33.5005 46 32.9408 46 32.2505C46 30.9753 45.8196 29.7142 45.4756 28.5005H38.2803C38.4286 29.7463 38.502 30.9989 38.502 32.2505C38.502 32.9408 37.9423 33.5005 37.252 33.5005C36.5619 33.5002 36.002 32.9407 36.002 32.2505C36.002 30.9954 35.9199 29.7427 35.7588 28.5005H28.7637C28.5906 29.7386 28.5 30.9912 28.5 32.2505L28.5166 33.2007C28.5496 34.14 28.6342 35.0742 28.7637 36.0005H32.25L32.377 36.0063C33.0075 36.0701 33.4999 36.6032 33.5 37.2505C33.5 37.8979 33.0075 38.4309 32.377 38.4946L32.25 38.5005H29.2344C29.8373 41.0429 30.8041 43.4949 32.1182 45.7749L32.2529 46.0005L32.3779 46.0063C33.008 46.0706 33.5 46.6035 33.5 47.2505C33.5 47.8975 33.008 48.4304 32.3779 48.4946L32.25 48.5005L31.6963 48.4897C31.5545 48.5067 31.4121 48.5 31.2744 48.4692C28.4033 48.2967 25.6229 47.3666 23.2217 45.7622C20.5495 43.9767 18.4663 41.4384 17.2363 38.4692C16.0066 35.5001 15.6855 32.2326 16.3125 29.0806C16.9395 25.9285 18.4863 23.0328 20.7588 20.7603C23.0313 18.4877 25.927 16.94 29.0791 16.313C29.805 16.1686 30.5374 16.076 31.2705 16.0317C31.4135 15.9993 31.5618 15.993 31.709 16.0122C32.1045 15.999 32.4998 15.9995 32.8945 16.0151ZM46.499 36.0493C47.1293 36.1133 47.6211 36.6453 47.6211 37.2925V44.3638L47.6143 44.4917C47.5501 45.1218 47.0182 45.6138 46.3711 45.6138C45.7241 45.6137 45.1921 45.1218 45.1279 44.4917L45.1211 44.3638V40.3101L39.0059 46.4253C38.5177 46.9134 37.7264 46.9134 37.2383 46.4253C36.7502 45.9371 36.7502 45.1458 37.2383 44.6577L43.3535 38.5425H39.2998C38.6096 38.5422 38.0508 37.9827 38.0508 37.2925C38.0508 36.6023 38.6097 36.0427 39.2998 36.0425H46.3711L46.499 36.0493ZM20.0029 38.5005C21.0683 40.5879 22.6518 42.3754 24.6104 43.6841C26.0183 44.6248 27.581 45.29 29.2158 45.6597C28.0606 43.388 27.2062 40.9816 26.6699 38.5005H20.0029ZM19.0215 28.5005C18.9218 28.8522 18.8354 29.2085 18.7637 29.5688C18.3378 31.7102 18.4302 33.9143 19.0215 36.0005H26.2393C26.1244 35.1018 26.0495 34.1962 26.0176 33.2866L26 32.2505C26 30.9923 26.0808 29.74 26.2393 28.5005H19.0215ZM29.2129 18.8413C26.6835 19.4142 24.3637 20.6905 22.5264 22.5278C21.5031 23.5511 20.6559 24.7252 20.0049 26.0005H26.6689C27.2052 23.5198 28.0579 21.1127 29.2129 18.8413ZM32.1182 18.7261C30.804 21.0062 29.8354 23.458 29.2324 26.0005H35.3203C34.7562 23.4824 33.8343 21.0356 32.5195 18.7388L32.3779 18.5024C32.3359 18.5021 32.294 18.5015 32.252 18.5015L32.1182 18.7261ZM35.4258 18.8735C36.57 21.1598 37.3772 23.5561 37.877 26.0005H44.4951C44.2519 25.524 43.9819 25.0597 43.6826 24.6118C42.1718 22.3507 40.0241 20.5871 37.5117 19.5464C36.8327 19.2652 36.1348 19.0418 35.4258 18.8735Z" fill="url(#paint1_linear_1220_3359)"/>
<defs>
<linearGradient id="paint0_linear_1220_3359" x1="0.664062" y1="6.25314" x2="61.0847" y2="11.9403" gradientUnits="userSpaceOnUse">
<stop stop-color="#7B7B7B"/>
<stop offset="1" stop-color="#9ABECA"/>
</linearGradient>
<linearGradient id="paint1_linear_1220_3359" x1="16" y1="18.8467" x2="46.6822" y2="21.7346" gradientUnits="userSpaceOnUse">
<stop stop-color="#7B7B7B"/>
<stop offset="1" stop-color="#9ABECA"/>
</linearGradient>
</defs>
</svg>
