<svg width="64" height="65" viewBox="0 0 64 65" fill="none" xmlns="http://www.w3.org/2000/svg">
<rect opacity="0.2" y="0.648438" width="64" height="64" rx="2" fill="url(#paint0_linear_1217_3186)" fill-opacity="0.6"/>
<path d="M24.3594 33.0243C24.3594 27.5041 26.9041 23.0019 29.997 23.0019L34.3817 23.0019C37.1614 23.0019 39.3929 27.5041 39.3929 33.0243C39.3929 38.5835 37.1614 43.0466 34.3817 43.0466L29.997 43.0466C26.9041 43.0466 24.3594 38.5835 24.3594 33.0243ZM36.1043 39.6014L34.2643 39.6014C33.9902 40.1887 33.677 40.6976 33.2855 41.1674L34.3817 41.1674C34.9298 41.1674 35.5562 40.6193 36.1043 39.6014ZM37.318 35.8431L35.4388 35.8431C35.2822 36.7043 35.0864 37.5656 34.7732 38.3486L36.6524 38.3486C36.9656 37.5656 37.1614 36.7043 37.318 35.8431ZM37.4746 31.4583L35.5954 31.4583C35.6345 32.0064 35.6345 32.5153 35.6345 33.0243C35.6345 33.5724 35.6345 34.0813 35.5954 34.5903L37.4746 34.5903C37.5137 34.1205 37.5137 33.5724 37.5137 33.0243C37.5137 32.5153 37.5137 31.9672 37.4746 31.4583ZM36.6524 27.6999L34.7732 27.6999C35.0864 28.522 35.2822 29.3833 35.4388 30.2055L37.318 30.2055C37.1614 29.3833 36.9656 28.522 36.6524 27.6999ZM34.3817 24.8811L33.2855 24.8811C33.677 25.39 33.9902 25.899 34.2643 26.4471L36.1043 26.4471C35.5562 25.4683 34.9298 24.8811 34.3817 24.8811ZM33.7553 33.0243C33.7553 28.3654 31.7979 24.8811 29.997 24.8811C28.2352 24.8811 26.2386 28.3654 26.2386 33.0243C26.2386 37.6831 28.2352 41.1674 29.997 41.1674C31.7979 41.1674 33.7553 37.6831 33.7553 33.0243Z" fill="url(#paint1_linear_1217_3186)"/>
<path d="M22.1033 34.3397L17.5306 39.2256C17.3349 39.4213 17.1 39.4996 16.8651 39.4996C16.591 39.4996 16.3561 39.4213 16.1604 39.2256L11.5877 34.3397C11.2353 33.9482 11.2353 33.3609 11.6268 33.0086C11.9792 32.6562 12.6056 32.6562 12.9579 33.0477L15.9255 36.2502L15.9255 14.9213C15.9255 14.3732 16.317 13.9818 16.8259 13.9818C17.2957 13.9818 17.8047 14.3732 17.8047 14.9213L17.8047 36.2502L20.7331 33.0477C21.0854 32.6562 21.7118 32.6562 22.0642 33.0086C22.4557 33.3609 22.4557 33.9482 22.1033 34.3397Z" fill="url(#paint2_linear_1217_3186)"/>
<path d="M52.1424 46.1549L47.5697 51.0408C47.374 51.2366 47.1391 51.3149 46.9042 51.3149C46.6301 51.3149 46.3952 51.2366 46.1995 51.0408L41.6267 46.1549C41.2744 45.7634 41.2744 45.1762 41.6659 44.8238C42.0182 44.4715 42.6446 44.4715 42.997 44.863L45.9646 48.0655V26.7366C45.9646 26.1885 46.3561 25.797 46.865 25.797C47.3348 25.797 47.8438 26.1885 47.8438 26.7366V48.0655L50.7722 44.863C51.1245 44.4715 51.7509 44.4715 52.1033 44.8238C52.4948 45.1762 52.4948 45.7634 52.1424 46.1549Z" fill="url(#paint3_linear_1217_3186)"/>
<defs>
<linearGradient id="paint0_linear_1217_3186" x1="-8.64697e-07" y1="6.25314" x2="60.4207" y2="11.9403" gradientUnits="userSpaceOnUse">
<stop stop-color="#7B7B7B"/>
<stop offset="1" stop-color="#9ABECA"/>
</linearGradient>
<linearGradient id="paint1_linear_1217_3186" x1="25.6759" y1="43.0466" x2="28.0347" y2="24.2513" gradientUnits="userSpaceOnUse">
<stop stop-color="#7B7B7B"/>
<stop offset="1" stop-color="#9ABECA"/>
</linearGradient>
<linearGradient id="paint2_linear_1217_3186" x1="11.3281" y1="16.2164" x2="21.8207" y2="16.6435" gradientUnits="userSpaceOnUse">
<stop stop-color="#7B7B7B"/>
<stop offset="1" stop-color="#9ABECA"/>
</linearGradient>
<linearGradient id="paint3_linear_1217_3186" x1="41.3672" y1="28.0317" x2="51.8597" y2="28.4588" gradientUnits="userSpaceOnUse">
<stop stop-color="#7B7B7B"/>
<stop offset="1" stop-color="#9ABECA"/>
</linearGradient>
</defs>
</svg>
