<svg width="18" height="21" viewBox="0 0 18 21" fill="none" xmlns="http://www.w3.org/2000/svg">
<path d="M17.375 9.65918L16.8857 9.66992C15.5107 9.70041 14.2117 9.35776 13.0508 8.70898V14.0918C13.0508 18.8733 7.85152 21.8521 3.72363 19.4824L3.7207 19.4805C-0.406763 17.0727 -0.406763 11.1109 3.7207 8.70312L3.72168 8.70215L3.94727 8.57812C5.08752 7.98061 6.41031 7.75786 7.69727 7.93652L8.12891 7.99609V12.2852L7.47363 12.0713C5.9183 11.5623 4.40534 12.9438 4.74121 14.541L4.78027 14.6885C5.23342 16.1813 7.09096 16.7311 8.27734 15.6553C8.70276 15.2556 8.95703 14.6858 8.95703 14.0918V1.28711H13.0508V1.78711C13.0508 2.002 13.0521 2.16115 13.0752 2.31738L13.1064 2.47461L13.1104 2.49023L13.1133 2.50586C13.2883 3.46821 13.8165 4.31522 14.6191 4.875L14.7832 4.9834L14.793 4.98926L14.8018 4.99512C15.38 5.39076 16.1238 5.61133 16.875 5.61133H17.375V9.65918Z" stroke="white"/>
</svg>
