<svg width="29" height="29" viewBox="0 0 29 29" fill="none" xmlns="http://www.w3.org/2000/svg">
<path d="M23.6667 15.8151C23.6667 21.6484 19.5833 24.5651 14.73 26.2567C14.4759 26.3428 14.1998 26.3387 13.9483 26.2451C9.08333 24.5651 5 21.6484 5 15.8151V7.64839C5 7.33897 5.12292 7.04223 5.34171 6.82343C5.5605 6.60464 5.85725 6.48173 6.16667 6.48173C8.5 6.48173 11.4167 5.08173 13.4467 3.30839C13.6938 3.09722 14.0082 2.9812 14.3333 2.9812C14.6584 2.9812 14.9728 3.09722 15.22 3.30839C17.2617 5.09339 20.1667 6.48173 22.5 6.48173C22.8094 6.48173 23.1062 6.60464 23.325 6.82343C23.5438 7.04223 23.6667 7.33897 23.6667 7.64839V15.8151Z" stroke="#9ABECA" stroke-width="1.45833" stroke-linecap="round" stroke-linejoin="round"/>
<path d="M10.8359 14.6484L13.1693 16.9817L17.8359 12.3151" stroke="#9ABECA" stroke-width="1.45833" stroke-linecap="round" stroke-linejoin="round"/>
</svg>
