<svg width="56" height="56" viewBox="0 0 56 56" fill="none" xmlns="http://www.w3.org/2000/svg">
<rect opacity="0.2" width="56" height="56" rx="1.16667" fill="url(#paint0_linear_1258_16368)" fill-opacity="0.6"/>
<path d="M32.1609 20.3438C42.825 26.8516 42.3328 35.4922 42.3328 36.5312C42.3328 39.5938 39.6531 42 36.3719 42H20.3484C17.0672 42 14.3875 39.5938 14.3875 36.5312C14.3875 35.4375 13.8406 26.9062 24.5594 20.3438L21.4969 15.9141C21.2781 15.5312 21.3328 15.0391 21.4969 14.6562C21.7703 14.2734 22.1531 14 22.6453 14H34.0203C34.5125 14 34.8953 14.2734 35.1141 14.6562C35.3328 15.0391 35.3875 15.5312 35.1688 15.9141L32.1609 20.3438ZM23.5203 15.75L26.5281 20.125H30.1922L33.2 15.75H23.5203ZM40.5828 36.5312L40.6375 36.4219C40.6375 33.1406 39.4891 26.9062 31.3406 21.875H25.3797C17.2313 26.9062 16.0828 33.1406 16.1375 36.3672V36.5312C16.1375 38.6094 17.9969 40.25 20.3484 40.25H36.3719C38.7234 40.25 40.5828 38.6094 40.5828 36.5312ZM28.6063 30.6797C30.1922 31.1172 32.5438 31.8281 32.0516 34.3438C31.8328 35.6562 30.7391 36.5312 29.2078 36.75V37.625C29.2078 38.1172 28.825 38.5 28.3328 38.5C27.8406 38.5 27.4578 38.1172 27.4578 37.625V36.6953C26.7469 36.5859 26.0359 36.3125 25.3797 36.0938L25.1063 35.9844C24.6688 35.8203 24.3953 35.3281 24.5594 34.8906C24.7234 34.4531 25.2156 34.1797 25.7078 34.3438L25.9813 34.4531C26.5281 34.6719 27.1844 34.8906 27.6766 34.9453C28.8797 35.1641 30.1922 34.9453 30.3563 34.0156C30.4656 33.25 30.0828 32.9219 28.0594 32.375L27.6766 32.2656C26.5281 31.9375 24.1219 31.2266 24.5594 28.7109C24.7781 27.3984 25.8719 26.5234 27.4578 26.3047V25.375C27.4578 24.9375 27.8406 24.5 28.3328 24.5C28.825 24.5 29.2078 24.9375 29.2078 25.375L29.2625 26.3594C29.7 26.4141 30.1922 26.5781 30.8484 26.7969C31.2859 26.9609 31.5047 27.4531 31.3953 27.8906C31.2313 28.3828 30.7391 28.6016 30.2469 28.4375C29.9188 28.3281 29.4266 28.1641 28.9891 28.1094C27.7859 27.8906 26.4734 28.1094 26.3641 29.0391C26.2547 29.6406 26.3641 30.0234 28.2234 30.5703L28.6063 30.6797Z" fill="url(#paint1_linear_1258_16368)"/>
<path d="M16.3764 16.9545C16.8381 16.9545 17.2074 17.4624 17.0689 17.8778C16.8842 18.5241 16.7919 19.1705 16.7919 19.9091C16.7919 20.6477 16.8842 21.294 17.0689 21.8942C17.2074 22.3558 16.8381 22.8636 16.3303 22.8636C16.0071 22.8636 15.7301 22.6328 15.6378 22.3097C15.407 21.571 15.3146 20.6939 15.3146 19.9091C15.3146 19.0781 15.407 18.2472 15.6378 17.4624C15.7301 17.1392 16.0533 16.9545 16.3764 16.9545ZM12.7294 14C13.2834 14 13.6065 14.6001 13.3757 15.0156C12.7294 16.4929 12.3601 18.1087 12.3601 19.9091C12.3601 21.6634 12.7294 23.3253 13.3757 24.7564C13.6065 25.218 13.2834 25.8182 12.7294 25.8182C12.4524 25.8182 12.1754 25.6797 12.0369 25.4027C11.2983 23.7408 10.8828 21.8018 10.8828 19.9091C10.8828 17.9702 11.2983 16.1236 12.0369 14.4616C12.1754 14.1847 12.4524 14 12.7294 14ZM39.6892 16.9545C40.0124 16.9545 40.2893 17.1854 40.3817 17.4624C40.6125 18.201 40.751 18.9858 40.751 19.9091C40.751 20.7862 40.6125 21.6172 40.3817 22.3097C40.2893 22.6328 39.9662 22.8636 39.643 22.8636C39.1814 22.8636 38.8121 22.3558 38.9506 21.8942C39.1352 21.2479 39.2737 20.5554 39.2737 19.9091C39.2737 19.2166 39.1352 18.5703 38.9506 17.8778C38.8121 17.4162 39.1814 16.9545 39.6892 16.9545ZM43.9364 14.4616C44.7212 16.1236 45.1828 17.8778 45.1828 19.9091C45.1828 21.8942 44.7212 23.7408 43.9364 25.4027C43.844 25.6797 43.567 25.8182 43.2901 25.8182C42.7361 25.8182 42.4129 25.2642 42.6437 24.8026C43.2901 23.3253 43.7055 21.571 43.7055 19.9091C43.7055 18.201 43.2901 16.5391 42.6437 15.0618C42.4129 14.6001 42.7361 14 43.2901 14C43.567 14 43.844 14.1847 43.9364 14.4616Z" fill="url(#paint2_linear_1258_16368)"/>
<defs>
<linearGradient id="paint0_linear_1258_16368" x1="-7.56609e-07" y1="4.90412" x2="52.8681" y2="9.88034" gradientUnits="userSpaceOnUse">
<stop stop-color="#7B7B7B"/>
<stop offset="1" stop-color="#9ABECA"/>
</linearGradient>
<linearGradient id="paint1_linear_1258_16368" x1="14.3828" y1="16.4521" x2="40.7737" y2="18.932" gradientUnits="userSpaceOnUse">
<stop stop-color="#7B7B7B"/>
<stop offset="1" stop-color="#9ABECA"/>
</linearGradient>
<linearGradient id="paint2_linear_1258_16368" x1="10.8828" y1="15.035" x2="41.2827" y2="23.3396" gradientUnits="userSpaceOnUse">
<stop stop-color="#7B7B7B"/>
<stop offset="1" stop-color="#9ABECA"/>
</linearGradient>
</defs>
</svg>
