<svg width="36" height="36" viewBox="0 0 36 36" fill="none" xmlns="http://www.w3.org/2000/svg">
  <rect width="36" height="36" rx="2" fill="url(#paint0_linear_1225_4161)" />
  <g clip-path="url(#clip0_1225_4161)">
    <path d="M28.7367 26.6167L27.6488 17.503C27.5805 16.9308 27.3035 16.4034 26.8703 16.0207C26.437 15.638 25.8777 15.4265 25.2982 15.4265H22.3454C22.289 15.4265 22.2349 15.4488 22.195 15.4884C22.1552 15.5281 22.1328 15.5818 22.1328 15.6379V19.4076C22.1328 21.6013 20.4381 23.4719 18.2353 23.5964C16.2361 23.7095 14.4661 22.3684 13.9922 20.4969H14.7001C14.7125 20.4969 14.7248 20.4936 14.7355 20.4874C14.7463 20.4812 14.7552 20.4723 14.7614 20.4616C14.7676 20.4509 14.7709 20.4388 14.7709 20.4264C14.7709 20.414 14.7676 20.4019 14.7614 20.3912L13.469 18.1708C13.4629 18.1599 13.454 18.1509 13.4432 18.1446C13.4323 18.1383 13.4201 18.135 13.4075 18.135C13.395 18.135 13.3827 18.1383 13.3719 18.1446C13.3611 18.1509 13.3522 18.1599 13.346 18.1708L12.0576 20.3936C12.0515 20.4043 12.0482 20.4165 12.0483 20.4288C12.0483 20.4412 12.0516 20.4533 12.0578 20.464C12.0641 20.4747 12.073 20.4835 12.0838 20.4897C12.0945 20.4958 12.1067 20.4991 12.1191 20.4991H12.8308C13.3207 23.0004 15.6081 24.8347 18.2179 24.7266C21.0557 24.6091 23.2644 22.2196 23.2644 19.3956V16.5535H25.2974C25.5994 16.5535 25.891 16.6637 26.1168 16.8631C26.3425 17.0626 26.4869 17.3374 26.5226 17.6357L27.6053 26.7131C27.6299 26.9218 27.5438 27.2284 27.3981 27.3808C27.3251 27.4578 27.2369 27.5191 27.139 27.5608C27.0411 27.6024 26.9357 27.6236 26.8292 27.623H9.20596C8.99459 27.623 8.69882 27.5007 8.56373 27.3399C8.49548 27.2589 8.44473 27.1647 8.41464 27.0633C8.38454 26.9619 8.37574 26.8554 8.38878 26.7505L9.47614 17.6357C9.51185 17.3374 9.6563 17.0626 9.88213 16.8631C10.108 16.6637 10.3995 16.5535 10.7015 16.5535H13.6543C13.6822 16.5535 13.7099 16.548 13.7357 16.5374C13.7614 16.5267 13.7849 16.5112 13.8046 16.4915C13.8243 16.4719 13.8399 16.4486 13.8506 16.4229C13.8613 16.3973 13.8667 16.3698 13.8667 16.3421V12.5719C13.8667 10.3835 15.5532 8.5159 17.7503 8.38427C19.7435 8.26487 21.511 9.59174 21.9979 11.4503H21.2986C21.2862 11.4503 21.274 11.4536 21.2632 11.4598C21.2525 11.466 21.2435 11.4749 21.2373 11.4856C21.2311 11.4963 21.2278 11.5084 21.2279 11.5208C21.2279 11.5331 21.2311 11.5453 21.2373 11.556L22.5307 13.7769C22.5368 13.7877 22.5458 13.7968 22.5566 13.803C22.5674 13.8093 22.5797 13.8126 22.5922 13.8126C22.6047 13.8126 22.617 13.8093 22.6278 13.803C22.6386 13.7968 22.6476 13.7877 22.6537 13.7769L23.9419 11.554C23.9481 11.5433 23.9514 11.5312 23.9514 11.5189C23.9514 11.5065 23.9481 11.4944 23.9419 11.4837C23.9357 11.473 23.9268 11.4641 23.916 11.4579C23.9052 11.4518 23.893 11.4485 23.8806 11.4486H23.1618C22.6569 8.96072 20.3717 7.14083 17.7681 7.2551C14.9356 7.37939 12.7345 9.76619 12.7345 12.5853V15.4265H10.7015C10.122 15.4264 9.56258 15.6378 9.12933 16.0206C8.69607 16.4033 8.41908 16.9308 8.35088 17.503L7.26327 26.6167C7.21724 27.0043 7.29159 27.3966 7.47633 27.7409C7.66108 28.0853 7.94736 28.3652 8.29675 28.543C8.57652 28.6866 8.89149 28.75 9.20719 28.75H26.7928C27.1077 28.75 27.4227 28.6866 27.7032 28.543C28.0526 28.3652 28.339 28.0853 28.5237 27.741C28.7085 27.3966 28.7828 27.0043 28.7367 26.6167Z" fill="#212322" />
  </g>
  <defs>
    <linearGradient id="paint0_linear_1225_4161" x1="18" y1="0" x2="18" y2="36" gradientUnits="userSpaceOnUse">
      <stop stop-color="#A7CEDB" />
      <stop offset="1" stop-color="#7EACBB" />
    </linearGradient>
    <clipPath id="clip0_1225_4161">
      <rect x="6" y="6" width="24" height="24" rx="5" fill="white" />
    </clipPath>
  </defs>
</svg>
