<svg width="65" height="65" viewBox="0 0 65 65" fill="none" xmlns="http://www.w3.org/2000/svg">
<rect opacity="0.2" x="0.5" y="0.648438" width="64" height="64" rx="1.33333" fill="url(#paint0_linear_1350_5468)" fill-opacity="0.6"/>
<path d="M44.6641 16.542C47.3102 16.5422 49.4549 18.6869 49.4551 21.333V44.667C49.4549 47.3131 47.3102 49.4578 44.6641 49.458H21.3301C18.684 49.4578 16.5392 47.3131 16.5391 44.667V21.333C16.5392 18.6869 18.684 16.5422 21.3301 16.542H44.6641ZM21.3301 19.458C20.2948 19.4582 19.4553 20.2977 19.4551 21.333V44.667C19.4553 45.7023 20.2948 46.5418 21.3301 46.542H44.6641C45.6993 46.5418 46.5389 45.7023 46.5391 44.667V21.333C46.5389 20.2977 45.6993 19.4582 44.6641 19.458H21.3301ZM40.7256 23.2207C41.8812 23.338 42.783 24.3135 42.7832 25.5C42.783 26.7655 41.7567 27.792 40.4912 27.792C40.4191 27.792 40.3478 27.7878 40.2773 27.7812L37.251 30.8066C37.5902 31.4639 37.7831 32.2094 37.7832 33C37.7831 33.7901 37.5897 34.5344 37.251 35.1914L40.2783 38.2188C40.3484 38.2123 40.4194 38.209 40.4912 38.209L40.7256 38.2207C41.8812 38.338 42.783 39.3135 42.7832 40.5C42.783 41.7655 41.7567 42.792 40.4912 42.792C39.3049 42.7918 38.3293 41.8898 38.2119 40.7344L38.2002 40.5L38.2109 40.2764L35.1904 37.2559C34.5315 37.597 33.7843 37.792 32.9912 37.792C32.1993 37.7919 31.453 37.5981 30.7949 37.2578L27.7725 40.2803C27.7794 40.3526 27.7832 40.4259 27.7832 40.5C27.783 41.7655 26.7567 42.792 25.4912 42.792C24.3049 42.7918 23.3293 41.8898 23.2119 40.7344L23.2002 40.5L23.2119 40.2656C23.3294 39.1103 24.3049 38.2091 25.4912 38.209L25.708 38.2197L28.7324 35.1943C28.393 34.5367 28.2003 33.791 28.2002 33C28.2002 32.2084 28.3925 31.4616 28.7324 30.8037L25.709 27.7803C25.6373 27.787 25.5647 27.792 25.4912 27.792C24.3049 27.7918 23.3293 26.8898 23.2119 25.7344L23.2002 25.5L23.2119 25.2656C23.3294 24.1103 24.3049 23.2091 25.4912 23.209L25.7256 23.2207C26.8812 23.338 27.783 24.3135 27.7832 25.5C27.7832 25.5735 27.7783 25.646 27.7715 25.7178L30.7949 28.7412C31.4529 28.4012 32.1995 28.209 32.9912 28.209C33.7842 28.209 34.5316 28.4022 35.1904 28.7432L38.2109 25.7227L38.2002 25.5L38.2119 25.2656C38.3294 24.1103 39.3049 23.2091 40.4912 23.209L40.7256 23.2207ZM32.9912 31.125C32.5546 31.1251 32.1537 31.2751 31.835 31.5254C31.7911 31.5853 31.7436 31.6441 31.6895 31.6982C31.6352 31.7524 31.5766 31.7999 31.5166 31.8438C31.2665 32.1624 31.1163 32.5636 31.1162 33C31.1163 33.4365 31.2663 33.8376 31.5166 34.1562C31.5766 34.2001 31.6352 34.2476 31.6895 34.3018C31.7424 34.3547 31.7889 34.4122 31.832 34.4707C32.1513 34.7226 32.5531 34.8749 32.9912 34.875C33.4344 34.875 33.8402 34.719 34.1611 34.4619C34.2027 34.4063 34.2483 34.3523 34.2988 34.3018C34.3488 34.2518 34.4021 34.2072 34.457 34.166C34.7122 33.8458 34.8661 33.4413 34.8662 33C34.8661 32.5586 34.7123 32.1534 34.457 31.833C34.4023 31.7919 34.3486 31.748 34.2988 31.6982C34.2479 31.6473 34.2029 31.5922 34.1611 31.5361C33.8403 31.2793 33.4341 31.125 32.9912 31.125Z" fill="url(#paint1_linear_1350_5468)"/>
<defs>
<linearGradient id="paint0_linear_1350_5468" x1="0.499999" y1="6.25314" x2="60.9207" y2="11.9403" gradientUnits="userSpaceOnUse">
<stop stop-color="#7B7B7B"/>
<stop offset="1" stop-color="#9ABECA"/>
</linearGradient>
<linearGradient id="paint1_linear_1350_5468" x1="16.5391" y1="19.4246" x2="47.6142" y2="22.3495" gradientUnits="userSpaceOnUse">
<stop stop-color="#7B7B7B"/>
<stop offset="1" stop-color="#9ABECA"/>
</linearGradient>
</defs>
</svg>
