<svg width="65" height="65" viewBox="0 0 65 65" fill="none" xmlns="http://www.w3.org/2000/svg">
<rect opacity="0.2" x="0.5" y="0.648438" width="64" height="64" rx="1.33333" fill="url(#paint0_linear_1350_5437)" fill-opacity="0.6"/>
<path d="M42.3291 21.2417C42.6211 21.1173 42.9585 21.1381 43.2354 21.3042L54.2031 27.8843C54.504 28.065 54.6883 28.3907 54.6885 28.7417V40.8062C54.6883 41.1571 54.504 41.4829 54.2031 41.6636L43.2354 48.2427C43.2004 48.2637 43.164 48.2818 43.127 48.2984C43.1147 48.3038 43.1023 48.309 43.0898 48.314C43.067 48.3231 43.0439 48.331 43.0205 48.3384C43.0042 48.3435 42.9881 48.3488 42.9717 48.353C42.9369 48.3621 42.9018 48.3702 42.8662 48.3755C42.8604 48.3764 42.8545 48.3767 42.8486 48.3775C42.8146 48.3819 42.7805 48.3843 42.7461 48.3853C42.7357 48.3855 42.7253 48.3853 42.7148 48.3853C42.6852 48.3851 42.6557 48.3832 42.626 48.3804C42.6152 48.3794 42.6045 48.3788 42.5938 48.3775C42.5152 48.3675 42.4373 48.3482 42.3613 48.3189C42.3515 48.3151 42.3417 48.3112 42.332 48.3071C42.2989 48.2931 42.2664 48.2772 42.2344 48.2593C42.2325 48.2582 42.2304 48.2574 42.2285 48.2564C42.2275 48.2558 42.2266 48.255 42.2256 48.2544C42.2195 48.2509 42.213 48.2482 42.207 48.2446L31.2393 41.6636C30.9383 41.4829 30.754 41.1572 30.7539 40.8062V28.7427C30.7539 28.7038 30.7564 28.6652 30.7607 28.6275C30.7627 28.6104 30.7657 28.5935 30.7686 28.5767C30.7722 28.5546 30.7761 28.5328 30.7812 28.5112C30.7848 28.4962 30.7887 28.4812 30.793 28.4663C30.8243 28.3569 30.8733 28.2551 30.9375 28.1646C30.9481 28.1496 30.9593 28.135 30.9707 28.1206C30.9829 28.1052 30.9957 28.0903 31.0088 28.0757C31.0211 28.062 31.0338 28.0487 31.0469 28.0357C31.0703 28.0122 31.0944 27.9893 31.1201 27.9683C31.124 27.9651 31.1278 27.9617 31.1318 27.9585L31.1943 27.9136C31.2014 27.9088 31.2087 27.9045 31.2158 27.8999C31.2236 27.8949 31.2313 27.8891 31.2393 27.8843L42.207 21.3042L42.3291 21.2417ZM32.7539 40.2398L41.7207 45.6206V35.8882L32.7539 30.5073V40.2398ZM43.7207 35.9702V45.6206L52.6885 40.2398V30.5366L43.7207 35.9702ZM23.085 39.811C23.589 39.8625 23.9824 40.2885 23.9824 40.8062C23.9824 41.3238 23.589 41.7499 23.085 41.8013L22.9824 41.8062H20.7891C20.2368 41.8062 19.7891 41.3584 19.7891 40.8062C19.7891 40.2539 20.2368 39.8062 20.7891 39.8062H22.9824L23.085 39.811ZM23.0625 33.231C23.5667 33.2822 23.96 33.7083 23.96 34.2261C23.9598 34.7437 23.5666 35.17 23.0625 35.2212L22.96 35.2261H16.3799C15.8277 35.226 15.38 34.7782 15.3799 34.2261C15.3799 33.6738 15.8277 33.2262 16.3799 33.2261H22.96L23.0625 33.231ZM33.6973 28.7417L42.7891 34.1968L51.7686 28.7554L42.7207 23.3267L33.6973 28.7417ZM23.0693 26.6509C23.5735 26.7022 23.9668 27.1283 23.9668 27.646C23.9666 28.1636 23.5735 28.5899 23.0693 28.6411L22.9668 28.646H12C11.4478 28.646 11.0002 28.1981 11 27.646C11 27.0937 11.4477 26.646 12 26.646H22.9668L23.0693 26.6509Z" fill="url(#paint1_linear_1350_5437)"/>
<defs>
<linearGradient id="paint0_linear_1350_5437" x1="0.499999" y1="6.25314" x2="60.9207" y2="11.9403" gradientUnits="userSpaceOnUse">
<stop stop-color="#7B7B7B"/>
<stop offset="1" stop-color="#9ABECA"/>
</linearGradient>
<linearGradient id="paint1_linear_1350_5437" x1="11" y1="23.5459" x2="51.6823" y2="29.691" gradientUnits="userSpaceOnUse">
<stop stop-color="#7B7B7B"/>
<stop offset="1" stop-color="#9ABECA"/>
</linearGradient>
</defs>
</svg>
