<svg width="64" height="64" viewBox="0 0 64 64" fill="none" xmlns="http://www.w3.org/2000/svg">
<rect opacity="0.2" width="64" height="64" rx="1.33333" fill="url(#paint0_linear_1242_4130)" fill-opacity="0.6"/>
<path d="M38.002 14C40.6492 14 43.2439 14.6286 45.2109 15.8086C47.1664 16.9817 48.5039 18.7219 48.5039 20.75V43.25C48.5036 45.3535 47.0878 47.0655 45.2109 48.1914C43.3114 49.3307 40.7595 50 38.002 50C35.2444 49.9999 32.6925 49.3308 30.793 48.1914C28.9161 47.0655 27.5003 45.3535 27.5 43.25V20.75C27.5 18.722 28.8376 16.9817 30.793 15.8086C32.76 14.6287 35.3548 14.0001 38.002 14ZM46.2539 39.9609C45.9284 40.2254 45.5791 40.4705 45.2109 40.6914C43.3114 41.8307 40.7595 42.5 38.002 42.5C35.2444 42.4999 32.6925 41.8308 30.793 40.6914C30.4251 40.4708 30.0762 40.2261 29.751 39.9619V43.25C29.7513 44.2526 30.4343 45.3522 31.9502 46.2617C33.4444 47.158 35.5821 47.7499 38.002 47.75C40.4217 47.75 42.5585 47.1579 44.0527 46.2617C45.569 45.3522 46.2536 44.2527 46.2539 43.25V39.9609ZM18.9199 23.375C19.5132 23.375 19.9826 23.8693 20.0391 24.3945L20.1152 25.7656C20.6778 25.8359 21.3114 26.0469 22.1553 26.3281C22.7176 26.5392 22.999 27.172 22.8584 27.7344C22.6474 28.3671 22.0138 28.6484 21.3809 28.4375C20.9589 28.2969 20.3261 28.0859 19.7637 28.0156C18.2166 27.7344 16.5293 28.0157 16.3887 29.2109C16.2481 29.9843 16.3884 30.4766 18.7793 31.1797L19.2715 31.3203C21.3109 31.8828 24.3351 32.797 23.7021 36.0312C23.4207 37.7185 22.0139 38.8438 20.0449 39.125V40.25C20.0447 40.8826 19.5527 41.374 18.9199 41.374C18.2872 41.374 17.7952 40.8826 17.7949 40.25V39.0547C16.8807 38.9141 15.966 38.5625 15.1221 38.2812L14.7705 38.1406C14.2081 37.9297 13.8567 37.2967 14.0674 36.7344C14.2783 36.172 14.9111 35.8205 15.5439 36.0312L15.8955 36.1719C16.5988 36.4531 17.4433 36.7344 18.0762 36.8047C19.6231 37.0858 21.3102 36.8043 21.5215 35.6094C21.6621 34.625 21.1702 34.2031 18.5684 33.5L18.0762 33.3594C16.5994 32.9375 13.505 32.0232 14.0674 28.7891C14.3487 27.1016 15.7555 25.9766 17.7949 25.6953V24.5C17.7949 23.9375 18.287 23.375 18.9199 23.375ZM46.2539 32.4619C45.9285 32.7263 45.579 32.9706 45.2109 33.1914C43.3114 34.3308 40.7596 35 38.002 35C35.2444 34.9999 32.6925 34.3308 30.793 33.1914C30.4253 32.9709 30.0761 32.7269 29.751 32.4629V35.75C29.7513 36.7526 30.4343 37.8522 31.9502 38.7617C33.4444 39.658 35.5821 40.2499 38.002 40.25C40.4217 40.25 42.5585 39.6579 44.0527 38.7617C45.569 37.8522 46.2536 36.7527 46.2539 35.75V32.4619ZM29.751 28.25C29.7511 29.2527 30.434 30.3531 31.9502 31.2627C33.4444 32.159 35.5821 32.7499 38.002 32.75C40.4216 32.75 42.5585 32.1588 44.0527 31.2627C45.5692 30.3531 46.2537 29.2528 46.2539 28.25V24.9619C45.9317 25.2241 45.5828 25.4684 45.2109 25.6914C43.2439 26.8714 40.6492 27.5 38.002 27.5C35.3548 27.4999 32.76 26.8713 30.793 25.6914C30.4212 25.4684 30.0731 25.2231 29.751 24.9609V28.25ZM38.002 16.25C35.6758 16.2501 33.4999 16.8077 31.9502 17.7373C30.3892 18.6739 29.751 19.7947 29.751 20.75L29.7588 20.9307C29.8348 21.8443 30.4871 22.8838 31.9502 23.7617C33.4999 24.6913 35.6758 25.2499 38.002 25.25C40.328 25.25 42.5031 24.6913 44.0527 23.7617C45.6139 22.8252 46.2538 21.7054 46.2539 20.75C46.2539 19.7946 45.6141 18.6739 44.0527 17.7373C42.5031 16.8078 40.328 16.25 38.002 16.25Z" fill="url(#paint1_linear_1242_4130)"/>
<defs>
<linearGradient id="paint0_linear_1242_4130" x1="-8.64697e-07" y1="5.6047" x2="60.4207" y2="11.2918" gradientUnits="userSpaceOnUse">
<stop stop-color="#7B7B7B"/>
<stop offset="1" stop-color="#9ABECA"/>
</linearGradient>
<linearGradient id="paint1_linear_1242_4130" x1="14" y1="17.1526" x2="46.5976" y2="20.0934" gradientUnits="userSpaceOnUse">
<stop stop-color="#7B7B7B"/>
<stop offset="1" stop-color="#9ABECA"/>
</linearGradient>
</defs>
</svg>
