<svg width="64" height="65" viewBox="0 0 64 65" fill="none" xmlns="http://www.w3.org/2000/svg">
<rect opacity="0.2" y="0.648438" width="64" height="64" rx="1.33333" fill="url(#paint0_linear_1350_5527)" fill-opacity="0.6"/>
<path d="M40.3281 24.1201C42.8048 24.1202 45.1925 24.984 47.0889 26.5439L47.8389 25.7949L47.918 25.7246C48.3224 25.3947 48.9188 25.4181 49.2959 25.7949C49.6728 26.1719 49.6968 26.7683 49.3672 27.1729L49.2959 27.251L48.5459 28C50.107 29.8967 50.9716 32.2852 50.9717 34.7627L50.959 35.2871C50.8989 36.5058 50.6291 37.7072 50.1611 38.8369C49.6263 40.1279 48.8416 41.3009 47.8535 42.2891C46.8654 43.2771 45.6923 44.0609 44.4014 44.5957C43.1103 45.1305 41.7256 45.4072 40.3281 45.4072C38.9307 45.4071 37.546 45.1305 36.2549 44.5957C34.9639 44.0609 33.7899 43.2772 32.8018 42.2891C31.8138 41.3009 31.0289 40.1279 30.4941 38.8369C29.9593 37.5456 29.6846 36.1603 29.6846 34.7627C29.6847 31.9403 30.8061 29.2331 32.8018 27.2373C34.7976 25.2415 37.5056 24.1203 40.3281 24.1201ZM40.3281 26.1797C38.0521 26.1799 35.8683 27.084 34.2588 28.6934C32.6493 30.3029 31.7452 32.4865 31.7451 34.7627C31.7451 35.8898 31.9672 37.0066 32.3984 38.0479C32.8297 39.0889 33.4621 40.0352 34.2588 40.832C35.0557 41.629 36.0027 42.262 37.0439 42.6934C38.085 43.1245 39.2014 43.3466 40.3281 43.3467C41.4551 43.3466 42.5721 43.1246 43.6133 42.6934C44.6545 42.262 45.6005 41.6289 46.3975 40.832C47.1943 40.0351 47.8265 39.089 48.2578 38.0479C48.6891 37.0065 48.9121 35.8898 48.9121 34.7627L48.9004 34.3369C48.795 32.2158 47.9063 30.2023 46.3975 28.6934C44.7879 27.0841 42.6042 26.1798 40.3281 26.1797ZM25.4141 40.4355C25.9182 40.4869 26.3115 40.913 26.3115 41.4307C26.3113 41.9482 25.9181 42.3745 25.4141 42.4258L25.3115 42.4307H23.0527C22.5006 42.4307 22.053 41.9828 22.0527 41.4307C22.0527 40.8784 22.5004 40.4307 23.0527 40.4307H25.3115L25.4141 40.4355ZM43.1143 30.5312C43.5187 30.2014 44.1151 30.2248 44.4922 30.6016C44.869 30.9785 44.8929 31.575 44.5635 31.9795L44.4922 32.0586L41.0586 35.4912C40.6564 35.8931 40.0047 35.8932 39.6025 35.4912C39.2007 35.089 39.2006 34.4363 39.6025 34.0342L43.0352 30.6016L43.1143 30.5312ZM25.3936 33.6582C25.8978 33.7094 26.291 34.1355 26.291 34.6533C26.2907 35.1708 25.8976 35.5973 25.3936 35.6484L25.291 35.6533H18.5137C17.9617 35.6532 17.514 35.2052 17.5137 34.6533C17.5137 34.1011 17.9615 33.6535 18.5137 33.6533H25.291L25.3936 33.6582ZM25.3984 26.8799C25.9024 26.9313 26.2957 27.3575 26.2959 27.875C26.2958 28.3926 25.9024 28.8187 25.3984 28.8701L25.2959 28.875H14C13.4478 28.875 13.0001 28.4272 13 27.875C13.0002 27.3229 13.4478 26.875 14 26.875H25.2959L25.3984 26.8799ZM43.1855 20.0049C43.7049 20.0577 44.1094 20.497 44.1094 21.0303C44.1092 21.5634 43.7048 22.0019 43.1855 22.0547L43.0801 22.0596H37.5869C37.0183 22.0594 36.5568 21.5989 36.5566 21.0303C36.5566 20.4615 37.0182 20.0002 37.5869 20H43.0801L43.1855 20.0049Z" fill="url(#paint1_linear_1350_5527)"/>
<defs>
<linearGradient id="paint0_linear_1350_5527" x1="-8.64697e-07" y1="6.25314" x2="60.4207" y2="11.9403" gradientUnits="userSpaceOnUse">
<stop stop-color="#7B7B7B"/>
<stop offset="1" stop-color="#9ABECA"/>
</linearGradient>
<linearGradient id="paint1_linear_1350_5527" x1="13" y1="22.225" x2="48.4638" y2="27.2138" gradientUnits="userSpaceOnUse">
<stop stop-color="#7B7B7B"/>
<stop offset="1" stop-color="#9ABECA"/>
</linearGradient>
</defs>
</svg>
