<svg width="65" height="65" viewBox="0 0 65 65" fill="none" xmlns="http://www.w3.org/2000/svg">
<rect opacity="0.2" x="0.5" y="0.648438" width="64" height="64" rx="1.33333" fill="url(#paint0_linear_1350_5387)" fill-opacity="0.6"/>
<g clip-path="url(#clip0_1350_5387)">
<path d="M49.5156 17C49.8955 17.1253 50.1165 17.3427 50.2432 17.7197V48.2793C50.1165 48.6563 49.8955 48.8737 49.5156 48.999H16.2891C16.0158 48.978 15.5093 48.4338 15.5088 48.2217V44.623H15.5V42.4092H15.5088V40.1953H15.5V37.9814H15.5088V29.6494H15.5107V18.9795H15.5088V17.7773C15.5091 17.5653 16.0157 17.0222 16.2891 17H49.5156ZM17.7461 46.8379H48.0586V19.1621H44.6475C43.5884 20.2946 42.6958 22.089 41.6289 23.1494C41.4037 23.3734 41.2647 23.5045 40.9297 23.5645L24.6172 23.4883C23.279 22.2626 22.3295 20.5642 21.1572 19.1621H17.7461V46.8379ZM38.5742 35.623C38.9631 34.9497 40.43 35.5033 40.0938 36.3496C39.1726 38.7255 38.728 41.5854 37.7754 43.9102C37.3629 44.9159 36.1983 45.0562 35.5596 44.21L33.0977 36.3496C32.7726 35.4988 34.2105 34.9507 34.6162 35.624L36.54 42.5215L36.541 42.5195L38.5742 35.623ZM25.4609 36.0391C25.564 35.0133 26.9619 35.2045 27.124 35.7344L27.1709 42.2197C27.3584 43.5838 29.6728 43.6656 29.916 42.3291L29.9912 35.7617C30.315 35.1318 31.07 35.3053 31.6191 35.5459V42.5762C31.2179 45.3747 25.8028 45.7445 25.4688 42.1318C25.3309 40.6367 25.3119 37.5211 25.4609 36.0391ZM32.7109 31.3613C34.2855 31.1362 34.424 33.45 33.0029 33.5498C31.5553 33.6514 31.4144 31.5477 32.7109 31.3613ZM27.1113 31.252C28.7832 30.9306 28.9143 33.6003 27.21 33.4375C25.9413 33.3155 25.8785 31.4893 27.1113 31.252ZM38.1846 31.25C39.7043 30.9172 40.1382 33.1827 38.6914 33.4189C37.174 33.6663 36.8937 31.533 38.1846 31.25ZM32.707 25.8252C34.3733 25.5845 34.4152 28.4128 33.5078 28.9492C31.5769 30.0917 31.0285 26.0674 32.707 25.8252ZM37.0664 25.8271C38.663 25.4717 39.0728 28.2326 38.3232 28.8428C36.5614 30.2781 35.475 26.1821 37.0664 25.8271ZM28.1191 25.8252C30.1811 25.3827 29.7367 29.1312 28.2061 29.1318C26.5072 29.1318 27.0826 26.0486 28.1191 25.8252ZM41.7949 19.1631H24.0098L25.7422 21.3779L39.9561 21.3838C40.1015 21.3981 40.178 21.3501 40.2832 21.2637C40.3866 21.1782 41.8977 19.2412 41.7949 19.1621V19.1631Z" fill="url(#paint1_linear_1350_5387)"/>
</g>
<defs>
<linearGradient id="paint0_linear_1350_5387" x1="0.499999" y1="6.25314" x2="60.9207" y2="11.9403" gradientUnits="userSpaceOnUse">
<stop stop-color="#7B7B7B"/>
<stop offset="1" stop-color="#9ABECA"/>
</linearGradient>
<linearGradient id="paint1_linear_1350_5387" x1="15.5" y1="19.8023" x2="48.2486" y2="23.1491" gradientUnits="userSpaceOnUse">
<stop stop-color="#7B7B7B"/>
<stop offset="1" stop-color="#9ABECA"/>
</linearGradient>
<clipPath id="clip0_1350_5387">
<rect width="34.7429" height="32" fill="white" transform="translate(15.5 17)"/>
</clipPath>
</defs>
</svg>
