<svg width="20" height="21" viewBox="0 0 20 21" fill="none" xmlns="http://www.w3.org/2000/svg">
<path d="M11.6667 8.5498V10.9665H13.8333C14 10.9665 14.0833 11.1331 14.0833 11.2998L13.75 12.8831C13.75 12.9665 13.5833 13.0498 13.5 13.0498H11.6667V19.1331H9.16667V13.1331H7.75C7.58333 13.1331 7.5 13.0498 7.5 12.8831V11.2998C7.5 11.1331 7.58333 11.0498 7.75 11.0498H9.16667V8.2998C9.16667 6.88314 10.25 5.7998 11.6667 5.7998H13.9167C14.0833 5.7998 14.1667 5.88314 14.1667 6.0498V8.0498C14.1667 8.21647 14.0833 8.2998 13.9167 8.2998H11.9167C11.75 8.2998 11.6667 8.38314 11.6667 8.5498Z" stroke="white" stroke-miterlimit="10" stroke-linecap="round"/>
<path d="M12.4974 19.133H7.4974C3.33073 19.133 1.66406 17.4663 1.66406 13.2996V8.29964C1.66406 4.13298 3.33073 2.46631 7.4974 2.46631H12.4974C16.6641 2.46631 18.3307 4.13298 18.3307 8.29964V13.2996C18.3307 17.4663 16.6641 19.133 12.4974 19.133Z" stroke="white" stroke-linecap="round" stroke-linejoin="round"/>
</svg>
