<svg width="29" height="29" viewBox="0 0 29 29" fill="none" xmlns="http://www.w3.org/2000/svg">
<path d="M15.8333 21.6484H5.33333C4.71449 21.6484 4.121 21.4026 3.68342 20.965C3.24583 20.5274 3 19.9339 3 19.3151V9.98177C3 9.36293 3.24583 8.76944 3.68342 8.33185C4.121 7.89427 4.71449 7.64844 5.33333 7.64844H24C24.6188 7.64844 25.2123 7.89427 25.6499 8.33185C26.0875 8.76944 26.3333 9.36293 26.3333 9.98177V15.8151" stroke="#9ABECA" stroke-width="1.45833" stroke-linecap="round" stroke-linejoin="round"/>
<path d="M21.6641 14.6484H21.6757" stroke="#9ABECA" stroke-width="1.45833" stroke-linecap="round" stroke-linejoin="round"/>
<path d="M19.8359 21.6484L22.1693 23.9817L26.8359 19.3151" stroke="#9ABECA" stroke-width="1.45833" stroke-linecap="round" stroke-linejoin="round"/>
<path d="M7.66406 14.6484H7.67573" stroke="#9ABECA" stroke-width="1.45833" stroke-linecap="round" stroke-linejoin="round"/>
<path d="M14.6615 16.9817C15.9501 16.9817 16.9948 15.9371 16.9948 14.6484C16.9948 13.3597 15.9501 12.3151 14.6615 12.3151C13.3728 12.3151 12.3281 13.3597 12.3281 14.6484C12.3281 15.9371 13.3728 16.9817 14.6615 16.9817Z" stroke="#9ABECA" stroke-width="1.45833" stroke-linecap="round" stroke-linejoin="round"/>
</svg>
