<svg width="64" height="64" viewBox="0 0 64 64" fill="none" xmlns="http://www.w3.org/2000/svg">
<rect opacity="0.2" width="64" height="64" rx="1.33333" fill="url(#paint0_linear_1219_5644)" fill-opacity="0.6"/>
<path d="M38.1084 35.333C38.9181 35.3347 39.6974 35.6001 40.3398 36.0781C40.9846 35.6014 41.7663 35.3382 42.5771 35.3398C43.577 35.3418 44.5309 35.7458 45.2373 36.4561L45.3652 36.5918C45.6553 36.914 45.8882 37.2846 46.0527 37.6875C46.2407 38.1477 46.3367 38.6411 46.3359 39.1387C46.3351 39.6364 46.2374 40.1301 46.0479 40.5898C45.8583 41.0496 45.5807 41.4677 45.2295 41.8184L45.2285 41.8174L41.0459 46.0371C40.858 46.2266 40.6018 46.3332 40.335 46.333C40.0681 46.3328 39.8127 46.2258 39.625 46.0361L35.4316 41.7988V41.7979C35.0827 41.4464 34.8067 41.0287 34.6191 40.5693C34.4313 40.1089 34.335 39.6149 34.3359 39.1172C34.3369 38.6196 34.4345 38.1266 34.624 37.667C34.8137 37.2073 35.092 36.789 35.4434 36.4385L35.5791 36.3096C36.2721 35.6825 37.1709 35.3312 38.1084 35.333ZM29.667 34C31.1861 34.0001 32.5805 34.5363 33.6719 35.4268L33.748 35.4951C34.1064 35.8536 34.1418 36.4328 33.8145 36.834C33.4653 37.2613 32.836 37.3252 32.4082 36.9766L32.1182 36.7588C31.4203 36.2797 30.5776 36.0001 29.667 36H24.333C23.1839 36.0001 22.0821 36.457 21.2695 37.2695C20.457 38.0821 20.0001 39.1839 20 40.333V43C20 43.5523 19.5523 44 19 44C18.4477 44 18 43.5523 18 43V40.333C18.0001 38.6534 18.6678 37.0431 19.8555 35.8555C21.0431 34.6678 22.6534 34.0001 24.333 34H29.667ZM38.1045 37.333C37.7016 37.3322 37.3076 37.4726 36.9883 37.7344L36.8564 37.8545C36.6942 38.0164 36.5635 38.2118 36.4736 38.4297C36.3838 38.6476 36.3364 38.8827 36.3359 39.1211C36.3355 39.3595 36.3816 39.5952 36.4707 39.8135C36.5375 39.9771 36.6275 40.1279 36.7363 40.2617L36.8516 40.3896L36.8535 40.3916L40.3359 43.9111L43.8125 40.4062L43.8164 40.4023L43.9316 40.2754C44.0411 40.1419 44.1318 39.9907 44.1992 39.8271C44.2889 39.6093 44.3356 39.374 44.3359 39.1357C44.3363 38.8974 44.2903 38.6616 44.2012 38.4434C44.112 38.2253 43.982 38.0296 43.8203 37.8672H43.8193C43.4813 37.5272 43.0339 37.3408 42.5732 37.3398C42.1125 37.3389 41.6635 37.5236 41.3242 37.8623L41.0488 38.1406C40.8607 38.3306 40.6043 38.4368 40.3369 38.4365C40.0696 38.4362 39.8136 38.3291 39.626 38.1387L39.3467 37.8564V37.8555C39.0092 37.5181 38.5632 37.334 38.1045 37.333ZM27.3115 18.0078C28.8769 18.0855 30.3621 18.742 31.4756 19.8555C32.6631 21.0431 33.331 22.6535 33.3311 24.333L33.3232 24.6475C33.2456 26.2128 32.5891 27.698 31.4756 28.8115C30.3621 29.925 28.8769 30.5815 27.3115 30.6592L26.9971 30.667C25.3176 30.6669 23.7072 29.9991 22.5195 28.8115C21.4061 27.698 20.7495 26.2128 20.6719 24.6475L20.6641 24.333C20.6641 22.6534 21.3319 21.0431 22.5195 19.8555C23.7072 18.6678 25.3175 18.0001 26.9971 18L27.3115 18.0078ZM35.3672 18.9248C35.4957 18.4236 35.9825 18.1085 36.4834 18.1836L36.584 18.2041L36.8379 18.2744C38.0959 18.6529 39.2073 19.415 40.0156 20.4561C40.8778 21.5668 41.3466 22.9337 41.3467 24.3398L41.3408 24.6025C41.2863 25.9154 40.824 27.1812 40.0156 28.2227C39.1534 29.3335 37.9463 30.1258 36.584 30.4746C36.049 30.6115 35.5042 30.2889 35.3672 29.7539C35.2307 29.2192 35.5532 28.6741 36.0879 28.5371C37.0199 28.2985 37.8466 27.7571 38.4365 26.9971C38.9526 26.3322 39.2616 25.5329 39.3311 24.6992L39.3467 24.3398C39.3466 23.3779 39.0263 22.4425 38.4365 21.6826C37.9204 21.0179 37.223 20.5191 36.4326 20.2451L36.0879 20.1416L35.9902 20.1113C35.5146 19.9366 35.2388 19.4263 35.3672 18.9248ZM26.9971 20C25.8479 20.0001 24.7462 20.457 23.9336 21.2695C23.121 22.0821 22.6641 23.1839 22.6641 24.333L22.6689 24.5479C22.722 25.619 23.1716 26.6355 23.9336 27.3975C24.7462 28.2099 25.848 28.6669 26.9971 28.667L27.2119 28.6611C28.2831 28.6081 29.2996 28.1594 30.0615 27.3975C30.8742 26.5848 31.3311 25.4823 31.3311 24.333L31.3252 24.1182C31.272 23.0473 30.8232 22.0313 30.0615 21.2695C29.2996 20.5076 28.2831 20.0579 27.2119 20.0049L26.9971 20Z" fill="url(#paint1_linear_1219_5644)"/>
<defs>
<linearGradient id="paint0_linear_1219_5644" x1="-8.64697e-07" y1="5.6047" x2="60.4207" y2="11.2918" gradientUnits="userSpaceOnUse">
<stop stop-color="#7B7B7B"/>
<stop offset="1" stop-color="#9ABECA"/>
</linearGradient>
<linearGradient id="paint1_linear_1219_5644" x1="18" y1="20.4812" x2="44.7511" y2="22.9994" gradientUnits="userSpaceOnUse">
<stop stop-color="#7B7B7B"/>
<stop offset="1" stop-color="#9ABECA"/>
</linearGradient>
</defs>
</svg>
