<svg width="64" height="64" viewBox="0 0 64 64" fill="none" xmlns="http://www.w3.org/2000/svg">
<rect opacity="0.2" width="64" height="64" rx="1.33333" fill="url(#paint0_linear_1242_4202)" fill-opacity="0.6"/>
<path d="M44.1699 16.3096C46.5859 16.3097 48.5447 18.2686 48.5449 20.6846V44.0186C48.5447 46.4345 46.5859 48.3934 44.1699 48.3936H20.8359C18.4199 48.3934 16.4611 46.4345 16.4609 44.0186V20.6846C16.4611 18.2686 18.4199 16.3097 20.8359 16.3096H44.1699ZM20.8359 18.3936C19.5705 18.3937 18.5451 19.4192 18.5449 20.6846V44.0186C18.5451 45.2839 19.5705 46.3094 20.8359 46.3096H44.1699C45.4353 46.3094 46.4608 45.2839 46.4609 44.0186V20.6846C46.4608 19.4192 45.4353 18.3937 44.1699 18.3936H20.8359ZM40.1924 22.9863C41.1376 23.0825 41.8748 23.881 41.875 24.8516C41.8748 25.8869 41.0354 26.7266 40 26.7266C39.8761 26.7265 39.7549 26.7144 39.6377 26.6914L36.2432 30.0859C36.6439 30.7467 36.8749 31.5223 36.875 32.3516C36.8749 33.1806 36.6438 33.9555 36.2432 34.6162L39.6377 38.0107C39.7549 37.9878 39.8761 37.9766 40 37.9766L40.1924 37.9863C41.1376 38.0825 41.8748 38.881 41.875 39.8516C41.8748 40.8869 41.0354 41.7266 40 41.7266C39.0296 41.7264 38.2311 40.989 38.1348 40.0439L38.125 39.8516L38.1348 39.6602C38.1409 39.5993 38.1503 39.5394 38.1621 39.4805L34.7715 36.0898C34.1093 36.4931 33.332 36.7266 32.5 36.7266C31.669 36.7265 30.8922 36.4942 30.2305 36.0918L26.8389 39.4844C26.8625 39.6031 26.875 39.7259 26.875 39.8516C26.8748 40.8869 26.0354 41.7266 25 41.7266C24.0296 41.7264 23.2311 40.989 23.1348 40.0439L23.125 39.8516L23.1348 39.6602C23.2308 38.7148 24.0293 37.9767 25 37.9766L25.1924 37.9863C25.2511 37.9923 25.3092 38.0004 25.3662 38.0117L28.7578 34.6191C28.3562 33.9579 28.1251 33.1817 28.125 32.3516C28.1251 31.5211 28.3569 30.7445 28.7588 30.083L25.3652 26.6895C25.247 26.7128 25.1251 26.7266 25 26.7266C24.0296 26.7264 23.2311 25.989 23.1348 25.0439L23.125 24.8516L23.1348 24.6602C23.2308 23.7148 24.0293 22.9767 25 22.9766L25.1924 22.9863C26.1376 23.0825 26.8748 23.881 26.875 24.8516C26.875 24.9766 26.8613 25.0986 26.8379 25.2168L30.2305 28.6094C30.8921 28.2072 31.6692 27.9766 32.5 27.9766C33.3321 27.9766 34.1102 28.208 34.7725 28.6113L38.1611 25.2227C38.1494 25.1641 38.1409 25.1044 38.1348 25.0439L38.125 24.8516L38.1348 24.6602C38.2308 23.7148 39.0293 22.9767 40 22.9766L40.1924 22.9863ZM32.5 30.0605C31.944 30.0606 31.4338 30.2576 31.0371 30.5869C30.9985 30.6458 30.9551 30.7031 30.9033 30.7549C30.8512 30.807 30.7938 30.8509 30.7344 30.8896C30.4058 31.2862 30.2091 31.7963 30.209 32.3516C30.2091 32.9071 30.4075 33.4158 30.7363 33.8125C30.7954 33.8511 30.8514 33.8964 30.9033 33.9482C30.9557 34.0006 31.0012 34.0576 31.04 34.1172C31.4364 34.4455 31.9451 34.6435 32.5 34.6436C33.0537 34.6436 33.5618 34.4471 33.958 34.1201L33.9766 34.1016C34.0131 34.0477 34.0548 33.996 34.1025 33.9482C34.151 33.8998 34.2031 33.8572 34.2578 33.8203C34.5907 33.4225 34.7919 32.9107 34.792 32.3516C34.7919 31.7922 34.5909 31.2796 34.2578 30.8818C34.2032 30.845 34.1508 30.8032 34.1025 30.7549C34.0533 30.7057 34.01 30.6524 33.9727 30.5967C33.5743 30.2622 33.0609 30.0605 32.5 30.0605Z" fill="url(#paint1_linear_1242_4202)"/>
<defs>
<linearGradient id="paint0_linear_1242_4202" x1="-8.64697e-07" y1="5.6047" x2="60.4207" y2="11.2918" gradientUnits="userSpaceOnUse">
<stop stop-color="#7B7B7B"/>
<stop offset="1" stop-color="#9ABECA"/>
</linearGradient>
<linearGradient id="paint1_linear_1242_4202" x1="16.4609" y1="19.1193" x2="46.7506" y2="21.9703" gradientUnits="userSpaceOnUse">
<stop stop-color="#7B7B7B"/>
<stop offset="1" stop-color="#9ABECA"/>
</linearGradient>
</defs>
</svg>
