<svg width="36" height="37" viewBox="0 0 36 37" fill="none" xmlns="http://www.w3.org/2000/svg">
  <g opacity="0.2">
    <rect y="0.5" width="36" height="36" rx="1.33333" fill="url(#paint0_radial_1245_3595)" />
    <rect y="0.5" width="36" height="36" rx="1.33333" fill="url(#paint1_radial_1245_3595)" />
  </g>
  <path d="M20.671 13.5781C27.5265 17.7617 27.21 23.3164 27.21 23.9844C27.21 25.9531 25.4874 27.5 23.378 27.5H13.0772C10.9679 27.5 9.2452 25.9531 9.2452 23.9844C9.2452 23.2812 8.89364 17.7969 15.7843 13.5781L13.8155 10.7305C13.6749 10.4844 13.71 10.168 13.8155 9.92188C13.9913 9.67578 14.2374 9.5 14.5538 9.5H21.8663C22.1827 9.5 22.4288 9.67578 22.5694 9.92188C22.71 10.168 22.7452 10.4844 22.6046 10.7305L20.671 13.5781ZM15.1163 10.625L17.0499 13.4375H19.4054L21.339 10.625H15.1163ZM26.085 23.9844L26.1202 23.9141C26.1202 21.8047 25.3819 17.7969 20.1436 14.5625H16.3116C11.0733 17.7969 10.335 21.8047 10.3702 23.8789V23.9844C10.3702 25.3203 11.5655 26.375 13.0772 26.375H23.378C24.8897 26.375 26.085 25.3203 26.085 23.9844ZM18.3858 20.2227C19.4054 20.5039 20.9171 20.9609 20.6007 22.5781C20.46 23.4219 19.7569 23.9844 18.7725 24.125V24.6875C18.7725 25.0039 18.5265 25.25 18.21 25.25C17.8936 25.25 17.6475 25.0039 17.6475 24.6875V24.0898C17.1905 24.0195 16.7335 23.8438 16.3116 23.7031L16.1358 23.6328C15.8546 23.5273 15.6788 23.2109 15.7843 22.9297C15.8897 22.6484 16.2061 22.4727 16.5225 22.5781L16.6983 22.6484C17.0499 22.7891 17.4718 22.9297 17.7882 22.9648C18.5616 23.1055 19.4054 22.9648 19.5108 22.3672C19.5811 21.875 19.335 21.6641 18.0343 21.3125L17.7882 21.2422C17.0499 21.0312 15.503 20.5742 15.7843 18.957C15.9249 18.1133 16.628 17.5508 17.6475 17.4102V16.8125C17.6475 16.5312 17.8936 16.25 18.21 16.25C18.5265 16.25 18.7725 16.5312 18.7725 16.8125L18.8077 17.4453C19.089 17.4805 19.4054 17.5859 19.8272 17.7266C20.1085 17.832 20.2491 18.1484 20.1788 18.4297C20.0733 18.7461 19.7569 18.8867 19.4405 18.7812C19.2296 18.7109 18.9132 18.6055 18.6319 18.5703C17.8585 18.4297 17.0147 18.5703 16.9444 19.168C16.8741 19.5547 16.9444 19.8008 18.1397 20.1523L18.3858 20.2227Z" fill="url(#paint2_linear_1245_3595)" />
  <path d="M10.5238 11.3994C10.8206 11.3994 11.058 11.7258 10.969 11.9929C10.8502 12.4084 10.7909 12.8239 10.7909 13.2987C10.7909 13.7735 10.8502 14.189 10.969 14.5748C11.058 14.8716 10.8206 15.1981 10.4941 15.1981C10.2864 15.1981 10.1083 15.0497 10.049 14.8419C9.90057 14.3671 9.84121 13.8032 9.84121 13.2987C9.84121 12.7645 9.90057 12.2303 10.049 11.7258C10.1083 11.5181 10.3161 11.3994 10.5238 11.3994ZM8.17928 9.5C8.53541 9.5 8.74315 9.88581 8.59476 10.1529C8.17928 11.1026 7.94186 12.1413 7.94186 13.2987C7.94186 14.4264 8.17928 15.4948 8.59476 16.4148C8.74315 16.7116 8.53541 17.0974 8.17928 17.0974C8.00122 17.0974 7.82315 17.0084 7.73412 16.8303C7.25928 15.7619 6.99219 14.5155 6.99219 13.2987C6.99219 12.0523 7.25928 10.8652 7.73412 9.79677C7.82315 9.61871 8.00122 9.5 8.17928 9.5ZM25.5106 11.3994C25.7183 11.3994 25.8964 11.5477 25.9557 11.7258C26.1041 12.2006 26.1932 12.7052 26.1932 13.2987C26.1932 13.8626 26.1041 14.3968 25.9557 14.8419C25.8964 15.0497 25.6886 15.1981 25.4809 15.1981C25.1841 15.1981 24.9467 14.8716 25.0357 14.5748C25.1545 14.1593 25.2435 13.7142 25.2435 13.2987C25.2435 12.8535 25.1545 12.4381 25.0357 11.9929C24.9467 11.6961 25.1841 11.3994 25.5106 11.3994ZM28.2409 9.79677C28.7454 10.8652 29.0422 11.9929 29.0422 13.2987C29.0422 14.5748 28.7454 15.7619 28.2409 16.8303C28.1815 17.0084 28.0035 17.0974 27.8254 17.0974C27.4693 17.0974 27.2615 16.7413 27.4099 16.4445C27.8254 15.4948 28.0925 14.3671 28.0925 13.2987C28.0925 12.2006 27.8254 11.1323 27.4099 10.1826C27.2615 9.88581 27.4693 9.5 27.8254 9.5C28.0035 9.5 28.1815 9.61871 28.2409 9.79677Z" fill="url(#paint3_linear_1245_3595)" />
  <defs>
    <radialGradient id="paint0_radial_1245_3595" cx="0" cy="0" r="1" gradientUnits="userSpaceOnUse" gradientTransform="translate(18 0.5) rotate(90) scale(36)">
      <stop stop-color="#879FAC" />
      <stop offset="1" stop-color="#879FAC" stop-opacity="0" />
    </radialGradient>
    <radialGradient id="paint1_radial_1245_3595" cx="0" cy="0" r="1" gradientUnits="userSpaceOnUse" gradientTransform="translate(18 36.5) rotate(-90) scale(36)">
      <stop stop-color="#9BBECA" />
      <stop offset="1" stop-color="#9BBECA" stop-opacity="0" />
    </radialGradient>
    <linearGradient id="paint2_linear_1245_3595" x1="9.24219" y1="11.0763" x2="26.2078" y2="12.6706" gradientUnits="userSpaceOnUse">
      <stop stop-color="#7B7B7B" />
      <stop offset="1" stop-color="#9ABECA" />
    </linearGradient>
    <linearGradient id="paint3_linear_1245_3595" x1="6.99219" y1="10.1653" x2="26.535" y2="15.504" gradientUnits="userSpaceOnUse">
      <stop stop-color="#7B7B7B" />
      <stop offset="1" stop-color="#9ABECA" />
    </linearGradient>
  </defs>
</svg>
