<svg width="24" height="25" viewBox="0 0 24 25" fill="none" xmlns="http://www.w3.org/2000/svg">
<path d="M2.5005 17.7998C1.80192 14.5031 1.80192 11.0965 2.5005 7.7998C2.59228 7.46501 2.76963 7.15988 3.0151 6.91441C3.26057 6.66894 3.5657 6.49159 3.9005 6.3998C9.26394 5.51126 14.737 5.51126 20.1005 6.3998C20.4353 6.49159 20.7404 6.66894 20.9859 6.91441C21.2314 7.15988 21.4087 7.46501 21.5005 7.7998C22.1991 11.0965 22.1991 14.5031 21.5005 17.7998C21.4087 18.1346 21.2314 18.4397 20.9859 18.6852C20.7404 18.9307 20.4353 19.108 20.1005 19.1998C14.7371 20.0885 9.26393 20.0885 3.9005 19.1998C3.5657 19.108 3.26057 18.9307 3.0151 18.6852C2.76963 18.4397 2.59228 18.1346 2.5005 17.7998Z" stroke="white" stroke-linecap="round" stroke-linejoin="round"/>
<path d="M10 15.7998L15 12.7998L10 9.7998V15.7998Z" stroke="white" stroke-linecap="round" stroke-linejoin="round"/>
</svg>
