<svg width="49" height="48" viewBox="0 0 49 48" fill="none" xmlns="http://www.w3.org/2000/svg">
  <rect x="0.335938" width="48" height="48" rx="4" fill="#9ABECA" fill-opacity="0.2" />
  <path d="M24.3585 18.7793C27.2062 18.7793 29.5566 21.1297 29.5566 23.9774C29.5566 26.8703 27.2062 29.1755 24.3585 29.1755C21.4657 29.1755 19.1604 26.8703 19.1604 23.9774C19.1604 21.1297 21.4657 18.7793 24.3585 18.7793ZM24.3585 27.3675C26.2118 27.3675 27.7034 25.8758 27.7034 23.9774C27.7034 22.1242 26.2118 20.6325 24.3585 20.6325C22.4601 20.6325 20.9685 22.1242 20.9685 23.9774C20.9685 25.8758 22.5053 27.3675 24.3585 27.3675ZM30.9579 18.5985C30.9579 17.9205 30.4155 17.3781 29.7374 17.3781C29.0594 17.3781 28.517 17.9205 28.517 18.5985C28.517 19.2765 29.0594 19.8189 29.7374 19.8189C30.4155 19.8189 30.9579 19.2765 30.9579 18.5985ZM34.3931 19.8189C34.4835 21.4914 34.4835 26.5086 34.3931 28.1811C34.3027 29.8083 33.9411 31.2095 32.7659 32.43C31.5907 33.6052 30.1443 33.9668 28.517 34.0572C26.8446 34.1476 21.8273 34.1476 20.1549 34.0572C18.5276 33.9668 17.1264 33.6052 15.906 32.43C14.7307 31.2095 14.3691 29.8083 14.2787 28.1811C14.1883 26.5086 14.1883 21.4914 14.2787 19.8189C14.3691 18.1917 14.7307 16.7453 15.906 15.57C17.1264 14.3948 18.5276 14.0332 20.1549 13.9428C21.8273 13.8524 26.8446 13.8524 28.517 13.9428C30.1443 14.0332 31.5907 14.3948 32.7659 15.57C33.9411 16.7453 34.3027 18.1917 34.3931 19.8189ZM32.2235 29.9439C32.7659 28.6331 32.6303 25.469 32.6303 23.9774C32.6303 22.531 32.7659 19.3669 32.2235 18.0109C31.8619 17.1521 31.1839 16.4289 30.3251 16.1124C28.969 15.57 25.805 15.7056 24.3585 15.7056C22.8669 15.7056 19.7028 15.57 18.392 16.1124C17.488 16.4741 16.81 17.1521 16.4484 18.0109C15.906 19.3669 16.0416 22.531 16.0416 23.9774C16.0416 25.469 15.906 28.6331 16.4484 29.9439C16.81 30.8479 17.488 31.5259 18.392 31.8876C19.7028 32.43 22.8669 32.2944 24.3585 32.2944C25.805 32.2944 28.969 32.43 30.3251 31.8876C31.1839 31.5259 31.9071 30.8479 32.2235 29.9439Z" fill="#9ABECA" />
  <path d="M20.166 14.1426C21.6235 14.0638 25.6412 14.0542 27.7383 14.1133L28.5059 14.1426C30.0104 14.2262 31.3245 14.5433 32.4102 15.5098L32.624 15.7119C33.6086 16.6965 34.0035 17.8821 34.1465 19.2383L34.1934 19.8301C34.2721 21.2875 34.2817 25.3053 34.2227 27.4023L34.1934 28.1699C34.1099 29.6719 33.7938 30.9493 32.8242 32.0693L32.624 32.2881C31.6394 33.2727 30.4538 33.6676 29.0977 33.8105L28.5059 33.8574C27.0484 33.9362 23.0307 33.9458 20.9336 33.8867L20.166 33.8574C18.6641 33.774 17.3866 33.4579 16.2666 32.4883L16.0449 32.2861C15.0606 31.2614 14.6679 30.1036 14.5254 28.7588L14.4785 28.1699C14.3998 26.7125 14.3901 22.6947 14.4492 20.5977L14.4785 19.8301C14.5677 18.2253 14.9226 16.8372 16.0479 15.7119L16.0469 15.7109C17.0722 14.7249 18.2313 14.332 19.5771 14.1895L20.166 14.1426ZM27.3818 15.5059C26.2371 15.4719 25.0727 15.5059 24.3584 15.5059C23.6215 15.5059 22.4463 15.4719 21.3018 15.5059C20.307 15.5354 19.2983 15.616 18.5967 15.8281L18.3174 15.9268C17.4233 16.2845 16.7371 16.9373 16.3398 17.7656L16.2637 17.9336L16.2627 17.9365C15.9765 18.652 15.8756 19.8164 15.8418 20.9541C15.8078 22.0988 15.8418 23.2632 15.8418 23.9775C15.8418 24.7145 15.8078 25.8896 15.8418 27.0342C15.8755 28.1697 15.9763 29.3231 16.2627 30.0176V30.0186C16.6446 30.9731 17.3628 31.6913 18.3174 32.0732V32.0723C19.0118 32.359 20.1656 32.4604 21.3018 32.4941C22.4463 32.5281 23.6215 32.4941 24.3584 32.4941C25.0727 32.4941 26.2371 32.5281 27.3818 32.4941C28.3776 32.4646 29.3936 32.3835 30.1113 32.1719L30.3994 32.0732L30.4023 32.0723C31.3047 31.6923 32.0742 30.9754 32.4121 30.0098L32.4111 30.0088C32.695 29.3134 32.7965 28.1652 32.8301 27.0342C32.8641 25.8896 32.8301 24.7145 32.8301 23.9775C32.8301 23.2632 32.8641 22.0988 32.8301 20.9541C32.8005 19.9584 32.7194 18.9423 32.5078 18.2246L32.4092 17.9365L32.4082 17.9336L32.333 17.7656C31.9385 16.9376 31.256 16.2423 30.3945 15.9248H30.3936C29.6776 15.6403 28.5166 15.5396 27.3818 15.5059ZM24.3584 18.9795C27.0956 18.9795 29.3564 21.2403 29.3564 23.9775C29.3564 26.7587 27.0967 28.9756 24.3584 28.9756C21.5761 28.9755 19.3604 26.7598 19.3604 23.9775C19.3604 21.2393 21.5772 18.9796 24.3584 18.9795ZM24.3584 20.4326C22.3513 20.4327 20.7686 22.0121 20.7686 23.9775C20.7686 25.9881 22.3966 27.5673 24.3584 27.5674C26.3238 27.5674 27.9032 25.9846 27.9033 23.9775C27.9033 22.0138 26.3221 20.4326 24.3584 20.4326ZM29.7373 17.5781C30.3049 17.5781 30.7578 18.0311 30.7578 18.5986C30.7577 19.1661 30.3048 19.6191 29.7373 19.6191C29.1699 19.6191 28.7169 19.1661 28.7168 18.5986C28.7168 18.0311 29.1698 17.5782 29.7373 17.5781Z" stroke="#9ABECA" stroke-opacity="0.2" stroke-width="0.4" />
</svg>
