<svg width="17" height="17" viewBox="0 0 17 17" fill="none" xmlns="http://www.w3.org/2000/svg">
<path d="M8.5026 1.83398C9.82115 1.83398 11.1101 2.22514 12.2064 2.95768C13.3027 3.69021 14.1575 4.7311 14.6621 5.94922C15.1667 7.16739 15.2983 8.50823 15.041 9.80143C14.7838 11.0946 14.1491 12.2825 13.2168 13.2148C12.2845 14.1471 11.0965 14.7818 9.80339 15.0391C8.51018 15.2963 7.16935 15.1647 5.95117 14.6602C4.73305 14.1556 3.69216 13.3007 2.95964 12.2044C2.22709 11.1081 1.83594 9.81919 1.83594 8.50065C1.83594 8.13246 2.13441 7.83398 2.5026 7.83398C2.87079 7.83398 3.16927 8.13246 3.16927 8.50065C3.16927 9.55548 3.48233 10.5865 4.06836 11.4635C4.65437 12.3406 5.48711 13.0241 6.46159 13.4277C7.43608 13.8314 8.50845 13.9375 9.54297 13.7318C10.5775 13.526 11.5282 13.018 12.2741 12.2721C13.02 11.5263 13.5279 10.5756 13.7337 9.54102C13.9395 8.5065 13.8333 7.43412 13.4297 6.45964C13.026 5.48516 12.3425 4.65241 11.4655 4.06641C10.5888 3.48061 9.55829 3.16758 8.50391 3.16732C6.99902 3.17329 5.55466 3.76065 4.47266 4.80664L3.63542 5.64388H5.83594C6.20413 5.64388 6.5026 5.98481 6.5026 6.4056C6.50254 6.82633 6.20409 7.16732 5.83594 7.16732H2.5026C2.13445 7.16732 1.836 6.82633 1.83594 6.4056V2.5957C1.83603 2.175 2.13447 1.83398 2.5026 1.83398C2.87074 1.83398 3.16918 2.175 3.16927 2.5957V4.22461L3.53776 3.85612L3.80013 3.61393C5.09755 2.47534 6.7661 1.84053 8.5 1.83398H8.5026Z" fill="#9ABECA"/>
</svg>
