<svg width="64" height="65" viewBox="0 0 64 65" fill="none" xmlns="http://www.w3.org/2000/svg">
<rect opacity="0.2" y="0.648438" width="64" height="64" rx="1.33333" fill="url(#paint0_linear_1220_3347)" fill-opacity="0.6"/>
<path d="M46.5996 39.3325C46.6224 39.333 46.6452 39.3338 46.668 39.3354L46.7061 39.3374C46.7177 39.3386 46.7296 39.3408 46.7412 39.3423C46.7458 39.3429 46.7503 39.3436 46.7549 39.3442C46.9041 39.3654 47.0445 39.4129 47.1719 39.4819C47.1771 39.4848 47.1823 39.4878 47.1875 39.4907C47.5694 39.7047 47.8281 40.1126 47.8281 40.5815V48.0815C47.828 48.7718 47.2684 49.3315 46.5781 49.3315C45.8879 49.3315 45.3283 48.7718 45.3281 48.0815V43.5962L39.126 49.7983C38.6379 50.2862 37.8465 50.2862 37.3584 49.7983C36.8705 49.3102 36.8705 48.5189 37.3584 48.0308L43.5586 41.8315H39.0781C38.3879 41.8315 37.8283 41.2718 37.8281 40.5815C37.8281 39.8912 38.3878 39.3316 39.0781 39.3315H46.5781L46.5996 39.3325ZM27.751 16.5132C30.2153 15.842 32.8127 15.8291 35.2832 16.4771C37.754 17.1252 40.0114 18.4118 41.8291 20.2065C43.6468 22.0013 44.9621 24.2421 45.6416 26.7046C46.321 29.167 46.3412 31.7649 45.7012 34.2378C45.5281 34.906 44.846 35.3072 44.1777 35.1343C43.5096 34.9611 43.1083 34.279 43.2812 33.6108C43.8115 31.5621 43.7943 29.4097 43.2314 27.3696C42.6685 25.3295 41.5791 23.4719 40.0732 21.9849C38.5672 20.498 36.6955 19.433 34.6484 18.896C32.6014 18.3591 30.4491 18.3691 28.4072 18.9253C26.3652 19.4816 24.5047 20.5648 23.0127 22.0659C21.521 23.5669 20.4491 25.433 19.9053 27.478C19.3615 29.5235 19.3645 31.6772 19.9141 33.7212C20.4636 35.7651 21.5409 37.6285 23.0371 39.1255L30.1104 46.1968L30.2637 46.3354C30.4235 46.4663 30.603 46.5735 30.7949 46.6519C31.0507 46.7562 31.3254 46.809 31.6016 46.8062C32.2915 46.7992 32.8567 47.3525 32.8643 48.0425C32.8715 48.7327 32.3181 49.2987 31.6279 49.3062C31.0186 49.3126 30.4128 49.1966 29.8486 48.9663C29.2852 48.7361 28.7731 48.3958 28.3428 47.9653L21.2686 40.8931C19.4629 39.0865 18.1633 36.8372 17.5 34.3706C16.8368 31.9038 16.833 29.3051 17.4893 26.8364C18.1456 24.368 19.4387 22.1149 21.2393 20.3032C23.04 18.4914 25.2863 17.1846 27.751 16.5132ZM31.5781 24.3315C33.2357 24.3315 34.825 24.9905 35.9971 26.1626C37.1691 27.3347 37.8281 28.924 37.8281 30.5815C37.8281 32.2391 37.1691 33.8284 35.9971 35.0005C34.825 36.1725 33.2356 36.8315 31.5781 36.8315C29.9206 36.8315 28.3313 36.1725 27.1592 35.0005C25.9871 33.8284 25.3282 32.2391 25.3281 30.5815C25.3281 28.924 25.9872 27.3347 27.1592 26.1626C28.3313 24.9905 29.9206 24.3316 31.5781 24.3315ZM31.5781 26.8315C30.5836 26.8316 29.63 27.2269 28.9268 27.9302C28.2236 28.6334 27.8281 29.5871 27.8281 30.5815C27.8282 31.576 28.2236 32.5297 28.9268 33.2329C29.63 33.9361 30.5836 34.3315 31.5781 34.3315C32.5726 34.3315 33.5262 33.9361 34.2295 33.2329C34.9327 32.5297 35.3281 31.576 35.3281 30.5815C35.3281 29.587 34.9327 28.6334 34.2295 27.9302C33.5262 27.2269 32.5727 26.8315 31.5781 26.8315Z" fill="url(#paint1_linear_1220_3347)"/>
<defs>
<linearGradient id="paint0_linear_1220_3347" x1="-8.64697e-07" y1="6.25314" x2="60.4207" y2="11.9403" gradientUnits="userSpaceOnUse">
<stop stop-color="#7B7B7B"/>
<stop offset="1" stop-color="#9ABECA"/>
</linearGradient>
<linearGradient id="paint1_linear_1220_3347" x1="17" y1="18.9923" x2="46.1517" y2="21.4684" gradientUnits="userSpaceOnUse">
<stop stop-color="#7B7B7B"/>
<stop offset="1" stop-color="#9ABECA"/>
</linearGradient>
</defs>
</svg>
