<svg width="36" height="37" viewBox="0 0 36 37" fill="none" xmlns="http://www.w3.org/2000/svg">
  <rect y="0.5" width="36" height="36" rx="2" fill="url(#paint0_linear_1225_4167)" />
  <g clip-path="url(#clip0_1225_4167)">
    <path d="M24.4292 18.5004C24.4292 14.9199 21.5151 12.0069 17.9334 12.0069C16.6658 12.0055 15.4258 12.3771 14.368 13.0752L14.9212 8.68544L14.9253 8.65354V8.62112C14.926 8.33001 15.0421 8.05103 15.2481 7.84532C15.4542 7.63961 15.7334 7.52395 16.0247 7.52368H18.9273C19.2187 7.52395 19.4982 7.63979 19.7043 7.84577C19.9104 8.05176 20.0263 8.33106 20.0267 8.6224V9.09506H19.1479L20.5393 11.5043L21.9308 9.09506H21.0494V8.62112C21.0488 8.05871 20.825 7.51951 20.4272 7.12184C20.0293 6.72418 19.4899 6.50054 18.9273 6.5L16.0247 6.5C15.468 6.50059 14.9338 6.71958 14.537 7.10987C14.1403 7.50016 13.9126 8.03055 13.903 8.58692L13.2152 14.0417C12.0727 15.2451 11.4363 16.8413 11.4375 18.5004C11.4375 22.0808 14.3516 24.9931 17.9334 24.9931C19.2009 24.9945 20.4409 24.6231 21.4988 23.9251L20.9453 28.3148L20.9412 28.3465V28.3786C20.9409 28.6697 20.8252 28.9489 20.6194 29.1549C20.4136 29.3609 20.1346 29.4769 19.8433 29.4776H16.9392C16.6477 29.4773 16.3683 29.3614 16.1623 29.1553C15.9562 28.9493 15.8403 28.67 15.8401 28.3786V27.9065H16.7201L15.3287 25.4969L13.9372 27.9065H14.8173V28.3789C14.818 28.9412 15.0418 29.4804 15.4395 29.878C15.8373 30.2756 16.3766 30.4993 16.9392 30.5H19.8423C20.3989 30.4993 20.9329 30.2803 21.3296 29.8901C21.7263 29.4998 21.954 28.9696 21.9637 28.4133L22.6515 22.9585C23.7941 21.7554 24.4305 20.1593 24.4292 18.5004ZM12.3855 18.5004C12.3855 15.4424 14.8742 12.9545 17.9334 12.9545C20.9925 12.9545 23.4813 15.4424 23.4813 18.5004C23.4813 21.5584 20.9925 24.046 17.9334 24.046C14.8742 24.046 12.3855 21.5579 12.3855 18.5004Z" fill="#212322" />
    <path d="M20.7809 15.3023C20.7284 15.2547 20.667 15.218 20.6002 15.1943C20.5334 15.1705 20.4626 15.1601 20.3919 15.1637C20.3211 15.1673 20.2517 15.1848 20.1877 15.2153C20.1237 15.2457 20.0663 15.2884 20.0188 15.3411L17.9166 17.6684L16.7343 16.5316C16.6311 16.4325 16.4927 16.3783 16.3496 16.3811C16.2064 16.3839 16.0703 16.4434 15.971 16.5466C15.8718 16.6497 15.8176 16.7881 15.8204 16.9312C15.8232 17.0742 15.8828 17.2104 15.986 17.3096L17.5689 18.8322C17.6695 18.9288 17.8036 18.9827 17.9432 18.9828H17.9621C18.0344 18.9801 18.1055 18.9629 18.1711 18.9322C18.2366 18.9015 18.2954 18.858 18.3438 18.8041L20.819 16.0636C20.9149 15.9575 20.9647 15.8178 20.9576 15.675C20.9505 15.5323 20.8869 15.3982 20.7809 15.3023Z" fill="#212322" />
  </g>
  <defs>
    <linearGradient id="paint0_linear_1225_4167" x1="18" y1="0.5" x2="18" y2="36.5" gradientUnits="userSpaceOnUse">
      <stop stop-color="#A7CEDB" />
      <stop offset="1" stop-color="#7EACBB" />
    </linearGradient>
    <clipPath id="clip0_1225_4167">
      <rect x="6" y="6.5" width="24" height="24" rx="5" fill="white" />
    </clipPath>
  </defs>
</svg>
