<svg width="64" height="64" viewBox="0 0 64 64" fill="none" xmlns="http://www.w3.org/2000/svg">
<rect opacity="0.2" width="64" height="64" rx="1.33333" fill="url(#paint0_linear_1242_4162)" fill-opacity="0.6"/>
<path d="M43.8627 30.1609C44.9386 30.2143 45.9594 30.6659 46.7247 31.4314C47.541 32.2479 48 33.3555 48 34.5102L47.9949 34.7254C47.9417 35.8009 47.49 36.8206 46.7257 37.5861L46.7268 37.5871L36.673 47.6906C36.4761 47.8884 36.2084 48 35.9293 48H31.2092C30.63 48 30.1604 47.5302 30.1603 46.9508V42.2295C30.1603 41.9504 30.2719 41.6825 30.4697 41.4857L40.5706 31.4293C41.3867 30.614 42.493 30.1558 43.6466 30.1557L43.8627 30.1609ZM42.3047 16.0031C42.551 16.0079 42.7974 16.0324 43.0412 16.0809C43.8551 16.2429 44.6025 16.6426 45.1892 17.2295C45.776 17.8164 46.1756 18.564 46.3375 19.3781C46.4994 20.192 46.4163 21.0355 46.0988 21.8023C45.7813 22.569 45.2441 23.2253 44.5542 23.6865C43.8642 24.1476 43.0526 24.3934 42.2228 24.3934H40.125V25.7049C40.1249 26.2843 39.6553 26.7541 39.0761 26.7541C38.4968 26.7541 38.0272 26.2843 38.0271 25.7049V20.1967C38.0271 19.4585 38.2222 18.735 38.5895 18.0984H24.9157C23.9421 18.0984 23.0086 18.4855 22.3201 19.1742C21.6316 19.8628 21.2446 20.7966 21.2446 21.7705V38.0328H25.7024L25.81 38.0379C26.3388 38.0918 26.7513 38.5388 26.7513 39.082C26.7513 39.6251 26.3388 40.0722 25.81 40.126L25.7024 40.1311H18.0978V40.6557L18.1019 40.8381C18.147 41.7456 18.528 42.6065 19.1734 43.252C19.8618 43.9407 20.7954 44.3279 21.769 44.3279H24.9157L25.0233 44.333C25.5521 44.3868 25.9647 44.8339 25.9647 45.377C25.9647 45.9202 25.5521 46.3672 25.0233 46.4211L24.9157 46.4262H21.769C20.239 46.4262 18.772 45.8178 17.6901 44.7357C16.6758 43.721 16.0778 42.3679 16.0072 40.9416L16 40.6557V39.082L16.0051 38.9744C16.059 38.4455 16.5059 38.0328 17.0489 38.0328H19.1467V21.7705C19.1467 20.2401 19.755 18.7728 20.8369 17.6906C21.9188 16.6084 23.3857 16 24.9157 16H42.2228L42.3047 16.0031ZM42.0497 32.917L32.2581 42.665V45.9016H35.493L45.2394 36.1066L45.2415 36.1055L45.391 35.9395C45.7198 35.5382 45.9021 35.0336 45.9022 34.5102L45.8909 34.2869C45.8396 33.7706 45.6115 33.2851 45.2415 32.915C44.8715 32.5449 44.3861 32.3167 43.8699 32.2654L43.6466 32.2541C43.0485 32.2541 42.4747 32.492 42.0517 32.915L42.0507 32.917L41.3101 32.1732L42.0497 32.917ZM32.8901 28.5953C33.4189 28.6491 33.8315 29.0962 33.8315 29.6393C33.8315 30.1825 33.4189 30.6295 32.8901 30.6834L32.7826 30.6885H26.4891C25.9098 30.6885 25.4402 30.2188 25.4402 29.6393C25.4402 29.0599 25.9098 28.5902 26.4891 28.5902H32.7826L32.8901 28.5953ZM32.8901 22.3002C33.4189 22.3541 33.8315 22.8011 33.8315 23.3443C33.8315 23.8874 33.4189 24.3345 32.8901 24.3883L32.7826 24.3934H26.4891C25.9098 24.3934 25.4402 23.9237 25.4402 23.3443C25.4402 22.7648 25.9098 22.2951 26.4891 22.2951H32.7826L32.8901 22.3002ZM42.6325 18.1383C42.2256 18.0574 41.803 18.0994 41.4197 18.2582C41.0365 18.417 40.7088 18.6858 40.4784 19.0307C40.2479 19.3758 40.125 19.7817 40.125 20.1967V22.2951H42.2228C42.6377 22.2951 43.0435 22.1722 43.3885 21.9416C43.7333 21.7111 44.002 21.3833 44.1608 21C44.3196 20.6166 44.3616 20.1939 44.2807 19.7869C44.1997 19.38 43.9993 19.0065 43.706 18.7131C43.4127 18.4197 43.0393 18.2193 42.6325 18.1383Z" fill="url(#paint1_linear_1242_4162)"/>
<defs>
<linearGradient id="paint0_linear_1242_4162" x1="-8.64697e-07" y1="5.6047" x2="60.4207" y2="11.2918" gradientUnits="userSpaceOnUse">
<stop stop-color="#7B7B7B"/>
<stop offset="1" stop-color="#9ABECA"/>
</linearGradient>
<linearGradient id="paint1_linear_1242_4162" x1="16" y1="18.8024" x2="46.2103" y2="21.6459" gradientUnits="userSpaceOnUse">
<stop stop-color="#7B7B7B"/>
<stop offset="1" stop-color="#9ABECA"/>
</linearGradient>
</defs>
</svg>
