<svg width="21" height="21" viewBox="0 0 21 21" fill="none" xmlns="http://www.w3.org/2000/svg">
<path d="M17.8057 16.2978C17.8057 16.5978 17.7391 16.9061 17.5974 17.2061C17.4557 17.5061 17.2724 17.7895 17.0307 18.0561C16.6224 18.5061 16.1724 18.8311 15.6641 19.0395C15.1641 19.2478 14.6224 19.3561 14.0391 19.3561C13.1891 19.3561 12.2807 19.1561 11.3224 18.7478C10.3641 18.3395 9.40573 17.7895 8.45573 17.0978C7.4974 16.3978 6.58906 15.6228 5.7224 14.7645C4.86406 13.8978 4.08906 12.9895 3.3974 12.0395C2.71406 11.0895 2.16406 10.1395 1.76406 9.19779C1.36406 8.24779 1.16406 7.33945 1.16406 6.47279C1.16406 5.90612 1.26406 5.36445 1.46406 4.86445C1.66406 4.35612 1.98073 3.88945 2.4224 3.47279C2.95573 2.94779 3.53906 2.68945 4.15573 2.68945C4.38906 2.68945 4.6224 2.73945 4.83073 2.83945C5.0474 2.93945 5.23906 3.08945 5.38906 3.30612L7.3224 6.03112C7.4724 6.23945 7.58073 6.43112 7.65573 6.61445C7.73073 6.78945 7.7724 6.96445 7.7724 7.12279C7.7724 7.32279 7.71406 7.52279 7.5974 7.71445C7.48906 7.90612 7.33073 8.10612 7.13073 8.30612L6.4974 8.96445C6.40573 9.05612 6.36406 9.16445 6.36406 9.29779C6.36406 9.36445 6.3724 9.42279 6.38906 9.48945C6.41406 9.55612 6.43906 9.60612 6.45573 9.65612C6.60573 9.93112 6.86406 10.2895 7.23073 10.7228C7.60573 11.1561 8.00573 11.5978 8.43906 12.0395C8.88906 12.4811 9.3224 12.8895 9.76406 13.2645C10.1974 13.6311 10.5557 13.8811 10.8391 14.0311C10.8807 14.0478 10.9307 14.0728 10.9891 14.0978C11.0557 14.1228 11.1224 14.1311 11.1974 14.1311C11.3391 14.1311 11.4474 14.0811 11.5391 13.9895L12.1724 13.3645C12.3807 13.1561 12.5807 12.9978 12.7724 12.8978C12.9641 12.7811 13.1557 12.7228 13.3641 12.7228C13.5224 12.7228 13.6891 12.7561 13.8724 12.8311C14.0557 12.9061 14.2474 13.0145 14.4557 13.1561L17.2141 15.1145C17.4307 15.2645 17.5807 15.4395 17.6724 15.6478C17.7557 15.8561 17.8057 16.0645 17.8057 16.2978Z" stroke="#546C83" stroke-width="1.2" stroke-miterlimit="10"/>
<path d="M14.9167 8.52214C14.9167 8.02214 14.525 7.25547 13.9417 6.63047C13.4083 6.05547 12.7 5.60547 12 5.60547" stroke="#546C83" stroke-width="1.2" stroke-linecap="round" stroke-linejoin="round"/>
<path d="M17.8333 8.52279C17.8333 5.29779 15.225 2.68945 12 2.68945" stroke="#546C83" stroke-width="1.2" stroke-linecap="round" stroke-linejoin="round"/>
</svg>
