<svg width="20" height="20" viewBox="0 0 20 20" fill="none" xmlns="http://www.w3.org/2000/svg">
<path fill-rule="evenodd" clip-rule="evenodd" d="M12.4978 6.8276C12.6088 6.77209 12.7198 6.88311 12.7198 6.99412V10.9351C12.7198 10.9798 12.7018 11.0155 12.6731 11.0422C12.6304 11.0818 12.5641 11.1016 12.4978 11.1016H11.8872C11.8779 11.1016 11.8686 11.1001 11.8593 11.0975C11.8408 11.0923 11.8224 11.0831 11.804 11.0739C11.7762 11.06 11.7485 11.0461 11.7207 11.0461L9.94449 8.60382V10.9351C9.94449 11.0461 9.83348 11.1016 9.77797 11.1016H9.11189C9.00088 11.1016 8.94537 11.0461 8.94537 10.9351V6.99412C8.94537 6.9472 8.95529 6.9102 8.97512 6.88311C8.98014 6.87624 8.98581 6.87001 8.99211 6.86442C9.01977 6.83987 9.05969 6.8276 9.11189 6.8276H9.77797C9.79663 6.8276 9.8153 6.8276 9.83185 6.82971C9.86453 6.83388 9.88899 6.84626 9.88899 6.88311L11.7207 9.32541V6.99412C11.7207 6.88311 11.7762 6.8276 11.8872 6.8276H12.4978ZM13.4969 6.77209C13.4522 6.77209 13.4165 6.79009 13.3898 6.81884C13.3854 6.82366 13.3811 6.82879 13.3772 6.83418C13.346 6.87649 13.3304 6.93531 13.3304 6.99412V10.9351C13.3304 10.9645 13.346 11.0095 13.3772 11.0453C13.38 11.0486 13.383 11.0518 13.3861 11.0549C13.4132 11.0819 13.4501 11.1016 13.4969 11.1016H16.0502C16.1058 11.1016 16.2168 11.0461 16.2168 10.9351V10.269C16.2168 10.2135 16.1058 10.1025 16.0502 10.1025H14.3295V9.43642H16.0502C16.1058 9.43642 16.2168 9.38092 16.2168 9.2699V8.60382C16.2168 8.54831 16.1058 8.4373 16.0502 8.4373H14.3295V7.77122H16.0502C16.1058 7.77122 16.2168 7.71571 16.2168 7.6047V6.99412C16.2168 6.88311 16.1058 6.77209 16.0502 6.77209H13.4969ZM6.61408 11.1016C6.7251 11.1016 6.7806 10.9906 6.7806 10.9351V10.269C6.7806 10.2135 6.7251 10.1025 6.61408 10.1025H4.89337V6.99412C4.89337 6.88311 4.83786 6.77209 4.72685 6.77209H4.06077C4.00526 6.77209 3.89425 6.88311 3.89425 6.99412V10.9351C3.89425 10.9629 3.90812 10.9767 3.922 10.9906C3.9289 10.9975 3.93579 11.0044 3.94099 11.013C3.94624 11.0217 3.94975 11.0322 3.94975 11.0461C3.96371 11.0461 3.97416 11.0496 3.98286 11.0549C3.99147 11.0601 3.99836 11.067 4.00526 11.0739C4.01914 11.0878 4.03301 11.1016 4.06077 11.1016H6.61408ZM8.16827 11.1016C8.22378 11.1016 8.33479 11.0461 8.33479 10.9351V6.99412C8.33479 6.88311 8.22378 6.77209 8.16827 6.77209H7.50219C7.39118 6.77209 7.33567 6.88311 7.33567 6.99412V10.9351C7.33567 11.0461 7.39118 11.1016 7.50219 11.1016H8.16827ZM10.3539 19.4238L10.3452 19.4272C10.0419 19.5451 9.7025 19.636 9.36304 19.6051C8.95758 19.5682 8.57857 19.3544 8.37232 18.9606C8.20748 18.646 8.21828 18.3333 8.23178 18.1818C8.24394 18.0454 8.27123 17.9222 8.2883 17.8519L8.31065 17.7076C8.36278 17.3723 8.3973 17.1466 8.41164 16.9701C8.4124 16.9607 8.41307 16.9518 8.41366 16.9433C8.39172 16.9377 8.36695 16.9317 8.33908 16.9255C3.70734 16.3149 0 12.9854 0 8.77034C0 4.0222 4.66645 0.435547 10 0.435547C15.3335 0.435547 20 4.0222 20 8.77034C20 10.6573 19.2715 12.3181 17.8178 13.8981C16.7912 15.1007 15.1752 16.3722 13.7435 17.371C12.3171 18.3659 10.939 19.1829 10.3626 19.4202L10.3539 19.4238ZM17.1049 13.2664C18.437 11.8232 19.0476 10.38 19.0476 8.77034C19.0476 4.71834 14.9956 1.38793 10 1.38793C5.00438 1.38793 0.952382 4.71834 0.952382 8.77034C0.952382 12.3783 4.17178 15.4312 8.50132 15.9862C9.50912 16.1984 9.45249 16.5626 9.25173 17.8539L9.2229 18.04C9.1674 18.262 9.00088 18.9281 10 18.5395C10.9436 18.151 15.2176 15.4867 17.1049 13.2664Z" fill="#546C83"/>
</svg>
