<svg width="65" height="65" viewBox="0 0 65 65" fill="none" xmlns="http://www.w3.org/2000/svg">
<rect opacity="0.2" x="0.5" y="0.648438" width="64" height="64" rx="1.33333" fill="url(#paint0_linear_1350_5418)" fill-opacity="0.6"/>
<path d="M16.9971 39.7998C17.6597 39.7999 18.1973 40.3373 18.1973 41V45L18.2109 45.2764C18.2745 45.9175 18.558 46.5209 19.0176 46.9805C19.5424 47.505 20.2541 47.8006 20.9961 47.8008H24.9971L25.1191 47.8066C25.7243 47.8679 26.1971 48.3787 26.1973 49C26.1971 49.6213 25.7243 50.1321 25.1191 50.1934L24.9971 50.2002H20.9961C19.6173 50.2 18.2953 49.6516 17.3203 48.6768C16.4061 47.7625 15.8665 46.543 15.8027 45.2578L15.7969 45V41C15.7969 40.3373 16.3343 39.7998 16.9971 39.7998ZM48.9971 39.7998C49.6596 39.8 50.1973 40.3374 50.1973 41V45C50.1972 46.3789 49.6489 47.7017 48.6738 48.6768C47.6986 49.6519 46.3752 50.2002 44.9961 50.2002H40.9971C40.3345 50.2002 39.7971 49.6626 39.7969 49C39.7971 48.3374 40.3344 47.8008 40.9971 47.8008H44.9961C45.7385 47.8008 46.4515 47.5053 46.9766 46.9805C47.5016 46.4555 47.7968 45.7424 47.7969 45V41C47.7969 40.3373 48.3344 39.7999 48.9971 39.7998ZM31.0029 23.7998C32.9124 23.7998 34.7435 24.559 36.0938 25.9092C37.444 27.2594 38.2031 29.0905 38.2031 31L38.1953 31.3535C38.1547 32.1781 37.9709 32.9905 37.6543 33.7549C37.4465 34.2565 37.1814 34.7306 36.8682 35.1709L41.8486 40.1523L41.9307 40.2422C42.3152 40.7135 42.2879 41.4092 41.8486 41.8486C41.4092 42.288 40.7135 42.3153 40.2422 41.9307L40.1514 41.8486L35.1699 36.8672C34.7306 37.1793 34.2581 37.4442 33.7578 37.6514C32.8844 38.0131 31.9483 38.2002 31.0029 38.2002C30.0575 38.2002 29.1215 38.0132 28.248 37.6514C27.3745 37.2895 26.5807 36.7594 25.9121 36.0908C25.2436 35.4223 24.7134 34.6284 24.3516 33.7549C24.035 32.9906 23.8521 32.178 23.8115 31.3535L23.8027 31C23.8027 29.0905 24.5619 27.2594 25.9121 25.9092C27.2623 24.559 29.0934 23.7999 31.0029 23.7998ZM31.0029 26.2002C29.73 26.2002 28.5095 26.7063 27.6094 27.6064C26.7093 28.5066 26.2031 29.727 26.2031 31L26.209 31.2354C26.236 31.7849 26.3575 32.3265 26.5684 32.8359C26.8096 33.4182 27.1637 33.9479 27.6094 34.3936C28.0551 34.8393 28.5846 35.1933 29.167 35.4346C29.7491 35.6756 30.3729 35.7998 31.0029 35.7998C31.6331 35.7998 32.2576 35.6757 32.8398 35.4346C33.4221 35.1934 33.9509 34.8392 34.3965 34.3936C34.8422 33.9478 35.1963 33.4183 35.4375 32.8359C35.6785 32.2538 35.8027 31.6301 35.8027 31L35.7969 30.7617C35.7379 29.5755 35.2403 28.4503 34.3965 27.6064C33.4963 26.7063 32.2759 26.2002 31.0029 26.2002ZM25.1191 15.8057C25.7245 15.8669 26.1973 16.3785 26.1973 17C26.1972 17.6215 25.7245 18.1331 25.1191 18.1943L24.9971 18.2002H20.9961C20.2538 18.2004 19.5425 18.4956 19.0176 19.0205C18.4926 19.5455 18.1974 20.2575 18.1973 21V25C18.1971 25.6625 17.6596 26.2001 16.9971 26.2002C16.3345 26.2002 15.7971 25.6626 15.7969 25V21C15.797 19.621 16.3452 18.2983 17.3203 17.3232C18.2953 16.3483 19.6173 15.8 20.9961 15.7998H24.9971L25.1191 15.8057ZM45.2539 15.8057C46.5393 15.8693 47.7595 16.4089 48.6738 17.3232C49.6488 18.2983 50.1972 19.6211 50.1973 21V25C50.1971 25.6624 49.6595 26.2 48.9971 26.2002C48.3345 26.2001 47.7971 25.6625 47.7969 25V21C47.7968 20.2576 47.5014 19.5455 46.9766 19.0205C46.5171 18.561 45.9144 18.2775 45.2734 18.2139L44.9961 18.2002H40.9971C40.3343 18.2002 39.7969 17.6627 39.7969 17C39.7969 16.3373 40.3343 15.7998 40.9971 15.7998H44.9961L45.2539 15.8057Z" fill="url(#paint1_linear_1350_5418)"/>
<defs>
<linearGradient id="paint0_linear_1350_5418" x1="0.499999" y1="6.25314" x2="60.9207" y2="11.9403" gradientUnits="userSpaceOnUse">
<stop stop-color="#7B7B7B"/>
<stop offset="1" stop-color="#9ABECA"/>
</linearGradient>
<linearGradient id="paint1_linear_1350_5418" x1="15.7969" y1="18.8124" x2="48.2733" y2="21.8692" gradientUnits="userSpaceOnUse">
<stop stop-color="#7B7B7B"/>
<stop offset="1" stop-color="#9ABECA"/>
</linearGradient>
</defs>
</svg>
