<svg width="65" height="65" viewBox="0 0 65 65" fill="none" xmlns="http://www.w3.org/2000/svg">
<rect opacity="0.2" x="0.398438" y="0.648438" width="64" height="64" rx="1.33333" fill="url(#paint0_linear_1248_6305)" fill-opacity="0.6"/>
<path d="M17.3984 39.5483C17.9507 39.5483 18.3984 39.9961 18.3984 40.5483V44.2983C18.3986 45.0275 18.6886 45.7271 19.2041 46.2427C19.7197 46.7582 20.4194 47.0482 21.1484 47.0483H24.8975L25 47.0532C25.5042 47.1045 25.8975 47.5306 25.8975 48.0483C25.8972 48.5658 25.504 48.9922 25 49.0435L24.8975 49.0483H21.1484C19.8889 49.0482 18.6797 48.5474 17.7891 47.6567C16.8987 46.7661 16.3986 45.5577 16.3984 44.2983V40.5483C16.3984 39.9962 16.8463 39.5485 17.3984 39.5483ZM47.3984 39.5483C47.9506 39.5484 48.3984 39.9961 48.3984 40.5483V44.2983C48.3983 45.5578 47.8982 46.7661 47.0078 47.6567C46.1172 48.5473 44.9088 49.0482 43.6494 49.0483H39.8994C39.3473 49.0483 38.8997 48.6004 38.8994 48.0483C38.8994 47.4961 39.3471 47.0483 39.8994 47.0483H43.6494C44.3783 47.0482 45.0773 46.7581 45.5928 46.2427C46.1083 45.7271 46.3983 45.0275 46.3984 44.2983V40.5483C46.3984 39.9961 46.8462 39.5484 47.3984 39.5483ZM38.7734 36.5483C39.2912 36.5483 39.7173 36.9416 39.7686 37.4458L39.7793 37.6714C39.8077 37.9575 39.9346 38.227 40.1396 38.4321C40.374 38.6664 40.6921 38.7983 41.0234 38.7983C41.5757 38.7984 42.0234 39.2461 42.0234 39.7983C42.0231 40.3503 41.5754 40.7983 41.0234 40.7983C40.692 40.7984 40.374 40.9302 40.1396 41.1646C39.9349 41.3696 39.8077 41.6384 39.7793 41.9243L39.7734 42.0483L39.7686 42.1499C39.7173 42.6541 39.2912 43.0483 38.7734 43.0483C38.2215 43.0482 37.7738 42.6002 37.7734 42.0483C37.7734 41.7169 37.6415 41.3989 37.4072 41.1646C37.2022 40.9595 36.9335 40.8326 36.6475 40.8042L36.5234 40.7983L36.4219 40.7925C35.9177 40.7414 35.5238 40.3159 35.5234 39.7983C35.5234 39.2462 35.9714 38.7986 36.5234 38.7983L36.6475 38.7915C36.9333 38.7631 37.2022 38.6369 37.4072 38.4321C37.6123 38.2271 37.7391 37.9575 37.7676 37.6714L37.7783 37.4458C37.8295 36.9416 38.2558 36.5484 38.7734 36.5483ZM28.6494 25.2983C29.1671 25.2983 29.5932 25.6917 29.6445 26.1958L29.6494 26.2983L29.6562 26.5835C29.7269 28.0045 30.3233 29.353 31.334 30.3638C32.3449 31.3746 33.6932 31.9711 35.1143 32.0415L35.3994 32.0483C35.9515 32.0486 36.3994 32.4962 36.3994 33.0483C36.3991 33.6002 35.9513 34.0481 35.3994 34.0483C33.8748 34.0484 32.4121 34.6539 31.334 35.7319C30.3233 36.7429 29.7267 38.092 29.6562 39.5132L29.6494 39.7983L29.6445 39.8999C29.5933 40.4042 29.1672 40.7983 28.6494 40.7983C28.0975 40.7982 27.6498 40.3502 27.6494 39.7983C27.6494 38.2734 27.0439 36.8102 25.9658 35.7319C24.955 34.7211 23.6064 34.1257 22.1855 34.0552L21.9004 34.0483L21.7979 34.0435C21.2939 33.9921 20.9007 33.5657 20.9004 33.0483C20.9004 32.4961 21.3481 32.0484 21.9004 32.0483L22.1855 32.0415C23.6064 31.971 24.955 31.3745 25.9658 30.3638C27.0438 29.2856 27.6493 27.823 27.6494 26.2983C27.6494 25.7462 28.0973 25.2985 28.6494 25.2983ZM28.6494 30.1011C28.3067 30.7094 27.8823 31.2753 27.3799 31.7778C26.8773 32.2804 26.3116 32.7055 25.7031 33.0483C26.3115 33.3911 26.8774 33.8154 27.3799 34.3179C27.8823 34.8203 28.3067 35.3863 28.6494 35.9946C28.9921 35.3863 29.4166 34.8204 29.9189 34.3179C30.4214 33.8154 30.9874 33.3911 31.5957 33.0483C30.9874 32.7055 30.4214 32.2803 29.9189 31.7778C29.4166 31.2753 28.9921 30.7094 28.6494 30.1011ZM38.7734 23.0483C39.2911 23.0483 39.7172 23.4417 39.7686 23.9458L39.7734 24.0483L39.7793 24.1724C39.8079 24.4582 39.9348 24.7272 40.1396 24.9321C40.374 25.1664 40.6921 25.2983 41.0234 25.2983C41.5757 25.2984 42.0234 25.7461 42.0234 26.2983C42.0232 26.8504 41.5755 27.2983 41.0234 27.2983C40.692 27.2984 40.374 27.4302 40.1396 27.6646C39.9055 27.8989 39.7734 28.217 39.7734 28.5483L39.7686 28.6509C39.717 29.1547 39.2909 29.5483 38.7734 29.5483C38.256 29.5482 37.8299 29.1547 37.7783 28.6509L37.7734 28.5483L37.7676 28.4243C37.7391 28.1384 37.6121 27.8695 37.4072 27.6646C37.2022 27.4595 36.9335 27.3326 36.6475 27.3042L36.5234 27.2983L36.4219 27.2935C35.9176 27.2424 35.5237 26.816 35.5234 26.2983C35.5234 25.7462 35.9714 25.2986 36.5234 25.2983L36.6475 25.2925C36.9333 25.2641 37.2022 25.137 37.4072 24.9321C37.6123 24.727 37.7392 24.4576 37.7676 24.1714L37.7783 23.9458C37.8295 23.4415 38.2557 23.0484 38.7734 23.0483ZM25 17.0532C25.5042 17.1045 25.8975 17.5306 25.8975 18.0483C25.8973 18.566 25.5041 18.9922 25 19.0435L24.8975 19.0483H21.1484C20.4194 19.0484 19.7197 19.3384 19.2041 19.854C18.6886 20.3697 18.3984 21.0691 18.3984 21.7983V25.5483C18.3982 26.1004 17.9506 26.5483 17.3984 26.5483C16.8465 26.5481 16.3986 26.1003 16.3984 25.5483V21.7983C16.3984 20.5389 16.8988 19.3307 17.7891 18.4399C18.6797 17.5492 19.8889 17.0484 21.1484 17.0483H24.8975L25 17.0532ZM43.6494 17.0483C44.9089 17.0485 46.1172 17.5493 47.0078 18.4399C47.8982 19.3307 48.3984 20.5389 48.3984 21.7983V25.5483C48.3982 26.1004 47.9505 26.5482 47.3984 26.5483C46.8464 26.5482 46.3986 26.1004 46.3984 25.5483V21.7983C46.3984 21.0691 46.1083 20.3697 45.5928 19.854C45.0773 19.3385 44.3784 19.0485 43.6494 19.0483H39.8994C39.3472 19.0483 38.8996 18.6005 38.8994 18.0483C38.8994 17.4961 39.3471 17.0483 39.8994 17.0483H43.6494Z" fill="url(#paint1_linear_1248_6305)"/>
<defs>
<linearGradient id="paint0_linear_1248_6305" x1="0.398437" y1="6.25314" x2="60.8191" y2="11.9403" gradientUnits="userSpaceOnUse">
<stop stop-color="#7B7B7B"/>
<stop offset="1" stop-color="#9ABECA"/>
</linearGradient>
<linearGradient id="paint1_linear_1248_6305" x1="16.3984" y1="19.8507" x2="46.6088" y2="22.6942" gradientUnits="userSpaceOnUse">
<stop stop-color="#7B7B7B"/>
<stop offset="1" stop-color="#9ABECA"/>
</linearGradient>
</defs>
</svg>
