<svg width="21" height="20" viewBox="0 0 21 20" fill="none" xmlns="http://www.w3.org/2000/svg">
<path d="M20.25 10C20.25 10.6562 19.7344 11.125 19.125 11.125H11.625V18.625C11.625 19.2812 11.1094 19.7969 10.5 19.7969C9.84375 19.7969 9.375 19.2812 9.375 18.625V11.125H1.875C1.21875 11.125 0.75 10.6562 0.75 10.0469C0.75 9.39062 1.21875 8.875 1.875 8.875H9.375V1.375C9.375 0.765625 9.84375 0.296875 10.5 0.296875C11.1094 0.296875 11.625 0.765625 11.625 1.375V8.875H19.125C19.7344 8.875 20.25 9.39062 20.25 10Z" fill="#9ABECA"/>
</svg>
