<svg width="64" height="65" viewBox="0 0 64 65" fill="none" xmlns="http://www.w3.org/2000/svg">
<rect opacity="0.2" y="0.648438" width="64" height="64" rx="1.33333" fill="url(#paint0_linear_1220_3487)" fill-opacity="0.6"/>
<path d="M31.4209 15.1006C31.7861 14.9448 32.2093 14.9709 32.5557 15.1787L40.8623 20.1631C41.0447 20.2658 41.2039 20.4152 41.3193 20.6074C41.456 20.8352 41.5111 21.0894 41.4941 21.3359V29.707L49.1855 34.3232C49.3732 34.4261 49.5372 34.5776 49.6553 34.7744C49.7919 35.0021 49.847 35.2556 49.8301 35.5019V44.584C49.83 45.0229 49.6 45.4294 49.2236 45.6553L40.8916 50.6553C40.8886 50.657 40.8848 50.6584 40.8818 50.6601C40.79 50.7141 40.6924 50.7562 40.5908 50.7851C40.585 50.7868 40.579 50.7875 40.5732 50.7891C40.5308 50.8005 40.4878 50.8095 40.4443 50.8164C40.4335 50.8181 40.4229 50.8208 40.4121 50.8223C40.3636 50.8287 40.3148 50.8323 40.2656 50.833C40.2611 50.8331 40.2565 50.833 40.252 50.833C40.2074 50.8332 40.1628 50.8308 40.1182 50.8262C40.1074 50.825 40.0967 50.8237 40.0859 50.8223C39.9886 50.8096 39.892 50.7855 39.7979 50.749C39.786 50.7444 39.7744 50.7393 39.7627 50.7344C39.7476 50.728 39.7317 50.7228 39.7168 50.7158L39.6045 50.6562L31.9141 46.042L24.2275 50.6553C24.2246 50.657 24.2207 50.6584 24.2178 50.6601C24.126 50.7142 24.0283 50.7561 23.9268 50.7851C23.921 50.7868 23.915 50.7875 23.9092 50.7891C23.8673 50.8004 23.8251 50.8094 23.7822 50.8164C23.7705 50.8183 23.7589 50.8207 23.7471 50.8223C23.6989 50.8287 23.6504 50.8322 23.6016 50.833C23.599 50.833 23.5964 50.833 23.5938 50.833C23.5417 50.8335 23.4896 50.8313 23.4375 50.8252L23.4355 50.8242C23.3288 50.8116 23.223 50.7854 23.1201 50.7441C23.1182 50.7434 23.1162 50.743 23.1143 50.7422C23.0938 50.7339 23.0729 50.7263 23.0527 50.7168L22.9775 50.6758C22.9744 50.674 22.9709 50.6727 22.9678 50.6709C22.9654 50.6695 22.9633 50.6674 22.9609 50.666L22.9404 50.6553L14.6064 45.6553C14.2304 45.4293 14.0001 45.0227 14 44.584V35.417C14 35.3674 14.0032 35.3186 14.0088 35.2705C14.0105 35.2557 14.0134 35.2412 14.0156 35.2266C14.0212 35.1902 14.0285 35.1544 14.0371 35.1191C14.0406 35.1051 14.0439 35.091 14.0479 35.0771C14.0588 35.0383 14.0714 35.0001 14.0859 34.9629C14.0882 34.957 14.0904 34.9511 14.0928 34.9453L14.0986 34.9307C14.1302 34.856 14.169 34.7852 14.2139 34.7187L14.249 34.668C14.2539 34.6615 14.2597 34.6558 14.2646 34.6494C14.3231 34.5746 14.3892 34.5061 14.4629 34.4463C14.473 34.4381 14.4838 34.4307 14.4941 34.4228C14.5247 34.3996 14.5562 34.3778 14.5889 34.3574C14.5948 34.3537 14.6004 34.3493 14.6064 34.3457L22.3281 29.7129V21.3008C22.3281 21.2913 22.3289 21.2819 22.3291 21.2725C22.329 21.2653 22.3281 21.2581 22.3281 21.251C22.3281 20.812 22.5582 20.4046 22.9346 20.1787L31.2686 15.1787L31.4209 15.1006ZM33.166 43.8769L38.998 47.376V41.124L33.166 37.626V43.8769ZM16.5 43.876L22.334 47.375V41.124L16.5 37.624V43.876ZM24.834 41.1934V47.375L30.666 43.876V37.6592L24.834 41.1934ZM41.498 41.126V47.375L47.3301 43.876V37.6269L41.498 41.126ZM17.6797 35.417L23.6396 38.9922L29.5137 35.4326L23.583 31.875L17.6797 35.417ZM34.3438 35.417L40.249 38.96L46.1523 35.418L40.2471 31.875L34.3438 35.417ZM33.1621 26.96V33.21L38.9941 29.7109V23.4609L33.1621 26.96ZM24.8281 29.7051L30.6621 33.206V26.958L24.8281 23.458V29.7051ZM26.0078 21.251L31.9131 24.793L37.8164 21.251L31.9111 17.708L26.0078 21.251Z" fill="url(#paint1_linear_1220_3487)"/>
<defs>
<linearGradient id="paint0_linear_1220_3487" x1="-8.64697e-07" y1="6.25314" x2="60.4207" y2="11.9403" gradientUnits="userSpaceOnUse">
<stop stop-color="#7B7B7B"/>
<stop offset="1" stop-color="#9ABECA"/>
</linearGradient>
<linearGradient id="paint1_linear_1220_3487" x1="14" y1="18.1385" x2="47.829" y2="21.3227" gradientUnits="userSpaceOnUse">
<stop stop-color="#7B7B7B"/>
<stop offset="1" stop-color="#9ABECA"/>
</linearGradient>
</defs>
</svg>
