<svg width="65" height="65" viewBox="0 0 65 65" fill="none" xmlns="http://www.w3.org/2000/svg">
<rect opacity="0.2" x="0.398438" y="0.648438" width="64" height="64" rx="2" fill="url(#paint0_linear_1248_6331)" fill-opacity="0.6"/>
<path d="M33.5 18.9814C34.0522 18.9815 34.4999 19.4293 34.5 19.9814C34.5 20.5337 34.0522 20.9814 33.5 20.9814H25.167C24.9903 20.9814 24.8203 21.0518 24.6953 21.1768C24.5703 21.3017 24.5001 21.4717 24.5 21.6484V44.9814C24.5 45.1582 24.5703 45.3281 24.6953 45.4531C24.8203 45.578 24.9903 45.6484 25.167 45.6484H38.5C38.6768 45.6484 38.8467 45.5781 38.9717 45.4531C39.0966 45.3281 39.167 45.1582 39.167 44.9814V28.3145C39.1673 27.7624 39.6149 27.3145 40.167 27.3145C40.7189 27.3147 41.1667 27.7626 41.167 28.3145V44.9814C41.167 45.6886 40.8857 46.3671 40.3857 46.8672C39.8857 47.3673 39.2072 47.6484 38.5 47.6484H25.167C24.4598 47.6484 23.7813 47.3672 23.2812 46.8672C22.7812 46.3671 22.5 45.6886 22.5 44.9814V21.6484C22.5001 20.9413 22.7812 20.2627 23.2812 19.7627C23.7813 19.2627 24.4598 18.9814 25.167 18.9814H33.5ZM31.8281 40.6484C32.3804 40.6485 32.8281 41.0962 32.8281 41.6484V41.665C32.8281 42.2173 32.3804 42.665 31.8281 42.665C31.2758 42.665 30.8281 42.2173 30.8281 41.665V41.6484C30.8281 41.0962 31.2758 40.6484 31.8281 40.6484ZM14.793 24.9414C15.1591 24.5754 15.7381 24.5527 16.1309 24.873L16.207 24.9414L18.207 26.9414L18.2754 27.0176C18.5957 27.4103 18.573 27.9894 18.207 28.3555L16.9141 29.6484L18.207 30.9414C18.5975 31.3319 18.5975 31.965 18.207 32.3555L16.207 34.3555C15.8165 34.746 15.1835 34.7459 14.793 34.3555C14.4024 33.9649 14.4024 33.3319 14.793 32.9414L16.0859 31.6484L14.793 30.3555C14.4024 29.9649 14.4024 29.3319 14.793 28.9414L16.0859 27.6484L14.793 26.3555L14.7246 26.2793C14.4043 25.8865 14.4269 25.3075 14.793 24.9414ZM47.8691 24.873C48.2619 24.5528 48.8409 24.5753 49.207 24.9414C49.5731 25.3075 49.5957 25.8865 49.2754 26.2793L49.207 26.3555L47.9141 27.6484L49.207 28.9414L49.2754 29.0176C49.5957 29.4103 49.573 29.9894 49.207 30.3555L47.9141 31.6484L49.207 32.9414L49.2754 33.0176C49.5957 33.4103 49.573 33.9894 49.207 34.3555C48.8409 34.7216 48.2619 34.7441 47.8691 34.4238L47.793 34.3555L45.793 32.3555C45.4024 31.9649 45.4024 31.3319 45.793 30.9414L47.0859 29.6484L45.793 28.3555C45.4024 27.9649 45.4024 27.3319 45.793 26.9414L47.793 24.9414L47.8691 24.873ZM39.3623 17.6533C40.351 17.7024 41.2889 18.117 41.9922 18.8203C42.7423 19.5705 43.1641 20.5876 43.1641 21.6484L43.1592 21.8467C43.1102 22.8354 42.6955 23.7733 41.9922 24.4766C41.2421 25.2267 40.2249 25.6484 39.1641 25.6484C38.1032 25.6484 37.0861 25.2267 36.3359 24.4766C35.5858 23.7264 35.1641 22.7093 35.1641 21.6484C35.1641 20.5876 35.5858 19.5705 36.3359 18.8203C37.0861 18.0702 38.1032 17.6484 39.1641 17.6484L39.3623 17.6533ZM39.1641 19.6484C38.6336 19.6484 38.1251 19.8593 37.75 20.2344C37.3749 20.6094 37.1641 21.118 37.1641 21.6484C37.1641 22.1789 37.3749 22.6874 37.75 23.0625C38.1251 23.4375 38.6336 23.6484 39.1641 23.6484C39.6945 23.6484 40.2031 23.4376 40.5781 23.0625C40.9532 22.6874 41.1641 22.1789 41.1641 21.6484L41.1543 21.4512C41.1089 20.9932 40.9064 20.5627 40.5781 20.2344C40.2499 19.9061 39.8193 19.7036 39.3613 19.6582L39.1641 19.6484Z" fill="url(#paint1_linear_1248_6331)"/>
<defs>
<linearGradient id="paint0_linear_1248_6331" x1="0.398437" y1="6.25314" x2="60.8191" y2="11.9403" gradientUnits="userSpaceOnUse">
<stop stop-color="#7B7B7B"/>
<stop offset="1" stop-color="#9ABECA"/>
</linearGradient>
<linearGradient id="paint1_linear_1248_6331" x1="14.5" y1="20.2756" x2="47.4378" y2="23.8926" gradientUnits="userSpaceOnUse">
<stop stop-color="#7B7B7B"/>
<stop offset="1" stop-color="#9ABECA"/>
</linearGradient>
</defs>
</svg>
