<svg width="49" height="48" viewBox="0 0 49 48" fill="none" xmlns="http://www.w3.org/2000/svg">
  <rect x="0.664062" width="48" height="48" rx="4" fill="#9ABECA" fill-opacity="0.2" />
  <path fill-rule="evenodd" clip-rule="evenodd" d="M27.1619 20.8042C27.2729 20.7487 27.3839 20.8597 27.3839 20.9707V24.9117C27.3839 24.9564 27.3659 24.9921 27.3372 25.0188C27.2945 25.0584 27.2282 25.0782 27.1619 25.0782H26.5513C26.542 25.0782 26.5327 25.0766 26.5233 25.074C26.5049 25.0689 26.4865 25.0597 26.468 25.0504C26.4403 25.0366 26.4125 25.0227 26.3848 25.0227L24.6086 22.5804V24.9117C24.6086 25.0227 24.4975 25.0782 24.442 25.0782H23.776C23.6649 25.0782 23.6094 25.0227 23.6094 24.9117V20.9707C23.6094 20.9238 23.6193 20.8868 23.6392 20.8597C23.6442 20.8528 23.6499 20.8466 23.6562 20.841C23.6838 20.8164 23.7238 20.8042 23.776 20.8042H24.442C24.4607 20.8042 24.4794 20.8042 24.4959 20.8063C24.5286 20.8104 24.553 20.8228 24.553 20.8597L26.3848 23.302V20.9707C26.3848 20.8597 26.4403 20.8042 26.5513 20.8042H27.1619ZM28.161 20.7487C28.1163 20.7487 28.0806 20.7667 28.0539 20.7954C28.0494 20.8002 28.0452 20.8054 28.0412 20.8107C28.0101 20.8531 27.9945 20.9119 27.9945 20.9707V24.9117C27.9945 24.9411 28.0101 24.9861 28.0412 25.0219C28.0441 25.0251 28.047 25.0283 28.0502 25.0315C28.0772 25.0584 28.1142 25.0782 28.161 25.0782H30.7143C30.7698 25.0782 30.8808 25.0227 30.8808 24.9117V24.2456C30.8808 24.1901 30.7698 24.0791 30.7143 24.0791H28.9936V23.413H30.7143C30.7698 23.413 30.8808 23.3575 30.8808 23.2465V22.5804C30.8808 22.5249 30.7698 22.4139 30.7143 22.4139H28.9936V21.7478H30.7143C30.7698 21.7478 30.8808 21.6923 30.8808 21.5813V20.9707C30.8808 20.8597 30.7698 20.7487 30.7143 20.7487H28.161ZM21.2781 25.0782C21.3892 25.0782 21.4447 24.9672 21.4447 24.9117V24.2456C21.4447 24.1901 21.3892 24.0791 21.2781 24.0791H19.5574V20.9707C19.5574 20.8597 19.5019 20.7487 19.3909 20.7487H18.7248C18.6693 20.7487 18.5583 20.8597 18.5583 20.9707V24.9117C18.5583 24.9394 18.5722 24.9533 18.5861 24.9672C18.593 24.9741 18.5999 24.981 18.605 24.9896C18.6103 24.9983 18.6138 25.0087 18.6138 25.0227C18.6278 25.0227 18.6382 25.0262 18.6469 25.0315C18.6555 25.0366 18.6624 25.0435 18.6693 25.0504C18.6832 25.0643 18.6971 25.0782 18.7248 25.0782H21.2781ZM22.8323 25.0782C22.8878 25.0782 22.9989 25.0227 22.9989 24.9117V20.9707C22.9989 20.8597 22.8878 20.7487 22.8323 20.7487H22.1663C22.0552 20.7487 21.9997 20.8597 21.9997 20.9707V24.9117C21.9997 25.0227 22.0552 25.0782 22.1663 25.0782H22.8323ZM25.018 33.4003L25.0093 33.4037C24.706 33.5217 24.3666 33.6125 24.0271 33.5817C23.6216 33.5448 23.2426 33.331 23.0364 32.9372C22.8715 32.6225 22.8823 32.3099 22.8958 32.1584C22.908 32.022 22.9353 31.8988 22.9524 31.8285L22.9747 31.6842C23.0268 31.3489 23.0614 31.1231 23.0757 30.9466C23.0765 30.9373 23.0771 30.9284 23.0777 30.9199C23.0558 30.9143 23.031 30.9083 23.0031 30.9021C18.3714 30.2915 14.6641 26.962 14.6641 22.7469C14.6641 17.9988 19.3305 14.4121 24.6641 14.4121C29.9976 14.4121 34.6641 17.9988 34.6641 22.7469C34.6641 24.6338 33.9356 26.2946 32.4819 27.8747C31.4553 29.0773 29.8393 30.3488 28.4075 31.3475C26.9812 32.3425 25.6031 33.1594 25.0267 33.3968L25.018 33.4003ZM31.7689 27.243C33.1011 25.7998 33.7117 24.3566 33.7117 22.7469C33.7117 18.6949 29.6597 15.3645 24.6641 15.3645C19.6684 15.3645 15.6164 18.6949 15.6164 22.7469C15.6164 26.3548 18.8358 29.4077 23.1654 29.9628C24.1732 30.175 24.1166 30.5392 23.9158 31.8305L23.887 32.0165C23.8315 32.2386 23.6649 32.9047 24.6641 32.5161C25.6077 32.1276 29.8817 29.4632 31.7689 27.243Z" fill="#9ABECA" />
</svg>
