<svg width="65" height="65" viewBox="0 0 65 65" fill="none" xmlns="http://www.w3.org/2000/svg">
<rect opacity="0.2" x="0.398438" y="0.648438" width="64" height="64" rx="2" fill="url(#paint0_linear_1248_6345)" fill-opacity="0.6"/>
<path d="M46.707 34.7139C46.9064 34.7336 47.1024 34.7832 47.2881 34.8604C47.5346 34.9629 47.7588 35.1127 47.9473 35.3018L48.3535 35.709H48.3545C48.4542 35.8082 48.5894 35.8642 48.7295 35.8643H49.3125L49.5137 35.874C49.9792 35.9202 50.4173 36.1263 50.751 36.46C51.1321 36.8412 51.3466 37.3584 51.3467 37.8975V38.4805C51.3467 38.6197 51.401 38.7549 51.499 38.8545H51.5L51.9072 39.2617L52.042 39.4102C52.1692 39.5645 52.2735 39.7375 52.3506 39.9229C52.4534 40.1701 52.5058 40.4354 52.5059 40.7031C52.5059 40.971 52.4534 41.237 52.3506 41.4844C52.2477 41.7317 52.0971 41.9566 51.9072 42.1455L51.9062 42.1445L51.5 42.5518C51.4016 42.6514 51.3468 42.7866 51.3467 42.9268V43.5088C51.3467 44.048 51.1322 44.566 50.751 44.9473C50.3697 45.3286 49.8518 45.543 49.3125 45.543H48.7305L48.626 45.5527C48.5241 45.5731 48.4293 45.623 48.3545 45.6973L47.9482 46.1025L47.9492 46.1035C47.7603 46.2934 47.5354 46.444 47.2881 46.5469C47.0406 46.6498 46.7748 46.7021 46.5068 46.7021C46.239 46.7021 45.9739 46.6497 45.7266 46.5469C45.4797 46.4442 45.2551 46.2939 45.0664 46.1045L44.6582 45.6963V45.6953C44.5838 45.6221 44.4896 45.573 44.3887 45.5527L44.2842 45.543H43.7012C43.162 45.5429 42.645 45.3284 42.2637 44.9473C41.93 44.6136 41.7239 44.1755 41.6777 43.71L41.668 43.5088V42.9268L41.6572 42.8223C41.6368 42.7203 41.5871 42.6256 41.5127 42.5508V42.5498L41.1055 42.1436L41.1064 42.1426C40.9174 41.9541 40.7666 41.7308 40.6641 41.4844C40.5869 41.2988 40.5373 41.1026 40.5176 40.9033L40.5078 40.7031C40.5079 40.4353 40.5612 40.1701 40.6641 39.9229C40.7668 39.676 40.917 39.4514 41.1064 39.2627H41.1055L41.5146 38.8545C41.5879 38.78 41.637 38.686 41.6572 38.585L41.668 38.4805V37.8975C41.6681 37.3583 41.8824 36.8412 42.2637 36.46C42.645 36.0787 43.162 35.8643 43.7012 35.8643H44.2842L44.3887 35.8535C44.4905 35.8331 44.5854 35.7833 44.6602 35.709L45.0664 35.3018V35.3027C45.2551 35.1133 45.4796 34.963 45.7266 34.8604C45.9739 34.7575 46.239 34.7041 46.5068 34.7041L46.707 34.7139ZM46.5068 36.2041C46.4368 36.2041 46.3674 36.2183 46.3027 36.2451C46.2379 36.2721 46.1784 36.3116 46.1289 36.3613L45.7178 36.7725C45.3371 37.151 44.822 37.3639 44.2852 37.3643H43.7012C43.5598 37.3643 43.4242 37.4206 43.3242 37.5205C43.2243 37.6205 43.1681 37.7561 43.168 37.8975V38.4814C43.1676 39.0182 42.9546 39.5334 42.5762 39.9141L42.165 40.3252C42.1153 40.3747 42.0758 40.4342 42.0488 40.499C42.022 40.5637 42.0079 40.6331 42.0078 40.7031L42.0186 40.8076C42.0254 40.8419 42.0354 40.8758 42.0488 40.9082C42.0624 40.9407 42.0791 40.9719 42.0986 41.001L42.165 41.082L42.167 41.083L42.5752 41.4912L42.5762 41.4932L42.7109 41.6416C43.0051 42.0025 43.1676 42.4562 43.168 42.9258V43.5088L43.1787 43.6133C43.1991 43.7159 43.2492 43.8116 43.3242 43.8867C43.4242 43.9866 43.5599 44.0429 43.7012 44.043H44.2852L44.4854 44.0527C44.8824 44.0923 45.2591 44.2479 45.5684 44.5L45.7178 44.6338L45.7188 44.6357L46.127 45.0439L46.1289 45.0449L46.21 45.1123C46.2389 45.1317 46.2704 45.1486 46.3027 45.1621C46.3674 45.1889 46.4368 45.2021 46.5068 45.2021C46.5771 45.2021 46.647 45.1891 46.7119 45.1621C46.7768 45.1351 46.8362 45.0947 46.8857 45.0449L47.2969 44.6338L47.4453 44.5C47.8063 44.2057 48.2597 44.0432 48.7295 44.043H49.3125C49.4539 44.043 49.5904 43.9867 49.6904 43.8867C49.7904 43.7867 49.8467 43.6502 49.8467 43.5088V42.9258L49.8564 42.7256C49.9025 42.2623 50.1064 41.8262 50.4375 41.4932L50.8486 41.082L50.916 41.001C50.9355 40.9719 50.9523 40.9407 50.9658 40.9082C50.9927 40.8434 51.0059 40.7733 51.0059 40.7031C51.0058 40.6332 50.9926 40.5636 50.9658 40.499C50.9388 40.4342 50.8984 40.3747 50.8486 40.3252L50.8477 40.3232L50.4395 39.915L50.4375 39.9141C50.0586 39.5332 49.8467 39.0168 49.8467 38.4805V37.8975C49.8466 37.7562 49.7902 37.6204 49.6904 37.5205C49.6153 37.4455 49.5196 37.3954 49.417 37.375L49.3125 37.3643H48.7295C48.193 37.3642 47.6768 37.1515 47.2959 36.7725L46.8867 36.3633L46.8857 36.3613C46.8362 36.3116 46.7767 36.2721 46.7119 36.2451C46.6795 36.2316 46.6456 36.2217 46.6113 36.2148L46.5068 36.2041ZM42.4951 17.6484C44.3768 17.6485 46.1811 18.397 47.5117 19.7275C48.8422 21.0581 49.5898 22.8625 49.5898 24.7441V32.7061C49.5898 33.3248 49.0885 33.8262 48.4697 33.8262C47.8511 33.8261 47.3496 33.3247 47.3496 32.7061V24.7441C47.3496 23.4567 46.838 22.2219 45.9277 21.3115C45.0173 20.4011 43.7826 19.8897 42.4951 19.8896H21.5957C20.3082 19.8896 19.0735 20.4012 18.1631 21.3115C17.2527 22.2219 16.7402 23.4566 16.7402 24.7441V36.6777L16.7461 36.918C16.8057 38.1177 17.3097 39.2569 18.1631 40.1104C19.0735 41.0204 20.3084 41.5322 21.5957 41.5322H37.5449L37.6602 41.5381C38.2247 41.5958 38.665 42.0726 38.665 42.6523C38.6648 43.232 38.2246 43.709 37.6602 43.7666L37.5449 43.7725H21.5957C19.7142 43.7725 17.9097 43.0246 16.5791 41.6943C15.3317 40.447 14.5959 38.7828 14.5088 37.0293L14.5 36.6777V24.7441C14.5 22.8624 15.2485 21.0582 16.5791 19.7275C17.9097 18.397 19.714 17.6484 21.5957 17.6484H42.4951ZM28.0049 32.207C30.6131 32.207 32.7471 34.341 32.7471 36.9492C32.7469 37.4826 32.273 37.8975 31.7988 37.8975C31.2654 37.8974 30.8507 37.4826 30.8506 36.9492C30.8506 35.408 29.5461 34.1035 28.0049 34.1035H24.2109C22.6105 34.1036 21.3662 35.408 21.3662 36.9492C21.366 37.4826 20.8911 37.8975 20.417 37.8975C19.8837 37.8973 19.4689 37.4825 19.4688 36.9492C19.4688 34.341 21.5435 32.2072 24.2109 32.207H28.0049ZM43.1807 32.207C43.6548 32.2072 44.1289 32.6811 44.1289 33.1553C44.1288 33.6886 43.6547 34.1033 43.1807 34.1035H35.5928C35.0593 34.1035 34.6446 33.6887 34.6445 33.1553C34.6445 32.681 35.0593 32.207 35.5928 32.207H43.1807ZM26.1084 22.7217C28.1829 22.7219 29.9022 24.4411 29.9023 26.5156C29.9023 28.6496 28.183 30.3094 26.1084 30.3096C23.9744 30.3096 22.3145 28.6497 22.3145 26.5156C22.3146 24.441 23.9744 22.7217 26.1084 22.7217ZM43.1807 28.4131C43.6548 28.4133 44.1289 28.8872 44.1289 29.3613C44.1288 29.8947 43.6548 30.3094 43.1807 30.3096H35.5928C35.0593 30.3096 34.6446 29.8948 34.6445 29.3613C34.6445 28.8871 35.0593 28.4131 35.5928 28.4131H43.1807ZM26.1084 24.6191C25.0415 24.6191 24.2111 25.508 24.2109 26.5156C24.2109 27.5826 25.0414 28.4131 26.1084 28.4131C27.116 28.4129 28.0049 27.5825 28.0049 26.5156C28.0047 25.5081 27.1159 24.6193 26.1084 24.6191ZM43.1807 24.6191C43.6548 24.6193 44.1289 25.0933 44.1289 25.5674C44.1289 26.1008 43.6548 26.5155 43.1807 26.5156H35.5928C35.0593 26.5156 34.6445 26.1009 34.6445 25.5674C34.6445 25.0932 35.0593 24.6191 35.5928 24.6191H43.1807Z" fill="url(#paint1_linear_1248_6345)"/>
<defs>
<linearGradient id="paint0_linear_1248_6345" x1="0.398437" y1="6.25314" x2="60.8191" y2="11.9403" gradientUnits="userSpaceOnUse">
<stop stop-color="#7B7B7B"/>
<stop offset="1" stop-color="#9ABECA"/>
</linearGradient>
<linearGradient id="paint1_linear_1248_6345" x1="14.5" y1="20.1928" x2="50.1576" y2="24.5832" gradientUnits="userSpaceOnUse">
<stop stop-color="#7B7B7B"/>
<stop offset="1" stop-color="#9ABECA"/>
</linearGradient>
</defs>
</svg>
