<svg width="64" height="65" viewBox="0 0 64 65" fill="none" xmlns="http://www.w3.org/2000/svg">
<rect opacity="0.2" y="0.594727" width="64" height="64" rx="1.33333" fill="url(#paint0_linear_1258_17485)" fill-opacity="0.6"/>
<path d="M46.186 32.3687C46.1085 30.794 45.7616 29.2421 45.157 27.7825C44.466 26.1144 43.4528 24.5988 42.176 23.322C40.8993 22.0453 39.3837 21.0321 37.7156 20.3411C36.2559 19.7365 34.704 19.3896 33.1294 19.312L32.4531 19.2949C30.6474 19.2949 28.8589 19.6501 27.1907 20.3411C25.5226 21.0321 24.007 22.0453 22.7302 23.322C21.4535 24.5988 20.4403 26.1144 19.7493 27.7825C19.0583 29.4507 18.7031 31.2392 18.7031 33.0449L18.7202 33.7212C18.7978 35.2958 19.1447 36.8477 19.7493 38.3074C20.4403 39.9755 21.4535 41.4911 22.7302 42.7678C24.007 44.0446 25.5226 45.0578 27.1907 45.7488C28.8589 46.4398 30.6474 46.7949 32.4531 46.7949L33.1294 46.7778C34.704 46.7003 36.2559 46.3534 37.7156 45.7488C39.3837 45.0578 40.8993 44.0446 42.176 42.7678C43.4528 41.4911 44.466 39.9755 45.157 38.3074C45.848 36.6391 46.2031 34.8506 46.2031 33.0449L46.186 32.3687ZM48.6982 33.4453C48.649 35.4427 48.232 37.4152 47.4666 39.2632C46.6499 41.2347 45.4526 43.0264 43.9436 44.5354C42.4347 46.0444 40.6429 47.2417 38.6714 48.0583C36.8234 48.8238 34.8509 49.2408 32.8535 49.29L32.4531 49.2949C30.3193 49.2949 28.2063 48.8749 26.2349 48.0583C24.2633 47.2417 22.4716 46.0444 20.9626 44.5354C19.4537 43.0264 18.2563 41.2347 17.4397 39.2632C16.6743 37.4152 16.2572 35.4427 16.208 33.4453L16.2031 33.0449C16.2031 30.9111 16.6232 28.7981 17.4397 26.8267C18.2563 24.8551 19.4537 23.0634 20.9626 21.5544C22.4716 20.0455 24.2633 18.8481 26.2349 18.0315C28.2063 17.215 30.3193 16.7949 32.4531 16.7949L32.8535 16.7998C34.8509 16.849 36.8234 17.2661 38.6714 18.0315C40.6429 18.8481 42.4347 20.0455 43.9436 21.5544C45.4526 23.0634 46.6499 24.8551 47.4666 26.8267C48.2831 28.7981 48.7031 30.9111 48.7031 33.0449L48.6982 33.4453Z" fill="url(#paint1_linear_1258_17485)"/>
<path d="M36.8257 36.0449C37.3882 33.1699 34.7007 32.3574 32.8882 31.8574L32.4507 31.7324C30.3257 31.1074 30.2007 30.6699 30.3257 29.9824C30.4507 28.9199 31.9507 28.6699 33.3257 28.9199C33.8257 28.9824 34.3882 29.1699 34.7632 29.2949C35.3257 29.4824 35.8882 29.2324 36.0757 28.6699C36.2007 28.1699 35.9507 27.6074 35.4507 27.4199C34.7007 27.1699 34.1382 26.9824 33.6382 26.9199L33.5757 25.7949C33.5757 25.2949 33.1382 24.7949 32.5757 24.7949C32.0132 24.7949 31.5757 25.2949 31.5757 25.7949V26.8574C29.7632 27.1074 28.5132 28.1074 28.2632 29.6074C27.7632 32.4824 30.5132 33.2949 31.8257 33.6699L32.2632 33.7949C34.5757 34.4199 35.0132 34.7949 34.8882 35.6699C34.7007 36.7324 33.2007 36.9824 31.8257 36.7324C31.2632 36.6699 30.5132 36.4199 29.8882 36.1699L29.5757 36.0449C29.0132 35.8574 28.4507 36.1699 28.2632 36.6699C28.0757 37.1699 28.3882 37.7324 28.8882 37.9199L29.2007 38.0449C29.9507 38.2949 30.7632 38.6074 31.5757 38.7324V39.7949C31.5757 40.3574 32.0132 40.7949 32.5757 40.7949C33.1382 40.7949 33.5757 40.3574 33.5757 39.7949V38.7949C35.3257 38.5449 36.5757 37.5449 36.8257 36.0449Z" fill="url(#paint2_linear_1258_17485)"/>
<defs>
<linearGradient id="paint0_linear_1258_17485" x1="-8.64697e-07" y1="6.19943" x2="60.4207" y2="11.8865" gradientUnits="userSpaceOnUse">
<stop stop-color="#7B7B7B"/>
<stop offset="1" stop-color="#9ABECA"/>
</linearGradient>
<linearGradient id="paint1_linear_1258_17485" x1="16.2031" y1="19.6411" x2="46.8855" y2="22.529" gradientUnits="userSpaceOnUse">
<stop stop-color="#7B7B7B"/>
<stop offset="1" stop-color="#9ABECA"/>
</linearGradient>
<linearGradient id="paint2_linear_1258_17485" x1="28.2031" y1="26.1961" x2="36.4662" y2="26.6189" gradientUnits="userSpaceOnUse">
<stop stop-color="#7B7B7B"/>
<stop offset="1" stop-color="#9ABECA"/>
</linearGradient>
</defs>
</svg>
