<svg width="56" height="57" viewBox="0 0 56 57" fill="none" xmlns="http://www.w3.org/2000/svg">
<rect opacity="0.2" y="0.5" width="56" height="56" rx="1.16667" fill="url(#paint0_linear_1258_16316)" fill-opacity="0.6"/>
<path d="M36.5967 18.5215C36.8524 18.4123 37.1481 18.4307 37.3906 18.5762L46.9863 24.334C47.2498 24.4921 47.4111 24.7767 47.4111 25.084V35.6396C47.4111 35.947 47.2498 36.2315 46.9863 36.3896L37.3906 42.1475C37.3787 42.1546 37.3657 42.1595 37.3535 42.166C37.3432 42.1715 37.3328 42.1765 37.3223 42.1816C37.2887 42.198 37.2547 42.2118 37.2197 42.2236C37.2072 42.2279 37.1953 42.2336 37.1826 42.2373C37.1377 42.2503 37.092 42.259 37.0459 42.2646C37.0378 42.2656 37.0296 42.2658 37.0215 42.2666C36.9818 42.2703 36.9422 42.2712 36.9023 42.2695C36.89 42.269 36.8776 42.2686 36.8652 42.2676C36.8065 42.2626 36.7484 42.2522 36.6914 42.2354C36.6698 42.2289 36.6482 42.2221 36.627 42.2139C36.6165 42.2098 36.6061 42.2056 36.5957 42.2012C36.587 42.1974 36.578 42.1945 36.5693 42.1904L36.5352 42.1719C36.5265 42.1674 36.5173 42.164 36.5088 42.1592C36.5037 42.1563 36.4992 42.1524 36.4941 42.1494L36.4902 42.1475L26.8936 36.3906C26.6301 36.2325 26.4688 35.9469 26.4688 35.6396V25.084C26.4688 25.048 26.4714 25.0124 26.4756 24.9775C26.4765 24.9704 26.4775 24.9632 26.4785 24.9561C26.4829 24.9259 26.4887 24.8963 26.4961 24.8672C26.4973 24.8623 26.4987 24.8574 26.5 24.8525C26.5188 24.7836 26.5459 24.7182 26.5801 24.6572C26.5829 24.6523 26.586 24.6475 26.5889 24.6426C26.6034 24.6177 26.6189 24.5935 26.6357 24.5703C26.6412 24.5628 26.6466 24.5552 26.6523 24.5479C26.7093 24.4745 26.7774 24.4105 26.8545 24.3584L26.8936 24.334L36.4902 18.5762L36.5967 18.5215ZM28.2188 35.1436L36.0654 39.8516V31.3369L28.2188 26.6289V35.1436ZM37.8154 31.4121V39.8516L45.6611 35.1445V26.6572L37.8154 31.4121ZM19.7617 34.7695C20.2027 34.8144 20.5466 35.1869 20.5469 35.6396C20.5469 36.0926 20.2029 36.4649 19.7617 36.5098L19.6719 36.5146H17.7529C17.2697 36.5146 16.8779 36.1229 16.8779 35.6396C16.8782 35.1566 17.2698 34.7646 17.7529 34.7646H19.6719L19.7617 34.7695ZM19.7451 29.0127C20.1861 29.0577 20.5303 29.4299 20.5303 29.8828C20.5301 30.3356 20.186 30.7079 19.7451 30.7529L19.6553 30.7578H13.8975C13.4143 30.7578 13.0226 30.3659 13.0225 29.8828C13.0225 29.3996 13.4142 29.0078 13.8975 29.0078H19.6553L19.7451 29.0127ZM29.0439 25.084L37.0029 29.8584L44.8594 25.0967L36.9395 20.3457L29.0439 25.084ZM19.748 23.2549C20.1893 23.2996 20.5342 23.6719 20.5342 24.125C20.5342 24.5781 20.1893 24.9504 19.748 24.9951L19.6592 25H10.0625C9.57925 25 9.1875 24.6082 9.1875 24.125C9.1875 23.6418 9.57925 23.25 10.0625 23.25H19.6592L19.748 23.2549Z" fill="url(#paint1_linear_1258_16316)"/>
<defs>
<linearGradient id="paint0_linear_1258_16316" x1="-7.56609e-07" y1="5.40412" x2="52.8681" y2="10.3803" gradientUnits="userSpaceOnUse">
<stop stop-color="#7B7B7B"/>
<stop offset="1" stop-color="#9ABECA"/>
</linearGradient>
<linearGradient id="paint1_linear_1258_16316" x1="9.1875" y1="20.5371" x2="44.781" y2="25.9134" gradientUnits="userSpaceOnUse">
<stop stop-color="#7B7B7B"/>
<stop offset="1" stop-color="#9ABECA"/>
</linearGradient>
</defs>
</svg>
