<svg width="20" height="20" viewBox="0 0 20 20" fill="none" xmlns="http://www.w3.org/2000/svg">
<path fill-rule="evenodd" clip-rule="evenodd" d="M12.4978 6.60397C12.6088 6.54846 12.7198 6.65947 12.7198 6.77049V10.7115C12.7198 10.7562 12.7018 10.7919 12.6731 10.8186C12.6304 10.8582 12.5641 10.878 12.4978 10.878H11.8872C11.8779 10.878 11.8686 10.8764 11.8593 10.8738C11.8408 10.8687 11.8224 10.8595 11.804 10.8502C11.7762 10.8364 11.7485 10.8225 11.7207 10.8225L9.94449 8.38019V10.7115C9.94449 10.8225 9.83348 10.878 9.77797 10.878H9.11189C9.00088 10.878 8.94537 10.8225 8.94537 10.7115V6.77049C8.94537 6.72357 8.95529 6.68656 8.97512 6.65947C8.98014 6.65261 8.98581 6.64638 8.99211 6.64078C9.01977 6.61624 9.05969 6.60397 9.11189 6.60397H9.77797C9.79663 6.60397 9.8153 6.60397 9.83185 6.60608C9.86453 6.61024 9.88899 6.62263 9.88899 6.65947L11.7207 9.10178V6.77049C11.7207 6.65947 11.7762 6.60397 11.8872 6.60397H12.4978ZM13.4969 6.54846C13.4522 6.54846 13.4165 6.56646 13.3898 6.5952C13.3854 6.60003 13.3811 6.60516 13.3772 6.61055C13.346 6.65286 13.3304 6.71167 13.3304 6.77049V10.7115C13.3304 10.7409 13.346 10.7859 13.3772 10.8217C13.38 10.825 13.383 10.8282 13.3861 10.8313C13.4132 10.8583 13.4501 10.878 13.4969 10.878H16.0502C16.1058 10.878 16.2168 10.8225 16.2168 10.7115V10.0454C16.2168 9.98989 16.1058 9.87887 16.0502 9.87887H14.3295V9.21279H16.0502C16.1058 9.21279 16.2168 9.15728 16.2168 9.04627V8.38019C16.2168 8.32468 16.1058 8.21367 16.0502 8.21367H14.3295V7.54758H16.0502C16.1058 7.54758 16.2168 7.49208 16.2168 7.38106V6.77049C16.2168 6.65947 16.1058 6.54846 16.0502 6.54846H13.4969ZM6.61408 10.878C6.7251 10.878 6.7806 10.767 6.7806 10.7115V10.0454C6.7806 9.98989 6.7251 9.87887 6.61408 9.87887H4.89337V6.77049C4.89337 6.65947 4.83786 6.54846 4.72685 6.54846H4.06077C4.00526 6.54846 3.89425 6.65947 3.89425 6.77049V10.7115C3.89425 10.7392 3.90812 10.7531 3.922 10.767C3.9289 10.7739 3.93579 10.7808 3.94099 10.7894C3.94624 10.7981 3.94975 10.8085 3.94975 10.8225C3.96371 10.8225 3.97416 10.826 3.98286 10.8313C3.99147 10.8364 3.99836 10.8433 4.00526 10.8502C4.01914 10.8641 4.03301 10.878 4.06077 10.878H6.61408ZM8.16827 10.878C8.22378 10.878 8.33479 10.8225 8.33479 10.7115V6.77049C8.33479 6.65947 8.22378 6.54846 8.16827 6.54846H7.50219C7.39118 6.54846 7.33567 6.65947 7.33567 6.77049V10.7115C7.33567 10.8225 7.39118 10.878 7.50219 10.878H8.16827ZM10.3539 19.2001L10.3452 19.2035C10.0419 19.3215 9.7025 19.4123 9.36304 19.3815C8.95758 19.3446 8.57857 19.1308 8.37232 18.737C8.20748 18.4223 8.21828 18.1097 8.23178 17.9582C8.24394 17.8218 8.27123 17.6986 8.2883 17.6283L8.31065 17.484C8.36278 17.1487 8.3973 16.923 8.41164 16.7464C8.4124 16.7371 8.41307 16.7282 8.41366 16.7197C8.39172 16.7141 8.36695 16.7081 8.33908 16.7019C3.70734 16.0913 0 12.7618 0 8.54671C0 3.79857 4.66645 0.211914 10 0.211914C15.3335 0.211914 20 3.79857 20 8.54671C20 10.4336 19.2715 12.0944 17.8178 13.6745C16.7912 14.8771 15.1752 16.1486 13.7435 17.1474C12.3171 18.1423 10.939 18.9592 10.3626 19.1966L10.3539 19.2001ZM17.1049 13.0428C18.437 11.5996 19.0476 10.1564 19.0476 8.54671C19.0476 4.49471 14.9956 1.1643 10 1.1643C5.00438 1.1643 0.952382 4.49471 0.952382 8.54671C0.952382 12.1547 4.17178 15.2075 8.50132 15.7626C9.50912 15.9748 9.45249 16.339 9.25173 17.6303L9.2229 17.8164C9.1674 18.0384 9.00088 18.7045 10 18.3159C10.9436 17.9274 15.2176 15.263 17.1049 13.0428Z" fill="white"/>
</svg>
