<svg width="56" height="56" viewBox="0 0 56 56" fill="none" xmlns="http://www.w3.org/2000/svg">
<rect opacity="0.2" width="56" height="56" rx="1.16667" fill="url(#paint0_linear_1258_16391)" fill-opacity="0.6"/>
<path d="M11.6787 11.6787C12.0591 11.2983 12.6612 11.2755 13.0693 11.6084L13.1484 11.6787L44.3213 42.8516L44.3926 42.9307C44.7255 43.3388 44.7017 43.9409 44.3213 44.3213C43.9409 44.7015 43.3397 44.7244 42.9316 44.3916L42.8525 44.3213L39.6934 41.1621H22.7949C21.6011 41.1619 20.4565 40.6869 19.6123 39.8428C18.8206 39.051 18.353 37.9949 18.2979 36.8818L18.293 36.6592V34.2354H15.877C14.6831 34.2351 13.5386 33.7601 12.6943 32.916C11.85 32.0716 11.375 30.9265 11.375 29.7324V19.3418C11.3751 18.1477 11.85 17.0025 12.6943 16.1582C13.0364 15.8161 13.4285 15.536 13.8525 15.3223L11.6787 13.1484L11.6084 13.0693C11.2755 12.6612 11.2983 12.0591 11.6787 11.6787ZM22.4072 23.877C21.9084 23.9581 21.4431 24.1917 21.0811 24.5537C20.6265 25.0082 20.3713 25.6248 20.3711 26.2676V33.0615C20.3768 33.1057 20.3808 33.1506 20.3809 33.1963C20.3808 33.2416 20.3767 33.2863 20.3711 33.3301V36.6592L20.3838 36.8984C20.4388 37.4535 20.6832 37.9761 21.0811 38.374C21.5355 38.8284 22.1523 39.0838 22.7949 39.084H37.6152L33.8184 35.2871C33.1142 35.7092 32.3027 35.9363 31.4688 35.9297C30.2882 35.9202 29.1586 35.4465 28.3232 34.6123C27.488 33.7781 27.0131 32.6492 27.002 31.4688C26.9941 30.6325 27.2194 29.8175 27.6426 29.1113L22.4072 23.877ZM33.4189 14.8438C34.5318 14.8989 35.5882 15.3667 36.3799 16.1582C37.224 17.0025 37.6982 18.1479 37.6982 19.3418V21.7656H40.1143C41.3083 21.7657 42.4535 22.2407 43.2979 23.085C44.1419 23.9292 44.616 25.0738 44.6162 26.2676V36.6592C44.616 37.2329 44.1509 37.6982 43.5771 37.6982C43.0036 37.698 42.5383 37.2327 42.5381 36.6592V26.2676C42.5379 25.625 42.2834 25.0082 41.8291 24.5537C41.3745 24.0991 40.7572 23.8438 40.1143 23.8438H36.6807C36.6736 23.8439 36.6663 23.8447 36.6592 23.8447C36.652 23.8447 36.6448 23.8439 36.6377 23.8438H29.7227C29.149 23.8435 28.6836 23.3784 28.6836 22.8047C28.6836 22.231 29.149 21.7658 29.7227 21.7656H35.6201V19.3418C35.62 18.6992 35.3654 18.0825 34.9111 17.6279C34.5133 17.2301 33.9906 16.9848 33.4355 16.9297L33.1963 16.917H22.8047C22.231 16.9168 21.7656 16.4517 21.7656 15.8779C21.7658 15.3043 22.2311 14.8391 22.8047 14.8389H33.1963L33.4189 14.8438ZM29.2021 30.6709C29.1203 30.9198 29.0776 31.1823 29.0801 31.4492C29.086 32.0848 29.3422 32.6924 29.792 33.1416C30.2418 33.5907 30.8498 33.8464 31.4854 33.8516C31.7508 33.8537 32.0111 33.8088 32.2588 33.7275L29.2021 30.6709ZM15.4824 16.9521C14.9862 17.0343 14.5234 17.2676 14.1631 17.6279C13.7087 18.0825 13.4532 18.6991 13.4531 19.3418V29.7324C13.4532 30.3753 13.7085 30.9926 14.1631 31.4473C14.6176 31.9017 15.2343 32.157 15.877 32.1572H18.293V26.2676C18.2932 25.0737 18.7681 23.9292 19.6123 23.085C19.9559 22.7414 20.3492 22.4592 20.7754 22.2451L15.4824 16.9521Z" fill="url(#paint1_linear_1258_16391)"/>
<defs>
<linearGradient id="paint0_linear_1258_16391" x1="-7.56609e-07" y1="4.90412" x2="52.8681" y2="9.88034" gradientUnits="userSpaceOnUse">
<stop stop-color="#7B7B7B"/>
<stop offset="1" stop-color="#9ABECA"/>
</linearGradient>
<linearGradient id="paint1_linear_1258_16391" x1="11.375" y1="14.2868" x2="42.7661" y2="17.2416" gradientUnits="userSpaceOnUse">
<stop stop-color="#7B7B7B"/>
<stop offset="1" stop-color="#9ABECA"/>
</linearGradient>
</defs>
</svg>
