<svg width="64" height="64" viewBox="0 0 64 64" fill="none" xmlns="http://www.w3.org/2000/svg">
<rect opacity="0.2" width="64" height="64" rx="1.33333" fill="url(#paint0_linear_1242_4182)" fill-opacity="0.6"/>
<path d="M35.3359 41C36.4852 41 37.5877 41.4569 38.4004 42.2695C39.2128 43.0821 39.6689 44.184 39.6689 45.333V47C39.6689 47.5523 39.2212 48 38.6689 48C38.1168 47.9998 37.6689 47.5522 37.6689 47V45.333C37.6689 44.7144 37.4236 44.1211 36.9863 43.6836C36.5487 43.246 35.9548 43 35.3359 43H28.6689C28.0502 43.0001 27.457 43.2461 27.0195 43.6836C26.582 44.1211 26.336 44.7143 26.3359 45.333V47C26.3359 47.5523 25.8882 48 25.3359 48C24.7837 48 24.3359 47.5523 24.3359 47V45.333C24.336 44.1839 24.7929 43.0821 25.6055 42.2695C26.418 41.457 27.5198 41.0001 28.6689 41H35.3359ZM31.9971 29.333C33.1463 29.333 34.2489 29.79 35.0615 30.6025C35.8739 31.415 36.3309 32.5171 36.3311 33.666C36.3311 34.8152 35.8741 35.9178 35.0615 36.7305C34.2489 37.5431 33.1463 38 31.9971 38C30.848 37.9999 29.7462 37.5429 28.9336 36.7305C28.1211 35.9178 27.6641 34.8152 27.6641 33.666C27.6642 32.517 28.1211 31.415 28.9336 30.6025C29.7462 29.7901 30.848 29.3331 31.9971 29.333ZM31.9971 31.333C31.3784 31.3331 30.7851 31.5792 30.3477 32.0166C29.9102 32.454 29.6642 33.0474 29.6641 33.666C29.6641 34.2848 29.9102 34.8788 30.3477 35.3164C30.7851 35.7538 31.3784 35.9999 31.9971 36C32.6159 36 33.2099 35.754 33.6475 35.3164C34.0849 34.8788 34.3311 34.2848 34.3311 33.666C34.3309 33.0475 34.0848 32.454 33.6475 32.0166C33.2099 31.5791 32.6158 31.333 31.9971 31.333ZM23.7686 27.6719C24.273 27.7229 24.667 28.1491 24.667 28.667C24.6668 29.1847 24.2729 29.6111 23.7686 29.6621L23.667 29.667H20.333C19.7143 29.6671 19.1211 29.9131 18.6836 30.3506C18.2462 30.7881 18.0001 31.3814 18 32V33.667C17.9998 34.2191 17.5522 34.667 17 34.667C16.4478 34.667 16.0002 34.2191 16 33.667V32C16.0001 30.8509 16.4571 29.7491 17.2695 28.9365C18.0821 28.1239 19.1839 27.6671 20.333 27.667H23.667L23.7686 27.6719ZM43.6689 27.667C44.8182 27.667 45.9207 28.1239 46.7334 28.9365C47.5458 29.7491 48.0028 30.851 48.0029 32V33.667C48.0027 34.219 47.5549 34.6668 47.0029 34.667C46.4508 34.667 46.0031 34.2191 46.0029 33.667V32C46.0028 31.3814 45.7566 30.7881 45.3193 30.3506C44.8818 29.913 44.2878 29.667 43.6689 29.667H40.3359C39.7838 29.667 39.3361 29.2191 39.3359 28.667C39.3359 28.1147 39.7837 27.667 40.3359 27.667H43.6689ZM23.8838 16.0049C24.955 16.0579 25.9714 16.5076 26.7334 17.2695C27.5459 18.0821 28.0028 19.1839 28.0029 20.333C28.0029 21.4823 27.5461 22.5848 26.7334 23.3975C25.9714 24.1594 24.955 24.6081 23.8838 24.6611L23.6689 24.667C22.5199 24.6669 21.418 24.2099 20.6055 23.3975C19.8435 22.6355 19.3939 21.619 19.3408 20.5479L19.3359 20.333C19.336 19.1839 19.7929 18.0821 20.6055 17.2695C21.418 16.457 22.5198 16.0001 23.6689 16L23.8838 16.0049ZM40.5479 16.0049C41.619 16.0579 42.6355 16.5076 43.3975 17.2695C44.2099 18.0821 44.6669 19.1839 44.667 20.333C44.667 21.4823 44.2101 22.5848 43.3975 23.3975C42.6355 24.1594 41.619 24.6081 40.5479 24.6611L40.333 24.667C39.1839 24.6669 38.0821 24.2099 37.2695 23.3975C36.4569 22.5848 36 21.4823 36 20.333C36.0001 19.1839 36.457 18.0821 37.2695 17.2695C38.0821 16.457 39.1839 16.0001 40.333 16L40.5479 16.0049ZM23.6689 18C23.0502 18.0001 22.457 18.2461 22.0195 18.6836C21.582 19.1211 21.336 19.7143 21.3359 20.333L21.3477 20.5635C21.4006 21.0978 21.6365 21.6004 22.0195 21.9834C22.457 22.4208 23.0503 22.6669 23.6689 22.667L23.8994 22.6553C24.4337 22.6023 24.9363 22.3664 25.3193 21.9834C25.7569 21.5458 26.0029 20.9518 26.0029 20.333C26.0028 19.7144 25.7567 19.1211 25.3193 18.6836C24.9363 18.3006 24.4337 18.0647 23.8994 18.0117L23.6689 18ZM40.333 18C39.7143 18.0001 39.1211 18.2461 38.6836 18.6836C38.2461 19.1211 38.0001 19.7143 38 20.333C38 20.9518 38.246 21.5458 38.6836 21.9834C39.1211 22.4208 39.7144 22.6669 40.333 22.667L40.5635 22.6553C41.0978 22.6023 41.6004 22.3664 41.9834 21.9834C42.421 21.5458 42.667 20.9518 42.667 20.333C42.6669 19.7144 42.4208 19.1211 41.9834 18.6836C41.6004 18.3006 41.0978 18.0647 40.5635 18.0117L40.333 18Z" fill="url(#paint1_linear_1242_4182)"/>
<defs>
<linearGradient id="paint0_linear_1242_4182" x1="-8.64697e-07" y1="5.6047" x2="60.4207" y2="11.2918" gradientUnits="userSpaceOnUse">
<stop stop-color="#7B7B7B"/>
<stop offset="1" stop-color="#9ABECA"/>
</linearGradient>
<linearGradient id="paint1_linear_1242_4182" x1="16" y1="18.8024" x2="46.213" y2="21.6464" gradientUnits="userSpaceOnUse">
<stop stop-color="#7B7B7B"/>
<stop offset="1" stop-color="#9ABECA"/>
</linearGradient>
</defs>
</svg>
