<svg width="65" height="65" viewBox="0 0 65 65" fill="none" xmlns="http://www.w3.org/2000/svg">
<rect opacity="0.2" x="0.398438" y="0.648438" width="64" height="64" rx="2" fill="url(#paint0_linear_1503_3813)" fill-opacity="0.6"/>
<path d="M16.7734 41.5V23.0833C16.7735 22.0501 17.1842 21.0594 17.9148 20.3289C18.6454 19.5983 19.6361 19.1875 20.6693 19.1875H26.1948V19.1889C26.8424 19.1844 27.4811 19.3397 28.0528 19.644C28.6244 19.9484 29.1117 20.391 29.4695 20.9307L30.6164 22.6309L30.6233 22.6406L30.7547 22.8163C30.8965 22.9826 31.069 23.1216 31.2625 23.2258C31.5204 23.3648 31.8092 23.4375 32.1022 23.4375H43.3359C44.3691 23.4375 45.3598 23.8483 46.0904 24.5789C46.821 25.3094 47.2317 26.3001 47.2318 27.3333V33.1411C47.2318 33.7279 46.7561 34.2036 46.1693 34.2036C45.5825 34.2036 45.1068 33.7279 45.1068 33.1411V27.3333C45.1067 26.8637 44.92 26.4134 44.588 26.0813C44.2559 25.7492 43.8056 25.5625 43.3359 25.5625H32.1022C31.4572 25.5624 30.8217 25.4023 30.2539 25.0963C29.6862 24.7903 29.203 24.3483 28.8483 23.8097V23.8083L27.7083 22.1191L27.7014 22.1094C27.5385 21.862 27.3154 21.6592 27.054 21.52C26.7927 21.381 26.5005 21.3096 26.2045 21.3125H20.6693C20.1996 21.3125 19.7493 21.4992 19.4172 21.8313C19.0852 22.1634 18.8985 22.6137 18.8984 23.0833V41.5C18.8984 41.9696 19.0852 42.4199 19.4172 42.752C19.7493 43.0841 20.1996 43.2708 20.6693 43.2708H30.1612L30.2691 43.2764C30.8051 43.3306 31.2236 43.7831 31.2237 44.3333C31.2237 44.8836 30.8051 45.3361 30.2691 45.3903L30.1612 45.3958H20.6693C19.636 45.3958 18.6454 44.9851 17.9148 44.2545C17.1842 43.5239 16.7734 42.5332 16.7734 41.5Z" fill="url(#paint1_linear_1503_3813)"/>
<path d="M40.1432 39.3501C37.9978 39.3501 36.3292 37.6815 36.3292 35.5361C36.3292 33.4504 37.9978 31.7222 40.1432 31.7222C42.229 31.7222 43.9572 33.4504 43.9572 35.5361C43.9572 37.6815 42.229 39.3501 40.1432 39.3501ZM40.1432 33.6292C39.0705 33.6292 38.2362 34.5231 38.2362 35.5361C38.2362 36.6088 39.0705 37.4431 40.1432 37.4431C41.1563 37.4431 42.0502 36.6088 42.0502 35.5361C42.0502 34.5231 41.1563 33.6292 40.1432 33.6292ZM42.0502 40.1812C44.6723 40.1812 46.8176 42.3266 46.8176 44.9487C46.8176 45.485 46.3409 45.9022 45.8641 45.9022C45.3278 45.9022 44.9107 45.485 44.9107 44.9487C44.9107 43.3993 43.5996 42.0882 42.0502 42.0882H38.2362C36.6272 42.0882 35.3757 43.3993 35.3757 44.9487C35.3757 45.485 34.899 45.9022 34.4222 45.9022C33.8859 45.9022 33.4688 45.485 33.4688 44.9487C33.4688 42.3266 35.5545 40.1812 38.2362 40.1812H42.0502Z" fill="url(#paint2_linear_1503_3813)"/>
<defs>
<linearGradient id="paint0_linear_1503_3813" x1="0.398437" y1="6.25314" x2="60.8191" y2="11.9403" gradientUnits="userSpaceOnUse">
<stop stop-color="#7B7B7B"/>
<stop offset="1" stop-color="#9ABECA"/>
</linearGradient>
<linearGradient id="paint1_linear_1503_3813" x1="16.7734" y1="21.4827" x2="45.4401" y2="24.6185" gradientUnits="userSpaceOnUse">
<stop stop-color="#7B7B7B"/>
<stop offset="1" stop-color="#9ABECA"/>
</linearGradient>
<linearGradient id="paint2_linear_1503_3813" x1="33.4687" y1="32.964" x2="46.0837" y2="34.0818" gradientUnits="userSpaceOnUse">
<stop stop-color="#7B7B7B"/>
<stop offset="1" stop-color="#9ABECA"/>
</linearGradient>
</defs>
</svg>
