<svg width="48" height="48" viewBox="0 0 48 48" fill="none" xmlns="http://www.w3.org/2000/svg">
  <rect width="48" height="48" rx="4" fill="#9ABECA" fill-opacity="0.2" />
  <path d="M32.375 22.8594L31.8857 22.8701C30.5107 22.9006 29.2117 22.558 28.0508 21.9092V27.292C28.0508 32.0735 22.8515 35.0523 18.7236 32.6826L18.7207 32.6807C14.5932 30.2729 14.5932 24.3111 18.7207 21.9033L18.7217 21.9023L18.9473 21.7783C20.0875 21.1808 21.4103 20.9581 22.6973 21.1367L23.1289 21.1963V25.4854L22.4736 25.2715C20.9183 24.7625 19.4053 26.144 19.7412 27.7412L19.7803 27.8887C20.2334 29.3815 22.091 29.9313 23.2773 28.8555C23.7028 28.4558 23.957 27.886 23.957 27.292V14.4873H28.0508V14.9873C28.0508 15.2022 28.0521 15.3613 28.0752 15.5176L28.1064 15.6748L28.1104 15.6904L28.1133 15.7061C28.2883 16.6684 28.8165 17.5154 29.6191 18.0752L29.7832 18.1836L29.793 18.1895L29.8018 18.1953C30.38 18.591 31.1238 18.8115 31.875 18.8115H32.375V22.8594Z" stroke="#9ABECA" />
</svg>
