<svg width="64" height="65" viewBox="0 0 64 65" fill="none" xmlns="http://www.w3.org/2000/svg">
<rect opacity="0.2" y="0.648438" width="64" height="64" rx="1.33333" fill="url(#paint0_linear_1220_3498)" fill-opacity="0.6"/>
<path d="M40.833 37.0005C41.0981 37.0005 41.3525 37.106 41.54 37.2935C43.0069 38.7603 45.2477 39.5005 46.667 39.5005L46.7686 39.5054C47.273 39.5564 47.667 39.9826 47.667 40.5005C47.667 44.0501 46.5546 46.7603 45.1748 48.6001C44.4879 49.5159 43.7303 50.2226 43.0029 50.7075C42.3041 51.1734 41.5332 51.5005 40.833 51.5005C40.1329 51.5004 39.3628 51.1733 38.6641 50.7075C37.9366 50.2226 37.1781 49.516 36.4912 48.6001C35.1116 46.7603 34 44.0499 34 40.5005L34.0049 40.3979C34.0562 39.8938 34.4823 39.5005 35 39.5005L35.2754 39.4917C36.6963 39.405 38.7508 38.6685 40.126 37.2935L40.1992 37.2271C40.3771 37.0812 40.6009 37.0006 40.833 37.0005ZM40.833 39.3374C39.3702 40.5053 37.561 41.1969 36.0312 41.4194C36.2001 44.0716 37.0848 46.0582 38.0918 47.4009C38.6548 48.1515 39.2509 48.6951 39.7734 49.0435C40.3241 49.4106 40.6996 49.5003 40.833 49.5005C40.9661 49.5005 41.3424 49.4109 41.8936 49.0435C42.416 48.6951 43.0122 48.1514 43.5752 47.4009C44.5822 46.0582 45.4659 44.0716 45.6348 41.4194C44.105 41.1968 42.2957 40.5054 40.833 39.3374ZM27.751 16.5132C30.2153 15.842 32.8127 15.8291 35.2832 16.4771C37.754 17.1252 40.0114 18.4118 41.8291 20.2065C43.6468 22.0013 44.9621 24.2421 45.6416 26.7046C46.321 29.167 46.3412 31.7649 45.7012 34.2378C45.5281 34.906 44.846 35.3072 44.1777 35.1343C43.5096 34.9611 43.1083 34.279 43.2812 33.6108C43.8115 31.5621 43.7943 29.4097 43.2314 27.3696C42.6685 25.3295 41.5791 23.4719 40.0732 21.9849C38.5672 20.498 36.6955 19.433 34.6484 18.896C32.6014 18.3591 30.4491 18.3691 28.4072 18.9253C26.3652 19.4816 24.5047 20.5648 23.0127 22.0659C21.521 23.5669 20.4491 25.433 19.9053 27.478C19.3615 29.5235 19.3645 31.6772 19.9141 33.7212C20.4636 35.7651 21.5409 37.6285 23.0371 39.1255L30.1104 46.1968L30.2637 46.3354C30.4235 46.4663 30.603 46.5735 30.7949 46.6519C31.0507 46.7562 31.3254 46.809 31.6016 46.8062C32.2915 46.7992 32.8567 47.3525 32.8643 48.0425C32.8715 48.7327 32.3181 49.2987 31.6279 49.3062C31.0186 49.3126 30.4128 49.1966 29.8486 48.9663C29.2852 48.7361 28.7731 48.3958 28.3428 47.9653L21.2686 40.8931C19.4629 39.0865 18.1633 36.8372 17.5 34.3706C16.8368 31.9038 16.833 29.3051 17.4893 26.8364C18.1456 24.368 19.4387 22.1149 21.2393 20.3032C23.04 18.4914 25.2863 17.1846 27.751 16.5132ZM31.5781 24.3315C33.2357 24.3315 34.825 24.9905 35.9971 26.1626C37.1691 27.3347 37.8281 28.924 37.8281 30.5815C37.8281 32.2391 37.1691 33.8284 35.9971 35.0005C34.825 36.1725 33.2356 36.8315 31.5781 36.8315C29.9206 36.8315 28.3313 36.1725 27.1592 35.0005C25.9871 33.8284 25.3282 32.2391 25.3281 30.5815C25.3281 28.924 25.9872 27.3347 27.1592 26.1626C28.3313 24.9905 29.9206 24.3316 31.5781 24.3315ZM31.5781 26.8315C30.5836 26.8316 29.63 27.2269 28.9268 27.9302C28.2236 28.6334 27.8281 29.5871 27.8281 30.5815C27.8282 31.576 28.2236 32.5297 28.9268 33.2329C29.63 33.9361 30.5836 34.3315 31.5781 34.3315C32.5726 34.3315 33.5262 33.9361 34.2295 33.2329C34.9327 32.5297 35.3281 31.576 35.3281 30.5815C35.3281 29.587 34.9327 28.6334 34.2295 27.9302C33.5262 27.2269 32.5727 26.8315 31.5781 26.8315Z" fill="url(#paint1_linear_1220_3498)"/>
<defs>
<linearGradient id="paint0_linear_1220_3498" x1="-8.64697e-07" y1="6.25314" x2="60.4207" y2="11.9403" gradientUnits="userSpaceOnUse">
<stop stop-color="#7B7B7B"/>
<stop offset="1" stop-color="#9ABECA"/>
</linearGradient>
<linearGradient id="paint1_linear_1220_3498" x1="17" y1="19.1094" x2="46.0167" y2="21.4687" gradientUnits="userSpaceOnUse">
<stop stop-color="#7B7B7B"/>
<stop offset="1" stop-color="#9ABECA"/>
</linearGradient>
</defs>
</svg>
