<svg width="22" height="21" viewBox="0 0 22 21" fill="none" xmlns="http://www.w3.org/2000/svg">
<path d="M6.83008 0.942383C8.28753 0.863636 12.3053 0.854012 14.4023 0.913086L15.1699 0.942383C16.6745 1.02597 17.9886 1.34306 19.0742 2.30957L19.2881 2.51172C20.2727 3.4963 20.6676 4.68191 20.8105 6.03809L20.8574 6.62988C20.9362 8.08733 20.9458 12.1051 20.8867 14.2021L20.8574 14.9697C20.774 16.4717 20.4579 17.7492 19.4883 18.8691L19.2881 19.0879C18.3035 20.0725 17.1179 20.4674 15.7617 20.6104L15.1699 20.6572C13.7125 20.736 9.69472 20.7456 7.59766 20.6865L6.83008 20.6572C5.32812 20.5738 4.05065 20.2577 2.93066 19.2881L2.70898 19.0859C1.72468 18.0612 1.33193 16.9034 1.18945 15.5586L1.14258 14.9697C1.06383 13.5123 1.05421 9.49453 1.11328 7.39746L1.14258 6.62988C1.23173 5.02507 1.58663 3.637 2.71191 2.51172L2.71094 2.51074C3.73625 1.52467 4.89532 1.13185 6.24121 0.989258L6.83008 0.942383ZM14.0459 2.30566C12.9012 2.27166 11.7368 2.30566 11.0225 2.30566C10.2855 2.30566 9.11038 2.27168 7.96582 2.30566C6.97108 2.33521 5.96239 2.41576 5.26074 2.62793L4.98145 2.72656C4.08738 3.08428 3.4012 3.73707 3.00391 4.56543L2.92773 4.7334L2.92676 4.73633C2.64058 5.45177 2.53966 6.61616 2.50586 7.75391C2.47186 8.89859 2.50586 10.063 2.50586 10.7773C2.50586 11.5143 2.47187 12.6894 2.50586 13.834C2.53959 14.9695 2.64035 16.1229 2.92676 16.8174V16.8184C3.30868 17.7729 4.02687 18.4911 4.98145 18.873V18.8721C5.67584 19.1589 6.82969 19.2602 7.96582 19.2939C9.11038 19.3279 10.2855 19.2939 11.0225 19.2939C11.7368 19.2939 12.9012 19.3279 14.0459 19.2939C15.0416 19.2644 16.0577 19.1833 16.7754 18.9717L17.0635 18.873L17.0664 18.8721C17.9687 18.4921 18.7382 17.7752 19.0762 16.8096L19.0752 16.8086C19.359 16.1132 19.4605 14.965 19.4941 13.834C19.5281 12.6894 19.4941 11.5143 19.4941 10.7773C19.4941 10.063 19.5281 8.89859 19.4941 7.75391C19.4646 6.75817 19.3835 5.74214 19.1719 5.02441L19.0732 4.73633L19.0723 4.7334L18.9971 4.56543C18.6025 3.73738 17.92 3.04208 17.0586 2.72461H17.0576C16.3417 2.44015 15.1807 2.33938 14.0459 2.30566ZM11.0225 5.7793C13.7597 5.7793 16.0205 8.04014 16.0205 10.7773C16.0204 13.5585 13.7607 15.7754 11.0225 15.7754C8.24017 15.7753 6.02449 13.5596 6.02441 10.7773C6.02441 8.03906 8.24126 5.77937 11.0225 5.7793ZM11.0225 7.23242C9.01539 7.2325 7.43262 8.81195 7.43262 10.7773C7.43269 12.7879 9.06062 14.3671 11.0225 14.3672C12.9879 14.3672 14.5673 12.7844 14.5674 10.7773C14.5674 8.81365 12.9862 7.23242 11.0225 7.23242ZM16.4014 4.37793C16.9689 4.37793 17.4219 4.83088 17.4219 5.39844C17.4218 5.96593 16.9689 6.41895 16.4014 6.41895C15.8339 6.41887 15.3809 5.96588 15.3809 5.39844C15.3809 4.83093 15.8339 4.378 16.4014 4.37793Z" fill="white" stroke="#343538" stroke-width="0.4"/>
</svg>
