<svg width="126" height="126" viewBox="0 0 126 126" fill="none" xmlns="http://www.w3.org/2000/svg">
<g clip-path="url(#clip0_1240_4369)">
<path d="M33.7391 44.9295C40.274 30.4815 57.0178 23.9463 71.1373 30.3327C85.2569 36.7191 91.4055 53.6086 84.8706 68.0566" stroke="#9ABECA" stroke-width="4" stroke-linecap="round"/>
<path d="M47.4157 81.1953C61.8636 87.7302 78.7532 81.5816 85.1396 67.462C91.5259 53.3424 84.9907 36.5987 70.5428 30.0638" stroke="#9ABECA" stroke-width="4" stroke-linecap="round"/>
<path d="M59.5635 12.7889C83.3726 12.7889 102.674 32.0902 102.674 55.8993L102.665 56.7694C102.499 65.1293 99.9506 72.9092 95.6729 79.454L114.891 98.6718L115.194 98.9911C118.127 102.238 118.128 107.194 115.194 110.441L114.891 110.76C111.657 113.993 106.475 114.095 103.12 111.063L102.802 110.76L83.6768 91.6337C76.7941 96.287 68.495 99.0096 59.5635 99.0096C48.4304 99.0095 38.2851 94.7863 30.6357 87.8583L34.291 85.7479C41.1073 91.525 49.9286 95.0095 59.5635 95.0096C68.2308 95.0096 76.2332 92.1887 82.7158 87.4188L84.1006 86.4003L85.3154 87.6161L105.63 107.932L105.8 108.093C107.585 109.705 110.342 109.652 112.062 107.932L112.224 107.762C113.784 106.034 113.784 103.397 112.224 101.67L112.062 101.5L90.4785 79.9159L91.458 78.538C96.0015 72.1491 98.6737 64.3391 98.6738 55.8993C98.6738 34.2994 81.1634 16.7889 59.5635 16.7889C37.9638 16.7893 20.4531 34.2996 20.4531 55.8993L20.4658 56.9091C20.5118 58.7209 20.6844 60.5015 20.9688 62.244L17.2861 64.37C16.8103 61.9823 16.5305 59.5238 16.4668 57.0116L16.4531 55.8993C16.4531 32.0904 35.7547 12.7893 59.5635 12.7889Z" fill="#9ABECA"/>
<path d="M19.167 69.6042L10.0399 55.3172L26.9764 54.5564L19.167 69.6042Z" fill="#9ABECA"/>
<path d="M26.3457 80.6331L42.9215 84.1919L31.5516 96.7676L26.3457 80.6331Z" fill="#9ABECA"/>
</g>
<defs>
<clipPath id="clip0_1240_4369">
<rect width="126" height="126" fill="white"/>
</clipPath>
</defs>
</svg>
