<svg width="33" height="32" viewBox="0 0 33 32" fill="none" xmlns="http://www.w3.org/2000/svg">
<path d="M25.3605 7.37109H13.6562V11.6082H27.8346C28.9193 11.6082 29.9594 12.0284 30.7264 12.7763C31.4933 13.5242 31.9242 14.5386 31.9242 15.5963C31.9242 16.654 31.4933 17.6683 30.7264 18.4162C29.9594 19.1641 28.9193 19.5843 27.8346 19.5843H26.1803V23.7764C29.7371 23.3778 32.5056 19.1929 32.5056 15.62C32.5056 11.7743 29.3089 7.37109 25.3678 7.37109" fill="#9ABECA"/>
<path d="M12.4134 23.8218H19.3494V19.5847H5.17099C4.63406 19.5847 4.10239 19.4815 3.60636 19.2811C3.11033 19.0806 2.65966 18.7869 2.2801 18.4165C1.90055 18.0461 1.59954 17.6065 1.39429 17.1226C1.18904 16.6388 1.08356 16.1203 1.08388 15.5967C1.08388 14.5396 1.51448 13.5258 2.28096 12.7784C3.04745 12.0309 4.08702 11.611 5.17099 11.611H6.82529V7.41895C3.27097 7.81514 0.5 12.0001 0.5 15.5729C0.5 19.4186 3.69671 23.8218 7.64029 23.8218H12.4061H12.4134Z" fill="#9ABECA"/>
<path d="M20.5926 19.5848V26.6451C20.6059 27.1768 20.51 27.7058 20.3105 28.2009C20.111 28.6959 19.812 29.1471 19.4311 29.5277C19.0501 29.9084 18.5949 30.2109 18.0923 30.4175C17.5897 30.624 17.0497 30.7304 16.5043 30.7304C15.9588 30.7304 15.4189 30.624 14.9163 30.4175C14.4136 30.2109 13.9584 29.9084 13.5775 29.5277C13.1965 29.1471 12.8975 28.6959 12.698 28.2009C12.4986 27.7058 12.4026 27.1768 12.416 26.6451V25.0342H8.11719C8.52347 28.5003 12.8174 31.2025 16.4812 31.2025C20.4223 31.2025 24.94 28.0875 24.94 24.2418V12.8115H20.5926V19.5848Z" fill="#9ABECA"/>
<path d="M12.411 14.1562V4.54793C12.3976 4.01618 12.4936 3.48722 12.693 2.99216C12.8925 2.49711 13.1915 2.04597 13.5725 1.6653C13.9534 1.28463 14.4086 0.982117 14.9113 0.775575C15.4139 0.569032 15.9538 0.462629 16.4993 0.462629C17.0447 0.462629 17.5847 0.569032 18.0873 0.775575C18.5899 0.982117 19.0451 1.28463 19.4261 1.6653C19.807 2.04597 20.106 2.49711 20.3055 2.99216C20.505 3.48722 20.6009 4.01618 20.5876 4.54793V6.16829H24.8864C24.4801 2.6927 20.1375 0 16.4883 0C12.5448 0 8.07812 3.11736 8.07812 6.96068V18.3744H12.4231L12.411 14.1562Z" fill="#9ABECA"/>
</svg>
