<svg width="318" height="50" viewBox="0 0 318 50" fill="none" xmlns="http://www.w3.org/2000/svg">
<mask id="mask0_1350_6958" style="mask-type:luminance" maskUnits="userSpaceOnUse" x="0" y="0" width="318" height="50">
<path d="M318 0.5H0V49.5H318V0.5Z" fill="white"/>
</mask>
<g mask="url(#mask0_1350_6958)">
<path d="M161.558 12.0801H143.203V18.7361H165.438C167.139 18.7361 168.771 19.3962 169.973 20.5711C171.176 21.7459 171.852 23.3394 171.852 25.0009C171.852 26.6624 171.176 28.2559 169.973 29.4308C168.771 30.6056 167.139 31.2657 165.438 31.2657H162.844V37.8509C168.422 37.2248 172.764 30.6507 172.764 25.0382C172.764 18.997 167.75 12.0801 161.57 12.0801" fill="#343538"/>
<path d="M141.254 37.9214H152.131V31.2653H129.896C129.054 31.2653 128.22 31.1033 127.442 30.7884C126.664 30.4735 125.957 30.012 125.362 29.4302C124.767 28.8484 124.295 28.1578 123.973 27.3977C123.651 26.6377 123.485 25.8231 123.486 25.0006C123.486 23.3401 124.161 21.7475 125.363 20.5734C126.565 19.3992 128.196 18.7396 129.896 18.7396H132.49V12.1543C126.916 12.7767 122.57 19.3508 122.57 24.9633C122.57 31.0045 127.584 37.9214 133.768 37.9214H141.242H141.254Z" fill="#343538"/>
<path d="M154.08 31.265V42.356C154.101 43.1913 153.951 44.0222 153.638 44.7999C153.325 45.5776 152.856 46.2863 152.259 46.8843C151.661 47.4823 150.947 47.9575 150.159 48.2819C149.371 48.6064 148.524 48.7735 147.669 48.7735C146.813 48.7735 145.967 48.6064 145.178 48.2819C144.39 47.9575 143.676 47.4823 143.079 46.8843C142.481 46.2863 142.012 45.5776 141.7 44.7999C141.387 44.0222 141.236 43.1913 141.257 42.356V39.8255H134.516C135.153 45.2703 141.887 49.5152 147.632 49.5152C153.813 49.5152 160.898 44.6219 160.898 38.5807V20.625H154.08V31.265Z" fill="#343538"/>
<path d="M141.256 22.7378V7.64428C141.235 6.80897 141.385 5.97802 141.698 5.20035C142.011 4.42267 142.48 3.71398 143.077 3.11599C143.675 2.518 144.389 2.0428 145.177 1.71834C145.965 1.39388 146.812 1.22674 147.667 1.22674C148.523 1.22674 149.37 1.39388 150.158 1.71834C150.946 2.0428 151.66 2.518 152.257 3.11599C152.855 3.71398 153.324 4.42267 153.637 5.20035C153.949 5.97802 154.1 6.80897 154.079 7.64428V10.1897H160.82C160.183 4.72992 153.373 0.5 147.65 0.5C141.466 0.5 134.461 5.39702 134.461 11.4344V29.3641H141.275L141.256 22.7378Z" fill="#343538"/>
<path d="M210.691 34.0417V15.9294C210.691 13.7381 211.811 12.6424 214.052 12.6424V11.9268L206.403 11.9082L197.792 32.5137L189.234 13.6673C188.977 13.1128 188.828 12.5161 188.795 11.9082L180.047 11.9268V12.6424C182.29 12.6424 183.412 13.7381 183.412 15.9294V34.0417C183.412 36.2927 182.29 37.4169 180.047 37.4144V38.0443H187.563V37.448C185.335 37.4256 184.227 36.2889 184.24 34.038V14.7629L194.957 38.0033H196.3L206.074 14.7629V34.0417C206.074 36.233 204.941 37.3337 202.675 37.3436V38.0443H214.048V37.3399C211.807 37.3399 210.687 36.2393 210.687 34.038" fill="#343538"/>
<path d="M238.456 15.139C236.029 12.6967 232.673 11.4756 228.387 11.4756C225.759 11.4459 223.171 12.1034 220.89 13.38C218.752 14.5626 216.987 16.2949 215.786 18.3888C214.614 20.5111 214.019 22.8912 214.057 25.302C214.021 27.0505 214.357 28.7873 215.043 30.4025C215.729 32.0178 216.751 33.4764 218.044 34.6861C220.692 37.2377 223.969 38.5135 227.876 38.5135C230.366 38.5293 232.818 37.9102 234.988 36.7172C237.134 35.5691 238.919 33.8708 240.15 31.8053C241.426 29.6788 242.086 27.2527 242.057 24.7877C242.047 20.7702 240.847 17.554 238.456 15.139ZM235.591 31.3096C234.91 33.0838 233.786 34.6635 232.321 35.9048C231.097 36.9471 229.534 37.5321 227.91 37.5557C225.537 37.5557 223.523 36.3706 221.867 34.0004C220.211 31.6301 219.372 28.717 219.349 25.261C219.319 23.083 219.693 20.9177 220.452 18.8695C221.084 17.0929 222.166 15.5009 223.595 14.2409C224.869 13.1024 226.535 12.4744 228.261 12.4818C230.907 12.4818 232.995 13.6123 234.526 15.8732C236.057 18.1341 236.811 21.1156 236.789 24.8175C236.821 27.0393 236.409 29.2459 235.575 31.3133" fill="#343538"/>
<path d="M282.133 37.3388C278.117 37.3388 276.108 35.8792 276.105 32.9599V24.3882H279.505C282.114 24.3882 283.419 25.7162 283.419 28.3722H284.136V19.6775H283.419C283.419 22.2863 282.114 23.5907 279.505 23.5907H276.105V12.7121H282.812C286.813 12.7121 288.941 14.5619 289.195 18.2613L289.913 18.1533L289.501 11.9258H261.13V12.6413C263.374 12.6413 264.494 13.737 264.492 15.9284V30.0157C258.832 22.659 254.772 17.2029 252.31 13.6476C251.699 12.9022 251.39 12.332 251.39 11.9258H242.039V12.6413C244.219 12.6413 245.315 13.737 245.328 15.9284V34.0406C245.328 36.2444 244.232 37.3451 242.039 37.3426V38.0432H249.536V37.3947C247.305 37.3947 246.196 36.2767 246.209 34.0406V14.7768L263.923 38.0395H265.339V15.9284C265.339 13.7445 266.435 12.6612 268.627 12.6786C270.566 12.8836 271.432 13.9681 271.42 15.9284V34.0742C271.42 36.191 270.306 37.273 268.078 37.3202V38.0395H291.156L291.614 30.5859L290.954 30.5337C290.7 35.068 287.76 37.3351 282.133 37.3351" fill="#343538"/>
<path d="M311.277 11.9258V12.6413C313.325 12.6562 313.559 13.7569 311.979 15.9433L306.466 23.6056L301.506 15.9768C300.077 13.7755 300.459 12.6575 302.651 12.6227V11.9258H291.625V12.6413C293.151 12.6413 294.591 13.737 295.944 15.9284L300.904 23.8068C301.685 25.0491 302.119 25.8441 302.208 26.192C302.454 27.2934 302.564 28.4193 302.537 29.5461V34.0742C302.537 36.2506 301.416 37.3339 299.175 37.3239V38.0395H310.564V37.3239C308.308 37.3239 307.175 36.2407 307.164 34.0742V25.9237C307.132 25.4007 307.169 24.8758 307.275 24.3621C307.364 24.0751 307.508 23.8071 307.699 23.572L312.99 15.9992C314.532 13.7954 316.209 12.6774 318.023 12.6451V11.9258H311.277Z" fill="#343538"/>
<path d="M58.0738 39.3227C57.6705 39.0487 57.1982 38.8876 56.7079 38.8569C56.1847 38.8477 55.6736 39.0119 55.2582 39.3227C55.0526 39.4808 54.8872 39.6832 54.7747 39.9139C54.6622 40.1447 54.6057 40.3976 54.6096 40.6532C54.6096 41.4582 55.1793 42.1849 56.3188 42.8334C57.6465 43.5961 59.3722 43.9775 61.4961 43.9775C64.0139 44.0415 66.4595 43.1521 68.3215 41.4954C70.0536 39.9414 70.9044 36.1624 70.8739 33.5797V16.2165C70.8739 13.6227 72.1673 12.3245 74.754 12.322C77.3407 12.3195 78.6468 13.6177 78.6723 16.2165V33.3226C78.6723 35.9065 77.3662 37.1972 74.754 37.1947V38.0407H101.487V37.1947C98.8574 37.1947 97.5513 35.904 97.5691 33.3226V29.0367H105.2C106.418 29.0654 107.631 28.8526 108.763 28.4113C109.895 27.97 110.925 27.3093 111.789 26.469C112.656 25.6781 113.345 24.719 113.812 23.6531C114.278 22.5872 114.512 21.4379 114.497 20.2788C114.515 19.1131 114.283 17.9567 113.817 16.8837C113.35 15.8107 112.659 14.8447 111.789 14.0475C110.931 13.2127 109.91 12.5548 108.786 12.1131C107.663 11.6713 106.46 11.4547 105.249 11.476H61.4274V12.322C64.0268 12.322 65.3266 13.6202 65.3266 16.2165V38.95C65.3266 41.1339 64.4363 42.4098 62.6559 42.7775C61.5876 42.9489 60.8373 42.857 60.4049 42.5017C59.9527 41.9232 59.5531 41.3071 59.2107 40.6606C58.9365 40.1442 58.5528 39.6906 58.0852 39.3302M97.5844 12.4711H101.22C102.213 12.4581 103.198 12.6507 104.109 13.0361C105.021 13.4215 105.838 13.991 106.508 14.7072C107.974 16.194 108.776 18.1887 108.736 20.2527C108.764 21.2807 108.582 22.3039 108.203 23.2632C107.824 24.2226 107.255 25.0993 106.527 25.8429C105.855 26.5616 105.035 27.1327 104.12 27.5182C103.205 27.9037 102.217 28.0948 101.22 28.079H97.5844V12.4711ZM84.2311 16.2165C84.2311 13.6227 85.5371 12.3245 88.1493 12.322C90.764 12.2525 92.0714 13.5432 92.0714 16.1942V33.3375C92.0866 35.9214 90.7793 37.2121 88.1493 37.2096C85.5193 37.2071 84.2094 35.9114 84.2196 33.3226L84.2311 16.2165Z" fill="#343538"/>
<path d="M3.46442 39.3227C3.06224 39.0493 2.59132 38.8882 2.10238 38.8568C1.57795 38.8477 1.06573 39.0118 0.648778 39.3227C0.443229 39.4808 0.277781 39.6831 0.165292 39.9139C0.0528034 40.1446 -0.00369536 40.3976 0.000187403 40.6531C0.000187403 41.4581 0.572473 42.1849 1.70941 42.8333C3.0422 43.5961 4.76796 43.9775 6.88669 43.9775C9.40448 44.0414 11.8501 43.1521 13.7121 41.4954C15.4443 39.9413 16.2951 36.1623 16.2684 33.5797V16.2165C16.2684 13.6226 17.5605 12.3245 20.1446 12.322C22.7288 12.3195 24.0362 13.6177 24.0667 16.2165V33.3225C24.0667 35.9064 22.7593 37.1972 20.1446 37.1947V38.0407H46.8971V37.1947C44.2697 37.1947 42.9623 35.904 42.975 33.3225V29.0367H50.6055C51.8166 29.0584 53.0198 28.8423 54.1437 28.4012C55.2677 27.9601 56.2895 27.3031 57.1486 26.4689C58.0158 25.6779 58.7043 24.7187 59.17 23.6527C59.6358 22.5868 59.8687 21.4376 59.8536 20.2787C59.8719 19.1133 59.6408 17.957 59.175 16.884C58.7092 15.8109 58.019 14.8448 57.1486 14.0475C56.2897 13.2129 55.268 12.5552 54.1441 12.1135C53.0201 11.6718 51.8168 11.455 50.6055 11.476H6.82183V12.322C9.42382 12.322 10.7235 13.6202 10.721 16.2165V38.95C10.721 41.1339 9.83078 42.4097 8.05034 42.7774C6.98207 42.9489 6.23174 42.8569 5.79935 42.5016C5.3383 41.9212 4.9298 41.3027 4.57847 40.6531C4.29867 40.1348 3.90838 39.6812 3.4339 39.3227M42.975 12.4711H46.6148C47.6072 12.4581 48.5913 12.6507 49.502 13.0361C50.4128 13.4215 51.2297 13.9911 51.8989 14.7071C53.3579 16.197 54.1523 18.1913 54.1079 20.2526C54.1351 21.2807 53.9539 22.3038 53.5748 23.2632C53.1957 24.2226 52.6261 25.0993 51.8989 25.8428C51.2295 26.5587 50.4126 27.1281 49.5019 27.5135C48.5912 27.8989 47.6072 28.0916 46.6148 28.0789H42.975V12.4711ZM29.6217 16.2165C29.6217 13.6226 30.929 12.3245 33.5438 12.322C36.1559 12.2524 37.462 13.5431 37.462 16.1941V33.3374C37.4773 35.9213 36.1712 37.2121 33.5438 37.2096C30.9163 37.2071 29.6052 35.9114 29.6102 33.3225L29.6217 16.2165Z" fill="#343538"/>
</g>
</svg>
