<svg width="620" height="95" viewBox="0 0 620 95" fill="none" xmlns="http://www.w3.org/2000/svg">
<g clip-path="url(#clip0_1173_4884)">
<mask id="mask0_1173_4884" style="mask-type:luminance" maskUnits="userSpaceOnUse" x="0" y="0" width="620" height="95">
<path d="M619.5 0H0.5V95H619.5V0Z" fill="white"/>
</mask>
<g mask="url(#mask0_1173_4884)">
<path d="M314.979 22.4492H279.25V35.3538H322.532C325.843 35.3538 329.018 36.6335 331.359 38.9113C333.7 41.1891 335.016 44.2785 335.016 47.4998C335.016 50.7211 333.7 53.8105 331.359 56.0883C329.018 58.3661 325.843 59.6458 322.532 59.6458H317.482V72.4131C328.339 71.1992 336.791 58.4535 336.791 47.572C336.791 35.8596 327.032 22.4492 315.001 22.4492" fill="white"/>
<path d="M275.461 72.5504H296.634V59.6458H253.353C251.714 59.6458 250.091 59.3316 248.576 58.7211C247.062 58.1106 245.686 57.2158 244.528 56.0879C243.369 54.9599 242.45 53.6209 241.824 52.1473C241.197 50.6738 240.875 49.0945 240.876 47.4998C240.876 44.2804 242.191 41.1929 244.53 38.9164C246.87 36.64 250.044 35.3611 253.353 35.3611H258.403V22.5938C247.553 23.8004 239.094 36.5461 239.094 47.4276C239.094 59.14 248.852 72.5504 260.891 72.5504H275.439H275.461Z" fill="white"/>
<path d="M300.419 59.6462V81.1491C300.46 82.7686 300.167 84.3796 299.558 85.8873C298.949 87.395 298.036 88.769 296.873 89.9284C295.71 91.0878 294.321 92.0091 292.786 92.6381C291.252 93.2672 289.604 93.5913 287.939 93.5913C286.274 93.5913 284.626 93.2672 283.091 92.6381C281.557 92.0091 280.167 91.0878 279.004 89.9284C277.841 88.769 276.929 87.395 276.32 85.8873C275.711 84.3796 275.418 82.7686 275.459 81.1491V76.243H262.336C263.576 86.7994 276.684 95.0291 287.868 95.0291C299.899 95.0291 313.69 85.5421 313.69 73.8297V39.0176H300.419V59.6462Z" fill="white"/>
<path d="M275.461 43.1142V13.8512C275.42 12.2317 275.713 10.6207 276.322 9.11292C276.931 7.60518 277.844 6.23119 279.007 5.07183C280.17 3.91246 281.559 2.99113 283.094 2.36209C284.628 1.73304 286.276 1.40898 287.941 1.40898C289.606 1.40898 291.255 1.73304 292.789 2.36209C294.323 2.99113 295.713 3.91246 296.876 5.07183C298.039 6.23119 298.951 7.60518 299.56 9.11292C300.169 10.6207 300.462 12.2317 300.422 13.8512V18.7861H313.544C312.304 8.20087 299.048 0 287.908 0C275.869 0 262.234 9.49422 262.234 21.1994V55.961H275.498L275.461 43.1142Z" fill="white"/>
<path d="M410.618 65.029V29.9134C410.618 25.6649 412.799 23.5406 417.161 23.5406V22.1533L402.271 22.1172L385.509 62.0666L368.852 25.5276C368.351 24.4525 368.061 23.2959 367.998 22.1172L350.969 22.1533V23.5406C355.336 23.5406 357.519 25.6649 357.519 29.9134V65.029C357.519 69.3932 355.336 71.5729 350.969 71.5681V72.7892H365.599V71.6331C361.262 71.5897 359.106 69.386 359.13 65.0218V27.6519L379.992 72.7097H382.606L401.632 27.6519V65.029C401.632 69.2776 399.427 71.4115 395.015 71.4308V72.7892H417.154V71.4235C412.792 71.4235 410.611 69.2896 410.611 65.0218" fill="white"/>
<path d="M464.654 28.3818C459.931 23.6467 453.398 21.2792 445.055 21.2792C439.94 21.2216 434.901 22.4964 430.462 24.9714C426.3 27.2642 422.864 30.6228 420.526 34.6824C418.246 38.7971 417.087 43.4116 417.161 48.0856C417.091 51.4755 417.745 54.8427 419.08 57.9743C420.416 61.106 422.405 63.9339 424.922 66.2792C430.076 71.2262 436.455 73.6997 444.06 73.6997C448.907 73.7304 453.679 72.53 457.903 70.2171C462.081 67.9911 465.555 64.6985 467.951 60.694C470.436 56.5712 471.72 51.8676 471.665 47.0885C471.645 39.2994 469.308 33.0639 464.654 28.3818ZM459.077 59.733C457.752 63.1727 455.564 66.2353 452.712 68.6419C450.329 70.6629 447.288 71.797 444.127 71.8428C439.508 71.8428 435.587 69.5451 432.363 64.9497C429.14 60.3544 427.507 54.7065 427.462 48.0061C427.404 43.7835 428.131 39.5854 429.608 35.6145C430.84 32.1699 432.944 29.0833 435.728 26.6405C438.207 24.4334 441.45 23.2157 444.81 23.2301C449.959 23.2301 454.024 25.4218 457.005 29.8052C459.985 34.1887 461.453 39.969 461.409 47.1463C461.472 51.4538 460.67 55.7319 459.047 59.7402" fill="white"/>
<path d="M549.686 71.4235C541.868 71.4235 537.957 68.5936 537.952 62.9337V46.3152H544.569C549.649 46.3152 552.189 48.8898 552.189 54.0392H553.585V37.1822H552.189C552.189 42.24 549.649 44.7689 544.569 44.7689H537.952V23.6779H551.008C558.796 23.6779 562.937 27.2641 563.432 34.4366L564.829 34.227L564.026 22.1533H508.803V23.5406C513.17 23.5406 515.351 25.6649 515.346 29.9134V57.2256C504.33 42.9626 496.425 32.3845 491.633 25.4915C490.445 24.0464 489.843 22.9409 489.843 22.1533H471.641V23.5406C475.884 23.5406 478.018 25.6649 478.042 29.9134V65.029C478.042 69.3017 475.908 71.4356 471.641 71.4308V72.7892H486.234V71.5319C481.892 71.5319 479.733 69.3643 479.758 65.029V27.6808L514.239 72.7819H516.994V29.9134C516.994 25.6793 519.128 23.5791 523.396 23.6129C527.169 24.0103 528.854 26.1129 528.832 29.9134V65.0941C528.832 69.1981 526.664 71.2959 522.327 71.3874V72.7819H567.25L568.141 58.3311L566.856 58.2299C566.361 67.0208 560.637 71.4163 549.686 71.4163" fill="white"/>
<path d="M606.41 22.1533V23.5406C610.396 23.5695 610.851 25.7034 607.777 29.9423L597.045 44.7978L587.391 30.0074C584.608 25.7395 585.351 23.5719 589.619 23.5045V22.1533H568.156V23.5406C571.127 23.5406 573.929 25.6649 576.563 29.9134L586.218 45.188C587.737 47.5965 588.584 49.1379 588.757 49.8123C589.235 51.9476 589.449 54.1306 589.396 56.3152V65.0941C589.396 69.3137 587.215 71.4139 582.853 71.3946V72.7819H605.021V71.3946C600.63 71.3946 598.424 69.2945 598.404 65.0941V49.2921C598.341 48.2781 598.414 47.2604 598.62 46.2646C598.793 45.7082 599.073 45.1885 599.444 44.7328L609.745 30.0507C612.745 25.7781 616.01 23.6104 619.54 23.5478V22.1533H606.41Z" fill="white"/>
<path d="M113.541 75.2676C112.756 74.7363 111.836 74.424 110.882 74.3644C109.863 74.3466 108.869 74.6649 108.06 75.2676C107.66 75.5742 107.338 75.9664 107.119 76.4138C106.9 76.8612 106.79 77.3516 106.797 77.8471C106.797 79.4078 107.906 80.8167 110.124 82.074C112.709 83.5528 116.068 84.2922 120.202 84.2922C125.103 84.4162 129.864 82.692 133.488 79.48C136.86 76.467 138.516 69.1404 138.456 64.1332V30.4699C138.456 25.441 140.974 22.9241 146.009 22.9193C151.044 22.9145 153.587 25.4314 153.636 30.4699V63.6347C153.636 68.6443 151.094 71.1467 146.009 71.1419V72.7821H198.047V71.1419C192.927 71.1419 190.385 68.6395 190.42 63.6347V55.3254H205.273C207.645 55.3809 210.005 54.9684 212.209 54.1128C214.413 53.2572 216.417 51.9762 218.098 50.3471C219.787 48.8137 221.129 46.9543 222.037 44.8877C222.945 42.8211 223.399 40.5929 223.371 38.3456C223.405 36.0857 222.954 33.8438 222.046 31.7634C221.138 29.683 219.794 27.8101 218.098 26.2647C216.428 24.6461 214.441 23.3707 212.254 22.5142C210.068 21.6577 207.726 21.2377 205.369 21.2792H120.068V22.9193C125.128 22.9193 127.658 25.4362 127.658 30.4699V74.5451C127.658 78.7792 125.925 81.2527 122.46 81.9656C120.38 82.298 118.92 82.1197 118.078 81.4309C117.198 80.3093 116.42 79.1149 115.754 77.8615C115.22 76.8602 114.473 75.9809 113.563 75.2821M190.449 23.2083H197.527C199.46 23.1832 201.377 23.5565 203.151 24.3037C204.925 25.0509 206.516 26.1551 207.82 27.5436C210.674 30.4263 212.234 34.2935 212.157 38.2951C212.21 40.2882 211.858 42.2718 211.12 44.1319C210.382 45.9919 209.273 47.6916 207.857 49.1332C206.549 50.5267 204.952 51.6338 203.171 52.3812C201.39 53.1286 199.466 53.4992 197.527 53.4685H190.449V23.2083ZM164.457 30.4699C164.457 25.441 166.999 22.9241 172.084 22.9193C177.173 22.7845 179.718 25.2869 179.718 30.4266V63.6636C179.748 68.6732 177.203 71.1756 172.084 71.1708C166.964 71.166 164.415 68.6539 164.434 63.6347L164.457 30.4699Z" fill="white"/>
<path d="M7.24364 75.2675C6.46077 74.7374 5.54412 74.4252 4.59238 74.3643C3.57155 74.3466 2.57448 74.6648 1.76287 75.2675C1.36276 75.5741 1.04071 75.9663 0.821748 76.4137C0.602784 76.8611 0.492807 77.3515 0.500365 77.847C0.500365 79.4077 1.61434 80.8166 3.82744 82.0739C6.42177 83.5527 9.78103 84.2921 13.9052 84.2921C18.8062 84.4161 23.5667 82.6919 27.1913 79.4799C30.5629 76.4669 32.219 69.1403 32.167 64.1331V30.4698C32.167 25.4409 34.6821 22.9241 39.7124 22.9192C44.7426 22.9144 47.2874 25.4313 47.3468 30.4698V63.6346C47.3468 68.6442 44.802 71.1466 39.7124 71.1418V72.782H91.7871V71.1418C86.6727 71.1418 84.1279 68.6394 84.1526 63.6346V55.3253H99.0057C101.363 55.3674 103.705 54.9485 105.893 54.0933C108.081 53.2381 110.07 51.9642 111.742 50.347C113.43 48.8133 114.77 46.9536 115.677 44.887C116.584 42.8204 117.037 40.5924 117.008 38.3455C117.043 36.0861 116.593 33.8443 115.687 31.7639C114.78 29.6835 113.436 27.8104 111.742 26.2646C110.07 24.6465 108.081 23.3714 105.894 22.515C103.706 21.6586 101.364 21.2383 99.0057 21.2791H13.779V22.9192C18.8439 22.9192 21.3738 25.4361 21.3689 30.4698V74.545C21.3689 78.7791 19.636 81.2526 16.1703 81.9655C14.0909 82.2979 12.6303 82.1196 11.7887 81.4308C10.8912 80.3055 10.0961 79.1064 9.41218 77.847C8.86754 76.8421 8.10782 75.9625 7.18423 75.2675M84.1526 23.2083H91.2375C93.1694 23.1832 95.0849 23.5566 96.8578 24.3038C98.6306 25.051 100.221 26.1552 101.523 27.5435C104.363 30.432 105.91 34.2986 105.823 38.295C105.876 40.2881 105.524 42.2718 104.786 44.1318C104.048 45.9918 102.939 47.6915 101.523 49.1331C100.22 50.5211 98.6303 51.625 96.8575 52.3722C95.0847 53.1194 93.1694 53.493 91.2375 53.4684H84.1526V23.2083ZM58.1598 30.4698C58.1598 25.4409 60.7047 22.9241 65.7943 22.9192C70.879 22.7844 73.4213 25.2868 73.4213 30.4265V63.6635C73.451 68.6731 70.9087 71.1755 65.7943 71.1707C60.6799 71.1659 58.1277 68.6538 58.1376 63.6346L58.1598 30.4698Z" fill="white"/>
</g>
</g>
<defs>
<clipPath id="clip0_1173_4884">
<rect width="619" height="95" fill="white" transform="translate(0.5)"/>
</clipPath>
</defs>
</svg>
