<svg width="28" height="29" viewBox="0 0 28 29" fill="none" xmlns="http://www.w3.org/2000/svg">
<path d="M27.9829 25.8704L26.5665 14.0011C26.3825 12.4585 25.0674 11.297 23.5051 11.297H19.6583C19.5055 11.297 19.3814 11.4203 19.3814 11.5723V16.4818C19.3814 19.3391 17.1744 21.7752 14.3057 21.9374C11.7026 22.0846 9.39752 20.3381 8.78095 17.9007L9.70292 17.9001C9.77374 17.9001 9.81796 17.8236 9.78271 17.7627L8.09998 14.8707C8.06441 14.8098 7.97596 14.8098 7.94039 14.8707L6.26278 17.7656C6.22753 17.8268 6.27175 17.9029 6.34258 17.9029L7.26934 17.902C7.90738 21.1592 10.8864 23.5484 14.2852 23.4076C17.981 23.2547 20.8575 20.1427 20.8575 16.4646V12.7647H23.5051C24.3191 12.7647 25.0049 13.3708 25.101 14.1744L26.5117 25.9966C26.544 26.2684 26.4312 26.6677 26.2415 26.8662C26.0467 27.0698 25.7852 27.1817 25.5006 27.1817H2.54737C2.27209 27.1817 1.8869 27.0233 1.71129 26.813C1.53055 26.5967 1.4498 26.3248 1.48312 26.0438L2.89956 14.1744C2.99537 13.3708 3.68148 12.7647 4.49545 12.7647H8.34224C8.4951 12.7647 8.61912 12.6414 8.61912 12.4894V7.57933C8.61912 4.72901 10.8156 2.29676 13.6769 2.12564C16.272 1.97014 18.5745 3.69818 19.2087 6.11864L18.298 6.11928C18.2271 6.11928 18.1829 6.19575 18.2182 6.25661L19.9009 9.14868C19.9365 9.20954 20.0249 9.20954 20.0605 9.14868L21.7381 6.25375C21.7734 6.19257 21.7291 6.11641 21.6583 6.11641L20.7222 6.11736C20.065 2.87638 17.0889 0.506265 13.6981 0.655074C10.0093 0.816948 7.14276 3.92537 7.14276 7.59685V11.297H4.49512C2.9332 11.297 1.61772 12.4588 1.43377 14.0011L0.0173403 25.8704C-0.102191 26.8739 0.401572 27.8846 1.36391 28.3789C1.7286 28.5662 2.13878 28.6484 2.54897 28.6484H25.4509C25.8615 28.6484 26.2716 28.5659 26.636 28.3789C27.5983 27.8846 28.1024 26.8739 27.9826 25.8704H27.9829Z" fill="#9ABECA"/>
</svg>
