<svg width="28" height="41" viewBox="0 0 28 41" fill="none" xmlns="http://www.w3.org/2000/svg">
<g clip-path="url(#clip0_1209_4288)">
<path d="M24.6451 20.6493C24.6451 14.6818 19.7904 9.82671 13.8225 9.82671C11.6302 9.82671 9.58847 10.4826 7.88233 11.6073L8.80452 4.29016L8.81133 4.23699V4.1834C8.81133 3.17358 9.63271 2.3522 10.6425 2.3522H15.4789C16.4892 2.3522 17.3105 3.17358 17.3105 4.1834V4.97117H15.8443L18.1625 8.98661L20.4812 4.97117H19.015V4.1834C19.015 2.23395 17.4292 0.648193 15.4793 0.648193H10.6429C8.71265 0.648193 7.1388 2.20333 7.10817 4.1264L5.96224 13.2177C4.12679 15.1582 3 17.7746 3 20.6493C3 26.6167 7.85511 31.4705 13.8225 31.4705C16.0149 31.4705 18.0562 30.815 19.7628 29.69L18.8406 37.0066L18.8338 37.0594V37.113C18.8338 38.1228 18.0124 38.9446 17.0026 38.9446H12.1662C11.1564 38.9446 10.3346 38.1228 10.3346 37.113V36.3256H11.8012L9.48298 32.3102L7.16474 36.3256H8.63098V37.113C8.63098 39.0624 10.2167 40.6486 12.1662 40.6486H17.0026C18.9329 40.6486 20.5063 39.0935 20.5369 37.1704L21.6829 28.0791C23.5179 26.1394 24.6447 23.5234 24.6447 20.6488L24.6451 20.6493ZM4.57938 20.6493C4.57938 15.5525 8.72583 11.4061 13.8225 11.4061C18.9193 11.4061 23.0657 15.5525 23.0657 20.6493C23.0657 25.746 18.9193 29.892 13.8225 29.892C8.72583 29.892 4.57938 25.7455 4.57938 20.6493Z" fill="#9ABECA"/>
<path d="M18.554 15.3188C18.1852 14.9858 17.6169 15.0147 17.2838 15.3835L13.7814 19.2624L11.8115 17.3682C11.4533 17.0241 10.8842 17.0352 10.5401 17.3929C10.196 17.7511 10.207 18.3202 10.5648 18.6643L13.2037 21.202C13.3717 21.3633 13.5951 21.453 13.8269 21.453C13.8375 21.453 13.8482 21.453 13.8584 21.4526C14.1017 21.4441 14.3309 21.3373 14.4943 21.1565L18.6186 16.589C18.9517 16.2202 18.9223 15.6515 18.5535 15.3188H18.554Z" fill="#9ABECA"/>
</g>
<defs>
<clipPath id="clip0_1209_4288">
<rect width="21.6451" height="40" fill="white" transform="translate(3 0.648438)"/>
</clipPath>
</defs>
</svg>
