<svg width="120" height="120" viewBox="0 0 120 120" fill="none" xmlns="http://www.w3.org/2000/svg">
<path d="M113.683 103.083L108.244 57.5152C107.903 54.6541 106.518 52.017 104.351 50.1034C102.185 48.1898 99.3884 47.1327 96.4908 47.1325H81.7269C81.445 47.1325 81.1746 47.2438 80.9752 47.442C80.7759 47.6403 80.6639 47.9091 80.6639 48.1895V67.038C80.6639 78.0067 72.1906 87.3594 61.1767 87.9821C51.1803 88.5473 42.3305 81.842 39.9609 72.4844H43.5006C43.5627 72.4843 43.6238 72.468 43.6776 72.437C43.7314 72.4061 43.776 72.3616 43.8071 72.308C43.8381 72.2545 43.8544 72.1938 43.8544 72.132C43.8544 72.0702 43.838 72.0094 43.8069 71.9559L37.3452 60.8538C37.3145 60.7996 37.2698 60.7545 37.2158 60.7231C37.1617 60.6917 37.1003 60.6751 37.0377 60.6751C36.9751 60.6751 36.9136 60.6917 36.8596 60.7231C36.8055 60.7545 36.7608 60.7996 36.7301 60.8538L30.2881 71.9682C30.2573 72.0217 30.2411 72.0824 30.2413 72.1441C30.2415 72.2059 30.258 72.2665 30.2891 72.3199C30.3203 72.3733 30.365 72.4176 30.4188 72.4484C30.4726 72.4792 30.5336 72.4954 30.5957 72.4954H34.1538C36.6034 85.002 48.0405 94.1736 61.0894 93.6329C75.2787 93.0456 86.3222 81.0982 86.3222 66.978V52.7673H96.4872C97.9972 52.7676 99.4548 53.3185 100.584 54.3157C101.713 55.313 102.435 56.6872 102.613 58.1783L108.026 103.565C108.149 104.609 107.719 106.142 106.99 106.904C106.625 107.289 106.184 107.595 105.695 107.804C105.206 108.012 104.678 108.118 104.146 108.115H16.0298C14.9729 108.115 13.4941 107.503 12.8186 106.7C12.4774 106.294 12.2237 105.824 12.0732 105.317C11.9227 104.81 11.8787 104.277 11.9439 103.753L17.3807 58.1783C17.5592 56.6871 18.2815 55.3128 19.4106 54.3156C20.5398 53.3184 21.9975 52.7676 23.5077 52.7673H38.2717C38.4112 52.7673 38.5494 52.74 38.6783 52.6868C38.8072 52.6337 38.9243 52.5558 39.0229 52.4577C39.1215 52.3595 39.1997 52.243 39.253 52.1147C39.3063 51.9865 39.3336 51.8491 39.3335 51.7103V32.8594C39.3335 21.9175 47.7661 12.5795 58.7517 11.9213C68.7174 11.3243 77.5548 17.9587 79.9897 27.2514H76.4931C76.4309 27.2515 76.3699 27.2679 76.3161 27.2988C76.2623 27.3298 76.2176 27.3743 76.1866 27.4278C76.1556 27.4814 76.1392 27.5421 76.1393 27.6039C76.1393 27.6657 76.1556 27.7264 76.1867 27.7799L82.6533 38.8845C82.6841 38.9387 82.7288 38.9838 82.7828 39.0152C82.8369 39.0466 82.8983 39.0631 82.9609 39.0631C83.0235 39.0631 83.085 39.0466 83.139 39.0152C83.1931 38.9838 83.2378 38.9387 83.2685 38.8845L89.7093 27.7701C89.7404 27.7167 89.7569 27.656 89.7569 27.5943C89.757 27.5325 89.7406 27.4718 89.7096 27.4183C89.6785 27.3648 89.6338 27.3205 89.5799 27.2897C89.5261 27.2588 89.465 27.2427 89.4029 27.2429H85.8091C83.2845 14.8036 71.8584 5.70416 58.8403 6.27548C44.678 6.89695 33.6727 18.831 33.6727 32.9267V47.1325H23.5077C20.61 47.1322 17.8129 48.1891 15.6466 50.1028C13.4803 52.0164 12.0954 54.6539 11.7544 57.5152L6.31636 103.083C6.08621 105.021 6.45795 106.983 7.38166 108.705C8.30538 110.426 9.73682 111.826 11.4837 112.715C12.8826 113.433 14.4574 113.75 16.036 113.75H103.964C105.539 113.75 107.114 113.433 108.516 112.715C110.263 111.826 111.695 110.427 112.619 108.705C113.542 106.983 113.914 105.021 113.683 103.083Z" fill="#9ABECA"/>
</svg>
