<svg width="48" height="48" viewBox="0 0 48 48" fill="none" xmlns="http://www.w3.org/2000/svg">
  <path d="M37.5361 10.7998H20.3984V17.3084H41.1588C42.747 17.3084 44.2701 17.9538 45.393 19.1026C46.516 20.2515 47.1469 21.8096 47.1469 23.4343C47.1469 25.059 46.516 26.6172 45.393 27.766C44.2701 28.9149 42.747 29.5603 41.1588 29.5603H38.7366V35.9996C43.9445 35.3874 47.9982 28.959 47.9982 23.4708C47.9982 17.5635 43.3175 10.7998 37.5468 10.7998" fill="white" />
  <path d="M18.2025 35.9996H28.7998V29.4901H7.13676C6.31639 29.4901 5.50405 29.3316 4.74617 29.0237C3.98829 28.7157 3.29972 28.2643 2.7198 27.6954C2.13988 27.1264 1.67998 26.4509 1.36638 25.7076C1.05277 24.9643 0.891616 24.1677 0.892104 23.3633C0.892104 21.7393 1.55002 20.1818 2.72112 19.0335C3.89222 17.8852 5.48058 17.2401 7.13676 17.2401H9.66436V10.7998C4.23373 11.4085 0 17.8378 0 23.3268C0 29.235 4.88422 35.9996 10.9096 35.9996H18.1913H18.2025Z" fill="white" />
  <path d="M30.6876 29.8069V40.8632C30.7075 41.6959 30.5639 42.5242 30.265 43.2995C29.9662 44.0747 29.5183 44.7812 28.9477 45.3773C28.377 45.9734 27.6952 46.4472 26.9422 46.7706C26.1893 47.094 25.3805 47.2607 24.5635 47.2607C23.7464 47.2607 22.9376 47.094 22.1847 46.7706C21.4318 46.4472 20.7499 45.9734 20.1793 45.3773C19.6086 44.7812 19.1607 44.0747 18.8619 43.2995C18.5631 42.5242 18.4194 41.6959 18.4393 40.8632V38.3406H12C12.6086 43.7684 19.0406 48 24.5289 48C30.4325 48 37.1998 43.122 37.1998 37.0998V19.2002H30.6876V29.8069Z" fill="white" />
  <path d="M18.496 21.2638V6.83135C18.4761 6.03263 18.6199 5.23808 18.9189 4.49447C19.218 3.75086 19.6663 3.07321 20.2374 2.50141C20.8086 1.92961 21.491 1.47522 22.2446 1.16498C22.9982 0.854732 23.8077 0.694906 24.6255 0.694906C25.4432 0.694906 26.2527 0.854732 27.0063 1.16498C27.7599 1.47522 28.4423 1.92961 29.0135 2.50141C29.5846 3.07321 30.0329 3.75086 30.332 4.49447C30.631 5.23808 30.7748 6.03263 30.7549 6.83135V9.26527H37.1998C36.5907 4.04465 30.0801 0 24.609 0C18.6966 0 12 4.68252 12 10.4555V27.5998H18.5142L18.496 21.2638Z" fill="white" />
</svg>
