<svg width="121" height="120" viewBox="0 0 121 120" fill="none" xmlns="http://www.w3.org/2000/svg">
<path d="M92.9297 60.0019C92.9297 42.0996 78.2377 27.5343 60.1797 27.5343C53.7889 27.5277 47.5375 29.3854 42.2041 32.876L44.9934 10.9272L45.014 10.7677V10.6056C45.0174 9.15003 45.6027 7.75514 46.6416 6.7266C47.6806 5.69806 49.0884 5.11976 50.5567 5.11841H65.1907C66.6601 5.11976 68.0689 5.69894 69.108 6.72886C70.1471 7.75878 70.7317 9.1553 70.7334 10.612V12.9753H66.3029L73.3181 25.0216L80.3332 12.9753H75.8899V10.6056C75.8868 7.79354 74.7585 5.09754 72.7527 3.10922C70.7468 1.1209 68.0273 0.00270227 65.1907 0L50.5567 0C47.7502 0.00293313 45.057 1.09791 43.0566 3.04935C41.0561 5.00079 39.9083 7.65274 39.8601 10.4346L36.3924 37.7086C30.6323 43.7257 27.4237 51.7064 27.4297 60.0019C27.4297 77.9042 42.1217 92.4657 60.1797 92.4657C66.5703 92.4727 72.8218 90.6154 78.1553 87.1253L75.3647 109.074L75.3441 109.232V109.393C75.3427 110.849 74.7594 112.244 73.7219 113.274C72.6844 114.304 71.2774 114.885 69.8092 114.888H55.1674C53.698 114.886 52.2893 114.307 51.2505 113.277C50.2116 112.246 49.6274 110.85 49.626 109.393V107.032H54.063L47.0478 94.9847L40.0326 107.032H44.4695V109.394C44.4729 112.206 45.6011 114.902 47.6066 116.89C49.6121 118.878 52.3312 119.997 55.1674 120H69.804C72.61 119.996 75.3024 118.901 77.3025 116.95C79.3025 114.999 80.4504 112.348 80.4993 109.567L83.967 82.2927C89.7273 76.2768 92.9359 68.2967 92.9297 60.0019ZM32.209 60.0019C32.209 44.7118 44.7566 32.2724 60.1797 32.2724C75.6028 32.2724 88.1504 44.7118 88.1504 60.0019C88.1504 75.2921 75.6028 87.7301 60.1797 87.7301C44.7566 87.7301 32.209 75.2895 32.209 60.0019Z" fill="#9ABECA"/>
<path d="M74.5177 44.0114C74.2527 43.7738 73.943 43.5903 73.6064 43.4714C73.2698 43.3526 72.9128 43.3007 72.556 43.3187C72.1991 43.3367 71.8494 43.4243 71.5267 43.5764C71.204 43.7286 70.9147 43.9423 70.6754 44.2053L60.0767 55.842L54.1157 50.1583C53.5954 49.6623 52.8977 49.3915 52.1761 49.4055C51.4544 49.4195 50.7679 49.7172 50.2676 50.2329C49.7673 50.7487 49.4942 51.4404 49.5083 52.1559C49.5225 52.8713 49.8227 53.5518 50.3429 54.0478L58.3235 61.661C58.8309 62.144 59.5071 62.4138 60.2106 62.4139H60.3058C60.6706 62.4006 61.029 62.3146 61.3596 62.1612C61.6902 62.0077 61.9862 61.7899 62.2302 61.5206L74.7095 47.8179C75.1929 47.2878 75.4442 46.5891 75.4082 45.8753C75.3723 45.1615 75.052 44.4911 74.5177 44.0114Z" fill="#9ABECA"/>
</svg>
