<svg width="47" height="46" viewBox="0 0 47 46" fill="none" xmlns="http://www.w3.org/2000/svg">
<g clip-path="url(#clip0_1242_4548)">
<path d="M35.5961 23.0007C35.5961 16.1382 30.0108 10.5548 23.1457 10.5548C20.7162 10.5523 18.3396 11.2644 16.312 12.6025L17.3724 4.18876L17.3803 4.12761V4.06549C17.3816 3.50751 17.6041 2.9728 17.999 2.57853C18.394 2.18426 18.9292 1.96257 19.4874 1.96206H25.0507C25.6093 1.96258 26.1449 2.18459 26.54 2.5794C26.935 2.9742 27.1572 3.50953 27.1579 4.06793V4.97387H25.4735L28.1405 9.59163L30.8074 4.97387H29.1182V4.06549C29.117 2.98752 28.6881 1.95406 27.9255 1.19187C27.163 0.42968 26.1291 0.00103587 25.0507 0L19.4874 0C18.4205 0.00112437 17.3966 0.420867 16.6361 1.16892C15.8756 1.91697 15.4393 2.93355 15.4209 3.99994L14.1026 14.4549C11.9128 16.7615 10.693 19.8208 10.6953 23.0007C10.6953 29.8633 16.2807 35.4452 23.1457 35.4452C25.5752 35.4479 27.9518 34.7359 29.9794 33.398L28.9185 41.8117L28.9107 41.8724V41.934C28.9102 42.492 28.6884 43.027 28.294 43.4218C27.8996 43.8167 27.3647 44.0391 26.8065 44.0404H21.2402C20.6816 44.0397 20.1461 43.8176 19.7511 43.4227C19.3562 43.0278 19.1341 42.4924 19.1336 41.934V41.0291H20.8204L18.1534 36.4108L15.4865 41.0291H17.1733V41.9345C17.1746 43.0124 17.6035 44.0457 18.3659 44.8078C19.1283 45.57 20.162 45.9987 21.2402 46H26.8046C27.8713 45.9986 28.8949 45.5789 29.6552 44.8309C30.4156 44.083 30.8519 43.0667 30.8705 42.0006L32.1888 31.5455C34.3787 29.2394 35.5985 26.1804 35.5961 23.0007ZM12.5123 23.0007C12.5123 17.1395 17.2824 12.3711 23.1457 12.3711C29.0091 12.3711 33.7792 17.1395 33.7792 23.0007C33.7792 28.862 29.0091 33.6299 23.1457 33.6299C17.2824 33.6299 12.5123 28.861 12.5123 23.0007Z" fill="url(#paint0_linear_1242_4548)"/>
<path d="M28.5938 16.871C28.4931 16.7799 28.3753 16.7096 28.2474 16.664C28.1194 16.6185 27.9837 16.5986 27.8481 16.6055C27.7124 16.6124 27.5794 16.6459 27.4567 16.7043C27.3341 16.7626 27.2241 16.8445 27.1331 16.9453L23.1039 21.4061L20.8377 19.2273C20.6399 19.0372 20.3747 18.9334 20.1003 18.9388C19.826 18.9441 19.565 19.0582 19.3748 19.2559C19.1846 19.4537 19.0808 19.7188 19.0861 19.993C19.0915 20.2673 19.2056 20.5282 19.4034 20.7183L22.4374 23.6367C22.6303 23.8219 22.8873 23.9253 23.1547 23.9253H23.191C23.3296 23.9202 23.4659 23.8873 23.5916 23.8284C23.7172 23.7696 23.8298 23.6861 23.9225 23.5829L28.6667 18.3302C28.8505 18.127 28.946 17.8591 28.9324 17.5855C28.9187 17.3119 28.7969 17.0549 28.5938 16.871Z" fill="url(#paint1_linear_1242_4548)"/>
</g>
<defs>
<linearGradient id="paint0_linear_1242_4548" x1="10.6953" y1="4.02838" x2="34.3504" y2="5.23366" gradientUnits="userSpaceOnUse">
<stop/>
<stop offset="1" stop-color="#546C83"/>
</linearGradient>
<linearGradient id="paint1_linear_1242_4548" x1="19.0859" y1="17.2453" x2="28.3173" y2="18.414" gradientUnits="userSpaceOnUse">
<stop/>
<stop offset="1" stop-color="#546C83"/>
</linearGradient>
<clipPath id="clip0_1242_4548">
<rect x="0.265625" width="46" height="46" rx="5" fill="white"/>
</clipPath>
</defs>
</svg>
