<svg width="47" height="46" viewBox="0 0 47 46" fill="none" xmlns="http://www.w3.org/2000/svg">
<g clip-path="url(#clip0_1242_4242)">
<path d="M44.3469 39.515L42.2618 22.0472C42.1309 20.9504 41.6 19.9395 40.7696 19.206C39.9392 18.4724 38.8671 18.0672 37.7564 18.0671H32.0969C31.9888 18.0671 31.8852 18.1098 31.8087 18.1858C31.7323 18.2618 31.6894 18.3648 31.6894 18.4723V25.6976C31.6894 29.9023 28.4413 33.4874 24.2193 33.7262C20.3873 33.9428 16.9949 31.3724 16.0866 27.7854H17.4435C17.4673 27.7853 17.4907 27.7791 17.5113 27.7672C17.5319 27.7553 17.549 27.7383 17.5609 27.7178C17.5728 27.6972 17.5791 27.674 17.5791 27.6503C17.5791 27.6266 17.5728 27.6033 17.5609 27.5828L15.0839 23.327C15.0721 23.3062 15.055 23.2889 15.0343 23.2769C15.0136 23.2648 14.99 23.2585 14.966 23.2585C14.942 23.2585 14.9184 23.2648 14.8977 23.2769C14.877 23.2889 14.8599 23.3062 14.8481 23.327L12.3787 27.5875C12.3668 27.608 12.3607 27.6313 12.3607 27.6549C12.3608 27.6786 12.3671 27.7018 12.3791 27.7223C12.391 27.7428 12.4081 27.7598 12.4288 27.7716C12.4494 27.7834 12.4728 27.7896 12.4966 27.7896H13.8605C14.7995 32.5838 19.1838 36.0996 24.1858 35.8923C29.6251 35.6672 33.8584 31.0873 33.8584 25.6746V20.2271H37.755C38.3338 20.2273 38.8926 20.4384 39.3253 20.8207C39.7581 21.203 40.0349 21.7298 40.1032 22.3014L42.1784 39.6998C42.2255 40.0998 42.0604 40.6874 41.7812 40.9795C41.6413 41.1272 41.4722 41.2446 41.2846 41.3245C41.097 41.4043 40.8949 41.445 40.6908 41.4438H6.91299C6.50786 41.4438 5.94097 41.2093 5.68204 40.9012C5.55124 40.7458 5.45397 40.5654 5.39628 40.371C5.33859 40.1767 5.32172 39.9726 5.34672 39.7715L7.43083 22.3014C7.49927 21.7297 7.77613 21.2029 8.20898 20.8207C8.64182 20.4384 9.20061 20.2272 9.77953 20.2271H15.439C15.4925 20.2271 15.5455 20.2167 15.5949 20.1963C15.6443 20.1759 15.6892 20.1461 15.727 20.1084C15.7648 20.0708 15.7948 20.0261 15.8152 19.977C15.8356 19.9278 15.8461 19.8752 15.8461 19.822V12.5958C15.8461 8.40139 19.0786 4.82182 23.2897 4.56952C27.1099 4.34067 30.4976 6.88384 31.4309 10.4461H30.0906C30.0668 10.4461 30.0434 10.4524 30.0227 10.4642C30.0021 10.4761 29.985 10.4931 29.9731 10.5137C29.9612 10.5342 29.9549 10.5575 29.9549 10.5812C29.955 10.6049 29.9612 10.6281 29.9731 10.6486L32.452 14.9054C32.4638 14.9262 32.4809 14.9435 32.5016 14.9555C32.5224 14.9675 32.5459 14.9739 32.5699 14.9739C32.5939 14.9739 32.6175 14.9675 32.6382 14.9555C32.6589 14.9435 32.676 14.9262 32.6878 14.9054L35.1568 10.6449C35.1687 10.6244 35.175 10.6012 35.1751 10.5775C35.1751 10.5538 35.1688 10.5305 35.1569 10.51C35.145 10.4895 35.1278 10.4725 35.1072 10.4607C35.0866 10.4489 35.0632 10.4427 35.0394 10.4428H33.6617C32.694 5.67439 28.314 2.18627 23.3237 2.40527C17.8948 2.64351 13.6761 7.21821 13.6761 12.6216V18.0671H9.77953C8.66874 18.067 7.59652 18.4722 6.7661 19.2057C5.93569 19.9393 5.40481 20.9503 5.27409 22.0472L3.1895 39.515C3.10127 40.2579 3.24378 41.0098 3.59787 41.6698C3.95196 42.3298 4.50068 42.8662 5.17033 43.2071C5.70657 43.4824 6.31025 43.6038 6.91534 43.6038H40.621C41.2247 43.6038 41.8284 43.4824 42.3661 43.2071C43.0358 42.8663 43.5846 42.3299 43.9387 41.6699C44.2928 41.0099 44.4353 40.2579 44.3469 39.515Z" fill="url(#paint0_linear_1242_4242)"/>
</g>
<defs>
<linearGradient id="paint0_linear_1242_4242" x1="3.16406" y1="6.00427" x2="42.0677" y2="9.66609" gradientUnits="userSpaceOnUse">
<stop/>
<stop offset="1" stop-color="#546C83"/>
</linearGradient>
<clipPath id="clip0_1242_4242">
<rect x="0.765625" width="46" height="46" rx="5" fill="white"/>
</clipPath>
</defs>
</svg>
