<svg width="48" height="48" viewBox="0 0 48 48" fill="none" xmlns="http://www.w3.org/2000/svg">
  <path d="M37.5361 10.7997H20.3984V17.3083H41.1588C42.747 17.3083 44.2701 17.9537 45.393 19.1025C46.516 20.2514 47.1469 21.8095 47.1469 23.4342C47.1469 25.0589 46.516 26.6171 45.393 27.7659C44.2701 28.9147 42.747 29.5602 41.1588 29.5602H38.7366V35.9995C43.9445 35.3873 47.9982 28.9589 47.9982 23.4707C47.9982 17.5634 43.3175 10.7997 37.5468 10.7997" fill="#212322" />
  <path d="M18.2025 35.9995H28.7998V29.49H7.13676C6.31639 29.49 5.50405 29.3315 4.74617 29.0235C3.98829 28.7156 3.29972 28.2642 2.7198 27.6953C2.13988 27.1263 1.67998 26.4508 1.36638 25.7075C1.05277 24.9642 0.891616 24.1676 0.892104 23.3631C0.892104 21.7392 1.55002 20.1817 2.72112 19.0334C3.89222 17.8851 5.48058 17.24 7.13676 17.24H9.66436V10.7997C4.23373 11.4084 0 17.8377 0 23.3267C0 29.2348 4.88422 35.9995 10.9096 35.9995H18.1913H18.2025Z" fill="#212322" />
  <path d="M30.6876 29.8067V40.863C30.7075 41.6957 30.5639 42.524 30.265 43.2992C29.9662 44.0745 29.5183 44.781 28.9477 45.3771C28.377 45.9732 27.6952 46.4469 26.9422 46.7704C26.1893 47.0938 25.3805 47.2604 24.5635 47.2604C23.7464 47.2604 22.9376 47.0938 22.1847 46.7704C21.4318 46.4469 20.7499 45.9732 20.1793 45.3771C19.6086 44.781 19.1607 44.0745 18.8619 43.2992C18.5631 42.524 18.4194 41.6957 18.4393 40.863V38.3404H12C12.6086 43.7682 19.0406 47.9998 24.5289 47.9998C30.4325 47.9998 37.1998 43.1218 37.1998 37.0995V19.2H30.6876V29.8067Z" fill="#212322" />
  <path d="M18.496 21.2638V6.83135C18.4761 6.03263 18.6199 5.23808 18.9189 4.49447C19.218 3.75086 19.6663 3.07321 20.2374 2.50141C20.8086 1.92961 21.491 1.47522 22.2446 1.16498C22.9982 0.854732 23.8077 0.694906 24.6255 0.694906C25.4432 0.694906 26.2527 0.854732 27.0063 1.16498C27.7599 1.47522 28.4423 1.92961 29.0135 2.50141C29.5846 3.07321 30.0329 3.75086 30.332 4.49447C30.631 5.23808 30.7748 6.03263 30.7549 6.83135V9.26527H37.1998C36.5907 4.04465 30.0801 0 24.609 0C18.6966 0 12 4.68252 12 10.4555V27.5998H18.5142L18.496 21.2638Z" fill="#212322" />
</svg>
