<svg width="309" height="25" viewBox="0 0 309 25" fill="none" xmlns="http://www.w3.org/2000/svg">
<path d="M3.30187 17.9944V18.125C3.30187 18.9423 2.66745 19.6029 1.85016 19.6029C1.03286 19.6029 0.398438 18.9423 0.398438 18.125V2.10016C0.398438 1.28286 1.03286 0.648438 1.85016 0.648438C2.66745 0.648438 3.30187 1.28286 3.30187 2.10016V7.30246C4.4625 6.24632 5.99632 5.63802 7.68315 5.63802C11.486 5.63802 14.3633 8.72805 14.3633 12.6316C14.3633 16.5352 11.486 19.629 7.68315 19.629C5.99259 19.629 4.4625 19.0207 3.30187 17.9907V17.9944ZM11.4337 12.6354C11.4337 10.1798 9.63868 8.33247 7.36967 8.33247C5.10066 8.33247 3.38398 10.1014 3.30561 12.4488V12.6354C3.30561 15.091 5.10066 16.9383 7.36967 16.9383C9.63868 16.9383 11.4337 15.091 11.4337 12.6354Z" fill="#546C83"/>
<path d="M27.0302 17.9943C25.8695 19.0243 24.3395 19.6326 22.6489 19.6326C18.8461 19.6326 15.9688 16.5425 15.9688 12.6352C15.9688 8.7279 18.8461 5.6416 22.6489 5.6416C24.3395 5.6416 25.8695 6.2499 27.0302 7.30604V7.11944C27.0302 6.30215 27.6646 5.66772 28.4819 5.66772C29.2992 5.66772 29.9336 6.30215 29.9336 7.11944V18.1286C29.9336 18.9459 29.2992 19.6065 28.4819 19.6065C27.6646 19.6065 27.0302 18.9459 27.0302 18.1286V17.998V17.9943ZM27.0302 12.6352V12.4486C26.9257 10.0975 25.1829 8.33232 22.9661 8.33232C20.7493 8.33232 18.902 10.1796 18.902 12.6352C18.902 15.0908 20.6971 16.9381 22.9661 16.9381C25.2351 16.9381 27.0302 15.0908 27.0302 12.6352Z" fill="#546C83"/>
<path d="M32.1016 12.6352C32.1016 8.7279 34.9789 5.6416 38.7817 5.6416C40.4723 5.6416 42.0024 6.2499 43.163 7.30604V7.11944C43.163 6.30215 43.7974 5.66772 44.6147 5.66772C45.432 5.66772 46.0664 6.30215 46.0664 7.11944V17.6509C46.0664 21.6105 42.898 24.6483 38.9384 24.6483C36.6956 24.6483 34.9266 23.6966 33.8966 22.536C33.6317 22.2188 33.4749 21.8493 33.4749 21.5583C33.4749 20.741 34.1093 20.1849 34.9005 20.1849C35.4827 20.1849 35.7962 20.5282 36.1694 20.8455C36.8822 21.506 37.7778 21.9538 38.9422 21.9538C41.2373 21.9538 42.9801 20.1849 43.1406 17.9943C41.98 19.0243 40.476 19.6326 38.7854 19.6326C34.9826 19.6326 32.1053 16.5425 32.1053 12.6352H32.1016ZM43.163 12.8181V12.6315C43.163 10.1759 41.3679 8.32859 39.0989 8.32859C36.8299 8.32859 35.0349 10.1759 35.0349 12.6315C35.0349 15.0871 36.8299 16.9344 39.0989 16.9344C41.3679 16.9344 43.0585 15.1916 43.163 12.8181Z" fill="#546C83"/>
<path d="M50.1558 5.90299C50.5514 2.65621 52.9809 0.648438 56.097 0.648438C56.8359 0.648438 57.4442 1.25674 57.4442 1.99566C57.4442 2.73458 56.8359 3.34289 56.097 3.34289C54.5669 3.34289 53.4026 4.21616 53.0891 5.90299H56.097C56.8359 5.90299 57.4442 6.48517 57.4442 7.25021C57.4442 8.01526 56.8359 8.59744 56.097 8.59744H53.007V18.1288C53.007 18.9461 52.3464 19.6066 51.5553 19.6066C50.7641 19.6066 50.1036 18.9461 50.1036 18.1288V8.59744H49.1519C48.3869 8.59744 47.8047 7.98913 47.8047 7.25021C47.8047 6.51129 48.3869 5.90299 49.1519 5.90299H50.1558Z" fill="#546C83"/>
<path d="M57.3047 12.6352C57.3047 8.7279 60.2865 5.6416 64.302 5.6416C68.3176 5.6416 71.2994 8.73163 71.2994 12.6352C71.2994 16.5388 68.3437 19.6326 64.302 19.6326C60.2604 19.6326 57.3047 16.5425 57.3047 12.6352ZM68.3661 12.6352C68.3661 10.258 66.6233 8.33232 64.302 8.33232C61.9808 8.33232 60.238 10.258 60.238 12.6352C60.238 15.0125 61.9808 16.9381 64.302 16.9381C66.6233 16.9381 68.3661 14.9826 68.3661 12.6352Z" fill="#546C83"/>
<path d="M73.4688 11.8145C73.4688 8.06393 75.9766 5.63818 79.41 5.63818C80.1489 5.63818 80.7572 6.22036 80.7572 6.98541C80.7572 7.75045 80.1489 8.33263 79.41 8.33263C77.6672 8.33263 76.3759 9.49326 76.3759 11.8182V18.1289C76.3759 18.9462 75.7415 19.6068 74.9242 19.6068C74.1069 19.6068 73.4725 18.9462 73.4725 18.1289V11.8182L73.4688 11.8145Z" fill="#546C83"/>
<path d="M81.1172 12.6352C81.1172 8.7279 84.099 5.6416 88.1145 5.6416C90.3313 5.6416 92.1786 6.59324 93.1825 7.77999C93.4475 8.09721 93.6042 8.46667 93.6042 8.78388C93.6042 9.57505 92.9959 10.1311 92.1786 10.1311C91.5964 10.1311 91.3091 9.84001 90.9359 9.5228C90.2753 8.86225 89.3797 8.33605 88.1108 8.33605C85.8418 8.33605 84.0467 10.2356 84.0467 12.639C84.0467 15.0423 85.8418 16.9419 88.1108 16.9419C89.3237 16.9419 90.2753 16.4157 90.9098 15.7551C91.2792 15.4379 91.5964 15.0946 92.1786 15.0946C92.9959 15.0946 93.6042 15.6767 93.6042 16.494C93.6042 16.7851 93.4475 17.1546 93.1825 17.4457C92.1786 18.6585 90.3574 19.6363 88.1145 19.6363C84.1027 19.6363 81.1172 16.5463 81.1172 12.639V12.6352Z" fill="#546C83"/>
<path d="M106.116 17.9943C104.955 19.0243 103.422 19.6326 101.735 19.6326C97.932 19.6326 95.0547 16.5425 95.0547 12.6352C95.0547 8.7279 97.932 5.6416 101.735 5.6416C103.425 5.6416 104.955 6.2499 106.116 7.30604V7.11944C106.116 6.30215 106.751 5.66772 107.568 5.66772C108.385 5.66772 109.02 6.30215 109.02 7.11944V18.1286C109.02 18.9459 108.385 19.6065 107.568 19.6065C106.751 19.6065 106.116 18.9459 106.116 18.1286V17.998V17.9943ZM106.116 12.6352V12.4486C106.012 10.0975 104.269 8.33232 102.052 8.33232C99.8353 8.33232 97.988 10.1796 97.988 12.6352C97.988 15.0908 99.783 16.9381 102.052 16.9381C104.321 16.9381 106.116 15.0908 106.116 12.6352Z" fill="#546C83"/>
<path d="M112.501 15.117C112.923 15.117 113.292 15.3035 113.505 15.6432C113.901 16.2253 114.457 17.0165 115.591 17.0165C116.461 17.0165 117.095 16.3559 117.095 15.5909C117.095 14.5086 116.091 14.0869 114.852 13.6652C113.188 13.0831 111.314 12.3703 111.314 9.65342C111.314 7.41053 113.162 5.6416 115.591 5.6416C117.834 5.6416 119.894 7.01495 119.894 8.67565C119.894 9.41457 119.286 9.97063 118.547 9.97063C118.256 9.97063 117.886 9.86613 117.703 9.49667C117.256 8.9966 116.621 8.22782 115.591 8.22782C114.696 8.22782 114.113 8.88838 114.113 9.65342C114.113 10.7357 115.222 11.079 116.569 11.5268C118.177 12.0269 120.002 12.8741 120.002 15.5125C120.002 17.7293 118.077 19.6326 115.595 19.6326C113.244 19.6326 111.188 18.1025 111.188 16.4642C111.188 15.7253 111.77 15.117 112.509 15.117H112.501Z" fill="#546C83"/>
<path d="M122.141 2.10016C122.141 1.28286 122.775 0.648438 123.592 0.648438C124.41 0.648438 125.044 1.28286 125.044 2.10016V6.79865C125.887 6.1381 127.026 5.63802 128.395 5.63802C131.538 5.63802 134.019 8.01526 134.019 11.7882V18.125C134.019 18.9423 133.359 19.6029 132.568 19.6029C131.776 19.6029 131.116 18.9423 131.116 18.125V11.6837C131.116 9.46697 129.769 8.33247 128.082 8.33247C126.395 8.33247 125.048 9.46697 125.048 11.6837V18.125C125.048 18.9423 124.413 19.6029 123.596 19.6029C122.779 19.6029 122.144 18.9423 122.144 18.125V2.10016H122.141Z" fill="#546C83"/>
<path d="M73.1953 22.932C73.1953 21.9804 73.9604 21.2153 74.912 21.2153C75.8636 21.2153 76.6287 21.9804 76.6287 22.932C76.6287 23.8837 75.8636 24.6487 74.912 24.6487C73.9604 24.6487 73.1953 23.8575 73.1953 22.932Z" fill="#9ABECA"/>
<path d="M222.496 5.9039C222.89 2.68593 225.296 0.697754 228.383 0.697754C229.116 0.697754 229.715 1.30035 229.715 2.03004C229.715 2.75972 229.112 3.36641 228.383 3.36641C226.866 3.36641 225.714 4.23137 225.399 5.9039H228.383C229.116 5.9039 229.715 6.4778 229.715 7.23618C229.715 7.99455 229.112 8.57256 228.383 8.57256H225.321V18.0174C225.321 18.8291 224.665 19.485 223.882 19.485C223.099 19.485 222.443 18.8291 222.443 18.0174V8.57256H221.5C220.742 8.57256 220.164 7.96996 220.164 7.23618C220.164 6.5024 220.738 5.9039 221.5 5.9039H222.496Z" fill="#546C83"/>
<path d="M286.425 15.0371C286.843 15.0371 287.208 15.2215 287.417 15.5618C287.811 16.1357 288.36 16.9228 289.483 16.9228C290.348 16.9228 290.975 16.2669 290.975 15.5085C290.975 14.4345 289.983 14.0163 288.749 13.5982C287.102 13.0243 285.245 12.3151 285.245 9.62185C285.245 7.39592 287.077 5.64551 289.483 5.64551C291.705 5.64551 293.746 7.00649 293.746 8.65442C293.746 9.3882 293.144 9.9375 292.41 9.9375C292.123 9.9375 291.754 9.83092 291.574 9.46608C291.127 8.97007 290.5 8.21169 289.479 8.21169C288.589 8.21169 288.012 8.86758 288.012 9.62596C288.012 10.7 289.11 11.0402 290.446 11.483C292.041 11.979 293.849 12.8193 293.849 15.4347C293.849 17.6319 291.938 19.5176 289.479 19.5176C287.151 19.5176 285.109 18.0009 285.109 16.3776C285.109 15.6438 285.683 15.0412 286.417 15.0412" fill="#546C83"/>
<path d="M188.609 5.66602H189.875C190.298 5.66602 190.65 5.80539 190.929 6.08005C191.208 6.3547 191.347 6.69905 191.347 7.11308C191.347 7.52711 191.208 7.89195 190.929 8.1748C190.65 8.46176 190.298 8.60114 189.875 8.60114H188.609V18.087C188.609 18.501 188.469 18.8454 188.191 19.12C187.912 19.3947 187.564 19.534 187.15 19.534C186.736 19.534 186.387 19.3947 186.1 19.12C185.817 18.8454 185.674 18.501 185.674 18.087V8.60114H184.612C184.407 8.60114 184.215 8.56014 184.038 8.48225C183.862 8.40436 183.706 8.29369 183.575 8.15841C183.444 8.01903 183.337 7.86326 183.259 7.68699C183.182 7.51072 183.141 7.31804 183.141 7.11308C183.141 6.69905 183.284 6.3547 183.567 6.08005C183.854 5.80539 184.202 5.66602 184.612 5.66602H185.674V2.09551C185.674 1.68147 185.817 1.33713 186.1 1.06247C186.387 0.787819 186.736 0.648438 187.15 0.648438C187.564 0.648438 187.908 0.787819 188.191 1.06247C188.469 1.33713 188.609 1.68147 188.609 2.09551V5.66602Z" fill="#546C83"/>
<path d="M195.138 12.6428L195.121 12.6715L195.138 12.6879C195.138 13.1881 195.232 13.68 195.425 14.1555C195.617 14.6351 195.884 15.0614 196.228 15.4386C196.572 15.8157 196.978 16.1232 197.446 16.3527C197.913 16.5823 198.421 16.7053 198.97 16.7135C199.471 16.734 199.954 16.6725 200.417 16.5372C200.881 16.3978 201.332 16.1437 201.774 15.7706C201.922 15.6517 202.082 15.537 202.254 15.4222C202.426 15.3074 202.606 15.2295 202.799 15.1844C202.992 15.1393 203.197 15.1434 203.418 15.1926C203.639 15.2418 203.869 15.3689 204.102 15.578C204.258 15.7173 204.377 15.8772 204.455 16.0658C204.533 16.2543 204.57 16.4429 204.566 16.6397C204.562 16.8365 204.512 17.0373 204.426 17.2382C204.336 17.4391 204.205 17.6276 204.029 17.808C203.43 18.427 202.713 18.8984 201.877 19.2182C201.04 19.5379 200.159 19.6978 199.237 19.6978C198.253 19.6978 197.331 19.5174 196.47 19.1608C195.609 18.8 194.859 18.3081 194.211 17.685C193.568 17.0619 193.06 16.324 192.687 15.4714C192.314 14.6228 192.125 13.7087 192.125 12.7371V12.7207L192.141 12.692L192.125 12.6756C192.125 11.6918 192.314 10.7735 192.687 9.91679C193.06 9.06003 193.568 8.31395 194.211 7.67446C194.855 7.03496 195.609 6.53075 196.47 6.16181C197.331 5.79287 198.253 5.6084 199.237 5.6084C200.159 5.6084 201.04 5.76827 201.877 6.08802C202.713 6.40777 203.43 6.87919 204.029 7.49819C204.205 7.67446 204.34 7.86303 204.426 8.06799C204.516 8.26886 204.562 8.46973 204.566 8.67469C204.57 8.87556 204.533 9.07233 204.455 9.2568C204.377 9.44537 204.258 9.60524 204.102 9.74462C203.865 9.94958 203.639 10.0808 203.418 10.13C203.197 10.1791 202.992 10.1791 202.799 10.13C202.606 10.0808 202.426 9.99878 202.254 9.8881C202.082 9.77332 201.922 9.65853 201.774 9.53965C201.332 9.17481 200.881 8.92475 200.417 8.78947C199.954 8.6501 199.475 8.58861 198.97 8.59681C198.429 8.6173 197.925 8.74029 197.458 8.97395C196.991 9.20351 196.585 9.51096 196.24 9.8881C195.896 10.2652 195.626 10.6957 195.429 11.1712C195.232 11.6467 195.134 12.1427 195.134 12.6551L195.138 12.6428Z" fill="#546C83"/>
<path d="M209.63 7.29775C210.163 6.78533 210.749 6.3754 211.389 6.07615C212.028 5.7728 212.7 5.62522 213.397 5.62522C214.254 5.62522 215.037 5.7974 215.746 6.14174C216.455 6.48608 217.062 6.9616 217.562 7.56831C218.066 8.17501 218.456 8.89239 218.738 9.72455C219.017 10.5567 219.161 11.4668 219.161 12.4506V18.12C219.161 18.534 219.021 18.8783 218.738 19.153C218.456 19.4277 218.107 19.567 217.693 19.567C217.279 19.567 216.931 19.4318 216.648 19.153C216.365 18.8783 216.226 18.534 216.226 18.12V12.5162C216.226 11.9259 216.156 11.3889 216.012 10.9011C215.869 10.4132 215.664 9.99511 215.394 9.64667C215.123 9.29822 214.791 9.02767 214.397 8.8432C214.004 8.65463 213.561 8.56444 213.069 8.56444C212.577 8.56444 212.139 8.65873 211.729 8.8432C211.315 9.03176 210.958 9.28592 210.651 9.60977C210.348 9.93361 210.106 10.319 209.929 10.7658C209.753 11.2126 209.655 11.6963 209.634 12.221V18.079C209.634 18.493 209.495 18.8374 209.212 19.1202C208.933 19.399 208.585 19.5424 208.171 19.5424C207.966 19.5424 207.769 19.5055 207.589 19.4318C207.409 19.358 207.249 19.2555 207.118 19.1202C206.986 18.989 206.88 18.8333 206.806 18.657C206.732 18.4807 206.695 18.288 206.695 18.0831V2.1531C206.695 1.94813 206.736 1.75136 206.814 1.57099C206.892 1.39062 206.999 1.23075 207.13 1.09957C207.261 0.968388 207.421 0.861804 207.601 0.783917C207.782 0.70603 207.974 0.665039 208.171 0.665039C208.376 0.665039 208.569 0.70603 208.745 0.783917C208.921 0.861804 209.077 0.968388 209.208 1.09957C209.339 1.23075 209.446 1.39062 209.52 1.57099C209.593 1.75136 209.63 1.94813 209.63 2.1531V7.31005V7.29775Z" fill="#546C83"/>
<path d="M230.616 9.93789C230.985 9.08933 231.489 8.34325 232.128 7.70375C232.768 7.06426 233.514 6.56004 234.371 6.1911C235.227 5.82216 236.133 5.6377 237.101 5.6377C238.068 5.6377 238.986 5.82216 239.835 6.1911C240.687 6.56004 241.429 7.06426 242.06 7.70375C242.696 8.34325 243.196 9.08933 243.565 9.93789C243.934 10.7864 244.118 11.7006 244.118 12.6721C244.118 13.6437 243.934 14.5578 243.565 15.4064C243.196 16.259 242.696 17.001 242.06 17.6405C241.425 18.28 240.683 18.7842 239.835 19.1532C238.982 19.5221 238.072 19.7066 237.101 19.7066C236.129 19.7066 235.227 19.5221 234.371 19.1532C233.514 18.7842 232.768 18.28 232.128 17.6405C231.489 17.001 230.985 16.2549 230.616 15.4064C230.247 14.5578 230.062 13.6437 230.062 12.6721C230.062 11.7006 230.247 10.7864 230.616 9.93789ZM233.338 14.2586C233.555 14.7546 233.846 15.1891 234.215 15.5581C234.584 15.927 235.014 16.2181 235.514 16.4353C236.01 16.6526 236.539 16.7592 237.101 16.7592C237.662 16.7592 238.203 16.6526 238.699 16.4353C239.195 16.2181 239.63 15.927 239.999 15.5581C240.368 15.1891 240.659 14.7546 240.868 14.2586C241.077 13.7626 241.183 13.2337 241.183 12.6721C241.183 12.1105 241.077 11.5694 240.868 11.0775C240.654 10.5856 240.368 10.1552 239.999 9.78621C239.63 9.41727 239.195 9.12622 238.699 8.91716C238.203 8.70399 237.67 8.60151 237.101 8.60151C236.531 8.60151 236.01 8.70809 235.514 8.91716C235.018 9.13032 234.584 9.41727 234.215 9.78621C233.846 10.1552 233.555 10.5856 233.338 11.0775C233.12 11.5694 233.014 12.1023 233.014 12.6721C233.014 13.2419 233.12 13.7626 233.338 14.2586Z" fill="#546C83"/>
<path d="M258.505 12.6428L258.489 12.6715L258.505 12.6879C258.505 13.1881 258.599 13.68 258.792 14.1555C258.985 14.6351 259.251 15.0614 259.595 15.4386C259.94 15.8157 260.345 16.1232 260.813 16.3527C261.28 16.5823 261.788 16.7053 262.338 16.7135C262.838 16.734 263.321 16.6725 263.785 16.5372C264.248 16.3978 264.699 16.1437 265.141 15.7706C265.289 15.6517 265.449 15.537 265.621 15.4222C265.793 15.3074 265.978 15.2295 266.166 15.1844C266.359 15.1393 266.564 15.1434 266.785 15.1926C267.006 15.2418 267.236 15.3689 267.47 15.578C267.625 15.7173 267.744 15.8772 267.822 16.0658C267.9 16.2543 267.937 16.4429 267.933 16.6397C267.929 16.8365 267.88 17.0373 267.794 17.2382C267.703 17.4391 267.572 17.6276 267.396 17.808C266.797 18.427 266.08 18.8984 265.244 19.2182C264.408 19.5379 263.526 19.6978 262.604 19.6978C261.62 19.6978 260.698 19.5174 259.837 19.1608C258.976 18.8 258.222 18.3081 257.579 17.685C256.935 17.0619 256.427 16.324 256.054 15.4714C255.681 14.6228 255.492 13.7087 255.492 12.7371V12.7207L255.509 12.692L255.492 12.6756C255.492 11.6918 255.681 10.7735 256.054 9.91679C256.427 9.06003 256.935 8.31395 257.579 7.67446C258.222 7.03496 258.976 6.53075 259.837 6.16181C260.698 5.79287 261.62 5.6084 262.604 5.6084C263.526 5.6084 264.408 5.76827 265.244 6.08802C266.08 6.40777 266.797 6.87919 267.396 7.49819C267.572 7.67446 267.707 7.86303 267.794 8.06799C267.884 8.26886 267.929 8.46973 267.933 8.67469C267.937 8.87556 267.9 9.07233 267.822 9.2568C267.744 9.44537 267.625 9.60524 267.47 9.74462C267.232 9.94958 267.006 10.0808 266.785 10.13C266.564 10.1791 266.359 10.1791 266.166 10.13C265.974 10.0808 265.793 9.99878 265.621 9.8881C265.449 9.77332 265.289 9.65853 265.141 9.53965C264.699 9.17481 264.248 8.92475 263.785 8.78947C263.321 8.6501 262.842 8.58861 262.338 8.59681C261.797 8.6173 261.292 8.74029 260.825 8.97395C260.358 9.20351 259.952 9.51096 259.608 9.8881C259.263 10.2652 258.993 10.6957 258.796 11.1712C258.599 11.6467 258.501 12.1427 258.501 12.6551L258.505 12.6428Z" fill="#546C83"/>
<path d="M299.005 7.29775C299.538 6.78533 300.124 6.3754 300.764 6.07615C301.403 5.7728 302.075 5.62522 302.772 5.62522C303.629 5.62522 304.412 5.7974 305.121 6.14174C305.83 6.48608 306.437 6.9616 306.937 7.56831C307.437 8.17501 307.831 8.89239 308.113 9.72455C308.396 10.5567 308.536 11.4668 308.536 12.4506V18.12C308.536 18.534 308.396 18.8783 308.113 19.153C307.831 19.4277 307.482 19.567 307.068 19.567C306.654 19.567 306.306 19.4318 306.023 19.153C305.74 18.8783 305.601 18.534 305.601 18.12V12.5162C305.601 11.9259 305.531 11.3889 305.387 10.9011C305.244 10.4132 305.039 9.99511 304.769 9.64667C304.498 9.29822 304.166 9.02767 303.772 8.8432C303.379 8.65463 302.936 8.56444 302.444 8.56444C301.952 8.56444 301.514 8.65873 301.104 8.8432C300.69 9.03176 300.333 9.28592 300.026 9.60977C299.723 9.93361 299.481 10.319 299.304 10.7658C299.128 11.2126 299.03 11.6963 299.009 12.221V18.079C299.009 18.493 298.87 18.8374 298.587 19.1202C298.308 19.399 297.96 19.5424 297.546 19.5424C297.341 19.5424 297.144 19.5055 296.964 19.4318C296.784 19.358 296.624 19.2555 296.493 19.1202C296.361 18.989 296.255 18.8333 296.181 18.657C296.107 18.4807 296.07 18.288 296.07 18.0831V2.1531C296.07 1.94813 296.111 1.75136 296.189 1.57099C296.267 1.39062 296.374 1.23075 296.505 1.09957C296.636 0.968388 296.796 0.861804 296.976 0.783917C297.157 0.70603 297.349 0.665039 297.546 0.665039C297.751 0.665039 297.944 0.70603 298.12 0.783917C298.296 0.861804 298.452 0.968388 298.583 1.09957C298.714 1.23075 298.821 1.39062 298.895 1.57099C298.968 1.75136 299.005 1.94813 299.005 2.1531V7.31005V7.29775Z" fill="#546C83"/>
<path d="M280.39 17.9437C279.23 18.9685 277.705 19.5752 276.02 19.5752C272.229 19.5752 269.359 16.4966 269.359 12.5982C269.359 8.69969 272.229 5.62109 276.02 5.62109C277.705 5.62109 279.234 6.2278 280.39 7.28132V7.09685C280.39 6.28109 281.021 5.64979 281.837 5.64979C282.653 5.64979 283.284 6.28109 283.284 7.09685V18.0749C283.284 18.8906 282.653 19.5506 281.837 19.5506C281.021 19.5506 280.39 18.8906 280.39 18.0749V17.9437ZM280.39 12.5982V12.4137C280.287 10.0689 278.549 8.30615 276.336 8.30615C274.123 8.30615 272.282 10.1509 272.282 12.5982C272.282 15.0454 274.073 16.8901 276.336 16.8901C278.599 16.8901 280.39 15.0454 280.39 12.5982Z" fill="#546C83"/>
<path d="M178.492 17.9437C177.331 18.9685 175.807 19.5752 174.122 19.5752C170.33 19.5752 167.461 16.4966 167.461 12.5982C167.461 8.69969 170.33 5.62109 174.122 5.62109C175.807 5.62109 177.336 6.2278 178.492 7.28132V7.09685C178.492 6.28109 179.123 5.64979 179.939 5.64979C180.754 5.64979 181.385 6.28109 181.385 7.09685V18.0749C181.385 18.8906 180.754 19.5506 179.939 19.5506C179.123 19.5506 178.492 18.8906 178.492 18.0749V17.9437ZM178.492 12.5982V12.4137C178.385 10.0689 176.647 8.30615 174.438 8.30615C172.228 8.30615 170.384 10.1509 170.384 12.5982C170.384 15.0454 172.175 16.8901 174.438 16.8901C176.7 16.8901 178.492 15.0454 178.492 12.5982Z" fill="#546C83"/>
<path d="M247.797 11.7819C247.797 8.04331 250.297 5.62061 253.72 5.62061C254.458 5.62061 255.06 6.19861 255.06 6.96518C255.06 7.73176 254.454 8.30976 253.72 8.30976C251.982 8.30976 250.691 9.46988 250.691 11.786V18.0785C250.691 18.8942 250.06 19.5542 249.244 19.5542C248.428 19.5542 247.797 18.8942 247.797 18.0785V11.786V11.7819Z" fill="#546C83"/>
<path d="M247.539 22.8664C247.539 21.9194 248.301 21.1528 249.248 21.1528C250.195 21.1528 250.958 21.9153 250.958 22.8664C250.958 23.8174 250.195 24.5799 249.248 24.5799C248.301 24.5799 247.539 23.7887 247.539 22.8664Z" fill="#9ABECA"/>
<path d="M161.514 19.2471L161.497 19.2635C161.436 19.3127 161.378 19.3537 161.317 19.3824C161.296 19.3824 161.276 19.3906 161.255 19.4111H161.239C161.067 19.4931 160.899 19.5382 160.727 19.5464H160.653C160.563 19.5464 160.477 19.5423 160.399 19.53C160.349 19.5218 160.3 19.5095 160.247 19.5013C160.186 19.4931 160.12 19.4726 160.05 19.4398C159.989 19.4111 159.931 19.3783 159.87 19.3496C159.751 19.2881 159.644 19.2061 159.554 19.0954L159.509 19.0504C159.46 19.0012 159.415 18.952 159.374 18.8987C159.325 18.8167 159.28 18.7347 159.239 18.6445L157.554 14.9469L155.886 18.6445C155.845 18.7265 155.8 18.8003 155.75 18.87C155.701 18.9397 155.648 19.0053 155.599 19.0668C155.537 19.1446 155.467 19.2102 155.39 19.2635C155.308 19.3127 155.226 19.3619 155.135 19.4152C154.976 19.4849 154.803 19.53 154.623 19.5505H154.398C154.225 19.5423 154.057 19.4972 153.885 19.4152C153.713 19.3455 153.561 19.2348 153.418 19.0831C153.307 18.9725 153.213 18.829 153.131 18.6486L148.073 7.50665C147.983 7.31808 147.938 7.12131 147.938 6.92044C147.938 6.71957 147.97 6.53101 148.036 6.35064C148.101 6.17027 148.2 6.00629 148.335 5.86281C148.47 5.71934 148.634 5.60046 148.823 5.51027C149.011 5.42009 149.208 5.375 149.401 5.375C149.594 5.375 149.782 5.41189 149.967 5.48158C150.147 5.55127 150.307 5.65785 150.446 5.79723C150.585 5.93661 150.7 6.10468 150.79 6.29325L154.504 14.6805L155.947 11.401L154.189 7.50665C154.098 7.31808 154.049 7.12131 154.045 6.92044C154.041 6.71957 154.07 6.53101 154.135 6.35064C154.201 6.17027 154.299 6.00629 154.435 5.86281C154.57 5.71934 154.734 5.60046 154.922 5.51027C155.111 5.42009 155.304 5.375 155.5 5.375C155.697 5.375 155.886 5.41189 156.066 5.48158C156.246 5.55127 156.406 5.65785 156.546 5.79723C156.685 5.93661 156.8 6.10468 156.89 6.29325L157.538 7.7813L158.197 6.29325C158.279 6.10468 158.39 5.9407 158.538 5.80542C158.681 5.67015 158.845 5.56766 159.017 5.49797C159.194 5.42829 159.382 5.39139 159.583 5.39139C159.784 5.39139 159.981 5.43649 160.169 5.52667C160.358 5.61686 160.522 5.73574 160.657 5.87922C160.792 6.02269 160.895 6.18667 160.964 6.36704C161.034 6.54741 161.067 6.73598 161.063 6.93684C161.059 7.13771 161.009 7.33447 160.919 7.52304L159.161 11.4174L160.604 14.6805L164.301 6.29325C164.473 5.91201 164.748 5.64555 165.129 5.49797C165.51 5.3463 165.891 5.3586 166.273 5.52667C166.461 5.61686 166.625 5.73574 166.76 5.87922C166.896 6.02269 166.998 6.18667 167.068 6.36704C167.138 6.54741 167.174 6.73598 167.174 6.93684C167.174 7.13771 167.129 7.33447 167.039 7.52304L161.989 18.6486C161.899 18.8208 161.801 18.9643 161.69 19.0831C161.641 19.1446 161.579 19.1979 161.51 19.2471H161.514Z" fill="#546C83"/>
</svg>
