<svg width="181" height="32" viewBox="0 0 181 32" fill="none" xmlns="http://www.w3.org/2000/svg">
<path d="M4.32938 23.1268V23.3059C4.32938 23.8194 4.12313 24.3118 3.75602 24.6748C3.3889 25.0379 2.89098 25.2418 2.3718 25.2418C1.85262 25.2418 1.3547 25.0379 0.987588 24.6748C0.620472 24.3118 0.414229 23.8194 0.414229 23.3059V1.93609C0.410847 1.68093 0.459171 1.42769 0.556351 1.1913C0.65353 0.954916 0.797597 0.740169 0.980053 0.559731C1.16251 0.379293 1.37966 0.23682 1.61869 0.140715C1.85772 0.0446095 2.11379 -0.00318038 2.3718 0.000164166C2.62981 -0.00318038 2.88588 0.0446095 3.12492 0.140715C3.36395 0.23682 3.5811 0.379293 3.76355 0.559731C3.94601 0.740169 4.09007 0.954916 4.18725 1.1913C4.28443 1.42769 4.33276 1.68093 4.32938 1.93609V8.87357C5.94777 7.42756 8.05631 6.63539 10.2373 6.65397C15.3653 6.65397 19.2452 10.7747 19.2452 15.9803C19.2452 21.1859 15.3653 25.3115 10.2373 25.3115C8.06347 25.3258 5.96037 24.5481 4.32938 23.1268ZM15.2948 15.9803C15.2948 12.7106 12.8743 10.2471 9.80957 10.2471C6.74489 10.2471 4.44009 12.6011 4.32938 15.7364V15.9803C4.32938 19.2549 6.74992 21.7233 9.80957 21.7233C12.8692 21.7233 15.2948 19.2549 15.2948 15.9803Z" fill="#212322"/>
<path d="M36.3299 23.1264C34.6989 24.5478 32.5958 25.3255 30.4219 25.3112C25.294 25.3112 21.4141 21.1905 21.4141 15.9799C21.4141 10.7693 25.294 6.65364 30.4219 6.65364C32.6029 6.63505 34.7115 7.42722 36.3299 8.87324V8.6244C36.3299 8.11096 36.5361 7.61855 36.9032 7.2555C37.2703 6.89244 37.7683 6.68848 38.2874 6.68848C38.8066 6.68848 39.3045 6.89244 39.6716 7.2555C40.0388 7.61855 40.245 8.11096 40.245 8.6244V23.3056C40.245 23.819 40.0388 24.3114 39.6716 24.6745C39.3045 25.0375 38.8066 25.2415 38.2874 25.2415C37.7683 25.2415 37.2703 25.0375 36.9032 24.6745C36.5361 24.3114 36.3299 23.819 36.3299 23.3056V23.1264ZM36.3299 15.9799V15.7361C36.189 12.6008 33.8137 10.2617 30.8497 10.2617C27.8856 10.2617 25.3644 12.7252 25.3644 15.9949C25.3644 19.2645 27.785 21.7379 30.8497 21.7379C33.9143 21.7379 36.3299 19.2546 36.3299 15.9799Z" fill="#212322"/>
<path d="M43.1875 15.9799C43.1875 10.7743 47.0674 6.65363 52.1903 6.65363C54.3728 6.63526 56.4828 7.42731 58.1033 8.87323V8.62439C58.1033 8.11096 58.3095 7.61855 58.6767 7.25549C59.0438 6.89243 59.5417 6.68847 60.0609 6.68847C60.5801 6.68847 61.078 6.89243 61.4451 7.25549C61.8122 7.61855 62.0184 8.11096 62.0184 8.62439V22.6686C62.0207 23.9093 61.7723 25.138 61.2879 26.2826C60.8035 27.4271 60.0927 28.4645 59.1974 29.3337C58.302 30.2029 57.2402 30.8865 56.0741 31.3443C54.9079 31.8021 53.6611 32.025 52.4067 31.9998C51.1371 32.0278 49.8758 31.7915 48.7046 31.3063C47.5333 30.821 46.4783 30.0976 45.608 29.183C45.2671 28.8231 45.058 28.3605 45.0142 27.8692C45.0111 27.6221 45.0593 27.377 45.1558 27.1491C45.2523 26.9212 45.3951 26.7152 45.5753 26.5441C45.7554 26.3729 45.9692 26.2401 46.2034 26.1538C46.4375 26.0676 46.6871 26.0298 46.9366 26.0427C47.7166 26.0427 48.1443 26.5006 48.6425 26.9186C49.6433 27.8809 50.9857 28.4169 52.3816 28.4116C53.8288 28.4126 55.2215 27.8654 56.2735 26.8825C57.3255 25.8995 57.9568 24.5554 58.0379 23.1264C56.4209 24.5479 54.3286 25.3263 52.1652 25.3112C47.0423 25.3112 43.1875 21.1905 43.1875 15.9799ZM58.1033 16.2287V15.9799C58.1033 12.7102 55.6828 10.2468 52.6181 10.2468C49.5534 10.2468 47.1127 12.7102 47.1127 15.9799C47.1127 19.2496 49.5333 21.723 52.5929 21.723C55.6526 21.723 57.9322 19.4088 58.0781 16.2287H58.1033Z" fill="#212322"/>
<path d="M67.5073 7.00715C68.0407 2.67745 71.3168 0 75.5137 0C75.9955 0 76.4576 0.189282 76.7983 0.526206C77.139 0.86313 77.3304 1.3201 77.3304 1.79658C77.3304 2.27306 77.139 2.73003 76.7983 3.06695C76.4576 3.40388 75.9955 3.59316 75.5137 3.59316C73.4505 3.59316 71.8854 4.75272 71.4577 7.00715H75.5137C75.7529 7.00516 75.99 7.05027 76.2113 7.13986C76.4326 7.22944 76.6337 7.3617 76.8028 7.52892C76.9719 7.69615 77.1056 7.89499 77.1962 8.11386C77.2868 8.33273 77.3324 8.56725 77.3304 8.80373C77.3277 9.27895 77.1353 9.73388 76.7951 10.0694C76.4548 10.405 75.9943 10.594 75.5137 10.5953H71.3671V23.3058C71.3711 23.5637 71.3236 23.8198 71.2273 24.0596C71.131 24.2993 70.9878 24.5179 70.806 24.7028C70.6242 24.8877 70.4072 25.0354 70.1676 25.1372C69.9279 25.2391 69.6703 25.2932 69.4095 25.2964C69.1477 25.2965 68.8886 25.2447 68.6474 25.144C68.4062 25.0433 68.1879 24.8958 68.0054 24.7102C67.8228 24.5246 67.6798 24.3047 67.5848 24.0634C67.4897 23.8222 67.4445 23.5646 67.4519 23.3058V10.5953H66.1687C65.9298 10.598 65.6928 10.5535 65.4715 10.4645C65.2502 10.3754 65.0491 10.2436 64.8799 10.0768C64.7108 9.90998 64.5769 9.71146 64.4863 9.49286C64.3957 9.27427 64.35 9.03999 64.352 8.80373C64.3465 8.56631 64.3898 8.33025 64.4791 8.10982C64.5684 7.88939 64.7021 7.68916 64.8719 7.52124C65.0417 7.35331 65.2441 7.22118 65.467 7.13282C65.6899 7.04446 65.9286 7.00171 66.1687 7.00715H67.5073Z" fill="#212322"/>
<path d="M77.1484 15.9797C77.1484 13.5049 78.1425 11.1315 79.9121 9.3815C81.6816 7.63155 84.0816 6.64844 86.584 6.64844C89.0865 6.64844 91.4865 7.63155 93.256 9.3815C95.0255 11.1315 96.0196 13.5049 96.0196 15.9797C96.0196 18.4545 95.0255 20.8279 93.256 22.5779C91.4865 24.3278 89.0865 25.311 86.584 25.311C84.0816 25.311 81.6816 24.3278 79.9121 22.5779C78.1425 20.8279 77.1484 18.4545 77.1484 15.9797ZM92.0642 15.9797C92.0642 12.8145 89.7192 10.2466 86.584 10.2466C83.4489 10.2466 81.1038 12.8145 81.1038 15.9797C81.1038 19.1449 83.4439 21.7228 86.584 21.7228C89.7242 21.7228 92.0642 19.115 92.0642 15.9797Z" fill="#212322"/>
<path d="M98.9375 14.8898C98.9375 9.91311 102.319 6.65339 106.949 6.65339C107.189 6.65136 107.426 6.69681 107.648 6.78707C107.87 6.87733 108.071 7.01056 108.24 7.17892C108.409 7.34728 108.542 7.54735 108.631 7.76736C108.721 7.98736 108.765 8.22284 108.761 8.45992C108.759 8.93514 108.568 9.39059 108.229 9.72709C107.89 10.0636 107.429 10.2539 106.949 10.2565C104.599 10.2565 102.853 11.8042 102.853 14.8997V23.3053C102.853 23.8188 102.646 24.3112 102.279 24.6742C101.912 25.0373 101.414 25.2413 100.895 25.2413C100.376 25.2413 99.878 25.0373 99.5109 24.6742C99.1437 24.3112 98.9375 23.8188 98.9375 23.3053V14.8898Z" fill="#212322"/>
<path d="M109.251 15.9797C109.23 14.7505 109.459 13.5296 109.925 12.3897C110.39 11.2497 111.083 10.214 111.961 9.34396C112.84 8.47395 113.886 7.78744 115.038 7.32524C116.19 6.86303 117.424 6.63457 118.667 6.65342C121.656 6.65342 124.147 7.92247 125.501 9.50506C125.837 9.8752 126.038 10.3469 126.069 10.8438C126.071 11.0892 126.022 11.3324 125.925 11.5581C125.827 11.7839 125.684 11.9874 125.504 12.1559C125.323 12.3245 125.11 12.4545 124.876 12.5378C124.643 12.6212 124.395 12.6561 124.147 12.6404C123.367 12.6404 122.975 12.2522 122.476 11.8292C121.985 11.3216 121.393 10.9193 120.738 10.6471C120.082 10.3749 119.378 10.2385 118.667 10.2466C115.607 10.2466 113.187 12.7797 113.187 15.9797C113.187 19.1797 115.648 21.7228 118.667 21.7228C119.372 21.7266 120.071 21.5877 120.72 21.3147C121.369 21.0417 121.955 20.6403 122.441 20.1352C122.944 19.7122 123.367 19.2544 124.147 19.2544C124.4 19.2433 124.652 19.2838 124.887 19.3733C125.123 19.4627 125.338 19.5992 125.518 19.7742C125.699 19.9493 125.841 20.1591 125.936 20.3908C126.03 20.6224 126.076 20.8708 126.069 21.1206C126.043 21.5956 125.849 22.0464 125.521 22.3946C124.661 23.3433 123.602 24.0955 122.419 24.5991C121.235 25.1027 119.955 25.3456 118.667 25.311C117.423 25.3298 116.189 25.1012 115.037 24.6387C113.884 24.1762 112.838 23.4892 111.959 22.6187C111.081 21.7482 110.389 20.7118 109.923 19.5713C109.458 18.4307 109.23 17.2093 109.251 15.9797Z" fill="#212322"/>
<path d="M142.963 23.1264C141.332 24.5478 139.229 25.3255 137.055 25.3112C131.927 25.3112 128.047 21.1905 128.047 15.9799C128.047 10.7693 131.927 6.65364 137.055 6.65364C139.236 6.63505 141.344 7.42722 142.963 8.87324V8.6244C142.963 8.11096 143.169 7.61855 143.536 7.2555C143.903 6.89244 144.401 6.68848 144.92 6.68848C145.439 6.68848 145.937 6.89244 146.304 7.2555C146.672 7.61855 146.878 8.11096 146.878 8.6244V23.3056C146.878 23.819 146.672 24.3114 146.304 24.6745C145.937 25.0375 145.439 25.2415 144.92 25.2415C144.401 25.2415 143.903 25.0375 143.536 24.6745C143.169 24.3114 142.963 23.819 142.963 23.3056V23.1264ZM142.963 15.9799V15.7361C142.822 12.6008 140.472 10.2617 137.477 10.2617C134.483 10.2617 131.997 12.7252 131.997 15.9949C131.997 19.2645 134.418 21.7379 137.477 21.7379C140.537 21.7379 142.963 19.2546 142.963 15.9799Z" fill="#212322"/>
<path d="M151.586 19.2901C151.854 19.2814 152.12 19.342 152.357 19.466C152.595 19.5899 152.795 19.7728 152.939 19.9968C153.473 20.7731 154.223 21.8282 155.752 21.8282C156.011 21.8348 156.268 21.7908 156.51 21.6987C156.751 21.6066 156.972 21.4682 157.159 21.2916C157.346 21.1149 157.496 20.9034 157.6 20.6692C157.704 20.435 157.76 20.1828 157.765 19.9271C157.765 18.4838 156.412 17.9364 154.746 17.3541C152.502 16.5828 149.975 15.6322 149.975 12.0042C149.975 9.01822 152.491 6.6543 155.742 6.6543C158.762 6.6543 161.545 8.48571 161.545 10.7003C161.544 10.9327 161.496 11.1626 161.405 11.3766C161.313 11.5906 161.18 11.7844 161.011 11.9466C160.843 12.1088 160.644 12.2362 160.425 12.3213C160.206 12.4064 159.973 12.4475 159.738 12.4422C159.507 12.4549 159.278 12.4022 159.076 12.2903C158.875 12.1783 158.71 12.0117 158.601 11.8101C157.997 11.1383 157.141 10.1181 155.752 10.1181C155.492 10.1038 155.231 10.1424 154.986 10.2318C154.742 10.3211 154.518 10.4591 154.329 10.6373C154.141 10.8155 153.991 11.03 153.89 11.2677C153.788 11.5054 153.737 11.7612 153.739 12.0191C153.739 13.4624 155.249 13.9202 157.051 14.5075C159.22 15.1793 161.675 16.3041 161.675 19.8226C161.675 22.8086 159.079 25.2969 155.732 25.2969C152.562 25.2969 149.789 23.2565 149.789 21.0717C149.788 20.8378 149.833 20.6059 149.923 20.3895C150.013 20.1731 150.145 19.9764 150.312 19.8107C150.479 19.6451 150.678 19.5138 150.896 19.4244C151.115 19.3351 151.349 19.2894 151.586 19.2901Z" fill="#212322"/>
<path d="M164.57 1.93593C164.57 1.6817 164.621 1.42996 164.719 1.19508C164.818 0.960202 164.962 0.746787 165.144 0.567019C165.325 0.387252 165.541 0.244653 165.779 0.147364C166.016 0.0500742 166.271 0 166.528 0C166.785 0 167.04 0.0500742 167.277 0.147364C167.515 0.244653 167.73 0.387252 167.912 0.567019C168.094 0.746787 168.238 0.960202 168.336 1.19508C168.435 1.42996 168.485 1.6817 168.485 1.93593V8.20155C169.775 7.19475 171.371 6.64924 173.015 6.65381C177.252 6.65381 180.598 9.82395 180.598 14.8554V23.3157C180.602 23.5736 180.555 23.8298 180.458 24.0695C180.362 24.3092 180.219 24.5278 180.037 24.7128C179.855 24.8977 179.638 25.0453 179.399 25.1472C179.159 25.249 178.901 25.3031 178.641 25.3064C178.379 25.3058 178.12 25.2535 177.879 25.1526C177.639 25.0516 177.42 24.9041 177.238 24.7186C177.056 24.5332 176.913 24.3135 176.817 24.0726C176.722 23.8317 176.676 23.5743 176.683 23.3157V14.716C176.683 11.7599 174.866 10.237 172.592 10.237C170.317 10.237 168.496 11.73 168.496 14.716V23.3058C168.496 23.56 168.445 23.8117 168.347 24.0466C168.248 24.2815 168.104 24.4949 167.922 24.6747C167.74 24.8544 167.525 24.997 167.287 25.0943C167.05 25.1916 166.795 25.2417 166.538 25.2417C166.281 25.2417 166.026 25.1916 165.789 25.0943C165.551 24.997 165.336 24.8544 165.154 24.6747C164.972 24.4949 164.828 24.2815 164.729 24.0466C164.631 23.8117 164.58 23.56 164.58 23.3058L164.57 1.93593Z" fill="#212322"/>
<path d="M98.5781 29.7111C98.5781 29.2584 98.7139 28.8158 98.9683 28.4393C99.2226 28.0628 99.5841 27.7694 100.007 27.5961C100.43 27.4229 100.896 27.3775 101.345 27.4659C101.794 27.5542 102.206 27.7722 102.53 28.0924C102.854 28.4125 103.074 28.8205 103.163 29.2645C103.253 29.7086 103.207 30.1689 103.032 30.5872C102.856 31.0055 102.56 31.3631 102.179 31.6146C101.798 31.8662 101.351 32.0004 100.893 32.0004C100.589 32.0011 100.288 31.9423 100.006 31.8275C99.7252 31.7127 99.4697 31.5441 99.2547 31.3314C99.0396 31.1187 98.8691 30.866 98.753 30.588C98.6369 30.3099 98.5775 30.012 98.5781 29.7111Z" fill="#546C83"/>
</svg>
