<svg width="392" height="59" viewBox="0 0 392 59" fill="none" xmlns="http://www.w3.org/2000/svg">
<path d="M181.909 12.82C182.869 4.96999 188.739 0.119995 196.269 0.119995C198.059 0.119995 199.519 1.59 199.519 3.37C199.519 5.14999 198.049 6.62999 196.269 6.62999C192.569 6.62999 189.759 8.73999 188.989 12.82H196.269C198.059 12.82 199.519 14.22 199.519 16.07C199.519 17.92 198.049 19.33 196.269 19.33H188.799V42.37C188.799 44.35 187.199 45.95 185.289 45.95C183.379 45.95 181.779 44.35 181.779 42.37V19.33H179.479C177.629 19.33 176.219 17.86 176.219 16.07C176.219 14.28 177.619 12.82 179.479 12.82H181.909Z" fill="white"/>
<path d="M337.843 35.1C338.863 35.1 339.753 35.55 340.263 36.38C341.223 37.78 342.563 39.7 345.303 39.7C347.413 39.7 348.943 38.1 348.943 36.25C348.943 33.63 346.523 32.61 343.513 31.59C339.493 30.19 334.963 28.46 334.963 21.89C334.963 16.46 339.433 12.19 345.303 12.19C350.723 12.19 355.703 15.51 355.703 19.53C355.703 21.32 354.233 22.66 352.443 22.66C351.743 22.66 350.843 22.4 350.403 21.51C349.313 20.3 347.783 18.45 345.293 18.45C343.123 18.45 341.713 20.05 341.713 21.9C341.713 24.52 344.393 25.35 347.653 26.43C351.543 27.64 355.953 29.69 355.953 36.07C355.953 41.43 351.293 46.03 345.293 46.03C339.613 46.03 334.633 42.33 334.633 38.37C334.633 36.58 336.033 35.11 337.823 35.11" fill="white"/>
<path d="M99.1994 12.24H102.289C103.319 12.24 104.179 12.58 104.859 13.25C105.539 13.92 105.879 14.76 105.879 15.77C105.879 16.78 105.539 17.67 104.859 18.36C104.179 19.06 103.319 19.4 102.289 19.4H99.1994V42.54C99.1994 43.55 98.8594 44.39 98.1794 45.06C97.4994 45.73 96.6494 46.07 95.6394 46.07C94.6294 46.07 93.7794 45.73 93.0794 45.06C92.3894 44.39 92.0394 43.55 92.0394 42.54V19.4H89.4494C88.9494 19.4 88.4794 19.3 88.0494 19.11C87.6194 18.92 87.2394 18.65 86.9194 18.32C86.5994 17.98 86.3394 17.6 86.1494 17.17C85.9594 16.74 85.8594 16.27 85.8594 15.77C85.8594 14.76 86.2094 13.92 86.8994 13.25C87.5994 12.58 88.4494 12.24 89.4494 12.24H92.0394V3.53001C92.0394 2.52001 92.3894 1.68001 93.0794 1.01001C93.7794 0.34001 94.6294 0 95.6394 0C96.6494 0 97.4894 0.34001 98.1794 1.01001C98.8594 1.68001 99.1994 2.52001 99.1994 3.53001V12.24Z" fill="white"/>
<path d="M115.139 29.26L115.099 29.33L115.139 29.37C115.139 30.59 115.369 31.79 115.839 32.95C116.309 34.12 116.959 35.16 117.799 36.08C118.639 37 119.629 37.75 120.769 38.31C121.909 38.87 123.149 39.17 124.489 39.19C125.709 39.24 126.889 39.09 128.019 38.76C129.149 38.42 130.249 37.8 131.329 36.89C131.689 36.6 132.079 36.32 132.499 36.04C132.919 35.76 133.359 35.57 133.829 35.46C134.299 35.35 134.799 35.36 135.339 35.48C135.879 35.6 136.439 35.91 137.009 36.42C137.389 36.76 137.679 37.15 137.869 37.61C138.059 38.07 138.149 38.53 138.139 39.01C138.129 39.49 138.009 39.98 137.799 40.47C137.579 40.96 137.259 41.42 136.829 41.86C135.369 43.37 133.619 44.52 131.579 45.3C129.539 46.08 127.389 46.47 125.139 46.47C122.739 46.47 120.489 46.03 118.389 45.16C116.289 44.28 114.459 43.08 112.879 41.56C111.309 40.04 110.069 38.24 109.159 36.16C108.249 34.09 107.789 31.86 107.789 29.49V29.45L107.829 29.38L107.789 29.34C107.789 26.94 108.249 24.7 109.159 22.61C110.069 20.52 111.309 18.7 112.879 17.14C114.449 15.58 116.289 14.35 118.389 13.45C120.489 12.55 122.739 12.1 125.139 12.1C127.389 12.1 129.539 12.49 131.579 13.27C133.619 14.05 135.369 15.2 136.829 16.71C137.259 17.14 137.589 17.6 137.799 18.1C138.019 18.59 138.129 19.08 138.139 19.58C138.149 20.07 138.059 20.55 137.869 21C137.679 21.46 137.389 21.85 137.009 22.19C136.429 22.69 135.879 23.01 135.339 23.13C134.799 23.25 134.299 23.25 133.829 23.13C133.359 23.01 132.919 22.81 132.499 22.54C132.079 22.26 131.689 21.98 131.329 21.69C130.249 20.8 129.149 20.19 128.019 19.86C126.889 19.52 125.719 19.37 124.489 19.39C123.169 19.44 121.939 19.74 120.799 20.31C119.659 20.87 118.669 21.62 117.829 22.54C116.989 23.46 116.329 24.51 115.849 25.67C115.369 26.83 115.129 28.04 115.129 29.29L115.139 29.26Z" fill="white"/>
<path d="M150.48 16.22C151.78 14.97 153.21 13.97 154.77 13.24C156.33 12.5 157.97 12.14 159.67 12.14C161.76 12.14 163.67 12.56 165.4 13.4C167.13 14.24 168.61 15.4 169.83 16.88C171.06 18.36 172.01 20.11 172.7 22.14C173.38 24.17 173.73 26.39 173.73 28.79V42.62C173.73 43.63 173.39 44.47 172.7 45.14C172.01 45.81 171.16 46.15 170.15 46.15C169.14 46.15 168.29 45.82 167.6 45.14C166.91 44.47 166.57 43.63 166.57 42.62V28.95C166.57 27.51 166.4 26.2 166.05 25.01C165.7 23.82 165.2 22.8 164.54 21.95C163.88 21.1 163.07 20.44 162.11 19.99C161.15 19.53 160.07 19.31 158.87 19.31C157.67 19.31 156.6 19.54 155.6 19.99C154.59 20.45 153.72 21.07 152.97 21.86C152.23 22.65 151.64 23.59 151.21 24.68C150.78 25.77 150.54 26.95 150.49 28.23V42.52C150.49 43.53 150.15 44.37 149.46 45.06C148.78 45.74 147.93 46.09 146.92 46.09C146.42 46.09 145.94 46 145.5 45.82C145.06 45.64 144.67 45.39 144.35 45.06C144.03 44.74 143.77 44.36 143.59 43.93C143.41 43.5 143.32 43.03 143.32 42.53V3.67004C143.32 3.17004 143.42 2.69003 143.61 2.25003C143.8 1.81003 144.06 1.42004 144.38 1.10004C144.7 0.780037 145.09 0.520032 145.53 0.330032C145.97 0.140032 146.44 0.0400391 146.92 0.0400391C147.42 0.0400391 147.89 0.140032 148.32 0.330032C148.75 0.520032 149.13 0.780037 149.45 1.10004C149.77 1.42004 150.03 1.81003 150.21 2.25003C150.39 2.69003 150.48 3.17004 150.48 3.67004V16.25V16.22Z" fill="white"/>
<path d="M201.663 22.66C202.563 20.59 203.793 18.77 205.353 17.21C206.913 15.65 208.733 14.42 210.823 13.52C212.913 12.62 215.122 12.17 217.482 12.17C219.842 12.17 222.082 12.62 224.152 13.52C226.232 14.42 228.043 15.65 229.583 17.21C231.133 18.77 232.353 20.59 233.253 22.66C234.153 24.73 234.603 26.96 234.603 29.33C234.603 31.7 234.153 33.93 233.253 36C232.353 38.08 231.133 39.89 229.583 41.45C228.033 43.01 226.222 44.24 224.152 45.14C222.072 46.04 219.852 46.49 217.482 46.49C215.112 46.49 212.913 46.04 210.823 45.14C208.733 44.24 206.913 43.01 205.353 41.45C203.793 39.89 202.563 38.07 201.663 36C200.763 33.93 200.312 31.7 200.312 29.33C200.312 26.96 200.763 24.73 201.663 22.66ZM208.303 33.2C208.833 34.41 209.543 35.47 210.443 36.37C211.343 37.27 212.393 37.98 213.613 38.51C214.823 39.04 216.112 39.3 217.482 39.3C218.852 39.3 220.173 39.04 221.383 38.51C222.593 37.98 223.653 37.27 224.553 36.37C225.453 35.47 226.163 34.41 226.673 33.2C227.183 31.99 227.443 30.7 227.443 29.33C227.443 27.96 227.183 26.64 226.673 25.44C226.153 24.24 225.453 23.19 224.553 22.29C223.653 21.39 222.593 20.68 221.383 20.17C220.173 19.65 218.872 19.4 217.482 19.4C216.092 19.4 214.823 19.66 213.613 20.17C212.403 20.69 211.343 21.39 210.443 22.29C209.543 23.19 208.833 24.24 208.303 25.44C207.773 26.64 207.512 27.94 207.512 29.33C207.512 30.72 207.773 31.99 208.303 33.2Z" fill="white"/>
<path d="M269.717 29.26L269.677 29.33L269.717 29.37C269.717 30.59 269.947 31.79 270.417 32.95C270.887 34.12 271.537 35.16 272.377 36.08C273.217 37 274.207 37.75 275.347 38.31C276.487 38.87 277.727 39.17 279.067 39.19C280.287 39.24 281.467 39.09 282.597 38.76C283.727 38.42 284.827 37.8 285.907 36.89C286.267 36.6 286.657 36.32 287.077 36.04C287.497 35.76 287.947 35.57 288.407 35.46C288.877 35.35 289.377 35.36 289.917 35.48C290.457 35.6 291.017 35.91 291.587 36.42C291.967 36.76 292.257 37.15 292.447 37.61C292.637 38.07 292.727 38.53 292.717 39.01C292.707 39.49 292.587 39.98 292.377 40.47C292.157 40.96 291.837 41.42 291.407 41.86C289.947 43.37 288.197 44.52 286.157 45.3C284.117 46.08 281.967 46.47 279.717 46.47C277.317 46.47 275.067 46.03 272.967 45.16C270.867 44.28 269.027 43.08 267.457 41.56C265.887 40.04 264.647 38.24 263.737 36.16C262.827 34.09 262.367 31.86 262.367 29.49V29.45L262.407 29.38L262.367 29.34C262.367 26.94 262.827 24.7 263.737 22.61C264.647 20.52 265.887 18.7 267.457 17.14C269.027 15.58 270.867 14.35 272.967 13.45C275.067 12.55 277.317 12.1 279.717 12.1C281.967 12.1 284.117 12.49 286.157 13.27C288.197 14.05 289.947 15.2 291.407 16.71C291.837 17.14 292.167 17.6 292.377 18.1C292.597 18.59 292.707 19.08 292.717 19.58C292.727 20.07 292.637 20.55 292.447 21C292.257 21.46 291.967 21.85 291.587 22.19C291.007 22.69 290.457 23.01 289.917 23.13C289.377 23.25 288.877 23.25 288.407 23.13C287.937 23.01 287.497 22.81 287.077 22.54C286.657 22.26 286.267 21.98 285.907 21.69C284.827 20.8 283.727 20.19 282.597 19.86C281.467 19.52 280.297 19.37 279.067 19.39C277.747 19.44 276.517 19.74 275.377 20.31C274.237 20.87 273.247 21.62 272.407 22.54C271.567 23.46 270.907 24.51 270.427 25.67C269.947 26.83 269.707 28.04 269.707 29.29L269.717 29.26Z" fill="white"/>
<path d="M368.512 16.22C369.812 14.97 371.242 13.97 372.802 13.24C374.362 12.5 376.002 12.14 377.702 12.14C379.792 12.14 381.702 12.56 383.432 13.4C385.162 14.24 386.642 15.4 387.862 16.88C389.082 18.36 390.042 20.11 390.732 22.14C391.422 24.17 391.762 26.39 391.762 28.79V42.62C391.762 43.63 391.422 44.47 390.732 45.14C390.042 45.81 389.192 46.15 388.182 46.15C387.172 46.15 386.322 45.82 385.632 45.14C384.942 44.47 384.602 43.63 384.602 42.62V28.95C384.602 27.51 384.432 26.2 384.082 25.01C383.732 23.82 383.232 22.8 382.572 21.95C381.912 21.1 381.102 20.44 380.142 19.99C379.182 19.53 378.102 19.31 376.902 19.31C375.702 19.31 374.632 19.54 373.632 19.99C372.622 20.45 371.752 21.07 371.002 21.86C370.262 22.65 369.672 23.59 369.242 24.68C368.812 25.77 368.572 26.95 368.522 28.23V42.52C368.522 43.53 368.182 44.37 367.492 45.06C366.812 45.74 365.962 46.09 364.952 46.09C364.452 46.09 363.972 46 363.532 45.82C363.092 45.64 362.702 45.39 362.382 45.06C362.062 44.74 361.802 44.36 361.622 43.93C361.442 43.5 361.352 43.03 361.352 42.53V3.67004C361.352 3.17004 361.452 2.69003 361.642 2.25003C361.832 1.81003 362.092 1.42004 362.412 1.10004C362.732 0.780037 363.122 0.520032 363.562 0.330032C364.002 0.140032 364.472 0.0400391 364.952 0.0400391C365.452 0.0400391 365.922 0.140032 366.352 0.330032C366.782 0.520032 367.162 0.780037 367.482 1.10004C367.802 1.42004 368.062 1.81003 368.242 2.25003C368.422 2.69003 368.512 3.17004 368.512 3.67004V16.25V16.22Z" fill="white"/>
<path d="M323.121 42.19C320.291 44.69 316.571 46.17 312.461 46.17C303.211 46.17 296.211 38.66 296.211 29.15C296.211 19.64 303.211 12.13 312.461 12.13C316.571 12.13 320.301 13.61 323.121 16.18V15.73C323.121 13.74 324.661 12.2 326.651 12.2C328.641 12.2 330.181 13.74 330.181 15.73V42.51C330.181 44.5 328.641 46.11 326.651 46.11C324.661 46.11 323.121 44.5 323.121 42.51V42.19ZM323.121 29.15V28.7C322.871 22.98 318.631 18.68 313.231 18.68C307.831 18.68 303.341 23.18 303.341 29.15C303.341 35.12 307.711 39.62 313.231 39.62C318.751 39.62 323.121 35.12 323.121 29.15Z" fill="white"/>
<path d="M74.5272 42.19C71.6972 44.69 67.9772 46.17 63.8672 46.17C54.6172 46.17 47.6172 38.66 47.6172 29.15C47.6172 19.64 54.6172 12.13 63.8672 12.13C67.9772 12.13 71.7072 13.61 74.5272 16.18V15.73C74.5272 13.74 76.0672 12.2 78.0572 12.2C80.0472 12.2 81.5872 13.74 81.5872 15.73V42.51C81.5872 44.5 80.0472 46.11 78.0572 46.11C76.0672 46.11 74.5272 44.5 74.5272 42.51V42.19ZM74.5272 29.15V28.7C74.2672 22.98 70.0272 18.68 64.6372 18.68C59.2472 18.68 54.7472 23.18 54.7472 29.15C54.7472 35.12 59.1172 39.62 64.6372 39.62C70.1572 39.62 74.5272 35.12 74.5272 29.15Z" fill="white"/>
<path d="M243.68 27.16C243.68 18.04 249.78 12.13 258.13 12.13C259.93 12.13 261.4 13.54 261.4 15.41C261.4 17.28 259.92 18.69 258.13 18.69C253.89 18.69 250.74 21.52 250.74 27.17V42.52C250.74 44.51 249.2 46.12 247.21 46.12C245.22 46.12 243.68 44.51 243.68 42.52V27.17V27.16Z" fill="white"/>
<path d="M243.039 54.2C243.039 51.89 244.899 50.02 247.209 50.02C249.519 50.02 251.379 51.88 251.379 54.2C251.379 56.52 249.519 58.38 247.209 58.38C244.899 58.38 243.039 56.45 243.039 54.2Z" fill="#9ABECA"/>
<path d="M33.12 45.37L33.08 45.41C32.93 45.53 32.79 45.63 32.64 45.7C32.59 45.7 32.54 45.72 32.49 45.77H32.45C32.03 45.97 31.62 46.08 31.2 46.1H31.02C30.8 46.1 30.59 46.09 30.4 46.06C30.28 46.04 30.16 46.01 30.03 45.99C29.88 45.97 29.72 45.92 29.55 45.84C29.4 45.77 29.26 45.69 29.11 45.62C28.82 45.47 28.56 45.27 28.34 45L28.23 44.89C28.11 44.77 28 44.65 27.9 44.52C27.78 44.32 27.67 44.12 27.57 43.9L23.46 34.88L19.39 43.9C19.29 44.1 19.18 44.28 19.06 44.45C18.94 44.62 18.81 44.78 18.69 44.93C18.54 45.12 18.37 45.28 18.18 45.41C17.98 45.53 17.78 45.65 17.56 45.78C17.17 45.95 16.75 46.06 16.31 46.11H15.76C15.34 46.09 14.93 45.98 14.51 45.78C14.09 45.61 13.72 45.34 13.37 44.97C13.1 44.7 12.87 44.35 12.67 43.91L0.33 16.73C0.11 16.27 0 15.79 0 15.3C0 14.81 0.08 14.35 0.24 13.91C0.4 13.47 0.64 13.07 0.97 12.72C1.3 12.37 1.7 12.08 2.16 11.86C2.62 11.64 3.1 11.53 3.57 11.53C4.04 11.53 4.5 11.62 4.95 11.79C5.39 11.96 5.78 12.22 6.12 12.56C6.46 12.9 6.74 13.31 6.96 13.77L16.02 34.23L19.54 26.23L15.25 16.73C15.03 16.27 14.91 15.79 14.9 15.3C14.89 14.81 14.96 14.35 15.12 13.91C15.28 13.47 15.52 13.07 15.85 12.72C16.18 12.37 16.58 12.08 17.04 11.86C17.5 11.64 17.97 11.53 18.45 11.53C18.93 11.53 19.39 11.62 19.83 11.79C20.27 11.96 20.66 12.22 21 12.56C21.34 12.9 21.62 13.31 21.84 13.77L23.42 17.4L25.03 13.77C25.23 13.31 25.5 12.91 25.86 12.58C26.21 12.25 26.61 12 27.03 11.83C27.46 11.66 27.92 11.57 28.41 11.57C28.9 11.57 29.38 11.68 29.84 11.9C30.3 12.12 30.7 12.41 31.03 12.76C31.36 13.11 31.61 13.51 31.78 13.95C31.95 14.39 32.03 14.85 32.02 15.34C32.01 15.83 31.89 16.31 31.67 16.77L27.38 26.27L30.9 34.23L39.92 13.77C40.34 12.84 41.01 12.19 41.94 11.83C42.87 11.46 43.8 11.49 44.73 11.9C45.19 12.12 45.59 12.41 45.92 12.76C46.25 13.11 46.5 13.51 46.67 13.95C46.84 14.39 46.93 14.85 46.93 15.34C46.93 15.83 46.82 16.31 46.6 16.77L34.28 43.91C34.06 44.33 33.82 44.68 33.55 44.97C33.43 45.12 33.28 45.25 33.11 45.37H33.12Z" fill="white"/>
</svg>
