<svg width="223" height="40" viewBox="0 0 223 40" fill="none" xmlns="http://www.w3.org/2000/svg">
<path d="M4.9875 28.91V29.1277C4.9875 30.4898 3.93012 31.5907 2.56797 31.5907C1.20582 31.5907 0.148438 30.4898 0.148438 29.1277V2.41953C0.148438 1.05738 1.20582 0 2.56797 0C3.93012 0 4.9875 1.05738 4.9875 2.41953V11.09C6.92188 9.32981 9.47825 8.31597 12.2896 8.31597C18.6277 8.31597 23.4232 13.466 23.4232 19.972C23.4232 26.478 18.6277 31.6343 12.2896 31.6343C9.47203 31.6343 6.92188 30.6204 4.9875 28.9037V28.91ZM18.5406 19.9782C18.5406 15.8856 15.5488 12.8067 11.7672 12.8067C7.98548 12.8067 5.12434 15.7549 4.99372 19.6672V19.9782C4.99372 24.0709 7.98548 27.1497 11.7672 27.1497C15.5488 27.1497 18.5406 24.0709 18.5406 19.9782Z" fill="white"/>
<path d="M44.5373 28.91C42.6029 30.6267 40.0527 31.6406 37.2351 31.6406C30.8971 31.6406 26.1016 26.4905 26.1016 19.9783C26.1016 13.4661 30.8971 8.32227 37.2351 8.32227C40.0527 8.32227 42.6029 9.3361 44.5373 11.0963V10.7853C44.5373 9.42318 45.5946 8.3658 46.9568 8.3658C48.319 8.3658 49.3763 9.42318 49.3763 10.7853V29.134C49.3763 30.4961 48.319 31.597 46.9568 31.597C45.5946 31.597 44.5373 30.4961 44.5373 29.134V28.9163V28.91ZM44.5373 19.9783V19.6673C44.3631 15.7488 41.4584 12.8068 37.7638 12.8068C34.0692 12.8068 30.9904 15.8856 30.9904 19.9783C30.9904 24.071 33.9821 27.1498 37.7638 27.1498C41.5455 27.1498 44.5373 24.071 44.5373 19.9783Z" fill="white"/>
<path d="M52.9844 19.9783C52.9844 13.4661 57.7799 8.32227 64.1179 8.32227C66.9356 8.32227 69.4857 9.3361 71.4201 11.0963V10.7853C71.4201 9.42318 72.4775 8.3658 73.8396 8.3658C75.2018 8.3658 76.2591 9.42318 76.2591 10.7853V28.3378C76.2591 34.9371 70.9785 40.0001 64.3792 40.0001C60.641 40.0001 57.6928 38.414 55.9761 36.4796C55.5345 35.9509 55.2733 35.3352 55.2733 34.85C55.2733 33.4879 56.3307 32.5611 57.6493 32.5611C58.6196 32.5611 59.1421 33.1333 59.764 33.662C60.952 34.7629 62.4448 35.5093 64.3854 35.5093C68.2106 35.5093 71.1153 32.5611 71.3828 28.91C69.4484 30.6267 66.9418 31.6406 64.1242 31.6406C57.7861 31.6406 52.9906 26.4905 52.9906 19.9783H52.9844ZM71.4201 20.2831V19.9721C71.4201 15.8794 68.4283 12.8006 64.6466 12.8006C60.865 12.8006 57.8732 15.8794 57.8732 19.9721C57.8732 24.0648 60.865 27.1436 64.6466 27.1436C68.4283 27.1436 71.2459 24.2389 71.4201 20.2831Z" fill="white"/>
<path d="M83.0826 8.75758C83.7419 3.34629 87.791 0 92.9846 0C94.2162 0 95.23 1.01384 95.23 2.24537C95.23 3.47691 94.2162 4.49075 92.9846 4.49075C90.4345 4.49075 88.4939 5.9462 87.9714 8.75758H92.9846C94.2162 8.75758 95.23 9.72788 95.23 11.003C95.23 12.278 94.2162 13.2483 92.9846 13.2483H87.8346V29.1339C87.8346 30.496 86.7336 31.597 85.415 31.597C84.0964 31.597 82.9955 30.496 82.9955 29.1339V13.2483H81.4094C80.1344 13.2483 79.1641 12.2345 79.1641 11.003C79.1641 9.77142 80.1344 8.75758 81.4094 8.75758H83.0826Z" fill="white"/>
<path d="M95 19.9783C95 13.4661 99.9697 8.32227 106.662 8.32227C113.355 8.32227 118.325 13.4723 118.325 19.9783C118.325 26.4843 113.398 31.6406 106.662 31.6406C99.9261 31.6406 95 26.4905 95 19.9783ZM113.436 19.9783C113.436 16.0162 110.531 12.8068 106.662 12.8068C102.794 12.8068 99.8888 16.0162 99.8888 19.9783C99.8888 23.9404 102.794 27.1498 106.662 27.1498C110.531 27.1498 113.436 23.8906 113.436 19.9783Z" fill="white"/>
<path d="M121.922 18.6093C121.922 12.3583 126.102 8.31543 131.824 8.31543C133.055 8.31543 134.069 9.28573 134.069 10.5608C134.069 11.8359 133.055 12.8062 131.824 12.8062C128.919 12.8062 126.767 14.7406 126.767 18.6155V29.1333C126.767 30.4955 125.71 31.5964 124.348 31.5964C122.985 31.5964 121.928 30.4955 121.928 29.1333V18.6155L121.922 18.6093Z" fill="white"/>
<path d="M134.68 19.9783C134.68 13.4661 139.649 8.32227 146.342 8.32227C150.037 8.32227 153.115 9.90833 154.789 11.8863C155.23 12.4149 155.491 13.0307 155.491 13.5594C155.491 14.878 154.478 15.8048 153.115 15.8048C152.145 15.8048 151.666 15.3196 151.044 14.7909C149.943 13.69 148.45 12.813 146.336 12.813C142.554 12.813 139.562 15.9789 139.562 19.9845C139.562 23.9901 142.554 27.156 146.336 27.156C148.357 27.156 149.943 26.279 151.001 25.1781C151.616 24.6494 152.145 24.0772 153.115 24.0772C154.478 24.0772 155.491 25.0475 155.491 26.4096C155.491 26.8948 155.23 27.5106 154.789 27.9957C153.115 30.0172 150.08 31.6468 146.342 31.6468C139.656 31.6468 134.68 26.4967 134.68 19.9845V19.9783Z" fill="white"/>
<path d="M176.342 28.91C174.408 30.6267 171.851 31.6406 169.04 31.6406C162.702 31.6406 157.906 26.4905 157.906 19.9783C157.906 13.4661 162.702 8.32227 169.04 8.32227C171.857 8.32227 174.408 9.3361 176.342 11.0963V10.7853C176.342 9.42318 177.399 8.3658 178.761 8.3658C180.124 8.3658 181.181 9.42318 181.181 10.7853V29.134C181.181 30.4961 180.124 31.597 178.761 31.597C177.399 31.597 176.342 30.4961 176.342 29.134V28.9163V28.91ZM176.342 19.9783V19.6673C176.168 15.7488 173.263 12.8068 169.569 12.8068C165.874 12.8068 162.795 15.8856 162.795 19.9783C162.795 24.071 165.787 27.1498 169.569 27.1498C173.35 27.1498 176.342 24.071 176.342 19.9783Z" fill="white"/>
<path d="M186.986 24.1145C187.689 24.1145 188.305 24.4255 188.659 24.9915C189.319 25.9618 190.245 27.2804 192.136 27.2804C193.586 27.2804 194.643 26.1795 194.643 24.9044C194.643 23.1007 192.97 22.3978 190.905 21.695C188.131 20.7247 185.008 19.5367 185.008 15.0086C185.008 11.2705 188.087 8.32227 192.136 8.32227C195.874 8.32227 199.308 10.6112 199.308 13.379C199.308 14.6106 198.294 15.5373 197.062 15.5373C196.577 15.5373 195.962 15.3632 195.657 14.7474C194.91 13.9139 193.853 12.6326 192.136 12.6326C190.644 12.6326 189.673 13.7336 189.673 15.0086C189.673 16.8124 191.521 17.3846 193.766 18.131C196.447 18.9645 199.488 20.3764 199.488 24.7738C199.488 28.4684 196.279 31.6406 192.143 31.6406C188.224 31.6406 184.797 29.0904 184.797 26.3599C184.797 25.1284 185.767 24.1145 186.999 24.1145H186.986Z" fill="white"/>
<path d="M203.047 2.41953C203.047 1.05738 204.104 0 205.466 0C206.829 0 207.886 1.05738 207.886 2.41953V10.2503C209.292 9.14943 211.189 8.31597 213.471 8.31597C218.709 8.31597 222.845 12.278 222.845 18.5663V29.1277C222.845 30.4898 221.744 31.5907 220.425 31.5907C219.107 31.5907 218.006 30.4898 218.006 29.1277V18.3922C218.006 14.6976 215.76 12.8067 212.949 12.8067C210.138 12.8067 207.892 14.6976 207.892 18.3922V29.1277C207.892 30.4898 206.835 31.5907 205.473 31.5907C204.11 31.5907 203.053 30.4898 203.053 29.1277V2.41953H203.047Z" fill="white"/>
<path d="M121.477 37.1375C121.477 35.5514 122.752 34.2764 124.338 34.2764C125.924 34.2764 127.199 35.5514 127.199 37.1375C127.199 38.7236 125.924 39.9986 124.338 39.9986C122.752 39.9986 121.477 38.68 121.477 37.1375Z" fill="#9ABECA"/>
</svg>
