
<svg width="107" height="20" viewBox="0 0 107 20" fill="none" xmlns="http://www.w3.org/2000/svg">
<path d="M2.98552 13.8402V13.9449C2.98552 14.2449 2.86447 14.5326 2.649 14.7447C2.43352 14.9568 2.14128 15.076 1.83656 15.076C1.53183 15.076 1.23959 14.9568 1.02412 14.7447C0.808648 14.5326 0.687597 14.2449 0.687597 13.9449V1.45931C0.685612 1.31023 0.713975 1.16227 0.771013 1.02416C0.828051 0.886047 0.912608 0.760578 1.0197 0.655155C1.12679 0.549732 1.25424 0.46649 1.39453 0.410339C1.53483 0.354189 1.68512 0.326267 1.83656 0.328221C1.98799 0.326267 2.13829 0.354189 2.27858 0.410339C2.41888 0.46649 2.54633 0.549732 2.65342 0.655155C2.76051 0.760578 2.84506 0.886047 2.9021 1.02416C2.95914 1.16227 2.9875 1.31023 2.98552 1.45931V5.51262C3.9354 4.66777 5.17297 4.20494 6.45307 4.2158C9.46282 4.2158 11.7401 6.62336 11.7401 9.6648C11.7401 12.7062 9.46282 15.1167 6.45307 15.1167C5.17717 15.1251 3.9428 14.6707 2.98552 13.8402ZM9.42147 9.6648C9.42147 7.75445 8.00077 6.31514 6.20202 6.31514C4.40326 6.31514 3.0505 7.69048 2.98552 9.52232V9.6648C2.98552 11.5781 4.40621 13.0203 6.20202 13.0203C7.99782 13.0203 9.42147 11.5781 9.42147 9.6648Z" fill="#212322"/>
<path d="M21.7702 13.8404C20.8129 14.6709 19.5785 15.1253 18.3026 15.1169C15.2929 15.1169 13.0156 12.7094 13.0156 9.66501C13.0156 6.62066 15.2929 4.21601 18.3026 4.21601C19.5827 4.20515 20.8203 4.66798 21.7702 5.51283V5.36745C21.7702 5.06747 21.8912 4.77977 22.1067 4.56765C22.3222 4.35553 22.6144 4.23636 22.9191 4.23636C23.2239 4.23636 23.5161 4.35553 23.7316 4.56765C23.947 4.77977 24.0681 5.06747 24.0681 5.36745V13.9451C24.0681 14.2451 23.947 14.5328 23.7316 14.7449C23.5161 14.957 23.2239 15.0762 22.9191 15.0762C22.6144 15.0762 22.3222 14.957 22.1067 14.7449C21.8912 14.5328 21.7702 14.2451 21.7702 13.9451V13.8404ZM21.7702 9.66501V9.52253C21.6875 7.69069 20.2934 6.32408 18.5537 6.32408C16.814 6.32408 15.3342 7.76338 15.3342 9.67373C15.3342 11.5841 16.7549 13.0292 18.5537 13.0292C20.3524 13.0292 21.7702 11.5783 21.7702 9.66501Z" fill="#212322"/>
<path d="M25.7891 9.665C25.7891 6.62357 28.0663 4.216 31.0731 4.216C32.3541 4.20527 33.5925 4.66804 34.5436 5.51283V5.36745C34.5436 5.06746 34.6647 4.77977 34.8801 4.56765C35.0956 4.35552 35.3878 4.23636 35.6926 4.23636C35.9973 4.23636 36.2895 4.35552 36.505 4.56765C36.7205 4.77977 36.8415 5.06746 36.8415 5.36745V13.5729C36.8429 14.2979 36.6971 15.0158 36.4127 15.6845C36.1284 16.3532 35.7113 16.9593 35.1858 17.4671C34.6603 17.975 34.037 18.3744 33.3526 18.6418C32.6682 18.9093 31.9363 19.0396 31.2001 19.0248C30.455 19.0412 29.7146 18.9031 29.0272 18.6196C28.3397 18.3361 27.7205 17.9134 27.2098 17.3791C27.0096 17.1688 26.8869 16.8985 26.8612 16.6115C26.8594 16.4671 26.8877 16.3239 26.9443 16.1907C27.001 16.0576 27.0848 15.9373 27.1905 15.8372C27.2963 15.7372 27.4217 15.6596 27.5592 15.6092C27.6966 15.5589 27.8431 15.5368 27.9895 15.5443C28.4473 15.5443 28.6984 15.8118 28.9908 16.0561C29.5782 16.6183 30.3661 16.9315 31.1853 16.9284C32.0348 16.929 32.8522 16.6093 33.4696 16.035C34.0871 15.4606 34.4576 14.6754 34.5052 13.8404C33.5562 14.671 32.3281 15.1258 31.0583 15.1169C28.0515 15.1169 25.7891 12.7093 25.7891 9.665ZM34.5436 9.81039V9.665C34.5436 7.75466 33.1229 6.31535 31.3242 6.31535C29.5254 6.31535 28.0929 7.75466 28.0929 9.665C28.0929 11.5754 29.5136 13.0205 31.3094 13.0205C33.1052 13.0205 34.4432 11.6684 34.5288 9.81039H34.5436Z" fill="#212322"/>
<path d="M40.0709 4.42215C40.384 1.89246 42.3068 0.328125 44.7702 0.328125C45.053 0.328125 45.3242 0.438715 45.5241 0.635567C45.7241 0.83242 45.8364 1.09941 45.8364 1.3778C45.8364 1.65619 45.7241 1.92318 45.5241 2.12003C45.3242 2.31688 45.053 2.42747 44.7702 2.42747C43.5592 2.42747 42.6406 3.10496 42.3895 4.42215H44.7702C44.9105 4.42098 45.0497 4.44734 45.1796 4.49968C45.3095 4.55202 45.4275 4.62929 45.5268 4.727C45.626 4.8247 45.7045 4.94088 45.7577 5.06876C45.8108 5.19663 45.8376 5.33365 45.8364 5.47182C45.8349 5.74947 45.7219 6.01527 45.5222 6.21133C45.3225 6.40739 45.0522 6.51782 44.7702 6.51859H42.3364V13.9448C42.3387 14.0955 42.3108 14.2452 42.2543 14.3852C42.1978 14.5253 42.1138 14.653 42.0071 14.7611C41.9003 14.8691 41.773 14.9554 41.6323 15.0149C41.4917 15.0744 41.3405 15.106 41.1874 15.1079C41.0338 15.1079 40.8817 15.0777 40.7401 15.0188C40.5985 14.96 40.4704 14.8738 40.3633 14.7654C40.2561 14.6569 40.1722 14.5284 40.1164 14.3875C40.0606 14.2465 40.0341 14.096 40.0385 13.9448V6.51859H39.2853C39.1451 6.52014 39.006 6.49414 38.8761 6.44212C38.7462 6.39011 38.6282 6.31311 38.5289 6.21563C38.4296 6.11816 38.351 6.00217 38.2978 5.87445C38.2446 5.74674 38.2178 5.60985 38.219 5.47182C38.2158 5.3331 38.2412 5.19518 38.2936 5.06639C38.346 4.9376 38.4245 4.82062 38.5241 4.72251C38.6238 4.62439 38.7426 4.54719 38.8735 4.49557C39.0043 4.44394 39.1444 4.41896 39.2853 4.42215H40.0709Z" fill="#212322"/>
<path d="M45.7266 9.6648C45.7266 8.21886 46.31 6.83215 47.3486 5.80972C48.3872 4.78729 49.7958 4.21289 51.2646 4.21289C52.7334 4.21289 54.142 4.78729 55.1806 5.80972C56.2192 6.83215 56.8027 8.21886 56.8027 9.6648C56.8027 11.1107 56.2192 12.4974 55.1806 13.5199C54.142 14.5423 52.7334 15.1167 51.2646 15.1167C49.7958 15.1167 48.3872 14.5423 47.3486 13.5199C46.31 12.4974 45.7266 11.1107 45.7266 9.6648ZM54.4811 9.6648C54.4811 7.81551 53.1047 6.31515 51.2646 6.31515C49.4245 6.31515 48.0481 7.81551 48.0481 9.6648C48.0481 11.5141 49.4215 13.0203 51.2646 13.0203C53.1077 13.0203 54.4811 11.4966 54.4811 9.6648Z" fill="#212322"/>
<path d="M58.5156 9.02808C58.5156 6.12039 60.5005 4.21586 63.2178 4.21586C63.3585 4.21467 63.4981 4.24123 63.6282 4.29397C63.7583 4.3467 63.8764 4.42454 63.9755 4.52291C64.0746 4.62127 64.1527 4.73817 64.2052 4.86671C64.2577 4.99525 64.2835 5.13283 64.2811 5.27135C64.2803 5.549 64.1681 5.81511 63.969 6.01171C63.7698 6.20831 63.4998 6.31949 63.2178 6.32102C61.8385 6.32102 60.8135 7.22531 60.8135 9.03389V13.945C60.8135 14.245 60.6925 14.5327 60.477 14.7448C60.2615 14.9569 59.9693 15.0761 59.6646 15.0761C59.3599 15.0761 59.0676 14.9569 58.8521 14.7448C58.6367 14.5327 58.5156 14.245 58.5156 13.945V9.02808Z" fill="#212322"/>
<path d="M64.5711 9.66447C64.5588 8.94629 64.6932 8.23298 64.9665 7.56695C65.2397 6.90093 65.6461 6.29577 66.1617 5.78745C66.6772 5.27914 67.2912 4.87804 67.9674 4.60799C68.6435 4.33794 69.3678 4.20446 70.0974 4.21547C71.8518 4.21547 73.3139 4.95693 74.1084 5.88158C74.306 6.09784 74.4236 6.37345 74.4422 6.66374C74.4433 6.80713 74.4144 6.9492 74.3572 7.0811C74.3001 7.213 74.216 7.3319 74.1101 7.43038C74.0043 7.52887 73.8789 7.60483 73.7419 7.65352C73.6049 7.70222 73.4592 7.72261 73.3139 7.71342C72.8561 7.71342 72.6257 7.48662 72.3333 7.23947C72.0447 6.94293 71.6973 6.70786 71.3128 6.54881C70.9282 6.38977 70.5145 6.31013 70.0974 6.31482C68.3016 6.31482 66.8809 7.79483 66.8809 9.66447C66.8809 11.5341 68.3252 13.0199 70.0974 13.0199C70.5113 13.0222 70.9214 12.941 71.3023 12.7815C71.6833 12.622 72.0271 12.3875 72.3126 12.0924C72.608 11.8452 72.8561 11.5777 73.3139 11.5777C73.462 11.5713 73.6099 11.5949 73.7484 11.6472C73.8869 11.6995 74.013 11.7792 74.1188 11.8815C74.2246 11.9837 74.3079 12.1064 74.3636 12.2417C74.4192 12.377 74.446 12.5222 74.4422 12.6681C74.4265 12.9456 74.3126 13.209 74.1202 13.4125C73.6153 13.9667 72.994 14.4062 72.2994 14.7005C71.6047 14.9947 70.8533 15.1366 70.0974 15.1164C69.3676 15.1274 68.643 14.9938 67.9667 14.7236C67.2903 14.4534 66.6761 14.052 66.1606 13.5434C65.645 13.0348 65.2386 12.4293 64.9656 11.7629C64.6925 11.0965 64.5584 10.3829 64.5711 9.66447Z" fill="#212322"/>
<path d="M84.3561 13.8404C83.3988 14.6709 82.1645 15.1253 80.8886 15.1169C77.8788 15.1169 75.6016 12.7094 75.6016 9.66501C75.6016 6.62066 77.8788 4.21601 80.8886 4.21601C82.1687 4.20515 83.4062 4.66798 84.3561 5.51283V5.36745C84.3561 5.06747 84.4772 4.77977 84.6926 4.56765C84.9081 4.35553 85.2003 4.23636 85.5051 4.23636C85.8098 4.23636 86.102 4.35553 86.3175 4.56765C86.533 4.77977 86.654 5.06747 86.654 5.36745V13.9451C86.654 14.2451 86.533 14.5328 86.3175 14.7449C86.102 14.957 85.8098 15.0762 85.5051 15.0762C85.2003 15.0762 84.9081 14.957 84.6926 14.7449C84.4772 14.5328 84.3561 14.2451 84.3561 13.9451V13.8404ZM84.3561 9.66501V9.52253C84.2734 7.69069 82.8941 6.32408 81.1367 6.32408C79.3792 6.32408 77.9202 7.76338 77.9202 9.67373C77.9202 11.5841 79.3409 13.0292 81.1367 13.0292C82.9325 13.0292 84.3561 11.5783 84.3561 9.66501Z" fill="#212322"/>
<path d="M89.4138 11.5984C89.5713 11.5934 89.7274 11.6288 89.8667 11.7012C90.006 11.7736 90.1238 11.8805 90.2084 12.0113C90.5214 12.4649 90.9615 13.0814 91.8594 13.0814C92.0112 13.0852 92.1623 13.0595 92.3039 13.0057C92.4455 12.9519 92.575 12.8711 92.6848 12.7678C92.7946 12.6646 92.8826 12.541 92.9437 12.4042C93.0048 12.2674 93.0378 12.12 93.0409 11.9706C93.0409 11.1274 92.2464 10.8075 91.2687 10.4673C89.9514 10.0167 88.4687 9.46128 88.4687 7.34158C88.4687 5.59697 89.9455 4.21582 91.8535 4.21582C93.6257 4.21582 95.2591 5.28585 95.2591 6.57977C95.2587 6.71553 95.2308 6.84986 95.1771 6.97488C95.1233 7.09991 95.0448 7.21313 94.946 7.3079C94.8473 7.40267 94.7303 7.4771 94.602 7.52682C94.4737 7.57654 94.3366 7.60055 94.1987 7.59746C94.0633 7.60492 93.9285 7.57413 93.8102 7.5087C93.6919 7.44328 93.5951 7.34595 93.5312 7.22818C93.1767 6.83564 92.6746 6.23957 91.8594 6.23957C91.7066 6.23121 91.5535 6.25382 91.4099 6.306C91.2662 6.35817 91.135 6.43881 91.0242 6.54292C90.9135 6.64703 90.8256 6.7724 90.7661 6.91127C90.7065 7.05014 90.6765 7.19957 90.678 7.3503C90.678 8.19353 91.5641 8.46104 92.6215 8.80415C93.8945 9.19668 95.3359 9.85382 95.3359 11.9096C95.3359 13.6542 93.8118 15.108 91.8476 15.108C89.9868 15.108 88.3594 13.9159 88.3594 12.6394C88.3586 12.5027 88.3853 12.3672 88.438 12.2408C88.4907 12.1143 88.5683 11.9994 88.6663 11.9026C88.7643 11.8059 88.8809 11.7292 89.0092 11.6769C89.1375 11.6247 89.275 11.598 89.4138 11.5984Z" fill="#212322"/>
<path d="M97.0313 1.45921C97.0312 1.31068 97.061 1.1636 97.1187 1.02637C97.1765 0.889135 97.2611 0.764445 97.3678 0.659413C97.4745 0.554382 97.6011 0.471067 97.7405 0.414224C97.8799 0.357381 98.0293 0.328125 98.1802 0.328125C98.3311 0.328125 98.4805 0.357381 98.6199 0.414224C98.7593 0.471067 98.886 0.554382 98.9927 0.659413C99.0993 0.764445 99.184 0.889135 99.2417 1.02637C99.2994 1.1636 99.3292 1.31068 99.3292 1.45921V5.11999C100.086 4.53175 101.023 4.21303 101.987 4.2157C104.474 4.2157 106.439 6.06789 106.439 9.00756V13.9506C106.441 14.1013 106.413 14.251 106.356 14.3911C106.3 14.5311 106.216 14.6588 106.109 14.7669C106.002 14.8749 105.875 14.9612 105.735 15.0207C105.594 15.0802 105.443 15.1118 105.29 15.1137C105.136 15.1134 104.984 15.0828 104.843 15.0238C104.701 14.9649 104.573 14.8787 104.466 14.7703C104.359 14.6619 104.275 14.5336 104.219 14.3928C104.163 14.2521 104.137 14.1017 104.141 13.9506V8.92615C104.141 7.19898 103.074 6.30923 101.739 6.30923C100.404 6.30923 99.3351 7.18154 99.3351 8.92615V13.9448C99.3351 14.0933 99.3054 14.2404 99.2476 14.3777C99.1899 14.5149 99.1052 14.6396 98.9986 14.7446C98.8919 14.8496 98.7652 14.933 98.6258 14.9898C98.4864 15.0466 98.337 15.0759 98.1861 15.0759C98.0352 15.0759 97.8858 15.0466 97.7464 14.9898C97.607 14.933 97.4804 14.8496 97.3737 14.7446C97.267 14.6396 97.1824 14.5149 97.1246 14.3777C97.0669 14.2404 97.0372 14.0933 97.0372 13.9448L97.0313 1.45921Z" fill="#212322"/>
<path d="M58.3047 17.6871C58.3047 17.4226 58.3844 17.164 58.5337 16.9441C58.683 16.7241 58.8952 16.5527 59.1434 16.4514C59.3917 16.3502 59.6649 16.3237 59.9284 16.3753C60.192 16.4269 60.4341 16.5543 60.6241 16.7414C60.8141 16.9284 60.9435 17.1667 60.9959 17.4262C61.0483 17.6857 61.0214 17.9546 60.9186 18.199C60.8158 18.4434 60.6416 18.6523 60.4182 18.7993C60.1948 18.9462 59.9321 19.0247 59.6634 19.0247C59.4848 19.0251 59.308 18.9907 59.143 18.9236C58.9779 18.8566 58.828 18.7581 58.7018 18.6338C58.5755 18.5095 58.4755 18.3619 58.4073 18.1995C58.3392 18.037 58.3043 17.8629 58.3047 17.6871Z" fill="#546C83"/>
</svg>
