<svg width="198" height="30" viewBox="0 0 198 30" fill="none" xmlns="http://www.w3.org/2000/svg">
<path d="M92.8532 6.58773C93.3586 2.55382 96.3052 0.0615234 100.111 0.0615234C100.547 0.0628699 100.964 0.239095 101.273 0.551861C101.581 0.864626 101.756 1.28863 101.759 1.73162C101.757 2.1755 101.583 2.60081 101.275 2.91469C100.966 3.22856 100.548 3.40549 100.111 3.40685C98.241 3.40685 96.8208 4.48598 96.4366 6.58773H100.111C100.328 6.58568 100.542 6.62744 100.743 6.71058C100.943 6.79372 101.126 6.91658 101.279 7.07201C101.432 7.22743 101.554 7.41231 101.636 7.61589C101.718 7.81948 101.76 8.03769 101.759 8.25782C101.757 8.70171 101.583 9.12702 101.275 9.44089C100.966 9.75477 100.548 9.9317 100.111 9.93305H96.3356V21.7522C96.354 21.9998 96.3219 22.2486 96.2414 22.4831C96.1608 22.7175 96.0335 22.9325 95.8675 23.1146C95.7014 23.2967 95.5001 23.442 95.2763 23.5413C95.0524 23.6406 94.8108 23.6919 94.5666 23.6919C94.3223 23.6919 94.0807 23.6406 93.8569 23.5413C93.633 23.442 93.4318 23.2967 93.2657 23.1146C93.0996 22.9325 92.9723 22.7175 92.8918 22.4831C92.8112 22.2486 92.7792 21.9998 92.7976 21.7522V9.93305H91.6402C91.4234 9.93442 91.2086 9.89202 91.008 9.80831C90.8075 9.72461 90.6254 9.60126 90.4721 9.44543C90.3188 9.2896 90.1975 9.10438 90.1152 8.90052C90.0328 8.69665 89.9911 8.4782 89.9925 8.25782C89.9883 8.03691 90.0282 7.81743 90.1096 7.61256C90.191 7.4077 90.3123 7.22167 90.4662 7.06568C90.6201 6.90968 90.8034 6.78693 91.0052 6.70479C91.2069 6.62266 91.4229 6.58284 91.6402 6.58773H92.8532Z" fill="#212322"/>
<path d="M169.836 18.0317C170.079 18.0231 170.319 18.0794 170.534 18.1948C170.749 18.3102 170.93 18.4807 171.059 18.6894C171.565 19.4088 172.222 20.3955 173.586 20.3955C173.822 20.4037 174.057 20.3642 174.278 20.2792C174.498 20.1942 174.7 20.0655 174.871 19.9005C175.043 19.7356 175.18 19.5376 175.275 19.3182C175.37 19.0988 175.422 18.8624 175.426 18.6226C175.426 17.2814 174.203 16.7572 172.687 16.228C170.665 15.5085 168.36 14.6247 168.36 11.2434C168.36 8.45817 170.62 6.25879 173.586 6.25879C176.331 6.25879 178.848 7.96485 178.848 10.0306C178.846 10.247 178.802 10.4607 178.717 10.6594C178.633 10.858 178.51 11.0375 178.357 11.1874C178.204 11.3372 178.022 11.4544 177.823 11.5319C177.625 11.6095 177.413 11.6459 177.2 11.6391C176.994 11.6454 176.791 11.5934 176.613 11.4891C176.434 11.3848 176.288 11.2321 176.189 11.0481C175.638 10.4263 174.865 9.4705 173.607 9.4705C173.372 9.46002 173.138 9.49824 172.918 9.58283C172.699 9.66742 172.498 9.7966 172.33 9.9625C172.161 10.1284 172.027 10.3275 171.936 10.5477C171.846 10.768 171.8 11.0047 171.802 11.2434C171.802 12.5897 173.157 13.0162 174.799 13.5712C176.771 14.1982 178.995 15.2465 178.995 18.525C178.995 21.2793 176.639 23.6637 173.607 23.6637C170.736 23.6637 168.219 21.7624 168.219 19.7274C168.216 19.5093 168.256 19.2927 168.336 19.0903C168.416 18.8878 168.534 18.7034 168.685 18.5477C168.835 18.392 169.014 18.2681 169.212 18.1831C169.409 18.098 169.622 18.0535 169.836 18.0522" fill="#212322"/>
<path d="M51.0527 6.28496H52.6195C52.8589 6.27731 53.0973 6.31889 53.3205 6.40719C53.5437 6.49549 53.7471 6.6287 53.9184 6.79884C54.0855 6.9679 54.2166 7.17011 54.3036 7.39289C54.3905 7.61566 54.4315 7.85425 54.4239 8.0938C54.4316 8.33876 54.3908 8.5828 54.304 8.81143C54.2172 9.04006 54.0861 9.24863 53.9184 9.42474C53.7485 9.59686 53.5454 9.73137 53.3218 9.81981C53.0983 9.90824 52.8592 9.94869 52.6195 9.93861H51.0527V21.8554C51.0606 22.095 51.0198 22.3336 50.9328 22.5565C50.8459 22.7793 50.7146 22.9815 50.5473 23.1503C50.1993 23.4839 49.7392 23.6696 49.261 23.6696C48.7827 23.6696 48.3226 23.4839 47.9747 23.1503C47.806 22.9824 47.674 22.7804 47.5869 22.5573C47.4998 22.3343 47.4598 22.0951 47.4692 21.8554V9.96945H46.1248C45.8813 9.9707 45.6402 9.91993 45.4172 9.82042C45.2029 9.72378 45.0089 9.58593 44.8461 9.41446C44.6797 9.24211 44.5461 9.04003 44.4518 8.81837C44.3534 8.59183 44.3034 8.3466 44.3053 8.09894C44.299 7.85727 44.3431 7.61698 44.4345 7.39382C44.526 7.17065 44.6628 6.96965 44.836 6.80398C45.0061 6.6351 45.2078 6.50262 45.4292 6.41436C45.6506 6.32609 45.8871 6.28384 46.1248 6.2901H47.4136V1.81426C47.4042 1.57448 47.4442 1.33534 47.5313 1.11229C47.6184 0.889236 47.7504 0.687223 47.9191 0.519292C48.267 0.185763 48.7271 0 49.2054 0C49.6836 0 50.1437 0.185763 50.4917 0.519292C50.659 0.688167 50.7903 0.890342 50.8772 1.11317C50.9642 1.33599 51.005 1.57466 50.9971 1.81426L51.0527 6.28496Z" fill="#212322"/>
<path d="M59.1117 15.0306V15.0718C59.1124 15.7029 59.2343 16.3278 59.4705 16.9114C59.7066 17.5066 60.0493 18.052 60.4814 18.5199C60.9094 18.9977 61.4242 19.3868 61.9976 19.6658C62.5826 19.9598 63.2253 20.1161 63.8778 20.1231C64.4807 20.1472 65.0834 20.0709 65.662 19.897C66.2799 19.6999 66.8499 19.3725 67.3349 18.9361C67.5169 18.7922 67.714 18.6432 67.9263 18.5044C68.1306 18.3643 68.3584 18.2632 68.5985 18.2064C68.8496 18.1475 69.1106 18.1475 69.3617 18.2064C69.679 18.2914 69.9696 18.4578 70.2057 18.6894C70.3945 18.8549 70.5432 19.0624 70.6404 19.2958C70.7398 19.5235 70.7865 19.7714 70.7769 20.0204C70.77 20.278 70.7115 20.5316 70.605 20.7655C70.4844 21.0351 70.3126 21.2778 70.0996 21.4798C69.3546 22.2613 68.4483 22.865 67.4461 23.2475C66.4058 23.6456 65.3028 23.8476 64.1912 23.8436C61.8807 23.8582 59.6565 22.9525 57.9947 21.3205C57.196 20.531 56.5572 19.59 56.1145 18.5507C55.6505 17.4681 55.4147 16.2988 55.4221 15.118V15.082C55.4143 13.8929 55.6501 12.7151 56.1145 11.6237C56.5591 10.5733 57.1973 9.6192 57.9947 8.81277C58.7968 8.00748 59.7418 7.36406 60.7796 6.91657C61.8583 6.45121 63.0193 6.21512 64.1912 6.22284C65.3033 6.21803 66.4067 6.42185 67.4461 6.82407C68.4483 7.20656 69.3546 7.8103 70.0996 8.5918C70.3113 8.79296 70.4829 9.03373 70.605 9.30095C70.7122 9.54008 70.7706 9.79878 70.7769 10.0615C70.7871 10.3121 70.7404 10.5618 70.6404 10.7912C70.5421 11.0254 70.3936 11.2343 70.2057 11.4027C69.9681 11.6312 69.6779 11.7956 69.3617 11.8806C69.1109 11.9423 68.8493 11.9423 68.5985 11.8806C68.3597 11.8172 68.1327 11.7148 67.9263 11.5774C67.714 11.4335 67.5169 11.2896 67.3349 11.1406C66.83 10.7078 66.2436 10.3843 65.6114 10.19C65.0326 10.016 64.4307 9.93451 63.8273 9.94843C63.1794 9.96756 62.5432 10.1288 61.9623 10.4212C61.3889 10.7002 60.874 11.0893 60.446 11.5671C60.019 12.0389 59.6768 12.5834 59.4351 13.1756C59.2083 13.7663 59.0984 14.3967 59.1117 15.0306Z" fill="#212322"/>
<path d="M76.9737 8.32993C77.6069 7.69675 78.3398 7.17569 79.142 6.78831C79.9153 6.41307 80.7618 6.21986 81.6186 6.22304C82.62 6.21059 83.6108 6.43211 84.5146 6.87053C85.3785 7.2941 86.1423 7.90234 86.7537 8.65367C87.3968 9.45612 87.8886 10.3725 88.2042 11.3567C88.5536 12.4604 88.7243 13.6145 88.7097 14.7739V21.8911C88.7185 22.1308 88.6782 22.3697 88.5911 22.5927C88.5041 22.8157 88.3723 23.0177 88.2042 23.186C87.8555 23.5199 87.3945 23.7058 86.9154 23.7058C86.4364 23.7058 85.9754 23.5199 85.6266 23.186C85.4595 23.017 85.3284 22.8148 85.2414 22.592C85.1545 22.3692 85.1135 22.1306 85.1212 21.8911V14.8664C85.1156 14.182 85.0135 13.5018 84.8179 12.8469C84.663 12.2786 84.4041 11.7452 84.0547 11.2744C83.7314 10.8376 83.3104 10.4853 82.8265 10.2467C82.3129 10.0083 81.7535 9.88894 81.189 9.89725C80.62 9.8942 80.0568 10.0133 79.5362 10.2467C79.0483 10.484 78.6106 10.8156 78.2474 11.223C77.8631 11.6462 77.5612 12.1397 77.3578 12.6773C77.1363 13.2584 77.0133 13.8735 76.9939 14.4964V21.8397C76.9967 22.0807 76.952 22.3198 76.8625 22.543C76.773 22.7662 76.6406 22.969 76.473 23.1394C76.3053 23.3098 76.1059 23.4445 75.8864 23.5354C75.6669 23.6264 75.4317 23.6718 75.1946 23.6691C74.9472 23.6707 74.7017 23.6236 74.4719 23.5303C74.2542 23.4414 74.0565 23.3085 73.8906 23.1398C73.7281 22.9733 73.5994 22.776 73.5116 22.5591C73.4194 22.331 73.373 22.0864 73.3751 21.8397V1.86539C73.3724 1.61433 73.4224 1.36558 73.5217 1.13569C73.6147 0.91614 73.7466 0.715834 73.9108 0.54473C74.0782 0.376648 74.2755 0.242379 74.4921 0.149046C74.7075 0.0537978 74.9395 0.0031376 75.1744 2.28075e-05C75.4179 -0.00123488 75.659 0.049536 75.882 0.149046C76.0949 0.243823 76.2885 0.377996 76.4531 0.54473C76.6201 0.712512 76.7509 0.913757 76.8373 1.13569C76.929 1.36758 76.9753 1.61545 76.9737 1.86539V8.32993Z" fill="#212322"/>
<path d="M102.838 11.6395C103.728 9.52544 105.387 7.84267 107.468 6.94265C108.534 6.48488 109.68 6.24902 110.837 6.24902C111.994 6.24902 113.139 6.48488 114.205 6.94265C115.233 7.38946 116.167 8.03324 116.955 8.83885C117.739 9.64719 118.368 10.5969 118.81 11.6395C119.26 12.7251 119.492 13.8914 119.492 15.0696C119.492 16.2478 119.26 17.4141 118.81 18.4997C118.369 19.5429 117.74 20.4929 116.955 21.3003C116.167 22.1059 115.233 22.7497 114.205 23.1965C113.139 23.6543 111.994 23.8901 110.837 23.8901C109.68 23.8901 108.534 23.6543 107.468 23.1965C105.387 22.2965 103.728 20.6137 102.838 18.4997C102.388 17.4141 102.156 16.2478 102.156 15.0696C102.156 13.8914 102.388 12.7251 102.838 11.6395ZM106.194 17.0557C106.706 18.2852 107.669 19.2638 108.878 19.7844C109.499 20.0522 110.167 20.1902 110.842 20.1902C111.517 20.1902 112.184 20.0522 112.805 19.7844C113.404 19.5252 113.948 19.152 114.408 18.6847C114.865 18.2173 115.229 17.6641 115.479 17.0557C115.998 15.7806 115.998 14.3483 115.479 13.0732C114.972 11.8487 114.012 10.876 112.805 10.3651C111.548 9.83771 110.136 9.83771 108.878 10.3651C108.28 10.6203 107.736 10.9902 107.276 11.4545C106.819 11.9208 106.453 12.4698 106.194 13.0732C105.931 13.7029 105.795 14.3801 105.795 15.0644C105.795 15.7487 105.931 16.426 106.194 17.0557Z" fill="#212322"/>
<path d="M135.401 15.0312V15.0723C135.401 15.7034 135.523 16.3283 135.76 16.9119C135.996 17.5071 136.338 18.0525 136.77 18.5204C137.198 18.9982 137.713 19.3873 138.287 19.6663C138.872 19.9603 139.514 20.1166 140.167 20.1237C140.77 20.1478 141.372 20.0714 141.951 19.8976C142.569 19.7004 143.139 19.373 143.624 18.9366C143.806 18.7927 144.003 18.6437 144.215 18.505C144.419 18.3641 144.647 18.2631 144.888 18.2069C145.139 18.148 145.4 18.148 145.651 18.2069C145.968 18.292 146.259 18.4583 146.495 18.6899C146.685 18.854 146.834 19.0619 146.929 19.2963C147.028 19.5244 147.076 19.7718 147.071 20.0209C147.06 20.2785 147 20.5316 146.894 20.766C146.773 21.0356 146.602 21.2783 146.389 21.4803C145.644 22.2618 144.737 22.8655 143.735 23.248C142.695 23.6461 141.592 23.8481 140.48 23.8441C138.17 23.8587 135.946 22.953 134.284 21.321C133.485 20.5315 132.846 19.5905 132.404 18.5512C131.94 17.4687 131.704 16.2993 131.711 15.1185V15.0825C131.703 13.8934 131.939 12.7156 132.404 11.6242C132.848 10.5738 133.486 9.61971 134.284 8.81328C135.082 8.00539 136.023 7.3585 137.059 6.9068C138.137 6.44144 139.298 6.20536 140.47 6.21307C141.582 6.20826 142.686 6.41209 143.725 6.81431C144.727 7.19679 145.633 7.80054 146.379 8.58204C146.59 8.78319 146.762 9.02397 146.884 9.29118C146.99 9.53086 147.05 9.78904 147.061 10.0517C147.067 10.3025 147.018 10.5516 146.919 10.7814C146.823 11.0167 146.674 11.226 146.485 11.3929C146.247 11.6215 145.957 11.7858 145.641 11.8708C145.39 11.9325 145.128 11.9325 144.877 11.8708C144.638 11.8084 144.411 11.7059 144.205 11.5676C143.993 11.4238 143.796 11.2799 143.614 11.1309C143.123 10.7077 142.554 10.388 141.941 10.1905C141.362 10.0165 140.76 9.93502 140.157 9.94894C139.509 9.96807 138.873 10.1293 138.292 10.4217C137.718 10.7007 137.203 11.0898 136.775 11.5676C136.348 12.0394 136.006 12.5839 135.765 13.1761C135.524 13.7639 135.4 14.3944 135.401 15.0312Z" fill="#212322"/>
<path d="M185.338 8.32993C185.969 7.69685 186.7 7.17576 187.501 6.78831C188.276 6.41348 189.124 6.22032 189.983 6.22304C190.984 6.21168 191.974 6.43315 192.879 6.87053C193.741 7.29668 194.504 7.90452 195.118 8.65367C195.759 9.45646 196.249 10.3728 196.563 11.3567C196.915 12.4598 197.086 13.6143 197.069 14.7739V21.8911C197.077 22.1308 197.037 22.3697 196.95 22.5927C196.863 22.8157 196.731 23.0177 196.563 23.186C196.393 23.3549 196.191 23.4874 195.97 23.5757C195.749 23.6639 195.512 23.7062 195.274 23.6999C195.036 23.7074 194.8 23.6657 194.578 23.5773C194.357 23.489 194.155 23.3559 193.985 23.186C193.817 23.0177 193.686 22.8157 193.599 22.5927C193.512 22.3697 193.471 22.1308 193.48 21.8911V14.8664C193.488 14.1822 193.4 13.5004 193.217 12.8417C193.062 12.2735 192.803 11.74 192.454 11.2693C192.131 10.8324 191.71 10.4801 191.226 10.2415C190.712 10.0032 190.153 9.88381 189.588 9.89211C189.018 9.88834 188.453 10.0074 187.93 10.2415C187.426 10.476 186.973 10.8096 186.596 11.223C186.21 11.6448 185.908 12.1387 185.707 12.6773C185.48 13.257 185.357 13.8729 185.343 14.4964V21.8397C185.345 22.0811 185.301 22.3207 185.211 22.5442C185.121 22.7678 184.988 22.9708 184.82 23.1413C184.652 23.3118 184.452 23.4463 184.232 23.537C184.012 23.6276 183.776 23.6725 183.538 23.6691C183.293 23.6702 183.049 23.6231 182.821 23.5303C182.602 23.4425 182.404 23.3095 182.239 23.1398C182.075 22.9736 181.945 22.7763 181.855 22.5591C181.763 22.331 181.717 22.0864 181.719 21.8397V1.86539C181.719 1.61458 181.769 1.36634 181.865 1.13568C181.958 0.914911 182.092 0.714311 182.26 0.544728C182.426 0.375549 182.624 0.241129 182.841 0.149045C183.059 0.0517657 183.295 0.00104657 183.533 2.13536e-05C183.778 -0.00119492 184.021 0.0495591 184.246 0.149045C184.459 0.243822 184.652 0.377995 184.817 0.544728C184.982 0.713877 185.113 0.914758 185.201 1.13568C185.293 1.36758 185.339 1.61544 185.338 1.86539V8.32993Z" fill="#212322"/>
<path d="M162.398 21.6806C160.911 23.0143 158.993 23.7458 157.01 23.7361C152.335 23.7361 148.797 19.8769 148.797 15.0002C148.797 10.1236 152.335 6.26436 157.01 6.26436C158.996 6.23896 160.919 6.97253 162.398 8.31986V8.08862C162.385 7.84194 162.422 7.59517 162.506 7.36336C162.589 7.13155 162.719 6.91955 162.886 6.7403C163.053 6.56104 163.255 6.41828 163.478 6.32072C163.701 6.22316 163.942 6.17285 164.185 6.17285C164.427 6.17285 164.668 6.22316 164.891 6.32072C165.114 6.41828 165.316 6.56104 165.483 6.7403C165.65 6.91955 165.78 7.13155 165.864 7.36336C165.947 7.59517 165.984 7.84194 165.971 8.08862V21.845C165.984 22.0917 165.947 22.3385 165.864 22.5703C165.78 22.8021 165.65 23.0141 165.483 23.1934C165.316 23.3726 165.114 23.5154 164.891 23.6129C164.668 23.7105 164.427 23.7608 164.185 23.7608C163.942 23.7608 163.701 23.7105 163.478 23.6129C163.255 23.5154 163.053 23.3726 162.886 23.1934C162.719 23.0141 162.589 22.8021 162.506 22.5703C162.422 22.3385 162.385 22.0917 162.398 21.845V21.6806ZM162.398 15.0002V14.7484C162.271 11.8091 160.128 9.60969 157.399 9.60969C154.67 9.60969 152.401 11.9221 152.401 14.99C152.401 18.0578 154.609 20.3702 157.399 20.3702C160.189 20.3702 162.398 18.0578 162.398 14.99" fill="#212322"/>
<path d="M38.5853 21.6805C37.098 23.0142 35.1806 23.7457 33.1975 23.736C28.5223 23.736 24.9844 19.8768 24.9844 15.0001C24.9844 10.1235 28.5223 6.26426 33.1975 6.26426C35.1832 6.23986 37.1056 6.9733 38.5853 8.31976V8.08852C38.5853 7.60742 38.7733 7.14603 39.1079 6.80584C39.4425 6.46565 39.8963 6.27454 40.3695 6.27454C40.8427 6.27454 41.2965 6.46565 41.6311 6.80584C41.9657 7.14603 42.1536 7.60742 42.1536 8.08852V21.8449C42.1536 22.326 41.9657 22.7874 41.6311 23.1276C41.2965 23.4678 40.8427 23.6589 40.3695 23.6589C39.8963 23.6589 39.4425 23.4678 39.1079 23.1276C38.7733 22.7874 38.5853 22.326 38.5853 21.8449V21.6805ZM38.5853 15.0001V14.7483C38.4539 11.809 36.3109 9.60959 33.5867 9.60959C30.8625 9.60959 28.5881 11.922 28.5881 14.9899C28.5881 18.0577 30.7968 20.3701 33.5867 20.3701C36.3766 20.3701 38.5853 18.0577 38.5853 14.9899" fill="#212322"/>
<path d="M122.25 13.9562C122.25 9.2697 125.333 6.24812 129.553 6.24812C129.771 6.24605 129.988 6.28827 130.189 6.37231C130.391 6.45634 130.574 6.5805 130.728 6.7375C130.882 6.8945 131.004 7.08117 131.086 7.28657C131.168 7.49197 131.209 7.71196 131.206 7.93363C131.205 8.37887 131.03 8.80549 130.721 9.12033C130.411 9.43517 129.991 9.61264 129.553 9.614C127.41 9.614 125.818 11.0683 125.818 13.9717V21.8442C125.818 22.3253 125.63 22.7867 125.296 23.1269C124.961 23.4671 124.507 23.6582 124.034 23.6582C123.561 23.6582 123.107 23.4671 122.773 23.1269C122.438 22.7867 122.25 22.3253 122.25 21.8442V13.9562Z" fill="#212322"/>
<path d="M121.906 27.8516C121.907 27.428 122.032 27.0142 122.264 26.6625C122.496 26.3108 122.826 26.0369 123.211 25.8755C123.596 25.7141 124.02 25.6724 124.428 25.7557C124.837 25.8389 125.212 26.0434 125.506 26.3433C125.8 26.6432 126 27.025 126.081 27.4406C126.162 27.8561 126.12 28.2867 125.961 28.6779C125.801 29.0692 125.531 29.4036 125.184 29.6388C124.838 29.874 124.431 29.9996 124.014 29.9996C123.737 29.9996 123.462 29.944 123.206 29.836C122.95 29.728 122.718 29.5697 122.522 29.3701C122.326 29.1706 122.171 28.9338 122.065 28.6732C121.96 28.4126 121.906 28.1334 121.906 27.8516Z" fill="#546C83"/>
<path d="M17.6537 23.3147C17.5857 23.3732 17.511 23.4232 17.4314 23.4638C17.417 23.4642 17.4028 23.4677 17.3898 23.4738C17.3768 23.48 17.3651 23.4888 17.3555 23.4997C17.1583 23.599 16.9434 23.6567 16.7238 23.6693H16.5822C16.4711 23.6693 16.3649 23.6693 16.2638 23.6693L16.0768 23.6385C15.9933 23.6249 15.9118 23.6007 15.8342 23.5665L15.6118 23.4535C15.4615 23.374 15.329 23.2638 15.2227 23.1297L15.1671 23.0732C15.1064 23.0116 15.0508 22.9499 15.0003 22.8882C14.9387 22.7836 14.883 22.6755 14.8335 22.5645L12.7562 17.9396L10.6991 22.5645C10.6507 22.6629 10.5949 22.7574 10.5323 22.8471C10.4717 22.9345 10.411 23.0167 10.3453 23.0938C10.2748 23.1912 10.1875 23.2748 10.0875 23.3404L9.77418 23.5254C9.57307 23.6136 9.36012 23.6708 9.1424 23.695H8.86441C8.64473 23.6823 8.42984 23.6247 8.23263 23.5254C8.01581 23.431 7.82115 23.2909 7.6615 23.1143C7.51062 22.9553 7.39059 22.7687 7.30771 22.5645L1.08088 8.59737C0.972065 8.36814 0.915076 8.11706 0.91409 7.86253C0.91284 7.61736 0.953896 7.37386 1.03539 7.14311C1.1202 6.91432 1.25103 6.70605 1.41951 6.5316C1.59146 6.34782 1.79538 6.19798 2.02097 6.08966C2.24484 5.97961 2.49002 5.92168 2.73867 5.92009C2.97925 5.91682 3.21806 5.96224 3.44121 6.05369C3.66535 6.14111 3.86865 6.27599 4.03761 6.44938C4.21028 6.63055 4.35054 6.84097 4.45206 7.07116L9.00088 17.585L10.78 13.474L8.6117 8.59737C8.50216 8.36795 8.44186 8.11746 8.4348 7.86253C8.42765 7.61779 8.46535 7.37382 8.546 7.14311C8.62632 6.91565 8.75192 6.70747 8.91496 6.5316C9.08691 6.34782 9.29083 6.19798 9.51641 6.08966C9.74028 5.97961 9.98546 5.92168 10.2341 5.92009C10.4713 5.91818 10.7065 5.96357 10.9265 6.05369C11.1498 6.13987 11.3517 6.27496 11.5179 6.44938C11.6973 6.62815 11.8429 6.83891 11.9475 7.07116L12.741 8.93653L13.5598 7.07116C13.6522 6.83741 13.7936 6.62697 13.9743 6.45452C14.148 6.28974 14.3502 6.15907 14.5707 6.06911C14.7911 5.98125 15.0263 5.93763 15.2631 5.94064C15.5131 5.93934 15.7602 5.99555 15.9858 6.10508C16.2125 6.21388 16.4166 6.36561 16.5873 6.55215C16.7532 6.72871 16.8836 6.93641 16.9714 7.16366C17.0572 7.39687 17.0965 7.64511 17.0869 7.89391C17.0774 8.14271 17.0192 8.38709 16.9158 8.61279L14.7476 13.4946L16.5266 17.6056L21.0755 7.09172C21.1693 6.86434 21.3071 6.65846 21.4808 6.48632C21.6545 6.31418 21.8604 6.17929 22.0863 6.08966C22.3104 5.99743 22.5508 5.95303 22.7925 5.95922C23.0342 5.96541 23.2721 6.02205 23.4914 6.12564C23.718 6.23443 23.9221 6.38616 24.0928 6.57271C24.2587 6.74926 24.3892 6.95696 24.477 7.18422C24.5625 7.41223 24.6054 7.65448 24.6033 7.8985C24.6029 8.15309 24.5458 8.40429 24.4365 8.63334L18.2451 22.5593C18.1465 22.7631 18.0225 22.9531 17.8761 23.1246C17.8085 23.1955 17.734 23.2592 17.6537 23.3147Z" fill="#212322"/>
</svg>
