<svg width="268" height="48" viewBox="0 0 268 48" fill="none" xmlns="http://www.w3.org/2000/svg">
<path d="M22.7166 38.8395L22.6892 38.8669C22.5864 38.9491 22.4905 39.0176 22.3877 39.0656C22.3535 39.0656 22.3192 39.0793 22.2849 39.1135H22.2575C21.9698 39.2506 21.6888 39.3259 21.4011 39.3396H21.2777C21.127 39.3396 20.9831 39.3328 20.8529 39.3122C20.7707 39.2985 20.6885 39.278 20.5994 39.2643C20.4966 39.2506 20.387 39.2163 20.2705 39.1615C20.1677 39.1135 20.0718 39.0587 19.969 39.0108C19.7703 38.908 19.5922 38.7709 19.4415 38.5859L19.3661 38.5106C19.2839 38.4284 19.2085 38.3461 19.14 38.2571C19.0577 38.12 18.9824 37.983 18.9139 37.8323L16.0978 31.6521L13.3091 37.8323C13.2406 37.9693 13.1652 38.0926 13.083 38.2091C13.0008 38.3256 12.9117 38.4352 12.8295 38.538C12.7267 38.6682 12.6102 38.7778 12.48 38.8669C12.343 38.9491 12.2059 39.0313 12.0552 39.1204C11.788 39.2369 11.5002 39.3122 11.1987 39.3465H10.8219C10.5341 39.3328 10.2532 39.2574 9.9654 39.1204C9.67763 39.0039 9.42411 38.8189 9.1843 38.5654C8.9993 38.3804 8.84171 38.1406 8.70467 37.8391L0.249547 19.2163C0.0988073 18.9011 0.0234375 18.5722 0.0234375 18.2365C0.0234375 17.9008 0.0782519 17.5856 0.187881 17.2841C0.29751 16.9827 0.461953 16.7086 0.688062 16.4688C0.914172 16.229 1.18824 16.0303 1.50343 15.8795C1.81861 15.7288 2.1475 15.6534 2.46953 15.6534C2.79157 15.6534 3.10675 15.7151 3.41508 15.8316C3.71656 15.9481 3.98378 16.1262 4.21674 16.3592C4.4497 16.5921 4.64155 16.873 4.79229 17.1882L11 31.2067L13.4119 25.7254L10.4724 19.2163C10.3217 18.9011 10.2395 18.5722 10.2326 18.2365C10.2258 17.9008 10.2737 17.5856 10.3834 17.2841C10.493 16.9827 10.6574 16.7086 10.8835 16.4688C11.1097 16.229 11.3837 16.0303 11.6989 15.8795C12.0141 15.7288 12.3361 15.6534 12.665 15.6534C12.9939 15.6534 13.3091 15.7151 13.6106 15.8316C13.912 15.9481 14.1793 16.1262 14.4122 16.3592C14.6452 16.5921 14.837 16.873 14.9878 17.1882L16.0704 19.6754L17.1735 17.1882C17.3105 16.873 17.4955 16.599 17.7422 16.3729C17.982 16.1468 18.2561 15.9755 18.5439 15.859C18.8385 15.7425 19.1537 15.6808 19.4894 15.6808C19.8251 15.6808 20.154 15.7562 20.4692 15.907C20.7844 16.0577 21.0585 16.2564 21.2846 16.4962C21.5107 16.736 21.682 17.0101 21.7985 17.3115C21.915 17.613 21.9698 17.9282 21.9629 18.2639C21.9561 18.5997 21.8738 18.9285 21.7231 19.2437L18.7837 25.7528L21.1955 31.2067L27.3758 17.1882C27.6636 16.551 28.1227 16.1056 28.7599 15.859C29.3971 15.6055 30.0343 15.626 30.6716 15.907C30.9867 16.0577 31.2608 16.2564 31.4869 16.4962C31.713 16.736 31.8843 17.0101 32.0008 17.3115C32.1173 17.613 32.179 17.9282 32.179 18.2639C32.179 18.5997 32.1036 18.9285 31.9528 19.2437L23.5114 37.8391C23.3607 38.1269 23.1962 38.3667 23.0112 38.5654C22.929 38.6682 22.8262 38.7572 22.7098 38.8395H22.7166Z" fill="#212322"/>
<path d="M67.5153 15.8864H69.6325C70.3382 15.8864 70.9275 16.1194 71.3934 16.5785C71.8593 17.0375 72.0923 17.6131 72.0923 18.3051C72.0923 18.9971 71.8593 19.6069 71.3934 20.0796C70.9275 20.5593 70.3382 20.7922 69.6325 20.7922H67.5153V36.647C67.5153 37.339 67.2823 37.9145 66.8164 38.3736C66.3505 38.8327 65.7681 39.0656 65.0761 39.0656C64.384 39.0656 63.8016 38.8327 63.322 38.3736C62.8492 37.9145 62.6094 37.339 62.6094 36.647V20.7922H60.8348C60.4922 20.7922 60.1702 20.7237 59.8755 20.5935C59.5809 20.4633 59.3205 20.2784 59.1013 20.0522C58.882 19.8193 58.7039 19.5589 58.5737 19.2643C58.4435 18.9697 58.375 18.6477 58.375 18.3051C58.375 17.6131 58.6148 17.0375 59.0876 16.5785C59.5672 16.1194 60.1496 15.8864 60.8348 15.8864H62.6094V9.91865C62.6094 9.22663 62.8492 8.65109 63.322 8.19202C63.8016 7.73296 64.384 7.5 65.0761 7.5C65.7681 7.5 66.3436 7.73296 66.8164 8.19202C67.2823 8.65109 67.5153 9.22663 67.5153 9.91865V15.8864Z" fill="#212322"/>
<path d="M78.4345 27.5479L78.4071 27.5958L78.4345 27.6232C78.4345 28.4591 78.5921 29.2813 78.9141 30.0761C79.2362 30.8778 79.6815 31.5903 80.2571 32.2207C80.8326 32.851 81.511 33.3649 82.2921 33.7486C83.0732 34.1323 83.9228 34.3378 84.8409 34.3515C85.6769 34.3858 86.4854 34.283 87.2596 34.0569C88.0339 33.824 88.7876 33.3992 89.5276 32.7757C89.7742 32.577 90.0415 32.3851 90.3292 32.1933C90.617 32.0014 90.9185 31.8713 91.2405 31.7959C91.5626 31.7205 91.9052 31.7274 92.2752 31.8096C92.6451 31.8918 93.0288 32.1042 93.4194 32.4536C93.6798 32.6866 93.8785 32.9538 94.0087 33.269C94.1388 33.5842 94.2005 33.8993 94.1937 34.2282C94.1868 34.5571 94.1046 34.8928 93.9607 35.2286C93.81 35.5643 93.5907 35.8795 93.2961 36.1809C92.2957 37.2155 91.0966 38.0035 89.6989 38.5379C88.3011 39.0723 86.828 39.3396 85.2863 39.3396C83.6419 39.3396 82.1002 39.0381 80.6613 38.442C79.2225 37.839 77.9686 37.0169 76.886 35.9754C75.8103 34.9339 74.9607 33.7006 74.3371 32.2755C73.7136 30.8572 73.3984 29.3293 73.3984 27.7054V27.678L73.4258 27.6301L73.3984 27.6027C73.3984 25.9583 73.7136 24.4235 74.3371 22.9915C74.9607 21.5595 75.8103 20.3125 76.886 19.2436C77.9617 18.1748 79.2225 17.332 80.6613 16.7154C82.1002 16.0987 83.6419 15.7904 85.2863 15.7904C86.828 15.7904 88.3011 16.0576 89.6989 16.592C91.0966 17.1265 92.2957 17.9144 93.2961 18.949C93.5907 19.2436 93.8168 19.5588 93.9607 19.9014C94.1114 20.2371 94.1868 20.5729 94.1937 20.9154C94.2005 21.2512 94.1388 21.5801 94.0087 21.8884C93.8785 22.2036 93.6798 22.4708 93.4194 22.7037C93.022 23.0463 92.6451 23.2656 92.2752 23.3478C91.9052 23.43 91.5626 23.43 91.2405 23.3478C90.9185 23.2656 90.617 23.1285 90.3292 22.9435C90.0415 22.7517 89.7742 22.5598 89.5276 22.3611C88.7876 21.7513 88.0339 21.3334 87.2596 21.1073C86.4854 20.8743 85.6837 20.7716 84.8409 20.7853C83.9365 20.8195 83.0937 21.0251 82.3126 21.4156C81.5315 21.7993 80.8532 22.3132 80.2776 22.9435C79.7021 23.5739 79.2499 24.2933 78.921 25.0881C78.5921 25.8829 78.4277 26.712 78.4277 27.5684L78.4345 27.5479Z" fill="#212322"/>
<path d="M102.648 18.6133C103.539 17.7569 104.519 17.0717 105.588 16.5715C106.656 16.0645 107.78 15.8178 108.945 15.8178C110.377 15.8178 111.686 16.1056 112.871 16.6812C114.056 17.2567 115.07 18.0515 115.906 19.0655C116.749 20.0796 117.4 21.2786 117.873 22.6695C118.339 24.0604 118.579 25.5815 118.579 27.2259V36.7017C118.579 37.3937 118.346 37.9693 117.873 38.4283C117.4 38.8874 116.818 39.1204 116.126 39.1204C115.434 39.1204 114.851 38.8942 114.378 38.4283C113.906 37.9693 113.673 37.3937 113.673 36.7017V27.3355C113.673 26.3489 113.556 25.4513 113.316 24.6359C113.077 23.8206 112.734 23.1217 112.282 22.5393C111.829 21.9569 111.274 21.5047 110.617 21.1964C109.959 20.8812 109.219 20.7305 108.397 20.7305C107.575 20.7305 106.841 20.8881 106.156 21.1964C105.464 21.5116 104.868 21.9364 104.354 22.4777C103.847 23.0189 103.443 23.663 103.148 24.4098C102.854 25.1567 102.689 25.9652 102.655 26.8422V36.6332C102.655 37.3252 102.422 37.9008 101.949 38.3735C101.483 38.8394 100.901 39.0792 100.209 39.0792C99.8662 39.0792 99.5374 39.0176 99.2359 38.8942C98.9344 38.7709 98.6672 38.5996 98.4479 38.3735C98.2287 38.1543 98.0505 37.8939 97.9272 37.5993C97.8038 37.3047 97.7422 36.9826 97.7422 36.6401V10.0145C97.7422 9.67192 97.8107 9.34303 97.9409 9.04156C98.0711 8.74008 98.2492 8.47287 98.4685 8.25362C98.6877 8.03436 98.955 7.85622 99.2564 7.72604C99.5579 7.59586 99.8799 7.52734 100.209 7.52734C100.551 7.52734 100.873 7.59586 101.168 7.72604C101.463 7.85622 101.723 8.03436 101.942 8.25362C102.162 8.47287 102.34 8.74008 102.463 9.04156C102.586 9.34303 102.648 9.67192 102.648 10.0145V18.6339V18.6133Z" fill="#212322"/>
<path d="M137.714 23.0258C138.331 21.6075 139.173 20.3605 140.242 19.2916C141.311 18.2228 142.558 17.38 143.99 16.7633C145.422 16.1467 146.937 15.8384 148.554 15.8384C150.171 15.8384 151.705 16.1467 153.124 16.7633C154.549 17.38 155.789 18.2228 156.844 19.2916C157.906 20.3605 158.742 21.6075 159.359 23.0258C159.976 24.4441 160.284 25.972 160.284 27.5958C160.284 29.2197 159.976 30.7476 159.359 32.1659C158.742 33.591 157.906 34.8312 156.844 35.9C155.782 36.9689 154.542 37.8116 153.124 38.4283C151.699 39.0449 150.177 39.3533 148.554 39.3533C146.93 39.3533 145.422 39.0449 143.99 38.4283C142.558 37.8116 141.311 36.9689 140.242 35.9C139.173 34.8312 138.331 33.5842 137.714 32.1659C137.097 30.7476 136.789 29.2197 136.789 27.5958C136.789 25.972 137.097 24.4441 137.714 23.0258ZM142.264 30.2474C142.627 31.0765 143.113 31.8027 143.73 32.4194C144.347 33.036 145.066 33.5225 145.902 33.8856C146.731 34.2488 147.615 34.4269 148.554 34.4269C149.492 34.4269 150.397 34.2488 151.226 33.8856C152.055 33.5225 152.781 33.036 153.398 32.4194C154.014 31.8027 154.501 31.0765 154.85 30.2474C155.2 29.4184 155.378 28.5345 155.378 27.5958C155.378 26.6571 155.2 25.7527 154.85 24.9305C154.494 24.1083 154.014 23.3889 153.398 22.7723C152.781 22.1556 152.055 21.6691 151.226 21.3197C150.397 20.9634 149.506 20.7921 148.554 20.7921C147.601 20.7921 146.731 20.9703 145.902 21.3197C145.073 21.676 144.347 22.1556 143.73 22.7723C143.113 23.3889 142.627 24.1083 142.264 24.9305C141.901 25.7527 141.722 26.6434 141.722 27.5958C141.722 28.5482 141.901 29.4184 142.264 30.2474Z" fill="#212322"/>
<path d="M184.349 27.5479L184.321 27.5958L184.349 27.6232C184.349 28.4591 184.506 29.2813 184.828 30.0761C185.15 30.8778 185.596 31.5903 186.171 32.2207C186.747 32.851 187.425 33.3649 188.206 33.7486C188.987 34.1323 189.837 34.3378 190.755 34.3515C191.591 34.3858 192.399 34.283 193.174 34.0569C193.948 33.824 194.702 33.3992 195.442 32.7757C195.688 32.577 195.956 32.3851 196.243 32.1933C196.531 32.0014 196.839 31.8713 197.155 31.7959C197.477 31.7205 197.819 31.7274 198.189 31.8096C198.559 31.8918 198.943 32.1042 199.333 32.4536C199.594 32.6866 199.793 32.9538 199.923 33.269C200.053 33.5842 200.115 33.8993 200.108 34.2282C200.101 34.5571 200.019 34.8928 199.875 35.2286C199.724 35.5643 199.505 35.8795 199.21 36.1809C198.21 37.2155 197.011 38.0035 195.613 38.5379C194.215 39.0723 192.742 39.3396 191.2 39.3396C189.556 39.3396 188.014 39.0381 186.575 38.442C185.137 37.839 183.876 37.0169 182.8 35.9754C181.724 34.9339 180.875 33.7006 180.251 32.2755C179.628 30.8572 179.312 29.3293 179.312 27.7054V27.678L179.34 27.6301L179.312 27.6027C179.312 25.9583 179.628 24.4235 180.251 22.9915C180.875 21.5595 181.724 20.3125 182.8 19.2436C183.876 18.1748 185.137 17.332 186.575 16.7154C188.014 16.0987 189.556 15.7904 191.2 15.7904C192.742 15.7904 194.215 16.0576 195.613 16.592C197.011 17.1265 198.21 17.9144 199.21 18.949C199.505 19.2436 199.731 19.5588 199.875 19.9014C200.026 20.2371 200.101 20.5729 200.108 20.9154C200.115 21.2512 200.053 21.5801 199.923 21.8884C199.793 22.2036 199.594 22.4708 199.333 22.7037C198.936 23.0463 198.559 23.2656 198.189 23.3478C197.819 23.43 197.477 23.43 197.155 23.3478C196.833 23.2656 196.531 23.1285 196.243 22.9435C195.956 22.7517 195.688 22.5598 195.442 22.3611C194.702 21.7513 193.948 21.3334 193.174 21.1073C192.399 20.8743 191.598 20.7716 190.755 20.7853C189.851 20.8195 189.008 21.0251 188.227 21.4156C187.446 21.7993 186.767 22.3132 186.192 22.9435C185.616 23.5739 185.164 24.2933 184.835 25.0881C184.506 25.8829 184.342 26.712 184.342 27.5684L184.349 27.5479Z" fill="#212322"/>
<path d="M252.039 18.6133C252.929 17.7569 253.909 17.0717 254.978 16.5715C256.047 16.0645 257.171 15.8178 258.336 15.8178C259.768 15.8178 261.076 16.1056 262.262 16.6812C263.447 17.2567 264.461 18.0515 265.297 19.0655C266.133 20.0796 266.791 21.2786 267.263 22.6695C267.736 24.0604 267.969 25.5815 267.969 27.2259V36.7017C267.969 37.3937 267.736 37.9693 267.263 38.4283C266.791 38.8874 266.208 39.1204 265.516 39.1204C264.824 39.1204 264.242 38.8942 263.769 38.4283C263.296 37.9693 263.063 37.3937 263.063 36.7017V27.3355C263.063 26.3489 262.947 25.4513 262.707 24.6359C262.467 23.8206 262.125 23.1217 261.672 22.5393C261.22 21.9569 260.665 21.5047 260.007 21.1964C259.35 20.8812 258.61 20.7305 257.787 20.7305C256.965 20.7305 256.232 20.8881 255.547 21.1964C254.855 21.5116 254.259 21.9364 253.745 22.4777C253.238 23.0189 252.834 23.663 252.539 24.4098C252.244 25.1567 252.08 25.9652 252.046 26.8422V36.6332C252.046 37.3252 251.813 37.9008 251.34 38.3735C250.874 38.8394 250.291 39.0792 249.599 39.0792C249.257 39.0792 248.928 39.0176 248.627 38.8942C248.325 38.7709 248.058 38.5996 247.839 38.3735C247.619 38.1543 247.441 37.8939 247.318 37.5993C247.194 37.3047 247.133 36.9826 247.133 36.6401V10.0145C247.133 9.67192 247.201 9.34303 247.332 9.04156C247.462 8.74008 247.64 8.47287 247.859 8.25362C248.078 8.03436 248.346 7.85622 248.647 7.72604C248.949 7.59586 249.271 7.52734 249.599 7.52734C249.942 7.52734 250.264 7.59586 250.559 7.72604C250.853 7.85622 251.114 8.03436 251.333 8.25362C251.552 8.47287 251.73 8.74008 251.854 9.04156C251.977 9.34303 252.039 9.67192 252.039 10.0145V18.6339V18.6133Z" fill="#212322"/>
<path d="M220.946 36.4072C219.007 38.1202 216.458 39.1342 213.642 39.1342C207.304 39.1342 202.508 33.9886 202.508 27.4727C202.508 20.9568 207.304 15.8112 213.642 15.8112C216.458 15.8112 219.014 16.8252 220.946 18.5861V18.2778C220.946 16.9143 222.001 15.8591 223.365 15.8591C224.728 15.8591 225.783 16.9143 225.783 18.2778V36.6265C225.783 37.99 224.728 39.0931 223.365 39.0931C222.001 39.0931 220.946 37.99 220.946 36.6265V36.4072ZM220.946 27.4727V27.1644C220.775 23.2452 217.87 20.299 214.17 20.299C210.47 20.299 207.393 23.3822 207.393 27.4727C207.393 31.5631 210.387 34.6464 214.17 34.6464C217.952 34.6464 220.946 31.5631 220.946 27.4727Z" fill="#212322"/>
<path d="M50.6179 36.4072C48.6788 38.1202 46.13 39.1342 43.3139 39.1342C36.9759 39.1342 32.1797 33.9886 32.1797 27.4727C32.1797 20.9568 36.9759 15.8112 43.3139 15.8112C46.13 15.8112 48.6857 16.8252 50.6179 18.5861V18.2778C50.6179 16.9143 51.6731 15.8591 53.0366 15.8591C54.4001 15.8591 55.4553 16.9143 55.4553 18.2778V36.6265C55.4553 37.99 54.4001 39.0931 53.0366 39.0931C51.6731 39.0931 50.6179 37.99 50.6179 36.6265V36.4072ZM50.6179 27.4727V27.1644C50.4397 23.2452 47.5346 20.299 43.8415 20.299C40.1483 20.299 37.065 23.3822 37.065 27.4727C37.065 31.5631 40.0593 34.6464 43.8415 34.6464C47.6237 34.6464 50.6179 31.5631 50.6179 27.4727Z" fill="#212322"/>
<path d="M166.531 26.1091C166.531 19.8604 170.711 15.811 176.432 15.811C177.665 15.811 178.673 16.7771 178.673 18.0584C178.673 19.3396 177.659 20.3057 176.432 20.3057C173.527 20.3057 171.369 22.2448 171.369 26.1159V36.6332C171.369 37.9967 170.313 39.0998 168.95 39.0998C167.586 39.0998 166.531 37.9967 166.531 36.6332V26.1159V26.1091Z" fill="#212322"/>
<path d="M166.086 44.636C166.086 43.0532 167.36 41.772 168.943 41.772C170.526 41.772 171.8 43.0464 171.8 44.636C171.8 46.2256 170.526 47.5 168.943 47.5C167.36 47.5 166.086 46.1776 166.086 44.636Z" fill="#9ABECA"/>
<path d="M124.454 16.2838C125.111 10.9052 129.126 7.58215 134.277 7.58215C135.501 7.58215 136.5 8.58935 136.5 9.80894C136.5 11.0285 135.494 12.0426 134.277 12.0426C131.746 12.0426 129.824 13.4883 129.297 16.2838H134.277C135.501 16.2838 136.5 17.243 136.5 18.5105C136.5 19.7781 135.494 20.7442 134.277 20.7442H129.167V36.5304C129.167 37.887 128.073 38.9833 126.766 38.9833C125.46 38.9833 124.366 37.887 124.366 36.5304V20.7442H122.792C121.527 20.7442 120.562 19.737 120.562 18.5105C120.562 17.2841 121.52 16.2838 122.792 16.2838H124.454Z" fill="#212322"/>
<path d="M231.11 31.5492C231.807 31.5492 232.416 31.8575 232.765 32.4262C233.422 33.3855 234.338 34.701 236.212 34.701C237.656 34.701 238.702 33.6047 238.702 32.3371C238.702 30.542 237.047 29.8431 234.988 29.1443C232.238 28.185 229.14 26.9997 229.14 22.4982C229.14 18.7777 232.197 15.8521 236.212 15.8521C239.92 15.8521 243.326 18.1268 243.326 20.8812C243.326 22.1076 242.32 23.0257 241.096 23.0257C240.617 23.0257 240.002 22.8476 239.701 22.2378C238.955 21.4088 237.909 20.1412 236.205 20.1412C234.721 20.1412 233.757 21.2375 233.757 22.505C233.757 24.3002 235.59 24.8688 237.82 25.6088C240.48 26.4379 243.497 27.8425 243.497 32.2138C243.497 35.8863 240.309 39.0381 236.205 39.0381C232.32 39.0381 228.914 36.503 228.914 33.7897C228.914 32.5633 229.872 31.5561 231.096 31.5561" fill="#212322"/>
</svg>
