<svg width="220" height="34" viewBox="0 0 220 34" fill="none" xmlns="http://www.w3.org/2000/svg">
<path d="M102.933 7.47795C103.499 2.98365 106.794 0.206909 111.049 0.206909C111.536 0.208409 112.003 0.404747 112.348 0.753209C112.693 1.10167 112.889 1.57406 112.892 2.06761C112.89 2.56215 112.695 3.03601 112.35 3.3857C112.005 3.7354 111.537 3.93253 111.049 3.93404C108.958 3.93404 107.37 5.13633 106.94 7.47795H111.049C111.291 7.47567 111.531 7.5222 111.756 7.61483C111.98 7.70746 112.183 7.84434 112.355 8.0175C112.526 8.19066 112.662 8.39665 112.754 8.62346C112.846 8.85028 112.893 9.09339 112.892 9.33866C112.89 9.8332 112.695 10.3071 112.35 10.6567C112.005 11.0064 111.537 11.2036 111.049 11.2051H106.827V24.3731C106.848 24.649 106.812 24.9262 106.722 25.1874C106.632 25.4486 106.49 25.6881 106.304 25.891C106.118 26.0939 105.893 26.2558 105.643 26.3664C105.393 26.4771 105.122 26.5343 104.849 26.5343C104.576 26.5343 104.306 26.4771 104.056 26.3664C103.805 26.2558 103.58 26.0939 103.395 25.891C103.209 25.6881 103.067 25.4486 102.977 25.1874C102.887 24.9262 102.851 24.649 102.871 24.3731V11.2051H101.577C101.335 11.2066 101.094 11.1594 100.87 11.0661C100.646 10.9728 100.442 10.8354 100.271 10.6618C100.1 10.4882 99.9639 10.2818 99.8719 10.0547C99.7798 9.82757 99.7332 9.58418 99.7347 9.33866C99.7301 9.09253 99.7746 8.848 99.8656 8.61975C99.9566 8.3915 100.092 8.18425 100.264 8.01045C100.436 7.83665 100.641 7.69989 100.867 7.60838C101.093 7.51687 101.334 7.47251 101.577 7.47795H102.933Z" fill="#212322"/>
<path d="M189.004 20.2282C189.275 20.2187 189.544 20.2814 189.784 20.41C190.024 20.5385 190.227 20.7285 190.372 20.961C190.937 21.7626 191.671 22.8618 193.197 22.8618C193.461 22.871 193.724 22.8269 193.97 22.7323C194.217 22.6376 194.443 22.4942 194.634 22.3104C194.826 22.1266 194.979 21.9061 195.085 21.6616C195.192 21.4172 195.249 21.1537 195.255 20.8866C195.255 19.3923 193.887 18.8083 192.191 18.2186C189.931 17.4171 187.354 16.4324 187.354 12.6652C187.354 9.56209 189.88 7.11169 193.197 7.11169C196.266 7.11169 199.081 9.01247 199.081 11.314C199.079 11.555 199.029 11.7932 198.935 12.0145C198.84 12.2358 198.703 12.4358 198.532 12.6028C198.36 12.7697 198.157 12.9002 197.935 12.9867C197.713 13.0731 197.476 13.1137 197.238 13.106C197.008 13.113 196.781 13.0552 196.581 12.9389C196.382 12.8227 196.218 12.6526 196.108 12.4476C195.492 11.7549 194.627 10.69 193.22 10.69C192.958 10.6783 192.696 10.7209 192.45 10.8151C192.205 10.9094 191.981 11.0533 191.792 11.2381C191.603 11.4229 191.454 11.6448 191.352 11.8902C191.251 12.1355 191.2 12.3992 191.202 12.6652C191.202 14.1652 192.717 14.6404 194.554 15.2587C196.758 15.9572 199.245 17.1251 199.245 20.7778C199.245 23.8465 196.611 26.5031 193.22 26.5031C190.01 26.5031 187.195 24.3847 187.195 22.1175C187.192 21.8745 187.237 21.6332 187.326 21.4077C187.416 21.1821 187.548 20.9767 187.716 20.8032C187.885 20.6297 188.085 20.4916 188.306 20.3969C188.527 20.3021 188.764 20.2526 189.004 20.2511" fill="#212322"/>
<path d="M56.1861 7.14021H57.9381C58.2058 7.13169 58.4724 7.178 58.722 7.27638C58.9716 7.37476 59.199 7.52318 59.3905 7.71273C59.5774 7.90109 59.724 8.12637 59.8212 8.37458C59.9184 8.62278 59.9642 8.8886 59.9557 9.15549C59.9644 9.4284 59.9188 9.7003 59.8217 9.95502C59.7246 10.2097 59.578 10.4421 59.3905 10.6383C59.2005 10.8301 58.9734 10.98 58.7234 11.0785C58.4735 11.177 58.2061 11.2221 57.9381 11.2109H56.1861V24.4877C56.195 24.7546 56.1494 25.0205 56.0521 25.2688C55.9549 25.517 55.8081 25.7423 55.621 25.9304C55.2319 26.302 54.7174 26.509 54.1826 26.509C53.6479 26.509 53.1334 26.302 52.7443 25.9304C52.5558 25.7433 52.4081 25.5183 52.3107 25.2698C52.2134 25.0212 52.1686 24.7548 52.1792 24.4877V11.2452H50.6758C50.4035 11.2466 50.134 11.19 49.8846 11.0792C49.645 10.9715 49.4281 10.8179 49.246 10.6269C49.06 10.4349 48.9105 10.2097 48.8052 9.96275C48.6951 9.71036 48.6392 9.43714 48.6413 9.16122C48.6343 8.89196 48.6836 8.62425 48.7858 8.37561C48.8881 8.12698 49.0411 7.90304 49.2347 7.71846C49.4249 7.53031 49.6505 7.3827 49.898 7.28437C50.1456 7.18603 50.41 7.13896 50.6758 7.14594H52.117V2.15926C52.1064 1.89211 52.1512 1.62568 52.2486 1.37717C52.3459 1.12866 52.4936 0.903596 52.6821 0.716498C53.0712 0.344903 53.5857 0.137939 54.1205 0.137939C54.6552 0.137939 55.1697 0.344903 55.5588 0.716498C55.7459 0.904647 55.8927 1.1299 55.9899 1.37815C56.0872 1.62641 56.1328 1.89232 56.1239 2.15926L56.1861 7.14021Z" fill="#212322"/>
<path d="M65.1962 16.8845V16.9303C65.197 17.6335 65.3333 18.3297 65.5974 18.98C65.8614 19.6431 66.2446 20.2507 66.7277 20.772C67.2063 21.3043 67.7821 21.7379 68.4232 22.0487C69.0774 22.3763 69.7959 22.5504 70.5256 22.5582C71.1997 22.5851 71.8736 22.5 72.5206 22.3063C73.2115 22.0867 73.849 21.7219 74.3913 21.2357C74.5947 21.0754 74.8151 20.9094 75.0525 20.7548C75.281 20.5986 75.5357 20.4861 75.8042 20.4227C76.0849 20.3571 76.3768 20.3571 76.6575 20.4227C77.0124 20.5175 77.3373 20.7028 77.6013 20.9609C77.8124 21.1453 77.9787 21.3765 78.0874 21.6365C78.1985 21.8902 78.2507 22.1664 78.24 22.4437C78.2323 22.7308 78.1669 23.0133 78.0478 23.2739C77.913 23.5743 77.7209 23.8447 77.4827 24.0697C76.6496 24.9404 75.6362 25.6131 74.5156 26.0392C73.3523 26.4827 72.1189 26.7078 70.876 26.7033C68.2925 26.7196 65.8054 25.7106 63.9472 23.8922C63.0541 23.0126 62.3399 21.9642 61.8448 20.8063C61.326 19.6002 61.0623 18.2975 61.0705 16.9819V16.9418C61.0618 15.6169 61.3255 14.3047 61.8448 13.0887C62.3419 11.9185 63.0556 10.8555 63.9472 9.95701C64.8441 9.05982 65.9007 8.34296 67.0612 7.8444C68.2675 7.32593 69.5657 7.0629 70.876 7.07149C72.1195 7.06613 73.3534 7.29322 74.5156 7.74135C75.6362 8.16748 76.6496 8.84013 77.4827 9.71083C77.7194 9.93494 77.9113 10.2032 78.0478 10.5009C78.1676 10.7673 78.233 11.0556 78.24 11.3482C78.2514 11.6275 78.1992 11.9057 78.0874 12.1612C77.9774 12.4221 77.8114 12.6549 77.6013 12.8425C77.3356 13.0972 77.0111 13.2802 76.6575 13.375C76.3771 13.4437 76.0846 13.4437 75.8042 13.375C75.5372 13.3043 75.2833 13.1903 75.0525 13.0372C74.8151 12.8769 74.5947 12.7166 74.3913 12.5505C73.8267 12.0683 73.1709 11.7079 72.4641 11.4914C71.8168 11.2976 71.1438 11.2068 70.4691 11.2223C69.7446 11.2436 69.0332 11.4233 68.3836 11.749C67.7425 12.0598 67.1668 12.4934 66.6882 13.0257C66.2107 13.5514 65.8281 14.1579 65.5579 14.8177C65.3043 15.4759 65.1814 16.1782 65.1962 16.8845Z" fill="#212322"/>
<path d="M85.1725 9.41881C85.8805 8.71337 86.6999 8.13284 87.597 7.70124C88.4616 7.28318 89.4082 7.06792 90.3663 7.07147C91.486 7.05759 92.5939 7.30439 93.6046 7.79285C94.5706 8.26476 95.4246 8.94242 96.1082 9.7795C96.8274 10.6735 97.3773 11.6945 97.7302 12.791C98.1208 14.0207 98.3117 15.3065 98.2954 16.5983V24.5277C98.3053 24.7948 98.2601 25.061 98.1628 25.3094C98.0655 25.5578 97.9182 25.7829 97.7302 25.9705C97.3402 26.3424 96.8248 26.5496 96.2891 26.5496C95.7534 26.5496 95.238 26.3424 94.8479 25.9705C94.6611 25.7821 94.5145 25.5568 94.4173 25.3086C94.32 25.0604 94.2743 24.7946 94.2828 24.5277V16.7013C94.2766 15.9387 94.1624 15.181 93.9437 14.4513C93.7704 13.8182 93.4809 13.2238 93.0903 12.6994C92.7288 12.2126 92.258 11.8201 91.717 11.5543C91.1426 11.2887 90.5172 11.1558 89.8859 11.165C89.2497 11.1616 88.6199 11.2943 88.0378 11.5543C87.4923 11.8187 87.0028 12.1882 86.5967 12.6421C86.1669 13.1136 85.8294 13.6634 85.602 14.2624C85.3543 14.9098 85.2167 15.5951 85.1951 16.2891V24.4704C85.1981 24.739 85.1481 25.0054 85.0481 25.254C84.9481 25.5027 84.8 25.7286 84.6125 25.9185C84.4251 26.1084 84.2021 26.2584 83.9566 26.3597C83.7112 26.4611 83.4482 26.5117 83.1831 26.5086C82.9064 26.5105 82.6319 26.458 82.3749 26.3541C82.1315 26.2549 81.9105 26.1069 81.725 25.9189C81.5433 25.7334 81.3993 25.5136 81.3011 25.272C81.198 25.0178 81.1462 24.7453 81.1486 24.4704V2.21647C81.1456 1.93676 81.2014 1.65961 81.3124 1.40349C81.4165 1.15888 81.564 0.935715 81.7476 0.745084C81.9348 0.557818 82.1553 0.408226 82.3976 0.304241C82.6385 0.198121 82.8978 0.141679 83.1605 0.138209C83.4328 0.136808 83.7024 0.193373 83.9517 0.304241C84.1897 0.409834 84.4063 0.559321 84.5904 0.745084C84.777 0.932015 84.9233 1.15623 85.0199 1.40349C85.1224 1.66185 85.1743 1.938 85.1725 2.21647V9.41881Z" fill="#212322"/>
<path d="M114.091 13.1058C115.086 10.7504 116.941 8.87563 119.268 7.87289C120.46 7.36287 121.741 7.1001 123.035 7.1001C124.329 7.1001 125.609 7.36287 126.801 7.87289C127.95 8.3707 128.994 9.08795 129.876 9.9855C130.752 10.8861 131.456 11.9442 131.95 13.1058C132.453 14.3153 132.713 15.6147 132.713 16.9273C132.713 18.24 132.453 19.5394 131.95 20.7489C131.457 21.9112 130.754 22.9696 129.876 23.8692C128.994 24.7667 127.95 25.484 126.801 25.9818C125.609 26.4918 124.329 26.7546 123.035 26.7546C121.741 26.7546 120.46 26.4918 119.268 25.9818C116.941 24.9791 115.086 23.1042 114.091 20.7489C113.587 19.5394 113.328 18.24 113.328 16.9273C113.328 15.6147 113.587 14.3153 114.091 13.1058ZM117.844 19.1401C118.416 20.51 119.492 21.6003 120.845 22.1802C121.539 22.4786 122.286 22.6324 123.04 22.6324C123.795 22.6324 124.541 22.4786 125.236 22.1802C125.905 21.8915 126.513 21.4756 127.027 20.955C127.539 20.4344 127.946 19.818 128.226 19.1401C128.805 17.7195 128.805 16.1238 128.226 14.7031C127.658 13.3389 126.585 12.2552 125.236 11.6859C123.83 11.0984 122.251 11.0984 120.845 11.6859C120.176 11.9703 119.568 12.3824 119.053 12.8996C118.542 13.4192 118.132 14.0308 117.844 14.7031C117.549 15.4047 117.397 16.1592 117.397 16.9216C117.397 17.684 117.549 18.4386 117.844 19.1401Z" fill="#212322"/>
<path d="M150.509 16.8845V16.9303C150.51 17.6335 150.646 18.3297 150.91 18.98C151.174 19.6431 151.557 20.2507 152.04 20.772C152.519 21.3043 153.095 21.7379 153.736 22.0487C154.39 22.3763 155.108 22.5504 155.838 22.5582C156.512 22.5851 157.186 22.5 157.833 22.3063C158.524 22.0867 159.161 21.7219 159.704 21.2357C159.907 21.0754 160.128 20.9094 160.365 20.7548C160.593 20.5979 160.848 20.4853 161.117 20.4227C161.397 20.3571 161.689 20.3571 161.97 20.4227C162.325 20.5175 162.65 20.7028 162.914 20.9609C163.127 21.1437 163.293 21.3753 163.4 21.6365C163.51 21.8906 163.564 22.1662 163.558 22.4437C163.546 22.7308 163.478 23.0127 163.36 23.2739C163.225 23.5742 163.033 23.8447 162.795 24.0697C161.962 24.9404 160.949 25.613 159.828 26.0392C158.665 26.4827 157.431 26.7078 156.188 26.7033C153.605 26.7196 151.118 25.7105 149.26 23.8922C148.367 23.0126 147.652 21.9642 147.157 20.8063C146.638 19.6002 146.375 18.2974 146.383 16.9818V16.9418C146.374 15.6169 146.638 14.3047 147.157 13.0887C147.654 11.9185 148.368 10.8555 149.26 9.95699C150.152 9.05689 151.205 8.33617 152.362 7.83292C153.569 7.31445 154.867 7.05142 156.177 7.06002C157.421 7.05466 158.655 7.28174 159.817 7.72987C160.937 8.15601 161.951 8.82866 162.784 9.69935C163.021 9.92346 163.213 10.1917 163.349 10.4894C163.468 10.7565 163.535 11.0441 163.547 11.3368C163.553 11.6162 163.499 11.8937 163.389 12.1498C163.281 12.4118 163.114 12.645 162.903 12.8311C162.637 13.0857 162.312 13.2688 161.959 13.3635C161.678 13.4322 161.386 13.4322 161.105 13.3635C160.838 13.2939 160.584 13.1798 160.354 13.0257C160.116 12.8654 159.896 12.7051 159.692 12.5391C159.144 12.0676 158.508 11.7115 157.822 11.4913C157.175 11.2975 156.502 11.2068 155.827 11.2223C155.102 11.2436 154.391 11.4233 153.741 11.749C153.1 12.0598 152.524 12.4933 152.046 13.0257C151.568 13.5514 151.186 14.1579 150.916 14.8177C150.647 15.4727 150.508 16.1751 150.509 16.8845Z" fill="#212322"/>
<path d="M206.336 9.41881C207.042 8.71348 207.859 8.13292 208.755 7.70124C209.621 7.28364 210.57 7.06843 211.529 7.07147C212.649 7.05881 213.757 7.30555 214.768 7.79284C215.732 8.26764 216.585 8.94485 217.271 9.7795C217.989 10.6739 218.537 11.6949 218.888 12.791C219.281 14.02 219.472 15.3063 219.453 16.5983V24.5277C219.463 24.7948 219.418 25.061 219.32 25.3094C219.223 25.5578 219.076 25.7829 218.888 25.9705C218.698 26.1586 218.472 26.3062 218.224 26.4046C217.977 26.5029 217.712 26.55 217.447 26.543C217.181 26.5513 216.916 26.5048 216.668 26.4064C216.42 26.308 216.195 26.1597 216.005 25.9705C215.818 25.7829 215.67 25.5578 215.573 25.3094C215.476 25.061 215.43 24.7948 215.44 24.5277V16.7013C215.449 15.939 215.35 15.1794 215.146 14.4456C214.973 13.8125 214.684 13.2181 214.293 12.6936C213.932 12.2069 213.461 11.8144 212.92 11.5486C212.345 11.283 211.72 11.15 211.089 11.1593C210.451 11.1551 209.819 11.2878 209.235 11.5486C208.671 11.8098 208.164 12.1814 207.743 12.6421C207.311 13.112 206.973 13.6623 206.748 14.2624C206.495 14.9082 206.357 15.5944 206.341 16.2891V24.4704C206.344 24.7394 206.294 25.0063 206.194 25.2554C206.093 25.5044 205.945 25.7306 205.757 25.9206C205.569 26.1105 205.345 26.2604 205.099 26.3614C204.853 26.4624 204.589 26.5125 204.324 26.5086C204.049 26.5099 203.776 26.4574 203.521 26.3541C203.277 26.2562 203.056 26.108 202.871 25.9189C202.688 25.7338 202.542 25.514 202.442 25.272C202.339 25.0178 202.287 24.7453 202.289 24.4704V2.21647C202.289 1.93704 202.345 1.66047 202.453 1.40348C202.557 1.15751 202.707 0.934019 202.894 0.745082C203.08 0.556594 203.301 0.406832 203.544 0.304239C203.788 0.195857 204.051 0.13935 204.318 0.138207C204.592 0.136852 204.864 0.193399 205.115 0.304239C205.353 0.409833 205.569 0.559319 205.754 0.745082C205.938 0.933536 206.084 1.15734 206.183 1.40348C206.286 1.66185 206.337 1.938 206.336 2.21647V9.41881Z" fill="#212322"/>
<path d="M180.685 24.2929C179.022 25.7788 176.878 26.5938 174.66 26.583C169.433 26.583 165.477 22.2834 165.477 16.8501C165.477 11.4169 169.433 7.11722 174.66 7.11722C176.881 7.08891 179.031 7.90621 180.685 9.40731V9.14967C180.67 8.87484 180.711 8.59991 180.805 8.34164C180.899 8.08337 181.044 7.84718 181.231 7.64747C181.418 7.44775 181.643 7.2887 181.893 7.18001C182.142 7.07131 182.411 7.01526 182.683 7.01526C182.954 7.01526 183.223 7.07131 183.473 7.18001C183.722 7.2887 183.948 7.44775 184.135 7.64747C184.321 7.84718 184.466 8.08337 184.56 8.34164C184.654 8.59991 184.695 8.87484 184.681 9.14967V24.4761C184.695 24.751 184.654 25.0259 184.56 25.2842C184.466 25.5424 184.321 25.7786 184.135 25.9783C183.948 26.178 183.722 26.3371 183.473 26.4458C183.223 26.5545 182.954 26.6105 182.683 26.6105C182.411 26.6105 182.142 26.5545 181.893 26.4458C181.643 26.3371 181.418 26.178 181.231 25.9783C181.044 25.7786 180.899 25.5424 180.805 25.2842C180.711 25.0259 180.67 24.751 180.685 24.4761V24.2929ZM180.685 16.8501V16.5696C180.544 13.2947 178.147 10.8443 175.096 10.8443C172.044 10.8443 169.506 13.4207 169.506 16.8387C169.506 20.2566 171.976 22.833 175.096 22.833C178.215 22.833 180.685 20.2566 180.685 16.8387" fill="#212322"/>
<path d="M42.2474 24.2931C40.5843 25.7789 38.4403 26.5939 36.2229 26.5832C30.9952 26.5832 27.0391 22.2835 27.0391 16.8503C27.0391 11.417 30.9952 7.11736 36.2229 7.11736C38.4432 7.09017 40.5928 7.90732 42.2474 9.40745V9.14981C42.2474 8.61381 42.4576 8.09976 42.8317 7.72075C43.2059 7.34173 43.7133 7.12881 44.2424 7.12881C44.7715 7.12881 45.279 7.34173 45.6531 7.72075C46.0272 8.09976 46.2374 8.61381 46.2374 9.14981V24.4763C46.2374 25.0123 46.0272 25.5263 45.6531 25.9053C45.279 26.2843 44.7715 26.4973 44.2424 26.4973C43.7133 26.4973 43.2059 26.2843 42.8317 25.9053C42.4576 25.5263 42.2474 25.0123 42.2474 24.4763V24.2931ZM42.2474 16.8503V16.5697C42.1005 13.2949 39.7042 10.8445 36.658 10.8445C33.6118 10.8445 31.0686 13.4208 31.0686 16.8388C31.0686 20.2568 33.5384 22.8331 36.658 22.8331C39.7777 22.8331 42.2474 20.2568 42.2474 16.8388" fill="#212322"/>
<path d="M135.797 15.6879C135.797 10.4665 139.244 7.10006 143.963 7.10006C144.207 7.09775 144.449 7.14479 144.675 7.23842C144.9 7.33205 145.105 7.47037 145.277 7.64529C145.449 7.8202 145.585 8.02818 145.677 8.25702C145.769 8.48587 145.814 8.73096 145.811 8.97793C145.81 9.47399 145.615 9.94931 145.269 10.3001C144.922 10.6508 144.453 10.8486 143.963 10.8501C141.567 10.8501 139.787 12.4703 139.787 15.7051V24.4761C139.787 25.0121 139.577 25.5262 139.203 25.9052C138.828 26.2842 138.321 26.4971 137.792 26.4971C137.263 26.4971 136.755 26.2842 136.381 25.9052C136.007 25.5262 135.797 25.0121 135.797 24.4761V15.6879Z" fill="#212322"/>
<path d="M135.406 31.1691C135.407 30.6971 135.547 30.2361 135.806 29.8442C136.066 29.4524 136.434 29.1473 136.865 28.9674C137.296 28.7876 137.769 28.7412 138.226 28.8339C138.683 28.9267 139.102 29.1545 139.431 29.4886C139.76 29.8227 139.984 30.2482 140.075 30.7111C140.165 31.1741 140.118 31.6538 139.94 32.0897C139.761 32.5256 139.459 32.8982 139.072 33.1602C138.684 33.4223 138.229 33.5622 137.763 33.5622C137.453 33.5622 137.146 33.5003 136.86 33.3799C136.573 33.2596 136.313 33.0832 136.095 32.8609C135.876 32.6386 135.702 32.3748 135.584 32.0844C135.466 31.7941 135.406 31.4831 135.406 31.1691Z" fill="#546C83"/>
<path d="M18.843 26.1136C18.7669 26.1788 18.6834 26.2345 18.5943 26.2797C18.5783 26.2802 18.5625 26.284 18.5479 26.2909C18.5333 26.2978 18.5203 26.3076 18.5096 26.3197C18.2891 26.4303 18.0488 26.4946 17.8031 26.5087H17.6449C17.5205 26.5087 17.4019 26.5087 17.2888 26.5087L17.0797 26.4743C16.9863 26.4592 16.8952 26.4323 16.8084 26.3942L16.5598 26.2682C16.3917 26.1797 16.2436 26.0569 16.1246 25.9075L16.0624 25.8445C15.9946 25.7758 15.9325 25.7071 15.8759 25.6384C15.8071 25.5219 15.7448 25.4015 15.6894 25.2777L13.3666 20.125L11.0665 25.2777C11.0123 25.3874 10.9499 25.4926 10.88 25.5926C10.8121 25.69 10.7443 25.7816 10.6708 25.8674C10.592 25.976 10.4944 26.0691 10.3826 26.1422L10.0322 26.3484C9.80734 26.4466 9.56923 26.5103 9.32578 26.5373H9.01494C8.7693 26.5232 8.529 26.4589 8.30849 26.3484C8.06604 26.2431 7.84838 26.087 7.66987 25.8903C7.50115 25.7131 7.36694 25.5053 7.27426 25.2777L0.311533 9.71655C0.189857 9.46116 0.126133 9.18142 0.125031 8.89784C0.123633 8.62468 0.169541 8.3534 0.260669 8.09631C0.355502 7.84141 0.501792 7.60937 0.690187 7.41501C0.882457 7.21025 1.11048 7.04332 1.36272 6.92264C1.61305 6.80002 1.8872 6.73548 2.16525 6.7337C2.43425 6.73007 2.70129 6.78067 2.95081 6.88256C3.20144 6.97995 3.42877 7.13022 3.6177 7.3234C3.81077 7.52525 3.9676 7.75969 4.08113 8.01616L9.16753 19.73L11.1569 15.1498L8.73236 9.71655C8.60987 9.46094 8.54245 9.18186 8.53456 8.89784C8.52655 8.62516 8.56872 8.35336 8.65889 8.09631C8.74871 7.84289 8.88915 7.61095 9.07146 7.41501C9.26373 7.21025 9.49175 7.04332 9.74399 6.92264C9.99432 6.80002 10.2685 6.73548 10.5465 6.7337C10.8117 6.73158 11.0748 6.78215 11.3208 6.88256C11.5704 6.97858 11.7962 7.12908 11.982 7.3234C12.1826 7.52258 12.3455 7.75739 12.4624 8.01616L13.3497 10.0944L14.2652 8.01616C14.3686 7.75573 14.5267 7.52126 14.7287 7.32913C14.9229 7.14555 15.149 6.99997 15.3956 6.89973C15.6421 6.80185 15.905 6.75325 16.1698 6.7566C16.4494 6.75515 16.7257 6.81778 16.978 6.93981C17.2314 7.06102 17.4596 7.23007 17.6505 7.43791C17.836 7.63461 17.9819 7.86602 18.08 8.11921C18.176 8.37903 18.2199 8.65561 18.2092 8.9328C18.1986 9.20999 18.1335 9.48226 18.0179 9.73373L15.5934 15.1727L17.5827 19.7529L22.6691 8.03906C22.774 7.78573 22.9282 7.55635 23.1224 7.36456C23.3165 7.17277 23.5468 7.02249 23.7994 6.92264C24.05 6.81988 24.3188 6.77041 24.5891 6.7773C24.8594 6.7842 25.1254 6.84731 25.3706 6.96271C25.624 7.08392 25.8522 7.25298 26.0431 7.46081C26.2286 7.65751 26.3745 7.88892 26.4726 8.14211C26.5683 8.39614 26.6162 8.66605 26.6139 8.93792C26.6134 9.22157 26.5496 9.50143 26.4274 9.75663L19.5042 25.272C19.394 25.499 19.2553 25.7107 19.0917 25.9018C19.0161 25.9808 18.9328 26.0517 18.843 26.1136Z" fill="#212322"/>
</svg>
