<svg width="198" height="36" viewBox="0 0 198 36" fill="none" xmlns="http://www.w3.org/2000/svg">
<path d="M4.29075 25.7452V25.9399C4.29075 26.498 4.06473 27.0333 3.66241 27.4279C3.2601 27.8225 2.71443 28.0442 2.14547 28.0442C1.5765 28.0442 1.03084 27.8225 0.628522 27.4279C0.226202 27.0333 0.00018192 26.498 0.00018192 25.9399V2.71187C-0.00352432 2.43452 0.0494338 2.15926 0.155932 1.90232C0.262431 1.64537 0.420312 1.41195 0.620263 1.21583C0.820215 1.0197 1.05819 0.864835 1.32014 0.760373C1.58209 0.65591 1.86272 0.603965 2.14547 0.6076C2.42822 0.603965 2.70885 0.65591 2.9708 0.760373C3.23275 0.864835 3.47072 1.0197 3.67067 1.21583C3.87062 1.41195 4.02851 1.64537 4.135 1.90232C4.2415 2.15926 4.29446 2.43452 4.29075 2.71187V10.2526C6.06434 8.68085 8.37506 7.8198 10.7652 7.84C16.3849 7.84 20.6368 12.319 20.6368 17.9773C20.6368 23.6355 16.3849 28.1199 10.7652 28.1199C8.38291 28.1355 6.07815 27.2902 4.29075 25.7452ZM16.3077 17.9773C16.3077 14.4233 13.655 11.7456 10.2965 11.7456C6.93789 11.7456 4.41208 14.3043 4.29075 17.7122V17.9773C4.29075 21.5367 6.94341 24.2197 10.2965 24.2197C13.6495 24.2197 16.3077 21.5367 16.3077 17.9773Z" fill="#212322"/>
<path d="M39.3539 25.7454C37.5665 27.2903 35.2617 28.1357 32.8794 28.1201C27.2598 28.1201 23.0078 23.6411 23.0078 17.9775C23.0078 12.3138 27.2598 7.84019 32.8794 7.84019C35.2696 7.81999 37.5803 8.68104 39.3539 10.2528V9.98232C39.3539 9.42424 39.5799 8.88901 39.9822 8.49438C40.3846 8.09976 40.9302 7.87806 41.4992 7.87806C42.0681 7.87806 42.6138 8.09976 43.0161 8.49438C43.4184 8.88901 43.6445 9.42424 43.6445 9.98232V25.9401C43.6445 26.4982 43.4184 27.0334 43.0161 27.4281C42.6138 27.8227 42.0681 28.0444 41.4992 28.0444C40.9302 28.0444 40.3846 27.8227 39.9822 27.4281C39.5799 27.0334 39.3539 26.4982 39.3539 25.9401V25.7454ZM39.3539 17.9775V17.7124C39.1995 14.3045 36.5965 11.762 33.3482 11.762C30.0999 11.762 27.337 14.4397 27.337 17.9937C27.337 21.5477 29.9896 24.2362 33.3482 24.2362C36.7068 24.2362 39.3539 21.5369 39.3539 17.9775Z" fill="#212322"/>
<path d="M46.875 17.9774C46.875 12.3192 51.127 7.84018 56.7411 7.84018C59.1329 7.82021 61.4452 8.68114 63.2211 10.2528V9.98232C63.2211 9.42423 63.4471 8.889 63.8494 8.49437C64.2517 8.09975 64.7974 7.87805 65.3664 7.87805C65.9353 7.87805 66.481 8.09975 66.8833 8.49437C67.2856 8.889 67.5117 9.42423 67.5117 9.98232V25.2477C67.5141 26.5964 67.242 27.9319 66.7111 29.176C66.1802 30.4201 65.4013 31.5476 64.4201 32.4924C63.4389 33.4372 62.2752 34.1802 60.9973 34.6779C59.7193 35.1755 58.3529 35.4178 56.9782 35.3904C55.5869 35.4208 54.2046 35.164 52.9211 34.6365C51.6375 34.1091 50.4814 33.3228 49.5277 32.3287C49.154 31.9374 48.9249 31.4346 48.8769 30.9006C48.8735 30.632 48.9263 30.3656 49.0321 30.1179C49.1378 29.8701 49.2943 29.6463 49.4917 29.4602C49.6892 29.2741 49.9234 29.1298 50.1801 29.036C50.4367 28.9423 50.7101 28.9012 50.9836 28.9153C51.8384 28.9153 52.3071 29.413 52.8531 29.8674C53.9499 30.9133 55.421 31.496 56.9507 31.4902C58.5367 31.4912 60.063 30.8965 61.2158 29.828C62.3687 28.7596 63.0606 27.2987 63.1494 25.7454C61.3774 27.2905 59.0844 28.1366 56.7135 28.1201C51.0994 28.1201 46.875 23.6411 46.875 17.9774ZM63.2211 18.2479V17.9774C63.2211 14.4235 60.5684 11.7458 57.2099 11.7458C53.8513 11.7458 51.1766 14.4235 51.1766 17.9774C51.1766 21.5314 53.8293 24.2199 57.1823 24.2199C60.5353 24.2199 63.0336 21.7045 63.1935 18.2479H63.2211Z" fill="#212322"/>
<path d="M73.5287 8.22389C74.1132 3.51769 77.7034 0.607422 82.3028 0.607422C82.8308 0.607422 83.3372 0.813163 83.7106 1.17938C84.0839 1.54561 84.2937 2.04231 84.2937 2.56022C84.2937 3.07814 84.0839 3.57484 83.7106 3.94106C83.3372 4.30729 82.8308 4.51303 82.3028 4.51303C80.0417 4.51303 78.3266 5.77342 77.8578 8.22389H82.3028C82.5649 8.22173 82.8248 8.27076 83.0673 8.36814C83.3098 8.46551 83.5302 8.60927 83.7155 8.79103C83.9008 8.9728 84.0474 9.18894 84.1466 9.42684C84.2459 9.66474 84.2959 9.91965 84.2937 10.1767C84.2908 10.6932 84.0799 11.1877 83.707 11.5525C83.3341 11.9172 82.8294 12.1227 82.3028 12.1241H77.7586V25.9398C77.7629 26.2201 77.7109 26.4985 77.6054 26.7591C77.4998 27.0197 77.3429 27.2573 77.1437 27.4583C76.9444 27.6593 76.7066 27.8198 76.444 27.9305C76.1814 28.0412 75.8991 28.1 75.6133 28.1035C75.3264 28.1036 75.0424 28.0473 74.778 27.9379C74.5137 27.8284 74.2745 27.6681 74.0745 27.4663C73.8744 27.2646 73.7177 27.0255 73.6135 26.7633C73.5094 26.5011 73.4599 26.2211 73.468 25.9398V12.1241H72.0617C71.7999 12.127 71.5401 12.0786 71.2976 11.9818C71.0551 11.8851 70.8347 11.7418 70.6493 11.5605C70.464 11.3791 70.3173 11.1634 70.218 10.9258C70.1186 10.6881 70.0686 10.4335 70.0708 10.1767C70.0648 9.91863 70.1122 9.66205 70.2101 9.42245C70.308 9.18285 70.4544 8.96521 70.6405 8.78268C70.8266 8.60015 71.0485 8.45653 71.2927 8.36049C71.537 8.26444 71.7986 8.21798 72.0617 8.22389H73.5287Z" fill="#212322"/>
<path d="M84.0938 17.9776C84.0937 15.2876 85.1832 12.7078 87.1224 10.8057C89.0616 8.90356 91.6917 7.83496 94.4341 7.83496C97.1766 7.83496 99.8067 8.90356 101.746 10.8057C103.685 12.7078 104.775 15.2876 104.775 17.9776C104.775 20.6676 103.685 23.2475 101.746 25.1496C99.8067 27.0517 97.1766 28.1203 94.4341 28.1203C91.6917 28.1203 89.0616 27.0517 87.1224 25.1496C85.1832 23.2475 84.0938 20.6676 84.0938 17.9776ZM100.44 17.9776C100.44 14.5372 97.8699 11.746 94.4341 11.746C90.9984 11.746 88.4284 14.5372 88.4284 17.9776C88.4284 21.418 90.9929 24.2201 94.4341 24.2201C97.8754 24.2201 100.44 21.3856 100.44 17.9776Z" fill="#212322"/>
<path d="M107.977 16.7925C107.977 11.3831 111.683 7.83991 116.756 7.83991C117.019 7.83771 117.28 7.88712 117.522 7.98523C117.765 8.08333 117.986 8.22815 118.171 8.41115C118.356 8.59414 118.502 8.81162 118.6 9.05075C118.698 9.28989 118.746 9.54584 118.742 9.80354C118.74 10.3201 118.531 10.8151 118.159 11.1809C117.787 11.5467 117.283 11.7535 116.756 11.7563C114.181 11.7563 112.267 13.4387 112.267 16.8033V25.9399C112.267 26.4979 112.041 27.0332 111.639 27.4278C111.236 27.8224 110.691 28.0441 110.122 28.0441C109.553 28.0441 109.007 27.8224 108.605 27.4278C108.203 27.0332 107.977 26.4979 107.977 25.9399V16.7925Z" fill="#212322"/>
<path d="M119.275 17.9773C119.252 16.6412 119.503 15.3142 120.013 14.0751C120.523 12.836 121.282 11.7102 122.245 10.7645C123.207 9.81887 124.354 9.07267 125.616 8.57027C126.879 8.06788 128.231 7.81955 129.593 7.84004C132.869 7.84004 135.599 9.21944 137.083 10.9396C137.451 11.342 137.671 11.8547 137.706 12.3948C137.708 12.6615 137.654 12.9258 137.547 13.1712C137.44 13.4166 137.283 13.6378 137.086 13.821C136.888 14.0042 136.654 14.1456 136.398 14.2362C136.142 14.3267 135.87 14.3647 135.599 14.3476C134.744 14.3476 134.314 13.9256 133.768 13.4658C133.229 12.9142 132.581 12.4769 131.863 12.181C131.145 11.8851 130.372 11.7369 129.593 11.7456C126.24 11.7456 123.588 14.499 123.588 17.9773C123.588 21.4556 126.284 24.2198 129.593 24.2198C130.366 24.2239 131.132 24.073 131.843 23.7762C132.554 23.4795 133.196 23.0432 133.729 22.4942C134.281 22.0344 134.744 21.5367 135.599 21.5367C135.876 21.5247 136.152 21.5687 136.41 21.6659C136.669 21.7632 136.904 21.9115 137.102 22.1018C137.3 22.2921 137.455 22.5202 137.559 22.7719C137.663 23.0237 137.713 23.2937 137.706 23.5652C137.676 24.0816 137.464 24.5715 137.105 24.9501C136.162 25.9812 135.002 26.7988 133.705 27.3462C132.408 27.8936 131.005 28.1576 129.593 28.12C128.231 28.1405 126.878 27.892 125.615 27.3893C124.352 26.8865 123.205 26.1398 122.243 25.1936C121.28 24.2474 120.521 23.1209 120.011 21.8812C119.502 20.6415 119.251 19.3139 119.275 17.9773Z" fill="#212322"/>
<path d="M156.221 25.7454C154.434 27.2903 152.129 28.1357 149.747 28.1201C144.127 28.1201 139.875 23.6411 139.875 17.9775C139.875 12.3138 144.127 7.84019 149.747 7.84019C152.137 7.81999 154.447 8.68104 156.221 10.2528V9.98232C156.221 9.42424 156.447 8.88901 156.849 8.49438C157.252 8.09976 157.797 7.87806 158.366 7.87806C158.935 7.87806 159.481 8.09976 159.883 8.49438C160.286 8.88901 160.512 9.42424 160.512 9.98232V25.9401C160.512 26.4982 160.286 27.0334 159.883 27.4281C159.481 27.8227 158.935 28.0444 158.366 28.0444C157.797 28.0444 157.252 27.8227 156.849 27.4281C156.447 27.0334 156.221 26.4982 156.221 25.9401V25.7454ZM156.221 17.9775V17.7124C156.067 14.3045 153.491 11.762 150.21 11.762C146.929 11.762 144.204 14.4397 144.204 17.9937C144.204 21.5477 146.857 24.2362 150.21 24.2362C153.563 24.2362 156.221 21.5369 156.221 17.9775Z" fill="#212322"/>
<path d="M165.664 21.5744C165.958 21.565 166.25 21.6309 166.51 21.7656C166.77 21.9003 166.99 22.0991 167.148 22.3425C167.732 23.1864 168.554 24.3332 170.23 24.3332C170.514 24.3404 170.796 24.2925 171.06 24.1924C171.325 24.0923 171.566 23.9419 171.771 23.7499C171.977 23.5579 172.141 23.328 172.255 23.0735C172.369 22.8189 172.431 22.5448 172.436 22.2668C172.436 20.698 170.953 20.103 169.127 19.4701C166.668 18.6316 163.899 17.5984 163.899 13.655C163.899 10.4093 166.657 7.83984 170.219 7.83984C173.528 7.83984 176.578 9.83051 176.578 12.2377C176.577 12.4903 176.525 12.7402 176.425 12.9728C176.325 13.2054 176.178 13.416 175.994 13.5923C175.809 13.7686 175.591 13.9071 175.351 13.9996C175.112 14.0921 174.856 14.1368 174.598 14.131C174.345 14.1449 174.094 14.0876 173.873 13.9659C173.652 13.8442 173.471 13.6631 173.352 13.444C172.69 12.7137 171.753 11.6048 170.23 11.6048C169.945 11.5893 169.659 11.6313 169.391 11.7284C169.123 11.8255 168.878 11.9755 168.671 12.1692C168.464 12.3628 168.3 12.5961 168.189 12.8544C168.078 13.1128 168.022 13.3908 168.025 13.6712C168.025 15.2399 169.679 15.7376 171.653 16.3759C174.03 17.1062 176.721 18.3287 176.721 22.1532C176.721 25.3988 173.876 28.1036 170.208 28.1036C166.734 28.1036 163.695 25.8857 163.695 23.511C163.694 23.2567 163.744 23.0047 163.842 22.7694C163.94 22.5342 164.085 22.3204 164.268 22.1403C164.451 21.9603 164.669 21.8176 164.909 21.7204C165.148 21.6233 165.405 21.5737 165.664 21.5744Z" fill="#212322"/>
<path d="M179.898 2.71169C179.898 2.43535 179.954 2.16172 180.062 1.90642C180.17 1.65112 180.328 1.41915 180.527 1.22375C180.726 1.02835 180.962 0.873349 181.223 0.7676C181.483 0.66185 181.762 0.607422 182.044 0.607422C182.325 0.607422 182.604 0.66185 182.865 0.7676C183.125 0.873349 183.361 1.02835 183.561 1.22375C183.76 1.41915 183.918 1.65112 184.026 1.90642C184.134 2.16172 184.189 2.43535 184.189 2.71169V9.52215C185.602 8.4278 187.352 7.83486 189.152 7.83982C193.796 7.83982 197.463 11.2856 197.463 16.7546V25.9506C197.468 26.2309 197.416 26.5094 197.31 26.7699C197.205 27.0305 197.048 27.2681 196.848 27.4691C196.649 27.6701 196.411 27.8306 196.149 27.9413C195.886 28.052 195.604 28.1108 195.318 28.1143C195.031 28.1137 194.748 28.0569 194.484 27.9472C194.22 27.8375 193.981 27.6771 193.781 27.4755C193.581 27.2739 193.424 27.0352 193.32 26.7733C193.215 26.5114 193.165 26.2317 193.173 25.9506V16.6031C193.173 13.3899 191.182 11.7346 188.689 11.7346C186.196 11.7346 184.2 13.3574 184.2 16.6031V25.9398C184.2 26.2161 184.145 26.4897 184.037 26.745C183.929 27.0003 183.771 27.2323 183.572 27.4277C183.372 27.6231 183.136 27.7781 182.876 27.8839C182.615 27.9896 182.336 28.044 182.055 28.044C181.773 28.044 181.494 27.9896 181.234 27.8839C180.974 27.7781 180.737 27.6231 180.538 27.4277C180.339 27.2323 180.181 27.0003 180.073 26.745C179.965 26.4897 179.909 26.2161 179.909 25.9398L179.898 2.71169Z" fill="#212322"/>
<path d="M107.586 32.9024C107.586 32.4103 107.735 31.9292 108.013 31.52C108.292 31.1108 108.688 30.7918 109.152 30.6035C109.616 30.4151 110.126 30.3659 110.618 30.4619C111.11 30.5579 111.562 30.7949 111.917 31.1429C112.271 31.4909 112.513 31.9343 112.611 32.4169C112.709 32.8996 112.659 33.4 112.467 33.8546C112.275 34.3093 111.949 34.698 111.532 34.9714C111.115 35.2448 110.625 35.3907 110.123 35.3907C109.789 35.3914 109.459 35.3276 109.151 35.2028C108.843 35.078 108.563 34.8947 108.327 34.6635C108.092 34.4323 107.905 34.1577 107.778 33.8555C107.65 33.5533 107.585 33.2294 107.586 32.9024Z" fill="#546C83"/>
</svg>
