<svg width="394" height="33" viewBox="0 0 394 33" fill="none" xmlns="http://www.w3.org/2000/svg">
<path d="M3.87129 23.7764V23.9506C3.87129 25.0403 3.02538 25.921 1.93565 25.921C0.845912 25.921 0 25.0403 0 23.9506V2.58406C0 1.49434 0.845912 0.648438 1.93565 0.648438C3.02538 0.648438 3.87129 1.49434 3.87129 2.58406V9.52047C5.41881 8.11229 7.46393 7.30121 9.71306 7.30121C14.7836 7.30121 18.62 11.4213 18.62 16.626C18.62 21.8308 14.7836 25.9559 9.71306 25.9559C7.45896 25.9559 5.41881 25.1448 3.87129 23.7714V23.7764ZM14.7139 16.631C14.7139 13.3569 12.3205 10.8938 9.29508 10.8938C6.2697 10.8938 3.98076 13.2524 3.87627 16.3822V16.631C3.87627 19.9052 6.2697 22.3682 9.29508 22.3682C12.3205 22.3682 14.7139 19.9052 14.7139 16.631Z" fill="#546C83"/>
<path d="M35.5144 23.7764C33.9668 25.1497 31.9267 25.9608 29.6726 25.9608C24.6021 25.9608 20.7656 21.8407 20.7656 16.631C20.7656 11.4212 24.6021 7.30615 29.6726 7.30615C31.9267 7.30615 33.9668 8.11722 35.5144 9.5254V9.2766C35.5144 8.18688 36.3603 7.34098 37.45 7.34098C38.5397 7.34098 39.3856 8.18688 39.3856 9.2766V23.9555C39.3856 25.0452 38.5397 25.926 37.45 25.926C36.3603 25.926 35.5144 25.0452 35.5144 23.9555V23.7814V23.7764ZM35.5144 16.631V16.3822C35.375 13.2474 33.0513 10.8938 30.0955 10.8938C27.1398 10.8938 24.6767 13.3568 24.6767 16.631C24.6767 19.9051 27.0702 22.3682 30.0955 22.3682C33.1209 22.3682 35.5144 19.9051 35.5144 16.631Z" fill="#546C83"/>
<path d="M42.2656 16.631C42.2656 11.4212 46.1021 7.30615 51.1726 7.30615C53.4267 7.30615 55.4668 8.11722 57.0144 9.5254V9.2766C57.0144 8.18688 57.8603 7.34098 58.95 7.34098C60.0397 7.34098 60.8856 8.18688 60.8856 9.2766V23.3186C60.8856 28.598 56.6611 32.6484 51.3816 32.6484C48.391 32.6484 46.0324 31.3795 44.6591 29.832C44.3058 29.4091 44.0968 28.9165 44.0968 28.5284C44.0968 27.4386 44.9427 26.6972 45.9976 26.6972C46.7738 26.6972 47.1918 27.155 47.6894 27.578C48.6398 28.4587 49.8341 29.0558 51.3865 29.0558C54.4468 29.0558 56.7705 26.6972 56.9845 23.7764C55.437 25.1497 53.4317 25.9608 51.1776 25.9608C46.1071 25.9608 42.2706 21.8407 42.2706 16.631H42.2656ZM57.0144 16.8748V16.626C57.0144 13.3519 54.6209 10.8888 51.5955 10.8888C48.5702 10.8888 46.1767 13.3519 46.1767 16.626C46.1767 19.9002 48.5702 22.3632 51.5955 22.3632C54.6209 22.3632 56.875 20.0395 57.0144 16.8748Z" fill="#546C83"/>
<path d="M66.338 7.6545C66.8654 3.32547 70.1048 0.648438 74.2597 0.648438C75.2449 0.648438 76.056 1.45951 76.056 2.44474C76.056 3.42997 75.2449 4.24104 74.2597 4.24104C72.2196 4.24104 70.6671 5.4054 70.2491 7.6545H74.2597C75.2449 7.6545 76.056 8.43075 76.056 9.4508C76.056 10.4709 75.2449 11.2471 74.2597 11.2471H70.1396V23.9555C70.1396 25.0453 69.2589 25.926 68.204 25.926C67.1491 25.926 66.2683 25.0453 66.2683 23.9555V11.2471H64.9994C63.9794 11.2471 63.2031 10.436 63.2031 9.4508C63.2031 8.46558 63.9794 7.6545 64.9994 7.6545H66.338Z" fill="#546C83"/>
<path d="M75.8828 16.631C75.8828 11.4212 79.8586 7.30615 85.2127 7.30615C90.5669 7.30615 94.5426 11.4262 94.5426 16.631C94.5426 21.8358 90.6017 25.9608 85.2127 25.9608C79.8238 25.9608 75.8828 21.8407 75.8828 16.631ZM90.6315 16.631C90.6315 13.4613 88.3078 10.8938 85.2127 10.8938C82.1177 10.8938 79.7939 13.4613 79.7939 16.631C79.7939 19.8006 82.1177 22.3682 85.2127 22.3682C88.3078 22.3682 90.6315 19.7608 90.6315 16.631Z" fill="#546C83"/>
<path d="M97.4219 15.5363C97.4219 10.5355 100.766 7.30115 105.344 7.30115C106.329 7.30115 107.14 8.07739 107.14 9.09745C107.14 10.1175 106.329 10.8937 105.344 10.8937C103.02 10.8937 101.298 12.4412 101.298 15.5412V23.9555C101.298 25.0452 100.452 25.9259 99.3625 25.9259C98.2728 25.9259 97.4268 25.0452 97.4268 23.9555V15.5412L97.4219 15.5363Z" fill="#546C83"/>
<path d="M107.625 16.631C107.625 11.4212 111.601 7.30615 116.955 7.30615C119.911 7.30615 122.374 8.575 123.712 10.1573C124.066 10.5803 124.275 11.0729 124.275 11.4959C124.275 12.5507 123.463 13.2922 122.374 13.2922C121.597 13.2922 121.214 12.904 120.717 12.4811C119.836 11.6003 118.642 10.8988 116.95 10.8988C113.925 10.8988 111.531 13.4315 111.531 16.636C111.531 19.8404 113.925 22.3732 116.95 22.3732C118.567 22.3732 119.836 21.6716 120.682 20.7908C121.175 20.3679 121.597 19.9101 122.374 19.9101C123.463 19.9101 124.275 20.6863 124.275 21.7761C124.275 22.1642 124.066 22.6568 123.712 23.0449C122.374 24.6621 119.945 25.9658 116.955 25.9658C111.606 25.9658 107.625 21.8457 107.625 16.636V16.631Z" fill="#546C83"/>
<path d="M140.96 23.7764C139.412 25.1497 137.367 25.9608 135.118 25.9608C130.047 25.9608 126.211 21.8407 126.211 16.631C126.211 11.4212 130.047 7.30615 135.118 7.30615C137.372 7.30615 139.412 8.11722 140.96 9.5254V9.2766C140.96 8.18688 141.806 7.34098 142.895 7.34098C143.985 7.34098 144.831 8.18688 144.831 9.2766V23.9555C144.831 25.0452 143.985 25.926 142.895 25.926C141.806 25.926 140.96 25.0452 140.96 23.9555V23.7814V23.7764ZM140.96 16.631V16.3822C140.82 13.2474 138.497 10.8938 135.541 10.8938C132.585 10.8938 130.122 13.3568 130.122 16.631C130.122 19.9051 132.515 22.3682 135.541 22.3682C138.566 22.3682 140.96 19.9051 140.96 16.631Z" fill="#546C83"/>
<path d="M149.47 19.94C150.033 19.94 150.525 20.1887 150.809 20.6416C151.336 21.4178 152.078 22.4727 153.59 22.4727C154.75 22.4727 155.596 21.592 155.596 20.5719C155.596 19.1289 154.257 18.5666 152.605 18.0043C150.386 17.2281 147.888 16.2777 147.888 12.6552C147.888 9.66473 150.351 7.30615 153.59 7.30615C156.581 7.30615 159.328 9.13728 159.328 11.3516C159.328 12.3368 158.517 13.0782 157.531 13.0782C157.143 13.0782 156.651 12.9389 156.407 12.4462C155.81 11.7795 154.964 10.7544 153.59 10.7544C152.396 10.7544 151.62 11.6352 151.62 12.6552C151.62 14.0983 153.098 14.556 154.894 15.1531C157.039 15.8199 159.472 16.9494 159.472 20.4674C159.472 23.4231 156.904 25.9608 153.595 25.9608C150.46 25.9608 147.719 23.9207 147.719 21.7363C147.719 20.751 148.495 19.94 149.48 19.94H149.47Z" fill="#546C83"/>
<path d="M162.32 2.58406C162.32 1.49434 163.166 0.648438 164.256 0.648438C165.346 0.648438 166.192 1.49434 166.192 2.58406V8.84872C167.316 7.96798 168.834 7.30121 170.66 7.30121C174.85 7.30121 178.159 10.4709 178.159 15.5015V23.9506C178.159 25.0403 177.278 25.921 176.223 25.921C175.168 25.921 174.287 25.0403 174.287 23.9506V15.3622C174.287 12.4065 172.491 10.8938 170.242 10.8938C167.993 10.8938 166.197 12.4065 166.197 15.3622V23.9506C166.197 25.0403 165.351 25.921 164.261 25.921C163.171 25.921 162.325 25.0403 162.325 23.9506V2.58406H162.32Z" fill="#546C83"/>
<path d="M97.0625 30.3595C97.0625 29.0907 98.0826 28.0706 99.3514 28.0706C100.62 28.0706 101.64 29.0907 101.64 30.3595C101.64 31.6284 100.62 32.6484 99.3514 32.6484C98.0826 32.6484 97.0625 31.5935 97.0625 30.3595Z" fill="#546C83"/>
<path d="M285.643 8.23617C286.136 4.20225 289.153 1.70996 293.022 1.70996C293.942 1.70996 294.692 2.46536 294.692 3.38005C294.692 4.29475 293.937 5.05528 293.022 5.05528C291.121 5.05528 289.677 6.13956 289.281 8.23617H293.022C293.942 8.23617 294.692 8.95559 294.692 9.90626C294.692 10.8569 293.937 11.5815 293.022 11.5815H289.183V23.4212C289.183 24.4386 288.361 25.2608 287.38 25.2608C286.398 25.2608 285.576 24.4386 285.576 23.4212V11.5815H284.394C283.443 11.5815 282.719 10.8261 282.719 9.90626C282.719 8.98643 283.438 8.23617 284.394 8.23617H285.643Z" fill="#546C83"/>
<path d="M365.767 19.6852C366.291 19.6852 366.748 19.9164 367.01 20.3429C367.504 21.0623 368.192 22.049 369.6 22.049C370.685 22.049 371.471 21.2268 371.471 20.2761C371.471 18.9298 370.227 18.4056 368.68 17.8815C366.615 17.162 364.287 16.273 364.287 12.8969C364.287 10.1065 366.584 7.91229 369.6 7.91229C372.386 7.91229 374.945 9.61836 374.945 11.6841C374.945 12.604 374.189 13.2926 373.269 13.2926C372.91 13.2926 372.447 13.159 372.221 12.7016C371.661 12.0798 370.875 11.1292 369.595 11.1292C368.48 11.1292 367.755 11.9514 367.755 12.902C367.755 14.2484 369.133 14.6749 370.808 15.2299C372.807 15.8517 375.073 16.9051 375.073 20.1836C375.073 22.938 372.679 25.3018 369.595 25.3018C366.676 25.3018 364.117 23.4005 364.117 21.3655C364.117 20.4457 364.837 19.6903 365.756 19.6903" fill="#546C83"/>
<path d="M243.136 7.93821H244.724C245.254 7.93821 245.696 8.11292 246.045 8.45722C246.394 8.80151 246.569 9.23317 246.569 9.75218C246.569 10.2712 246.394 10.7285 246.045 11.0831C245.696 11.4428 245.254 11.6176 244.724 11.6176H243.136V23.5086C243.136 24.0276 242.962 24.4593 242.612 24.8036C242.263 25.1479 241.826 25.3226 241.307 25.3226C240.788 25.3226 240.351 25.1479 239.991 24.8036C239.637 24.4593 239.457 24.0276 239.457 23.5086V11.6176H238.126C237.869 11.6176 237.628 11.5662 237.407 11.4685C237.186 11.3709 236.99 11.2321 236.826 11.0626C236.662 10.8878 236.528 10.6926 236.43 10.4716C236.333 10.2506 236.281 10.0091 236.281 9.75218C236.281 9.23317 236.461 8.80151 236.816 8.45722C237.175 8.11292 237.612 7.93821 238.126 7.93821H239.457V3.46236C239.457 2.94335 239.637 2.51169 239.991 2.16739C240.351 1.8231 240.788 1.64838 241.307 1.64838C241.826 1.64838 242.258 1.8231 242.612 2.16739C242.962 2.51169 243.136 2.94335 243.136 3.46236V7.93821Z" fill="#546C83"/>
<path d="M251.324 16.6844L251.303 16.7203L251.324 16.7409C251.324 17.3678 251.442 17.9845 251.684 18.5806C251.925 19.1818 252.259 19.7162 252.691 20.189C253.123 20.6618 253.631 21.0472 254.217 21.3349C254.803 21.6227 255.44 21.7769 256.129 21.7871C256.756 21.8128 257.362 21.7358 257.943 21.5662C258.523 21.3915 259.089 21.0729 259.644 20.6052C259.829 20.4562 260.029 20.3123 260.245 20.1684C260.461 20.0246 260.687 19.9269 260.928 19.8704C261.17 19.8139 261.427 19.819 261.704 19.8807C261.982 19.9423 262.27 20.1016 262.563 20.3637C262.758 20.5384 262.907 20.7388 263.005 20.9752C263.102 21.2116 263.148 21.448 263.143 21.6946C263.138 21.9413 263.076 22.1931 262.969 22.4449C262.855 22.6967 262.691 22.9331 262.47 23.1592C261.72 23.9351 260.821 24.5261 259.772 24.9269C258.724 25.3277 257.619 25.5281 256.463 25.5281C255.229 25.5281 254.073 25.302 252.994 24.855C251.915 24.4028 250.974 23.7861 250.163 23.005C249.356 22.2239 248.719 21.299 248.251 20.2301C247.783 19.1664 247.547 18.0204 247.547 16.8026V16.782L247.567 16.746L247.547 16.7255C247.547 15.4922 247.783 14.3411 248.251 13.2671C248.719 12.1931 249.356 11.2578 250.163 10.4562C250.969 9.65455 251.915 9.02249 252.994 8.56001C254.073 8.09752 255.229 7.86627 256.463 7.86627C257.619 7.86627 258.724 8.06668 259.772 8.4675C260.821 8.86833 261.72 9.45928 262.47 10.2352C262.691 10.4562 262.861 10.6926 262.969 10.9495C263.082 11.2013 263.138 11.4531 263.143 11.7101C263.148 11.9619 263.102 12.2085 263.005 12.4398C262.907 12.6761 262.758 12.8765 262.563 13.0513C262.265 13.3082 261.982 13.4726 261.704 13.5343C261.427 13.596 261.17 13.596 260.928 13.5343C260.687 13.4726 260.461 13.3699 260.245 13.2311C260.029 13.0872 259.829 12.9434 259.644 12.7943C259.089 12.337 258.523 12.0235 257.943 11.8539C257.362 11.6792 256.761 11.6021 256.129 11.6124C255.45 11.6381 254.818 11.7923 254.233 12.0852C253.647 12.373 253.138 12.7584 252.706 13.2311C252.275 13.7039 251.935 14.2435 251.689 14.8396C251.442 15.4357 251.319 16.0574 251.319 16.6998L251.324 16.6844Z" fill="#546C83"/>
<path d="M269.484 9.98337C270.152 9.34103 270.887 8.82716 271.689 8.45203C272.49 8.07176 273.333 7.88676 274.207 7.88676C275.281 7.88676 276.262 8.1026 277.151 8.53425C278.04 8.96591 278.801 9.562 279.428 10.3225C280.06 11.0831 280.548 11.9823 280.903 13.0255C281.252 14.0687 281.432 15.2095 281.432 16.4428V23.5497C281.432 24.0687 281.257 24.5003 280.903 24.8446C280.548 25.1889 280.111 25.3636 279.592 25.3636C279.073 25.3636 278.636 25.1941 278.282 24.8446C277.927 24.5003 277.753 24.0687 277.753 23.5497V16.525C277.753 15.785 277.665 15.1118 277.485 14.5003C277.305 13.8888 277.048 13.3647 276.709 12.9279C276.37 12.4911 275.954 12.1519 275.461 11.9207C274.967 11.6843 274.412 11.5713 273.796 11.5713C273.179 11.5713 272.629 11.6894 272.115 11.9207C271.596 12.1571 271.149 12.4757 270.764 12.8816C270.383 13.2876 270.08 13.7706 269.859 14.3308C269.638 14.8909 269.515 15.4973 269.489 16.155V23.4983C269.489 24.0173 269.315 24.449 268.96 24.8035C268.61 25.153 268.174 25.3328 267.655 25.3328C267.398 25.3328 267.151 25.2866 266.925 25.1941C266.699 25.1016 266.498 24.9731 266.334 24.8035C266.17 24.6391 266.036 24.4438 265.943 24.2228C265.851 24.0019 265.805 23.7604 265.805 23.5034V3.53425C265.805 3.27731 265.856 3.03065 265.954 2.80454C266.051 2.57844 266.185 2.37803 266.349 2.21359C266.514 2.04915 266.714 1.91554 266.94 1.8179C267.166 1.72027 267.408 1.66888 267.655 1.66888C267.912 1.66888 268.153 1.72027 268.374 1.8179C268.595 1.91554 268.79 2.04915 268.955 2.21359C269.119 2.37803 269.253 2.57844 269.345 2.80454C269.438 3.03065 269.484 3.27731 269.484 3.53425V9.99879V9.98337Z" fill="#546C83"/>
<path d="M295.787 13.2928C296.25 12.229 296.882 11.2938 297.684 10.4921C298.485 9.6905 299.421 9.05844 300.495 8.59595C301.569 8.13346 302.704 7.90222 303.917 7.90222C305.13 7.90222 306.281 8.13346 307.345 8.59595C308.414 9.05844 309.344 9.6905 310.135 10.4921C310.932 11.2938 311.559 12.229 312.021 13.2928C312.484 14.3565 312.715 15.5024 312.715 16.7203C312.715 17.9382 312.484 19.0841 312.021 20.1479C311.559 21.2167 310.932 22.1468 310.135 22.9485C309.339 23.7501 308.408 24.3822 307.345 24.8447C306.276 25.3072 305.135 25.5384 303.917 25.5384C302.699 25.5384 301.569 25.3072 300.495 24.8447C299.421 24.3822 298.485 23.7501 297.684 22.9485C296.882 22.1468 296.25 21.2116 295.787 20.1479C295.325 19.0841 295.094 17.9382 295.094 16.7203C295.094 15.5024 295.325 14.3565 295.787 13.2928ZM299.2 18.709C299.472 19.3308 299.837 19.8755 300.299 20.338C300.762 20.8005 301.301 21.1653 301.928 21.4377C302.55 21.71 303.213 21.8436 303.917 21.8436C304.621 21.8436 305.3 21.71 305.921 21.4377C306.543 21.1653 307.088 20.8005 307.55 20.338C308.013 19.8755 308.378 19.3308 308.64 18.709C308.902 18.0872 309.035 17.4243 309.035 16.7203C309.035 16.0163 308.902 15.338 308.64 14.7213C308.373 14.1047 308.013 13.5651 307.55 13.1026C307.088 12.6401 306.543 12.2753 305.921 12.0132C305.3 11.746 304.631 11.6175 303.917 11.6175C303.203 11.6175 302.55 11.7511 301.928 12.0132C301.307 12.2804 300.762 12.6401 300.299 13.1026C299.837 13.5651 299.472 14.1047 299.2 14.7213C298.927 15.338 298.794 16.006 298.794 16.7203C298.794 17.4346 298.927 18.0872 299.2 18.709Z" fill="#546C83"/>
<path d="M330.769 16.6844L330.749 16.7203L330.769 16.7409C330.769 17.3678 330.887 17.9845 331.129 18.5806C331.37 19.1818 331.705 19.7162 332.136 20.189C332.568 20.6618 333.077 21.0472 333.662 21.3349C334.248 21.6227 334.885 21.7769 335.574 21.7871C336.201 21.8128 336.807 21.7358 337.388 21.5662C337.969 21.3915 338.534 21.0729 339.089 20.6052C339.274 20.4562 339.474 20.3123 339.69 20.1684C339.906 20.0246 340.137 19.9269 340.374 19.8704C340.615 19.8139 340.872 19.819 341.15 19.8807C341.427 19.9423 341.715 20.1016 342.008 20.3637C342.203 20.5384 342.352 20.7388 342.45 20.9752C342.547 21.2116 342.594 21.448 342.589 21.6946C342.583 21.9413 342.522 22.1931 342.414 22.4449C342.301 22.6967 342.136 22.9331 341.915 23.1592C341.165 23.9351 340.266 24.5261 339.218 24.9269C338.169 25.3277 337.064 25.5281 335.908 25.5281C334.675 25.5281 333.519 25.302 332.439 24.855C331.36 24.4028 330.415 23.7861 329.608 23.005C328.801 22.2239 328.164 21.299 327.696 20.2301C327.229 19.1664 326.992 18.0204 326.992 16.8026V16.782L327.013 16.746L326.992 16.7255C326.992 15.4922 327.229 14.3411 327.696 13.2671C328.164 12.1931 328.801 11.2578 329.608 10.4562C330.415 9.65455 331.36 9.02249 332.439 8.56001C333.519 8.09752 334.675 7.86627 335.908 7.86627C337.064 7.86627 338.169 8.06668 339.218 8.4675C340.266 8.86833 341.165 9.45928 341.915 10.2352C342.136 10.4562 342.306 10.6926 342.414 10.9495C342.527 11.2013 342.583 11.4531 342.589 11.7101C342.594 11.9619 342.547 12.2085 342.45 12.4398C342.352 12.6761 342.203 12.8765 342.008 13.0513C341.71 13.3082 341.427 13.4726 341.15 13.5343C340.872 13.596 340.615 13.596 340.374 13.5343C340.132 13.4726 339.906 13.3699 339.69 13.2311C339.474 13.0872 339.274 12.9434 339.089 12.7943C338.534 12.337 337.969 12.0235 337.388 11.8539C336.807 11.6792 336.206 11.6021 335.574 11.6124C334.896 11.6381 334.264 11.7923 333.678 12.0852C333.092 12.373 332.583 12.7584 332.152 13.2311C331.72 13.7039 331.381 14.2435 331.134 14.8396C330.887 15.4357 330.764 16.0574 330.764 16.6998L330.769 16.6844Z" fill="#546C83"/>
<path d="M381.523 9.98337C382.191 9.34103 382.926 8.82716 383.728 8.45203C384.529 8.07176 385.372 7.88676 386.246 7.88676C387.32 7.88676 388.301 8.1026 389.19 8.53425C390.079 8.96591 390.84 9.562 391.467 10.3225C392.094 11.0831 392.587 11.9823 392.942 13.0255C393.296 14.0687 393.471 15.2095 393.471 16.4428V23.5497C393.471 24.0687 393.296 24.5003 392.942 24.8446C392.587 25.1889 392.15 25.3636 391.631 25.3636C391.112 25.3636 390.675 25.1941 390.321 24.8446C389.966 24.5003 389.792 24.0687 389.792 23.5497V16.525C389.792 15.785 389.704 15.1118 389.524 14.5003C389.344 13.8888 389.088 13.3647 388.748 12.9279C388.409 12.4911 387.993 12.1519 387.5 11.9207C387.006 11.6843 386.451 11.5713 385.835 11.5713C385.218 11.5713 384.668 11.6894 384.154 11.9207C383.635 12.1571 383.188 12.4757 382.803 12.8816C382.422 13.2876 382.119 13.7706 381.898 14.3308C381.677 14.8909 381.554 15.4973 381.528 16.155V23.4983C381.528 24.0173 381.354 24.449 380.999 24.8035C380.65 25.153 380.213 25.3328 379.694 25.3328C379.437 25.3328 379.19 25.2866 378.964 25.1941C378.738 25.1016 378.537 24.9731 378.373 24.8035C378.209 24.6391 378.075 24.4438 377.982 24.2228C377.89 24.0019 377.844 23.7604 377.844 23.5034V3.53425C377.844 3.27731 377.895 3.03065 377.993 2.80454C378.09 2.57844 378.224 2.37803 378.388 2.21359C378.553 2.04915 378.753 1.91554 378.979 1.8179C379.206 1.72027 379.447 1.66888 379.694 1.66888C379.951 1.66888 380.192 1.72027 380.413 1.8179C380.634 1.91554 380.829 2.04915 380.994 2.21359C381.158 2.37803 381.292 2.57844 381.384 2.80454C381.477 3.03065 381.523 3.27731 381.523 3.53425V9.99879V9.98337Z" fill="#546C83"/>
<path d="M358.204 23.3287C356.749 24.6134 354.838 25.374 352.726 25.374C347.972 25.374 344.375 21.5148 344.375 16.6278C344.375 11.7409 347.972 7.88165 352.726 7.88165C354.838 7.88165 356.754 8.64219 358.204 9.96285V9.7316C358.204 8.70899 358.995 7.91763 360.018 7.91763C361.04 7.91763 361.832 8.70899 361.832 9.7316V23.4932C361.832 24.5158 361.04 25.3431 360.018 25.3431C358.995 25.3431 358.204 24.5158 358.204 23.4932V23.3287ZM358.204 16.6278V16.3966C358.075 13.4572 355.896 11.2475 353.121 11.2475C350.346 11.2475 348.039 13.56 348.039 16.6278C348.039 19.6956 350.285 22.0081 353.121 22.0081C355.958 22.0081 358.204 19.6956 358.204 16.6278Z" fill="#546C83"/>
<path d="M230.461 23.3287C229.007 24.6134 227.096 25.374 224.983 25.374C220.23 25.374 216.633 21.5148 216.633 16.6278C216.633 11.7409 220.23 7.88165 224.983 7.88165C227.096 7.88165 229.012 8.64219 230.461 9.96285V9.7316C230.461 8.70899 231.253 7.91763 232.275 7.91763C233.298 7.91763 234.089 8.70899 234.089 9.7316V23.4932C234.089 24.5158 233.298 25.3431 232.275 25.3431C231.253 25.3431 230.461 24.5158 230.461 23.4932V23.3287ZM230.461 16.6278V16.3966C230.328 13.4572 228.149 11.2475 225.379 11.2475C222.609 11.2475 220.297 13.56 220.297 16.6278C220.297 19.6956 222.542 22.0081 225.379 22.0081C228.216 22.0081 230.461 19.6956 230.461 16.6278Z" fill="#546C83"/>
<path d="M317.375 15.6052C317.375 10.9187 320.51 7.88165 324.801 7.88165C325.726 7.88165 326.481 8.60622 326.481 9.56716C326.481 10.5281 325.72 11.2527 324.801 11.2527C322.622 11.2527 321.003 12.7069 321.003 15.6103V23.4983C321.003 24.5209 320.212 25.3483 319.189 25.3483C318.166 25.3483 317.375 24.5209 317.375 23.4983V15.6103V15.6052Z" fill="#546C83"/>
<path d="M317.047 29.5004C317.047 28.3134 318.003 27.3524 319.19 27.3524C320.377 27.3524 321.333 28.3082 321.333 29.5004C321.333 30.6926 320.377 31.6484 319.19 31.6484C318.003 31.6484 317.047 30.6566 317.047 29.5004Z" fill="#546C83"/>
<path d="M209.176 24.9629L209.156 24.9834C209.078 25.0451 209.007 25.0965 208.929 25.1325C208.904 25.1325 208.878 25.1427 208.852 25.1684H208.832C208.616 25.2712 208.405 25.3277 208.189 25.338H208.097C207.984 25.338 207.876 25.3329 207.778 25.3175C207.717 25.3072 207.655 25.2918 207.588 25.2815C207.511 25.2712 207.429 25.2455 207.342 25.2044C207.264 25.1684 207.193 25.1273 207.115 25.0914C206.966 25.0143 206.833 24.9115 206.72 24.7727L206.663 24.7162C206.602 24.6546 206.545 24.5929 206.494 24.5261C206.432 24.4233 206.375 24.3205 206.324 24.2075L204.212 19.5723L202.12 24.2075C202.069 24.3103 202.013 24.4028 201.951 24.4901C201.889 24.5775 201.822 24.6597 201.761 24.7368C201.684 24.8344 201.596 24.9166 201.499 24.9834C201.396 25.0451 201.293 25.1068 201.18 25.1736C200.98 25.2609 200.764 25.3175 200.538 25.3431H200.255C200.039 25.3329 199.829 25.2763 199.613 25.1736C199.397 25.0862 199.207 24.9475 199.027 24.7573C198.888 24.6186 198.77 24.4387 198.667 24.2126L192.326 10.2455C192.213 10.0091 192.156 9.76246 192.156 9.51067C192.156 9.25887 192.197 9.02249 192.28 8.79638C192.362 8.57028 192.485 8.36472 192.655 8.18487C192.824 8.00501 193.03 7.85599 193.266 7.74294C193.503 7.62988 193.749 7.57336 193.991 7.57336C194.232 7.57336 194.469 7.61961 194.7 7.70697C194.926 7.79433 195.127 7.92794 195.301 8.10265C195.476 8.27737 195.62 8.48806 195.733 8.72444L200.389 19.2383L202.198 15.1273L199.993 10.2455C199.88 10.0091 199.818 9.76246 199.813 9.51067C199.808 9.25887 199.844 9.02249 199.926 8.79638C200.008 8.57028 200.132 8.36472 200.301 8.18487C200.471 8.00501 200.676 7.85599 200.913 7.74294C201.149 7.62988 201.391 7.57336 201.637 7.57336C201.884 7.57336 202.12 7.61961 202.347 7.70697C202.573 7.79433 202.773 7.92794 202.948 8.10265C203.123 8.27737 203.266 8.48806 203.379 8.72444L204.191 10.5898L205.019 8.72444C205.122 8.48806 205.26 8.28251 205.445 8.11293C205.625 7.94335 205.831 7.81488 206.047 7.72752C206.268 7.64016 206.504 7.59392 206.756 7.59392C207.008 7.59392 207.254 7.65044 207.491 7.7635C207.727 7.87655 207.933 8.02557 208.102 8.20543C208.272 8.38528 208.4 8.59084 208.488 8.81694C208.575 9.04305 208.616 9.27943 208.611 9.53123C208.606 9.78302 208.544 10.0297 208.431 10.2661L206.226 15.1479L208.035 19.2383L212.671 8.72444C212.886 8.24654 213.231 7.91252 213.709 7.72752C214.186 7.53739 214.664 7.55281 215.142 7.7635C215.379 7.87655 215.584 8.02557 215.754 8.20543C215.923 8.38528 216.052 8.59084 216.139 8.81694C216.227 9.04305 216.273 9.27943 216.273 9.53123C216.273 9.78302 216.216 10.0297 216.103 10.2661L209.772 24.2126C209.659 24.4284 209.536 24.6083 209.397 24.7573C209.335 24.8344 209.258 24.9012 209.171 24.9629H209.176Z" fill="#546C83"/>
</svg>
