<svg width="114" height="19" viewBox="0 0 114 19" fill="none" xmlns="http://www.w3.org/2000/svg">
<path d="M53.6012 4.64115C53.8923 2.31748 55.5897 0.881836 57.7819 0.881836C58.0329 0.882612 58.2735 0.984123 58.4512 1.16429C58.629 1.34445 58.7295 1.58869 58.7311 1.84387C58.7303 2.09956 58.6301 2.34455 58.4522 2.52535C58.2744 2.70616 58.0334 2.80808 57.7819 2.80886C56.7047 2.80886 55.8866 3.43047 55.6653 4.64115H57.7819C57.9067 4.63997 58.0304 4.66403 58.1459 4.71192C58.2613 4.75981 58.3663 4.83058 58.4546 4.92011C58.543 5.00964 58.6129 5.11614 58.6603 5.23341C58.7078 5.35068 58.7318 5.47638 58.7311 5.60318C58.7303 5.85887 58.6301 6.10387 58.4522 6.28467C58.2744 6.46547 58.0334 6.56739 57.7819 6.56817H55.6071V13.3764C55.6177 13.519 55.5993 13.6624 55.5529 13.7974C55.5065 13.9324 55.4331 14.0563 55.3375 14.1612C55.2418 14.2661 55.1259 14.3498 54.9969 14.407C54.868 14.4642 54.7288 14.4937 54.5881 14.4937C54.4474 14.4937 54.3083 14.4642 54.1793 14.407C54.0504 14.3498 53.9344 14.2661 53.8388 14.1612C53.7431 14.0563 53.6698 13.9324 53.6234 13.7974C53.577 13.6624 53.5585 13.519 53.5691 13.3764V6.56817H52.9024C52.7776 6.56896 52.6538 6.54453 52.5383 6.49632C52.4228 6.4481 52.3179 6.37705 52.2296 6.28729C52.1413 6.19752 52.0714 6.09083 52.024 5.9734C51.9765 5.85596 51.9525 5.73013 51.9533 5.60318C51.9509 5.47593 51.9738 5.3495 52.0207 5.23149C52.0676 5.11348 52.1375 5.00633 52.2262 4.91647C52.3148 4.82661 52.4204 4.7559 52.5366 4.70859C52.6528 4.66127 52.7773 4.63834 52.9024 4.64115H53.6012Z" fill="#212322"/>
<path d="M97.9473 11.2337C98.0871 11.2288 98.2257 11.2612 98.3493 11.3277C98.4729 11.3942 98.5772 11.4924 98.6519 11.6126C98.9431 12.027 99.3215 12.5954 100.108 12.5954C100.243 12.6001 100.379 12.5773 100.506 12.5284C100.633 12.4794 100.749 12.4053 100.848 12.3103C100.946 12.2152 101.025 12.1012 101.08 11.9748C101.135 11.8485 101.165 11.7122 101.167 11.5741C101.167 10.8015 100.463 10.4996 99.5894 10.1947C98.4248 9.78031 97.0972 9.27118 97.0972 7.32344C97.0972 5.71907 98.3986 4.45215 100.108 4.45215C101.689 4.45215 103.138 5.4349 103.138 6.62486C103.137 6.74947 103.112 6.87261 103.063 6.98704C103.015 7.10146 102.944 7.20487 102.856 7.29118C102.767 7.37749 102.663 7.44497 102.548 7.48965C102.434 7.53433 102.312 7.55531 102.189 7.55136C102.071 7.55499 101.954 7.52509 101.851 7.46499C101.748 7.40488 101.664 7.31694 101.607 7.21095C101.29 6.85278 100.844 6.30221 100.119 6.30221C99.9841 6.29617 99.8492 6.31818 99.7227 6.36691C99.5963 6.41563 99.4809 6.49005 99.3836 6.58561C99.2864 6.68117 99.2093 6.79588 99.157 6.92273C99.1048 7.04959 99.0786 7.18593 99.0799 7.32344C99.0799 8.09898 99.8601 8.34467 100.806 8.66436C101.942 9.02549 103.223 9.62935 103.223 11.5179C103.223 13.1045 101.866 14.478 100.119 14.478C98.4656 14.478 97.0157 13.3827 97.0157 12.2105C97.0142 12.0849 97.0371 11.9602 97.0831 11.8435C97.1292 11.7269 97.1975 11.6207 97.2841 11.531C97.3707 11.4413 97.4738 11.3699 97.5877 11.3209C97.7015 11.2719 97.8237 11.2463 97.9473 11.2456" fill="#212322"/>
<path d="M29.5277 4.46703H30.4302C30.5681 4.46263 30.7055 4.48657 30.8341 4.53744C30.9626 4.5883 31.0798 4.66504 31.1785 4.76304C31.2747 4.86043 31.3502 4.9769 31.4003 5.10523C31.4504 5.23356 31.474 5.37099 31.4696 5.50899C31.4741 5.65009 31.4506 5.79066 31.4006 5.92236C31.3506 6.05406 31.275 6.1742 31.1785 6.27565C31.0806 6.3748 30.9636 6.45228 30.8348 6.50322C30.706 6.55416 30.5683 6.57747 30.4302 6.57166H29.5277V13.4361C29.5323 13.5741 29.5088 13.7116 29.4587 13.84C29.4086 13.9683 29.333 14.0848 29.2366 14.1821C29.0361 14.3742 28.7711 14.4812 28.4956 14.4812C28.2201 14.4812 27.9551 14.3742 27.7546 14.1821C27.6575 14.0853 27.5814 13.969 27.5313 13.8405C27.4811 13.712 27.458 13.5742 27.4635 13.4361V6.58942H26.6891C26.5488 6.59014 26.4099 6.5609 26.2815 6.50358C26.158 6.44791 26.0463 6.3685 25.9525 6.26973C25.8567 6.17045 25.7797 6.05404 25.7254 5.92636C25.6687 5.79587 25.6399 5.65461 25.641 5.51195C25.6374 5.37273 25.6627 5.23432 25.7154 5.10577C25.7681 4.97722 25.8469 4.86144 25.9467 4.766C26.0447 4.66872 26.1609 4.59241 26.2884 4.54157C26.4159 4.49072 26.5521 4.46639 26.6891 4.46999H27.4315V1.89175C27.426 1.75363 27.4491 1.61588 27.4993 1.4874C27.5494 1.35891 27.6255 1.24254 27.7226 1.14581C27.9231 0.953685 28.1881 0.84668 28.4636 0.84668C28.739 0.84668 29.0041 0.953685 29.2045 1.14581C29.3009 1.24309 29.3765 1.35955 29.4266 1.4879C29.4767 1.61625 29.5002 1.75374 29.4957 1.89175L29.5277 4.46703Z" fill="#212322"/>
<path d="M34.1723 9.50437V9.52805C34.1728 9.89159 34.243 10.2516 34.379 10.5878C34.515 10.9306 34.7124 11.2448 34.9613 11.5143C35.2079 11.7895 35.5044 12.0137 35.8347 12.1744C36.1717 12.3437 36.5419 12.4338 36.9178 12.4378C37.2651 12.4517 37.6122 12.4077 37.9455 12.3076C38.3015 12.194 38.6298 12.0054 38.9092 11.754C39.014 11.6712 39.1275 11.5853 39.2498 11.5054C39.3675 11.4246 39.4988 11.3665 39.637 11.3337C39.7817 11.2998 39.932 11.2998 40.0767 11.3337C40.2595 11.3827 40.4268 11.4785 40.5629 11.612C40.6716 11.7073 40.7573 11.8268 40.8133 11.9612C40.8705 12.0924 40.8974 12.2352 40.8919 12.3786C40.8879 12.527 40.8542 12.6731 40.7929 12.8078C40.7234 12.9631 40.6245 13.1029 40.5017 13.2193C40.0726 13.6695 39.5505 14.0172 38.9732 14.2376C38.374 14.4669 37.7386 14.5832 37.0983 14.5809C35.7674 14.5893 34.4862 14.0676 33.5289 13.1275C33.0688 12.6727 32.7009 12.1307 32.4458 11.532C32.1786 10.9084 32.0427 10.2349 32.047 9.55469V9.53397C32.0425 8.84897 32.1783 8.17053 32.4458 7.54183C32.702 6.9368 33.0696 6.38719 33.5289 5.92266C33.9909 5.45878 34.5353 5.08815 35.1331 4.83038C35.7545 4.56232 36.4233 4.42633 37.0983 4.43077C37.7389 4.428 38.3745 4.54541 38.9732 4.7771C39.5505 4.99742 40.0726 5.3452 40.5017 5.79537C40.6237 5.91124 40.7226 6.04994 40.7929 6.20386C40.8546 6.34161 40.8883 6.49063 40.8919 6.64196C40.8977 6.78635 40.8708 6.93017 40.8133 7.06229C40.7566 7.19719 40.6711 7.31753 40.5629 7.41454C40.426 7.5462 40.2588 7.64085 40.0767 7.68983C39.9322 7.72537 39.7815 7.72537 39.637 7.68983C39.4995 7.65331 39.3688 7.59433 39.2498 7.51519C39.1275 7.4323 39.014 7.34942 38.9092 7.26358C38.6184 7.01425 38.2805 6.8279 37.9164 6.71596C37.583 6.61575 37.2363 6.56882 36.8887 6.57684C36.5154 6.58786 36.149 6.68075 35.8144 6.84916C35.4841 7.00986 35.1875 7.23402 34.9409 7.50927C34.695 7.78104 34.4979 8.09464 34.3586 8.43577C34.228 8.77604 34.1647 9.13918 34.1723 9.50437Z" fill="#212322"/>
<path d="M44.4558 5.645C44.8205 5.28027 45.2427 4.98012 45.7048 4.75698C46.1502 4.54082 46.6378 4.42953 47.1314 4.43136C47.7082 4.42419 48.279 4.55179 48.7996 4.80434C49.2973 5.04833 49.7372 5.3987 50.0894 5.83149C50.4599 6.29373 50.7432 6.82159 50.925 7.3885C51.1262 8.0243 51.2245 8.68911 51.2161 9.35696V13.4567C51.2212 13.5948 51.1979 13.7324 51.1478 13.8608C51.0977 13.9893 51.0218 14.1057 50.925 14.2026C50.724 14.395 50.4585 14.502 50.1826 14.502C49.9066 14.502 49.6411 14.395 49.4401 14.2026C49.3439 14.1052 49.2684 13.9888 49.2183 13.8604C49.1682 13.7321 49.1446 13.5947 49.149 13.4567V9.41024C49.1458 9.01597 49.087 8.6242 48.9743 8.24692C48.8851 7.91959 48.7359 7.61229 48.5347 7.34114C48.3484 7.08948 48.1059 6.88655 47.8272 6.74912C47.5313 6.6118 47.2091 6.54305 46.8839 6.54783C46.5562 6.54608 46.2318 6.61467 45.9319 6.74912C45.6508 6.8858 45.3987 7.07683 45.1895 7.31153C44.9681 7.5553 44.7942 7.83956 44.6771 8.14924C44.5494 8.48398 44.4786 8.83829 44.4674 9.19711V13.4271C44.469 13.5659 44.4433 13.7037 44.3917 13.8322C44.3402 13.9608 44.2639 14.0776 44.1673 14.1758C44.0708 14.2739 43.9559 14.3515 43.8295 14.4039C43.703 14.4563 43.5675 14.4825 43.431 14.4809C43.2884 14.4818 43.147 14.4547 43.0146 14.401C42.8893 14.3497 42.7754 14.2732 42.6798 14.176C42.5862 14.0801 42.5121 13.9664 42.4615 13.8415C42.4084 13.7101 42.3816 13.5692 42.3829 13.4271V1.92121C42.3813 1.77659 42.4101 1.6333 42.4673 1.50087C42.5209 1.37441 42.5969 1.25902 42.6915 1.16046C42.7879 1.06364 42.9015 0.986298 43.0263 0.932536C43.1504 0.877669 43.284 0.848487 43.4193 0.846693C43.5596 0.845968 43.6985 0.875214 43.8269 0.932536C43.9495 0.98713 44.0611 1.06442 44.1559 1.16046C44.2521 1.25711 44.3274 1.37304 44.3772 1.50087C44.43 1.63445 44.4567 1.77723 44.4558 1.92121V5.645Z" fill="#212322"/>
<path d="M59.3539 7.55137C59.8664 6.33361 60.8219 5.36429 62.0208 4.84584C62.6348 4.58215 63.2946 4.44629 63.9612 4.44629C64.6278 4.44629 65.2876 4.58215 65.9017 4.84584C66.4937 5.10322 67.0314 5.47406 67.4855 5.93812C67.9371 6.40375 68.2994 6.95083 68.554 7.55137C68.8133 8.17673 68.9469 8.84855 68.9469 9.52723C68.9469 10.2059 68.8133 10.8777 68.554 11.5031C68.3001 12.104 67.9377 12.6512 67.4855 13.1163C67.0314 13.5804 66.4937 13.9512 65.9017 14.2086C65.2876 14.4723 64.6278 14.6082 63.9612 14.6082C63.2946 14.6082 62.6348 14.4723 62.0208 14.2086C60.8219 13.6902 59.8664 12.7208 59.3539 11.5031C59.0946 10.8777 58.9609 10.2059 58.9609 9.52723C58.9609 8.84855 59.0946 8.17673 59.3539 7.55137ZM61.2871 10.6713C61.582 11.3795 62.1365 11.9433 62.833 12.2431C63.1908 12.3974 63.5755 12.4769 63.9641 12.4769C64.3528 12.4769 64.7374 12.3974 65.0952 12.2431C65.4398 12.0938 65.7531 11.8788 66.0181 11.6097C66.2817 11.3404 66.4913 11.0218 66.6354 10.6713C66.9341 9.93678 66.9341 9.11176 66.6354 8.37723C66.3432 7.67188 65.7901 7.11159 65.0952 6.81726C64.3708 6.5135 63.5575 6.5135 62.833 6.81726C62.4887 6.96431 62.1753 7.17737 61.9101 7.4448C61.6471 7.7134 61.4358 8.02965 61.2871 8.37723C61.1353 8.73996 61.0571 9.13009 61.0571 9.52427C61.0571 9.91845 61.1353 10.3086 61.2871 10.6713Z" fill="#212322"/>
<path d="M78.1176 9.50443V9.52811C78.1181 9.89165 78.1883 10.2516 78.3243 10.5878C78.4603 10.9307 78.6577 11.2448 78.9066 11.5143C79.1532 11.7896 79.4498 12.0137 79.78 12.1744C80.117 12.3438 80.4872 12.4338 80.8631 12.4379C81.2104 12.4518 81.5575 12.4078 81.8908 12.3076C82.2468 12.1941 82.5751 12.0055 82.8545 11.7541C82.9593 11.6712 83.0729 11.5854 83.1951 11.5054C83.3126 11.4243 83.4439 11.3661 83.5824 11.3338C83.727 11.2999 83.8773 11.2999 84.022 11.3338C84.2048 11.3828 84.3722 11.4786 84.5082 11.612C84.6178 11.7065 84.7037 11.8263 84.7586 11.9613C84.8154 12.0927 84.8432 12.2352 84.8401 12.3787C84.8337 12.5271 84.7991 12.6728 84.7382 12.8079C84.6687 12.9632 84.5698 13.103 84.447 13.2193C84.0179 13.6695 83.4958 14.0173 82.9186 14.2376C82.3193 14.4669 81.6839 14.5833 81.0436 14.581C79.7127 14.5894 78.4315 14.0677 77.4742 13.1276C77.0141 12.6728 76.6462 12.1307 76.3912 11.5321C76.1239 10.9085 75.988 10.2349 75.9923 9.55475V9.53403C75.9878 8.84903 76.1236 8.17059 76.3912 7.54189C76.6473 6.93686 77.0149 6.38725 77.4742 5.92272C77.934 5.45734 78.4764 5.08471 79.0726 4.82452C79.694 4.55646 80.3628 4.42047 81.0378 4.42491C81.6784 4.42214 82.314 4.53955 82.9127 4.77124C83.49 4.99157 84.0121 5.33934 84.4412 5.78951C84.5632 5.90538 84.662 6.04408 84.7324 6.19801C84.7936 6.33607 84.8282 6.48479 84.8343 6.6361C84.8376 6.78058 84.8098 6.92406 84.7527 7.05643C84.6972 7.19194 84.6115 7.31251 84.5024 7.40868C84.3655 7.54034 84.1983 7.63499 84.0162 7.68397C83.8717 7.71951 83.721 7.71951 83.5765 7.68397C83.4388 7.64801 83.308 7.58899 83.1893 7.50933C83.067 7.42644 82.9535 7.34356 82.8487 7.25772C82.566 7.01397 82.2384 6.82983 81.885 6.71602C81.5516 6.61581 81.2049 6.56888 80.8573 6.5769C80.4841 6.58792 80.1176 6.68081 79.783 6.84923C79.4527 7.00993 79.1561 7.23408 78.9095 7.50933C78.6636 7.7811 78.4665 8.0947 78.3272 8.43583C78.1886 8.77446 78.1174 9.13765 78.1176 9.50443Z" fill="#212322"/>
<path d="M106.874 5.645C107.237 5.28032 107.659 4.98016 108.12 4.75697C108.566 4.54106 109.055 4.42979 109.549 4.43136C110.126 4.42482 110.697 4.55239 111.218 4.80433C111.714 5.04981 112.154 5.39995 112.507 5.83149C112.877 6.29392 113.159 6.82178 113.34 7.3885C113.543 8.02396 113.641 8.689 113.631 9.35696V13.4567C113.636 13.5948 113.613 13.7324 113.563 13.8608C113.513 13.9893 113.437 14.1057 113.34 14.2026C113.242 14.2999 113.126 14.3762 112.998 14.4271C112.871 14.4779 112.734 14.5022 112.598 14.4986C112.461 14.5029 112.324 14.4789 112.196 14.428C112.069 14.3771 111.953 14.3005 111.855 14.2026C111.758 14.1057 111.682 13.9893 111.632 13.8608C111.582 13.7324 111.559 13.5948 111.564 13.4567V9.41024C111.569 9.01612 111.518 8.62336 111.413 8.24396C111.323 7.91663 111.174 7.60933 110.973 7.33817C110.787 7.08652 110.544 6.88358 110.265 6.74616C109.97 6.60884 109.647 6.54009 109.322 6.54487C108.993 6.5427 108.668 6.6113 108.367 6.74616C108.077 6.8812 107.816 7.07335 107.599 7.31153C107.376 7.5545 107.202 7.83897 107.086 8.14924C106.956 8.48314 106.885 8.83795 106.877 9.19711V13.4271C106.878 13.5662 106.852 13.7042 106.801 13.8329C106.749 13.9617 106.672 14.0786 106.575 14.1768C106.479 14.275 106.363 14.3525 106.237 14.4048C106.11 14.457 105.974 14.4829 105.837 14.4809C105.696 14.4815 105.555 14.4544 105.424 14.401C105.298 14.3504 105.184 14.2738 105.089 14.176C104.994 14.0802 104.919 13.9666 104.868 13.8415C104.815 13.7101 104.788 13.5692 104.789 13.4271V1.92121C104.789 1.77673 104.818 1.63374 104.874 1.50087C104.927 1.3737 105.004 1.25815 105.101 1.16046C105.197 1.06301 105.31 0.985578 105.435 0.932535C105.561 0.876499 105.697 0.847283 105.834 0.846692C105.976 0.845991 106.115 0.875227 106.245 0.932535C106.367 0.987129 106.479 1.06442 106.574 1.16046C106.669 1.2579 106.744 1.37361 106.795 1.50087C106.848 1.63445 106.875 1.77723 106.874 1.92121V5.645Z" fill="#212322"/>
<path d="M93.6627 13.3353C92.806 14.1036 91.7015 14.5249 90.5592 14.5194C87.8661 14.5194 85.8281 12.2963 85.8281 9.48721C85.8281 6.67809 87.8661 4.45506 90.5592 4.45506C91.7031 4.44043 92.8107 4.86299 93.6627 5.63909V5.50589C93.6553 5.36379 93.6764 5.22165 93.7248 5.08812C93.7731 4.95459 93.8477 4.83247 93.944 4.72921C94.0403 4.62595 94.1563 4.54372 94.2849 4.48752C94.4135 4.43133 94.552 4.40234 94.6919 4.40234C94.8319 4.40234 94.9704 4.43133 95.099 4.48752C95.2275 4.54372 95.3435 4.62595 95.4398 4.72921C95.5361 4.83247 95.6107 4.95459 95.6591 5.08812C95.7074 5.22165 95.7286 5.36379 95.7211 5.50589V13.4301C95.7286 13.5722 95.7074 13.7143 95.6591 13.8478C95.6107 13.9814 95.5361 14.1035 95.4398 14.2067C95.3435 14.31 95.2275 14.3922 95.099 14.4484C94.9704 14.5046 94.8319 14.5336 94.6919 14.5336C94.552 14.5336 94.4135 14.5046 94.2849 14.4484C94.1563 14.3922 94.0403 14.31 93.944 14.2067C93.8477 14.1035 93.7731 13.9814 93.7248 13.8478C93.6764 13.7143 93.6553 13.5722 93.6627 13.4301V13.3353ZM93.6627 9.48721V9.34217C93.59 7.649 92.3555 6.38208 90.7834 6.38208C89.2112 6.38208 87.904 7.71412 87.904 9.48129C87.904 11.2485 89.1763 12.5805 90.7834 12.5805C92.3905 12.5805 93.6627 11.2485 93.6627 9.48129" fill="#212322"/>
<path d="M22.3502 13.3357C21.4935 14.1039 20.389 14.5253 19.2467 14.5197C16.5536 14.5197 14.5156 12.2967 14.5156 9.48757C14.5156 6.67845 16.5536 4.45542 19.2467 4.45542C20.3905 4.44136 21.4979 4.86385 22.3502 5.63946V5.50625C22.3502 5.22912 22.4585 4.96334 22.6513 4.76739C22.844 4.57143 23.1054 4.46134 23.378 4.46134C23.6505 4.46134 23.912 4.57143 24.1047 4.76739C24.2974 4.96334 24.4057 5.22912 24.4057 5.50625V13.4304C24.4057 13.7075 24.2974 13.9733 24.1047 14.1693C23.912 14.3652 23.6505 14.4753 23.378 14.4753C23.1054 14.4753 22.844 14.3652 22.6513 14.1693C22.4585 13.9733 22.3502 13.7075 22.3502 13.4304V13.3357ZM22.3502 9.48757V9.34253C22.2745 7.64936 21.0401 6.38244 19.4709 6.38244C17.9016 6.38244 16.5915 7.71448 16.5915 9.48165C16.5915 11.2488 17.8638 12.5809 19.4709 12.5809C21.078 12.5809 22.3502 11.2488 22.3502 9.48165" fill="#212322"/>
<path d="M70.5312 8.88647C70.5312 6.18687 72.3072 4.44633 74.7382 4.44633C74.8638 4.44514 74.9884 4.46946 75.1046 4.51787C75.2209 4.56628 75.3264 4.63779 75.4151 4.72823C75.5038 4.81867 75.5738 4.9262 75.621 5.04451C75.6683 5.16283 75.6918 5.28955 75.6903 5.41724C75.6895 5.67372 75.589 5.91947 75.4106 6.10082C75.2322 6.28218 74.9905 6.38441 74.7382 6.38519C73.5038 6.38519 72.5867 7.2229 72.5867 8.89535V13.4302C72.5867 13.7073 72.4784 13.9731 72.2857 14.1691C72.093 14.365 71.8316 14.4751 71.559 14.4751C71.2864 14.4751 71.025 14.365 70.8323 14.1691C70.6395 13.9731 70.5312 13.7073 70.5312 13.4302V8.88647Z" fill="#212322"/>
<path d="M70.3359 16.8906C70.3365 16.6466 70.4082 16.4082 70.542 16.2056C70.6757 16.003 70.8655 15.8453 71.0874 15.7523C71.3093 15.6593 71.5533 15.6353 71.7886 15.6833C72.0239 15.7312 72.24 15.849 72.4095 16.0218C72.579 16.1945 72.6943 16.4145 72.7409 16.6538C72.7875 16.8932 72.7633 17.1412 72.6714 17.3666C72.5794 17.592 72.4238 17.7846 72.2242 17.9201C72.0246 18.0556 71.79 18.1279 71.55 18.1279C71.3903 18.1279 71.2322 18.0959 71.0847 18.0337C70.9372 17.9714 70.8033 17.8802 70.6905 17.7653C70.5777 17.6504 70.4884 17.514 70.4275 17.3639C70.3667 17.2138 70.3356 17.0529 70.3359 16.8906Z" fill="#546C83"/>
<path d="M10.2911 14.2759C10.2519 14.3095 10.2089 14.3384 10.163 14.3617C10.1547 14.362 10.1465 14.3639 10.139 14.3675C10.1315 14.3711 10.1248 14.3761 10.1193 14.3824C10.0057 14.4396 9.88191 14.4728 9.75536 14.4801H9.67384C9.60979 14.4801 9.54865 14.4801 9.49042 14.4801L9.3827 14.4624C9.3346 14.4545 9.28765 14.4406 9.24295 14.4209L9.11485 14.3558C9.02827 14.31 8.95195 14.2465 8.89067 14.1693L8.85865 14.1367C8.82371 14.1012 8.79168 14.0657 8.76257 14.0302C8.72709 13.9699 8.69501 13.9077 8.66649 13.8437L7.4699 11.1796L6.28495 13.8437C6.25705 13.9004 6.22493 13.9548 6.18888 14.0065C6.15394 14.0568 6.119 14.1042 6.08116 14.1486C6.04055 14.2047 5.99024 14.2529 5.93267 14.2907L5.75217 14.3972C5.63632 14.448 5.51366 14.481 5.38824 14.4949H5.22811C5.10157 14.4876 4.97778 14.4544 4.86418 14.3972C4.73928 14.3428 4.62715 14.2621 4.53519 14.1604C4.44828 14.0688 4.37914 13.9614 4.33139 13.8437L0.74453 5.79816C0.681849 5.66612 0.649021 5.52149 0.648453 5.37487C0.647733 5.23364 0.671383 5.09338 0.718327 4.96046C0.767181 4.82867 0.842543 4.70869 0.939595 4.6082C1.03864 4.50234 1.15611 4.41603 1.28605 4.35364C1.41501 4.29024 1.55624 4.25687 1.69947 4.25595C1.83805 4.25408 1.97562 4.28024 2.10416 4.33292C2.23327 4.38327 2.35038 4.46096 2.44771 4.56084C2.54717 4.66521 2.62796 4.78641 2.68644 4.91901L5.30672 10.9754L6.33154 8.60729L5.08254 5.79816C5.01944 5.666 4.98471 5.52172 4.98064 5.37487C4.97652 5.23389 4.99824 5.09336 5.04469 4.96046C5.09096 4.82943 5.16331 4.70951 5.25722 4.6082C5.35627 4.50234 5.47374 4.41603 5.60368 4.35364C5.73264 4.29024 5.87387 4.25687 6.0171 4.25595C6.15373 4.25486 6.28924 4.281 6.41597 4.33292C6.54459 4.38256 6.66088 4.46038 6.7566 4.56084C6.85996 4.66382 6.94384 4.78523 7.00407 4.91901L7.46117 5.99353L7.93282 4.91901C7.98604 4.78437 8.06751 4.66314 8.17155 4.5638C8.27162 4.46889 8.38809 4.39362 8.5151 4.3418C8.64211 4.29119 8.77756 4.26606 8.91396 4.26779C9.05799 4.26704 9.20032 4.29943 9.3303 4.36252C9.46083 4.42519 9.57842 4.51259 9.67675 4.62004C9.7723 4.72175 9.84745 4.84139 9.89802 4.9723C9.94744 5.10663 9.97007 5.24963 9.96457 5.39294C9.95907 5.53626 9.92556 5.67703 9.866 5.80704L8.617 8.61913L9.64182 10.9872L12.2621 4.93085C12.3161 4.79988 12.3955 4.68128 12.4956 4.58212C12.5956 4.48296 12.7142 4.40526 12.8444 4.35364C12.9735 4.30051 13.1119 4.27493 13.2512 4.27849C13.3904 4.28206 13.5274 4.31469 13.6537 4.37436C13.7843 4.43703 13.9019 4.52443 14.0002 4.63189C14.0958 4.73359 14.1709 4.85323 14.2215 4.98414C14.2707 5.11548 14.2954 5.25502 14.2943 5.39559C14.294 5.54224 14.2611 5.68694 14.1982 5.81888L10.6317 13.8407C10.5749 13.9581 10.5035 14.0675 10.4192 14.1663C10.3802 14.2072 10.3373 14.2439 10.2911 14.2759Z" fill="#212322"/>
</svg>
