<svg width="191" height="40" viewBox="0 0 191 40" fill="none" xmlns="http://www.w3.org/2000/svg">
<path d="M4.74803 30.5504V30.7359C4.74803 31.8965 3.84711 32.8345 2.68651 32.8345C1.52592 32.8345 0.625 31.8965 0.625 30.7359V7.9795C0.625 6.8189 1.52592 5.91797 2.68651 5.91797C3.84711 5.91797 4.74803 6.8189 4.74803 7.9795V15.3671C6.39618 13.8673 8.57428 13.0035 10.9697 13.0035C16.3699 13.0035 20.4558 17.3916 20.4558 22.9349C20.4558 28.4783 16.3699 32.8716 10.9697 32.8716C8.56898 32.8716 6.39618 32.0078 4.74803 30.5451V30.5504ZM16.2957 22.9402C16.2957 19.4531 13.7466 16.8298 10.5245 16.8298C7.3024 16.8298 4.86462 19.3418 4.75333 22.6752V22.9402C4.75333 26.4273 7.3024 29.0506 10.5245 29.0506C13.7466 29.0506 16.2957 26.4273 16.2957 22.9402Z" fill="#212322"/>
<path d="M38.45 30.5504C36.8018 32.0131 34.629 32.8769 32.2283 32.8769C26.8281 32.8769 22.7422 28.4888 22.7422 22.9402C22.7422 17.3915 26.8281 13.0088 32.2283 13.0088C34.629 13.0088 36.8018 13.8726 38.45 15.3724V15.1074C38.45 13.9468 39.3509 13.0459 40.5115 13.0459C41.6721 13.0459 42.573 13.9468 42.573 15.1074V30.7412C42.573 31.9018 41.6721 32.8398 40.5115 32.8398C39.3509 32.8398 38.45 31.9018 38.45 30.7412V30.5557V30.5504ZM38.45 22.9402V22.6752C38.3016 19.3365 35.8267 16.8298 32.6788 16.8298C29.5309 16.8298 26.9076 19.4531 26.9076 22.9402C26.9076 26.4273 29.4567 29.0506 32.6788 29.0506C35.9009 29.0506 38.45 26.4273 38.45 22.9402Z" fill="#212322"/>
<path d="M45.6406 22.9402C45.6406 17.3915 49.7266 13.0088 55.1268 13.0088C57.5275 13.0088 59.7003 13.8726 61.3484 15.3724V15.1074C61.3484 13.9468 62.2493 13.0459 63.4099 13.0459C64.5705 13.0459 65.4714 13.9468 65.4714 15.1074V30.0628C65.4714 35.6857 60.9721 39.9995 55.3493 39.9995C52.1643 39.9995 49.6524 38.6481 48.1897 37C47.8134 36.5495 47.5908 36.0248 47.5908 35.6115C47.5908 34.4509 48.4918 33.6612 49.6153 33.6612C50.442 33.6612 50.8872 34.1488 51.4171 34.5993C52.4293 35.5373 53.7012 36.1732 55.3547 36.1732C58.6139 36.1732 61.0887 33.6612 61.3166 30.5504C59.6685 32.0131 57.5328 32.8769 55.1321 32.8769C49.7319 32.8769 45.6459 28.4888 45.6459 22.9402H45.6406ZM61.3484 23.1999V22.9349C61.3484 19.4478 58.7993 16.8245 55.5772 16.8245C52.3551 16.8245 49.806 19.4478 49.806 22.9349C49.806 26.422 52.3551 29.0453 55.5772 29.0453C58.7993 29.0453 61.2 26.5704 61.3484 23.1999Z" fill="#212322"/>
<path d="M71.2762 13.3798C71.838 8.76914 75.2879 5.91797 79.713 5.91797C80.7623 5.91797 81.6262 6.7818 81.6262 7.83112C81.6262 8.88043 80.7623 9.74426 79.713 9.74426C77.5402 9.74426 75.8868 10.9844 75.4416 13.3798H79.713C80.7623 13.3798 81.6262 14.2065 81.6262 15.2929C81.6262 16.3793 80.7623 17.2061 79.713 17.2061H75.325V30.7412C75.325 31.9018 74.387 32.8398 73.2635 32.8398C72.14 32.8398 71.202 31.9018 71.202 30.7412V17.2061H69.8506C68.7642 17.2061 67.9375 16.3422 67.9375 15.2929C67.9375 14.2436 68.7642 13.3798 69.8506 13.3798H71.2762Z" fill="#212322"/>
<path d="M81.4453 22.9402C81.4453 17.3915 85.6796 13.0088 91.3819 13.0088C97.0842 13.0088 101.319 17.3968 101.319 22.9402C101.319 28.4835 97.1213 32.8769 91.3819 32.8769C85.6425 32.8769 81.4453 28.4888 81.4453 22.9402ZM97.1531 22.9402C97.1531 19.5644 94.6782 16.8298 91.3819 16.8298C88.0856 16.8298 85.6107 19.5644 85.6107 22.9402C85.6107 26.316 88.0856 29.0506 91.3819 29.0506C94.6782 29.0506 97.1531 26.2736 97.1531 22.9402Z" fill="#212322"/>
<path d="M104.383 21.7747C104.383 16.4486 107.944 13.0039 112.82 13.0039C113.869 13.0039 114.733 13.8306 114.733 14.9171C114.733 16.0035 113.869 16.8302 112.82 16.8302C110.345 16.8302 108.511 18.4784 108.511 21.78V30.7416C108.511 31.9022 107.61 32.8402 106.45 32.8402C105.289 32.8402 104.388 31.9022 104.388 30.7416V21.78L104.383 21.7747Z" fill="#212322"/>
<path d="M115.25 22.9402C115.25 17.3915 119.484 13.0088 125.187 13.0088C128.335 13.0088 130.958 14.3602 132.383 16.0454C132.76 16.4959 132.982 17.0206 132.982 17.471C132.982 18.5945 132.118 19.3842 130.958 19.3842C130.131 19.3842 129.723 18.9708 129.193 18.5203C128.255 17.5823 126.983 16.8351 125.181 16.8351C121.959 16.8351 119.41 19.5326 119.41 22.9455C119.41 26.3584 121.959 29.0559 125.181 29.0559C126.904 29.0559 128.255 28.3087 129.156 27.3706C129.681 26.9202 130.131 26.4326 130.958 26.4326C132.118 26.4326 132.982 27.2593 132.982 28.42C132.982 28.8333 132.76 29.358 132.383 29.7713C130.958 31.4937 128.372 32.8822 125.187 32.8822C119.49 32.8822 115.25 28.4942 115.25 22.9455V22.9402Z" fill="#212322"/>
<path d="M150.747 30.5504C149.099 32.0131 146.921 32.8769 144.525 32.8769C139.125 32.8769 135.039 28.4888 135.039 22.9402C135.039 17.3915 139.125 13.0088 144.525 13.0088C146.926 13.0088 149.099 13.8726 150.747 15.3724V15.1074C150.747 13.9468 151.648 13.0459 152.808 13.0459C153.969 13.0459 154.87 13.9468 154.87 15.1074V30.7412C154.87 31.9018 153.969 32.8398 152.808 32.8398C151.648 32.8398 150.747 31.9018 150.747 30.7412V30.5557V30.5504ZM150.747 22.9402V22.6752C150.598 19.3365 148.124 16.8298 144.976 16.8298C141.828 16.8298 139.204 19.4531 139.204 22.9402C139.204 26.4273 141.754 29.0506 144.976 29.0506C148.198 29.0506 150.747 26.4273 150.747 22.9402Z" fill="#212322"/>
<path d="M159.819 26.4644C160.417 26.4644 160.942 26.7294 161.244 27.2116C161.806 28.0384 162.596 29.1619 164.207 29.1619C165.441 29.1619 166.342 28.2239 166.342 27.1375C166.342 25.6006 164.917 25.0017 163.157 24.4029C160.794 23.5761 158.133 22.5639 158.133 18.7058C158.133 15.5208 160.757 13.0088 164.207 13.0088C167.392 13.0088 170.317 14.959 170.317 17.3173C170.317 18.3667 169.453 19.1563 168.404 19.1563C167.99 19.1563 167.466 19.0079 167.206 18.4832C166.57 17.7731 165.669 16.6814 164.207 16.6814C162.935 16.6814 162.108 17.6194 162.108 18.7058C162.108 20.2427 163.682 20.7303 165.595 21.3662C167.879 22.0764 170.471 23.2794 170.471 27.0262C170.471 30.1741 167.736 32.8769 164.212 32.8769C160.873 32.8769 157.953 30.7041 157.953 28.3776C157.953 27.3282 158.78 26.4644 159.829 26.4644H159.819Z" fill="#212322"/>
<path d="M173.508 7.9795C173.508 6.8189 174.409 5.91797 175.569 5.91797C176.73 5.91797 177.631 6.8189 177.631 7.9795V14.6517C178.829 13.7136 180.445 13.0035 182.39 13.0035C186.852 13.0035 190.376 16.3793 190.376 21.7372V30.7359C190.376 31.8965 189.438 32.8345 188.315 32.8345C187.191 32.8345 186.253 31.8965 186.253 30.7359V21.5888C186.253 18.4409 184.34 16.8298 181.945 16.8298C179.549 16.8298 177.636 18.4409 177.636 21.5888V30.7359C177.636 31.8965 176.735 32.8345 175.575 32.8345C174.414 32.8345 173.513 31.8965 173.513 30.7359V7.9795H173.508Z" fill="#212322"/>
<path d="M104 37.5618C104 36.2104 105.086 35.124 106.438 35.124C107.789 35.124 108.876 36.2104 108.876 37.5618C108.876 38.9132 107.789 39.9996 106.438 39.9996C105.086 39.9996 104 38.8761 104 37.5618Z" fill="#9ABECA"/>
</svg>
