<svg width="64" height="65" viewBox="0 0 64 65" fill="none" xmlns="http://www.w3.org/2000/svg">
<rect opacity="0.2" y="0.599609" width="64" height="64" rx="1.33333" fill="url(#paint0_linear_1219_5290)" fill-opacity="0.6"/>
<path d="M31.2939 13.9814C31.7447 13.6519 32.3722 13.6752 32.7979 14.0518C37.2359 17.9781 43.0279 20.0228 48.9473 19.752L49.1514 19.7607C49.6184 19.8192 50.0169 20.1486 50.1533 20.6123C51.0626 23.7036 51.3602 26.9083 51.0684 30.0518L49.874 29.9404L48.6787 29.8301C48.9151 27.2837 48.7218 24.6932 48.0889 22.1719C42.232 22.2149 36.5438 20.2171 32.002 16.5215C27.4596 20.2176 21.7705 22.2152 15.9131 22.1719C15.245 24.8349 15.0628 27.5996 15.3779 30.332C15.728 33.3675 16.685 36.3015 18.1914 38.96C19.6979 41.6185 21.7233 43.9474 24.1475 45.8076C26.489 47.6044 29.1573 48.9264 32.002 49.7061C32.5551 49.5541 33.1003 49.386 33.6338 49.1953C34.2578 48.9723 34.9449 49.2969 35.168 49.9209C35.391 50.545 35.0655 51.2321 34.4414 51.4551C33.9157 51.6429 33.3828 51.8123 32.8447 51.9648L32.3057 52.1123C32.1076 52.164 31.8983 52.1637 31.7002 52.1123C28.4311 51.2643 25.3659 49.7679 22.6865 47.7119C20.0071 45.6559 17.7676 43.0819 16.1025 40.1436C14.4377 37.2054 13.3811 33.9622 12.9941 30.6074C12.6072 27.2522 12.898 23.8526 13.8506 20.6123L13.9248 20.4229C14.1321 19.9999 14.5735 19.7299 15.0566 19.752C20.976 20.0228 26.769 17.9782 31.207 14.0518L31.2939 13.9814ZM44.4463 32.9512C45.1213 32.9512 45.6465 33.5514 45.6465 34.1514L45.7217 35.501C46.3216 35.576 46.9967 35.8006 47.8965 36.1006C48.4964 36.3256 48.7963 37.0007 48.6465 37.6006C48.4215 38.2756 47.7463 38.5756 47.0713 38.3506C46.6213 38.2006 45.9464 37.9763 45.3467 37.9014C43.6968 37.6014 41.8972 37.9009 41.7471 39.1758C41.5971 40.0008 41.7469 40.5264 44.2969 41.2764L44.8213 41.4258C46.9963 42.0258 50.2219 43.0012 49.5469 46.4512C49.2468 48.2511 47.7464 49.451 45.6465 49.751V50.9512C45.6464 51.6261 45.1212 52.1514 44.4463 52.1514C43.7716 52.1511 43.2472 51.6259 43.2471 50.9512V49.6758C42.2721 49.5258 41.2965 49.1506 40.3965 48.8506L40.0215 48.7012C39.4217 48.4762 39.0467 47.801 39.2715 47.2012C39.4965 46.6012 40.1717 46.2262 40.8467 46.4512L41.2217 46.6006C41.9717 46.9006 42.8719 47.2014 43.5469 47.2764C45.1968 47.5763 46.9966 47.2759 47.2217 46.001C47.3717 44.951 46.8463 44.501 44.0713 43.751L43.5469 43.6006C41.9719 43.1506 38.6715 42.1756 39.2715 38.7256C39.5716 36.9257 41.0722 35.7258 43.2471 35.4258V34.1514C43.2471 33.5515 43.7715 32.9514 44.4463 32.9512ZM51.0684 30.0518C51.0071 30.7116 50.4226 31.197 49.7627 31.1357C49.103 31.0744 48.6176 30.4898 48.6787 29.8301L51.0684 30.0518Z" fill="url(#paint1_linear_1219_5290)"/>
<defs>
<linearGradient id="paint0_linear_1219_5290" x1="-8.64697e-07" y1="6.20431" x2="60.4207" y2="11.8914" gradientUnits="userSpaceOnUse">
<stop stop-color="#7B7B7B"/>
<stop offset="1" stop-color="#9ABECA"/>
</linearGradient>
<linearGradient id="paint1_linear_1219_5290" x1="12.8281" y1="17.1138" x2="49.0325" y2="20.517" gradientUnits="userSpaceOnUse">
<stop stop-color="#7B7B7B"/>
<stop offset="1" stop-color="#9ABECA"/>
</linearGradient>
</defs>
</svg>
