<svg width="65" height="65" viewBox="0 0 65 65" fill="none" xmlns="http://www.w3.org/2000/svg">
<rect opacity="0.2" x="0.664062" y="0.599609" width="64" height="64" rx="1.33333" fill="url(#paint0_linear_1219_5264)" fill-opacity="0.6"/>
<path d="M40.9922 23.7197C43.4689 23.7198 45.8565 24.5836 47.7529 26.1436L48.5029 25.3945L48.582 25.3242C48.9865 24.9943 49.5828 25.0177 49.96 25.3945C50.3369 25.7715 50.3608 26.3679 50.0312 26.7725L49.96 26.8506L49.21 27.5996C50.771 29.4963 51.6356 31.8848 51.6357 34.3623L51.623 34.8867C51.563 36.1054 51.2931 37.3068 50.8252 38.4365C50.2903 39.7275 49.5057 40.9005 48.5176 41.8887C47.5295 42.8767 46.3564 43.6605 45.0654 44.1953C43.7743 44.7301 42.3897 45.0068 40.9922 45.0068C39.5947 45.0068 38.21 44.7301 36.9189 44.1953C35.628 43.6605 34.4539 42.8768 33.4658 41.8887C32.4778 40.9005 31.693 39.7275 31.1582 38.4365C30.6234 37.1453 30.3486 35.76 30.3486 34.3623C30.3488 31.5399 31.4702 28.8328 33.4658 26.8369C35.4617 24.8411 38.1697 23.7199 40.9922 23.7197ZM40.9922 25.7793C38.7161 25.7795 36.5323 26.6836 34.9229 28.293C33.3134 29.9025 32.4093 32.0861 32.4092 34.3623C32.4092 35.4894 32.6312 36.6062 33.0625 37.6475C33.4938 38.6885 34.1261 39.6348 34.9229 40.4316C35.7198 41.2286 36.6668 41.8616 37.708 42.293C38.749 42.7241 39.8654 42.9462 40.9922 42.9463C42.1191 42.9462 43.2362 42.7242 44.2773 42.293C45.3185 41.8617 46.2646 41.2285 47.0615 40.4316C47.8584 39.6347 48.4906 38.6886 48.9219 37.6475C49.3532 36.6061 49.5762 35.4895 49.5762 34.3623L49.5645 33.9365C49.4591 31.8154 48.5704 29.8019 47.0615 28.293C45.452 26.6837 43.2683 25.7794 40.9922 25.7793ZM26.0781 40.0352C26.5823 40.0865 26.9756 40.5126 26.9756 41.0303C26.9754 41.5478 26.5822 41.9741 26.0781 42.0254L25.9756 42.0303H23.7168C23.1647 42.0303 22.717 41.5824 22.7168 41.0303C22.7168 40.478 23.1645 40.0303 23.7168 40.0303H25.9756L26.0781 40.0352ZM43.7783 30.1309C44.1828 29.8011 44.7792 29.8244 45.1562 30.2012C45.5331 30.5781 45.557 31.1746 45.2275 31.5791L45.1562 31.6582L41.7227 35.0908C41.3204 35.4927 40.6687 35.4928 40.2666 35.0908C39.8647 34.6886 39.8646 34.0359 40.2666 33.6338L43.6992 30.2012L43.7783 30.1309ZM26.0576 33.2578C26.5619 33.309 26.9551 33.7352 26.9551 34.2529C26.9548 34.7704 26.5617 35.1969 26.0576 35.248L25.9551 35.2529H19.1777C18.6258 35.2528 18.1781 34.8048 18.1777 34.2529C18.1777 33.7007 18.6256 33.2531 19.1777 33.2529H25.9551L26.0576 33.2578ZM26.0625 26.4795C26.5665 26.5309 26.9598 26.9571 26.96 27.4746C26.9599 27.9922 26.5665 28.4183 26.0625 28.4697L25.96 28.4746H14.6641C14.1118 28.4746 13.6641 28.0268 13.6641 27.4746C13.6642 26.9225 14.1119 26.4746 14.6641 26.4746H25.96L26.0625 26.4795ZM43.8496 19.6045C44.369 19.6573 44.7734 20.0966 44.7734 20.6299C44.7733 21.163 44.3688 21.6015 43.8496 21.6543L43.7441 21.6592H38.251C37.6824 21.659 37.2209 21.1985 37.2207 20.6299C37.2207 20.0611 37.6823 19.5998 38.251 19.5996H43.7441L43.8496 19.6045Z" fill="url(#paint1_linear_1219_5264)"/>
<defs>
<linearGradient id="paint0_linear_1219_5264" x1="0.664062" y1="6.20431" x2="61.0847" y2="11.8914" gradientUnits="userSpaceOnUse">
<stop stop-color="#7B7B7B"/>
<stop offset="1" stop-color="#9ABECA"/>
</linearGradient>
<linearGradient id="paint1_linear_1219_5264" x1="13.6641" y1="21.8246" x2="49.1279" y2="26.8134" gradientUnits="userSpaceOnUse">
<stop stop-color="#7B7B7B"/>
<stop offset="1" stop-color="#9ABECA"/>
</linearGradient>
</defs>
</svg>
