<svg width="64" height="65" viewBox="0 0 64 65" fill="none" xmlns="http://www.w3.org/2000/svg">
<rect opacity="0.2" y="0.599976" width="64" height="64" rx="1.33333" fill="url(#paint0_linear_1219_5240)" fill-opacity="0.6"/>
<path d="M17 39.4999C17.5523 39.4999 18 39.9476 18 40.4999V44.2499C18.0001 44.979 18.2901 45.6786 18.8057 46.1942C19.3212 46.7098 20.021 46.9998 20.75 46.9999H24.499L24.6016 47.0048C25.1058 47.056 25.499 47.4821 25.499 47.9999C25.4987 48.5174 25.1056 48.9438 24.6016 48.995L24.499 48.9999H20.75C19.4905 48.9998 18.2812 48.499 17.3906 47.6083C16.5003 46.7176 16.0001 45.5093 16 44.2499V40.4999C16 39.9477 16.4479 39.5001 17 39.4999ZM47 39.4999C47.5522 39.5 48 39.9477 48 40.4999V44.2499C47.9999 45.5093 47.4998 46.7176 46.6094 47.6083C45.7188 48.4988 44.5104 48.9997 43.251 48.9999H39.501C38.9489 48.9999 38.5013 48.5519 38.501 47.9999C38.501 47.4476 38.9487 46.9999 39.501 46.9999H43.251C43.9798 46.9997 44.6788 46.7096 45.1943 46.1942C45.7099 45.6786 45.9999 44.979 46 44.2499V40.4999C46 39.9477 46.4478 39.5 47 39.4999ZM38.375 36.4999C38.8927 36.4999 39.3189 36.8931 39.3701 37.3973L39.3809 37.6229C39.4093 37.9091 39.5361 38.1786 39.7412 38.3837C39.9756 38.6179 40.2937 38.7499 40.625 38.7499C41.1772 38.7499 41.625 39.1976 41.625 39.7499C41.6246 40.3018 41.177 40.7498 40.625 40.7499C40.2936 40.7499 39.9756 40.8817 39.7412 41.1161C39.5364 41.3211 39.4093 41.59 39.3809 41.8759L39.375 41.9999L39.3701 42.1014C39.3189 42.6057 38.8928 42.9999 38.375 42.9999C37.8231 42.9998 37.3754 42.5518 37.375 41.9999C37.375 41.6685 37.243 41.3505 37.0088 41.1161C36.8037 40.911 36.5351 40.7842 36.249 40.7557L36.125 40.7499L36.0234 40.744C35.5193 40.6929 35.1254 40.2674 35.125 39.7499C35.125 39.1977 35.5729 38.7501 36.125 38.7499L36.249 38.743C36.5348 38.7146 36.8038 38.5885 37.0088 38.3837C37.2138 38.1786 37.3407 37.909 37.3691 37.6229L37.3799 37.3973C37.4311 36.8932 37.8573 36.5 38.375 36.4999ZM28.251 25.2499C28.7687 25.2499 29.1948 25.6432 29.2461 26.1473L29.251 26.2499L29.2578 26.535C29.3284 27.956 29.9248 29.3045 30.9355 30.3153C31.9464 31.3262 33.2948 31.9226 34.7158 31.993L35.001 31.9999C35.553 32.0001 36.001 32.4477 36.001 32.9999C36.0007 33.5517 35.5529 33.9996 35.001 33.9999C33.4764 33.9999 32.0137 34.6054 30.9355 35.6835C29.9248 36.6944 29.3283 38.0436 29.2578 39.4647L29.251 39.7499L29.2461 39.8514C29.1949 40.3557 28.7687 40.7499 28.251 40.7499C27.6991 40.7497 27.2514 40.3017 27.251 39.7499C27.251 38.225 26.6455 36.7618 25.5674 35.6835C24.5566 34.6726 23.208 34.0772 21.7871 34.0067L21.502 33.9999L21.3994 33.995C20.8955 33.9437 20.5023 33.5173 20.502 32.9999C20.502 32.4476 20.9497 31.9999 21.502 31.9999L21.7871 31.993C23.2079 31.9225 24.5566 31.326 25.5674 30.3153C26.6453 29.2371 27.2508 27.7746 27.251 26.2499C27.251 25.6977 27.6988 25.2501 28.251 25.2499ZM28.251 30.0526C27.9082 30.661 27.4839 31.2269 26.9814 31.7294C26.4789 32.2319 25.9131 32.6571 25.3047 32.9999C25.9131 33.3427 26.4789 33.7669 26.9814 34.2694C27.4838 34.7719 27.9082 35.3379 28.251 35.9462C28.5937 35.3378 29.0181 34.7719 29.5205 34.2694C30.0229 33.7669 30.589 33.3427 31.1973 32.9999C30.5889 32.6571 30.023 32.2318 29.5205 31.7294C29.0181 31.2269 28.5937 30.661 28.251 30.0526ZM38.375 22.9999C38.8927 22.9999 39.3188 23.3932 39.3701 23.8973L39.375 23.9999L39.3809 24.1239C39.4094 24.4097 39.5364 24.6788 39.7412 24.8837C39.9756 25.1179 40.2937 25.2499 40.625 25.2499C41.1772 25.2499 41.625 25.6976 41.625 26.2499C41.6247 26.8019 41.1771 27.2498 40.625 27.2499C40.2936 27.2499 39.9756 27.3817 39.7412 27.6161C39.507 27.8505 39.375 28.1685 39.375 28.4999L39.3701 28.6024C39.3185 29.1063 38.8925 29.4999 38.375 29.4999C37.8576 29.4998 37.4314 29.1062 37.3799 28.6024L37.375 28.4999L37.3691 28.3759C37.3407 28.0899 37.2137 27.8211 37.0088 27.6161C36.8037 27.411 36.535 27.2842 36.249 27.2557L36.125 27.2499L36.0234 27.245C35.5192 27.1939 35.1252 26.7675 35.125 26.2499C35.125 25.6977 35.5729 25.2501 36.125 25.2499L36.249 25.244C36.5349 25.2156 36.8038 25.0885 37.0088 24.8837C37.2139 24.6785 37.3407 24.4091 37.3691 24.1229L37.3799 23.8973C37.431 23.3931 37.8573 23 38.375 22.9999ZM24.6016 17.0048C25.1058 17.056 25.499 17.4821 25.499 17.9999C25.4989 18.5175 25.1057 18.9438 24.6016 18.995L24.499 18.9999H20.75C20.0209 19 19.3212 19.2899 18.8057 19.8055C18.2902 20.3212 18 21.0207 18 21.7499V25.4999C17.9998 26.052 17.5522 26.4999 17 26.4999C16.448 26.4997 16.0002 26.0519 16 25.4999V21.7499C16 20.4905 16.5004 19.2822 17.3906 18.3915C18.2813 17.5008 19.4904 17 20.75 16.9999H24.499L24.6016 17.0048ZM43.251 16.9999C44.5105 17 45.7188 17.5008 46.6094 18.3915C47.4997 19.2822 48 20.4904 48 21.7499V25.4999C47.9998 26.0519 47.5521 26.4998 47 26.4999C46.4479 26.4998 46.0002 26.0519 46 25.4999V21.7499C46 21.0206 45.7099 20.3212 45.1943 19.8055C44.6788 19.29 43.9799 19 43.251 18.9999H39.501C38.9488 18.9999 38.5011 18.552 38.501 17.9999C38.501 17.4476 38.9487 16.9999 39.501 16.9999H43.251Z" fill="url(#paint1_linear_1219_5240)"/>
<defs>
<linearGradient id="paint0_linear_1219_5240" x1="-8.64697e-07" y1="6.20468" x2="60.4207" y2="11.8918" gradientUnits="userSpaceOnUse">
<stop stop-color="#7B7B7B"/>
<stop offset="1" stop-color="#9ABECA"/>
</linearGradient>
<linearGradient id="paint1_linear_1219_5240" x1="16" y1="19.8022" x2="46.2103" y2="22.6458" gradientUnits="userSpaceOnUse">
<stop stop-color="#7B7B7B"/>
<stop offset="1" stop-color="#9ABECA"/>
</linearGradient>
</defs>
</svg>
