<svg width="65" height="65" viewBox="0 0 65 65" fill="none" xmlns="http://www.w3.org/2000/svg">
<rect opacity="0.2" x="0.335938" y="0.599609" width="64" height="64" rx="1.33333" fill="url(#paint0_linear_1219_5251)" fill-opacity="0.6"/>
<path d="M37.4873 29.3076C39.1658 29.3077 40.775 29.9753 41.9619 31.1621C43.1489 32.3491 43.8164 33.959 43.8164 35.6377L43.8086 35.9512C43.733 37.4731 43.1082 38.9176 42.0498 40.0195C42.0499 40.0241 42.0508 40.0286 42.0508 40.0332V47.9453C42.0507 48.3446 41.8248 48.7099 41.4678 48.8887C41.1105 49.0673 40.6819 49.0287 40.3623 48.7891L37.4785 46.626L34.5947 48.7891C34.2751 49.0286 33.8475 49.0673 33.4902 48.8887C33.1331 48.7099 32.9073 48.3447 32.9072 47.9453V40.0332C32.9072 40.0234 32.9079 40.0136 32.9082 40.0039C31.7869 38.8282 31.1573 37.2662 31.1572 35.6377C31.1572 33.959 31.8247 32.3491 33.0117 31.1621C34.1988 29.9751 35.8086 29.3076 37.4873 29.3076ZM35.0176 45.835L36.8457 44.4639L36.9922 44.3711C37.3473 44.1864 37.7841 44.2177 38.1123 44.4639L39.9404 45.835V41.4697C39.266 41.7535 38.5433 41.9221 37.8018 41.959L37.4873 41.9668C36.6303 41.9668 35.7915 41.7921 35.0176 41.4639V45.835ZM44.5225 17C45.7347 17.0001 46.8977 17.4826 47.7549 18.3398C48.6119 19.197 49.0937 20.3591 49.0938 21.5713V39.1553C49.0929 39.9568 48.8806 40.7436 48.4795 41.4375C48.0783 42.1315 47.5019 42.7086 46.8076 43.1094L46.7119 43.1582C46.2244 43.3773 45.6404 43.1962 45.3672 42.7236C45.0761 42.2192 45.2487 41.5736 45.7529 41.2822L45.8896 41.1973C46.2026 40.9881 46.4642 40.709 46.6533 40.3818C46.869 40.0086 46.9837 39.5854 46.9844 39.1543V21.5713C46.9843 20.9186 46.7242 20.2926 46.2627 19.8311C45.8012 19.3696 45.1751 19.1104 44.5225 19.1104H19.9072C18.5561 19.1105 17.4465 20.2201 17.4463 21.5713V39.1543C17.4464 39.807 17.7054 40.434 18.167 40.8955C18.6285 41.3567 19.2548 41.6151 19.9072 41.6152H28.6992L28.8057 41.6211C29.3376 41.6749 29.7536 42.1238 29.7539 42.6699C29.7539 43.2163 29.3378 43.6659 28.8057 43.7197L28.6992 43.7246H19.9072C18.6951 43.7245 17.532 43.2437 16.6748 42.3867C15.8177 41.5295 15.336 40.3665 15.3359 39.1543V21.5713C15.3361 19.0549 17.3908 17.0002 19.9072 17H44.5225ZM37.4873 31.418C36.3682 31.418 35.2953 31.8629 34.5039 32.6543C33.7126 33.4457 33.2676 34.5186 33.2676 35.6377C33.2677 36.7567 33.7126 37.8298 34.5039 38.6211C35.2952 39.4123 36.3683 39.8574 37.4873 39.8574L37.6963 39.8516C38.7392 39.7998 39.7288 39.363 40.4707 38.6211C41.262 37.8298 41.707 36.7567 41.707 35.6377L41.7021 35.4287C41.6504 34.3858 41.2125 33.3962 40.4707 32.6543C39.6794 31.863 38.6064 31.418 37.4873 31.418ZM25.2891 34.5879C25.821 34.6419 26.2354 35.0915 26.2354 35.6377C26.2353 36.1839 25.821 36.6335 25.2891 36.6875L25.1807 36.6924H21.665C21.0824 36.6924 20.6094 36.2203 20.6094 35.6377C20.6094 35.0551 21.0824 34.583 21.665 34.583H25.1807L25.2891 34.5879ZM27.0479 29.3125C27.5794 29.3667 27.9939 29.8164 27.9941 30.3623C27.9941 30.9083 27.5795 31.3578 27.0479 31.4121L26.9395 31.418H21.665C21.0824 31.418 20.6094 30.9449 20.6094 30.3623C20.6096 29.7799 21.0825 29.3076 21.665 29.3076H26.9395L27.0479 29.3125ZM42.8721 24.0391C43.4037 24.0934 43.8184 24.5429 43.8184 25.0889C43.8182 25.6347 43.4036 26.0844 42.8721 26.1387L42.7637 26.1436H21.665C21.0825 26.1436 20.6096 25.6713 20.6094 25.0889C20.6094 24.5062 21.0824 24.0332 21.665 24.0332H42.7637L42.8721 24.0391Z" fill="url(#paint1_linear_1219_5251)"/>
<defs>
<linearGradient id="paint0_linear_1219_5251" x1="0.335937" y1="6.20431" x2="60.7566" y2="11.8914" gradientUnits="userSpaceOnUse">
<stop stop-color="#7B7B7B"/>
<stop offset="1" stop-color="#9ABECA"/>
</linearGradient>
<linearGradient id="paint1_linear_1219_5251" x1="15.3359" y1="19.8024" x2="47.1742" y2="22.9638" gradientUnits="userSpaceOnUse">
<stop stop-color="#7B7B7B"/>
<stop offset="1" stop-color="#9ABECA"/>
</linearGradient>
</defs>
</svg>
