<svg width="64" height="65" viewBox="0 0 64 65" fill="none" xmlns="http://www.w3.org/2000/svg">
<rect opacity="0.2" y="0.599609" width="64" height="64" rx="1.33333" fill="url(#paint0_linear_1221_3689)" fill-opacity="0.6"/>
<path d="M48.2754 34.0498C49.4999 33.8267 50.7635 33.983 51.8975 34.4961L51.999 34.5498C52.2263 34.6882 52.3861 34.9173 52.4346 35.1826C52.4898 35.4859 52.3928 35.7976 52.1748 36.0156L48.9766 39.2139L50.2402 40.4766L53.4385 37.2793L53.5254 37.2031C53.735 37.0395 54.0063 36.9713 54.2715 37.0195C54.5747 37.0748 54.8319 37.2758 54.959 37.5566C55.472 38.6906 55.6274 39.9543 55.4043 41.1787C55.1811 42.4033 54.5901 43.531 53.71 44.4111C52.8298 45.2912 51.7021 45.8823 50.4775 46.1055C49.4718 46.2887 48.4396 46.2163 47.4746 45.9004L41.9355 51.4395C41.4482 51.9265 40.7982 52.2131 40.1133 52.2471L39.9756 52.251C39.2405 52.2509 38.5345 51.9593 38.0146 51.4395C37.4949 50.9196 37.2032 50.2136 37.2031 49.4785C37.2032 48.7436 37.4951 48.0383 38.0146 47.5186L43.5537 41.9795C43.238 41.0147 43.1654 39.9821 43.3486 38.9766C43.5718 37.7521 44.1629 36.6243 45.043 35.7441C45.9231 34.864 47.0509 34.273 48.2754 34.0498ZM31.2939 13.9814C31.7446 13.6518 32.3722 13.6752 32.7979 14.0518C37.2359 17.9781 43.0279 20.0228 48.9473 19.752L49.1514 19.7607C49.6185 19.8192 50.0169 20.1485 50.1533 20.6123C51.0627 23.7036 51.3602 26.9083 51.0684 30.0518L49.874 29.9404L48.6787 29.8301C48.9151 27.2837 48.7218 24.6932 48.0889 22.1719C42.232 22.2148 36.5438 20.2172 32.002 16.5215C27.4596 20.2176 21.7706 22.2153 15.9131 22.1719C15.245 24.8349 15.0628 27.5996 15.3779 30.332C15.728 33.3675 16.685 36.3015 18.1914 38.96C19.6979 41.6184 21.7233 43.9474 24.1475 45.8076C26.489 47.6044 29.1573 48.9264 32.002 49.7061C32.5551 49.5541 33.1003 49.3859 33.6338 49.1953C34.2578 48.9723 34.9448 49.297 35.168 49.9209C35.391 50.545 35.0655 51.2321 34.4414 51.4551C33.9157 51.6429 33.3828 51.8123 32.8447 51.9648L32.3057 52.1123C32.1076 52.164 31.8983 52.1637 31.7002 52.1123C28.4311 51.2643 25.3658 49.7679 22.6865 47.7119C20.0072 45.6559 17.7676 43.0819 16.1025 40.1436C14.4377 37.2054 13.3811 33.9622 12.9941 30.6074C12.6072 27.2522 12.898 23.8526 13.8506 20.6123L13.9248 20.4229C14.1321 19.9999 14.5735 19.7299 15.0566 19.752C20.9761 20.0228 26.769 17.9782 31.207 14.0518L31.2939 13.9814ZM49.6885 35.8438C49.3308 35.8171 48.9691 35.8334 48.6123 35.8984C47.7635 36.0532 46.9822 36.4632 46.3721 37.0732C45.762 37.6834 45.352 38.4647 45.1973 39.3135C45.0426 40.1624 45.1501 41.039 45.5059 41.8252C45.6668 42.1812 45.5906 42.5996 45.3145 42.876L39.3438 48.8467C39.1763 49.0142 39.0821 49.2417 39.082 49.4785C39.0821 49.7154 39.1763 49.9428 39.3438 50.1104C39.5113 50.2779 39.7387 50.373 39.9756 50.373L40.0635 50.3682C40.2681 50.3479 40.4608 50.257 40.6074 50.1104L46.5781 44.1396L46.6875 44.0459C46.9576 43.8483 47.3173 43.8084 47.6289 43.9492C48.415 44.3049 49.2917 44.4114 50.1406 44.2568C50.9895 44.1021 51.7707 43.6921 52.3809 43.082C52.991 42.4719 53.4009 41.6906 53.5557 40.8418C53.6207 40.4846 53.6361 40.1227 53.6094 39.7646L51.5039 41.8721C51.1669 42.2024 50.7131 42.3866 50.2412 42.3867C49.7694 42.3867 49.3156 42.2022 48.9785 41.8721L47.5898 40.4824L47.583 40.4756C47.2939 40.1807 47.1151 39.7972 47.0752 39.3896L47.0674 39.2139L47.0752 39.0371C47.1152 38.6298 47.2942 38.246 47.583 37.9512L47.5898 37.9443L47.5977 37.9355L49.6885 35.8438ZM51.0684 30.0518C51.0071 30.7117 50.4226 31.197 49.7627 31.1357C49.103 31.0743 48.6176 30.4898 48.6787 29.8301L51.0684 30.0518Z" fill="url(#paint1_linear_1221_3689)"/>
<defs>
<linearGradient id="paint0_linear_1221_3689" x1="-8.64697e-07" y1="6.20431" x2="60.4207" y2="11.8914" gradientUnits="userSpaceOnUse">
<stop stop-color="#7B7B7B"/>
<stop offset="1" stop-color="#9ABECA"/>
</linearGradient>
<linearGradient id="paint1_linear_1221_3689" x1="12.8281" y1="17.1226" x2="53.036" y2="21.3176" gradientUnits="userSpaceOnUse">
<stop stop-color="#7B7B7B"/>
<stop offset="1" stop-color="#9ABECA"/>
</linearGradient>
</defs>
</svg>
